<?xml version="1.0" encoding="utf-8"?><svg viewBox="0 0 19 19" xmlns="http://www.w3.org/2000/svg" xmlns:xlink="http://www.w3.org/1999/xlink"><style>:root>svg{display:none}:root>svg:target{display:block}</style><svg viewBox="0 0 19 19" id="arrow" xmlns="http://www.w3.org/2000/svg"><g clip-path="url(#aclip0_13385_1099)"><path d="M9.131 0l1.615 1.615-6.374 6.374h13.89v2.283H4.372l6.374 6.374-1.615 1.615-9.13-9.13L9.13 0z"/></g><defs><clipPath id="aclip0_13385_1099"><path transform="matrix(-1 0 0 1 18.262 0)" d="M0 0h18.261v18.261H0z"/></clipPath></defs></svg><svg viewBox="0 0 9 17" id="facebook" xmlns="http://www.w3.org/2000/svg"><path d="M5.901 17V9.336h2.571l.386-2.988H5.901V4.442c0-.864.24-1.453 1.48-1.453l1.581-.001V.316A21.43 21.43 0 006.658.2c-2.28 0-3.84 1.392-3.84 3.948v2.202H.237v2.988h2.58v7.662H5.9z"/></svg><svg viewBox="0 0 14 14" id="instagram" xmlns="http://www.w3.org/2000/svg"><g clip-path="url(#cclip0_13263_1087)"><path d="M7 4.4a2.628 2.628 0 00-2.625 2.625A2.628 2.628 0 007 9.65a2.628 2.628 0 002.625-2.625A2.628 2.628 0 007 4.4zm0 0a2.628 2.628 0 00-2.625 2.625A2.628 2.628 0 007 9.65a2.628 2.628 0 002.625-2.625A2.628 2.628 0 007 4.4zM11.525.6h-9.05C1.44.6.6 1.44.6 2.475v9.05c0 1.035.84 1.875 1.875 1.875h9.05c1.035 0 1.875-.84 1.875-1.875v-9.05C13.4 1.44 12.56.6 11.525.6zM7 10.4a3.38 3.38 0 01-3.375-3.375A3.38 3.38 0 017 3.65a3.38 3.38 0 013.375 3.375A3.38 3.38 0 017 10.4zm4.125-6.75a.752.752 0 01-.75-.75c0-.413.338-.75.75-.75.413 0 .75.337.75.75 0 .412-.337.75-.75.75zM7 4.4a2.628 2.628 0 00-2.625 2.625A2.628 2.628 0 007 9.65a2.628 2.628 0 002.625-2.625A2.628 2.628 0 007 4.4zm0 0a2.628 2.628 0 00-2.625 2.625A2.628 2.628 0 007 9.65a2.628 2.628 0 002.625-2.625A2.628 2.628 0 007 4.4zm0 0a2.628 2.628 0 00-2.625 2.625A2.628 2.628 0 007 9.65a2.628 2.628 0 002.625-2.625A2.628 2.628 0 007 4.4z"/></g><defs><clipPath id="cclip0_13263_1087"><path transform="translate(.6 .6)" d="M0 0h12.8v12.8H0z"/></clipPath></defs></svg><svg viewBox="0 0 19 13" id="youtube" xmlns="http://www.w3.org/2000/svg"><path d="M17.86 10.912a2.161 2.161 0 01-1.52 1.52c-1.35.37-6.75.37-6.75.37s-5.399 0-6.749-.355a2.205 2.205 0 01-1.52-1.535C.966 9.562.966 6.763.966 6.763s0-2.813.355-4.149a2.161 2.161 0 011.52-1.52c1.364-.37 6.75-.37 6.75-.37s5.4 0 6.749.356a2.161 2.161 0 011.52 1.52c.356 1.35.356 4.15.356 4.15s.014 2.813-.356 4.162zM7.872 4.177V9.35l4.49-2.586-4.49-2.586z"/></svg></svg>