<?xml version="1.0" encoding="utf-8"?><svg viewBox="0 0 176 163" xmlns="http://www.w3.org/2000/svg" xmlns:xlink="http://www.w3.org/1999/xlink"><style>:root>svg{display:none}:root>svg:target{display:block}</style><svg viewBox="0 0 19 19" id="arrow" xmlns="http://www.w3.org/2000/svg"><g clip-path="url(#aclip0_13385_1099)"><path d="M9.131 0l1.615 1.615-6.374 6.374h13.89v2.283H4.372l6.374 6.374-1.615 1.615-9.13-9.13L9.13 0z"/></g><defs><clipPath id="aclip0_13385_1099"><path transform="matrix(-1 0 0 1 18.262 0)" d="M0 0h18.261v18.261H0z"/></clipPath></defs></svg><svg viewBox="0 0 24 24" id="chain" xmlns="http://www.w3.org/2000/svg"><g clip-path="url(#bclip0_13308_770)"><path d="M18.364 15.536L16.95 14.12l1.414-1.414a5 5 0 10-7.071-7.07L9.879 7.05 8.464 5.636 9.88 4.222a7 7 0 119.9 9.9l-1.415 1.414h-.001zm-2.828 2.828l-1.415 1.414a7 7 0 11-9.9-9.9l1.415-1.414L7.05 9.88l-1.414 1.414a5 5 0 107.071 7.071l1.414-1.414 1.415 1.414zm-.708-10.607l1.415 1.415-7.071 7.07-1.415-1.414 7.071-7.07z"/></g><defs><clipPath id="bclip0_13308_770"><path d="M0 0h24v24H0z"/></clipPath></defs></svg><svg viewBox="0 0 9 17" id="facebook" xmlns="http://www.w3.org/2000/svg"><path d="M5.901 17V9.336h2.571l.386-2.988H5.901V4.442c0-.864.24-1.453 1.48-1.453l1.581-.001V.316A21.43 21.43 0 006.658.2c-2.28 0-3.84 1.392-3.84 3.948v2.202H.237v2.988h2.58v7.662H5.9z"/></svg><svg viewBox="0 0 24 24" id="google" xmlns="http://www.w3.org/2000/svg"><path d="M12.182 21C17.48 21 21 17.354 21 12.209c0-.59-.062-1.044-.15-1.498h-8.667v3.094h5.212c-.213 1.314-1.578 3.88-5.212 3.88A5.69 5.69 0 016.496 12a5.69 5.69 0 015.687-5.686c1.791 0 2.981.75 3.658 1.388l2.493-2.345C16.729 3.884 14.662 3 12.182 3 7.109 3 3 7.027 3 12s4.109 9 9.182 9z"/></svg><svg viewBox="0 0 14 14" id="instagram" xmlns="http://www.w3.org/2000/svg"><g clip-path="url(#eclip0_13263_1087)"><path d="M7 4.4a2.628 2.628 0 00-2.625 2.625A2.628 2.628 0 007 9.65a2.628 2.628 0 002.625-2.625A2.628 2.628 0 007 4.4zm0 0a2.628 2.628 0 00-2.625 2.625A2.628 2.628 0 007 9.65a2.628 2.628 0 002.625-2.625A2.628 2.628 0 007 4.4zM11.525.6h-9.05C1.44.6.6 1.44.6 2.475v9.05c0 1.035.84 1.875 1.875 1.875h9.05c1.035 0 1.875-.84 1.875-1.875v-9.05C13.4 1.44 12.56.6 11.525.6zM7 10.4a3.38 3.38 0 01-3.375-3.375A3.38 3.38 0 017 3.65a3.38 3.38 0 013.375 3.375A3.38 3.38 0 017 10.4zm4.125-6.75a.752.752 0 01-.75-.75c0-.413.338-.75.75-.75.413 0 .75.337.75.75 0 .412-.337.75-.75.75zM7 4.4a2.628 2.628 0 00-2.625 2.625A2.628 2.628 0 007 9.65a2.628 2.628 0 002.625-2.625A2.628 2.628 0 007 4.4zm0 0a2.628 2.628 0 00-2.625 2.625A2.628 2.628 0 007 9.65a2.628 2.628 0 002.625-2.625A2.628 2.628 0 007 4.4zm0 0a2.628 2.628 0 00-2.625 2.625A2.628 2.628 0 007 9.65a2.628 2.628 0 002.625-2.625A2.628 2.628 0 007 4.4z"/></g><defs><clipPath id="eclip0_13263_1087"><path transform="translate(.6 .6)" d="M0 0h12.8v12.8H0z"/></clipPath></defs></svg><svg viewBox="0 0 24 24" id="memo" xmlns="http://www.w3.org/2000/svg"><path d="M8.125 6.946V4h5.893v2.946a.59.59 0 01-.59.59H8.715a.59.59 0 01-.589-.59zM7.535 20.5h9.43v-2.027h-9.43V20.5zm0-3.206h9.43v-1.178h-9.43v1.178zm12.376-9.346l-2.729-3.306A1.767 1.767 0 0015.822 4h-.626v2.946a1.768 1.768 0 01-1.767 1.768H8.714a1.768 1.768 0 01-1.768-1.768V4H5.768A1.768 1.768 0 004 5.768v12.964A1.768 1.768 0 005.768 20.5h.59v-5.893a1.768 1.768 0 011.767-1.768h8.25a1.768 1.768 0 011.768 1.768V20.5h.59a1.768 1.768 0 001.767-1.768V9.256a1.767 1.767 0 00-.59-1.308zm-3.536 6.07h-8.25a.589.589 0 00-.59.59v.33h9.43v-.33a.59.59 0 00-.59-.59z"/></svg><svg viewBox="0 0 24 24" id="pen" xmlns="http://www.w3.org/2000/svg"><path d="M18.321 5.67a2.25 2.25 0 00-3.204 0l-1.44 1.463 3.181 3.18 1.44-1.44a2.25 2.25 0 00.023-3.203zM12.611 8.197l-6.295 6.295a.862.862 0 00-.142.195l-2.086 4.21a.75.75 0 00.653 1.102.75.75 0 00.33-.075l4.21-2.085a.863.863 0 00.194-.143l6.295-6.295-3.159-3.204zM18.246 20h-6.752a.75.75 0 010-1.5h6.752a.75.75 0 110 1.5z"/></svg><svg viewBox="0 0 24 24" id="telegram" xmlns="http://www.w3.org/2000/svg"><path d="M1.963 11.873l4.83 1.64 11.468-7.01c.166-.102.337.124.193.256L9.772 14.75l-.322 4.474a.37.37 0 00.628.29l2.673-2.628 4.887 3.7a.906.906 0 001.432-.528l3.402-15.45a1.134 1.134 0 00-1.512-1.303L1.938 10.59c-.596.229-.58 1.079.025 1.284z"/></svg><svg viewBox="0 0 176 163" id="triangle" xmlns="http://www.w3.org/2000/svg"><path d="M0 0h176v163L0 0z"/></svg><svg viewBox="0 0 19 13" id="youtube" xmlns="http://www.w3.org/2000/svg"><path d="M17.86 10.912a2.161 2.161 0 01-1.52 1.52c-1.35.37-6.75.37-6.75.37s-5.399 0-6.749-.355a2.205 2.205 0 01-1.52-1.535C.966 9.562.966 6.763.966 6.763s0-2.813.355-4.149a2.161 2.161 0 011.52-1.52c1.364-.37 6.75-.37 6.75-.37s5.4 0 6.749.356a2.161 2.161 0 011.52 1.52c.356 1.35.356 4.15.356 4.15s.014 2.813-.356 4.162zM7.872 4.177V9.35l4.49-2.586-4.49-2.586z"/></svg></svg>