<svg width="24" height="24" viewBox="0 0 24 24" fill="none" xmlns="http://www.w3.org/2000/svg">
<path d="M12.1818 21C17.4803 21 21 17.3544 21 12.2088C21 11.6196 20.9376 11.1648 20.8506 10.7112H12.183V13.8048H17.3946C17.1816 15.1188 15.8166 17.6844 12.183 17.6844C9.05264 17.6844 6.49643 15.1428 6.49643 12C6.49643 8.8572 9.05142 6.3144 12.183 6.3144C13.9741 6.3144 15.164 7.0632 15.8411 7.7016L18.3336 5.3568C16.7286 3.8844 14.6621 3 12.1818 3C7.10855 3 3 7.0272 3 12C3 16.9728 7.10855 21 12.1818 21Z" fill="#B9B9B9"/>
</svg>
