<svg width="24" height="24" viewBox="0 0 24 24" fill="none" xmlns="http://www.w3.org/2000/svg">
<path d="M8.125 6.94643V4H14.0179V6.94643C14.0179 7.10272 13.9558 7.2526 13.8453 7.36312C13.7347 7.47363 13.5849 7.53571 13.4286 7.53571H8.71429C8.558 7.53571 8.40811 7.47363 8.2976 7.36312C8.18709 7.2526 8.125 7.10272 8.125 6.94643ZM7.53571 20.5H16.9643V18.4729H7.53571V20.5ZM7.53571 17.2943H16.9643V16.1157H7.53571V17.2943ZM19.9107 7.94821L17.1823 4.64232C17.0167 4.44168 16.8088 4.28008 16.5735 4.16905C16.3382 4.05802 16.0813 4.0003 15.8211 4H15.1964V6.94643C15.1964 7.41529 15.0102 7.86496 14.6786 8.19649C14.3471 8.52803 13.8974 8.71429 13.4286 8.71429H8.71429C8.24542 8.71429 7.79576 8.52803 7.46422 8.19649C7.13268 7.86496 6.94643 7.41529 6.94643 6.94643V4H5.76786C5.29899 4 4.84933 4.18626 4.51779 4.51779C4.18626 4.84933 4 5.29899 4 5.76786V18.7321C4 19.201 4.18626 19.6507 4.51779 19.9822C4.84933 20.3137 5.29899 20.5 5.76786 20.5H6.35714V14.6071C6.35714 14.1383 6.5434 13.6886 6.87494 13.3571C7.20647 13.0255 7.65614 12.8393 8.125 12.8393H16.375C16.8439 12.8393 17.2935 13.0255 17.6251 13.3571C17.9566 13.6886 18.1429 14.1383 18.1429 14.6071V20.5H18.7321C19.201 20.5 19.6507 20.3137 19.9822 19.9822C20.3137 19.6507 20.5 19.201 20.5 18.7321V9.25643C20.4987 9.00929 20.4455 8.76518 20.344 8.53985C20.2425 8.31452 20.0949 8.11297 19.9107 7.94821ZM16.375 14.0179H8.125C7.96871 14.0179 7.81882 14.0799 7.70831 14.1905C7.5978 14.301 7.53571 14.4509 7.53571 14.6071V14.9371H16.9643V14.6071C16.9643 14.4509 16.9022 14.301 16.7917 14.1905C16.6812 14.0799 16.5313 14.0179 16.375 14.0179Z" fill="#C7A363"/>
</svg>
