<svg width="24" height="24" viewBox="0 0 24 24" fill="none" xmlns="http://www.w3.org/2000/svg">
<path d="M18.3212 5.6696C18.1118 5.45749 17.8624 5.28908 17.5874 5.17414C17.3124 5.05919 17.0174 5 16.7193 5C16.4213 5 16.1262 5.05919 15.8512 5.17414C15.5762 5.28908 15.3268 5.45749 15.1174 5.6696L13.6769 7.13268L16.8581 10.3139L18.2987 8.87337C18.5123 8.66548 18.6825 8.41725 18.7993 8.14307C18.9162 7.86889 18.9775 7.57423 18.9796 7.27619C18.9817 6.97814 18.9246 6.68265 18.8115 6.40686C18.6985 6.13107 18.5319 5.88047 18.3212 5.6696Z" fill="#C7A363"/>
<path d="M12.6114 8.19727L6.31645 14.4923C6.26001 14.5503 6.21203 14.6159 6.17389 14.6873L4.08807 18.8965C4.02756 19.0101 3.99729 19.1374 4.00019 19.2661C4.00309 19.3948 4.03905 19.5206 4.10461 19.6313C4.17017 19.7421 4.26313 19.8342 4.37455 19.8986C4.48598 19.9631 4.61211 19.9978 4.74082 19.9994C4.85515 19.9999 4.96807 19.9742 5.07096 19.9244L9.28012 17.8386C9.35151 17.8004 9.41718 17.7525 9.4752 17.696L15.7702 11.401L12.6114 8.19727Z" fill="#C7A363"/>
<path d="M18.2461 20.0006H11.4935C11.2945 20.0006 11.1036 19.9215 10.9629 19.7808C10.8222 19.6401 10.7432 19.4493 10.7432 19.2503C10.7432 19.0513 10.8222 18.8605 10.9629 18.7198C11.1036 18.579 11.2945 18.5 11.4935 18.5H18.2461C18.4451 18.5 18.636 18.579 18.7767 18.7198C18.9174 18.8605 18.9964 19.0513 18.9964 19.2503C18.9964 19.4493 18.9174 19.6401 18.7767 19.7808C18.636 19.9215 18.4451 20.0006 18.2461 20.0006Z" fill="#C7A363"/>
</svg>
