<svg width="19" height="13" viewBox="0 0 19 13" fill="none" xmlns="http://www.w3.org/2000/svg">
<path d="M17.8604 10.9124C17.6616 11.6514 17.0789 12.2339 16.34 12.4329C14.9902 12.8022 9.59061 12.8022 9.59061 12.8022C9.59061 12.8022 4.19125 12.8022 2.84138 12.4469C2.1167 12.2481 1.51983 11.6513 1.32105 10.9124C0.96582 9.56261 0.96582 6.76338 0.96582 6.76338C0.96582 6.76338 0.96582 3.95004 1.32105 2.61439C1.52004 1.87549 2.10248 1.29295 2.84148 1.09396C4.20546 0.72451 9.59082 0.72451 9.59082 0.72451C9.59082 0.72451 14.9902 0.72451 16.34 1.07985C17.079 1.27873 17.6616 1.86128 17.8606 2.60017C18.2157 3.95004 18.2157 6.74916 18.2157 6.74916C18.2157 6.74916 18.2299 9.56261 17.8604 10.9124ZM7.8715 4.17735V9.3494L12.3615 6.76338L7.8715 4.17735Z" fill="#C9C9C9"/>
</svg>
