<svg width="64" height="64" viewBox="0 0 64 64" fill="none" xmlns="http://www.w3.org/2000/svg">
<path d="M33.7202 27.0173C33.7202 27.7369 33.1403 28.3164 32.4207 28.3164C31.701 28.3164 31.1216 27.7369 31.1216 27.0173C31.1216 26.2976 31.6813 25.7182 32.4207 25.7182C33.1607 25.7381 33.7202 26.3178 33.7202 27.0173ZM28.3632 29.6358V29.9557C28.3632 29.9557 27.7439 29.1558 26.4246 29.1558C24.2461 29.1558 22.5469 30.8149 22.5469 33.1134C22.5469 35.3921 24.2262 37.0709 26.4246 37.0709C27.7638 37.0709 28.3632 36.2515 28.3632 36.2515V36.5911C28.3632 36.7511 28.4835 36.8707 28.6432 36.8707H30.262V29.3551H28.6432C28.4835 29.3557 28.3632 29.4958 28.3632 29.6358ZM28.3632 34.4526C28.0637 34.8925 27.4639 35.2723 26.7445 35.2723C25.4654 35.2723 24.4857 34.4728 24.4857 33.1134C24.4857 31.7542 25.4654 30.9547 26.7445 30.9547C27.4441 30.9547 28.0837 31.3544 28.3632 31.7741V34.4526ZM31.4614 29.3557H33.3801V36.8713H31.4614V29.3557ZM60.1239 29.1556C58.8047 29.1556 58.1849 29.9555 58.1849 29.9555V25.7381H56.2662V36.8713H57.8853C58.0453 36.8713 58.1649 36.7313 58.1649 36.5913V36.2517C58.1649 36.2517 58.7847 37.0712 60.1035 37.0712C62.2824 37.0712 63.9813 35.3927 63.9813 33.114C63.9813 30.8353 62.2824 29.1556 60.1239 29.1556ZM59.804 35.2521C59.0642 35.2521 58.4848 34.8727 58.1849 34.4326V31.7542C58.4848 31.3544 59.1243 30.9347 59.804 30.9347C61.0832 30.9347 62.0626 31.7342 62.0626 33.0934C62.0626 34.4526 61.0834 35.2521 59.804 35.2521ZM55.267 32.4141V36.8912H53.3479V32.6337C53.3479 31.3948 52.9482 30.8948 51.8695 30.8948C51.2901 30.8948 50.6902 31.1947 50.3098 31.6346V36.8715H48.3915V29.3559H49.9101C50.07 29.3559 50.19 29.4958 50.19 29.6358V29.9557C50.7497 29.3758 51.4891 29.1558 52.2285 29.1558C53.0682 29.1558 53.7678 29.396 54.3275 29.8756C55.0068 30.4353 55.267 31.1548 55.267 32.4141ZM43.7337 29.1556C42.4149 29.1556 41.7951 29.9555 41.7951 29.9555V25.7381H39.8764V36.8713H41.4951C41.6551 36.8713 41.7751 36.7313 41.7751 36.5913V36.2517C41.7751 36.2517 42.3949 37.0712 43.7137 37.0712C45.8926 37.0712 47.5915 35.3927 47.5915 33.114C47.6114 30.8351 45.9126 29.1556 43.7337 29.1556ZM43.4138 35.2521C42.6744 35.2521 42.095 34.8727 41.7951 34.4326V31.7542C42.095 31.3544 42.7345 30.9347 43.4138 30.9347C44.6934 30.9347 45.6726 31.7342 45.6726 33.0934C45.6726 34.4526 44.6934 35.2521 43.4138 35.2521ZM38.2173 29.1556C38.7967 29.1556 39.0966 29.2558 39.0966 29.2558V31.0345C39.0966 31.0345 37.4976 30.4948 36.4985 31.6344V36.891H34.5794V29.3557H36.1985C36.3585 29.3557 36.4781 29.4956 36.4781 29.6356V29.9555C36.8383 29.5356 37.6178 29.1556 38.2173 29.1556ZM18.2898 36.1916C18.19 35.9518 18.0899 35.692 17.9901 35.4719C17.8299 35.1123 17.67 34.7723 17.5304 34.4526L17.5105 34.4326C16.1311 31.4343 14.6523 28.3964 13.093 25.3985L13.0331 25.2783C12.8691 24.9673 12.7093 24.6541 12.5537 24.3388C12.3536 23.9788 12.1539 23.5994 11.8341 23.2394C11.1945 22.4399 10.275 22 9.29579 22C8.29621 22 7.39687 22.4399 6.73754 23.1993C6.43763 23.5589 6.21758 23.9387 6.01791 24.2987C5.86191 24.6138 5.70209 24.9269 5.53849 25.2381L5.47838 25.3584C3.93928 28.3563 2.44031 31.3944 1.06115 34.3925L1.04099 34.4322C0.901212 34.7525 0.74107 35.0922 0.58113 35.4516C0.481292 35.6716 0.381454 35.9114 0.281616 36.1712C0.0216377 36.9106 -0.0584362 37.6103 0.0418012 38.3301C0.261644 39.8293 1.26082 41.088 2.64019 41.6481C3.15994 41.8682 3.69967 41.968 4.25916 41.968C4.4191 41.968 4.61878 41.948 4.77892 41.9279C5.43865 41.848 6.11815 41.6283 6.77787 41.2486C7.59735 40.7887 8.37688 40.1294 9.25625 39.1699C10.1356 40.1294 10.9351 40.7887 11.7346 41.2486C12.3946 41.6283 13.0739 41.848 13.7334 41.9279C13.8933 41.9482 14.0934 41.968 14.2533 41.968C14.813 41.968 15.3725 41.8682 15.8721 41.6481C17.2715 41.088 18.2507 39.8093 18.4707 38.3301C18.6294 37.6306 18.5496 36.9314 18.2898 36.1916ZM9.27562 37.2309C8.19617 35.8717 7.49651 34.5926 7.2569 33.5135C7.15706 33.0537 7.13689 32.6539 7.19699 32.2941C7.23673 31.9742 7.35693 31.6943 7.51687 31.4545C7.89666 30.9151 8.53622 30.5751 9.27582 30.5751C10.0156 30.5751 10.6752 30.895 11.035 31.4545C11.1949 31.6943 11.3147 31.9744 11.355 32.2941C11.4148 32.6541 11.3948 33.0736 11.2949 33.5135C11.0543 34.5726 10.3547 35.8519 9.27562 37.2309ZM17.2503 38.1704C17.1105 39.2097 16.4108 40.1094 15.4316 40.5092C14.952 40.7088 14.4321 40.7689 13.9127 40.7088C13.4131 40.6487 12.9131 40.4888 12.3938 40.1893C11.6741 39.7891 10.9547 39.1699 10.1151 38.2502C11.4341 36.6315 12.2336 35.1521 12.5335 33.8332C12.6735 33.2134 12.6937 32.6539 12.6334 32.134C12.5537 31.6344 12.3736 31.1745 12.0938 30.7748C11.4739 29.875 10.4343 29.3557 9.27542 29.3557C8.1165 29.3557 7.07699 29.8954 6.45739 30.7748C6.17765 31.1745 5.99754 31.6344 5.91767 32.134C5.8378 32.6539 5.85756 33.2334 6.01751 33.8332C6.31722 35.1521 7.13669 36.6512 8.43579 38.2702C7.61632 39.1897 6.87671 39.8095 6.15708 40.2093C5.63732 40.5092 5.13794 40.6691 4.63835 40.7288C4.09882 40.7889 3.57887 40.7088 3.11921 40.5291C2.14 40.1294 1.44034 39.2296 1.30056 38.1903C1.24066 37.6907 1.28039 37.1912 1.48047 36.6315C1.54017 36.4314 1.64041 36.2317 1.74025 35.9919C1.88022 35.672 2.03976 35.332 2.1999 34.9923L2.22007 34.9526C3.59903 31.9742 5.07803 28.9361 6.61714 25.9781L6.67704 25.8579C6.83718 25.5584 6.99712 25.2385 7.15686 24.9386C7.3168 24.6188 7.49651 24.3188 7.71655 24.0589C8.13627 23.5796 8.69576 23.3195 9.31555 23.3195C9.93535 23.3195 10.4948 23.5796 10.9146 24.0589C11.1346 24.3194 11.3143 24.6194 11.4743 24.9386C11.6344 25.2385 11.7943 25.5584 11.9539 25.8579L12.014 25.9781C13.5296 28.9484 14.989 31.9471 16.3913 34.9726V34.9925C16.5514 35.3128 16.6912 35.6722 16.8511 35.9925C16.951 36.2319 17.051 36.4316 17.1109 36.6317C17.2704 37.1508 17.3303 37.6508 17.2503 38.1704Z" fill="white"/>
</svg>
