<svg width="64" height="64" viewBox="0 0 64 64" fill="none" xmlns="http://www.w3.org/2000/svg">
<path d="M23.3276 18C24.6763 18 25.9058 18.1175 27.0165 18.353C28.1272 18.5883 29.0792 18.9743 29.8724 19.5097C30.6656 20.0457 31.2805 20.7582 31.7169 21.6473C32.1532 22.5364 32.3714 23.6342 32.3714 24.9413C32.3714 26.3533 32.0474 27.5297 31.3996 28.4707C30.7514 29.4118 29.7931 30.1829 28.5239 30.7844C30.2691 31.2812 31.5714 32.1509 32.4311 33.3921C33.2898 34.6342 33.7205 36.1312 33.7205 37.8824C33.7205 39.2941 33.4429 40.5167 32.8872 41.5495C32.3322 42.5826 31.5847 43.4256 30.6465 44.0783C29.7076 44.7323 28.6365 45.2155 27.4335 45.5298C26.223 45.8442 24.9764 46.0022 23.7248 46H10V18H23.3276ZM22.5344 29.3337C23.6451 29.3337 24.5572 29.0724 25.2714 28.5492C25.9853 28.0266 26.3422 27.1767 26.3422 26.0002C26.3422 25.3469 26.2233 24.8107 25.9853 24.3924C25.7473 23.9744 25.4301 23.6469 25.0334 23.4121C24.6366 23.1766 24.1805 23.0138 23.6649 22.9217C23.1345 22.8291 22.5969 22.7832 22.0584 22.7846H16.2276V29.3339H22.5344V29.3337ZM22.8912 41.2156C23.4992 41.2156 24.0812 41.1566 24.6364 41.0391C25.1917 40.9214 25.6807 40.7252 26.1042 40.4506C26.5268 40.1765 26.8641 39.8037 27.1156 39.3329C27.3666 38.8625 27.4923 38.2613 27.4923 37.5289C27.4923 36.0916 27.0821 35.0654 26.2627 34.4508C25.4427 33.8364 24.3586 33.529 23.0101 33.529H16.2276V41.2152L22.8912 41.2156ZM41.5575 40.6275C42.4036 41.4387 43.6201 41.8431 45.2068 41.8431C46.3434 41.8431 47.3221 41.5627 48.1417 41.0002C48.9615 40.4388 49.464 39.8435 49.6491 39.2158H54.6072C53.8142 41.647 52.5973 43.386 50.9581 44.4313C49.3181 45.4773 47.3347 46 45.008 46C43.395 46 41.9402 45.7451 40.6447 45.2351C39.3487 44.7256 38.2511 43.9999 37.3527 43.0588C36.4534 42.1178 35.7593 40.9944 35.27 39.6866C34.7805 38.3797 34.5365 36.9415 34.5365 35.3728C34.5365 33.8569 34.7871 32.4452 35.2901 31.1379C35.7919 29.831 36.5057 28.7002 37.4322 27.7454C38.3571 26.7916 39.4615 26.0399 40.7442 25.4907C42.0265 24.9416 43.4479 24.6673 45.0082 24.6673C46.7536 24.6673 48.2739 25.0006 49.5701 25.6672C50.8654 26.3337 51.9299 27.2301 52.7632 28.3534C53.5961 29.4777 54.1972 30.759 54.5683 32.1963C54.9384 33.6345 55.0702 35.1375 54.965 36.7062H40.1696C40.2487 38.5097 40.7107 39.8175 41.5575 40.6275ZM47.9237 29.961C47.2496 29.2293 46.2245 28.8629 44.8499 28.8629C43.9507 28.8629 43.2038 29.0136 42.609 29.3139C42.0139 29.6151 41.5377 29.9868 41.1806 30.4315C40.8239 30.8763 40.5722 31.3471 40.4272 31.8433C40.2815 32.3401 40.1955 32.7847 40.1692 33.1767H49.3319C49.0675 31.7647 48.5983 30.6931 47.9237 29.961ZM39.2073 19.4217H50.6555V22.56H39.2073V19.4217Z" fill="white"/>
</svg>
