<svg width="64" height="64" viewBox="0 0 64 64" fill="none" xmlns="http://www.w3.org/2000/svg">
<path d="M13.1618 33.2978C12.2694 36.8779 8.644 39.0557 5.06391 38.1633C1.48571 37.2709 -0.692701 33.6453 0.200127 30.066C1.09212 26.486 4.71731 24.3075 8.29614 25.2C11.8758 26.0924 14.054 29.7184 13.1616 33.2978H13.1618Z" fill="white"/>
<path d="M9.62529 30.7297C9.7583 29.8406 9.08137 29.3627 8.15576 29.0438L8.45601 27.8395L7.72291 27.6568L7.43059 28.8294C7.23533 28.7814 7.03961 28.7353 6.84345 28.6912L7.13786 27.5108L6.40497 27.3281L6.10471 28.5321C5.94519 28.4957 5.78859 28.4598 5.63658 28.422L5.63742 28.4183L4.62641 28.1658L4.43139 28.9488C4.43139 28.9488 4.97531 29.0735 4.96383 29.0812C5.26074 29.1553 5.31441 29.3518 5.30543 29.5076L4.96341 30.8796C4.98387 30.8848 5.01039 30.8925 5.03962 30.904L4.96216 30.8848L4.48276 32.8068C4.44642 32.897 4.35434 33.0323 4.14659 32.981C4.1541 32.9916 3.61394 32.848 3.61394 32.848L3.25 33.6873L4.20401 33.9254C4.38149 33.9696 4.55542 34.0162 4.72663 34.06L4.42325 35.2782L5.15551 35.4609L5.45576 34.2555C5.65579 34.31 5.84998 34.3599 6.03999 34.4073L5.74057 35.6068L6.47345 35.7895L6.77705 34.5737C8.02714 34.8103 8.96715 34.7148 9.36283 33.5844C9.68167 32.674 9.34696 32.1489 8.68924 31.8063C9.16823 31.6956 9.52903 31.3805 9.62529 30.7297ZM7.95009 33.0783C7.72354 33.9886 6.19074 33.4967 5.6938 33.3731L6.09636 31.7593C6.59331 31.8835 8.18687 32.1291 7.95009 33.0783ZM8.17684 30.7167C7.97013 31.5446 6.69436 31.1239 6.28052 31.0208L6.64551 29.5571C7.05935 29.6602 8.39212 29.8527 8.17684 30.7165V30.7167Z" fill="white"/>
<path d="M19.5808 29.0429C20.1226 29.0429 20.5908 29.14 20.9839 29.3306C21.3794 29.5231 21.7055 29.7824 21.9672 30.1086C22.2252 30.4364 22.4173 30.8195 22.5414 31.2586C22.6646 31.6992 22.7264 32.1724 22.7264 32.6789C22.7264 33.4577 22.5838 34.1927 22.2958 34.8859C22.0077 35.5802 21.6172 36.1826 21.1203 36.6962C20.6237 37.2092 20.0374 37.6135 19.3613 37.9123C18.6863 38.2113 17.9524 38.3608 17.1643 38.3608C17.0625 38.3608 16.8833 38.3578 16.6302 38.3526C16.3772 38.3474 16.0863 38.3213 15.7606 38.2775C15.4105 38.2275 15.0632 38.1593 14.7201 38.0733C14.3611 37.9866 14.0124 37.862 13.6797 37.7016L16.6054 25.4079L19.2258 25.002L18.1783 29.3644C18.3961 29.266 18.6222 29.1869 18.854 29.1281C19.0918 29.0702 19.3358 29.0416 19.5806 29.0429H19.5808ZM17.3828 36.282C17.7774 36.282 18.1491 36.1849 18.4986 35.9944C18.8499 35.8024 19.1582 35.5405 19.4046 35.2248C19.662 34.8957 19.8646 34.5271 20.0044 34.1334C20.1511 33.7264 20.2256 33.2969 20.2245 32.8643C20.2245 32.3231 20.1341 31.9018 19.9539 31.5963C19.7737 31.2925 19.4403 31.1396 18.9559 31.1396C18.7972 31.1396 18.593 31.1699 18.3395 31.224C18.0852 31.2814 17.8576 31.4006 17.6536 31.58L16.5379 36.2128C16.6052 36.2247 16.6647 36.236 16.7154 36.2467C16.7651 36.2582 16.8198 36.2663 16.8747 36.2719C16.9326 36.2784 16.9988 36.2817 17.0787 36.2817L17.3825 36.282H17.3828ZM25.4439 38.1257H22.941L25.0547 29.2314H27.5747L25.4439 38.1257ZM26.6618 28.1477C26.3204 28.1506 25.9875 28.0408 25.7147 27.8354C25.4314 27.6282 25.2908 27.3094 25.2908 26.8797C25.2908 26.6433 25.3389 26.4216 25.4343 26.2124C25.5265 26.0097 25.6558 25.8261 25.8156 25.6709C25.9757 25.5181 26.1616 25.3949 26.3647 25.307C26.5761 25.2167 26.8038 25.1708 27.0337 25.1721C27.3828 25.1721 27.6977 25.2761 27.98 25.4845C28.261 25.6939 28.4024 26.0128 28.4024 26.4402C28.4038 26.6709 28.3546 26.8991 28.2583 27.1087C28.167 27.3116 28.038 27.4953 27.8783 27.6502C27.7186 27.8032 27.5325 27.9261 27.3292 28.0131C27.1199 28.1045 26.8982 28.1477 26.6618 28.1477ZM29.7681 27.0154L32.3896 26.6093L31.7459 29.231H34.5534L34.0465 31.2935H31.2558L30.5125 34.4046C30.444 34.6638 30.4052 34.906 30.3943 35.1313C30.3818 35.3574 30.4106 35.5516 30.4783 35.7151C30.5455 35.879 30.6662 36.0053 30.8416 36.0945C31.0163 36.1853 31.2663 36.231 31.5941 36.231C31.8641 36.231 32.1274 36.2053 32.3813 36.1544C32.6421 36.1027 32.8989 36.0322 33.1497 35.9435L33.3367 37.8718C32.9775 38.0018 32.6104 38.1089 32.2376 38.1923C31.8424 38.2833 31.3744 38.3269 30.8337 38.3269C30.0561 38.3269 29.4533 38.2115 29.0238 37.9818C28.5949 37.7504 28.2917 37.4339 28.1103 37.0334C27.9313 36.6346 27.8514 36.1746 27.8737 35.6562C27.8967 35.1367 27.9752 34.5905 28.1103 34.0156L29.7681 27.0154ZM34.4434 34.5742C34.4434 33.8079 34.5674 33.0856 34.815 32.4091C35.0625 31.7322 35.4189 31.1403 35.8812 30.6325C36.342 30.1272 36.9035 29.7265 37.5645 29.4325C38.2218 29.1402 38.9585 28.9927 39.7699 28.9927C40.2781 28.9927 40.7318 29.0408 41.1312 29.137C41.5321 29.2341 41.8946 29.3596 42.2226 29.517L41.3597 31.4798C41.1296 31.3873 40.8955 31.3055 40.6579 31.2346C40.4157 31.1601 40.1202 31.1242 39.7705 31.1242C38.9349 31.1242 38.2747 31.4123 37.7831 31.9861C37.2933 32.5605 37.0467 33.3337 37.0467 34.3038C37.0467 34.8786 37.1709 35.3432 37.4198 35.6988C37.6675 36.0544 38.1249 36.2314 38.7891 36.2314C39.1167 36.2314 39.4333 36.1972 39.7363 36.1304C40.0415 36.0627 40.3111 35.9775 40.5485 35.8769L40.7356 37.8889C40.3931 38.0202 40.043 38.1307 39.6872 38.2196C39.303 38.3136 38.8464 38.362 38.3166 38.362C37.6176 38.362 37.0254 38.2599 36.5414 38.0582C36.057 37.8538 35.6567 37.5822 35.3412 37.2381C35.0243 36.8931 34.7969 36.4901 34.6562 36.0281C34.5154 35.566 34.4432 35.0801 34.4432 34.5742H34.4434ZM45.562 38.3614C44.9646 38.3614 44.4455 38.2704 44.0054 38.0902C43.5665 37.9102 43.2032 37.6571 42.9154 37.3293C42.6273 37.0032 42.412 36.6167 42.2644 36.1713C42.1168 35.7261 42.0458 35.2332 42.0458 34.693C42.0458 34.0156 42.1544 33.3383 42.3744 32.6624C42.5935 31.9859 42.9182 31.3775 43.3475 30.8369C43.774 30.2955 44.3002 29.8528 44.9191 29.5076C45.5378 29.1648 46.2491 28.9923 47.0486 28.9923C47.6352 28.9923 48.1511 29.0836 48.5975 29.2638C49.0416 29.4435 49.4075 29.6985 49.6966 30.0246C49.9827 30.3525 50.2003 30.7373 50.346 31.1835C50.4934 31.6276 50.5661 32.1218 50.5661 32.6624C50.5661 33.3377 50.4588 34.0154 50.246 34.6928C50.0328 35.3672 49.7165 35.9769 49.2989 36.5185C48.8821 37.0593 48.3612 37.5016 47.735 37.8452C47.11 38.1891 46.3849 38.3614 45.562 38.3614ZM46.8127 31.1244C46.4417 31.1244 46.1136 31.2319 45.8328 31.4447C45.5509 31.66 45.3144 31.9308 45.1235 32.2569C44.9306 32.5847 44.7878 32.9422 44.6911 33.3308C44.595 33.7202 44.5481 34.0887 44.5481 34.438C44.5481 35.0024 44.6393 35.4424 44.818 35.7585C44.9993 36.0729 45.3254 36.2314 45.799 36.2314C46.1713 36.2314 46.4978 36.1243 46.7801 35.9095C47.0603 35.6959 47.2975 35.425 47.4896 35.0979C47.6813 34.7721 47.8256 34.4134 47.9223 34.024C48.0168 33.6358 48.0651 33.2656 48.0651 32.9165C48.0651 32.3536 47.9745 31.913 47.7936 31.5971C47.6137 31.2824 47.286 31.1242 46.8127 31.1242V31.1244ZM53.2936 38.1257H50.7889L52.9026 29.2314H55.4236L53.2936 38.1257ZM54.5097 28.1477C54.1685 28.1506 53.836 28.0408 53.5636 27.8354C53.2813 27.6282 53.1398 27.3094 53.1398 26.8797C53.1398 26.6433 53.1886 26.4216 53.2838 26.2124C53.3754 26.0095 53.5047 25.8257 53.6647 25.6709C53.825 25.5181 54.0111 25.3949 54.2145 25.307C54.425 25.2167 54.652 25.1707 54.8811 25.1721C55.2313 25.1721 55.5472 25.2761 55.8289 25.4845C56.1106 25.6939 56.2525 26.0128 56.2525 26.4402C56.2525 26.6774 56.202 26.8999 56.1074 27.1087C56.0128 27.3175 55.8857 27.4973 55.7282 27.6502C55.5682 27.8028 55.3823 27.9257 55.1791 28.0131C54.9693 28.1045 54.7475 28.1477 54.5097 28.1477ZM57.2274 29.6359C57.4174 29.5803 57.6296 29.5135 57.8601 29.4408C58.1165 29.3613 58.3767 29.2941 58.6395 29.2395C58.9254 29.1769 59.248 29.1258 59.6027 29.0863C59.9573 29.046 60.3617 29.0264 60.8107 29.0264C62.1307 29.0264 63.0406 29.4108 63.543 30.1773C64.045 30.9438 64.1318 31.9926 63.8061 33.3224L62.6548 38.1248H60.1354L61.2514 33.4233C61.3193 33.1299 61.3725 32.8459 61.4122 32.5687C61.4523 32.2939 61.4498 32.0515 61.4034 31.842C61.3625 31.6413 61.252 31.4614 61.0915 31.334C60.9263 31.2048 60.6768 31.1398 60.3386 31.1398C60.0036 31.1412 59.6695 31.1756 59.3413 31.2426L57.7008 38.1242H55.1806L57.2274 29.6359Z" fill="white"/>
</svg>
