<svg width="64" height="64" viewBox="0 0 64 64" fill="none" xmlns="http://www.w3.org/2000/svg">
<path d="M16.1443 43.6029C17.4316 42.53 17.6538 41.1986 17.6538 40.0089V34.9949H10.6563V41.7974C10.6563 42.7693 9.86692 43.5587 8.8961 43.5587C7.92302 43.5587 7.20058 42.7705 7.20058 41.7974V22.5263C7.20058 21.5543 7.92302 20.7661 8.8961 20.7661C9.86579 20.7661 10.6563 21.5532 10.6563 22.5263V29.3707H17.6459V22.2711C17.6448 18.3481 15.0816 15.1204 8.836 15.1113C2.42363 15.1113 0 18.3549 0 22.2779V42.3962C0 46.2851 3.0871 49.2282 7.03387 49.2271H9.20232L16.1443 43.6029ZM43.7354 44.3923V22.2836H38.9074V15.7703H56.3877V22.2836H51.5325V49.1896H49.4628L43.7354 44.3923Z" fill="white"/>
<path d="M46.8678 49.2363L29.8434 34.9746L12.2031 49.2363H46.8678Z" fill="white"/>
<path d="M34.705 15.8066H24.9515L19.2695 41.2985L29.8498 32.7607L40.8815 42.0039L34.705 15.8066ZM27.9626 31.1265L29.8498 21.492L31.7223 31.1265H27.9626ZM61.6973 16.8319C62.2417 16.8319 62.7067 17.0247 63.0911 17.4114C63.4733 17.7959 63.665 18.2598 63.665 18.8041C63.665 19.3519 63.4733 19.8192 63.0911 20.2048C62.7078 20.5915 62.2439 20.7843 61.6973 20.7843C61.1506 20.7843 60.6845 20.5915 60.3034 20.2048C60.1183 20.0222 59.9721 19.8039 59.8739 19.5631C59.7756 19.3224 59.7273 19.0641 59.7318 18.8041C59.7318 18.2609 59.9235 17.7959 60.3057 17.4114C60.4856 17.2247 60.702 17.0769 60.9414 16.9773C61.1807 16.8776 61.438 16.8281 61.6973 16.8319ZM63.9939 18.7996C63.9939 18.169 63.7705 17.6315 63.3236 17.188C62.8768 16.7446 62.3369 16.5223 61.703 16.5223C61.4031 16.5176 61.1055 16.5742 60.8284 16.6887C60.5513 16.8032 60.3004 16.9731 60.0914 17.188C59.8753 17.3965 59.7044 17.6471 59.5891 17.9243C59.4738 18.2015 59.4166 18.4994 59.4211 18.7996C59.4211 19.4347 59.6422 19.9757 60.0846 20.4214C60.5303 20.8705 61.069 21.0939 61.703 21.0939C62.3369 21.0939 62.8768 20.8705 63.3236 20.4214C63.7705 19.9734 63.9939 19.4325 63.9939 18.7996ZM62.3097 18.3085C62.3097 18.5002 62.2224 18.6306 62.0489 18.6987C61.9114 18.7416 61.7675 18.7604 61.6236 18.7542H61.2209V17.8503H61.602C62.0976 17.8503 62.3097 17.9456 62.3097 18.3085ZM60.7775 17.5407V20.0483H61.2209V19.0639H61.5714C61.8073 19.0639 61.9717 19.0899 62.0659 19.1444C62.2247 19.2374 62.3029 19.4279 62.3029 19.716V19.9145L62.3131 19.995C62.3144 20.0045 62.3162 20.014 62.3188 20.0233L62.3256 20.0471H62.7373L62.7214 20.0165C62.6953 19.8203 62.6931 19.5175 62.6931 19.5175C62.6912 19.3626 62.6337 19.2136 62.531 19.0976C62.4284 18.9817 62.2874 18.9065 62.1339 18.8858C62.5785 18.8121 62.7373 18.6113 62.7373 18.2677C62.7373 17.9513 62.608 17.7392 62.3471 17.6303C62.2008 17.5691 61.9717 17.5396 61.6599 17.5396H60.7775V17.5407Z" fill="white"/>
</svg>
