<svg width="64" height="64" viewBox="0 0 64 64" fill="none" xmlns="http://www.w3.org/2000/svg">
<path d="M57.2701 24.169C57.4429 24.0397 57.6111 23.9092 57.7748 23.7776C59.0646 27.6108 59.4973 31.6804 59.0423 35.6991C58.5873 39.7178 57.2557 43.5876 55.1415 47.0353C53.0273 50.4831 50.182 53.4247 46.8066 55.6526C43.4311 57.8804 39.6078 59.3401 35.6065 59.9287C40.4562 55.2975 44.0827 47.3237 44.5358 39.1027C45.0004 30.6837 41.3179 25.2481 34.358 24.5077C23.83 23.3885 12.898 33.8639 8.22908 47.2974C5.60507 43.1193 4.14846 38.3144 4.01076 33.3826C3.87306 28.4508 5.05931 23.5721 7.44611 19.2541C9.83291 14.9361 13.3331 11.3365 17.5825 8.82971C21.832 6.32291 26.6755 5.00049 31.6093 5C33.1789 4.99975 34.7458 5.13259 36.2931 5.39709C35.2843 6.08438 34.4286 6.97307 33.7801 8.00723C33.1316 9.04139 32.7041 10.1986 32.5247 11.4061C31.4914 16.1826 32.9413 21.1982 35.9326 21.8448C38.9239 22.4914 42.3249 18.5262 43.3571 13.7497C43.9261 11.6219 43.7296 9.36193 42.8021 7.36422C45.5211 8.57221 48.027 10.2114 50.2232 12.2185C49.8019 12.4795 49.3919 12.7582 48.9942 13.0539C44.006 16.7673 41.1634 22.7454 43.4487 25.8134C45.7339 28.8814 52.2819 27.8824 57.2701 24.169ZM21.6614 25.4037C22.8184 24.0465 21.7873 21.2646 19.692 19.4794C17.5967 17.6943 15.3595 17.6908 14.2026 19.0469C13.0456 20.4029 13.4084 22.6069 15.5037 24.3933C17.599 26.1796 20.5068 26.7598 21.6614 25.4037ZM28.3765 22.1961C30.6251 21.1639 30.8929 16.9298 29.2347 13.3194C27.5766 9.70899 24.7237 8.31289 22.4751 9.34509C20.2264 10.3773 19.4311 13.4499 21.0904 17.058C22.7497 20.6661 26.1267 23.2283 28.3765 22.1961ZM45.2007 46.0546C51.403 41.7587 54.4367 42.934 54.4356 41.3536C54.4333 39.6131 49.6476 36.3162 46.2684 36.0095C46.3088 36.9479 46.3015 37.9195 46.2466 38.9242C46.1097 41.3269 45.7597 43.7127 45.2007 46.0535V46.0546ZM18.7353 53.795C18.65 54.9053 18.7027 56.022 18.8921 57.1193C16.3357 55.7894 14.0025 54.0685 11.9768 52.019C15.2737 39.6531 24.7134 27.6329 33.7927 28.5164C37.5919 28.8871 40.2148 32.224 39.8142 39.4758C39.3519 47.8707 33.2903 60.1221 26.8808 59.7685C23.9204 59.606 22.9946 56.5838 23.2166 53.914C23.7007 48.127 26.6462 46.5353 26.8396 44.1916C26.8488 43.9076 26.7873 43.6258 26.6605 43.3715C26.5338 43.1171 26.3458 42.8983 26.1135 42.7347C25.8812 42.571 25.6119 42.4677 25.3297 42.434C25.0476 42.4002 24.7615 42.4372 24.4971 42.5415C22.7131 43.1102 19.1645 47.524 18.7353 53.795ZM35.6488 34.4704C33.8064 34.5299 31.8187 37.7924 32.6117 39.5868C34.0685 41.927 37.1067 38.8807 37.1571 36.3883C37.1696 35.799 37.1307 34.4692 35.6488 34.4704ZM53.6574 55.9098H54.2296L54.8029 57.2864L55.3751 55.9098H55.9484V58.2728H55.3762V57.1331L54.9917 58.0543H54.6141L54.2307 57.1331V58.2728H53.6574V55.9098ZM51.5015 55.9098H53.3027V56.4419H52.6881V58.2728H52.116V56.4419H51.5015V55.9098Z" fill="white"/>
</svg>
