<svg width="64" height="64" viewBox="0 0 64 64" fill="none" xmlns="http://www.w3.org/2000/svg">
<path fill-rule="evenodd" clip-rule="evenodd" d="M35.7528 14.3719C35.5874 14.5443 35.0057 15.4241 35.0057 16.5142C35.0057 16.7751 35.0103 23.0239 35.0057 23.248C34.9967 23.7234 34.7062 24.4008 34.4668 24.6395C34.2981 24.8082 33.2619 25.7505 33.1699 25.8494L33.7576 25.8587C33.9489 25.6758 35.945 23.9064 36.1538 23.6683C36.4254 23.3595 37.0729 22.5773 37.0729 21.3488L37.0762 14.8786C37.0762 13.9078 37.5288 13.3692 37.7615 13.1092C38.0009 12.8423 38.7875 12.1862 38.9269 12.0378L38.3103 12.0195C38.1613 12.1686 35.9579 14.1571 35.7528 14.3719ZM30.8105 38.8579L33.2549 40.9931H34.8918C36.5559 40.9931 38.0773 40.2809 39.081 39.2775C40.0854 38.2728 40.4552 36.9238 40.4552 35.6618V32.1616C40.4552 30.9852 39.7158 30.3009 39.511 30.0957C39.3987 29.9841 38.6869 29.3128 38.6869 29.3128V31.9982C38.6869 31.9982 39.4714 32.8083 39.6265 32.9727C40.3516 33.743 40.3437 35.1455 38.048 37.3833C37.646 37.7748 36.4988 38.8579 34.9204 38.8579H30.8105Z" fill="white"/>
<path fill-rule="evenodd" clip-rule="evenodd" d="M37.6104 24.4931C37.3382 24.7813 37.0769 25.4862 37.0769 26.1074V27.4329H38.4212C38.9432 27.4329 39.6331 26.9571 39.7825 26.7054C39.7915 26.6868 39.7825 25.3909 39.7825 25.3909C39.7825 25.3909 40.1275 25.885 40.5004 26.1459C40.6405 25.969 41.864 24.4851 42.8886 24.4768C44.5992 24.4629 44.2128 26.6214 43.5139 27.312C43.2874 27.5341 42.2771 28.4611 41.9646 28.7583C41.1565 29.5276 39.7732 29.1594 39.7732 27.1716C39.7732 27.1716 38.2888 28.581 38.0663 28.7676C37.8425 28.9542 37.0769 29.7653 37.0769 29.7653V33.2576C37.0769 34.9323 36.5257 35.4941 36.0692 35.9978C35.8915 36.1934 34.0056 37.9139 33.7533 38.1005L33.1374 38.1145C33.1374 38.1145 34.241 37.1111 34.4622 36.8813C34.7138 36.62 35.007 36.0894 35.007 35.2063C35.007 34.9825 34.9791 29.7185 34.9791 29.7185H26.4002C23.4163 29.7185 22.7785 26.4069 22.7599 25.5211C22.7553 25.2601 22.7599 22.6152 22.7599 22.2048C22.7599 21.6606 22.4116 20.7422 21.8555 20.459H22.6972C22.7941 20.4998 23.323 20.713 23.323 22.7433C23.323 22.7433 23.2872 25.106 23.2872 25.2319C23.2872 26.2611 24.1056 27.4422 25.2883 27.4422L34.9984 27.4329C35.0073 27.1716 35.268 26.1811 35.7345 25.6575C35.9998 25.3623 38.0819 23.4568 38.32 23.2736L38.9365 23.2666C38.8426 23.3523 37.8355 24.2557 37.6104 24.4931ZM40.7985 26.4819C40.7985 26.4819 41.3607 27.228 41.6286 27.4425C42.6745 28.2815 43.1709 27.3804 42.469 26.4165C42.1914 26.0367 41.1156 26.1463 40.7985 26.4819Z" fill="white"/>
<path fill-rule="evenodd" clip-rule="evenodd" d="M30.3866 32.7373C30.3866 33.2062 28.8889 34.4506 28.8012 34.5383C28.693 34.0332 28.3151 33.4754 27.1988 32.3585L28.8377 30.7196C29.9357 31.8193 30.3866 32.0534 30.3866 32.7373ZM33.2288 13.9513C33.5575 14.28 34.265 15.1718 33.8404 15.5972C33.4655 15.9724 32.8838 16.5673 32.8838 16.5673C32.8546 16.3529 32.3101 15.8366 32.3101 15.8366C32.3101 15.8366 32.3147 17.4193 32.3101 17.6152C32.2915 18.3297 32.0225 18.5336 32.0225 18.5336C32.0225 18.5336 33.343 19.8438 33.343 21.5268C33.343 22.3429 33.3463 23.0937 33.3463 23.2557C33.3463 23.6007 33.2593 23.8676 33.0189 24.1322C32.9004 24.2637 31.6762 25.4935 31.4899 25.6612C31.1353 25.9806 30.7625 26.0341 30.4829 26.0341H25.9312C25.2143 26.0341 24.4766 25.4746 24.4766 24.9151C24.4766 24.7754 24.4859 23.2271 24.4859 23.2271C24.7193 23.4977 24.9567 23.8138 25.5304 23.8055C25.9783 23.7985 26.4491 23.4466 26.575 23.3208C26.7055 23.1889 30.0181 19.7259 30.0181 19.7259C30.0181 19.7259 28.4665 18.2876 27.4445 17.6043C26.9458 17.2699 26.2834 17.6919 26.1835 18.1312C25.8701 19.5088 26.1835 21.5753 26.1835 21.5753L24.9268 20.3216C24.4211 19.8146 24.4394 18.6677 25.0423 18.0648C25.138 17.9688 26.0563 16.9306 27.2231 16.9306H29.0403C30.2595 16.9306 31.5929 18.1451 31.5929 18.1451C31.5929 18.1451 31.7888 17.9306 31.7888 17.7231C31.7888 17.0983 31.7655 15.4129 31.7655 15.4129C30.8481 14.4958 30.7233 13.5492 31.1629 13.1096C31.9837 12.2892 32.2818 12 32.2818 12C32.2818 12 32.2719 12.9954 33.2288 13.9513ZM27.5183 23.0966C27.0697 23.5665 26.9917 23.684 26.572 23.9357H31.6981C33.0873 23.9357 32.8111 23.0731 32.5621 22.6384C32.0511 21.7466 30.4381 20.0895 30.4381 20.0895C30.4381 20.0895 27.6116 22.9974 27.5183 23.0966Z" fill="white"/>
<path fill-rule="evenodd" clip-rule="evenodd" d="M21.6734 27.7617H20.832C20.832 27.7617 21.7361 28.2584 21.7361 29.5394V33.6306C21.7361 36.2931 23.9322 38.7548 26.6003 38.7548H28.8289C30.1669 38.7548 30.6364 38.4307 31.4452 37.7129C31.7417 37.4492 32.1272 37.0166 32.2683 36.8596C32.7348 36.3376 33.2309 35.9156 33.2309 34.5447V33.2056C33.2309 32.0482 32.5608 31.5664 32.2368 31.2427C32.0293 31.0352 31.4592 30.4903 31.4592 30.4903V33.2332C31.4592 33.2332 32.021 33.8315 32.2683 34.0261C33.4254 34.9398 32.5044 36.5262 31.4313 36.5262C31.2168 36.5262 26.8354 36.5275 26.5369 36.5352C24.7347 36.58 22.2986 34.9723 22.2986 32.2693V30.0464C22.2989 27.7617 21.6734 27.7617 21.6734 27.7617Z" fill="white"/>
<path fill-rule="evenodd" clip-rule="evenodd" d="M27.0364 32.7443C27.0364 33.2114 25.5386 34.4575 25.4516 34.5452C25.3444 34.0402 24.9655 33.4824 23.8486 32.3654L25.4875 30.7266C26.5868 31.8256 27.0364 32.0587 27.0364 32.7443ZM9.90083 50.9393C9.63388 50.9393 7.57399 50.936 7.27948 50.936C6.45274 50.936 6.51582 50.2497 6.44344 49.663V45.9015C6.44344 45.9015 7.01718 45.8875 7.66729 45.8875C8.39376 45.8875 9.2982 45.7803 10.1781 46.2783C10.1781 46.2783 9.54523 44.7523 7.66264 44.7523H6.44344V43.5471C6.44344 43.5471 6.44344 42.4969 6.18712 42.1868C6.18712 42.1868 7.8084 42.1927 7.91896 42.1927C9.41806 42.1937 10.5768 42.1708 11.7818 42.9737C11.7818 42.9737 11.551 40.9898 8.65573 40.9898H3C3 40.9898 3.9818 41.8302 3.95457 43.5411L3.9818 50.3955C3.9818 52.116 4.67042 52.1635 4.67042 52.1635H10.2445C11.5078 52.1635 11.9474 51.26 11.9474 50.7706L11.9664 50.1136C11.9664 50.1129 11.5653 50.9393 9.90083 50.9393ZM24.7391 50.3599V45.5658C24.7391 43.7055 23.2191 43.2111 22.0872 43.2111C20.5884 43.2111 20.1398 44.4631 19.9486 44.8931C19.6142 43.726 18.4462 43.1975 17.488 43.1975C15.6777 43.1975 15.2186 44.921 15.2186 44.921C15.2186 44.921 15.1757 43.2566 13.7221 43.2566L12.2977 43.2599C12.2977 43.2599 13.1228 43.5992 13.1228 45.0375L13.1205 50.3609C13.1205 52.1187 13.8294 52.1492 13.8294 52.1492H16.1768C16.116 52.1187 15.2757 51.4848 15.2757 50.346V45.6239C15.3046 45.4141 15.6592 44.7009 16.6718 44.7009C17.2456 44.7009 17.8761 45.2989 17.8618 45.9712L17.8598 50.3586C17.8598 52.1419 18.5591 52.1469 18.5591 52.1469H20.9158C20.9158 52.1469 20.0147 51.5127 20.0147 50.3437L20.0077 45.6203C20.096 45.357 20.4061 44.7155 21.2956 44.7155C22.0042 44.7155 22.5975 45.3135 22.5836 45.9861C22.5836 45.9861 22.5789 49.991 22.5812 50.3629C22.5919 52.1578 23.2808 52.1416 23.2808 52.1416C24.508 52.1416 25.6375 52.1466 25.6375 52.1466C25.6375 52.1466 24.7391 51.5257 24.7391 50.3599ZM28.8572 50.3579C28.8572 51.5396 29.7616 52.1472 29.7616 52.1472C29.7616 52.1472 28.6407 52.1422 27.4142 52.1422C27.4142 52.1422 26.694 52.1529 26.694 50.3715V50.3636L26.6964 45.0253C26.6964 43.6175 25.8806 43.2559 25.8806 43.2559H27.305C27.8073 43.2559 28.8529 43.2559 28.8529 45.2467L28.8492 50.3496L28.8572 50.3579ZM36.09 43.9266C36.09 43.9266 35.8636 43.2868 34.8884 43.2868C33.4139 43.2868 33.0547 45.0389 33.0547 45.0389C32.9348 43.654 32.5636 43.2446 31.523 43.2446L30.0986 43.2483C30.0986 43.2483 30.924 43.5866 30.924 45.0249L30.9214 50.3553C30.9214 52.1143 31.6299 52.1432 31.6299 52.1432H33.9774C33.9169 52.1143 33.0766 51.4802 33.0766 50.341L33.0792 45.9768C33.141 45.5811 33.3452 45.2766 33.655 45.0761C34.4286 44.575 35.4851 44.6939 36.09 45.4327V43.9266ZM47.0449 44.2487C47.8401 44.2487 48.4334 44.596 48.4334 44.596L48.4404 43.2546H46.4659L46.4672 41.2206C46.4672 41.2206 45.9486 42.118 44.8867 42.9899C44.22 43.5375 42.8199 44.2138 42.8199 44.2138L44.3107 44.2407L44.308 50.4267C44.308 52.1422 45.0252 52.1422 45.0252 52.1422C46.3131 52.1422 47.37 52.1472 47.37 52.1472C47.37 52.1472 46.4635 51.5396 46.4635 50.4114L46.4655 44.2453C47.0844 44.2473 46.6584 44.2487 47.0449 44.2487ZM54.1835 46.9344C52.8663 48.312 51.8327 48.0962 51.0046 49.1055C51.0046 49.1069 51.1375 50.4741 52.1837 50.9566C52.5409 51.1223 53.9909 51.6455 54.9305 50.0242L54.9239 51.4589C54.9239 51.4589 54.3209 52.1592 52.4071 52.1592C50.1005 52.1592 48.5208 50.3456 48.5208 47.886C48.5208 45.4675 49.8087 43.2224 52.2404 43.2097C54.6237 43.1975 55.9143 45.1232 54.1835 46.9344ZM52.7418 46.37C53.1316 45.6498 53.4384 43.8207 52.1063 43.9209C50.563 44.0368 50.8566 48.1407 50.8566 48.1407C51.3729 47.5799 52.1471 47.4657 52.7418 46.37ZM27.7662 42.5364C28.3711 42.5364 28.8618 42.0563 28.8618 41.4643C28.8618 40.8723 28.3711 40.3918 27.7662 40.3918C27.1612 40.3918 26.6705 40.8723 26.6705 41.4643C26.6705 42.0563 27.1612 42.5364 27.7662 42.5364ZM38.5361 51.1385C38.0005 51.1385 37.6177 50.5814 37.6177 50.0103C37.6177 47.791 39.4349 47.4846 39.9206 46.8922L39.9246 50.6342C39.7098 50.8248 39.492 51.1385 38.5361 51.1385ZM39.9206 46.0356C39.3744 46.9925 35.1258 47.1954 35.7773 50.4814C36.0346 51.7846 36.9032 52.1645 37.9952 52.1645C39.056 52.1645 39.6935 51.6107 39.9608 51.0954C40.1192 52.0848 40.6189 52.1419 40.6189 52.1419C41.8464 52.1419 42.967 52.1469 42.967 52.1469C42.967 52.1469 42.0526 51.5393 42.0526 50.3669V45.3712C42.0526 44.1763 40.7278 43.2463 39.3193 43.2463C37.966 43.2463 37.115 43.898 37.115 43.898V45.4483C37.115 45.4483 37.5981 44.2201 38.8226 44.2201C40.0179 44.2201 40.1059 44.8154 40.0989 45.1126C40.0989 45.1126 40.2198 45.5147 39.9206 46.0356ZM59.381 49.7327C59.3939 50.3613 58.8318 51.1867 57.6359 51.1867C56.4114 51.1867 55.9226 49.9336 55.9226 49.9336V51.5213C55.9226 51.5213 56.8058 52.1509 58.1591 52.1509C59.7655 52.1509 61.3894 50.93 61.3529 49.2307C61.3413 48.6327 61.1278 48.1234 60.8017 47.6841C60.2582 46.9557 59.2688 46.4463 58.5028 45.9752C58.0658 45.7059 57.8334 45.2248 57.8284 45.0555C57.8155 44.758 57.9596 44.157 59.1559 44.157C60.3226 44.157 60.8193 45.3852 60.8193 45.3852L60.8147 43.898C60.8147 43.898 59.9219 43.1892 58.5682 43.1892C57.1597 43.1892 55.8814 44.1195 55.9053 45.3138C55.9273 46.363 56.3695 47.0427 57.2275 47.6828C57.5665 47.9355 57.9712 48.1815 58.4394 48.4415C59.123 48.8203 59.372 49.2842 59.381 49.7327Z" fill="white"/>
</svg>
