<svg width="64" height="64" viewBox="0 0 64 64" fill="none" xmlns="http://www.w3.org/2000/svg">
<path d="M2.00749 24.0071H15.772L15.1882 28.4948H1.44763L2.00749 24.0071ZM1.1997 30.1448H14.9803L14.5563 33.7955H5.94258L5.71855 35.5412H14.3484L13.8125 39.71H0L1.1997 30.1448ZM15.9959 28.4948C15.9959 28.4948 16.0919 26.9644 16.4758 26.1673C16.8357 25.418 17.3156 24.876 18.1235 24.4216C18.6034 24.1666 19.4592 24.0071 19.4592 24.0071H44.2529C44.2529 24.0071 45.2926 24.0231 45.7405 24.2064C46.2204 24.4057 46.9162 24.7006 47.2841 25.5934C47.644 26.4463 47.5721 26.7253 47.5721 27.5782C47.5721 28.4151 47.548 28.4948 47.548 28.4948H15.9959ZM15.772 30.1847H28.4569C28.4569 30.1847 29.5846 30.1847 30.1045 30.4955C30.6483 30.8542 30.8963 31.2926 31.0562 31.9861C31.2081 32.6796 30.7843 36.1789 30.5363 37.0318C30.2644 37.8687 29.9445 38.6579 28.6327 39.3115C27.4571 39.9093 25.6735 39.71 25.6735 39.71H14.7163L15.3642 35.5412H25.6256L25.8335 33.7716H18.7553C18.7553 33.7716 17.6037 33.931 16.524 32.9985C15.8681 32.4405 15.7961 31.5877 15.7561 31.213C15.708 30.9977 15.772 30.1847 15.772 30.1847ZM32.2718 30.1847H47.236C47.236 30.1847 47.1001 31.9064 46.6922 32.5202C46.2842 33.1579 45.9243 33.5006 45.2445 33.652C44.5486 33.8114 43.5089 33.8114 43.5089 33.8114H36.9986L36.3188 39.7099H31.0961L32.2718 30.1847ZM48.2519 28.5347H63.7998C63.7998 28.5347 64.0958 27.1796 63.9358 26.3267C63.7759 25.4738 63.3919 24.8999 62.7601 24.4854C61.9284 23.9035 60.4088 24.0071 60.4327 24.0071H48.8836L48.2519 28.5347ZM48.0519 30.1847H53.2025L52.0268 39.71H46.9161L48.0519 30.1847ZM58.4012 30.2245H63.5039L62.3283 39.71H57.2496L58.4012 30.2245Z" fill="white"/>
</svg>
