<svg width="64" height="64" viewBox="0 0 64 64" fill="none" xmlns="http://www.w3.org/2000/svg">
<path d="M57.7617 32.1906C57.7713 41.2791 46.4526 48.6592 32.4816 48.6732C18.5109 48.6873 7.17722 41.3303 7.16829 32.2415C7.15874 23.1528 18.4781 15.7737 32.4482 15.7597C46.4191 15.7457 57.7526 23.1022 57.7617 32.1906ZM2.00001 32.2474C2.01166 43.9643 15.661 53.4499 32.4863 53.4329C49.3115 53.4158 62.9422 43.9033 62.9298 32.1855C62.9174 20.4687 49.2689 10.9831 32.4437 11C15.6184 11.0167 1.98826 20.5298 2.00001 32.2474Z" fill="#C7A363"/>
<path d="M41.5424 27.2183C40.0958 26.3554 38.2568 25.967 36.5157 26.2608C36.0246 26.3439 35.5718 26.5328 35.1274 26.784C34.5918 27.0876 34.1891 27.4947 33.8288 27.9813C33.5569 28.3499 33.401 28.7623 33.3011 29.2218C33.1509 29.9126 33.1895 30.5529 33.3526 31.2341C33.7998 33.0994 35.7907 33.5223 37.3207 34.1645C37.5936 34.2792 37.8658 34.4436 37.9967 34.7206C38.1484 35.0428 38.1235 35.464 37.8348 35.7233C37.6015 35.9333 37.2551 35.9971 36.9888 36.0185C35.7354 36.1182 34.4501 35.6266 33.3637 35.0023L33.3863 38.2363C33.945 38.5502 34.4173 38.6533 34.97 38.8259C37.1732 39.5128 39.8492 39.3363 41.3505 37.3254C42.112 36.306 42.2949 35.0154 41.8693 33.8337C41.6452 33.2118 41.2721 32.7106 40.7029 32.3168C40.2267 31.9869 39.7589 31.7454 39.246 31.53C38.4968 31.2154 37.5772 31.1898 37.0216 30.5235C36.8974 30.3739 36.8842 30.0461 36.961 29.8513C37.0487 29.6303 37.1459 29.4898 37.3878 29.3913C37.91 29.1786 38.425 29.2571 38.9681 29.3299C39.874 29.4524 40.7633 29.9614 41.586 30.308L41.5424 27.2183ZM31.638 27.2351C30.1913 26.3717 28.3524 25.9831 26.6113 26.2769C26.1198 26.3607 25.6673 26.5489 25.2223 26.8007C24.6874 27.1036 24.2842 27.5108 23.9245 27.998C23.652 28.366 23.4965 28.7783 23.3967 29.2379C23.2465 29.9286 23.2852 30.5697 23.4483 31.2502C23.8954 33.1156 25.8857 33.5391 27.4168 34.1814C27.6886 34.2954 27.9613 34.4596 28.0921 34.7369C28.2441 35.0597 28.2189 35.4803 27.9304 35.7401C27.6964 35.9495 27.3505 36.0134 27.0842 36.0354C25.8302 36.1347 24.5447 35.6436 23.4591 35.0185L23.4818 38.2526C24.0404 38.5669 24.5125 38.6695 25.0655 38.8422C27.2685 39.5291 29.9444 39.3525 31.4458 37.3423C32.2075 36.3222 32.3898 35.0322 31.9646 33.8499C31.7405 33.2287 31.3672 32.7268 30.7983 32.333C30.3221 32.0038 29.8542 31.7616 29.3414 31.5463C28.5921 31.2317 27.6718 31.2068 27.1163 30.5398C26.9925 30.3903 26.9789 30.063 27.0563 29.8676C27.1434 29.6466 27.2413 29.5061 27.4829 29.4076C28.0057 29.1955 28.5203 29.2741 29.0635 29.3468C29.9701 29.4686 30.8588 29.9784 31.6814 30.3243L31.638 27.2351ZM22.273 23.4565C20.5174 22.4031 18.3084 22.1182 16.3006 22.7175C14.9802 23.1118 13.8447 23.9539 13.2857 25.2168C13.0171 25.8237 12.8705 26.4772 12.8855 27.1375C12.9177 28.6122 13.9036 29.8173 15.14 30.5596C14.975 30.7928 14.7057 30.8508 14.4737 31.003C14.0831 31.2595 13.7876 31.561 13.5027 31.9063C13.013 32.5019 12.7046 33.1649 12.6279 33.9264C12.5594 34.6063 12.5647 35.2841 12.8012 35.9349C13.3908 37.5604 14.8225 38.7442 16.5906 39.0582C17.4227 39.2063 18.1906 39.2502 18.9993 39.1839C19.6507 39.1298 20.2022 39.0098 20.8202 38.8244C21.2897 38.6841 21.6692 38.5686 22.1087 38.2722C22.1087 38.2605 21.6583 35.2984 21.6698 35.2984C20.4591 35.5244 19.1822 36.0183 17.9789 35.5402C17.2529 35.2522 17.0182 34.4336 17.1382 33.7005C17.2414 33.0708 17.7028 32.6587 18.2612 32.4524C19.2322 32.094 20.3162 32.1481 21.3369 32.1786L21.2975 29.3416C20.5087 29.4432 19.659 29.4208 18.7775 29.2598C18.4997 29.2087 18.2479 29.0865 17.9999 28.9157C17.7595 28.7515 17.5996 28.536 17.4726 28.2965C17.2215 27.8248 17.1988 27.2939 17.4584 26.8325C18.3503 25.2481 20.494 25.9027 21.8941 26.4337L22.273 23.4565ZM48.2184 26.0886C51.1475 26.036 53.5532 27.6737 53.6414 32.5536C53.7272 37.2896 51.3862 39.1582 48.4568 39.2111C45.5283 39.2644 43.1234 37.626 43.0339 32.7464C42.9478 27.9627 45.2898 26.1422 48.2184 26.0886ZM48.1794 29.2281C47.0911 29.2481 46.3745 30.449 46.4145 32.6612C46.4552 34.8726 47.214 36.0466 48.3029 36.0274C49.3926 36.0082 50.1561 34.8056 50.1175 32.6419C50.0756 30.3338 49.2683 29.208 48.1794 29.2281Z" fill="#C7A363"/>
</svg>
