<svg width="64" height="64" viewBox="0 0 64 64" fill="none" xmlns="http://www.w3.org/2000/svg">
<path fill-rule="evenodd" clip-rule="evenodd" d="M20.6797 44.8047H28.1128V45.6763H25.0143V52.079H23.7778V45.6763H20.6797V44.8047ZM63.0608 52.079H56.3034V44.8047H62.9712V45.6763H57.5402V47.9051H62.5511V48.7767H57.5402V51.2078H63.0608V52.079ZM36.5519 51.1879L36.4755 49.8701C36.425 48.8571 35.9021 48.6748 35.3795 48.5031C35.9658 48.2295 36.6545 47.8338 36.6545 46.76C36.6545 45.2204 35.15 44.8047 33.6456 44.8047H29.4123V52.0787H30.6491V50.5404H30.6454V47.2215H30.6491V45.6457H33.7343C34.3465 45.6457 35.3795 45.7363 35.3795 46.8616C35.3795 47.9354 34.4229 48.1176 33.5178 48.1176H32.6117V48.958H33.6453C35.1238 48.958 35.2769 49.6576 35.2769 50.2549C35.2769 50.5285 35.3157 51.6328 35.494 52.0784H37.0107V51.9163C36.6282 51.7444 36.5655 51.5926 36.5519 51.1879ZM42.5194 44.8047H41.1165L37.6744 52.079H38.9494L39.9053 49.9617H42.2016L41.8397 49.0901H40.2878L41.754 45.8897H41.7799L42.6392 47.9254L42.6425 47.9194L44.483 52.079H45.8343L42.5194 44.8047ZM50.7446 44.8047H47.0332V49.9587H48.2707V45.6457H50.578C52.2613 45.6457 53.3192 46.5677 53.3192 48.4012C53.3192 50.235 52.2739 51.2377 50.6676 51.2377L47.0336 51.2443V52.079H50.6928C53.7017 52.079 54.5948 49.972 54.5948 48.3404C54.5948 46.2437 53.1279 44.8047 50.7446 44.8047Z" fill="white"/>
<path fill-rule="evenodd" clip-rule="evenodd" d="M7.02246 51.8146C6.58618 51.9988 6.02107 52.1277 5.26007 52.1277C2.99632 52.1277 0.941406 50.8716 0.941406 48.3183C0.941406 46.3322 2.36779 44.4572 5.53499 44.4668C8.41398 44.4668 9.5525 45.9161 9.65709 46.9195H7.69415C7.69415 46.636 7.02678 45.7236 5.63957 45.7236C4.23942 45.7236 2.94352 46.4733 2.94352 48.3383C2.94352 50.3238 4.34401 50.8401 5.67875 50.8401C5.92445 50.8401 6.49686 50.7979 7.01947 50.4898L7.02246 51.8146ZM13.5059 50.6179H18.1779V51.9351H11.543V44.6597H13.5059V50.6179Z" fill="white"/>
<path fill-rule="evenodd" clip-rule="evenodd" d="M5.77148 49.2395V48.0137H9.69769V51.9346H8.34834V49.2289L5.77148 49.2395Z" fill="white"/>
<path fill-rule="evenodd" clip-rule="evenodd" d="M45.4403 34.4075C42.1111 37.8456 37.4425 40.0874 32.0839 40.0874C21.8927 40.0874 16.1719 31.0792 16.1719 22.9911C16.1719 18.0847 18.0697 13.3955 21.3176 9.98828L24.5974 13.3992C21.8216 16.2231 20.0841 20.1938 20.0841 24.2906C20.0841 32.915 27.3479 38.509 34.7139 38.509C39.0023 38.509 42.7077 36.9163 45.2726 34.2049L45.4403 34.4075Z" fill="white"/>
<path fill-rule="evenodd" clip-rule="evenodd" d="M43.7532 32.196C45.9741 29.9751 47.3484 26.9062 47.3484 23.5169C47.3484 16.7379 41.853 11.2422 35.0743 11.2422C31.7096 11.2422 28.6284 12.6287 26.4111 14.8211L28.893 17.2701L25.4413 20.7225L24.8164 23.0563L27.2163 22.5633L33.8903 15.8892L35.8961 15.5276L35.666 17.7632L26.5921 26.87L25.9347 29.2041L28.4 28.7107L39.48 17.6646L41.6163 17.2372L41.3211 19.5057L30.2414 30.585L29.6165 32.8863L32.0825 32.3936L41.1564 23.3193L43.2933 22.9245L43.03 25.1604L36.357 31.8666L35.7978 34.1683L38.198 33.6755L41.7155 30.1574L43.7532 32.196Z" fill="white"/>
</svg>
