<svg width="64" height="64" viewBox="0 0 64 64" fill="none" xmlns="http://www.w3.org/2000/svg">
<path d="M0 19V20.7515H12.4575V19H0ZM14.2225 19V20.7515H31.975C31.975 20.7515 30.1617 19 27.76 19H14.2225ZM35.4575 19V20.7515H46.1974L45.56 19H35.4575ZM53.8975 19L53.26 20.7515H63.9025V19H53.8975ZM0 22.4062V24.1577H12.4575V22.4062H0ZM14.2225 22.4087V24.1578H34.0349C34.0349 24.1578 33.8036 22.8097 33.3999 22.4087H14.2225ZM35.4575 22.4087V24.1578H47.375L46.785 22.4087H35.4575ZM52.6225 22.4087L52.0325 24.1578H63.9025V22.4087H52.6225ZM3.57997 25.8124V27.5664H8.97498V25.8124H3.57997ZM17.8025 25.8124V27.5664H23.1975V25.8124H17.8025ZM28.445 25.8124V27.5664H33.84C33.84 27.5664 34.1825 26.6401 34.1825 25.8124H28.445ZM39.0375 25.8124V27.5664H48.6025L47.965 25.8124H39.0375ZM51.4475 25.8124L50.8075 27.5664H60.42V25.8124H51.4475ZM3.57997 29.2212V30.9727H8.97498V29.2212H3.57997ZM17.8025 29.2212V30.9727H31.5825C31.5825 30.9727 32.7352 30.074 33.1025 29.2212H17.8025ZM39.0375 29.2212V30.9727H44.4325V29.9977L44.775 30.9727H54.6575L55.025 29.9977V30.9727H60.42V29.2212H50.2925L49.755 30.7047L49.215 29.2212H39.0375ZM3.57997 32.6274V34.3789H8.97498V32.6274H3.57997ZM17.8025 32.6274V34.3789H33.1025C32.7352 33.5289 31.5825 32.6274 31.5825 32.6274H17.8025ZM39.0375 32.6274V34.3789H44.4325V32.6274H39.0375ZM45.4125 32.6274L46.065 34.3789H53.4749L54.095 32.6274H45.4125ZM55.025 32.6274V34.3789H60.42V32.6274H55.025ZM3.57997 36.0336V37.785H8.97498V36.0336H3.57997ZM17.8025 36.0336V37.785H23.1975V36.0336H17.8025ZM28.445 36.0336V37.785H34.1825C34.1825 36.9585 33.8399 36.0336 33.8399 36.0336H28.445ZM39.0375 36.0336V37.785H44.4325V36.0336H39.0375ZM46.6375 36.0336L47.27 37.785H52.2375L52.875 36.0336H46.6375ZM55.025 36.0336V37.785H60.42V36.0336H55.025ZM0.097472 39.4398V41.1938H12.5549V39.4398H0.097472ZM14.2225 39.4398V41.1938H33.3999C33.8036 40.7922 34.0349 39.4398 34.0349 39.4398H14.2225ZM35.555 39.4398V41.1938H44.4325V39.4398H35.555ZM47.865 39.4398L48.5149 41.1938H51.0424L51.6524 39.4398H47.865ZM55.025 39.4398V41.1938H64V39.4398H55.025ZM0.097472 42.8485V44.6H12.5549V42.8485H0.097472ZM14.2225 42.8485V44.5975H27.76C30.1617 44.5975 31.975 42.8485 31.975 42.8485H14.2225ZM35.555 42.8485V44.6H44.4325V42.8485H35.555ZM49.0975 42.8485L49.7225 44.5951L49.83 44.5975L50.465 42.8485H49.0975ZM55.025 42.8485V44.6H64V42.8485H55.025Z" fill="white"/>
</svg>
