<svg width="64" height="64" viewBox="0 0 64 64" fill="none" xmlns="http://www.w3.org/2000/svg">
<path fill-rule="evenodd" clip-rule="evenodd" d="M1.75391 11.8574L62.0943 11.9896V35.9349L32.0257 23.4342L1.75391 35.5591V11.8574Z" fill="white"/>
<path fill-rule="evenodd" clip-rule="evenodd" d="M50.7715 40.362V41.6825C50.985 40.9308 51.2891 40.545 51.6546 40.362C52.5385 39.9048 53.6249 40.3315 53.8991 41.1745C54.2142 42.1188 53.9602 42.9209 53.5236 43.3373C53.3609 43.5 52.9751 43.6524 52.7214 43.6524C51.7871 43.6524 51.3402 43.2155 51.4212 42.2509C51.4717 41.6925 50.8116 42.4538 50.7715 42.5959V50.446H51.9697V51.634H47.42V50.446H48.3135V41.6722H47.42V40.3624H50.7715V40.362ZM25.059 40.362V41.6825C25.2725 40.9308 25.577 40.545 25.9323 40.362C26.8261 39.9048 27.9025 40.3315 28.1764 41.1745C28.4912 42.1188 28.2475 42.9209 27.8109 43.3373C27.6485 43.5 27.2524 43.6524 26.9984 43.6524C26.0644 43.6524 25.6175 43.2155 25.7088 42.2509C25.7493 41.6925 25.0892 42.4538 25.0587 42.5959V50.446H26.247V51.634H21.6979V50.446H22.5914V41.6722H21.6979V40.3624H25.059V40.362ZM44.0181 40.0572C44.7087 40.0572 45.3279 40.2707 45.9069 40.7784C46.4757 41.2147 46.9425 41.9567 47.2473 42.8399C47.5724 43.7842 47.674 44.7491 47.674 45.8458C47.674 47.3794 47.4197 48.6992 46.8413 49.7355C46.1706 51.0453 45.216 51.6343 44.0177 51.6343C42.8603 51.6343 41.9263 51.0456 41.2968 49.9489C40.6672 48.7809 40.3624 47.3797 40.3624 45.9069C40.3624 44.3025 40.6672 42.982 41.3476 41.8143C41.9774 40.6366 42.8606 40.0572 44.0181 40.0572ZM44.039 41.0729C43.7953 41.0729 43.5921 41.215 43.4397 41.4893C43.3178 41.7738 43.196 42.3934 43.1551 43.2257C43.0741 44.0585 43.0741 45.2262 43.0741 46.7495C43.0741 47.5013 43.1149 48.2626 43.1551 48.9635C43.196 49.522 43.3178 49.9277 43.4802 50.2019C43.5924 50.4762 43.7953 50.6183 43.9985 50.6183C44.2017 50.6183 44.3644 50.4762 44.4759 50.3441C44.6386 50.0602 44.7605 49.7145 44.8113 49.2371C44.9228 48.5471 44.9637 47.0945 44.9637 44.952C44.9637 43.7135 44.9228 42.8094 44.8418 42.3216C44.7608 41.9053 44.6084 41.4889 44.4457 41.2861C44.3637 41.1539 44.201 41.0729 44.039 41.0729ZM57.4737 40.0572C58.1643 40.0572 58.7836 40.2707 59.3626 40.7784C59.9314 41.2147 60.3982 41.9567 60.703 42.8399C61.0281 43.7842 61.1393 44.7491 61.1393 45.8458C61.1393 47.3794 60.8753 48.6992 60.2963 49.7355C59.6263 51.0453 58.6717 51.6343 57.4734 51.6343C56.316 51.6343 55.3813 51.0456 54.7518 49.9489C54.1223 48.7809 53.8181 47.3797 53.8181 45.9069C53.8181 44.3025 54.1223 42.982 54.8032 41.8143C55.4328 40.6366 56.316 40.0572 57.4737 40.0572ZM57.4937 41.0729C57.2506 41.0729 57.0467 41.215 56.895 41.4893C56.7732 41.7738 56.6513 42.3934 56.6105 43.2257C56.5391 44.0585 56.5391 45.2262 56.5391 46.7495C56.5391 47.5013 56.5696 48.2626 56.6105 48.9635C56.6513 49.522 56.7732 49.9277 56.9355 50.2019C57.0471 50.4762 57.2506 50.6183 57.4538 50.6183C57.657 50.6183 57.8197 50.4762 57.9313 50.3441C58.0933 50.0602 58.2151 49.7145 58.2666 49.2371C58.3782 48.5471 58.4184 47.0945 58.4184 44.952C58.4184 43.7135 58.3782 42.8094 58.2972 42.3216C58.2155 41.9053 58.0631 41.4889 57.9011 41.2861C57.8194 41.1539 57.6563 41.0729 57.4937 41.0729ZM35.6507 36.4219V41.8654C36.0365 41.0423 36.585 40.87 37.2245 40.8597C39.286 40.8093 39.9461 44.008 39.9358 46.049C39.9358 48.5876 39.1745 51.8375 37.4074 51.8375C36.7576 51.8375 36.0365 51.624 35.8535 51.1266L35.6507 51.6343L32.1574 51.624L32.1674 50.4463H33.0509V37.6102H32.1574V36.4222H35.6507V36.4219ZM35.6507 43.5003V47.5418C35.6507 48.3951 35.6507 48.9333 35.6812 49.1767C35.722 49.5425 35.7725 49.8473 35.8947 50.0911C36.0063 50.3348 36.1892 50.4463 36.3615 50.4463C36.5043 50.4463 36.656 50.3348 36.7683 50.1518C36.8901 49.9586 36.9711 49.6033 37.0724 49.0651C37.1235 48.4562 37.1846 47.4913 37.1846 46.0393C37.1846 44.6478 37.0933 43.6833 36.92 43.1348C36.7988 42.7689 36.6255 42.5966 36.4226 42.5966C36.148 42.5962 35.8944 42.8907 35.6507 43.5003ZM31.3449 36.4219V50.446H31.9542V51.634H27.9025V50.446H28.5828V37.6099H27.9025V36.4219H31.3449ZM18.0523 51.0553C16.9961 52.1221 15.6252 51.7867 15.0365 51.4716C13.4318 50.6492 13.2794 46.9328 14.4372 46.0088C15.4628 45.2162 16.2955 45.0848 17.626 45.4497V41.9873C17.626 41.5912 17.362 40.9613 16.7627 40.9613C16.2348 40.9613 15.8589 41.1034 15.8589 41.3574C15.8589 41.733 16.6611 41.9262 16.6206 42.982C16.59 43.6222 16.2447 44.4645 15.3005 44.4645C14.407 44.4645 13.7771 43.5916 13.7771 42.901C13.7771 40.87 15.2497 40.2508 17.4938 40.2508C18.7632 40.2508 20.3575 41.134 20.3575 42.6573L20.3778 49.766C20.3778 49.8573 20.4186 50.2836 20.7231 50.1614C20.8247 50.1213 21.0887 49.8669 21.18 49.7145L21.6674 50.8215C21.4034 51.3292 20.4588 51.8571 19.6058 51.8571C18.7124 51.8574 18.4278 51.5018 18.0523 51.0553ZM17.697 49.8669V46.4447C17.0977 46.2313 16.6916 46.6685 16.4884 47.2164C16.2245 47.9681 16.2955 49.0445 16.5495 49.7962C16.7524 50.3749 17.453 50.3241 17.697 49.8669ZM8.11077 46.0792L9.19716 36.4219H13.6755V37.6099L12.9039 37.6202V50.446H13.6755V51.634H9.19716V50.446H9.89773V42.576L8.4252 51.634H6.23217L4.83068 42.5856V50.446H5.49075V51.634H2.42383V50.446H3.19546L3.1855 37.6099H2.42383V36.4219H6.34373L8.11077 46.0792Z" fill="white"/>
</svg>
