<svg width="64" height="64" viewBox="0 0 64 64" fill="none" xmlns="http://www.w3.org/2000/svg">
<path d="M40.172 14.929C44.2739 14.929 47.5998 31.9739 47.5998 53H53.5432C53.5432 30.356 47.556 12 40.1724 12C35.9713 12 32.223 17.5167 29.7723 26.1433C27.3218 17.5167 23.5724 12 19.3716 12C11.9879 12 6 30.356 6 53H11.9441C11.9441 31.9739 15.2702 14.929 19.3716 14.929C23.4741 14.929 26.8011 30.6628 26.8011 50.0726H32.7433C32.7433 30.6628 36.0691 14.929 40.172 14.929ZM56.5181 50.0726C57.3243 50.0726 58 50.7017 58 51.5293C58 52.3702 57.3243 52.9995 56.5181 52.9995C55.7091 52.9995 55.0278 52.3697 55.0278 51.5293C55.0278 50.7017 55.7091 50.0726 56.5181 50.0726ZM56.5181 52.786C57.201 52.786 57.731 52.2453 57.731 51.5299C57.731 50.8269 57.2003 50.2869 56.5181 50.2869C55.8269 50.2869 55.2972 50.8269 55.2972 51.5299C55.2971 52.2451 55.8269 52.786 56.5181 52.786ZM55.9403 50.6793H56.61C57.0198 50.6793 57.213 50.8401 57.213 51.1679C57.213 51.477 57.0173 51.6063 56.7605 51.6333L57.2536 52.3899H56.9643L56.4945 51.6539H56.2106V52.3899H55.9412V50.6793H55.9403ZM56.2101 51.4392H56.4907C56.7273 51.4392 56.9449 51.4276 56.9449 51.1565C56.9449 50.929 56.7475 50.8933 56.5659 50.8933H56.2105L56.2101 51.4392Z" fill="white"/>
</svg>
