<svg width="64" height="64" viewBox="0 0 64 64" fill="none" xmlns="http://www.w3.org/2000/svg">
<path fill-rule="evenodd" clip-rule="evenodd" d="M33.9929 40.2306H42.5167C43.7904 40.2306 44.8356 39.7079 45.6846 38.6624C46.501 37.65 46.9257 36.4418 46.9257 35.0705C46.9257 32.2945 43.366 30.3349 41.9938 30.3349H37.3238C36.9646 30.3349 36.6701 30.1715 36.442 29.9105C36.2132 29.6163 36.0827 29.29 36.0827 28.8978C36.0827 28.4406 36.2132 28.0489 36.442 27.7221C36.7033 27.3958 37.0296 27.1999 37.4218 27.1999H46.1743V23.705H37.2581C35.6577 23.705 34.4163 24.195 33.5344 25.142C32.7512 26.0238 32.3587 27.1995 32.3587 28.604C32.3587 29.9756 32.7512 31.1842 33.5344 32.1633C34.4163 33.2411 35.4618 33.7969 36.7355 33.7969H42.1246C42.4506 33.7969 42.7123 33.8948 42.9078 34.1555C43.1366 34.4168 43.2345 34.7435 43.2345 35.1031C43.2345 35.5277 43.0712 35.9195 42.8099 36.2462C42.516 36.5401 42.1893 36.7034 41.7653 36.7034H33.1433L33.0128 36.4747L29.7795 26.0892L29.6162 25.7625C28.8323 24.1622 27.5261 23.3786 25.7298 23.3786C24.75 23.3786 23.8681 23.607 23.0842 24.0971C22.2678 24.5868 21.7452 25.3053 21.4513 26.2201L17.1074 40.1977L21.0592 40.2309L25.0435 27.7879C25.1415 27.3958 25.3702 27.1999 25.6641 27.1999C25.8274 27.1999 25.9579 27.2649 26.0559 27.3632C26.1538 27.4937 26.2192 27.6245 26.2517 27.7879L30.2686 40.2309H33.9929V40.2306ZM4.59934 28.7999V40.1977H0.941406V27.5588C0.941406 25.9259 1.33353 24.7827 2.18252 24.0971C2.83561 23.607 3.81542 23.3457 5.18702 23.3457C6.29732 23.3457 7.24459 23.6724 8.09358 24.293C8.94257 24.9135 9.49772 25.7625 9.79189 26.8077L12.1758 35.201L12.568 36.3442C12.6005 36.5726 12.7313 36.736 12.8618 36.8661C13.0252 36.9973 13.1882 37.0627 13.3844 36.9973C13.7111 36.9647 13.8745 36.7685 13.8745 36.4747V23.7378H17.6304V36.3113C17.6304 37.7158 17.304 38.7613 16.618 39.5124C15.9649 40.2634 14.9851 40.6555 13.6786 40.6555C12.5354 40.6555 11.5882 40.4268 10.8371 40.035C9.92271 39.5778 9.33469 38.8593 9.07339 37.9117L6.33019 28.3427L6.13429 27.7221C6.06888 27.4937 5.9384 27.3303 5.77504 27.167C5.61168 27.0362 5.41579 27.0036 5.21989 27.0362C5.024 27.069 4.89351 27.167 4.76269 27.3629C4.65531 27.5401 4.5988 27.7434 4.59934 27.9506V28.7999ZM63.0595 40.2306L58.8139 26.0892L58.6505 25.7625C57.8666 24.1622 56.5604 23.3786 54.7641 23.3786C53.7843 23.3786 52.9025 23.607 52.1189 24.0971C51.3018 24.5868 50.7798 25.3053 50.4853 26.2201L46.1418 40.1977L50.0935 40.2309L54.0778 27.7879C54.1758 27.3958 54.4046 27.1999 54.6984 27.1999C54.8618 27.1999 54.9922 27.2649 55.0902 27.3632C55.1888 27.4937 55.2535 27.6245 55.2868 27.7879L59.3036 40.2309H63.0595V40.2306Z" fill="white"/>
</svg>
