<svg width="64" height="64" viewBox="0 0 64 64" fill="none" xmlns="http://www.w3.org/2000/svg">
<path fill-rule="evenodd" clip-rule="evenodd" d="M9.06641 38.5907H12.9975V31.4844H9.06641V38.5907ZM59.2615 38.5907H63.193V31.4844H59.2615V38.5907Z" fill="white"/>
<path fill-rule="evenodd" clip-rule="evenodd" d="M61.437 25.0003H0V38.5594H6.80381V30.0415L61.4367 30.0429C61.7713 30.0484 62.1036 29.9873 62.4144 29.8631C62.7251 29.7389 63.008 29.554 63.2466 29.3194C63.4852 29.0847 63.6746 28.8049 63.804 28.4963C63.9333 28.1877 64 27.8564 64 27.5218C64 27.1871 63.9334 26.8558 63.8041 26.5472C63.6748 26.2386 63.4854 25.9587 63.2468 25.7241C63.0083 25.4894 62.7254 25.3045 62.4147 25.1803C62.104 25.056 61.7716 24.9949 61.437 25.0003ZM53.89 28.3236H6.80416V26.7155L53.89 26.7199C53.9967 26.7177 54.1028 26.7368 54.202 26.7761C54.3012 26.8154 54.3916 26.8742 54.4678 26.9488C54.544 27.0235 54.6046 27.1127 54.646 27.211C54.6873 27.3094 54.7086 27.4151 54.7086 27.5218C54.7086 27.6285 54.6873 27.7341 54.646 27.8325C54.6046 27.9309 54.544 28.02 54.4678 28.0947C54.3916 28.1694 54.3012 28.2281 54.202 28.2674C54.1028 28.3067 53.9967 28.3258 53.89 28.3236Z" fill="white"/>
<path fill-rule="evenodd" clip-rule="evenodd" d="M25.318 36.0401C26.1211 35.6763 26.6291 34.8675 26.6291 33.9287C26.6291 32.6495 25.623 31.4844 23.9092 31.4844H15.8203V38.5907H19.7514V36.2978H21.0368L22.2211 38.5907H26.6308L25.318 36.0401ZM21.9944 34.5766H19.7514V33.0723L21.9944 33.0799C22.1929 33.0799 22.3832 33.1587 22.5236 33.299C22.6639 33.4394 22.7428 33.6297 22.7428 33.8282C22.7428 34.0267 22.6639 34.217 22.5236 34.3574C22.3832 34.4977 22.1929 34.5766 21.9944 34.5766ZM29.0963 38.5907H37.7654V37.0031H33.0271V35.9573H37.7654V34.2439H33.0271V33.1981H37.7654V31.4844H29.0963V38.5907ZM44.3764 31.4844H40.4449V38.5907H48.3577V37.0031H44.3764V31.4844ZM53.6413 31.4844H49.7105V38.5907H57.623V37.0031H53.6413V31.4844Z" fill="white"/>
</svg>
