<svg width="64" height="64" viewBox="0 0 64 64" fill="none" xmlns="http://www.w3.org/2000/svg">
<path d="M22.8003 37.2676C20.4819 37.2676 18.3298 36.5724 16.8933 35.283C15.808 34.3089 15.2865 32.9857 15.2865 31.6239C15.2865 30.2786 15.8305 28.9463 16.8932 27.9773C18.2273 26.7614 20.5826 26 22.8003 26C25.2544 26 27.2185 26.6181 28.7201 27.9806C29.7884 28.9501 30.3049 30.2765 30.3049 31.624C30.3049 32.9301 29.7568 34.321 28.7201 35.283C27.3219 36.5807 25.1246 37.2676 22.8003 37.2676V35.7815C24.0308 35.7815 25.1722 35.3566 25.9694 34.5635C26.761 33.7757 27.1299 32.8073 27.1299 31.6239C27.1299 30.4901 26.732 29.4301 25.9694 28.6783C25.1829 27.9037 24.0142 27.4677 22.8003 27.4677C21.5826 27.4677 20.4131 27.8992 19.626 28.6783C18.8675 29.4299 18.4686 30.4929 18.4686 31.6239C18.4686 32.7513 18.8721 33.8137 19.626 34.5636C20.4138 35.3473 21.5791 35.7816 22.8003 35.7816V37.2678V37.2676ZM5.85531 26.0054C4.61516 26.0054 3.20627 26.2374 2.00917 26.772C0.904346 27.265 2.61842e-07 28.0622 2.61842e-07 29.384C-0.00051379 30.5744 0.756042 31.2716 0.73548 31.2523C1.05728 31.5485 1.57531 32.053 2.92971 32.3492C3.53501 32.4816 4.82913 32.6849 6.11786 32.8195C7.39708 32.9545 8.65599 33.0827 9.16876 33.2125C9.57615 33.3162 10.2605 33.4575 10.2605 34.2252C10.2605 34.9899 9.53952 35.2233 9.41422 35.2739C9.28905 35.3234 8.42416 35.7202 6.86941 35.7202C5.72153 35.7202 4.34156 35.375 3.83856 35.1951C3.2587 34.9887 2.65045 34.7158 2.08307 34.0227C1.94196 33.8509 1.71938 33.3783 1.71938 32.9104H0.312287V36.8532H1.87629V36.3205C1.87629 36.2598 1.95211 36.0104 2.21467 36.129C2.54135 36.2774 3.50031 36.6593 4.50297 36.8686C5.32507 37.0406 5.85518 37.1638 6.87725 37.1638C8.54483 37.1638 9.44069 36.8921 10.06 36.7153C10.6434 36.5482 11.3644 36.2483 11.95 35.7813C12.2672 35.5287 12.9627 34.8814 12.9627 33.7064C12.9627 32.5786 12.3574 31.8786 12.1445 31.6656C11.8544 31.3754 11.5001 31.1505 11.1309 30.9772C10.8092 30.8258 10.3016 30.6439 9.88625 30.5423C9.08009 30.3444 7.25726 30.1002 6.38556 30.009C5.47144 29.9135 3.88572 29.7821 3.25241 29.5862C3.06041 29.5267 2.66896 29.3402 2.66896 28.8858C2.66896 28.5625 2.84798 28.2886 3.20177 28.0671C3.76338 27.7153 4.89776 27.4965 6.08021 27.4965C7.47817 27.4914 8.66203 27.811 9.41512 28.1477C9.67125 28.2621 9.97094 28.4263 10.2089 28.6206C10.4775 28.8396 10.8546 29.2947 10.9909 29.9294H12.2542V26.4973H10.8437V26.8962C10.8437 27.025 10.7107 27.1923 10.4592 27.0541C9.8279 26.7229 8.04312 26.0084 5.85505 26.0054H5.85531ZM36.7671 26.6291L43.6479 32.8388L43.5772 28.6579C43.5703 28.1097 43.4693 27.8808 42.8763 27.8808H41.5826V26.6301H47.4659V27.8808H46.2039C45.5991 27.8808 45.561 28.0742 45.5536 28.6579L45.6603 36.6467H43.6455L35.7201 29.5733L35.7217 34.5933C35.7287 35.1389 35.7542 35.396 36.3165 35.396H37.7295V36.6461H31.9515V35.3961H33.3022C33.8068 35.3961 33.7867 34.9151 33.7867 34.5649V28.7055C33.7867 28.3272 33.7336 27.8817 32.9415 27.8817H31.8455V26.6291H36.7671ZM54.1888 35.3937C54.2441 35.3937 54.4895 35.3866 54.5371 35.3721C54.5969 35.354 54.6521 35.3231 54.6988 35.2817C54.7455 35.2402 54.7827 35.189 54.8077 35.1317C54.8257 35.0893 54.8347 34.9017 54.8347 34.861L54.8357 32.8844C54.8357 32.8369 54.8323 32.8163 54.7516 32.7104C54.6629 32.5948 51.1474 28.6109 50.9865 28.4355C50.7867 28.2176 50.4358 27.8809 49.9028 27.8809H48.6802V26.6297H55.5797V27.8794H54.748C54.5556 27.8794 54.4277 28.0619 54.5921 28.2647C54.5921 28.2647 56.9134 31.0414 56.9354 31.0705C56.957 31.1 56.9755 31.1071 57.005 31.0801C57.0341 31.0525 59.3846 28.2901 59.4031 28.2683C59.5149 28.1343 59.4391 27.8808 59.1981 27.8808H58.3449V26.6297H63.9995V27.8808H62.7362C62.2779 27.8808 62.0915 27.9656 61.7467 28.3554C61.589 28.5338 58.036 32.5892 57.9393 32.6991C57.8887 32.7566 57.8931 32.8366 57.8931 32.8842V34.8605C57.8931 34.9006 57.9021 35.0884 57.92 35.1306C57.9451 35.188 57.9823 35.2392 58.0291 35.2807C58.0759 35.3222 58.1313 35.353 58.1912 35.3709C58.2388 35.3856 58.4809 35.3928 58.536 35.3928H59.8282V36.6437H52.9643V35.3926L54.1891 35.3937H54.1888Z" fill="white"/>
</svg>
