<svg width="64" height="64" fill="none" xmlns="http://www.w3.org/2000/svg"><path d="M33.72 27.017c0 .72-.58 1.3-1.3 1.3-.719 0-1.298-.58-1.298-1.3 0-.72.56-1.299 1.299-1.299.74.02 1.3.6 1.3 1.3zm-5.357 2.619v.32s-.62-.8-1.938-.8c-2.179 0-3.878 1.659-3.878 3.957 0 2.28 1.68 3.958 3.878 3.958 1.339 0 1.938-.82 1.938-.82v.34c0 .16.12.28.28.28h1.619v-7.516h-1.619c-.16 0-.28.14-.28.28zm0 4.817c-.3.44-.9.82-1.619.82-1.279 0-2.258-.8-2.258-2.16 0-1.359.98-2.158 2.258-2.158.7 0 1.34.4 1.62.82v2.678zm3.098-5.097h1.92v7.515h-1.92v-7.515zm28.663-.2c-1.32 0-1.94.8-1.94.8v-4.218h-1.918v11.133h1.62c.16 0 .279-.14.279-.28v-.34s.62.82 1.938.82c2.18 0 3.878-1.678 3.878-3.957s-1.699-3.958-3.857-3.958zm-.32 6.096c-.74 0-1.32-.38-1.62-.82v-2.678c.3-.4.94-.82 1.62-.82 1.28 0 2.259.8 2.259 2.16 0 1.359-.98 2.158-2.259 2.158zm-4.537-2.838v4.477h-1.92v-4.257c0-1.24-.399-1.74-1.477-1.74-.58 0-1.18.3-1.56.74v5.237h-1.92v-7.515h1.52c.159 0 .279.14.279.28v.32c.56-.58 1.3-.8 2.038-.8.84 0 1.54.24 2.1.72.679.56.939 1.279.939 2.538zm-11.533-3.258c-1.32 0-1.939.8-1.939.8v-4.218h-1.919v11.133h1.62c.16 0 .28-.14.28-.28v-.34s.619.82 1.938.82c2.179 0 3.878-1.678 3.878-3.957.02-2.279-1.68-3.958-3.858-3.958zm-.32 6.096c-.74 0-1.319-.38-1.619-.82v-2.678c.3-.4.94-.82 1.619-.82 1.28 0 2.259.8 2.259 2.16 0 1.359-.98 2.158-2.26 2.158zm-5.197-6.096c.58 0 .88.1.88.1v1.779s-1.6-.54-2.599.6v5.256H34.58v-7.535h1.62c.16 0 .28.14.28.28v.32c.36-.42 1.139-.8 1.738-.8zM18.29 36.192c-.1-.24-.2-.5-.3-.72-.16-.36-.32-.7-.46-1.02l-.02-.02a208.38 208.38 0 00-4.417-9.034l-.06-.12a39.298 39.298 0 01-.48-.94c-.2-.36-.4-.739-.719-1.099A3.227 3.227 0 009.296 22c-1 0-1.9.44-2.558 1.2-.3.359-.52.739-.72 1.099-.156.315-.316.628-.48.94l-.06.12a234.482 234.482 0 00-4.417 9.033l-.02.04c-.14.32-.3.66-.46 1.02-.1.22-.2.46-.3.72-.26.739-.34 1.438-.24 2.158a4.248 4.248 0 002.6 3.318c.519.22 1.059.32 1.618.32a5.281 5.281 0 002.519-.72c.82-.46 1.599-1.119 2.478-2.078.88.96 1.68 1.619 2.479 2.079a5.284 5.284 0 002.518.719c.56 0 1.12-.1 1.62-.32a4.24 4.24 0 002.598-3.318c.158-.7.079-1.399-.181-2.138zM9.276 37.23c-1.08-1.36-1.78-2.638-2.02-3.718-.099-.46-.12-.86-.059-1.219.04-.32.16-.6.32-.84.38-.539 1.02-.879 1.759-.879.74 0 1.4.32 1.759.88.16.24.28.52.32.84.06.36.04.779-.06 1.218-.24 1.06-.94 2.339-2.02 3.718zm7.974.94a2.97 2.97 0 01-1.818 2.338c-.48.2-1 .26-1.52.2a3.925 3.925 0 01-1.518-.52c-.72-.4-1.44-1.02-2.279-1.939 1.32-1.618 2.119-3.098 2.418-4.417a5 5 0 00.1-1.699c-.08-.5-.26-.96-.54-1.36-.62-.899-1.659-1.418-2.818-1.418s-2.198.54-2.818 1.419c-.28.4-.46.86-.54 1.359-.08.52-.06 1.1.1 1.7.3 1.318 1.12 2.817 2.419 4.436-.82.92-1.56 1.54-2.279 1.94-.52.3-1.02.46-1.519.519-.54.06-1.06-.02-1.519-.2a2.97 2.97 0 01-1.818-2.339c-.06-.5-.02-.999.18-1.558.06-.2.16-.4.26-.64.14-.32.299-.66.459-1l.02-.04a217.917 217.917 0 014.397-8.974l.06-.12c.16-.3.32-.62.48-.92.16-.32.34-.62.56-.88.42-.478.979-.738 1.599-.738s1.179.26 1.599.739c.22.26.4.56.56.88.16.3.32.62.479.919l.06.12a264.671 264.671 0 014.377 8.995v.02c.16.32.3.68.46 1 .1.239.2.439.26.639.16.519.22 1.019.14 1.538z" fill="#fff"/></svg>