<svg width="64" height="64" fill="none" xmlns="http://www.w3.org/2000/svg"><path d="M23.328 18c1.348 0 2.578.117 3.689.353 1.11.235 2.062.621 2.855 1.157a5.4 5.4 0 011.845 2.137c.436.89.654 1.987.654 3.294 0 1.412-.324 2.589-.971 3.53-.649.94-1.607 1.712-2.876 2.313 1.745.497 3.047 1.367 3.907 2.608.859 1.242 1.29 2.74 1.29 4.49 0 1.412-.278 2.635-.834 3.668a7.16 7.16 0 01-2.24 2.528c-.94.654-2.01 1.137-3.213 1.452a14.69 14.69 0 01-3.71.47H10V18h13.328zm-.794 11.334c1.111 0 2.023-.262 2.737-.785.714-.522 1.071-1.372 1.071-2.549 0-.653-.119-1.19-.357-1.608a2.622 2.622 0 00-.952-.98 4.052 4.052 0 00-1.368-.49 9.202 9.202 0 00-1.607-.137h-5.83v6.549h6.306zm.357 11.882c.608 0 1.19-.06 1.745-.177a4.314 4.314 0 001.468-.588c.423-.275.76-.647 1.012-1.118.25-.47.376-1.072.376-1.804 0-1.437-.41-2.464-1.23-3.078-.82-.615-1.903-.922-3.252-.922h-6.782v7.686h6.663zm18.666-.589c.847.812 2.063 1.216 3.65 1.216 1.136 0 2.115-.28 2.935-.843.82-.561 1.322-1.157 1.507-1.784h4.958c-.793 2.431-2.01 4.17-3.649 5.215-1.64 1.046-3.623 1.569-5.95 1.569-1.613 0-3.068-.255-4.363-.765-1.296-.51-2.394-1.235-3.292-2.176-.9-.941-1.594-2.065-2.083-3.372-.49-1.307-.734-2.745-.734-4.314 0-1.516.251-2.928.754-4.235a9.909 9.909 0 012.142-3.393 10.086 10.086 0 013.312-2.254c1.282-.55 2.704-.824 4.264-.824 1.746 0 3.266.334 4.562 1a9.091 9.091 0 013.193 2.686c.833 1.125 1.434 2.406 1.805 3.843a14.19 14.19 0 01.397 4.51H40.17c.079 1.804.54 3.111 1.387 3.921zm6.367-10.666c-.674-.732-1.7-1.098-3.074-1.098-.9 0-1.646.15-2.241.45-.595.302-1.071.674-1.428 1.119a4.083 4.083 0 00-.754 1.411 6.306 6.306 0 00-.258 1.334h9.163c-.264-1.412-.734-2.484-1.408-3.216zm-8.717-10.54h11.449v3.139H39.207v-3.138z" fill="#fff"/></svg>