<svg width="64" height="64" fill="none" xmlns="http://www.w3.org/2000/svg"><path d="M13.162 33.298A6.68 6.68 0 11.199 30.066a6.68 6.68 0 0112.963 3.232z" fill="#fff"/><path d="M9.625 30.73c.133-.89-.544-1.367-1.47-1.686l.301-1.204-.733-.183-.292 1.172a30.301 30.301 0 00-.588-.138l.295-1.18-.733-.183-.3 1.204c-.16-.036-.316-.072-.468-.11v-.004l-1.01-.252-.196.783s.544.124.533.132c.297.074.35.27.341.427l-.342 1.372c.02.005.047.012.077.024l-.078-.02-.48 1.923c-.036.09-.128.225-.335.174.007.01-.533-.133-.533-.133l-.364.84.954.237.523.135-.304 1.218.733.183.3-1.206c.2.055.394.105.584.152l-.3 1.2.733.182.304-1.215c1.25.236 2.19.14 2.586-.99.319-.91-.016-1.435-.674-1.778.48-.11.84-.425.936-1.076zM7.95 33.078c-.226.91-1.76.419-2.256.295l.402-1.614c.497.125 2.09.37 1.854 1.32zm.227-2.361c-.207.828-1.483.407-1.896.304l.365-1.464c.413.103 1.746.296 1.53 1.16zm11.403-1.674c.543 0 1.01.097 1.404.288.395.192.721.451.983.778.258.327.45.71.574 1.15.124.44.185.913.185 1.42a5.69 5.69 0 01-.43 2.207 5.728 5.728 0 01-1.176 1.81 5.53 5.53 0 01-1.759 1.216 5.368 5.368 0 01-2.197.449c-.102 0-.28-.003-.534-.008a7.859 7.859 0 01-.87-.075 10.22 10.22 0 01-1.04-.205 5.214 5.214 0 01-1.04-.371l2.925-12.294 2.62-.406-1.047 4.362c.218-.098.444-.177.676-.236.238-.058.482-.086.727-.085zm-2.197 7.239c.394 0 .766-.097 1.116-.288.35-.192.66-.453.906-.77a3.88 3.88 0 00.6-1.09c.146-.408.22-.837.22-1.27 0-.54-.09-.962-.271-1.268-.18-.303-.514-.456-.998-.456-.159 0-.363.03-.616.084a1.539 1.539 0 00-.686.356l-1.116 4.633c.067.012.127.023.177.034a1.832 1.832 0 00.363.035h.305zm8.06 1.844h-2.502l2.114-8.895h2.52l-2.131 8.895zm1.219-9.978a1.553 1.553 0 01-.947-.313c-.284-.207-.424-.526-.424-.955 0-.237.048-.458.143-.668a1.785 1.785 0 01.93-.905c.212-.09.44-.136.67-.135.349 0 .664.104.946.313.281.209.422.528.422.955.002.23-.047.46-.144.669a1.761 1.761 0 01-.929.904 1.65 1.65 0 01-.667.135zm3.106-1.133l2.622-.406-.644 2.622h2.807l-.506 2.063h-2.791l-.744 3.11c-.068.26-.107.502-.118.727-.012.226.017.42.084.584.067.164.188.29.364.38.174.09.424.136.752.136.27 0 .533-.026.787-.077a5.53 5.53 0 00.769-.21l.187 1.928a9.01 9.01 0 01-1.1.32 6.333 6.333 0 01-1.403.135c-.778 0-1.38-.115-1.81-.345-.43-.232-.732-.548-.914-.949-.179-.398-.259-.858-.236-1.377a8.88 8.88 0 01.236-1.64l1.658-7zm4.675 7.56c0-.767.124-1.49.372-2.166a5.327 5.327 0 011.066-1.776 4.995 4.995 0 011.684-1.2c.657-.293 1.394-.44 2.205-.44.508 0 .962.048 1.361.144.401.097.764.223 1.092.38l-.863 1.963a8.06 8.06 0 00-.702-.245 3.053 3.053 0 00-.888-.11c-.835 0-1.495.287-1.987.861-.49.574-.736 1.348-.736 2.318 0 .575.124 1.04.373 1.395.247.355.705.532 1.37.532.327 0 .643-.034.946-.1.306-.068.575-.154.813-.254l.187 2.012a9.074 9.074 0 01-1.049.33 5.82 5.82 0 01-1.37.143c-.7 0-1.292-.102-1.776-.304a3.38 3.38 0 01-1.2-.82 3.094 3.094 0 01-.685-1.21 4.968 4.968 0 01-.213-1.454zm11.119 3.786c-.597 0-1.116-.09-1.557-.27a2.874 2.874 0 01-1.09-.762 3.284 3.284 0 01-.65-1.158 4.679 4.679 0 01-.22-1.478c0-.677.11-1.355.33-2.03a5.748 5.748 0 01.972-1.826 5.205 5.205 0 011.572-1.33c.619-.342 1.33-.515 2.13-.515.586 0 1.102.092 1.548.272.445.18.81.434 1.1.76a3.3 3.3 0 01.649 1.16c.147.444.22.938.22 1.478 0 .676-.107 1.353-.32 2.03a5.858 5.858 0 01-.947 1.827c-.417.54-.938.983-1.564 1.326-.625.344-1.35.516-2.173.516zm1.25-7.237c-.37 0-.698.108-.98.32a2.766 2.766 0 00-.709.813 4.011 4.011 0 00-.432 1.074c-.096.39-.143.758-.143 1.107 0 .564.091 1.004.27 1.32.181.315.507.473.981.473.372 0 .699-.107.981-.322a2.78 2.78 0 00.71-.811c.191-.326.336-.685.432-1.074.095-.388.143-.758.143-1.108 0-.562-.09-1.003-.271-1.319-.18-.315-.508-.473-.981-.473zm6.482 7.002h-2.505l2.114-8.895h2.52l-2.13 8.895zm1.216-9.978a1.55 1.55 0 01-.946-.313c-.283-.207-.424-.526-.424-.955 0-.237.049-.458.144-.668a1.75 1.75 0 01.38-.541c.161-.153.347-.276.55-.364.211-.09.438-.136.667-.135.35 0 .666.104.948.313.282.209.423.528.423.955 0 .237-.05.46-.145.669a1.758 1.758 0 01-.928.904c-.21.091-.431.135-.67.135zm2.717 1.488c.19-.056.403-.122.633-.195a9.414 9.414 0 011.743-.354c.354-.041.759-.06 1.208-.06 1.32 0 2.23.384 2.732 1.15.502.767.589 1.816.263 3.145l-1.151 4.803h-2.52l1.116-4.702a9.86 9.86 0 00.161-.854c.04-.275.038-.518-.009-.727a.87.87 0 00-.311-.508c-.166-.13-.415-.194-.753-.194-.335.001-.67.036-.998.103l-1.64 6.881h-2.52l2.046-8.488z" fill="#fff"/></svg>