<svg width="64" height="64" fill="none" xmlns="http://www.w3.org/2000/svg"><path d="M16.144 43.603c1.288-1.073 1.51-2.404 1.51-3.594v-5.014h-6.998v6.802c0 .972-.79 1.762-1.76 1.762-.973 0-1.695-.788-1.695-1.762v-19.27c0-.973.722-1.76 1.695-1.76.97 0 1.76.786 1.76 1.76v6.844h6.99v-7.1c-.001-3.923-2.564-7.15-8.81-7.16C2.424 15.111 0 18.355 0 22.278v20.118c0 3.89 3.087 6.832 7.034 6.831h2.168l6.942-5.624zm27.591.79v-22.11h-4.828V15.77h17.48v6.514h-4.855V49.19h-2.07l-5.727-4.798zm3.133 4.843L29.843 34.975l-17.64 14.261h34.665z" fill="#fff"/><path d="M34.705 15.807h-9.753l-5.683 25.491 10.58-8.537 11.033 9.243-6.177-26.197zm-6.742 15.32l1.887-9.635 1.872 9.634h-3.76zm33.734-14.295c.545 0 1.01.193 1.394.58.382.384.574.848.574 1.392 0 .548-.192 1.015-.574 1.4-.383.387-.847.58-1.394.58a1.885 1.885 0 01-1.394-.58 1.92 1.92 0 01-.571-1.4c0-.543.191-1.008.574-1.393a1.892 1.892 0 011.391-.58zm2.297 1.968a2.19 2.19 0 00-.67-1.612 2.216 2.216 0 00-1.621-.666 2.2 2.2 0 00-1.612.666 2.194 2.194 0 00-.67 1.612c0 .635.221 1.176.664 1.621.445.45.984.673 1.618.673a2.2 2.2 0 001.62-.673 2.21 2.21 0 00.67-1.621zm-1.684-.492c0 .192-.088.323-.261.39a1.248 1.248 0 01-.425.056h-.403v-.904h.381c.496 0 .708.096.708.458zm-1.532-.767v2.507h.443v-.984h.35c.236 0 .4.026.495.08.159.093.237.284.237.572v.198l.01.081c.001.01.003.019.006.028l.007.024h.411l-.016-.03a5.085 5.085 0 01-.028-.5.645.645 0 00-.56-.631c.445-.074.604-.275.604-.618 0-.317-.129-.529-.39-.638-.146-.06-.375-.09-.687-.09h-.882z" fill="#fff"/></svg>