<svg width="64" height="64" fill="none" xmlns="http://www.w3.org/2000/svg"><path d="M57.27 24.169c.173-.13.341-.26.505-.391a27.634 27.634 0 01-22.169 36.15c4.85-4.63 8.477-12.604 8.93-20.825.464-8.42-3.218-13.855-10.178-14.595-10.528-1.12-21.46 9.356-26.129 22.79a27.612 27.612 0 0128.064-41.9 8.843 8.843 0 00-3.768 6.008c-1.034 4.777.416 9.792 3.408 10.439 2.99.646 6.392-3.319 7.424-8.095a9.398 9.398 0 00-.555-6.386 27.628 27.628 0 017.421 4.855c-.421.26-.831.54-1.229.835-4.988 3.713-7.83 9.691-5.545 12.76 2.285 3.067 8.833 2.068 13.821-1.645zm-35.609 1.235c1.157-1.357.126-4.14-1.969-5.925-2.095-1.785-4.332-1.788-5.49-.432-1.156 1.356-.794 3.56 1.302 5.346 2.095 1.787 5.003 2.367 6.157 1.01zm6.715-3.208c2.25-1.032 2.517-5.266.859-8.877-1.658-3.61-4.511-5.006-6.76-3.974-2.249 1.032-3.044 4.105-1.385 7.713 1.66 3.608 5.037 6.17 7.287 5.138zm16.825 23.859c6.202-4.296 9.236-3.121 9.235-4.701-.003-1.74-4.788-5.038-8.168-5.344.04.938.033 1.91-.021 2.914a40.648 40.648 0 01-1.046 7.13zm-26.466 7.74a13.476 13.476 0 00.157 3.324 27.693 27.693 0 01-6.915-5.1c3.297-12.366 12.736-24.386 21.816-23.503 3.799.371 6.422 3.708 6.021 10.96-.462 8.395-6.524 20.646-12.933 20.293-2.96-.163-3.886-3.185-3.664-5.855.484-5.787 3.43-7.379 3.623-9.722a1.713 1.713 0 00-2.343-1.65c-1.784.568-5.332 4.982-5.762 11.253zM35.65 34.47c-1.843.06-3.83 3.322-3.037 5.117 1.456 2.34 4.495-.706 4.545-3.199.013-.589-.026-1.919-1.508-1.918zm18.008 21.44h.573l.573 1.376.572-1.376h.573v2.363h-.572v-1.14l-.384.921h-.378l-.383-.92v1.139h-.574V55.91zm-2.155 0h1.8v.532h-.614v1.83h-.572v-1.83h-.614v-.532z" fill="#fff"/></svg>