<svg width="64" height="64" fill="none" xmlns="http://www.w3.org/2000/svg"><path fill-rule="evenodd" clip-rule="evenodd" d="M35.753 14.372c-.166.172-.747 1.052-.747 2.142 0 .261.004 6.51 0 6.734-.01.475-.3 1.153-.54 1.392-.168.168-1.204 1.11-1.296 1.21l.588.009c.19-.183 2.187-1.953 2.396-2.19.271-.31.919-1.092.919-2.32l.003-6.47c0-.971.453-1.51.685-1.77.24-.267 1.026-.923 1.166-1.071l-.617-.018c-.149.149-2.352 2.137-2.557 2.352zM30.81 38.858l2.444 2.135h1.637a6.008 6.008 0 004.189-1.715c1.004-1.005 1.374-2.354 1.374-3.616v-3.5c0-1.177-.74-1.861-.944-2.066-.112-.112-.824-.783-.824-.783v2.685s.784.81.94.975c.725.77.717 2.172-1.579 4.41-.402.392-1.55 1.475-3.128 1.475h-4.11z" fill="#fff"/><path fill-rule="evenodd" clip-rule="evenodd" d="M37.61 24.493c-.272.288-.533.993-.533 1.614v1.326h1.344c.522 0 1.212-.476 1.361-.728.01-.018 0-1.314 0-1.314s.346.494.718.755c.14-.177 1.364-1.66 2.389-1.67 1.71-.013 1.324 2.145.625 2.836-.227.222-1.237 1.15-1.55 1.446-.807.77-2.19.401-2.19-1.586 0 0-1.485 1.409-1.708 1.596-.224.186-.99.997-.99.997v3.493c0 1.674-.55 2.236-1.007 2.74-.178.195-2.063 1.916-2.316 2.102l-.616.014s1.104-1.003 1.325-1.233c.252-.261.545-.792.545-1.675 0-.224-.028-5.488-.028-5.488H26.4c-2.984 0-3.621-3.311-3.64-4.197-.005-.26 0-2.906 0-3.316 0-.544-.348-1.463-.905-1.746h.842c.097.04.626.254.626 2.284 0 0-.036 2.363-.036 2.489 0 1.03.819 2.21 2.001 2.21l9.71-.01c.01-.26.27-1.25.736-1.774.266-.296 2.348-2.201 2.586-2.384l.617-.007c-.094.085-1.101.989-1.327 1.226zm3.188 1.989s.563.746.83.96c1.047.84 1.543-.062.841-1.026-.278-.38-1.353-.27-1.67.066z" fill="#fff"/><path fill-rule="evenodd" clip-rule="evenodd" d="M30.387 32.737c0 .47-1.498 1.714-1.586 1.801-.108-.505-.486-1.063-1.602-2.18l1.639-1.638c1.098 1.1 1.549 1.333 1.549 2.017zm2.842-18.786c.328.329 1.036 1.22.611 1.646-.375.375-.956.97-.956.97-.03-.214-.574-.73-.574-.73s.005 1.582 0 1.778c-.019.715-.288.919-.288.919s1.321 1.31 1.321 2.993c0 .816.003 1.567.003 1.729 0 .345-.087.612-.327.876a69.71 69.71 0 01-1.53 1.53 1.434 1.434 0 01-1.006.372H25.93c-.717 0-1.454-.56-1.454-1.119l.009-1.688c.233.27.47.587 1.044.578.448-.006.92-.358 1.045-.484.13-.132 3.443-3.595 3.443-3.595s-1.552-1.438-2.573-2.122c-.5-.334-1.162.088-1.262.527-.313 1.378 0 3.444 0 3.444l-1.256-1.253c-.506-.507-.488-1.654.115-2.257.096-.096 1.014-1.134 2.181-1.134h1.817c1.22 0 2.553 1.214 2.553 1.214s.196-.214.196-.422c0-.625-.024-2.31-.024-2.31-.917-.917-1.042-1.864-.602-2.303.82-.82 1.119-1.11 1.119-1.11s-.01.995.947 1.951zm-5.71 9.146c-.45.47-.527.587-.947.839h5.126c1.39 0 1.113-.863.864-1.298-.51-.891-2.124-2.549-2.124-2.549s-2.826 2.908-2.92 3.008z" fill="#fff"/><path fill-rule="evenodd" clip-rule="evenodd" d="M21.673 27.762h-.841s.904.496.904 1.777v4.092c0 2.662 2.196 5.124 4.864 5.124h2.229c1.338 0 1.807-.324 2.616-1.042.297-.264.682-.696.823-.853.467-.522.963-.944.963-2.315v-1.34c0-1.157-.67-1.639-.994-1.962a77.415 77.415 0 00-.778-.753v2.743s.562.599.81.793c1.156.914.235 2.5-.838 2.5-.214 0-4.596.002-4.894.01-1.802.044-4.238-1.564-4.238-4.267v-2.223c0-2.284-.626-2.284-.626-2.284z" fill="#fff"/><path fill-rule="evenodd" clip-rule="evenodd" d="M27.036 32.744c0 .467-1.497 1.714-1.584 1.801-.108-.505-.487-1.063-1.603-2.18l1.639-1.638c1.099 1.099 1.548 1.332 1.548 2.017zM9.901 50.94l-2.622-.003c-.826 0-.763-.686-.836-1.273v-3.761s.574-.014 1.224-.014c.727 0 1.631-.108 2.511.39 0 0-.633-1.526-2.515-1.526h-1.22v-1.205s0-1.05-.256-1.36l1.732.006c1.5 0 2.658-.022 3.863.78 0 0-.231-1.983-3.126-1.983H3s.982.84.955 2.551l.027 6.855c0 1.72.688 1.767.688 1.767h5.575c1.263 0 1.702-.903 1.702-1.392l.02-.657c0-.001-.402.825-2.066.825zm14.838-.58v-4.793c0-1.86-1.52-2.355-2.652-2.355-1.499 0-1.947 1.252-2.138 1.682-.335-1.167-1.503-1.696-2.461-1.696-1.81 0-2.27 1.724-2.27 1.724s-.042-1.664-1.496-1.664l-1.424.003s.825.34.825 1.778l-.002 5.323c0 1.758.708 1.788.708 1.788h2.348c-.061-.03-.901-.664-.901-1.803v-4.722c.029-.21.383-.923 1.396-.923.574 0 1.204.598 1.19 1.27l-.002 4.388c0 1.783.7 1.788.7 1.788h2.356s-.901-.634-.901-1.803l-.007-4.724c.088-.263.398-.904 1.288-.904.708 0 1.302.597 1.288 1.27 0 0-.005 4.005-.003 4.377.01 1.795.7 1.779.7 1.779 1.227 0 2.357.005 2.357.005s-.899-.621-.899-1.787zm4.118-.001c0 1.182.905 1.79.905 1.79s-1.121-.006-2.348-.006c0 0-.72.01-.72-1.77v-.008l.002-5.339c0-1.407-.815-1.77-.815-1.77h1.424c.502 0 1.548 0 1.548 1.992l-.004 5.103.008.008zm7.233-6.431s-.226-.64-1.202-.64c-1.474 0-1.833 1.752-1.833 1.752-.12-1.385-.491-1.794-1.532-1.794l-1.424.003s.825.339.825 1.777l-.003 5.33c0 1.76.709 1.788.709 1.788h2.347c-.06-.029-.9-.663-.9-1.802l.002-4.364c.062-.396.266-.7.576-.9.774-.502 1.83-.383 2.435.356v-1.506zm10.955.322a3.01 3.01 0 011.388.347l.007-1.341h-1.974l.001-2.034s-.518.897-1.58 1.769c-.667.547-2.067 1.224-2.067 1.224l1.49.027-.002 6.186c0 1.715.717 1.715.717 1.715 1.288 0 2.345.005 2.345.005s-.906-.607-.906-1.736l.002-6.166c.618.002.192.004.579.004zm7.139 2.685c-1.318 1.378-2.351 1.162-3.18 2.172 0 0 .134 1.368 1.18 1.85.357.166 1.807.69 2.747-.932l-.007 1.435s-.603.7-2.517.7c-2.306 0-3.886-1.813-3.886-4.273 0-2.419 1.288-4.664 3.72-4.676 2.383-.013 3.673 1.913 1.943 3.724zm-1.442-.564c.39-.72.696-2.55-.636-2.45-1.543.117-1.25 4.22-1.25 4.22.517-.56 1.291-.674 1.886-1.77zm-24.976-3.834c.605 0 1.096-.48 1.096-1.072 0-.592-.49-1.072-1.096-1.072-.605 0-1.095.48-1.095 1.072 0 .592.49 1.072 1.095 1.072zm10.77 8.602c-.535 0-.918-.557-.918-1.128 0-2.219 1.817-2.525 2.303-3.118l.004 3.742c-.215.19-.433.505-1.389.505zm1.385-5.102c-.547.956-4.795 1.16-4.144 4.445.258 1.304 1.126 1.683 2.218 1.683 1.061 0 1.699-.553 1.966-1.069.158.99.658 1.047.658 1.047 1.227 0 2.348.005 2.348.005s-.914-.608-.914-1.78V45.37c0-1.195-1.325-2.125-2.734-2.125-1.353 0-2.204.652-2.204.652v1.55s.483-1.228 1.708-1.228c1.195 0 1.283.595 1.276.893 0 0 .12.402-.178.923zm19.46 3.697c.013.628-.55 1.454-1.745 1.454-1.225 0-1.713-1.253-1.713-1.253v1.587s.883.63 2.236.63c1.607 0 3.23-1.221 3.194-2.92-.012-.598-.225-1.108-.551-1.547-.544-.728-1.533-1.238-2.3-1.709-.436-.27-.669-.75-.674-.92-.013-.297.132-.898 1.328-.898 1.167 0 1.663 1.228 1.663 1.228l-.004-1.487s-.893-.709-2.247-.709c-1.408 0-2.687.93-2.663 2.125.022 1.049.465 1.729 1.322 2.369.34.252.744.498 1.212.758.684.38.933.843.942 1.292z" fill="#fff"/></svg>