<svg width="64" height="64" fill="none" xmlns="http://www.w3.org/2000/svg"><path d="M21.29 17.459c0-.172-.02-.341-.19-.303-.474.151-1.194.853-1.194 1.287 0 1.029.4 2.34.947 2.622.227.093 1.008 0 1.29-.172.041-.058-.075-.288-.075-.381-.19 0-.664.21-.874.093-.609-.163-.609-1.34-.53-1.949l.585-1.063c-.227.227-.606.437-.74.381-.038-.247.589-.742.781-.515z" fill="#fff"/><path d="M22.446 19.606c.02.437-1.256.592-1.329-.038.417.21.988.248 1.329.038zm2.03.417c1.008-.358 1.882 1.652 1.008 2.546.306-.816.02-2.299-1.008-2.546z" fill="#fff"/><path d="M23.854 20.325c.02-.058.037-.13.058-.113.035.078.169.078.204.078.533.059 1.104.854 1.217 1.841.059.854-2.091 2.736-2.773 3.665-.303.76.323 1.672.152 1.576-1.48-.874-.38-2.298-.245-2.432 1.631-1.876 3.17-2.733 1.879-4.061 0 0-.382-.134-.475-.21-.076-.076-.076-.245-.017-.344z" fill="#fff"/><path d="M26.682 29.709c.038.02.379-.437.416-.496 0-.017.018-.073.132-.227.323-.533.133-1.462-.548-1.882-.76-.49-2.013.079-3.114-.227-.554-.283-.589-1.194-.627-1.063-.399 1.293.912 1.445 1.043 1.445 1.806.227 3-.437 2.963 1.31 0 0-.038.172-.093.268-.21.245-.513.624-.513.624-.117.02.303.192.34.248zm2.316-12.21c-.361-.34-1.008-.515-1.463-.608-.02 0-.075.075-.113.151.285.04 1.156.344 1.517.588.059.038.059-.113.059-.13zm.227 2.392c.02-.513-.018-.816.038-1.142 0 0-.131.114-.207.114.053.342.04.69-.038 1.028 0 .038.207 0 .207 0zm-.682 5.602c-.172-1.652-.113-1.71-.078-2.392 0 0 .151.02.36 0-.282.283-.017 2.22.231 2.64 0 .017-.268-.02-.513-.248zm1.993-.306c-.248-1.576-.172-1.555-.114-2.202 0 0 .131 0 .341-.02-.285.268-.134 1.538.073 1.957.003.003-.055.478-.3.265zm1.558-1.1c-.189-1.102-.189-1.044-.189-1.501 0 0 .076-.041.21-.058-.19.186.113.777.227 1.5.056.21 0 .268-.248.058zm1.102-1.746c-.207-.454-.19-.454-.32-.609 0 0-.042.02-.114.076.151-.02.151.303.285.609.053.093.073.093.149-.076zm-4.92-.096c.122-.402.256-.8.401-1.195 0 0-.134 0-.21-.02 0 .19-.32.912-.378 1.197l.186.018zm-.948-.038c.187-.475.38-.874.53-1.157 0 0-.15 0-.23-.037 0 .186-.399.853-.492 1.139 0 .017.192.055.192.055zm2.523-.038c.076-.722.097-1.177.134-1.634 0 0-.134.172-.227.172 0 .247-.172 1.156-.172 1.535 0 .023.248-.073.265-.073zm.895-3.076c-.228-.664-.4-1.043-.513-1.463 0 0-.058.21-.134.23.134.21.382.97.437 1.332.017.035.192-.1.21-.1zm.853 2.58c-.017-.853-.076-1.386-.058-1.936 0 0-.114.21-.186.21.072.302.072 1.328.017 1.782 0 .044.21-.055.227-.055zm4.026-4.442c.796.382 1.29.571 1.763.836 0 0-.131-.189-.093-.265a7.734 7.734 0 01-1.597-.777c-.035-.02-.055.206-.073.206zm3.269-1.366c.664-.19 4.728 4.215 5.395 5.375 0 0 .286-.076.32-.134-.247-.74-4.52-5.527-5.468-5.489 0 0-.247.228-.247.248zm-1.101 3.778c.32-.093 2.03 1.387 2.354 1.938 0 0 .323.058.21-.076-.135-.361-1.976-2.124-2.413-2.11l-.151.248zm-.667 1.652c.227.058 1.008.72 1.424 1.063 0 0 .32.059.187-.096-.187-.247-1.174-1.29-1.518-1.348a2.49 2.49 0 01-.093.381zm-.95 1.387c.21.058.303.227.722.568 0 0 .32.058.207-.093-.207-.248-.492-.723-.816-.796l-.113.32zm-1.235 1.235c.21.058.247.248.533.568 0 0 .076-.113.154-.247-.21-.245-.268-.341-.495-.548l-.192.227zm-1.728.874c.207.058.816 1.157 1.122 1.5 0 0 .058-.113.113-.244-.189-.248-.97-1.483-1.197-1.672l-.038.416zm-1.29 1.101c.206.059.929 1.329 1.235 1.672l.134-.247c-.21-.248-.912-1.445-1.122-1.617l-.247.192zm2.639 1.973c.207.058.816 1.217.93 1.73 0 0 .075-.058.15-.19-.093-.302-.646-1.669-.873-1.803-.207-.134-.341.17-.207.262zm-1.652 1.028c.172 0 1.008 1.025 1.198 1.518 0 0 .093.02.151-.114-.058-.303-.874-1.445-1.08-1.576-.23-.151-.461-.055-.269.172zm1.993 2.925c.113.02.533.626.647.929 0 0 .113.02.171-.076-.037-.19-.381-.815-.512-.891-.134-.096-.42-.076-.306.038zm-1.043.207c.076 0 .434.457.548.76 0 0 .134 0 .189-.073-.038-.21-.492-.798-.606-.874-.131-.079-.11.073-.131.187zm-2.32-2.485c.21.189 1.046.95 1.558 1.596 0 0-.02.073.038-.058-.36-.63-1.194-1.463-1.366-1.617-.55-.513-.457-.454-.23.079zm4.067-3.572c.207.058.78 1.273 1.008 2.144l.093-.227c-.076-.434-.795-2.051-1.008-2.223 0 0-.093.286-.093.306zm-5.32.647c.207.058 1.008 1.308 1.29 1.634 0 0 .114-.038.19-.172-.21-.248-1.084-1.387-1.29-1.538l-.19.076zm5.83-7.426c.474.303.798.533.798.548-.041.04.073-.172.093-.265a3.016 3.016 0 01-.894-.496c-.032.003.003.213.003.213zm-.624 1.765c.475.286.475.303.475.303-.04.041.114-.13.134-.227-.154-.038-.23-.151-.475-.303a1.78 1.78 0 00-.134.227zm-.97 1.35c.475.285.402.32.402.32-.02.038.131-.134.152-.228-.134-.113-.172-.154-.42-.303-.05.067-.095.137-.134.21zm-2.904-3.896c-.42-.606-.816-1.08-1.064-1.483 0 0 0 .134-.073.172.207.172.796 1.119.968 1.46.017.044.169-.149.169-.149zm-9.573-1.063c.076-.017.113-.227.151-.186a.98.98 0 01-.038 1.1c.05-.309.011-.626-.113-.914z" fill="#fff"/><path d="M22.733 18.22c.282.362-1.634 1.539-1.824 1.084-.076-.21.268-1.235.513-1.71.175-.32.04-.55-.038-.568-.192-.04.285-.399.303-.399.437-.268.533.245.399.379-.492.513-.303.682-.245.664.131-.076-.02.55-.42.854-.075.037-.15.306-.057.42.437-.077 1.159-.383 1.369-.723zm1.366.93c-.227.058-.382-.073-.437-.058 0 .303-.151.344-.647.268-.196.105-.36.262-.474.454-.455.84.212 1.882 1.654 1.614-1.194-.891-.512-1.783.836-1.634 0-.058.568-.303.568-.417-.075 0-.664-.116-.909-.116-.113 0 .172.265.059.265-.819.026-2.054.556-1.334 1.506.02.04-.93-.038-.627-1.005.058-.172.19-.4.323-.4.207 0 .548-.017.606-.072l.382-.405z" fill="#fff"/><path d="M23.455 18.79c2.354.302 2.164.093 2.488.072.227 0 .722.02 1.043.516.154.227-.93.853-1.536.93.53-.458 1.099-.74.93-.913-.193-.075-.554-.151-.781-.017-.19.13-.589-.058-.93-.096a2.63 2.63 0 00-.588-.076c-.172 0-.434-.073-.682-.093-.137-.003-.003-.003.056-.324zm1.235-2.698c0 .227-.096 1.1-.34 1.273-.251.361-.802.265-.802 1.1.34.249.647.17.95.077l-.02-.21c-.607.02-.761 0-.513-.303-.018-.114.42-.227.705-.758-.02.266-.362 1.026-.38 1.06.152.021.152.021.187.021.059 0 .19-.588.303-.874.02-.075.134-.134.134-.151.117-.268.079-.76-.224-1.235zm.169 1.652c.076.02.038-.359.151-.266.341.362.437.91-.42 1.215.44-.42.534-.76.269-.95zm.874-1.309c-.058-.037.172-.134.172-.227-.038-.437-.667-.874-.647-.76a3.93 3.93 0 01-.058 1.48c-.018-.076.192-.096.247-.21.131-.285.076-.437.076-.702 0-.058.19.114.21.42zm1.518-.154c-.035-.055.116.344.192.268.795-.987.207-1.634-.21-1.672-.361-.04-.058.588-.512 1.025.02-.075.037.265.151.19.268-.19.285-.361.42-.61.037-.034.224.307-.041.799z" fill="#fff"/><path d="M25.031 17.307c.059.02.172.265.265.207 1.046-.644 1.614-1.364.836-2.54.114 1.118.076 1.63-1.1 2.333zm.434.798c0-.073-.172.268.041.248.606-.038 2.03-1.387 1.594-1.69-.056-.038-.076-.151-.094-.151-.399 0-1.063.833-1.596 1.174.058-.059-.018.21.096.171.455-.13 1.177-1.025 1.349-.932.169.079-.894.99-1.39 1.18zm2.625-2.089c.018.059-.21-.247-.04-.265.419 0 1.386.548 1.881.455.134-.02.42.093.42.247.02.038-.265.627-.32.627-.438.037-1.483-.496-2.092-.668.072.041-.117-.186.038-.186.454.038 1.669.626 1.84.53.021 0 .135-.017.076-.058-.268-.227-1.39-.661-1.803-.682zm3.627-.151c.058.073-.175-.114-.154-.19.02-.21.681-.02.76-.058.038-.02.076.02.151.076 0 .017.437.702.382.819-.114.206-.475.072-.702.13.058.021-.207-.227-.152-.227.286-.017.569.041.569-.072 0-.041-.172-.458-.248-.496-.265-.078-.42-.003-.606.018zm4.443-1.71c.073.058-.172-.134-.248-.114-.21.058.131.664.114.74-.02.038.093.096.171.151 0 0 .665.303.781.23.187-.133.073-.474.093-.701.02.037-.36-.155-.34-.114.038.286.093.492-.02.513-.059 0-.342-.038-.38-.096a1.3 1.3 0 01-.171-.61zm-1.865-.361c.076.02-.358-.114-.434-.076-.172.096.74.722.723.798 0 .017.058.073.151.093 0 0 .816.19.895.093.15-.186-.135-.492-.172-.72.017.018-.362-.113-.344-.057.113.244.172.399.058.434-.038.02-.34.04-.379 0-.172-.184-.44-.373-.498-.566zm-1.952 3.344c.038.093-.04-.227 0-.227.203.025.409.01.606-.041.041-.018.117.058.155.154.038.172.378.988.207 1.177-.207.227-.627.038-.837.073.062.02-.151-.207.02-.265.248-.058.551 0 .59-.076.058-.131-.114-.647-.208-.682a1.16 1.16 0 00-.533-.113zm.207 1.652c.059.093.041-.248.076-.248.214-.04.433-.04.647 0 .206.058.285.248.303.361.038.379.038.361-.096.589-.152.265-.32.588-.534.664.041.02-.093-.341.02-.492.173-.228.269-.362.269-.437.093-.286-.096-.4-.19-.42a1.456 1.456 0 00-.495-.017zm-2.467-3.627c.113.058-.42-.172-.42-.23.018-.132.988.096.874-.132-.04-.058.172-.04.417.094.058.02.667.323.667.437 0 .151-.207.186-.533.207.075.02-.286-.02-.32-.114-.038-.172.626.038.532-.076 0 0-.323-.265-.533-.245-.171 0-.626-.055-.684.059zm-2.395 1.614c.02.058-.017-.172.114-.19.21-.058 2.091.723 1.937 1.043 0 0-.172.323-.379.571-.361.379-1.386-.647-1.917-.816.073.059-.075-.189.038-.171.475.037 1.538.626 1.71.702.152.037.265-.289.207-.344-.285-.3-1.194-.795-1.71-.795z" fill="#fff"/><path d="M27.536 17.764c.02.058-.059-.114.058-.152.19-.04 1.483.589 1.31.909 0 0-.209.437-.474.568-.192.099-.475-.548-.76-.757.073.04-.041-.455.073-.245.154.285.437.513.588.568.114.058.268-.19.23-.21a4.214 4.214 0 00-1.025-.681zm-.076.89c-.018.039.02-.133.114-.113.154.038.629.665.42.836 0 0-.266.286-.493.303-.155.02-.23-.492-.382-.72.038.06.19-.36.21-.189.055.245.113.207.245.493.04.076.075-.018.075-.117.02-.3.038-.227-.189-.492zm1.69-4.273c.04.02-.076-.075-.018-.13.076-.094.76-.19.795.04 0 0 .097.32 0 .492-.058.114-.454-.02-.681-.02.058 0-.19-.303-.058-.245.206.073.206.018.454.038.093 0 .038-.058-.038-.114-.207-.136-.131-.116-.454-.06zm-1.06 5.241c-.041.04.148-.303.227-.227.113.154.186.874-.438 1.404-.096.1-.608.154-.684-.114-.058-.189.076-.512.454-.909-.02.073.327-.302.228-.134-.144.25-.252.52-.32.799-.021.076.092.21.285-.076.207-.323.189-.268.247-.743zm1.345-1.08c-.038.058.21-.382.245-.269.096.382.285 1.617-.114 2.185-.13.172-.853.327-1.043-.017-.113-.187.059-.76.155-1.29 0 .095.32-.208.244-.039-.113.303-.189.723-.075 1.043.017.041.378.172.512-.113.172-.341.134-.968.076-1.5zm-1.29 4.692c.058.094-.23-.134-.286.073-.265.912-.076 2.127.457 2.963.172.245.988.548 1.329.131.247-.303-.02-1.174-.21-2.03 0 .02.058-.74 0-.93-.076-.206-.323.02-.344.038-.058.058-.058.76-.073.836-.058.723.475.93.266 1.824 0 0-.647 0-.836-.286-.458-.681-.38-1.803-.303-2.619z" fill="#fff"/><path d="M26.832 22.97c.114-.076.038-.569-.32.113-.574 1.043.434 1.917.492 2.945.02.286.496.74.796.248.268-.46-.265-1.142-.4-2.054 0 .038.19-.894.135-1.084-.038-.19-.266-.113-.286-.093-.035.038-.169.93-.19.988-.037.722.513 1.063.382 1.957 0 0-.227.131-.227-.21.018-.626-1.197-1.445-.382-2.81zm3.307.055c.058.096-.23-.131-.288.075-.266.874-.073 2.03.474 2.832.155.245.95.172 1.043-.21.172-.513.059-.795-.13-1.634 0 .038.072-.95 0-1.101-.077-.172-.269-.058-.29-.02-.037.037 0 .667-.037.911-.093.589.154 1.215.172 1.67 0 0-.455.265-.647-.021-.431-.64-.376-1.722-.297-2.502z" fill="#fff"/><path d="M31.788 22.703c.058.058-.228-.114-.303.058-.265.74-.073 1.748.474 2.43.155.189.76-.135.874-.42.19-.4.21-.533.02-1.177 0 .02-.38-1.119-.454-1.253-.075-.113-.189.059-.21.076-.037.038.23.76.269.93.113.492.227.681.134 1.1-.041.076-.382.42-.475.19a3.61 3.61 0 01-.33-1.934zm1.558 1.442c.038.093 0-.437.073-.341.63.76 1.39 1.652 1.672 2.526.073.206-.058.967-.437.987-.533 0-1.556-1.503-1.762-2.05-.062-.114.186-.269.227-.286.038-.02 1.174 1.84 1.462 1.896.018 0 .32-.361.187-.681-.227-.61-.965-1.577-1.422-2.051zm-.95 1.369c.02.073.228-.324.265-.248.572.967 1.218 1.67 1.39 2.543.073.324-.21.668-.533.702-.55.059-1.844-1.762-2.147-2.278-.058-.073-.017-.058.286-.207.017-.02 1.33 1.955 1.578 1.996 0 0 .586.038.455-.454-.172-.633-.857-1.58-1.294-2.054zm-1.596.947c.038.075.076-.303.172-.172.702.78 1.328 1.348 1.518 2.205.058.303-.038.548-.341.606-.55.058-2.089-1.67-2.372-2.182-.02-.058-.02-.076.303-.21 0 0 1.536 1.975 1.783 1.996 0 0 .475.038.265-.455-.265-.57-.874-1.314-1.328-1.788zm-2.278 1.424c.02.058.114.134.21.227.017.038.113-.075-.076.21-.058.058-.114.073-.227.073-.248 0-.516-.816-.455-1.253l.245.32c.02.021 0 .455.172.59 0 0 .02.02.076-.077.093-.183-.02-.07.055-.09zm.55-.816c.038.097.207-.189.286-.075.667.78.93 1.16 1.404 1.672.513.547.227.626-.058.533-1.195-.344-2.485-2.264-2.977-2.663 0 0 .186.02.454.038 0 0 1.996 2.106 2.243 2.147 0 0 .341.32.038-.076-.402-.474-.912-1.1-1.39-1.576zm6.383-.667c.056.076-.19.155-.075.344.434.664.987 2.089 1.08 2.753.114.723.362.571.458.303.547-1.422-.289-3.968-.798-4.48 0 0-.059.037-.207.171 0 0 1.235 1.786.929 3.665 0 0-.058.248-.19-.058-.288-.775-.838-2.144-1.197-2.698z" fill="#fff"/><path d="M34.41 28.153c.06.076-.266.117-.172.266.419.78.722 1.575 1.235 2.126.475.533.647.131.684-.114.245-1.482-.457-2.621-.894-3.306l-.21.248s1.046 1.273.836 2.77c0 0-.134.248-.303.058-.588-.626-.815-1.139-1.177-2.048zm-1.614.892c.058.058-.324.075-.207.21.547.646 1.194 1.634 1.803 2.068.548.42.702-.038.647-.245-.42-1.617-.589-1.672-1.122-2.488 0 0-.172.038-.268.21 0 0 .78.53 1.063 2.069 0 0-.072.247-.285.096-.682-.496-1.101-1.105-1.632-1.92z" fill="#fff"/><path d="M34.62 31.856c.075.058-.61-.34-.42-.113.55.626.853 1.255 1.424 1.71.627.492.702 0 .682-.248-.058-.664-.32-1.177-.836-1.955 0 0-.073.172-.172.341 0 0 .303.647.685 1.404.017.059-.096.207-.248.114-.548-.303-.623-.53-1.116-1.253zm1.307-.76c.041.058-.244-.076-.186.02.172.379.647 1.195 1.008 1.614.34.4.358.114.32-.113-.172-1.008-.36-1.177-.646-1.821 0 0-.094.038-.19.151 0 0 .248.227.589 1.308 0 0 0 .248-.114.117-.42-.498-.437-.65-.78-1.276zm-4.594-1.538c.076.058-.475-.059-.361.038.702.568 1.596 1.765 2.26 2.222.435.303.53-.113.473-.303-.114-.474-.455-.987-1.308-2.068 0 0-.21-.076-.286.096 0 0 .548.207 1.253 1.71 0 0-.058.286-.172.187a30.28 30.28 0 01-1.859-1.882zM32.737 22c.038.038-.093-.04-.093.038 0 .34.093.912.455 1.235.093.076.303-.02.378-.134.134-.172.268-.361.134-.647.076-.038-.32-1.101-.454-1.101-.076 0-.114.076-.038.303 0 .02.207.609.227.682.073.227.059.285-.02.454-.02.04-.093.134-.172.058-.245-.227-.472-.585-.417-.888zm1.008 1.136c.038.02-.134.34-.096.382.533.74 1.559 2.336 1.652 2.144.114-.172.134-.568-.038-.854.058-.04-1.197-2.205-1.31-2.185-.06 0-.135.19-.018.379.172.323 1.174 1.5 1.06 1.806 0 0-.113.093-.151.038-.204-.32-1.099-1.404-1.099-1.71zM28.77 21.03c-.059.058.189-.073.207.02.058.361-.018 1.256-.455 1.766-.134.151-.723.227-.95-.114-.172-.248.361-1.52.723-2.05 0 .092.19.15.02.398-.154.227-.553 1.119-.457 1.442 0 .02.378.21.53-.038a3 3 0 00.382-1.424zm1.462-.627c-.038.076.32-.113.32.02-.017.455.175 1.65-.302 2.317-.132.207-1.12.495-1.346.093-.134-.207.227-1.253.34-1.9.018.114.248-.247.207-.037-.093.495-.303 1.293-.19 1.672 0 .038.61.114.782-.19.189-.378.265-1.328.189-1.975zm.055-2.904c-.02.073-.02-.475.114-.268.475.743 1.043 1.786.836 2.336-.076.21-.798.816-1.084.437-.13-.21-.227-1.156-.265-1.9.038.135.058-.32.114-.092.114.434.227 1.156.399 1.538.02.017.454-.076.548-.42.078-.437-.338-1.139-.662-1.631zm4.959-2.205c.037.058-.493-.341-.286-.286.854.172 2.887.816 3.114 1.235.073.152.172 1.043-.285.97-.248-.04-1.9-.818-2.433-1.235.114.059-.172-.361 0-.268.362.172 1.9.988 2.261 1.084 0 0 .073-.4-.096-.63-.19-.3-1.707-.736-2.275-.87zm3.265 2.091c.02.073-.32-.55.059-.437.911.248 4.311 3.8 4.407 4.274.152.588-.475 1.043-.95.533-1.139-1.235-2.866-3.038-3.664-3.437.093.093-.059-.362.075-.551.152-.227 3.493 3.4 3.741 3.607 0 0 .379.113.303-.172-.076-.344-3.458-3.517-3.97-3.817zm-.34 1.594c0 .058-.172-.361.133-.286.723.19 3.019 2.753 3.019 3.039 0 .55-.778.798-1.064.57-.967-.78-1.84-1.73-2.45-2.033.041-.265-.058.341.041-.474.017-.207 2.278 2.013 2.43 2.147 0 0 .722.151.702-.303-.003-.213-2.395-2.413-2.812-2.66zm-.685 1.727c.02.059.058-.323.114-.303.722.172 2.03 1.804 2.03 2.09.02.55-.78.797-1.063.57-.947-.76-1.102-.874-1.728-1.16.114-.186.134-.15.19-.398.02-.172 1.407 1.063 1.578 1.197 0 0 .627.073.606-.361-.017-.21-1.348-1.442-1.727-1.635zm-.95 1.521c.02.058.076-.285.19-.248.702.286 1.194 1.157 1.214 1.425.02.548-.894.702-1.156.513-.93-.74-.382-.4-1.008-.682.093-.19.134-.096.19-.285.057-.172.835.512.987.643 0 0 .495.096.568-.303.044-.189-.603-.856-.985-1.063z" fill="#fff"/><path d="M39.69 15.541c.02.096.34-.42.42-.379 4.14 2.544 4.841 6.229 6.248 7.065.61.34-1.669.058-2.222-.361-1.442-1.101-3.473-4.387-5.565-5.375.114.134-.186-.475-.151-.475 3 1.084 5.09 5.11 5.905 5.585 0 0 .967.416.816.058-.682-1.637-3.895-5.736-5.45-6.118zm-4.026 1.235c.038.076-.207-.285-.076-.265 1.008.207 2.165.947 2.412 1.253.094.134.152 1.043-.285.988-.19-.018-1.197-.228-1.728-.665.114.059-.04-.075-.06-.402-.018-.113 1.29.723 1.616.63 0 0 .248-.362.093-.571-.204-.265-1.419-.799-1.972-.968zm.4 1.9c.02.058-.039-.289.04-.268.664.19 1.215.667 1.366.97.059.113-.038 1.101-.303.947-.568-.32-.702-.114-1.174-.548-.02-.172.018-.134.018-.4.02-.095.853.683 1.063.586 0 0 .172-.34.058-.547-.12-.248-.708-.568-1.069-.74zm-.817 2.488c.076 0-.151.189-.113.247.454.475.78.606 1.101.568.096 0 .702-.853.55-1.043-.058-.093-.302-.495-.987-.646.017.058-.134.437-.076.303.02-.041.61.113.682.474 0 0-.131.493-.32.513-.248.038-.513-.19-.837-.416zm-.911 1.252c.058-.02-.096.152-.076.19.42.457.533.742.836.684.058-.02.795-.743.682-.95-.02-.058-.152-.36-.781-.722.02.058-.187.42-.152.286 0-.018.569.134.665.474 0 0-.303.496-.472.534-.227.035-.382-.268-.702-.496zm-2.564-2.849c-.04.076.152-.227.227-.017.341.795.187 1.861-.058 2.45-.114.244-.78.909-1.046.285-.096-.21-.116-1.369-.017-2.088.017.113.227-.248.227-.041.038.42-.02 1.995.151 1.937.114-.038.4-.114.534-.533.134-.417.075-1.349-.018-1.993zm5.62 9.191c.134.02-.018.324.075.4.95.684 4.48 3.306 5.3 3.495.34.073 2.05-.457 1.404-.912-.21-.171-5.888-3.664-6.8-4.08.152.113-.02.247.134.34.379.268 6.476 3.874 6.322 3.95-.114.059-.627.455-1.122.286-.545-.193-4.667-2.946-5.313-3.479zm-.187 1.064c.114.02-.19.172-.076.265.74.629 3.324 2.866 3.989 3.059.227.058 1.555.096 1.139-.341-.152-.152-.627-.207-.245-.134.093.02-.609.247-.99.075-.458-.169-3.307-2.43-3.817-2.924zm-.44.667c.076.017-.379.017-.113.244.568.458 2.677 2.526 3.152 2.66.154.038 1.197.059 1.043-.075-.094-.094-.303-.152-.341-.19 0 0-.379.076-.647-.017-.303-.137-2.712-2.243-3.094-2.622z" fill="#fff"/><path d="M37.39 29.426c.077.018-.226.114.021.303.533.434 3.834 2.753 3.82 2.715-.041-.093.434 0 .34-.038-.265-.113-3.798-2.584-4.18-2.98zm-.398.758c.058.017-.187.037-.058.206.343.455 2.887 2.546 2.98 2.47.058-.037.361.021.285-.02-.204-.093-2.919-2.295-3.207-2.657zm-.018 1.159c.038.02.018.285.094.379.78 1.045 1.727 1.651 1.823 1.692.475.131.455-.058.42-.096-.647-.379-.361-.038-2.337-1.975zm.4-3.152c.075.02-.228.093.15.434.438.42 5.166 3.362 5.166 3.341-.02-.093.434-.113.361-.151-.227-.076-5.299-3.228-5.678-3.624zm-6.742-11.359c0 .076-.265-.475.02-.247.665.495 1.708 1.462 1.69 2.091-.02.286-.798.892-.836.644-.058-.285-.038-.21-.02-.323 0 0 .437-.172.437-.513-.02-.396-.836-1.27-1.29-1.652zm-3.152 4.274c.02.038 0-.227-.172-.058-.42.42-.836 1.025-.681 1.407.13.32.815.437.795.247-.02-.172-.02-.134-.055-.192 0 0-.4-.058-.455-.248-.099-.244.303-.85.568-1.156zm6.226 11.032c.058 0-.265.114-.114.286.268.303.609.74.877.97.151.113.454-.152.434-.227-.02-.134-.058-.172-.134-.19 0 0-.265.134-.361.038-.093-.154-.49-.553-.702-.877zm-1.463-12.856c-.058.076.058-.533.175-.19.227.8.626 2.262.093 2.699-.19.154-.34.247-.285.096.093-.21.058-.341.073-.362 0 0-.073.059.075-.154.23-.303-.014-1.5-.13-2.089z" fill="#fff"/><path d="M32.341 17.705c-.02-.037.018.19-.04.248-.059.058-.208-.02-.286-.248-.682-2.677-3.438-1.937-3.438-2.563 0-.627-.038-.988.155-1.37.055-.15.547-.186.929-.227.492-.037.017.382-.058.341-.134-.073-.533-.058-.589.134-.075.324-.21.667-.058.93.175.27 2.663-.149 3.385 2.755z" fill="#fff"/><path d="M34.011 16.891c.228-.038.496 1.652.475 2.223-.017.172-.894 1.672-1.386 1.917a2.25 2.25 0 010-.627c.434-.189.894-1.063.894-1.348-.02-1.177-.175-1.329-.475-2.09-.93-2.45-3.134-2.164-3.341-2.618-.286-.647-.02-.988.151-1.37.076-.133 4.501-.894 8.469 1.387.21.114.818.324 1.349.286.134 0-.796.78-1.387.932-.19.038-.836.303-1.37-.076 0 0-.15-.437-.13-.55.038-.131.568.058.434 0-.073-.018-.018.323.075.323.32.018 1.102-.19 1.102-.19-2.867-2.202-8.146-1.995-8.187-1.843-.13.378-.262.661-.034.874.21.207 2.622.113 3.361 2.77zm-7.577 1.69c.018-.058.038.21.207.172.533-.193 1.18-.533.743-.95-.04-.018-.516-.076-.589 0-.227.245-1.005.55-1.576.891.059-.037-.402.21.018.172.57-.058 1.937-1.156 1.917-.777-.018.186-.227.186-.72.492z" fill="#fff"/><path d="M31.863 16.017h.32l.114.227c-.113 0-.206.02-.34 0l-.094-.227zm.478-1.803l.533-.02.32.21c-.189 0-.302.017-.533 0l-.32-.19zm.093 3.114l.324.017.093.4a.688.688 0 01-.341-.018l-.076-.399zm.248 1.748l.285-.058.059.227c-.094 0-.059.172-.19.134l-.154-.303zm.95 1.917c.36.172.626.42.874.681-.02.19-.21.437-.437.63-.073-.117-.132-.289-.207-.402.058-.094.151-.094.227-.152-.134-.247-.361-.399-.626-.568.06-.06.117-.122.169-.19zm1.937 2.392c.399.133.74.55.947.836 0 .189-.207.34-.434.533-.571.909-.362.186-.362-.059.059-.113.268-.474.341-.533-.134-.227-.42-.399-.664-.57.058-.073.11-.15.172-.207zm-1.16-3.42c.289.174.571.323.874.436.059 0 .117 0 .155-.02-.21.437-.475.743-.796 1.063-.288-.206-.533-.378-.798-.626.059-.076.076-.152.155-.227.162.203.37.366.606.475.096-.134.172-.286.268-.42-.268-.134-.42-.34-.589-.495.067-.07.05-.108.125-.187zm.266-1.577c.34.041.568.289.894.23a.443.443 0 00.093-.151c.058.609.058 1.37-.093 1.518a1.626 1.626 0 01-.97-.207c.02-.134.096-.323.113-.437.178.125.391.192.61.19.017-.19 0-.42.037-.61-.303 0-.434-.151-.664-.206.038-.134-.04-.193-.02-.327zm-.382-1.803c.323.04.55.19.856.076.038-.038.038-.076.073-.134.175.588.402 1.331.402 1.73-.361.114-.722-.096-1.121-.19 0-.133.058-.323.038-.436.204.084.43.104.646.058a8.574 8.574 0 01-.093-.72c-.285.073-.454-.058-.685-.075 0-.137-.116-.175-.116-.309z" fill="#fff"/><path d="M31.068 13.66c.286-.173 1.366-.06 1.69-.074 0-.075.207.018.285-.113.513.34 1.122 1.043 1.387 1.346-.19.36-.647.058-1.043.13-.151-.206-.151-.171-.227-.264.248-.097.454.058.664-.041-.186-.114-.626-.513-.682-.702-.206-.038-1.538-.094-1.765-.038-.102-.11-.216-.131-.309-.245zm2.564 1.54c.32-.058.475.02.836-.038l.073-.154c.308.35.495.79.533 1.256-.32.113-.513.017-.895-.02-.037-.094-.072-.228-.113-.321.21.046.428.032.63-.041a28.758 28.758 0 01-.19-.434c-.248.017-.4.017-.627.038-.04-.097-.23-.193-.247-.286zm-9.136 6.552c-.038.035.093-.134-.02-.382-.018-.017-.114.268-.245.362-.702.894-2.071 1.177-2.68 2.584-.434 1.025-.455 2.164.04 3.207.569 1.235 2.998.723 4.233.723.362.02.134.605.134.815.114-.058.303-.42.324-.437.244-.626-.172-.816-.323-.795-2.127.268-3.362.172-3.875-.664-.74-1.233-.492-2.054-.058-2.678 1.046-1.465 1.349-1.124 2.47-2.735zm21.403.988c.059.419.324 1.043.513 1.576.109.24.173.497.19.76-.321 2.526-.021 6.82-.59 7.178 0-.131-.057-.285-.057-.417.075-2.05-.781-3.988-.95-5.963a1.592 1.592 0 00-.131-.53c-.382-.688-1.177-.65-1.71-3.175.093 0 .227-.286.265-.228.154.207.227 0 .247.245.152 1.879 1.084 2.05 1.556 2.829.058.093.227.361.21.667-.058.681.475 3.076.513 3.551.02.227.189.379.189.134-.076-1.538-.02-2.698-.058-3.933 0-.076.017-.323.017-.437 0-.454-.285-.891-.702-2.354l.498.096z" fill="#fff"/><path d="M44.627 25.627c.38 2.564.647 3.132.38 5.695-.039-.093-.132-.206-.132-.378-.04-1.804-1.104-3.21-1.425-5.11-.02-.076.059-.455-.227-.795-.437-.589-.874-.668-1.957-2.506.134-.096.454-.684.512-.154.21 1.369 1.35 1.73 1.865 2.432.058.059.093.548.113.816.073.664.647 2.223.703 2.677.017.19.227.286.186.038.04-1.555-.265-1.937-.548-3.111-.058-.292.51.204.53.396z" fill="#fff"/><path d="M42.918 25.228c.475 1.896.988 2.85.836 5.41-.04-.093-.134.076-.172-.361-.096-1.5-1.176-2.372-1.576-4.653-.06-.268-.21-.154-.381-.361-.682-.912-.795-.323-1.938-2.127.114-.093.059-.646.341-.227.912 1.37 1.236 1.215 1.748 1.882.041.038.23.134.382.32.495.63.434 1.958.909 2.736.096.151.247.285.21.038-.21-1.576-.42-1.29-.743-2.887-.053-.245.367.076.384.23z" fill="#fff"/><path d="M41.419 25.358c.454 1.37.475 1.37.682 3.266-.268-.073-.286-.114-.303-.245-.286-1.31-.668-1.404-1.14-2.391a5.145 5.145 0 00-.55-.458c-.682-.454-.909-.245-1.975-1.421.058-.076.113-.668.303-.362.513.91.588.668 1.08 1.026.038 0 .534.154.668.227.512.21 1.08 1.256 1.252 1.806 0 0 .248.093.114-.247-.454-1.102-.038-.534-.626-1.504-.079-.116.474.21.495.303z" fill="#fff"/><path d="M39.652 25.532c.568.97.605.93 1.025 2.374-.207-.02-.227-.076-.265-.134-.743-.95-.894-.93-1.331-1.67a1.545 1.545 0 00-.38-.323c-.588-.265-1.08-.189-2.07-.95.058-.072.227-.492.402-.285.512.647.74.455 1.156.667.018 0 .248.038.341.059.513.113 1.008 1.025 1.328 1.366 0 0 .19.017.059-.23-.513-.796-.038-.152-.606-.816-.076-.076.306-.116.34-.058zm5.185-2.756c.114.382.437 1.104.437 1.37-.303-.039-1.101-1.178-1.197-1.842-.058 0 .76.207.76.472zm-2.167-.472c.113.379.303 1.157.684 1.803-.288-.02-1.121-1.255-1.218-1.92-.055.003.458.041.534.117zm-1.708.379c.172.34.551.95.874 1.634-.471-.134-1.042-1.008-1.345-1.576-.059 0 .396-.114.471-.058zm-1.672.74c.059.303.362.629.895 1.177-.382-.038-1.142-.682-1.37-1.157.038-.02.4-.079.475-.02zm-1.576.78c.038.172.19.341.493.647-.228-.038-.74-.268-.854-.533 0-.02.326-.134.361-.114zm-6.948 5.506c0 .551.114.781.131.854.19.533.23.76.513 1.16.114.13.172.15.434.15.19-.02.114-.646.134-.987-.058-.02-.113-.096-.207-.134-.04.094.073.568-.058.781-.02-.02-.058 0-.076 0-.247-.134-.303-.4-.36-.454a3.359 3.359 0 01-.324-1.046c-.018 0-.224-.324-.187-.324zm-1.503 1.294c-.34-.041-1.005-.134-1.16-.134-.34-.02-.454-.02-.701.113-.094.059-.286.172-.038.303.058.152.987.114 1.386.248 0-.04-.017-.096.02-.154-.037-.059-.815-.187-.97-.207-.017 0-.113.02-.093-.114.02-.038.094-.058.134-.076.207 0 .816.038 1.177.21a.992.992 0 01.245-.19zm.02-1.215a1.888 1.888 0 00-.492.017c-.285.134-.151 0-.323.134-.079.056-.21.132-.192.53.058.248.78.173 1.177.38 0-.056.075-.056.113-.152-.035-.076-.778-.227-.93-.285-.075-.135-.037-.035-.017-.228 0-.04.059-.096.096-.134.207 0 .19-.038.627-.038-.003-.017-.038-.265-.058-.224zm-.151-.288a13.619 13.619 0 01-.609-.265c-.151-.134-.113-.076-.172-.19-.02-.058-.227-.399-.189-.492.227-.172.382.13.702.13-.017.018.04.097.02.173-.037.038-.113-.02-.227-.038-.247-.058-.154-.038-.096.151.017 0 .117.097.131.131.114.076.134.059.4.19 0 .02.02.23.04.21zm1.462.97c-.21.02-.533.247-.568.265-.457.323-.629.42-.911.798-.097.134-.172.492.075.513.059.172 1.387-.265 1.707-.341 0-.058-.058-.134-.096-.248-.113 0-1.1.382-1.29.324 0-.038-.058-.131-.038-.152.038-.265.207-.32.248-.379.265-.23.533-.36.873-.533 0-.02.038-.323 0-.247zm-1.482-2.03c0 .398.268.928.285.987.19.361.286.454.55.74.114.113.19.134.455.134.172-.02.058-.55.058-.798-.058-.018-.113-.097-.227-.132-.038.059.038.303.02.589-.04-.02.059.131-.133.038-.21-.093-.268-.248-.303-.286-.172-.23-.306-.705-.364-.97a1.878 1.878 0 01-.341-.303z" fill="#fff"/><path d="M31.525 30.96c-.058-.15-.058-.36-.058-.512-.076-.058-.155-.151-.21-.207v.265s.04.21.076.21c.023.076.172.265.192.245zm-1.631.531c.15-.073.681-.245.853-.265-.017-.114-.017-.114-.038-.19a.506.506 0 00-.399.097s-.19.093-.19.13c-.078.021-.247.213-.227.228zm-.059-1.002c-.778.093-.743-.213-.891-.227 0-.076-.038-.041-.02-.117.154-.017.36.117.495.117 0 0 0 .072.399.151.093.018.035.055.017.076zm-4.576-.836c-.059-.227-.038-.306-.038-.457.017-.304.454-.627.53-.61.038.094-.096.286-.018.627.018.114.248.114.152.326-.286.262-.606.262-.626.114zm.037 1.48c.155.073.19.113.303.13.21.042.42-.171.42-.226-.058-.059-.34.02-.437-.134-.038-.038-.245-.059-.4-.018-.247.152.018.21.114.248zm-.457.19a.977.977 0 00.21.133c.151.038.303-.113.32-.151-.058-.041-.268 0-.32-.114-.018-.04-.172-.058-.286-.058-.186.096 0 .151.076.19zm-.475.209c.096.073.114.073.172.113.134.038.268-.096.286-.133-.038-.02-.228 0-.265-.094-.02-.04-.152-.058-.248-.04-.172.078 0 .134.055.154zm.361-.988c-.303-.457.152-.629-.36-1.31 0-.266.058-.228.133-.321.114-.096.495-.117.627-.248-.094.19-.493.76.113 1.384.02.02-.017.248.041.705-.114-.038-.175.02-.248-.02a.838.838 0 01-.305-.19z" fill="#fff"/><path d="M24.783 31.059c-.02-.038 0-.155-.02-.172-.245-.19-.53-.455-.379-1.198-.151-.227-.134-.36-.21-.396-.13-.058-.302.303-.302.42.171.134.227.34.285.909 0 0 .058.134.285.437.114.058.228-.02.341 0zm-.55.227c-.018-.038.038-.114-.038-.248-.114-.189-.248-.303-.265-.833-.114-.19-.155-.288-.21-.303-.114-.058-.186.245-.186.341.13.114.681.778.227.702-.137-.02.169.19.262.286.114.055.114.055.21.055zm5.794-1.803a.836.836 0 01-.076-.382c-.058-.038-.134-.113-.21-.131v.19s.041.133.076.133c.018.076.17.207.21.19zM27.63 29.1c.155.096.248.114.248.4-.113.36-.588.57-1.136 1.176-.079.096-.248.02-.306.02-.21-.133-.454-.151-.513-.399 0-.02.038-.075.038-.096.207-.151.434.058.647.058l-.038-.323c-.04-.114-.268-.169-.495-.19a1.28 1.28 0 00-.533.382c-.093.134 0 .455.075.455.239.243.531.426.854.533.096 0 .303.114.588-.152.135-.378.988-.605 1.143-1.386.037-.172 0-.227-.02-.42a.911.911 0 00-.42-.34l-.131.282zm-8.069-5.09c.609.21 1.122.837 1.16 1.064.186.836-.496 1.69-.228 2.336.286.702 1.026.475 1.67 1.35.605.78-.059 1.083 1.1 1.616.059.073.135.187.19.303-1.043 0-1.235-.682-1.483-1.649-.262-.804-1.305-.556-1.8-1.506-.093-.93.379-1.442.323-2.202.038-.534-.932-1.084-1.104-1.102-.093 0 .154-.134.172-.21z" fill="#fff"/><path d="M19.106 24.527a1.171 1.171 0 01.816.816c.227.816-.606 1.614-.38 2.24.266.685.892.816 1.842 1.597.74.609-.134 2.619 2.374 2.185.073.093.265.244.32.36-2.408.796-2.618-1.313-2.886-2.28-.682-.627-1.442-.647-1.952-1.597-.248-1.33.492-1.482.437-2.243.038-.512-.379-.836-.55-.836-.1.003-.041-.186-.021-.242z" fill="#fff"/><path d="M19.274 23.86c-.207.247-.513.437-.4.967.044.09.077.186.097.285a2.198 2.198 0 01-.434-.093c-.02-.548-.248-.74.32-1.253.227-.075.303.018.417.094z" fill="#fff"/><path d="M18.63 23.654c-.189.244-.512.434-.378.967 0 .02.093.248.093.303-.114 0-.32-.076-.434-.114-.02-.55-.268-.74.3-1.252.23-.079.303.038.42.096z" fill="#fff"/><path d="M17.983 23.517c-.207.248-.53.437-.4.95 0 .017.094.245.094.303-.131.113-.32-.058-.434-.114-.134-.361-.32-.492-.286-.72.018-.133.38-.323.606-.532.213-.056.306.037.42.113zm15.935 10.255c-.154.02-.4.02-.55.134 0-.02-.132 1.043.133.95.114-.039.228.02.303-.114.094 0 .094-.61.207-.61 0-.057.382-.072.513-.072.23 0 .475-.21.475-.154.058 0 .21 0 .303.037-.265.19-.682.781-.967.781-.076 0-.341.19-.341.268 0 .227.207.533.379.74.134.058.512.076.74-.399.189-.076.815-.93.99-.93.058-.095.303-.113.513-.058.399.059.36.341.474.362 0 .172.114.358.647.416.892-.113.892.096 1.157-.512.361-.42.186-.4.113-.606a1.044 1.044 0 00-.512-.344c-.723.058-1.008-.114-1.16-.492 0 0-.207-.02-.358-.02.207.34.32.532.682.646.093.093.547.04.608.285-.116.42-.303.475-.343.475-.359.02-.4-.285-.513-.379-.093-.096-.76-.55-.78-.646 0 0-.187.378-.531.34-.175 0-1.063 1.064-1.276 1.236-.227-.02-.34-.096-.207-.172l.95-.95c.038-.134.017-.19-.02-.268-.041-.073-.114-.113-.228-.113-.451-.003-1.252.32-1.401.169zm-.839.21c-.03.311-.004.626.076.929-.134 0-.286-.02-.437.02-.172.058-.361.303-.152.533l-.075-.061c-.341-.093-.569-.548-.207-1.043.093-.172.664-.42.795-.379z" fill="#fff"/><path d="M33.805 35.178c.088.265.236.506.434.702-.227.155-.533.703-.038.819l-.265.038c-.344.073-.76-.248-.685-.816.02-.172.42-.702.554-.743zm5.523-.76a1.13 1.13 0 00-.399.647c.227.134.533.722.058.836l.268.038c.341.075.74-.265.682-.816-.02-.172-.475-.664-.609-.705z" fill="#fff"/><path d="M41.816 34.344v-.534l-.42.4-.134.247-.533.361-.207-.474-.058.626c0 .265-.247.78-.303.93-.247.567-.795.55-1.177.419l-.017.247c1.727.38 1.156-.95 1.955-1.462 0 0 .075-.114.113-.154.4-.286 1.122-.362 1.387-.228.076.059.134-.227.19-.227.002-.113-.665-.192-.796-.151z" fill="#fff"/><path d="M43.565 36.28l.588.059c-.268.113-.512.13-.78.244-.303.19-.303.344-.968.61l.455.38a14.39 14.39 0 00-.874-.154c-.382.437-2.185.114-2.165.172v.55c0 .094-.285-.55-.646-.666-.341-.134-.874-.172-.91-.059l.266-.378c1.386.093 2.03.512 3.493-.041.646-.248 1.215-.836 1.215-1.122.02-.058.23-.038.323-.113.137.06.137.402.003.518z" fill="#fff"/><path d="M41.188 36.546c-.265 0-.547-.093-.72-.038-.302.32.135.434.266.34l.454-.302zm.152-1.215c-.172.207-.437.34-.513.492.038.458.417.21.434.059l.079-.55zm.894.151c-.21.19-.475.303-.55.438-.02.434.381.227.42.093l.13-.53zm0 .985c-.227 0-.457-.073-.588-.038-.268.268.093.362.207.286l.381-.248zm-23.323-3.17c-.227.039-.3-.095-.513-.095.114.437.268.55.589.454.248.268.227.42.816.816a6.14 6.14 0 01-.53.27c.247.172.684.19.873.059.096.172.4.32.702.399.155.052-.416.451-.34.472.36.038.588-.058.74-.361.058 0 1.176.154 1.176.154.059-.117 0-.154.059-.382-1.407-.227-1.026.135-2.26-.702-.534-.34-.875-1.043-.875-1.29 0-.265.836-1.081 1.064-1.122.343-.096.629.152 1.121.475.437.286.932 1.311 1.063 1.824l.303-.227c-.113-.42-.13-.592-.189-.726-.076-.134.323-.399.116-.987l-.381.498c-.265-.402-.74-.801-1.387-1.18.038-.303-.154-.55-.588-.798l.058.742c-.74-.058-1.844 1.556-1.617 1.708z" fill="#fff"/><path d="M21.46 34.19c.264.076.547.04.701.134.23.382-.227.399-.34.285l-.362-.42zm.058-1.328c.134.247.36.436.378.608-.13.434-.434.093-.434-.058l.056-.55zm-.933-.321c.134.207.38.4.42.548-.076.42-.42.134-.42-.018v-.53zm-.265 1.06c.21.097.458.134.55.23.114.341-.247.266-.302.172l-.248-.402zm8.166 3.82c-.169.21-.096.151-.323.265.285.058.533 0 .815-.23.382.058.933.04 1.218.096.038.206-.04.227-.134.434.34-.038.606-.152.682-.4.207.097.702.041 1.028-.113.172-.076.018.495.058.455.32-.228.513-.266.434-.665.038-.014.571-.128.571-.128-.017-.134.076-.265-.017-.513-1.445.682-2.013.569-3.228.455-.265-.02-1.122-.19-1.387-.341-.533-.323-.154-1.634 0-1.824.245-.323.417-.568 1.35-.533.588.02 1.706.667 2.202 1.026l.093-.417c-.4-.285-.533-.437-.664-.495-.155-.058 0-.589-.61-.95 0 .227.021.458.021.685-.268-.076-.76-.248-1.008-.227-.058-.303-.588-.516-.874-.551 0 0 .227.513.114.533-.131.02-.341.172-.455.19-.323-.114-.303-.23-.856-.132l.42.548c-.551.55-.816 2.66.55 2.832z" fill="#fff"/><path d="M30.48 35.732c.286.02.589-.059.76 0 .286.34-.171.434-.302.34l-.458-.34zm1.253.262c.285-.058.568-.207.74-.207.382.265-.038.495-.187.437l-.553-.23zM29.985 34.8c.268.113.588.134.723.247.171.455-.303.379-.4.245l-.323-.492zm-1.101.626c.285-.058.588-.207.76-.19.4.269-.038.496-.21.42l-.55-.23zm.646 1.063c.266-.058.534-.227.682-.207.382.228-.017.434-.172.4l-.51-.193zM23 35.94c-.06.288-.19.533-.496.474.323.341.568.059.836-.171.32.113.664.303 1.366.381-.093.152-.172.32-.285.492.399-.017.722-.227.722-.399.227.172 2.089-.227 2.01-.36-.037-.074.02-.152-.037-.38-1.35.38-1.008.4-2.47.303-.586-.037-1.25-.512-1.364-.74-.134-.227.227-1.366.399-1.48.247-.227.909-.095.874-.189 0 0 .093-.399.038-.381-.172.058-.362.04-.647.04-.114-.285-.131-.326-.626-.326.151.154.189.326.285.475-.684.306-.874 2.243-.606 2.26z" fill="#fff"/><path d="M26.32 35.447c.266-.02.549-.155.723-.135.341.286-.096.455-.23.382l-.492-.248zm.193-1.274c.265.094.988.548.988.76-.041.059-.117.19-.213.19a1.746 1.746 0 00-.854-.588l.08-.362zm-2.604.72c.265-.035.533-.149.681-.128.344.285-.073.434-.206.379l-.475-.251zm.836.856c.227.018.475-.037.588.018.248.285-.134.344-.23.268l-.358-.286zm.74-2.278l.038-.247c-.42-.076-.685.151-.665.72.018.55.094.818.42.99.34.172.76.038.947-.723.189-.74-.172-.929-.682-.987l-.058.247c.172.038.323.32.265.606-.058.286-.265.554-.437.513-.17-.038-.248-.34-.19-.626.041-.265.21-.475.362-.493zm-.665-.856a.463.463 0 01.475-.172.727.727 0 01.041.588c-.058 0-.113.02-.172.038a.735.735 0 01-.344-.454zm.778-.227c.172-.094.341-.076.533.038a.78.78 0 01-.189.55c-.058-.02-.114-.02-.19-.02a.961.961 0 01-.154-.568zm.723.21c.19-.021.34.072.454.264a.904.904 0 01-.437.4.97.97 0 00-.151-.114.93.93 0 01.134-.55zm17.564 1.86l.302-.226c-.206-.21-.681-.172-1.042.072-.42.286-.627.743-.438 1.008.175.248.685.286 1.105 0 .434-.265.568-.815.378-1.08l-.285.227c.096.151 0 .475-.248.626-.244.172-.588.172-.702.02-.093-.171.058-.436.303-.588.23-.154.513-.172.627-.058zm.192-1.29c.172 0 .303.094.399.248-.114.186-.227.303-.4.358-.057-.038-.093-.058-.133-.093a.729.729 0 01.134-.513zm.55.417c.172.017.286.131.362.32a.717.717 0 01-.475.268.32.32 0 00-.114-.113c.038-.19.093-.361.227-.475zm.571.647c.114.13.134.285.038.474a.693.693 0 01-.512-.116v-.152a.634.634 0 01.474-.206zm.149-1.177a.88.88 0 00-.4.303.659.659 0 00.269.285.903.903 0 00.34-.303c.152.114.38-.058.455-.21.093-.171.058-.399-.134-.492-.172-.093-.399-.038-.475.134a.519.519 0 00-.055.283zm-26.662-2.529l-.172-.19c.341-.302.723-.285 1.008.21.268.475.341.74.134 1.081-.227.344-.684.475-1.255-.035-.568-.533-.341-.914.096-1.273l.19.187c-.152.137-.114.477.075.687.21.207.554.3.685.172.134-.134.04-.437-.152-.647-.19-.192-.454-.285-.609-.192zm.437-1.232c-.151-.096-.323-.079-.51.035 0 .23.059.402.207.55.059-.02.114-.02.172-.02a.749.749 0 00.131-.565zm-.853.19c-.19-.021-.344.075-.458.247a.753.753 0 00.42.416c.058-.037.096-.072.151-.093a.972.972 0 00-.113-.57zm-.816.474a.49.49 0 00-.21.475.834.834 0 00.589.093l.058-.172a.816.816 0 00-.437-.396zm.245-1.177c.154.093.227.227.306.4a.605.605 0 01-.306.206.81.81 0 01-.265-.358c-.19.055-.362-.155-.4-.327-.037-.189.059-.396.248-.454a.396.396 0 01.437.248c.018.093.038.206-.02.285zm16.637 8.754c-.154.268-.4.475-.437.667.114.475.475.114.475-.058l-.038-.609zm1.422-1.252c-.265.151-.606.206-.74.32-.152.495.34.382.437.227l.303-.547zm1.617-1.064c-.324.059-.685 0-.875.073-.323.457.248.516.38.382l.495-.455zm-.19 1.177c-.323 0-.667-.134-.853-.076-.403.362.13.533.302.434l.551-.358zm-1.101-1.349c-.227.152-.513.228-.626.359-.097.474.32.323.399.175l.227-.534zm.664-.53c-.175.02-.361-.04-.457 0-.207.227.075.286.154.227l.303-.227z" fill="#fff"/><path d="M33.5 36.984l-.4-.382c-.34.875-.19 1.996.02 3.077.455.02 1.288-.018 1.918-.073-.059-1.634.605-1.617 1.727-1.937.227.058 1.273.076 1.256.076-.041-.076-.286-.21-.341-.382-.059-.227.434-.455.53-.533a1.456 1.456 0 00.588-1.538c-.017-.018-.038-.038-.038-.073-.133.073-.34.093-.492.186.152.647.073.857-1.121 1.637-.382.245-1.559.606-1.824.76-.626.342-.609.796-.667 1.48 0 .041-1.273 0-1.273-.037.003-.895-.359-1.463.116-2.26zm-3.72 2.602c-.173-.038-.362-.286-.345-.513.018-.248.245-.324.4-.268.13.058.285.058.247.268 0 .093.265.076.265-.02a.504.504 0 00-.475-.589c-.303-.017-.681.058-.76.475-.016.229.044.456.172.647-.152.894-.134 1.214.227 1.937-.093.113 0-.02-.058.134-.058.151-.114.434-.018.647.21.42.571.42.854.32.303-.093.437-.475.34-.795-.058-.172-.32-.096-.264.073.073.189-.041.303-.172.381-.155.093-.382.076-.458-.172-.058-.247.114-.454.248-.55-.262-.344-.565-1.407-.204-1.975z" fill="#fff"/><path d="M36.331 39.377c.151-.076.265-.402.227-.61-.058-.227-.303-.247-.437-.189-.13.076-.247.19-.19.362.042.172-.32.227-.378.058-.093-.303.19-.664.475-.723.285-.072.76 0 .894.362.059.189 0 .608-.171.667.303.816.32 1.043.072 1.765.134.093.076 0 .155.114.073.13.186.399.113.606-.113.42-.474.475-.78.437-.306-.038-.513-.361-.475-.682.038-.172.303-.154.285.018-.038.189.096.227.248.285.151.058.303-.017.32-.265a.486.486 0 00-.285-.495c.21-.365.361-1.239-.073-1.71zm-3.726-.46c-.647-.074-1.366 0-1.995.113.02-.073-.073-.207-.018-.4.626-.13 1.349-.15 1.996-.113.002.079.017.326.017.4zm-1.783 3.344c1.253.742 4.405.247 4.993-.059-.017.076.362.076.289.268-.743.665-5.13.682-5.433.266.017-.08.13-.4.151-.475z" fill="#fff"/><path d="M31.47 39.378c1.194 1.252.702 1.955 1.861 2.997-.093 0-.227-.017-.303.02-1.252-1.197-.929-2.088-2.071-3.113.093-.038.434-.096.513.096zm1.002-.134c1.063 1.177.684 2.03 1.824 3.094-.094 0-.245.093-.4-.114-1.156-1.235-.815-1.996-1.937-3.018.1-.04.286-.04.513.038zm1.41.815c.434.266.245 1.291 1.308 2.185-.076 0-.172.059-.286-.075-.967-.796-.681-1.157-1.386-2.127a.591.591 0 01.364.017zm5.885 1.008l-.038.341c.416 0 .626-.134.681-.647.038-.419-.154-.702-.495-.74-.32-.058-.647.018-.74.472-.113.438.19.857.55.912l.039-.323c-.152-.058-.286-.207-.268-.472 0-.248.23-.323.381-.248.172.059.286.172.227.4-.052.206-.145.305-.337.305zm2.13-2.776c-.551-.134-.95-.172-1.522.058-.416.303-.244.76.117.874.626.172.947.134 1.556-.399-.362-.038-.912-.038-1.256-.113.02.02-.114.206.02.34-.093-.02-.189.041-.247-.093-.303-.743.856-.475 1.404-.42a1.395 1.395 0 00-.073-.247zm-4.563.874c.816-.058 1.71-.227 2.47-.454 0 .075 0 .134.02.189-.76.265-1.689.454-2.505.548 0-.07.015-.204.015-.283zm.248 2.433a5.44 5.44 0 011.39-.533v-.228a3.306 3.306 0 00-1.484.359c.02.06.08.346.094.402z" fill="#fff"/><path d="M38.97 40.248c-.837-.096.358-.667 1.1-.912a.726.726 0 01-.095-.172c-1.026.21-2.733 1.122-1.043 1.349.055.058-.003-.32.038-.265zm-13.427 1.748c.474-.324.836-.496 1.462-.455.475.152.475.682.152.91-.513.398-.834.454-1.594.133.32-.154.854-.361 1.157-.55-.02.04.172.189.093.34.076-.017.19 0 .21-.172.038-.853-.97-.171-1.463.076-.017-.017-.017-.244-.017-.282zm1.156-3.968l-.058.34c.42 0 .647-.133.685-.646.058-.42-.155-.702-.475-.76-.341-.038-.647.038-.76.474-.097.455.206.874.547.93l.061-.338c-.151-.04-.285-.21-.285-.455a.298.298 0 01.399-.268c.154.076.285.19.23.42-.058.204-.154.303-.344.303zm-2.829 2.619l-.04.34c.42 0 .629-.133.684-.646.038-.42-.154-.702-.495-.76-.32-.038-.647.037-.76.474-.093.455.21.874.568.93l.043-.338c-.154-.038-.285-.19-.268-.455 0-.247.228-.323.382-.247.172.058.286.172.227.399-.055.21-.151.303-.34.303zm-2.45-3.38c.571-.02.97.038 1.466.4.34.378.073.795-.303.815-.667.038-.95-.093-1.425-.74.341.038.895.172 1.256.172-.04.018.038.227-.096.32.075.021.172.097.247-.02.475-.664-.722-.664-1.273-.74a1.05 1.05 0 01.128-.206zm5.262 1.367c.093.57-2.753-.854-3.307-.74-.058.076 0 .172 0 .227 1.043.076 3.552 1.652 3.59.589.002-.076-.283 0-.283-.076zm2.068.684c-.475-.21-1.063-.702-1.422-.97-.058.041-.058.114-.113.155.093.454.947 1.025 1.555 1.08.059-.037-.058-.227-.02-.264zm.21 2.998a1.47 1.47 0 00-1.311-.207c-.02-.058-.038-.21-.058-.268a1.165 1.165 0 011.386.134c.02.076-.017.286-.017.341zm-4.37-2.77c.19-.341-.548-.702-1.422-.95l.131-.19c1.029.21 2.433 1.009 1.445 1.405-.04.055-.113-.32-.154-.265zm2.756 1.882c1.122-.781-1.67-1.122-2.45-1.064.02-.058-.02-.172-.02-.227 1.104-.19 4.084.34 2.697 1.48-.038.055-.19-.248-.227-.19zm5.072 2.086c.172-.02.303-.02.475-.02-.076.532.017 1.1.172 1.65-.134 0-.324-.037-.437-.02a5.4 5.4 0 01-.21-1.61zm0 1.727c.13.248.207.268.454.285-.588.42-1.748.97-1.861 1.807-.131-.134-.152-.362-.303-.496.151-.608 1.101-1.063 1.71-1.596zm1.252.114c.114.096.134.04.42.058-.382.609-1.425 1.276-1.67 2.013-.133-.134-.116-.361-.247-.495.128-.627.906-1.043 1.497-1.576zm2.83.97c-.042.151-.438.038-.342.303-.702-.114-1.177-.76-1.937-.702.058-.19.114-.248.172-.42.626-.11 1.384.478 2.106.819zm-.417-1.27c-.041.151-.341-.02-.248.244-.723-.093-.647-.475-1.404-.42.058-.186.154-.244.21-.433.623-.093.72.265 1.442.608zm-5.416.227c.061.151.382-.041.303.227.702-.172.533-.571 1.31-.589-.095-.171.018-.247-.057-.419-.624-.055-.851.361-1.556.78zm5.89.093c0 .093-.075.058-.04.268-.245-.096-.265-.134-.53-.096.017-.134 0-.172.017-.303.134-.096.268-.117.553.131zm-6.4.306c.02.134.096.076.076.303.265-.114.285-.172.588-.155-.04-.171 0-.186-.04-.34-.17-.094-.32-.114-.624.192zm5.09 1.27c-.059.154-.434 0-.341.268-.723-.114-.647-.57-1.425-.516.076-.186.268-.172.323-.34.624-.114.72.247 1.442.588zM34.2 43.513c-.172-.02-.32-.02-.495-.02.075.533 0 1.101-.172 1.652.134 0 .323-.038.457-.02.154-.51.21-1.04.21-1.611zm-2.072.08c.02.15.041.171.059.32-.568-.02-1.763.667-2.09.987-.16-.3-.339-.592-.532-.874l-.152.382-.644-.02-.95-.91.21.947-.416.02-1.29-.853.433.795-.568.038-1.31-.533.381.516-1.142.34 2.147-.095-.57.894 1.004-.682 1.084-.04-.667 1.103 1.101-1.104.836-.038-.265.93.874-1.122.227-.073.19.359-1.329 1.255-.379.038.341-1.005-.454.073-.895 1.008-.626-.038-.096-.34.647-.761-.568.114-.895.568-.702-.035.647-.819-.909.061-.1.187-1.231-.073.113-.42.967-.533-.168-.323.55-.227 1.308.474-.568-.815.795-.038 1.084.795-.227-1.08.588-.021.93 1.08.23-.471.475.093.547.4c.478-.208 1.407-.38 1.975-.435zm-7.897-.115l-1.273-.95-.114-1.065-.379-.076-.134.454-.21-.3-.093-1.121-.76-.589-.093 1.122-.382-.495-.076-1.198-.55-.361-.093.839-.668-.763-.265.285.21.513.114.192-.836.093-.21.286.588.131.74.591-1.29-.04.475.533 1.5.303.172.306-1.367.303.837.626 1.363-.192.04.46 1.842-.175-.42-.285-1.08.058v-.4l-1.483.193-.227-.154.894-.19.265-.282-.722-.63-1.12-.151h.948l-.093-.588-1.044-.455.49-.079-.015-.474.569.78.171-.912.094 1.215.873.933.097-1.276.265.419.076 1.218.474.399.306-.554.073.76 1.349.97.172-.227z" fill="#fff"/><path d="M24.497 43.366c-.172-.324-.323-.685-.058-.932.038-.073.058-.152-.038-.286-.248.02-.437 0-.798.19-.131.093-.19.285-.038.36.495.135.57.627.932.668zm-.664.547c-.34.02-.74.059-.816.42-.058.076-.113.134-.265.114-.113-.207-.227-.382-.227-.781 0-.172.131-.32.285-.227.359.381.813.189 1.023.474zm0-1.823a.291.291 0 00.286-.286.293.293 0 00-.286-.303.3.3 0 00-.278.416.29.29 0 00.278.173zm-1.92 2.164c-.093-.13-.038-.32.093-.399.155-.076.324-.038.402.114.094.134.038.303-.096.399a.298.298 0 01-.399-.114zm-3.17-4.993c-.058-.344-.093-.743.248-.874.058-.076.096-.154.058-.303-.227-.058-.419-.134-.815-.058-.152.038-.265.207-.152.32.431.289.338.784.662.915zm-.492.685c-.34-.096-.743-.172-.912.151-.072.058-.151.076-.285.02-.058-.227-.114-.419 0-.815.076-.152.248-.248.34-.114.248.452.744.417.857.758zm.455-2.64c-.152-.058-.324.038-.379.19a.278.278 0 00.19.36c.154.06.323-.02.36-.171a.294.294 0 00-.171-.379zm-2.412 2.372a.312.312 0 01.227-.341.29.29 0 01.361.227.315.315 0 01-.227.344.29.29 0 01-.361-.23z" fill="#fff"/><path d="M18.97 39.831l-.058-.34-.358-.041-.798-.988.134-1.69-.286-.305-.454.608.072-1.916-.588-.134-.379 1.083-.227-.13v-1.201l-.344-.131-.244.757-.572-.661-.265.076.134.207-.684.058.492.588-.93.094.362.515 1.194.265.344.248-1.235-.04.152.57.74.248.798.13.306.228-.801.02.02.248.722.361 1.539.589-.341-.513-1.16-.437.61-.076-.438-.608-1.596-.438 1.31-.017-.666-.74-1.195-.306.892.058-.548-.74.434.19-.114-.344.513.609.285-.513.018.953.702.547.42-1.328-.059 1.652.134.55.589-.533-.152 1.463.382.609.588.553.606.093zm-3.723-5.564c.079-.344.193-.722.571-.722.076-.059.134-.114.134-.265-.192-.134-.323-.286-.722-.362-.172 0-.341.094-.265.248.303.434.035.854.282 1.101zm-1.005.303c-.265-.227-.588-.475-.891-.248-.096 0-.172 0-.268-.134.058-.227.096-.419.381-.719.114-.114.32-.114.341.058.018.513.492.682.437 1.043zm1.672-2.147a.298.298 0 00-.46.14.282.282 0 00.1.317c.113.094.302.094.398-.04.114-.131.093-.3-.038-.417zm-3.306 1.063a.282.282 0 01.34-.206.306.306 0 01.23.36c-.037.152-.209.245-.36.208-.152-.038-.248-.19-.21-.362z" fill="#fff"/><path d="M14.886 34.533l-.51-1.404.248-.516-.02-.303-.362.058.758-.664.02-.722-.93.34.208-.32.836-.798.078-.63-.97.496.114-.341.454-.495-.171-.627-.321.114-.42.42-.13-.44-.478.326-.015 1.235-.63-.667-.226.74.664 1.177-.892-.227.076.667.513.169.53.378-.076.327.836.606.02-.379-.553-.326.172-.341-1.005-.606.798.151-.02-.475-.74-1.235.722.665.132-1.745.21.416.626-.379-.568.778-.02.664.78-.399-.894.97.134.493.795-.134-.723.646.097.475h.343l-.285.382v.379l.533 1.1h.262zm19.562 9.077c.589-.017 1.783.341 2.299.569.72.21 2.371-1.367 4.9-1.518l.017.04c-.058-.058.155.02.19.059-1.387.076-2.145 1.08-4.195 1.555-.114.155.037.096.093.155 1.538.227 2.298-.798 3.895-1.425.038 0 .247-.113.533-.02-.685.647-2.736 1.937-4.37 1.958-.548-.02-2.564-.95-3.4-.988 0-.137 0-.157.038-.385z" fill="#fff"/><path d="M40.811 41.997c-.093-.096-.32-.134-.475-.134-.547.096-1.042.399-1.517.513-.796.189-1.157.78-1.938 1.331-.206 0-.378-.04-.606-.04 0 .133.187.209.207.247.207.113.495.172.682.038a12.878 12.878 0 013.912-1.536 1.43 1.43 0 00-.285-.096c-.152-.13-.967.114-2.998.988 0-.018.038-.038.018-.058.608-.359.646-.589 1.121-.665.568-.096 1.404-.608 1.88-.588zm1.084 2.202c-.117-.093-.23-.189-.382-.206-.722.133-.95.681-2.543 1.063-.076 0-.303.151-.55.172-.269.017-.61.017-.723.017-.017.134.096.155.285.286.21.096.303.116.438.154 1.386.4 2.79-.93 4.14-1.215-.094-.04-.19-.075-.286-.113-.816-.155-2.718 1.29-3.193 1.043 0-.041-.187-.097.04-.134.61-.08 1.69-.933 2.774-1.067zm1.442-1.366a1.168 1.168 0 00-.455-.19.583.583 0 00-.113.362c.127.083.268.141.416.172-.017.19.23.303.42.303.19-.02.361-.155.361-.361 0-.19-.172-.362-.34-.362-.1 0-.23.02-.289.076zm-1.39-1.52a1.12 1.12 0 00.02.495c.059.02.059.172.114.172.056 0 .19-.19.268-.228.038-.151 0-.285-.04-.437.172-.073.172-.34.075-.512-.075-.152-.285-.266-.474-.172-.172.096-.248.323-.152.474.04.076.096.19.19.207zm.248 1.1c.248-.533.475-.684 1.084-.894 1.538-2.185 2.316-2.316 3.437-3.627.038.42-.151.495-.19.55-.663.875-1.12.548-2.618 2.658-.02.206.096.075.172.093 1.442-1.174 2.432-2.03 2.945-3.056.114.303.076.647-.34 1.157-.668.815-1.35 1.31-2.3 2.088-.454.455-1.881.63-1.823 1.256-.175-.015-.195-.093-.367-.224zm3.038-4.859c-.512.836-1.121 1.195-1.348 1.35-.968.701-.53 1.479-.778 2.315.227-.134.093-.32.42-.454.832-1.215.626-.816 1.462-1.69.13-.134.34-.78.13-.647-1.386 1.748-1.555 1.71-1.575 1.897-.018-.038-.286.19-.073-.152.114-.967.626-1.043.682-1.1.55-.438.626-.61.929-.913.172-.151.151-.55.151-.606zm2.13 1.611c-.722 1.008-2.185 2.165-2.45 2.337-.076.04-.093.113-.227.189-.19.151-.723.285-.836.34.038.114.323.06.55.114.227.02.286 0 .434-.017.513.151 1.043-.23 1.635-.722A6.89 6.89 0 0047.704 40a1.71 1.71 0 00.058-.533c-.78 1.29-1.652 1.67-2.336 2.258-.152.076-.434.02-.152-.172 1.157-.76 1.29-1.025 1.917-1.896.058-.073.093-.414.172-.493zm1.197-1.442a1.066 1.066 0 00-.495.02.646.646 0 00.038.38c.152.032.31.025.457-.021.059.172.32.172.493.096a.367.367 0 00.189-.475c-.076-.172-.303-.268-.475-.172a.373.373 0 00-.207.172zm-2.147-.891a.869.869 0 00.248.437c.038-.02.114.13.151.113.076-.04.114-.247.172-.323a1.262 1.262 0 00-.227-.379c.134-.134.02-.381-.131-.495-.154-.114-.382-.114-.516.04-.113.152-.093.38.059.493a.416.416 0 00.244.114zm.758 1.156c.02-.588.172-.815.647-1.235.302-2.715 1.462-4.177 1.69-4.177-.796 1.235-.06.664-1.195 3.076-.19.609.186.323.247.303.606-.722 1.005-2.543 1.35-3.988.226.21.32.78.15 1.39-.285 1.025-.419 2.144-1.272 2.828-.248.609-1.504 1.328-1.198 1.882-.172.035-.227-.023-.42-.079z" fill="#fff"/><path d="M48.179 32.461c-.74 1.235-1.67 2.602-.609 3.933.175-.19.096-.323.058-.76.571-1.311 1.084-3.08 1.029-3.001-.43.831-.812 1.688-1.142 2.564-.018-.02-.265.42-.172.037.058-1.273.722-1.748.836-2.773zm2.677.723c-.947.474-.492 1.197-1.556 2.81-.21.21-.512.668-.74.913.073.093.32-.076.548-.114.21-.093.627-.34.76-.42.496-.681 1.37-2.391 1.215-3.114-.434 1.483-1.063 2.584-1.215 2.718-.605.379-.681.627-.227-.096.74-1.177.682-2.05 1.215-2.697zm.02-1.821a.958.958 0 00-.454.172.438.438 0 00.152.34.894.894 0 00.419-.171c.114.171.379.075.513-.059s.154-.36.02-.495a.36.36 0 00-.495-.038c-.079.059-.154.172-.154.25zm-2.07-.155a.754.754 0 00.36.341c.038-.017.155.076.19.059.038-.059.02-.286.038-.359-.073-.134-.19-.21-.341-.303.093-.151-.093-.361-.265-.42-.19-.058-.402.021-.475.207-.058.172.038.403.207.458.078.017.192.055.285.017zm.797.571c.207-.664.152-.853.32-1.33-.532-2.372.135-4.275.362-4.33.265 1.235-.55 1.92-.227 3.135 0 .568.303.378.42.227-.076-3.152.285-1.256.133-3.38.569.152.341 3.19-.02 3.686-.04.588-.667.816-.682 1.896-.154.096-.096.076-.306.096zm-.95-5.377c-.057 2.563-.454 2.184.895 3.723.114-.19.017-.382-.114-.76-.247-.95.073-1.917-.302-2.165.151.702-.059 1.025.037 1.995-.02-.02-.189.245-.189-.113-.42-1.084.035-1.349-.326-2.68z" fill="#fff"/><path d="M51.444 26.784c-.32.795-.114 1.31-.475 2.963-.093.075-.606.836-.512 1.197.134-.268.323-.55.55-.667.187-.134.513-.248.627-.32.512-.76.434-2.622.093-3.21.172 2.067-.152 2.638-.265 2.79-.475.475-.248.207-.19.038.42-1.195.25-2.106.172-2.791zM11.947 25.76l.988.055v.041l-.42.017a.845.845 0 00-.285.117.39.39 0 00-.21.245 1.31 1.31 0 00-.058.42l-.035.395v.02l1.252.076.018-.21v-.186c.02-.075-.018-.134-.093-.172a.607.607 0 00-.228-.096l-.268-.058v-.035l1.329.093v.02l-.227.018h-.114s-.038.018-.093.018c-.038.02-.094.038-.134.078a.213.213 0 00-.059.152l-.035.399 1.483.076v-.117l.018-.151v-.111c.02-.286-.018-.495-.114-.609a1.128 1.128 0 00-.25-.227c-.035-.02-.073-.038-.094-.058-.02 0-.058-.02-.093-.038l-.23-.038-.245-.058.018-.02 1.121.058-.078 1.52-.056.664h-.058l.04-.42-.02-.017-.037-.017-2.753-.172a3.045 3.045 0 00-.059.34v.094h-.035l.114-2.106zm.32-1.5a.775.775 0 01.303-.248c-.034-.114-.13-.207-.247-.303l.323.038.723.134a3.85 3.85 0 00-.455.058c-.096.018-.192.035-.306.093a.935.935 0 00-.285.248.674.674 0 00-.149.34.496.496 0 00.018.286.416.416 0 00.172.286c.113.058.171.075.227.096a.4.4 0 00.245-.096 1.97 1.97 0 00.323-.361l.379-.493a.956.956 0 01.381-.361.722.722 0 01.493-.058l.113.02c.268.073.42.207.475.396.076.19.096.341.076.455a.952.952 0 01-.172.42c-.093.078-.166.15-.207.171l-.116.076c.043.058.078.113.157.19l.172.154-1.16-.193v-.038c.247.007.492-.039.72-.134a.728.728 0 00.437-.323c.055-.102.1-.21.134-.32a.553.553 0 00-.114-.475.509.509 0 00-.361-.23.295.295 0 00-.248.058 1.988 1.988 0 00-.285.285l-.382.496a1.51 1.51 0 01-.42.42.687.687 0 01-.468.072 1.287 1.287 0 01-.437-.172c-.152-.093-.23-.306-.21-.588a.96.96 0 01.152-.4zm1.938-2.925h.02v.02h-.02c-.228-.04-.4-.058-.495-.076h-.245c-.059 0-.134.018-.23.035a.527.527 0 00-.207.134.545.545 0 00-.134.213l-.059.172.816.265 1.064.361.815.265.152-.434.038.02-.4 1.195-.034-.026.133-.4-.815-.264-1.066-.359-.816-.265-.018.076-.037.076c-.018.058-.018.134-.018.206a.845.845 0 00.117.248c.035.076.11.152.183.227.096.059.19.134.324.19l.285.134-.02.038-1.136-.397.664-2.03 1.139.376zm.207-2.013l2.412.36.172-.32.02.02.018.018-.17.32-.189.42-.172.32-.02-.017-.02-.017.192-.361-.286-.059-.361-.058-.285-.058-.38.78.248.23.286.286c.114.058.248-.058.382-.34l.055.014-.437.874-.058-.018c.113-.21.096-.381-.038-.495l-.667-.647-1.329-1.232-.017-.038.058-.038c.02-.017.04-.017.058-.017l.528.073zm.818.495l-.55-.096-.42-.058 1.026.946.36-.72-.416-.072zm.265-3.38a.737.737 0 01.306-.247c.138-.055.286-.08.434-.076.155.02.324.041.495.117.172.055.32.13.475.23.152.114.286.207.379.303.092.093.175.194.248.303a.83.83 0 01.134.338.782.782 0 010 .42c-.033.189-.104.37-.21.53l-.664.967-.038-.038.248-.361-2.357-1.614-.228.36-.037-.037.815-1.194zm-.323.569l2.336 1.596.21-.303a.952.952 0 00.172-.42c0-.15-.093-.32-.286-.533a4.441 4.441 0 00-.702-.567 2.53 2.53 0 00-.76-.4c-.19-.038-.361-.02-.457.038a.577.577 0 00-.266.21l-.247.379zm2.185-2.678a1.24 1.24 0 01.454-.02c.172.043.339.107.495.19.327.162.607.403.816.702.085.121.15.256.192.399.059.134.059.285.038.454a.857.857 0 01-.21.46.81.81 0 01-.247.207.409.409 0 01-.227.059 1.681 1.681 0 01-1.332-.513 1.719 1.719 0 01-.533-.874c-.073-.341-.017-.63.21-.874a.623.623 0 01.344-.19zm-.455.551c0 .093.02.187.059.286.226.324.486.623.777.891.131.134.265.227.359.323.113.076.19.134.268.172.093.038.13.059.172.076.038 0 .075.017.093.017h.076c.038 0 .093-.017.172-.017a.449.449 0 00.21-.134.478.478 0 00.13-.265c0-.096 0-.19-.017-.265-.02-.096-.058-.152-.096-.21l-.723-.723a4.159 4.159 0 00-.684-.533.66.66 0 00-.4-.075.466.466 0 00-.244.134.62.62 0 00-.152.323zm1.955-2.033a.727.727 0 01.402 0 1.515 1.515 0 000-.4l.207.248.495.533-.02.018c-.172-.114-.306-.207-.382-.245a.604.604 0 00-.285-.114.927.927 0 00-.4.018.548.548 0 00-.32.154.932.932 0 00-.175.245.399.399 0 00-.014.323c.035.094.076.17.093.207.072.052.16.078.248.076a1.91 1.91 0 00.495-.076l.588-.151a1.28 1.28 0 01.53-.02c.155.02.286.113.42.267l.076.076c.148.23.207.417.13.626a.95.95 0 01-.247.4c-.13.113-.265.192-.396.192-.114.014-.213.014-.268.014l-.131-.014v.244l.038.228-.78-.874.02-.018a1.9 1.9 0 00.646.341c.227.076.42.076.548.02a.81.81 0 00.303-.171.589.589 0 00.212-.417.673.673 0 00-.134-.437.312.312 0 00-.227-.093c-.134-.013-.27 0-.399.038l-.609.151c-.227.059-.42.073-.588.059-.172-.02-.303-.117-.437-.248a1.023 1.023 0 01-.21-.4c-.058-.171 0-.38.21-.588a.728.728 0 01.361-.212zM23.17 9.92c-.286.154-.362.326-.268.495l1.028 1.728a.457.457 0 01.018.512.933.933 0 01-.359.4 2.098 2.098 0 01-.361.15 1.05 1.05 0 01-.344.021c-.096-.02-.19-.058-.285-.096-.076-.058-.152-.114-.19-.21l-1.118-1.899-.362.21h-.02v-.038l1.046-.606.017.038-.378.227 1.235 2.092c.04.072.107.125.186.148.091.034.19.041.286.02.096-.02.172-.058.247-.095a.841.841 0 00.303-.286c.079-.093.117-.19.096-.303a.472.472 0 00-.093-.265l-.038-.096-.742-1.215-.207-.379c-.114-.192-.286-.212-.496-.096l-.093.058-.02-.04.894-.513.018.038zm1.29-.568l1.29 1.156.572.495-.61-1.727c-.075-.19-.247-.23-.512-.131l-.017-.04.894-.321.017.035c-.285.113-.399.247-.343.399l.891 2.488-.058.017-.679-.606-.853-.778-.688-.609.74 2.069c.061.172.154.23.268.23.134 0 .21 0 .227-.018l.096-.02.018.038-.682.248-.285.113-.02-.058.209-.076a.195.195 0 00.096-.172v-.19c0-.057-.02-.113-.038-.17a3.326 3.326 0 00-.134-.397l-.588-1.672c-.038-.114-.19-.114-.475 0l-.02-.059.684-.244zm3.21-.967l.018.037-.417.114.72 2.733.4-.094.02.056-1.177.306-.018-.059.4-.096-.726-2.753-.376.096-.02-.04 1.177-.3zm1.883-.306a.625.625 0 01.378.058.797.797 0 01.341.285c.108.134.198.28.268.437.065.158.109.324.131.493.02.19.04.34.04.495-.02.133-.04.266-.057.4a1.098 1.098 0 01-.496.605c-.16.105-.342.17-.533.19l-1.16.15v-.054l.438-.059-.379-2.811-.42.058V8.27l1.448-.19zm-.647.13l.378 2.812.382-.038a.76.76 0 00.4-.172c.113-.075.188-.265.206-.55a4.863 4.863 0 00-.038-.91 2.02 2.02 0 00-.227-.835c-.096-.172-.21-.286-.323-.32-.114-.042-.228-.06-.341-.042l-.437.056zm3.493-.072a.78.78 0 01.285.32c.103.15.175.318.21.496.038.189.073.399.073.588l-.059.492a1.325 1.325 0 01-.171.42c-.08.116-.152.227-.303.323a.805.805 0 01-.475.152 1.24 1.24 0 01-.303-.038c-.076-.04-.152-.076-.21-.134-.058-.058-.148-.19-.303-.396a1.8 1.8 0 01-.207-.93c.007-.35.112-.693.303-.987a.903.903 0 01.778-.44c.154 0 .268.058.382.134zm-.723.017a.744.744 0 00-.172.248c-.038.096-.058.248-.093.475-.04.232-.06.467-.058.702 0 .19.017.34.017.475.02.134.041.227.059.323.015.059.034.116.058.172 0 .038.02.058.04.076l.172.172c.075.046.16.072.248.075a.484.484 0 00.286-.093c.072-.058.151-.113.189-.172a.42.42 0 00.073-.23l.058-.588.02-.437a3.144 3.144 0 00-.075-.854c-.059-.172-.114-.288-.19-.344a.536.536 0 00-.285-.093.652.652 0 00-.347.093zm2.811 0c.117.073.21.179.268.303a1.38 1.38 0 00.286-.265l-.02.32-.094.723c-.04-.21-.058-.361-.075-.454a1.26 1.26 0 00-.114-.286 1.001 1.001 0 00-.265-.288.973.973 0 00-.361-.131c-.059-.02-.155 0-.289.038a.414.414 0 00-.245.189c-.058.093-.096.172-.096.227 0 .056.041.134.114.227.11.127.24.236.382.324l.512.34c.144.095.267.218.362.362.093.131.113.303.093.492l-.018.114c-.058.268-.172.437-.36.512a1.209 1.209 0 01-.476.076c-.172-.02-.303-.058-.399-.151a.846.846 0 01-.19-.19l-.075-.096c-.058.018-.114.076-.186.152l-.155.172.134-1.177.038.02c0 .265.058.492.172.702.096.227.21.361.361.434a.95.95 0 00.324.096c.171.038.32-.02.454-.113a.62.62 0 00.227-.4.388.388 0 00-.076-.23 1.64 1.64 0 00-.303-.265l-.512-.36a1.778 1.778 0 01-.434-.4.605.605 0 01-.123-.466c.018-.114.059-.265.152-.437s.285-.245.588-.245a.932.932 0 01.4.131zm4.842 1.104l.289.094.227.058-.02.058-.382-.134-.833 2.718.378.134v.038l-1.156-.361.02-.038.42.131.812-2.601-1.214 1.882c-.132.189-.207.303-.266.378a.6.6 0 00-.113.155v-.172c-.02-.076-.02-.155-.02-.227l.04-1.979.018-.492-.74 2.392c-.02.038-.02.076 0 .093.02.04.038.058.058.076.018.02.038.02.058.038l.152.075.114.038-.018.02v.021l-.95-.303.02-.038c.286.076.435.076.473-.055l.742-2.357c.02-.038 0-.096-.04-.134a.437.437 0 00-.152-.093l-.207-.076.018-.058.856.265-.02.42-.02.78-.059 1.101h.02l.38-.588.515-.74.379-.588.221.07zm3.08 1.594l-.496.874-.017-.018.151-.399c.024-.099.037-.2.038-.303a.495.495 0 00-.134-.285c-.093-.076-.207-.172-.358-.248l-.324-.172-.02-.02-.017-.02-.627 1.083.341.207c.073.041.151.041.207 0a.959.959 0 00.19-.186l.171-.21.02.02-.646 1.157-.02-.02s.093-.266.113-.303c0-.02.02-.059.02-.097a.224.224 0 000-.151.233.233 0 00-.096-.134l-.34-.187-.72 1.291.32.19c.268.133.455.189.61.15a.955.955 0 00.302-.113c.04-.038.076-.058.096-.073.018 0 .038-.02.073-.058l.134-.19.154-.189.018.02-.548.988-1.331-.74-.568-.343.02-.038.361.19h.018l.04-.021 1.367-2.412a1.3 1.3 0 00-.285-.187l-.073-.04.017-.038 1.838 1.025zm2.353 1.707c-.21-.151-.402-.19-.533-.134l-.303.155-.381.171-.303.152-.303 1.858.265.172-.038.059-.303-.21-.361-.286-.303-.206.04-.059.38.286.247-1.483-.324.172-.72.34c-.04.041-.075.059-.095.076-.059.094 0 .228.227.4l-.02.04-.248-.189-.32-.227-.248-.19.038-.02c.21.154.437.19.646.076l.324-.152.434-.23.323-.151.245-1.614-.245-.19.018-.037.912.664-.041.038-.341-.245-.058.379-.059.495-.058.361.895-.437a.245.245 0 00.075-.058c.038-.038.038-.093-.02-.152a1.854 1.854 0 00-.207-.189l.018-.038.76.571-.015.032zm1.442 1.235l-.038.038-.303-.285-1.957 2.05.306.286-.038.058-.877-.836.02-.038.306.268 1.955-2.07-.303-.266.038-.04.891.835zm.912.967c.114.134.172.362.134.647h.4v.041l-.782.682-.017-.02c.265-.435.4-.74.361-.947a.84.84 0 00-.154-.382c-.076-.093-.19-.134-.32-.152a1.15 1.15 0 00-.475.114 2.195 2.195 0 00-.551.361l-.568.568c-.07.071-.133.147-.19.228a1.1 1.1 0 00-.171.265c-.059.113-.059.268 0 .437.02.058.058.093.096.151a.496.496 0 00.207.134c.137.034.28.041.42.02.13-.04.247-.058.32-.096.075-.037.154-.058.247-.113.076-.038.155-.073.227-.114l.02.02-.894.796c-.02-.038-.02-.073-.02-.093l.076-.286v-.017l-.02-.02c-.286.02-.493-.039-.606-.187a.86.86 0 01-.21-.455 1.82 1.82 0 01.684-1.386c.169-.174.377-.304.606-.379.155-.02.289-.058.361-.058.076-.02.155-.02.21-.02.059-.021.131 0 .227.02.094.038.207.073.303.151l.08.09zm1.27 2.698l-1.535 1.882.19.303-.041.02h-.02l-.627-.987.02-.02h.02l.228.34.434-.492.172-.21-.455-.722-.34.075-.382.114c-.093.076-.073.227.096.495l-.04.038-.534-.836.04-.017c.135.186.286.265.455.206l2.64-.74.038.018v.058c.02.02 0 .041 0 .059l-.359.416zm-.833.437l.647-.74-.95.265-.399.134.434.682.268-.34zm2.468 1.253l-.455.609-1.005 1.404 1.649-.78c.19-.094.21-.266.096-.534l.038-.018.42.854-.059.02c-.134-.268-.268-.36-.42-.285l-2.391 1.142-.02-.058 1.748-2.413-1.996.95c-.131.076-.207.172-.187.286.018.134.038.21.059.227l.038.096-.059.018-.434-.933.038-.017.058.093.038.093c.041.059.096.076.172.076.184 0 .245.003.361-.076.142-.036.276-.094.4-.172l1.596-.76c.093-.038.076-.207-.058-.475l.058-.017.315.67zm1.141 3.513c-.042.14-.112.27-.206.382a1.435 1.435 0 01-.42.34c-.172.094-.361.19-.533.248-.172.038-.34.076-.495.076-.172.017-.303 0-.455-.017a1.32 1.32 0 01-.399-.21.909.909 0 01-.326-.74.5.5 0 01.058-.227l.286-.4a1.93 1.93 0 01.836-.474 1.742 1.742 0 011.028 0 .873.873 0 01.647.626c.038.13.031.27-.02.396zm-.23-.682a.46.46 0 00-.285-.093 3.16 3.16 0 00-.495.058 2.63 2.63 0 00-.665.152c-.189.058-.343.096-.457.151-.114.041-.207.097-.285.134l-.152.114a.296.296 0 00-.076.058.147.147 0 01-.038.076c0 .02-.04.076-.058.152-.04.058-.04.154 0 .247.038.114.073.19.172.248.157.12.309.172.455.134l.568-.114.42-.113c.38-.114.646-.23.797-.324a.737.737 0 00.292-.291.783.783 0 000-.286.565.565 0 00-.193-.303zm.74 2.774a.661.661 0 01-.206.32.89.89 0 00.36.21l-1.042.186c.186-.093.32-.171.399-.206.09-.052.174-.116.248-.19a.726.726 0 00.186-.34.885.885 0 00.04-.382.803.803 0 00-.133-.245.349.349 0 00-.248-.19c-.114-.02-.19-.037-.247-.02-.059 0-.132.059-.187.172a1.293 1.293 0 00-.19.458l-.194.585c-.038.19-.135.344-.228.457-.093.114-.247.19-.454.228l-.096.017c-.286.02-.475-.038-.606-.207a1.081 1.081 0 01-.21-.42c-.038-.171-.038-.32.02-.433.059-.114.094-.19.134-.227l.073-.114a.683.683 0 00-.207-.117l-.21-.093 1.16-.227v.038a1.775 1.775 0 00-.63.381c-.171.152-.285.303-.302.455a.935.935 0 000 .34.562.562 0 00.245.4.63.63 0 00.437.113.367.367 0 00.206-.151 1.06 1.06 0 00.172-.379l.19-.588a1.7 1.7 0 01.247-.516.766.766 0 01.42-.265c.152-.014.306 0 .454.038.19.04.324.19.42.475a1.04 1.04 0 01-.02.437zM0 54.627l.379-.038c.02.151.058.265.113.358.059.096.172.172.303.23.134.059.268.073.437.073.136.004.27-.016.4-.058a.42.42 0 00.247-.19.382.382 0 00.093-.244.314.314 0 00-.093-.227c-.04-.076-.134-.134-.268-.19-.073-.02-.248-.075-.513-.134a2.569 2.569 0 01-.568-.19c-.134-.072-.247-.15-.303-.264a.623.623 0 01-.113-.361c0-.152.058-.286.134-.42a.804.804 0 01.358-.303c.177-.062.363-.094.55-.093.207 0 .4.038.569.113a.78.78 0 01.381.303.97.97 0 01.152.455l-.379.038a.606.606 0 00-.21-.417c-.113-.096-.285-.154-.512-.154-.228 0-.4.038-.513.134-.096.093-.155.19-.155.303a.36.36 0 00.114.265c.079.081.271.137.591.212.303.073.534.132.647.187.155.06.288.165.382.303.08.125.12.271.113.42a.737.737 0 01-.134.436.803.803 0 01-.378.32 1.396 1.396 0 01-.571.114 1.74 1.74 0 01-.665-.113.859.859 0 01-.419-.361A1.127 1.127 0 010 54.627zm2.887.929v-2.925h2.106v.344H3.266v.891H4.88v.341H3.266v1.008h1.803v.341H2.887zm4.804-1.023l.399.094c-.068.29-.228.55-.457.74a1.233 1.233 0 01-.76.247 1.524 1.524 0 01-.779-.19 1.363 1.363 0 01-.457-.567 2.156 2.156 0 01-.151-.78c0-.61.227-1.085.681-1.309.21-.133.456-.2.705-.192.286 0 .533.076.743.227.2.16.346.38.417.626l-.379.096a1.089 1.089 0 00-.303-.474.792.792 0 00-.492-.134 1.02 1.02 0 00-.55.154.927.927 0 00-.324.434c-.06.184-.093.375-.096.568 0 .248.037.458.113.647a.851.851 0 00.836.553c.207 0 .4-.058.55-.189.152-.117.246-.306.304-.55zm.87 1.023v-2.925h1.291c.268 0 .475.02.61.076a.636.636 0 01.32.285.833.833 0 01.113.434.787.787 0 01-.186.534 1.06 1.06 0 01-.63.268c.097.058.172.093.23.151.117.096.23.227.324.382l.513.795h-.492l-.382-.609a5.052 5.052 0 00-.286-.399c-.075-.093-.134-.172-.189-.207-.058-.02-.114-.058-.19-.075h-.663v1.29h-.382zm.383-1.631h.836c.186 0 .32-.02.416-.059a.513.513 0 00.23-.172.429.429 0 00.073-.268.414.414 0 00-.151-.34c-.094-.094-.245-.131-.472-.131h-.932v.97zm2.583 1.631v-2.925h2.11v.344h-1.73v.891h1.63v.341h-1.63v1.008h1.803v.341h-2.183zm3.459 0v-2.581h-.953v-.344h2.316v.344h-.967v2.581h-.396zm1.136 0l1.121-2.925h.42l1.194 2.925h-.437l-.34-.894h-1.215l-.324.894h-.42zm.836-1.197h1.008l-.303-.816a5.491 5.491 0 01-.21-.606 3.25 3.25 0 01-.172.568l-.323.854zm2.223 1.197v-2.925h1.29c.265 0 .475.02.606.076a.668.668 0 01.323.285.832.832 0 01.114.434c0 .21-.058.382-.19.534a1.06 1.06 0 01-.626.268c.093.058.172.093.227.151.127.11.235.238.32.382l.517.795h-.496l-.378-.609a5.931 5.931 0 00-.286-.399c-.076-.093-.131-.172-.19-.207-.057-.02-.113-.058-.189-.075h-.667v1.29h-.376zm.378-1.631h.836c.19 0 .324-.02.42-.059a.504.504 0 00.227-.172.431.431 0 00.076-.268.417.417 0 00-.155-.34c-.093-.094-.244-.134-.472-.134h-.932v.973zm2.64 1.631v-2.925h.381v2.925h-.38zm-.094-3.114l.265-.548h.458l-.437.548h-.286zm.836 3.114l1.14-2.925h.419l1.197 2.925h-.46l-.34-.894H23.68l-.323.894h-.417zm.854-1.197h.988l-.303-.816c-.081-.198-.15-.4-.207-.606-.038.19-.096.379-.155.568l-.323.854zm3.341 1.197v-2.925h1.008c.228 0 .4.02.534.038.152.04.294.111.416.21.153.133.271.302.344.492.096.21.13.437.13.702.002.2-.03.399-.092.589a1.31 1.31 0 01-.19.437c-.075.113-.172.189-.265.265-.112.068-.234.12-.361.154a3.311 3.311 0 01-.454.038h-1.07zm.38-.34h.628a1.49 1.49 0 00.455-.06c.113-.04.207-.075.265-.154a.734.734 0 00.21-.358c.056-.185.08-.378.072-.57a1.427 1.427 0 00-.13-.703.795.795 0 00-.382-.34 1.484 1.484 0 00-.492-.059h-.627v2.243zm2.583.34v-2.925h2.127v.344H30.48v.891h1.631v.341H30.48v1.008h1.803v.341h-2.185zm5.223-1.136v-.344l1.236-.017v1.1a2.068 2.068 0 01-.589.342 1.844 1.844 0 01-.629.113 1.545 1.545 0 01-.778-.19 1.101 1.101 0 01-.533-.532 1.51 1.51 0 01-.19-.778c0-.285.059-.55.19-.798a1.12 1.12 0 01.513-.548c.231-.132.494-.197.76-.19.227 0 .42.039.589.114a.796.796 0 01.399.286c.106.141.184.303.227.475l-.358.093a.984.984 0 00-.155-.34.612.612 0 00-.285-.208.97.97 0 00-.4-.075 1.224 1.224 0 00-.474.075c-.11.055-.212.125-.303.207-.073.096-.152.19-.19.286a1.613 1.613 0 00.02 1.255c.093.168.232.307.4.4a1.37 1.37 0 001.404-.19v-.53h-.854v-.006zm1.69-.288c0-.493.134-.874.379-1.14a1.34 1.34 0 011.028-.42c.265 0 .513.077.723.19.227.134.378.32.492.548.114.227.172.495.172.78 0 .304-.058.569-.172.796a1.078 1.078 0 01-.513.533 1.29 1.29 0 01-.702.19 1.36 1.36 0 01-.74-.207 1.215 1.215 0 01-.495-.534 1.66 1.66 0 01-.172-.736zm.4 0c0 .36.095.646.285.836a.906.906 0 00.722.302.859.859 0 00.702-.303c.204-.243.306-.556.286-.873a1.677 1.677 0 00-.114-.627.958.958 0 00-.361-.42.927.927 0 00-.513-.133.932.932 0 00-.702.285c-.21.193-.306.498-.306.933zm2.886 1.424v-2.925H41.4c.228 0 .4.02.533.093a.616.616 0 01.321.268.688.688 0 01.114.38.8.8 0 01-.094.36.793.793 0 01-.323.268c.19.059.323.132.42.266.092.126.14.28.134.436a.964.964 0 01-.076.4.79.79 0 01-.207.265 1.713 1.713 0 01-.32.154c-.135.017-.289.038-.475.038h-1.128v-.003zm.379-1.69h.647c.121.002.242-.01.36-.038.094-.04.173-.075.228-.154.058-.058.076-.151.076-.248a.454.454 0 00-.076-.265c-.038-.075-.114-.113-.19-.154a2.472 2.472 0 00-.454-.038h-.588v.897h-.003zm0 1.35h.743c.113 0 .207 0 .265-.021a.666.666 0 00.21-.076.339.339 0 00.151-.172.476.476 0 00.058-.245.554.554 0 00-.075-.285.547.547 0 00-.228-.175 2.619 2.619 0 00-.434-.038h-.684v1.011h-.006zm2.374.34v-2.925h2.127v.344H43.43v.891h1.634v.341H43.43v1.008h1.803v.341h-2.182zm2.736 0v-2.925h1.29c.265 0 .455.02.589.076a.709.709 0 01.34.285.833.833 0 01-.093.968 1.07 1.07 0 01-.608.268c.093.058.171.093.227.151.113.096.21.227.323.382l.513.795h-.495l-.38-.609a5.931 5.931 0 00-.285-.399c-.075-.093-.134-.172-.21-.207-.058-.02-.113-.058-.171-.075h-.667v1.29h-.373zm.378-1.631h.837c.171 0 .323-.02.419-.059a.504.504 0 00.227-.172.477.477 0 00-.079-.609c-.093-.093-.264-.133-.471-.133h-.933v.973zm2.567 1.631v-2.925h.396l1.541 2.299v-2.3h.359v2.925h-.4l-1.538-2.298v2.298h-.358zm2.636 0l1.122-2.925h.42l1.197 2.925h-.437l-.341-.894h-1.235l-.32.894h-.406zm.837-1.197h1.007l-.303-.816c-.08-.198-.15-.4-.206-.606-.041.19-.097.379-.172.568l-.326.854zm4.311.174l.379.094c-.06.288-.213.548-.437.74a1.284 1.284 0 01-.778.247c-.306 0-.571-.075-.76-.19a1.107 1.107 0 01-.455-.567 1.8 1.8 0 01-.154-.78c0-.304.058-.569.172-.796a1.31 1.31 0 011.197-.702 1.133 1.133 0 011.16.853l-.382.096a.911.911 0 00-.286-.474.82.82 0 00-.492-.134c-.201-.005-.4.05-.571.154a.882.882 0 00-.303.434 1.503 1.503 0 00-.096.568c0 .248.04.457.096.647a.818.818 0 00.34.42.902.902 0 00.493.133c.227 0 .42-.058.571-.189.156-.15.262-.342.306-.554zm.932-1.902h.379v2.925h-.379v-2.925zm.947 1.5c0-.492.134-.873.4-1.139a1.268 1.268 0 011.007-.42 1.282 1.282 0 011.218.738c.117.243.175.51.172.78 0 .304-.059.569-.172.796a1.1 1.1 0 01-.516.533c-.21.13-.454.195-.702.19a1.36 1.36 0 01-.74-.207 1.232 1.232 0 01-.495-.534 1.62 1.62 0 01-.172-.736zm.4 0c0 .362.095.647.288.837.186.21.434.302.72.302a.93.93 0 00.722-.303c.19-.25.283-.56.265-.873a1.675 1.675 0 00-.114-.627.932.932 0 00-.358-.42.941.941 0 00-.516-.133.933.933 0 00-.702.285c-.21.193-.306.498-.306.933zm.756-1.69l.269-.547h.474l-.454.548h-.289zm2.15 3.115v-2.925h.397l1.54 2.299v-2.3H64v2.925h-.402l-1.535-2.298v2.298h-.361z" fill="#fff"/></svg>