<svg width="64" height="64" fill="none" xmlns="http://www.w3.org/2000/svg"><path d="M2.007 24.007h13.765l-.584 4.488H1.448l.56-4.488zM1.2 30.145h13.78l-.424 3.65H5.943l-.224 1.746h8.63l-.537 4.169H0l1.2-9.565zm14.796-1.65s.096-1.53.48-2.328c.36-.749.84-1.291 1.648-1.745.48-.255 1.335-.415 1.335-.415h24.794s1.04.016 1.487.2c.48.199 1.176.494 1.544 1.386.36.853.288 1.132.288 1.985 0 .837-.024.917-.024.917H15.996zm-.224 1.69h12.685s1.128 0 1.648.31c.543.36.791.798.951 1.491.152.694-.272 4.193-.52 5.046-.272.837-.591 1.626-1.903 2.28-1.176.597-2.96.398-2.96.398H14.716l.648-4.169h10.262l.207-1.77h-7.078s-1.151.16-2.231-.773c-.656-.557-.728-1.41-.768-1.785-.048-.215.016-1.028.016-1.028zm16.5 0h14.964s-.136 1.721-.544 2.335c-.408.638-.768.98-1.447 1.132-.696.16-1.736.16-1.736.16h-6.51l-.68 5.898h-5.223l1.176-9.525zm15.98-1.65H63.8s.296-1.355.136-2.208c-.16-.853-.544-1.427-1.176-1.842-.832-.581-2.351-.478-2.327-.478h-11.55l-.631 4.528zm-.2 1.65h5.15l-1.175 9.525h-5.11l1.135-9.525zm10.35.04h5.102l-1.176 9.485H57.25l1.151-9.486z" fill="#fff"/></svg>