<svg width="64" height="64" fill="none" xmlns="http://www.w3.org/2000/svg"><path d="M57.762 32.19c.01 9.09-11.31 16.47-25.28 16.483-13.971.014-25.305-7.343-25.314-16.431-.01-9.09 11.31-16.468 25.28-16.482 13.971-.014 25.305 7.342 25.314 16.43zM2 32.248c.012 11.717 13.661 21.203 30.486 21.186 16.826-.017 30.456-9.53 30.444-21.248C62.917 20.47 49.269 10.983 32.444 11 15.618 11.017 1.988 20.53 2 32.247z" fill="#C7A363"/><path d="M41.542 27.218c-1.446-.863-3.285-1.251-5.026-.957-.491.083-.944.272-1.389.523-.535.304-.938.71-1.298 1.197-.272.369-.428.781-.528 1.24-.15.692-.111 1.332.052 2.013.447 1.865 2.438 2.288 3.968 2.93.273.115.545.28.676.557.151.322.127.743-.162 1.002-.233.21-.58.274-.846.296-1.254.1-2.539-.392-3.625-1.017l.022 3.234c.559.314 1.031.417 1.584.59 2.203.687 4.88.51 6.38-1.5.762-1.02.945-2.31.52-3.492a3.035 3.035 0 00-1.167-1.517 7.754 7.754 0 00-1.457-.787c-.75-.315-1.669-.34-2.224-1.007-.125-.15-.138-.477-.061-.672.088-.22.185-.361.427-.46.522-.212 1.037-.134 1.58-.061.906.122 1.795.631 2.618.978l-.044-3.09zm-9.904.017c-1.447-.863-3.286-1.252-5.027-.958-.491.084-.944.272-1.389.524-.535.303-.938.71-1.298 1.197-.272.368-.427.78-.527 1.24-.15.69-.112 1.332.051 2.012.447 1.866 2.438 2.29 3.969 2.931.272.114.544.279.675.556.152.323.127.743-.162 1.003-.234.21-.58.273-.846.295-1.254.1-2.54-.391-3.625-1.016l.023 3.234c.558.314 1.03.416 1.584.59 2.203.686 4.878.51 6.38-1.5.762-1.02.944-2.31.519-3.493a3.04 3.04 0 00-1.167-1.517 7.791 7.791 0 00-1.457-.787c-.749-.314-1.67-.34-2.225-1.006-.123-.15-.137-.477-.06-.672.087-.221.185-.362.427-.46.523-.213 1.037-.134 1.58-.061.907.122 1.796.631 2.618.977l-.043-3.089zm-9.365-3.779a7.535 7.535 0 00-5.972-.738c-1.32.394-2.456 1.236-3.015 2.499a4.501 4.501 0 00-.4 1.92c.032 1.475 1.018 2.68 2.254 3.423-.165.233-.434.29-.666.443-.39.256-.686.558-.971.903-.49.596-.798 1.259-.875 2.02-.069.68-.063 1.358.173 2.009.59 1.625 2.021 2.81 3.79 3.123.832.148 1.6.192 2.408.126a8.513 8.513 0 001.821-.36c.47-.14.85-.255 1.289-.552 0-.011-.45-2.974-.44-2.974-1.21.226-2.487.72-3.69.242-.726-.288-.96-1.106-.84-1.84.102-.63.564-1.041 1.122-1.248.971-.358 2.055-.304 3.076-.273l-.04-2.837a8.209 8.209 0 01-2.52-.082 2.005 2.005 0 01-.777-.344c-.24-.165-.4-.38-.527-.62-.252-.471-.274-1.002-.015-1.463.892-1.585 3.036-.93 4.436-.4l.379-2.977zm25.945 2.633c2.93-.053 5.335 1.585 5.423 6.465.086 4.736-2.255 6.604-5.184 6.657-2.929.053-5.334-1.585-5.423-6.465-.086-4.783 2.256-6.604 5.184-6.657zm-.039 3.14c-1.088.02-1.805 1.22-1.765 3.432.041 2.212.8 3.386 1.889 3.366 1.09-.019 1.853-1.221 1.815-3.385-.042-2.308-.85-3.434-1.939-3.414z" fill="#C7A363"/></svg>