<svg width="64" height="64" fill="none" xmlns="http://www.w3.org/2000/svg"><path fill-rule="evenodd" clip-rule="evenodd" d="M20.68 44.805h7.433v.871h-3.099v6.403h-1.236v-6.403H20.68v-.871zm42.38 7.274h-6.757v-7.274h6.668v.871h-5.43v2.23h5.01v.87h-5.01v2.432h5.52v.871zm-26.508-.891l-.077-1.318c-.05-1.013-.573-1.195-1.096-1.367.587-.273 1.276-.67 1.276-1.743 0-1.54-1.505-1.955-3.01-1.955h-4.233v7.274h1.237V50.54h-.004v-3.319h.004v-1.575h3.085c.612 0 1.645.09 1.645 1.216 0 1.073-.956 1.256-1.861 1.256h-.906v.84h1.033c1.479 0 1.632.7 1.632 1.297 0 .273.039 1.378.217 1.823h1.517v-.162c-.383-.172-.446-.323-.46-.728zm5.967-6.383h-1.402l-3.443 7.274h1.275l.956-2.117h2.297l-.362-.872h-1.552l1.466-3.2h.026l.86 2.035.002-.006 1.841 4.16h1.351l-3.315-7.274zm8.226 0h-3.712v5.154h1.238v-4.313h2.307c1.683 0 2.741.922 2.741 2.755 0 1.834-1.045 2.837-2.651 2.837l-3.634.006v.835h3.659c3.009 0 3.902-2.107 3.902-3.739 0-2.096-1.467-3.535-3.85-3.535zm-43.723 7.01c-.436.184-1 .313-1.762.313-2.264 0-4.319-1.256-4.319-3.81 0-1.986 1.427-3.86 4.594-3.851 2.879 0 4.018 1.45 4.122 2.453H7.694c0-.284-.667-1.196-2.054-1.196-1.4 0-2.696.75-2.696 2.614 0 1.986 1.4 2.502 2.735 2.502.245 0 .818-.042 1.34-.35l.003 1.325zm6.484-1.197h4.672v1.317h-6.635V44.66h1.963v5.958z" fill="#fff"/><path fill-rule="evenodd" clip-rule="evenodd" d="M5.771 49.24v-1.226h3.927v3.92h-1.35V49.23l-2.577.01zM45.44 34.407c-3.329 3.439-7.997 5.68-13.356 5.68-10.191 0-15.912-9.008-15.912-17.096 0-4.906 1.898-9.595 5.146-13.003l3.28 3.411c-2.776 2.824-4.514 6.795-4.514 10.892 0 8.624 7.264 14.218 14.63 14.218 4.288 0 7.994-1.593 10.559-4.304l.167.203z" fill="#fff"/><path fill-rule="evenodd" clip-rule="evenodd" d="M43.753 32.196a12.237 12.237 0 003.595-8.68c0-6.778-5.495-12.274-12.274-12.274-3.364 0-6.446 1.387-8.663 3.58l2.482 2.448-3.452 3.453-.625 2.333 2.4-.493 6.674-6.674 2.006-.361-.23 2.235-9.074 9.107-.657 2.334 2.465-.493 11.08-11.046 2.136-.428-.295 2.269-11.08 11.079-.625 2.301 2.467-.492 9.073-9.075 2.137-.395-.263 2.236-6.673 6.707-.56 2.301 2.401-.492 3.517-3.519 2.038 2.039z" fill="#fff"/></svg>