<svg width="64" height="64" fill="none" xmlns="http://www.w3.org/2000/svg"><path d="M0 19v1.752h12.457V19H0zm14.223 0v1.752h17.752S30.162 19 27.76 19H14.222zm21.235 0v1.752h10.74L45.56 19H35.458zm18.44 0l-.638 1.752h10.643V19H53.898zM0 22.406v1.752h12.457v-1.752H0zm14.223.003v1.749h19.812s-.231-1.348-.635-1.75H14.223zm21.235 0v1.749h11.917l-.59-1.75H35.458zm17.165 0l-.59 1.749h11.87v-1.75h-11.28zM3.58 25.812v1.754h5.395v-1.754H3.58zm14.222 0v1.754h5.396v-1.754h-5.396zm10.643 0v1.754h5.395s.342-.926.342-1.754h-5.737zm10.593 0v1.754h9.565l-.638-1.754h-8.928zm12.41 0l-.64 1.754h9.612v-1.754h-8.973zM3.58 29.222v1.75h5.395v-1.75H3.58zm14.222 0v1.75h13.78s1.153-.898 1.52-1.75h-15.3zm21.236 0v1.75h5.395v-.974l.342.975h9.883l.367-.975v.975h5.395V29.22H50.292l-.537 1.484-.54-1.484H39.037zM3.58 32.626v1.752h5.395v-1.752H3.58zm14.222 0v1.752h15.3c-.367-.85-1.52-1.752-1.52-1.752h-13.78zm21.236 0v1.752h5.395v-1.752h-5.395zm6.375 0l.652 1.752h7.41l.62-1.752h-8.682zm9.612 0v1.752h5.395v-1.752h-5.395zM3.58 36.034v1.751h5.395v-1.751H3.58zm14.222 0v1.751h5.396v-1.751h-5.396zm10.643 0v1.751h5.737c0-.826-.342-1.751-.342-1.751h-5.395zm10.593 0v1.751h5.395v-1.751h-5.395zm7.6 0l.632 1.751h4.967l.638-1.751h-6.237zm8.387 0v1.751h5.395v-1.751h-5.395zM.097 39.44v1.754h12.458V39.44H.097zm14.126 0v1.754H33.4c.404-.402.635-1.754.635-1.754H14.223zm21.332 0v1.754h8.877V39.44h-8.877zm12.31 0l.65 1.754h2.527l.61-1.754h-3.787zm7.16 0v1.754H64V39.44h-8.975zM.097 42.849V44.6h12.458v-1.752H.097zm14.126 0v1.748H27.76c2.402 0 4.215-1.748 4.215-1.748H14.222zm21.332 0V44.6h8.877v-1.752h-8.877zm13.542 0l.625 1.746.108.002.635-1.748h-1.368zm5.928 0V44.6H64v-1.752h-8.975z" fill="#fff"/></svg>