<svg width="64" height="64" fill="none" xmlns="http://www.w3.org/2000/svg"><path fill-rule="evenodd" clip-rule="evenodd" d="M1.754 11.857l60.34.133v23.945l-30.068-12.5L1.754 35.558V11.857zm49.018 28.505v1.32c.213-.751.517-1.137.883-1.32.883-.457 1.97-.03 2.244.813.315.944.061 1.746-.375 2.162-.163.163-.549.315-.803.315-.934 0-1.38-.437-1.3-1.401.05-.558-.61.203-.65.345v7.85h1.199v1.188h-4.55v-1.188h.893v-8.774h-.893v-1.31h3.352zm-25.713 0v1.32c.213-.751.518-1.137.873-1.32.894-.457 1.97-.03 2.244.813.315.944.072 1.746-.365 2.162-.163.163-.559.315-.813.315-.934 0-1.38-.437-1.29-1.401.041-.558-.619.203-.65.345v7.85h1.189v1.188h-4.55v-1.188h.894v-8.774h-.893v-1.31h3.361zm18.96-.305c.69 0 1.309.214 1.888.721.569.437 1.036 1.179 1.34 2.062.325.944.427 1.91.427 3.006 0 1.533-.254 2.853-.833 3.89-.67 1.31-1.625 1.898-2.823 1.898-1.158 0-2.092-.588-2.721-1.685-.63-1.168-.935-2.57-.935-4.042 0-1.604.305-2.925.986-4.093.63-1.177 1.513-1.757 2.67-1.757zm.02 1.016c-.244 0-.447.142-.6.416-.121.285-.243.904-.284 1.737-.08.833-.08 2-.08 3.523 0 .752.04 1.514.08 2.215.041.558.163.964.325 1.238.112.274.315.416.519.416.203 0 .365-.142.477-.274.163-.284.285-.63.335-1.107.112-.69.153-2.143.153-4.285 0-1.238-.041-2.143-.122-2.63-.081-.417-.234-.833-.396-1.036a.485.485 0 00-.407-.213zm13.435-1.016c.69 0 1.31.214 1.889.721.568.437 1.035 1.179 1.34 2.062.325.944.436 1.91.436 3.006 0 1.533-.264 2.853-.843 3.89-.67 1.31-1.624 1.898-2.823 1.898-1.157 0-2.092-.588-2.721-1.685-.63-1.168-.934-2.57-.934-4.042 0-1.604.304-2.925.985-4.093.63-1.177 1.513-1.757 2.67-1.757zm.02 1.016c-.243 0-.447.142-.599.416-.122.285-.244.904-.285 1.737-.07.833-.07 2-.07 3.523 0 .752.03 1.514.07 2.215.041.558.163.964.325 1.238.112.274.316.416.519.416s.366-.142.477-.274c.162-.284.284-.63.336-1.107.111-.69.151-2.143.151-4.285 0-1.238-.04-2.143-.12-2.63-.083-.417-.235-.833-.397-1.036a.485.485 0 00-.407-.213zM35.65 36.422v5.443c.385-.823.934-.995 1.573-1.005 2.062-.05 2.722 3.148 2.712 5.189 0 2.539-.761 5.788-2.529 5.788-.65 0-1.37-.213-1.553-.71l-.203.507-3.494-.01.01-1.178h.884V37.61h-.894v-1.188h3.494zm0 7.078v4.042c0 .853 0 1.391.03 1.635.041.365.092.67.214.914.111.244.294.355.466.355.143 0 .295-.111.407-.294.122-.193.203-.549.304-1.087.051-.609.113-1.574.113-3.026 0-1.391-.092-2.356-.265-2.904-.121-.366-.294-.538-.497-.538-.275 0-.529.294-.772.903zm-4.306-7.078v14.024h.61v1.188h-4.052v-1.188h.68V37.61h-.68v-1.188h3.442zM18.052 51.055c-1.056 1.067-2.427.732-3.015.417-1.605-.823-1.758-4.54-.6-5.463 1.026-.793 1.859-.924 3.189-.56v-3.462c0-.396-.264-1.026-.863-1.026-.528 0-.904.142-.904.396 0 .376.802.57.762 1.625-.031.64-.376 1.483-1.32 1.483-.894 0-1.524-.873-1.524-1.564 0-2.031 1.473-2.65 3.717-2.65 1.27 0 2.864.883 2.864 2.406l.02 7.109c0 .091.04.518.345.395.102-.04.366-.294.457-.447l.487 1.108c-.264.507-1.208 1.035-2.061 1.035-.894 0-1.178-.355-1.554-.802zm-.355-1.188v-3.422c-.6-.214-1.005.224-1.209.771-.264.752-.192 1.828.061 2.58.203.579.904.528 1.148.07zm-9.586-3.788l1.086-9.657h4.479v1.188l-.772.01v12.826h.771v1.188H9.197v-1.188h.7v-7.87l-1.472 9.058H6.232l-1.401-9.048v7.86h.66v1.188H2.424v-1.188h.771l-.01-12.836h-.761v-1.188h3.92l1.767 9.657z" fill="#fff"/></svg>