<svg width="64" height="64" fill="none" xmlns="http://www.w3.org/2000/svg"><path d="M40.172 14.929c4.102 0 7.428 17.045 7.428 38.071h5.943c0-22.644-5.987-41-13.37-41-4.202 0-7.95 5.517-10.4 14.143C27.321 17.517 23.572 12 19.371 12 11.988 12 6 30.356 6 53h5.944c0-21.026 3.326-38.071 7.428-38.071s7.43 15.734 7.43 35.144h5.941c0-19.41 3.326-35.144 7.429-35.144zm16.346 35.144c.806 0 1.482.629 1.482 1.456 0 .841-.676 1.47-1.482 1.47-.809 0-1.49-.63-1.49-1.47 0-.827.681-1.456 1.49-1.456zm0 2.713c.683 0 1.213-.54 1.213-1.256 0-.703-.53-1.243-1.213-1.243-.691 0-1.22.54-1.22 1.243 0 .715.529 1.256 1.22 1.256zm-.578-2.107h.67c.41 0 .603.161.603.489 0 .309-.196.438-.453.465l.494.757h-.29l-.47-.736h-.283v.736h-.27v-1.71zm.27.76h.28c.237 0 .455-.011.455-.282 0-.228-.197-.264-.38-.264h-.354v.546z" fill="#fff"/></svg>