<svg width="64" height="64" fill="none" xmlns="http://www.w3.org/2000/svg"><path fill-rule="evenodd" clip-rule="evenodd" d="M33.993 40.23h8.524c1.273 0 2.319-.522 3.168-1.568.816-1.012 1.24-2.22 1.24-3.591 0-2.776-3.559-4.736-4.931-4.736h-4.67c-.36 0-.654-.163-.882-.425a1.596 1.596 0 01-.36-1.012c0-.457.131-.85.36-1.176.261-.326.588-.522.98-.522h8.752v-3.495h-8.916c-1.6 0-2.842.49-3.724 1.437-.783.882-1.175 2.058-1.175 3.462 0 1.372.392 2.58 1.175 3.56.882 1.077 1.928 1.633 3.202 1.633h5.389c.326 0 .587.098.783.359.229.26.326.587.326.947 0 .425-.163.816-.424 1.143-.294.294-.62.457-1.045.457h-8.622l-.13-.228-3.233-10.386-.164-.326c-.784-1.6-2.09-2.384-3.886-2.384-.98 0-1.862.228-2.646.718-.816.49-1.339 1.208-1.633 2.123l-4.344 13.978 3.952.033 3.985-12.443c.098-.392.326-.588.62-.588a.54.54 0 01.392.163c.098.13.163.262.196.425l4.017 12.443h3.724zM4.599 28.8v11.398H.941v-12.64c0-1.632.393-2.775 1.242-3.46.653-.491 1.632-.752 3.004-.752 1.11 0 2.058.326 2.907.947.849.62 1.404 1.47 1.698 2.515l2.384 8.393.392 1.143c.033.229.163.392.294.522.163.131.326.197.522.131.327-.032.49-.228.49-.522V23.738h3.756V36.31c0 1.405-.326 2.45-1.012 3.201-.653.751-1.633 1.144-2.94 1.144-1.143 0-2.09-.23-2.84-.621-.915-.457-1.503-1.176-1.765-2.123l-2.743-9.57-.196-.62c-.065-.228-.196-.392-.359-.555a.682.682 0 00-.555-.13c-.196.032-.326.13-.457.326-.108.177-.164.38-.164.588v.849zm58.46 11.43l-4.245-14.14-.163-.328c-.784-1.6-2.09-2.383-3.887-2.383-.98 0-1.861.228-2.645.718-.817.49-1.34 1.208-1.634 2.123l-4.343 13.978 3.951.033 3.985-12.443c.098-.392.327-.588.62-.588a.54.54 0 01.392.163c.099.13.163.262.197.425l4.017 12.443h3.755z" fill="#fff"/></svg>