<svg width="64" height="64" fill="none" xmlns="http://www.w3.org/2000/svg"><path fill-rule="evenodd" clip-rule="evenodd" d="M9.066 38.59h3.931v-7.106h-3.93v7.107zm50.195 0h3.932v-7.106h-3.931v7.107z" fill="#fff"/><path fill-rule="evenodd" clip-rule="evenodd" d="M61.437 25H0v13.56h6.804v-8.52l54.633.002a2.523 2.523 0 100-5.043zm-7.547 3.324H6.804v-1.609l47.086.005a.802.802 0 110 1.604z" fill="#fff"/><path fill-rule="evenodd" clip-rule="evenodd" d="M25.318 36.04c.803-.364 1.311-1.172 1.311-2.111 0-1.28-1.006-2.445-2.72-2.445H15.82v7.107h3.931v-2.293h1.286l1.184 2.293h4.41l-1.313-2.55zm-3.324-1.463h-2.243v-1.505l2.243.008a.749.749 0 110 1.497zm7.102 4.014h8.67v-1.588h-4.739v-1.046h4.738v-1.713h-4.738v-1.046h4.738v-1.714h-8.669v7.107zm15.28-7.107h-3.931v7.107h7.913v-1.588h-3.982v-5.519zm9.265 0h-3.93v7.107h7.912v-1.588h-3.982v-5.519z" fill="#fff"/></svg>