<svg width="64" height="64" fill="none" xmlns="http://www.w3.org/2000/svg"><path d="M22.8 37.268c-2.318 0-4.47-.696-5.907-1.985-1.085-.974-1.607-2.297-1.607-3.66 0-1.344.545-2.677 1.607-3.646C18.227 26.761 20.583 26 22.8 26c2.454 0 4.418.618 5.92 1.98 1.068.97 1.585 2.296 1.585 3.644 0 1.306-.548 2.697-1.585 3.659-1.398 1.298-3.595 1.985-5.92 1.985v-1.486c1.23 0 2.372-.425 3.17-1.218.791-.788 1.16-1.757 1.16-2.94 0-1.134-.398-2.194-1.16-2.946-.787-.774-1.956-1.21-3.17-1.21-1.217 0-2.387.431-3.174 1.21-.759.752-1.157 1.815-1.157 2.946 0 1.127.403 2.19 1.157 2.94.788.783 1.953 1.218 3.174 1.218v1.486zM5.855 26.005c-1.24 0-2.649.232-3.846.767C.904 27.265 0 28.062 0 29.384c0 1.19.756 1.888.735 1.868.322.297.84.801 2.195 1.097.605.133 1.9.336 3.188.47 1.28.136 2.538.264 3.05.393.408.104 1.093.245 1.093 1.013 0 .765-.721.998-.847 1.049-.125.05-.99.446-2.545.446-1.147 0-2.527-.345-3.03-.525-.58-.206-1.189-.48-1.756-1.172-.141-.172-.364-.645-.364-1.113H.312v3.943h1.564v-.532c0-.061.076-.31.339-.192.326.148 1.285.53 2.288.74.822.172 1.352.295 2.374.295 1.668 0 2.564-.272 3.183-.449.583-.167 1.304-.467 1.89-.934.317-.252 1.013-.9 1.013-2.075a2.904 2.904 0 00-.818-2.04 3.572 3.572 0 00-1.014-.689 7.44 7.44 0 00-1.245-.435c-.806-.198-2.629-.442-3.5-.533-.915-.096-2.5-.227-3.134-.423-.192-.06-.583-.246-.583-.7 0-.323.179-.597.533-.819.561-.352 1.696-.57 2.878-.57 1.398-.006 2.582.314 3.335.65.256.115.556.28.794.474.268.219.646.674.782 1.308h1.263v-3.432h-1.41v.4c0 .128-.133.295-.385.157-.631-.331-2.416-1.046-4.604-1.049zm30.912.624l6.88 6.21-.07-4.181c-.007-.548-.108-.777-.7-.777h-1.294v-1.25h5.883v1.25h-1.262c-.605 0-.643.193-.65.777l.106 7.989h-2.014l-7.926-7.074.002 5.02c.007.546.032.803.594.803h1.413v1.25h-5.777v-1.25h1.35c.505 0 .485-.48.485-.831v-5.86c0-.378-.053-.823-.846-.823h-1.096v-1.253h4.922zm17.422 8.765c.055 0 .3-.007.348-.022a.433.433 0 00.27-.24c.019-.043.028-.23.028-.271v-1.977c0-.047-.003-.068-.083-.174-.09-.115-3.605-4.1-3.766-4.274-.2-.218-.55-.555-1.083-.555H48.68V26.63h6.9v1.25h-.832c-.192 0-.32.182-.156.385 0 0 2.321 2.776 2.343 2.805.022.03.04.037.07.01.03-.027 2.38-2.79 2.398-2.812a.24.24 0 00-.205-.387h-.853V26.63h5.654v1.25h-1.263c-.458 0-.644.086-.99.475L57.94 32.7c-.05.058-.046.138-.046.185v1.977c0 .04.01.227.027.27a.432.432 0 00.271.24c.048.015.29.022.345.022h1.292v1.25h-6.864v-1.25h1.225z" fill="#fff"/></svg>