<svg width="80" height="12" fill="none" xmlns="http://www.w3.org/2000/svg"><g clip-path="url(#clip0_13385_864)" fill="#C7A363"><path d="M17.582 5.01h-2.144v2.143h2.144V5.01zM13.52 7.269c-1.037.258-1.913.95-2.567 2.04-.16.267-.3.544-.42.83L2.418 6.083l8.115-4.057c.12.286.26.564.42.83.653 1.09 1.53 1.782 2.568 2.04V7.27zM31.105 5.01H19.498v2.143h11.607V5.01zm45.009 0a.957.957 0 01.956.955v.232a.958.958 0 01-.956.957H33.01V5.009h43.104z"/></g><defs><clipPath id="clip0_13385_864"><path fill="#fff" transform="matrix(-1 0 0 1 80 0)" d="M0 0h80v12H0z"/></clipPath></defs></svg>