<svg width="57" height="64" fill="none" xmlns="http://www.w3.org/2000/svg"><path fill-rule="evenodd" clip-rule="evenodd" d="M27.289.038c-.068.068-.045.146.102.339.051.067.098.126.104.132.006.005.04.047.076.094l.075.094c.006.005.052.06.104.122.051.062.098.118.104.123.006.005.04.047.075.094.036.046.081.101.1.122.019.02.082.1.141.176l.23.292a18.653 18.653 0 01.612.822c.047.067.16.233.25.367.089.135.173.256.185.269.013.013.029.04.036.06.006.021.019.038.028.038.009 0 .021.017.028.038a.19.19 0 00.034.061c.013.013.094.129.18.258l.19.282c.195.278.243.397.168.412a.582.582 0 01-.179-.099 49.33 49.33 0 00-.29-.202 2.66 2.66 0 01-.216-.158 48.816 48.816 0 01-.405-.281c-.154-.11-.282-.197-.772-.527-.643-.432-.716-.483-.749-.513a2.929 2.929 0 00-.217-.138l-.23-.137a4.488 4.488 0 01-.116-.074.528.528 0 00-.09-.051 7.28 7.28 0 00-.442-.24 20.17 20.17 0 01-.368-.193 13.273 13.273 0 00-.781-.396 5.01 5.01 0 01-.203-.086 1.137 1.137 0 00-.108-.046c-.005 0-.053-.02-.108-.043a8.483 8.483 0 00-.65-.25 1.717 1.717 0 01-.127-.046c-.249-.111-1.182-.32-1.676-.375l-.348-.039c-.088-.01-.258-.027-.377-.037l-.405-.038C20.654.208 20.447.2 19.691.2c-.453 0-.946.01-1.12.024-.686.05-1.066.085-1.28.117-.068.01-.216.032-.33.047-.411.058-.935.173-1.78.392-.372.097-1.236.39-1.534.52-.02.01-.11.043-.197.075a2.4 2.4 0 00-.193.076.14.14 0 01-.051.019.864.864 0 00-.137.054 18.36 18.36 0 01-.495.218 5.516 5.516 0 01-.16.067 2.57 2.57 0 00-.188.09c-.221.116-.515.273-.588.315a.563.563 0 00-.218.248c-.019.056-.016.065.036.109.065.054.06.053.374.093.32.04.689.11.913.172.063.018.135.036.16.04l.226.044.311.058c.231.04.403.091.49.145.076.048.21.205.272.322.023.044.023.045-.04.032-.243-.049-1.064-.082-1.297-.053-.088.012-.26.03-.385.041-.124.012-.29.034-.367.049-.078.015-.256.044-.396.066a7.514 7.514 0 00-.659.13c-.39.101-.89.255-1.01.312a.364.364 0 01-.075.028.5.5 0 00-.092.037.512.512 0 01-.09.037c-.009 0-.06.02-.113.045-.16.073-.26.117-.408.182l-.241.105a1.118 1.118 0 01-.108.045 1.51 1.51 0 00-.126.054c-.065.03-.165.074-.222.098a2.833 2.833 0 00-.271.144c-.092.055-.171.1-.175.1a.606.606 0 00-.077.044 4.338 4.338 0 01-.155.091 7.929 7.929 0 00-.574.346 6.024 6.024 0 01-.189.121c-.01.005-.136.088-.28.184a8.722 8.722 0 01-.266.174c-.02 0-.389.258-.537.375l-.244.19a2.698 2.698 0 00-.188.151.835.835 0 01-.076.056.744.744 0 00-.075.056c-.005.007-.06.052-.122.1a8.1 8.1 0 00-.238.197 31 31 0 01-.339.289 7.03 7.03 0 00-.947.957c-.374.446-.435.52-.543.66a2.83 2.83 0 01-.104.13 1.475 1.475 0 00-.075.093c-.028.038-.062.08-.075.095a1.493 1.493 0 00-.076.093 2.52 2.52 0 01-.096.12.69.69 0 00-.066.09c-.028.048-.312.495-.397.624-.037.056-.118.2-.18.322-.103.2-.112.23-.112.338 0 .132.016.162.113.22.057.036.094.04.293.04.284 0 .433.028.502.092.029.026.052.064.052.084 0 .059-.068.136-.154.174-.045.02-.143.072-.218.117-.076.044-.142.08-.147.08-.01 0-.148.094-.366.246-.172.121-.412.337-.73.656-.405.409-.545.605-.805 1.131-.2.407-.19.38-.309.763a5.194 5.194 0 00-.21.829l-.056.287-.04.207c-.03.14-.027.38.006.45.02.04.041.055.086.06.063.005.087-.005.52-.212a5.503 5.503 0 01.405-.182l.163-.076c.116-.052.385-.13.452-.13s.08.007.097.054c.018.047.013.07-.033.164a.595.595 0 01-.07.12.275.275 0 00-.048.067 1.991 1.991 0 01-.108.16 5.564 5.564 0 00-.525.882.678.678 0 01-.048.126c-.038.084-.044.111-.026.133.028.034.057.035.044 0-.007-.018.04-.041.165-.083.156-.052.657-.226.731-.254a24.097 24.097 0 011.158-.378 29.104 29.104 0 01.923-.285c.44-.136.536-.167.593-.188.125-.046.185-.059.565-.122a35.556 35.556 0 01.894-.15c.197-.032.4-.066.452-.076.145-.028 1.47-.033 1.704-.006.109.013.3.032.424.043.605.053.687.063.988.113l.236.038c.326.051.382.06.47.075.052.01.166.026.254.039.088.012.25.047.358.078l.254.072c.031.008.116.034.189.056.072.022.175.052.229.066.053.015.145.053.205.085l.2.107c.05.026.121.083.157.126l.151.181c.079.094.168.262.382.716l.209.438c.073.154.133.283.133.287 0 .005.048.108.106.23a33.978 33.978 0 01.288.613 7.615 7.615 0 01.16.355c.075.163.145.318.275.609a5.082 5.082 0 00.2.458c.035.076.063.141.063.145 0 .005.022.057.05.117a7.756 7.756 0 01.124.287c.016.037.056.155.09.264.033.109.075.244.094.301.246.757.398 1.247.431 1.394l.058.254c.03.132.096.412.113.48.02.076.046.192.077.339.012.057.03.128.039.158.009.03.016.168.016.307 0 .247-.001.255-.059.363-.044.082-.077.119-.132.145-.04.019-.072.04-.072.048s-.009.014-.019.014c-.031 0-.417.236-.769.469-.683.453-.769.513-.926.649a3.047 3.047 0 01-.407.286c-.124.07-.402.27-1.014.73-.367.276-.939.814-1.094 1.03-.062.087-.116.144-.128.137a18.784 18.784 0 01-.266-.177c-.34-.228-.539-.327-.649-.322-.121.005-.176.052-.193.166-.008.05-.022.393-.032.76-.02.782-.008 1.284.074 2.863.039.75.05 1.626.035 2.909-.008.725-.023 1.42-.033 1.544a98.78 98.78 0 00-.078 1.045 4.095 4.095 0 01-.066.547 1.86 1.86 0 00-.028.18c-.017.138-.03.233-.076.553l-.037.264a5.71 5.71 0 01-.094.565l-.055.254-.058.273-.056.273c-.016.084-.09.434-.113.536a9.578 9.578 0 01-.18.622 8.719 8.719 0 00-.076.263 8.462 8.462 0 01-.067.236 31.61 31.61 0 00-.205.706 14.839 14.839 0 01-.3.894c-.126.38-.597 1.746-.685 1.987-.082.227-.195.519-.23.596a.364.364 0 00-.027.072c0 .007-.012.04-.027.072a17.81 17.81 0 00-.161.408c-.075.192-.143.366-.152.386a53.1 53.1 0 01-.054.126.72.72 0 00-.04.1c0 .008-.011.04-.026.073a17.91 17.91 0 00-.161.407c-.075.192-.143.366-.152.386a.76.76 0 00-.074.31c0 .105 0 .107.075.147.073.039.086.04.452.023a4.36 4.36 0 00.448-.036c.038-.01.1-.023.136-.029.05-.008.096-.04.19-.137.11-.113.243-.295.243-.332 0-.008.02-.06.047-.117a1.28 1.28 0 00.047-.111c0-.005.02-.053.045-.108a9.85 9.85 0 00.114-.269 13.67 13.67 0 01.161-.376 20 20 0 00.207-.49c.136-.329.152-.365.205-.485a.879.879 0 00.04-.098c0-.005.026-.067.058-.137s.075-.17.096-.221c.02-.052.057-.139.082-.194a.853.853 0 00.046-.108c0-.005.018-.05.04-.099.053-.119.069-.156.205-.484.064-.156.138-.33.164-.386.026-.057.102-.235.168-.396a17.33 17.33 0 01.195-.46c0-.005.02-.054.045-.109.025-.054.085-.197.134-.316.095-.23.112-.271.184-.433.026-.057.1-.23.164-.386.12-.288.142-.342.196-.466.04-.091.075-.175.114-.268.07-.169.105-.219.32-.463.157-.18.31-.306.585-.489.093-.061.18-.12.192-.13.012-.011.028-.02.034-.02a.926.926 0 00.122-.075c.061-.041.115-.075.12-.075.005 0 .1-.052.211-.115.112-.063.3-.153.42-.199.12-.046.236-.09.256-.1.12-.05.276-.102.518-.169l.33-.093c.218-.068 1.269-.121 1.542-.078.063.01.204.027.312.039.187.02.313.038.509.075a22.344 22.344 0 00.414.075l.207.038c.107.02.33.096.523.18.14.061.185.08.222.09a.516.516 0 01.127.103l.09.09-.013.135c-.008.083-.024.147-.044.168a1.192 1.192 0 00-.076.1c-.061.089-.038.071-.433.324-.123.078-.564.335-.575.335-.005 0-.062.032-.126.072-.065.04-.131.077-.147.084a1.355 1.355 0 00-.094.053 4.954 4.954 0 01-.16.092l-.16.088-.216.12a7.353 7.353 0 00-.241.134.908.908 0 01-.098.053c-.004 0-.104.056-.22.124-.222.13-2.47 1.25-2.507 1.25a1.72 1.72 0 00-.148.065 23.52 23.52 0 01-.458.199 26.968 26.968 0 00-.527.227c-.005 0-.062.023-.127.053a5.97 5.97 0 01-.184.079.452.452 0 00-.222.152c-.073.08-.081.098-.098.236a5.899 5.899 0 00-.075.675l-.038.565-.038.555a417.62 417.62 0 01-.113 1.704 58.966 58.966 0 01-.113 1.554 41.07 41.07 0 00-.075.781 153.352 153.352 0 00-.075.791c-.01.093-.026.271-.037.395-.053.592-.112 1.139-.125 1.16a1.697 1.697 0 00-.027.18c-.01.092-.028.226-.038.299l-.037.277c-.102.795-.097.76-.17 1.172a58.17 58.17 0 01-.094.537l-.035.207c-.03.158-.1.564-.153.876a4.94 4.94 0 01-.124.48c-.028.099-.052.192-.203.772l-.097.367a4.247 4.247 0 00-.046.179 6.07 6.07 0 01-.208.706c-.01.02-.128.372-.264.781-.136.41-.268.789-.293.844a1.108 1.108 0 00-.045.107 70.586 70.586 0 00-.508 1.186 71.83 71.83 0 01-.292.678 64.81 64.81 0 00-.756 1.798c-.011.055-.009.057.052.057.05 0 .084-.02.168-.099l.264-.24c.087-.076.235-.213.328-.302.093-.089.224-.212.291-.273l.217-.199a113.722 113.722 0 00.942-.845c.12-.109.28-.253.357-.32l.38-.34c.133-.12.264-.234.291-.254a32.4 32.4 0 00.375-.3c.372-.302.428-.347.57-.456.056-.043.114-.09.128-.104.015-.014.111-.092.215-.175.103-.082.192-.154.197-.16a2.24 2.24 0 01.079-.061c.038-.028.08-.062.094-.075a1.67 1.67 0 01.091-.077 50.605 50.605 0 00.697-.569l.207-.169a9.36 9.36 0 01.876-.668c.103-.071.213-.147.244-.17.165-.117.33-.23.519-.358.116-.077.22-.15.232-.16.012-.01.108-.078.215-.15a51.856 51.856 0 00.722-.498c.243-.168.315-.218.402-.282.1-.073.421-.265.444-.265.01 0 .018-.009.018-.02 0-.01.008-.018.018-.018.01 0 .084-.039.165-.087.08-.047.193-.112.25-.143.057-.032.14-.082.184-.111a.73.73 0 01.088-.054c.005 0 .107-.06.228-.132.121-.073.223-.132.225-.132.003 0 .091-.05.196-.113.104-.062.198-.113.209-.113.01 0 .018-.008.018-.019 0-.01.008-.018.017-.018.014 0 .122-.059.21-.114a16.119 16.119 0 01.56-.326c.038-.024.451-.237.917-.473s.856-.436.866-.444a85.197 85.197 0 012.411-1.185c.004 0 .213-.1.465-.223.251-.123.555-.269.674-.324.119-.056.26-.134.313-.174.085-.063.098-.082.11-.158.017-.118.014-.41-.008-.637-.01-.104-.027-.311-.038-.461a125.298 125.298 0 00-.076-.989 80.9 80.9 0 01-.075-.97l-.038-.48c-.01-.114-.026-.334-.038-.49-.01-.155-.029-.37-.04-.48a32.17 32.17 0 01-.034-2.146c.01-.14.025-.4.036-.578a4.83 4.83 0 01.077-.674c.034-.253.184-.685.354-1.017.123-.242.165-.304.288-.433a1.63 1.63 0 01.33-.266c.155-.097.38-.214.41-.214.005 0 .058-.023.118-.05.188-.086.447-.12.936-.12.323 0 .455.007.527.028.053.015.172.045.265.067.093.022.229.066.301.098.282.124.549.26.594.301.025.024.089.077.14.119.052.04.108.087.123.103.016.016.066.058.113.094s.093.074.104.085c.038.038.235.47.309.678.033.093.078.211.1.263.049.119.068.327.083.904.012.475-.002.724-.07 1.215-.04.293-.096.632-.13.776a.837.837 0 00-.007.223c.012.129.014.134.103.212.078.068.135.094.388.177a10.747 10.747 0 00.636.194l.188.056a23.978 23.978 0 01.876.264 47.384 47.384 0 01.875.28 209.758 209.758 0 01.895.283l.376.118.236.073.197.062a48.155 48.155 0 00.697.218l.132.039c.046.013.131.038.188.057l.301.093c.109.032.22.066.245.075.04.014.172.054.508.155a6.196 6.196 0 00.395.128l.302.093c.057.018.167.053.245.076a78.023 78.023 0 00.659.208c.17.054.349.11.395.126.047.016.11.035.142.044.03.008.103.031.16.051.056.02.167.056.244.08l.279.087c.143.047.222.055.265.028.037-.024 0-.09-.154-.287l-.362-.46a11.035 11.035 0 01-.623-.827c-.157-.22-.403-.646-.403-.697 0-.005-.025-.064-.056-.132a1.524 1.524 0 01-.057-.133.799.799 0 00-.037-.093l-.076-.17a.78.78 0 01-.037-.093c0-.005-.029-.07-.064-.146a1.65 1.65 0 01-.095-.275 20.8 20.8 0 01-.124-.606 14.92 14.92 0 00-.064-.31 3.55 3.55 0 01-.067-.593c-.024-.466-.025-1.187-.002-1.32l.04-.234c.08-.499.15-.8.226-.98l.176-.438c.092-.23.182-.428.213-.464l.147-.18c.052-.066.128-.159.17-.208l.216-.263.16-.195c.114-.125.132-.17.138-.343l.007-.17-.125-.111-.124-.11v-.152c0-.084.01-.184.02-.222.02-.07.022-.071.11-.071s.093.003.239.155c.082.086.188.198.235.25a.727.727 0 00.136.12c.047.025.054.023.13-.046.247-.22.606-.572.638-.622.033-.055.036-.097.036-.54v-.482l-.076-.088a1.704 1.704 0 00-.329-.272 13.327 13.327 0 01-.16-.116 4.71 4.71 0 00-.254-.17 15.426 15.426 0 01-.621-.392.873.873 0 01-.119-.072 1.71 1.71 0 00-.135-.085 1.855 1.855 0 01-.136-.083l-.368-.234c-.306-.193-.381-.271-.381-.399 0-.07.01-.095.058-.142.031-.032.067-.058.08-.058.32.01.53.042.784.12a7.228 7.228 0 011.227.502c.289.146.296.148.336.116.063-.051.086-.313.059-.663a6.875 6.875 0 01-.021-.387c0-.1-.024-.247-.094-.578a113.83 113.83 0 01-.096-.456c-.038-.18-.19-.653-.64-2.007-.179-.537-.23-.665-.41-1.035-.112-.233-.244-.504-.291-.604a6.57 6.57 0 00-.21-.391 4.184 4.184 0 01-.123-.22 1.5 1.5 0 00-.076-.13 1.439 1.439 0 01-.075-.132c0-.004-.032-.061-.07-.127a24.607 24.607 0 01-.09-.151c-.138-.24-.406-.622-.498-.711a2.247 2.247 0 01-.114-.132 3.416 3.416 0 00-.094-.113 1.778 1.778 0 01-.075-.094 4.38 4.38 0 00-.217-.265 8.338 8.338 0 00-.275-.328c-.43-.476-1.173-1.26-1.283-1.352-.26-.217-.462-.414-.5-.484-.034-.065-.04-.096-.03-.182.012-.095.022-.112.137-.23a6.51 6.51 0 01.32-.295l.32-.276c.069-.06.188-.161.266-.225.078-.065.154-.131.17-.148a1.46 1.46 0 01.346-.25c.1-.046.114-.048.214-.028.127.026.277.131.414.291l.174.204c.047.054.123.155.17.225.046.07.105.154.131.189.087.117.39.564.428.631.02.036.129.244.24.461.112.218.21.404.218.415.026.036.489.96.49.98 0 .01.017.051.036.093a.52.52 0 01.038.09c0 .014.03.084.104.249.014.03.03.08.038.108.007.029.02.057.03.063.009.005.017.022.017.037s.016.063.035.107c.02.044.097.237.171.428l.151.387c.009.02.043.11.075.197.032.088.066.177.076.198.01.02.07.169.133.33.063.16.131.327.151.37.02.044.036.085.036.091a4.335 4.335 0 01.17.498c.05.17.146.481.168.547.071.21.147.512.282 1.115l.077.325c.203.851.232.98.264 1.196.035.235.059.381.078.48.01.052.026.143.034.204.026.173.15.373.358.577.026.026.124.135.217.243.336.387.379.437.546.623.325.364.395.449.433.52.02.04.1.183.176.318.13.23.393.836.433 1l.056.215c.086.324.168.658.19.781l.058.31c.036.189.06.39.094.81.012.14.03.325.04.41.01.087.026.311.036.5.01.188.027.449.036.578l.038.504c.023.318.024.328.1.522.046.12.111.222.326.509a12.579 12.579 0 00.53.684.959.959 0 00.08.097c.016.016.052.06.08.097.028.038.074.093.103.122.03.03.116.126.194.214s.162.18.188.207c.026.026.102.11.169.188.1.117.56.594 1.027 1.064a13.14 13.14 0 00.626.569c.013.012.04.027.061.034.02.006.038.02.038.03 0 .009.008.017.018.017a.69.69 0 01.127.07c.06.039.123.08.141.09l.245.152c.117.074.262.162.324.196.06.033.186.107.279.162a5.257 5.257 0 00.692.343 5.342 5.342 0 00.477.2c.033.014.132.053.22.086.088.033.177.068.197.077.069.03.978.332 1.036.343l.235.05.358.076.358.076a10.388 10.388 0 00.645.13 39.812 39.812 0 00.626.114c.134.025.443.07.635.093.391.048.504.062.664.087l.33.047c.088.011.206.028.263.038.23.037.675.058 1.114.052.256-.003.47-.01.475-.016.032-.033-.024-.1-.146-.172a7.275 7.275 0 01-.379-.254l-.301-.214a19.838 19.838 0 01-.763-.586 1.823 1.823 0 01-.15-.133 9.892 9.892 0 00-.273-.252 3.271 3.271 0 01-.423-.422 2.158 2.158 0 00-.123-.141 2.26 2.26 0 01-.123-.141 3.91 3.91 0 00-.156-.179 2.477 2.477 0 01-.19-.255c-.31-.468-.407-.618-.407-.628 0-.006-.046-.107-.101-.223-.201-.42-.257-.543-.257-.561a.139.139 0 00-.019-.052c-.073-.128-.157-.413-.226-.767-.048-.25-.074-.394-.093-.527a10.698 10.698 0 00-.078-.49c-.05-.256-.077-2.971-.036-3.709l.038-.715a29.678 29.678 0 01.075-1.092c.01-.145.028-.34.038-.433.01-.094.026-.276.038-.405a32.775 32.775 0 01.075-.782l.037-.386.039-.395c.01-.12.032-.31.046-.424.025-.194.04-.382.084-1.087l.068-1.04c.01-.126.03-.771.058-1.826.03-1.113-.127-5.828-.22-6.6l-.037-.325c-.05-.448-.06-.524-.075-.655-.01-.077-.027-.226-.038-.329a20.16 20.16 0 00-.15-1.106l-.038-.26a7.36 7.36 0 00-.039-.235l-.055-.3-.056-.311a17.753 17.753 0 00-.16-.754.739.739 0 01-.031-.116 13.162 13.162 0 00-.04-.185l-.033-.15a8.728 8.728 0 00-.205-.82 1624.921 1624.921 0 00-.23-.828 10.201 10.201 0 00-.114-.348l-.231-.688a8.782 8.782 0 00-.186-.517 6.388 6.388 0 01-.108-.255 9.613 9.613 0 00-.193-.46 12.804 12.804 0 01-.108-.265 35.503 35.503 0 00-.715-1.44 9.74 9.74 0 01-.187-.358 12.58 12.58 0 00-.214-.408 448.94 448.94 0 00-.75-1.24 2.395 2.395 0 00-.06-.1 2.377 2.377 0 01-.068-.112l-.061-.11a.404.404 0 00-.035-.054.638.638 0 01-.042-.066 63.176 63.176 0 00-.888-1.44 11.096 11.096 0 00-.196-.273 5.592 5.592 0 01-.097-.141 1.567 1.567 0 00-.095-.132 2.087 2.087 0 01-.109-.15 14.71 14.71 0 00-.332-.472 10.439 10.439 0 01-.152-.21c-.159-.228-.197-.274-.81-.975a26.13 26.13 0 01-.244-.284l-.196-.228a30.21 30.21 0 00-1.298-1.266 32.593 32.593 0 00-1.33-1.141l-.322-.264a11.995 11.995 0 00-.188-.15 7.407 7.407 0 01-.176-.143 2.034 2.034 0 00-.134-.103 1.245 1.245 0 01-.113-.089 2.204 2.204 0 00-.197-.141 2.398 2.398 0 01-.176-.122c-.014-.013-.032-.024-.041-.024-.009 0-.027-.01-.041-.024a.65.65 0 00-.084-.061c-.033-.02-.198-.13-.368-.242a23.492 23.492 0 00-.546-.36l-.138-.085a6 6 0 00-.536-.297c-.571-.295-.576-.296-.65-.242-.03.022-.033.043-.023.174a2.2 2.2 0 00.048.3l.08.338c.06.268.114.471.206.763.044.14.084.294.089.343.016.169-.022.147-.397-.232a18.56 18.56 0 00-.592-.573 50.995 50.995 0 00-1.059-.941c-.436-.387-.65-.557-1.178-.941-.1-.073-.19-.141-.203-.152a3.861 3.861 0 00-.321-.216 1.01 1.01 0 01-.119-.073c-.06-.04-.172-.113-.25-.162l-.235-.15a3.926 3.926 0 00-.207-.123 16.104 16.104 0 01-.396-.22 6.444 6.444 0 00-.602-.288 1.99 1.99 0 01-.155-.068c-.157-.072-.427-.164-1.361-.46a8.563 8.563 0 00-.829-.207L30.706.49l-.263-.056a15.196 15.196 0 01-.264-.057 17.213 17.213 0 00-.461-.096 7.033 7.033 0 01-.17-.035A6.065 6.065 0 0029.37.21l-.19-.037a7.902 7.902 0 00-.235-.04A7.237 7.237 0 0027.539 0c-.187 0-.217.004-.25.037zm-3.116 20.071a15 15 0 011.186.096c.711.097.72.098 1.27.206l.481.094c.186.036 1.153.305 1.516.421.177.057.332.105.583.18.188.057.344.114.522.193a.65.65 0 00.09.035c.007 0 .047.015.09.035.044.019.19.079.325.133.235.095 1.614.766 1.807.88.052.03.154.088.226.127.073.04.381.238.686.441.581.389.66.458.66.576 0 .058-.05.127-.307.425l-.144.17-.18.207a14.32 14.32 0 00-.206.244l-.217.255c-.047.053-.152.174-.233.27-.11.126-.16.172-.194.172a.802.802 0 01-.215-.113 1.988 1.988 0 00-.182-.113c-.006 0-.024-.012-.04-.026a1.012 1.012 0 00-.124-.077 46.449 46.449 0 01-.669-.376 17.4 17.4 0 00-1.516-.707 3.65 3.65 0 00-.392-.144l-.577-.187a16.153 16.153 0 00-.81-.25c-.423-.128-.57-.17-.687-.19a7.04 7.04 0 01-.377-.073l-.198-.04c-.668-.134-.7-.138-1.61-.201-.537-.038-1.767-.027-2.501.021-.528.035-.604.03-.657-.052-.026-.04-.047-.16-.09-.513l-.037-.316-.038-.324a61.88 61.88 0 00-.112-.923c-.024-.182.04-.27.23-.319.602-.152 1.192-.223 2.029-.243a6.83 6.83 0 00.244-.008c.026-.002.192.005.368.014z" fill="#C7A363"/></svg>