<svg width="64" height="54" fill="none" xmlns="http://www.w3.org/2000/svg"><path d="M20.015 41.797c.065-.326.044-.695.217-.868.868-.803.651-1.845.651-2.822 0-4.949.022-9.897 0-14.846 0-.564-.325-1.128-.477-1.714-.174-.695-.326-1.411-.543-2.3h9.377c-.26.932-.478 1.714-.695 2.517-.13.434-.347.868-.347 1.324-.022 5.426-.022 10.852.021 16.256 0 .478.348.955.565 1.433.239.542.65 1.194-.39 1.215-2.627.044-5.275 0-7.901-.021-.13 0-.217-.087-.478-.174zm2.822-2.843h.173v-16.8h-.173v16.8zm3.147-.044h.195V22.155h-.195V38.91zm-1.52 0c.066 0 .11 0 .174.022V22.22h-.173v16.69zm10.528 2.887c.065-.326.043-.695.217-.868.868-.803.65-1.845.65-2.822 0-4.949.023-9.897 0-14.846 0-.564-.325-1.128-.477-1.714-.173-.695-.325-1.411-.542-2.3h9.376c-.26.932-.477 1.714-.694 2.517-.13.434-.348.868-.348 1.324-.021 5.426-.021 10.852.022 16.256 0 .478.347.955.564 1.433.239.542.651 1.194-.39 1.215-2.627.044-5.274 0-7.9-.021-.131 0-.218-.087-.478-.174zm2.821-2.843h.174v-16.8h-.174v16.8zm3.147-.044h.196V22.155h-.196V38.91zm-1.519 0c.065 0 .109 0 .174.022V22.22h-.174v16.69zM49.75 19.203h9.485c-.304.998-.543 1.823-.782 2.648-.108.412-.303.825-.303 1.237a1335.27 1335.27 0 00.021 16.17c0 .52.326 1.063.586 1.54.456.826.282 1.238-.63 1.238-2.387.022-4.774.022-7.162 0-.303 0-.803-.13-.824-.282-.065-.304.087-.673.195-.998.174-.587.543-1.173.543-1.759.043-5.209.021-10.418 0-15.627 0-.477-.174-.976-.304-1.454-.239-.868-.521-1.693-.825-2.713zm4.623 19.708c.065 0 .13-.022.195-.022V22.177h-.195V38.91zm1.802-16.713c-.066 0-.13.022-.196.022v16.712h.196V22.198zm-3.17-.021h-.151v16.755h.152V22.177zM14.85 16.058c.282 1.801-.283 2.474-1.932 2.474-2.344 0-4.71.065-7.054-.044-.543-.021-1.216-.477-1.52-.933-.607-.868-.151-1.606.912-1.606 2.93-.022 5.86 0 8.79 0 .282 0 .543.065.803.109zm39.568-.111c1.367 0 2.756-.022 4.123 0 .587.021 1.39-.26 1.346.846-.022.89-.608 1.693-1.432 1.715-1.52.043-3.039.021-4.558.021-1.042 0-2.105.11-3.147-.043-.543-.087-1.194-.5-1.52-.977-.586-.868-.108-1.562.934-1.562 1.432-.022 2.843 0 4.254 0zm-29.866 0c1.367 0 2.757-.022 4.124.022.52.021 1.237-.26 1.28.694.044.868-.52 1.845-1.28 1.867-2.735.043-5.491.065-8.226 0-.868-.022-1.628-1.411-1.215-2.15.13-.216.586-.368.89-.368 1.454-.087 2.93-.065 4.427-.065zm14.975-.001c1.346 0 2.67-.021 4.016.022.52.022 1.324-.347 1.389.695.065.868-.521 1.845-1.28 1.845-2.736.043-5.492.043-8.227 0-.825-.022-1.563-1.26-1.237-2.062.109-.24.586-.456.912-.478 1.454-.043 2.951-.022 4.427-.022zm9.139 27.413c.738-.239 1.476-.651 2.214-.673 2.409-.087 4.84-.087 7.25 0 .737.022 1.475.456 2.191.695-.043.13-.065.282-.108.412H48.775c-.022-.152-.066-.282-.109-.434zm-3.452.456H33.798c-.043-.13-.087-.26-.108-.39.694-.261 1.367-.717 2.061-.739 2.518-.087 5.058-.087 7.597 0 .694.022 1.367.5 2.062.76-.087.13-.13.26-.196.369zm-15.018.002H18.93c-.043-.109-.108-.218-.152-.326.586-.282 1.15-.76 1.758-.781a123.56 123.56 0 018.03 0c.587.021 1.173.499 1.759.76-.043.108-.087.216-.13.347zm-14.955.021H3.933c-.043-.108-.087-.239-.152-.347.586-.282 1.172-.76 1.758-.781 2.67-.087 5.34-.087 8.01 0 .629.021 1.236.52 1.844.803-.043.087-.109.195-.152.325zm-2.04-4.515c-.043-5.426-.021-10.83 0-16.256 0-.435.24-.869.37-1.325.216-.78.412-1.584.672-2.539H4.89c.238.933.455 1.736.65 2.54.131.499.37 1.02.37 1.54.021 3.734.021 7.488.021 11.222.348.564.608 1.215.63 1.823.022.586-.152 1.15-.087 1.714.043.326.152.63.217.955.174.803.109 1.65.37 2.41-.24-.37-.457-.76-.5-1.194-.022-.217 0-.434 0-.673-.022-.52-.282-.998-.304-1.52 0-.26.043-.542-.022-.802s-.238-.5-.282-.76v-.087 1.758c0 .955.196 1.932-.65 2.713-.196.174-.175.586-.283 1.042.456.065.738.13 1.02.13 2.344 0 4.688.022 7.054 0 .304 0 .846-.13.846-.238.044-.37-.108-.738-.217-1.107-.152-.456-.499-.912-.52-1.346zm-5.122-.456h-.195v-16.69h.195v16.69zm1.585.044h-.196V22.177h.196V38.91zm1.584 0h-.195V22.177h.195V38.91zm50.614-25.069a39.099 39.099 0 010-3.907c.043-.781-.217-1.15-.999-1.367-2.127-.608-4.232-1.194-6.359-1.802-.39.174-.781.39-1.172.586-.282.152-.564.304-.781.521-.26.26-.434.608-.586.955-.217.5-.5.13-.652.673-.065.239-.369.586-.542.76-.152.152-.37.455-.564.499a.45.45 0 00-.217.13c-.022.087.065.174-.174.434-.152.174-.065.13-.087.347 0 .066 0 .174-.022.218-.043.065-.303.238-.369.26-.195.108-.607.282-.868.586.196-.239.5-.39.63-.673.021-.043.043-.108.065-.152a.472.472 0 01.195-.152c.304-.173.413-.63.651-.868 0-.043.044-.065.109-.109-.543.11-.847.63-1.411.63a1.67 1.67 0 00-.456.065c-.152.065-.282.174-.412.26-.673.413-1.216-.13-1.997.022-.195.044-1.65-.347-1.91-.586-.26-.26-.803-.499-1.15-.63.868.24 1.823.413 2.648.76.738.304 1.389.434 2.213.24.673-.153 1.324-.457 1.932-.804l.196-.13a.767.767 0 00.173-.282c.239-.434.651-.782 1.064-1.064.325-.239.694-.456.89-.803.151-.26.195-.586.347-.868.195-.347.586-.564.955-.716.26-.109.52-.196.781-.26-2.67-.76-5.34-1.52-8.03-2.301a6.07 6.07 0 01-.283.89.314.314 0 00-.043.151c0 .044.022.066.022.109a.537.537 0 01-.022.26c-.152.543-.39 1.064-.39 1.628 0 .217.108.63-.022.803-.24-.13-.348-.955-.434-1.215.325-.26.434-.673.52-1.064.066-.39.087-.824.283-1.172.086-.152.173-.282.282-.412C41.48 3.055 37.097 1.796 32.69.537a2.442 2.442 0 00-1.367 0c-5.773 1.65-11.59 3.3-17.385 4.97-.282.543-.37 1.238-.673 1.802-.347.63-1.064.846-1.367 1.52-.217.477-.37 1.084-.673 1.497-.26.347-.434.976-.934 1.671l.26-1.129s-.672.673-.737.76c-.326.434-.868.847-1.346 1.129-1.041.586-1.519.586-2.734.673.347-.044 2.17-.304 3.342-1.585-.174-.022 2.018-1.845 2.105-1.975l.26-1.085c-.433.152-1.54.477-1.996.477.022 0 .52-.108.13-.173-.63-.087-1.28-.152-1.888.021 0 0 .586-.304.89-.282a5.66 5.66 0 002.54-.369c.824-.325 1.584-.977 1.866-1.823.108-.304.152-.63.282-.912-3.408.955-6.793 1.91-10.18 2.887-.694.195-.91.543-.89 1.237.044 1.368.066 2.757 0 4.124-.02.803.283 1.02 1.086 1.02 9.55-.022 19.1-.022 28.65-.022h12.262c5.492 0 11.005-.021 16.496.022.868.022 1.215-.239 1.172-1.15zm2.105 35.291c-.022-.26-.434-.673-.673-.694-.738-.044-.933-.37-.89-1.042.022-.39 0-.803 0-1.194-.022-1.498-.022-1.498-1.476-1.498-9.05-.021-18.101-.021-27.152-.043.26.282.478.63.803.868.217.174.5.26.738.413.63.347 1.107.89 1.78 1.15-.39-.043-.803-.109-1.107-.326-.152-.108-.282-.26-.434-.39-.347-.282-.825-.39-1.15-.673-.174-.152-.304-.347-.521-.456-.217-.108-.478-.108-.673-.239-.109-.065-.217-.195-.347-.238-.087-.044-.196-.044-.304-.044-.044 0-.109-.021-.152-.021h-2.974c-8.4 0-16.777.021-25.177.043-2.105 0-2.452 0-2.56 1.454.043 0 .108-.022.151-.022a4.187 4.187 0 011.042.022c.716.087 1.39.326 2.062.564.456.152.998.478.89.934-.239-.196-.651-.348-.825-.109-.087.13-.065.304-.043.456.043.239.065.5.108.738.087.586.239 1.28.76 1.563.13.065.304.13.369.26.043.087.021.195.021.304l-.13.912c-.021.195-.021.455.174.52a2.134 2.134 0 00-.109.348.551.551 0 00-.412.043c.065.26.043.543 0 .803h34.879c-.326-.065-.63-.152-.934-.239-1.324-.39-2.56-.976-3.885-1.324-.738-.195-1.476-.325-2.214-.477-1.866-.412-3.754-1.085-5.6-1.39.912.044 1.867.11 2.866.37.499.13.998.325 1.52.477 1.171.348 2.343.456 3.515.803.608.196 1.216.434 1.823.565.608.13 1.194.13 1.802.282.369.087.738.239 1.107.304.239.043.477.043.694.043.999.043 2.149.326 3.278.608h17.146c.477 0 .933-.022 1.41 0 .543.022.804-.174.782-.76.044-1.28.087-2.474.022-3.668z" fill="#C7A363"/><path d="M5.539 51.022a.808.808 0 00-.217-.477c-.109-.109-.282-.174-.434-.26-.348-.218-.521-.652-.565-1.064-.043-.412.044-.825.066-1.237 0-.087 0-.174-.044-.239-.065-.108-.239-.13-.39-.108-.521.065-1.759.325-2.453.065-.195.282-.412.607-.651.65-.651.088-.868.326-.847.977a38.044 38.044 0 010 3.148c-.043.76.239.998.999.998h4.145c.174-.825.565-1.65.39-2.453z" fill="#C7A363"/></svg>