<svg width="64" height="64" fill="none" xmlns="http://www.w3.org/2000/svg"><g clip-path="url(#clip0_13385_1343)"><path d="M7.501 1.785c.128.173.234.42.405.494.405.148.852.346 1.236.247.788-.222 1.235.395 1.768.766.447.296.83.741 1.236 1.16.255.248.468.52.702.791.32.42.533.816.17 1.408-.19.321-.255.741-.34 1.112-.107.395.021.667.405.568.703-.173 1.3.124 1.96.37 1.065.42 2.194.668 3.323.89.789.148 1.598.025 2.386.222 1.79.445 3.6.321 5.39.346h.043c.873.543 1.683 0 2.514-.173 3.004-.543 6.008-1.112 9.012-1.68.234-.049.468-.049.681-.148.256-.099.49-.272.725-.42 0-.074.02-.123.02-.197l.448.444c.043.05.107.074.17.074.895-.049 1.812-.049 2.706-.148.47-.05.938-.222 1.428-.346.064.247.128.42.149.544 1.363-.568 2.77-.544 4.176-.494 1.086.024 2.173.197 3.26.32.276.026.553.05.49-.518.361.716.894.593 1.363.568 2.45-.123 4.836.198 7.094 1.408.959.519 1.853 1.062 2.62 1.927.15.173.277.494.256.716-.213 1.285-.49 2.57-.703 3.878-.384 2.347-.767 4.669-1.044 7.04-.256 2.199-.469 4.422-.575 6.645-.15 3.113-.256 6.225-.192 9.337.064 2.693.34 5.385.618 8.053.128 1.285.447 2.544.703 3.804.554 2.618 1.129 5.237 1.683 7.855.085.42.213.84.213 1.285 0 .691-.596.296-.873.543-.405.346-.938.519-1.45.642-1.15.321-2.236.865-3.472.815-1.96-.074-3.834-.568-5.73-1.111-.363-.099-.49-.395-.427-.815.085-.445.17-.89.235-1.334.106-.692-.043-.939-.618-.815-.426.099-.852-.346-1.278.05-.043.048-.277-.174-.47-.322-.532.716-1.299.42-2.023.445-.724.024-1.47.098-2.194.148-1.172.099-2.344.173-3.516.296-1.193.124-2.386.321-3.579.445-.426.05-.852 0-1.086-.544-.128-.271-.32-.32-.448-.074-.383.79-1.043.865-1.704.964-1.363.222-2.727.518-4.09.74-1.428.223-2.876.322-4.325.52-.938.123-1.854.37-2.79.444-1.641.124-3.303.173-4.965.247-1.001.05-2.002.148-3.025.198-.469.024-.937-.1-1.406-.148-.128-.025-.256 0-.384 0l-2.684-.075c-.298 0-.596.025-.873 0a267.2 267.2 0 01-4.474-.197c-.128 0-.277-.074-.384 0-.596.395-1.086 0-1.555-.297a12.228 12.228 0 01-1.555-1.185c-.384-.346-.66-.816-1.002-1.21-.468-.544-1-1.038-1.384-1.656-.277-.444-.554-.938-.448-1.63.256-1.73.384-3.483.597-5.212.256-1.927.596-3.829.81-5.755.212-1.977.298-3.953.404-5.929.064-1.408.107-2.84.128-4.248.021-2.05.021-4.126.021-6.176.022-2.791.086-5.582.064-8.374 0-1.877-.128-3.78-.17-5.656-.021-.89.085-1.779.021-2.668-.149-1.853-.383-3.705-.575-5.533a1.227 1.227 0 01.17-.717c.17-.247.448-.37.66-.568.278-.272.832-.247.789-.914 0-.05.15-.148.234-.173.746-.197 1.47-.42 2.216-.592.66-.149 1.32-.297 1.896.271.447-.32.107-.642.064-.963-.043-.025.064-.025.15-.025zM9.227 56.55c-1.215.123-2.429.197-3.643.345-.469.05-.746-.024-.618-.74-.511.222-.959.42-1.385.617.575.247 1.15.37 1.726.494.149.024.34-.05.468.024.47.248.895.396 1.385.025.085-.074.362-.074.384-.025.255.618.66.322 1.044.322.021-.717.149-.84.681-.865.043.247.086.47.128.766.895-.692.81-1.68.66-2.693h.235c.064.247.128.494.17.717.299-.223.299.099.363.296.085.297.106.716.49.593.277-.099.532-.321.81-.494-.661-1.136-1.79-1.31-2.621-1.951.042.469.106.988.17 1.506.021.47-.042.865-.447 1.063zm-6.732 1.309c.127.222.234.494.404.667.32.345.682.617 1.044.914.256.222.49.444.746.642.043-.05.085-.074.15-.124 0-.197.02-.395.02-.593.022-.296.043-.592.107-.889.021-.074.192-.123.405-.247.042-.222-.107-.395-.469-.47-.703-.123-1.406-.32-2.11-.493-.042-.766-.084-1.532-.127-2.396-.533.42-1.044.79-1.555 1.185.042-.42.106-.84.149-1.21.256-.099.49-.173.703-.272.682-.296 1.363-.642 2.067-.864.383-.124.468-.297.447-.716-.021-.322-.021-.643-.021-.94.085 0 .149-.024.234-.024.064.346.106.667.17 1.013.022-.445 0-.865.022-1.31 0-.123.128-.246.191-.37.064.124.192.272.17.346-.17.741.512.988.64 1.556.021.05.17.074.256.074.511-.024 1.001-.074 1.491-.123.021-.42.021-.717.043-1.013.042 0 .085 0 .149-.025.064.148.128.321.149.42.106-.074.213-.173.34-.271.065.148.129.32.171.469.021.123-.021.272.021.395.064.124.17.222.277.346.086-.124.192-.222.235-.346.064-.222.042-.494.128-.716.042-.148.191-.272.277-.395l.255.37c.192.321.32.716.554.988.213.247.703.124.682.692 0 .05.149.173.234.148.235-.025.384.05.469.321.021.074.17.124.34.222-.02-.197-.02-.345-.042-.444a85.864 85.864 0 01-.554-2.223c-1.15-4.718-1.385-9.56-1.619-14.401-.128-3.014-.085-6.028-.085-9.066 0-1.358.064-2.717.149-4.076.128-1.976.256-3.952.426-5.928.128-1.655.234-3.31.469-4.94.34-2.396.81-4.768 1.598-7.04.213-.618.106-.964-.299-1.21-.447.37-.468 1.284-1.235 1.26-.043-.47-.064-.915-.107-1.409-.362.148-.554.099-.426-.395.064-.247.085-.519.15-.766.19-.79-.384-.716-.725-.89-.405-.197-.554.026-.618.47-.021.1-.192.223-.277.223-.085-.025-.192-.198-.213-.322-.021-.148 0-.32.021-.494-.404-.098-.532.198-.639.494-.128.396-.213.84-.34 1.236-.043.098-.171.172-.278.271-.042-.123-.106-.247-.106-.395 0-.148.064-.321.064-.321-.17-.247-.298-.395-.341-.568-.17-.692-.511-.964-1.13-.865-.34.074-.68.148-1 .272-.32.123-.618.321-.917.519-.17.098-.298.271-.468.42.042.444.106.963.17 1.482-.064.024-.149.024-.213.05-.085-.297-.192-.569-.298-.915 0 .173.042.297 0 .395-.064.173-.15.297-.234.47a4.471 4.471 0 01-.235-.445c-.064-.148-.085-.321-.128-.494H2.26c-.064.346-.191.716-.17 1.062.106 1.458.298 2.915.362 4.397.128 2.89.213 5.78.256 8.67.042 3.187 0 6.373-.022 9.56-.02 2.149-.042 4.298-.064 6.447-.02.89.022 1.778-.063 2.668-.277 3.087-.576 6.175-.874 9.287-.106 1.186-.15 2.372-.277 3.533-.17 1.531-.405 3.063-.618 4.594-.064.42-.106.84.256 1.137.17.148.469.271.49.444.085.716.575.914.959 1.285zm59.63-.445c.32-.074.32-.346.235-.815-.17-.914-.618-1.68-.746-2.618-.447-2.915-1.15-5.78-1.342-8.745-.15-2.05-.384-4.1-.448-6.15-.063-1.853 0-3.73.064-5.608.086-2.346.192-4.718.384-7.064.17-2.1.383-4.2.681-6.275.341-2.272.81-4.545 1.215-6.817.021-.124.021-.247.042-.37-.042-.025-.106-.075-.149-.1-.106.173-.191.346-.298.494-.085.1-.192.173-.277.272-.042-.148-.128-.296-.106-.42.106-.494.298-.938.404-1.432.043-.198 0-.52-.127-.643-.277-.296-.618-.518-.938-.716-.532-.321-1.065-.593-1.598-.89-.255.668.043 1.532-.703 1.853-.085.272-.191.593-.298.89-.064-.025-.15-.025-.213-.05 0-.197-.021-.395 0-.593.064-.592.15-1.185.213-1.803.064-.543-.192-.79-.64-.84-1.299-.148-2.577-.346-3.877-.469-.276-.025-.66.074-.83.296-.299.396-.703.816-.618 1.482.021.124-.128.272-.192.42-.043 0-.106-.024-.149-.024-.064-.593-.15-1.186-.213-1.828-.043-.025-.15-.05-.234-.074-1.79-.445-3.622-.519-5.454-.42-.789.05-1.492.642-1.683 1.531-.362-.024-.725-.05-1.13-.074a38.222 38.222 0 01-.127-.89c-.15.026-.256.1-.384.075-.447-.074-.916-.222-1.363-.272-.959-.099-1.449.494-1.492 1.606 0 .197-.085.494-.191.543-.17.074-.384-.024-.469-.024 0-.667.021-1.21.021-1.73 0-.074-.17-.197-.234-.197-.511.099-1.044.222-1.534.321.064 1.161.064 1.161-.256 1.433-.042-.297-.085-.544-.085-.79-.021-.47-.149-.668-.618-.569-1.065.222-2.151.37-3.238.568-1.875.321-3.77.667-5.646 1.013-.149.025-.34.123-.383.272-.128.32-.192.691-.298 1.037-.064.272-.15.544-.235.815h-.149c-.064-.247-.149-.469-.17-.716-.128-1.186-.128-1.21-1.172-1.334a58.379 58.379 0 00-2.919-.296c-.106 0-.298.024-.298.074-.17.593-.34.346-.532-.173.02.766.191 1.408-.299 1.902-.085-.198-.106-.395-.128-.593l-.063-.667c-.022-.37-.17-.568-.533-.593-2.088-.123-4.07-.765-6.072-1.383-.021.247-.042.543-.106.84-.107.42-.256.84-.384 1.26-.042.148-.127.296-.191.444-.086-.173-.235-.345-.213-.494.127-.864-.256-1.531-.64-2.198-.063-.099-.191-.223-.255-.198-.107.05-.192.173-.235.297-.32 1.284-.703 2.544-.937 3.853a55.793 55.793 0 00-.618 4.99c-.192 2.198-.32 4.397-.405 6.595-.149 3.335-.404 6.67-.191 10.004.106 1.853.127 3.73.213 5.608.106 1.803.191 3.63.404 5.41a67.17 67.17 0 00.938 5.433c.32 1.458.788 2.89 1.193 4.323.085.346.17.692-.17.89-1.066.642-2.067 1.457-3.281 1.68-.512.098-1.044.197-1.577.172-.575 0-1.129-.123-1.704-.173-.107 0-.32.124-.32.198-.021.494-.021.988.043 1.457.021.173.255.42.405.47 1.15.197 2.322.345 3.493.493.363.05.746 0 1.087-.024.043-.395.043-.79.15-1.136.127-.346.383-.618.574-.914h.128c0 .469 0 .938.043 1.383.021.173.085.494.149.519.745.098 1.512.148 2.28.222.042 0 .063-.074.106-.099.15-.05.298-.074.533-.123.042-.692.106-1.507.149-2.298l.149-.172c.064.148.128.271.149.42.128.567.277 1.136.32 1.728.042.396.17.544.468.544.703 0 1.428-.025 2.13-.05-.02-.049-.063-.098-.085-.148.15-.173.277-.32.47-.518.106.271.17.42.233.568.107-.321.107-.642.128-.964 0-.098.107-.197.17-.296.065.099.192.173.192.272.043.296.043.617.086 1.062.106-.815-.192-1.507.277-2.125.106.494.149.964.149 1.458 0 .42.17.593.511.543.448-.05.916-.123 1.364-.123.681 0 1.363.074 2.045.024.724-.024 1.448-.049 2.045-.765.298-.37.49-.618.383-1.137-.042-.197.064-.42.086-.642.064 0 .106 0 .17.025.17.445.341.914.554 1.359.064.148.192.296.298.32.277.05.576.1.852.025.98-.222 1.94-.469 2.92-.716.68-.173.68-.148.809-1.062.213.321.362.519.532.79.043-.296.086-.518.15-.889.148.222.212.321.298.445 0-.297-.022-.568 0-.865 0-.099.106-.198.17-.296.085.074.213.148.213.247.043.247.064.518.021.79-.042.37.043.47.363.445.788-.074 1.597-.074 2.386-.148.17-.025.404-.1.49-.247.362-.618.745-1.186 1.342-1.458.255.297.618.544.703.89.128.469.34.518.682.493.298-.024.617-.024.937-.074 1.278-.123 2.556-.296 3.835-.395.724-.05 1.47-.05 2.194-.05.32 0 .469-.123.469-.518 0-.222.085-.42.128-.642h.17c.043.296.107.593.15.914.042-.321.063-.643.084-.939h.192c.043.198.085.42.15.618.042.148.106.345.212.42.426.296 1.449 0 1.79-.47.149-.222.383-.346.596-.519.277-.296-.106-.913.47-1.284.212.593.49 1.087.596 1.63.063.346.149.42.426.445 1.64.099 3.26.148 4.9.346 1.3.173 2.578.494 3.877.815.405.099.575-.074.469-.47-.15-.666.277-1.086.426-1.778.298.494.596.914.937 1.408zm-58.927-.988c.234-.222.426-.494.618-.519 1.086-.173 2.173-.296 3.28-.444.256-.025.533-.1.767-.124.022-.296.022-.519.064-.716.15-.47-.021-.618-.426-.593-.703.025-1.427 0-2.13.025-.086 0-.17.074-.277.098-.299.124-.575.297-.874.371-.98.222-1.214.148-1.022 1.433.042.074.021.222 0 .469zm49.681 2.94c.426-.173 1.002.049 1.044-.766 0-.05.362-.124.533-.1.426.1.83.322 1.235.347 1.342.123 2.663.173 4.005.272.022-.05.043-.124.065-.174-.192-.123-.363-.296-.555-.32-.745-.174-1.49-.346-2.258-.445-1.235-.148-2.45-.223-3.685-.297-.128 0-.362.149-.384.247-.042.37 0 .766 0 1.236zm8.735-1.804h-.107c0 .247.022.494.022.741 0 .741-.043.816-.66.692-.427-.099-.576.099-.576.568v.618c0 .42.15.568.533.42.639-.272 1.278-.495 1.917-.766-.107-.272-.192-.519-.277-.692-.128.099-.362.321-.426.272-.17-.148-.362-.37-.405-.593-.064-.42-.021-.84-.021-1.26zm-6.583 3.187v.074c.34.074.682.173 1.044.222.405.05.81.074 1.214.099.426.025.852.099 1.257.05.341-.05.66-.248 1.001-.371 0-.05-.02-.124-.02-.173-1.492.025-3.005.05-4.496.099zM9.12 55.585c0 .074-.022.148-.022.222-1.193.075-2.386.173-3.6.247v.198c.063.025.127.074.191.099.64.173 1.257-.494 1.918-.05.021.025.085-.049.127-.049.32-.074.618-.148.938-.173.34-.05.554-.197.511-.642-.021-.222-.021-.445-.064-.667-.128-.79-.17-.815-.81-.47.278.445.129 1.162.81 1.285zm49.98 4.397v-.198c-1.32-.271-2.663-.444-4.154-.197.298.123.49.197.681.271l-.191.223c1.214-.025 2.45-.074 3.664-.099zm-6.136-.099c0 .074 0 .148-.02.222.49.173 1 .371 1.49.544.192-.84.043-1.062-.596-.988-.298.025-.575.148-.874.222z" fill="#070C10"/><path d="M62.126 57.413c-.341-.493-.618-.913-.98-1.432-.15.691-.576 1.087-.427 1.778.086.396-.063.569-.468.47-1.278-.297-2.578-.643-3.877-.816-1.62-.197-3.26-.246-4.9-.345-.277-.025-.363-.1-.427-.445-.106-.543-.383-1.037-.596-1.63-.554.37-.192.988-.469 1.284-.191.173-.426.297-.596.519-.341.47-1.343.79-1.79.47-.106-.075-.17-.272-.213-.42-.064-.198-.106-.42-.15-.618h-.19c-.022.296-.065.593-.086.938-.043-.32-.107-.617-.15-.913h-.17c-.042.222-.127.42-.127.642 0 .395-.15.518-.47.518-.723 0-1.47 0-2.193.05-1.279.099-2.557.272-3.835.395-.298.025-.618.025-.938.074-.34.025-.553-.024-.681-.494-.107-.346.255-13.867 0-14.164-.597.272-1.683 14.115-2.046 14.732-.085.149-.32.247-.49.247-.788.075-1.597.075-2.386.149-.32.024-.404-.075-.362-.445.043-.247.021-.519-.021-.79-.021-.1-.15-.173-.213-.248-.064.1-.15.198-.17.297-.022.272 0 .568 0 .864-.086-.123-.15-.222-.299-.444-.064.37-.106.593-.149.89-.17-.248-.32-.47-.532-.791-.128.914-.128.889-.81 1.062-.98.222-1.939.494-2.919.716-.277.05-.575.025-.852-.024-.106-.025-.234-.198-.298-.322-.192-.444-.362-.889-.554-1.358-.064 0-.107 0-.17-.025-.043.222-.15.445-.086.642.128.519-.064.766-.383 1.137-.597.716-1.3.74-2.045.765-.682.025-1.364-.05-2.046-.024-.447 0-.916.074-1.363.123-.341.05.154-3.308.154-3.728 0-.494.016-4.44-.09-4.91-.49.617-.895 7.947-1.002 8.762-.02-.47-.042-.766-.085-1.063-.021-.098-.128-.172-.191-.271-.064.099-.15.197-.17.296-.022.321-.022.618-.129.964-.064-.149-.106-.272-.234-.569-.17.198-.32.37-.469.52.021.049.064.098.085.147-.703.025-1.427.05-2.13.05-.298 0-.447-.148-.469-.544-.042-.593-.213-1.16-.32-1.729-.02-.148-.106-.271-.148-.42l-.15.173c-.042.79-.106 1.581-.149 2.297-.234.05-.383.075-.532.124-.043 0-.085.099-.107.099a35.572 35.572 0 01-2.28-.223c-.063 0-.149-.32-.149-.518-.02-.47-.02-.939-.042-1.384h-.128c-.192.297-.469.569-.575.914-.128.346-.107.741-.15 1.137-.34 0-.702.074-1.086.024a84.86 84.86 0 01-3.494-.494c-.149-.024-.383-.271-.404-.469a8.265 8.265 0 01-.043-1.457c0-.075.213-.198.32-.198.575.05 1.129.173 1.704.173a8.34 8.34 0 001.576-.173c1.215-.222 2.216-1.038 3.281-1.68.341-.197.256-.568.17-.889-.404-1.433-.873-2.865-1.192-4.323a65.33 65.33 0 01-.938-5.434c-.213-1.779-.32-3.606-.404-5.41-.107-1.852-.107-3.73-.214-5.607-.191-3.335.064-6.67.192-10.004.085-2.199.234-4.397.405-6.595.15-1.68.34-3.335.618-4.99.213-1.31.596-2.57.937-3.854.021-.123.128-.271.235-.296.063-.025.213.099.255.198.384.667.767 1.333.64 2.198-.022.148.148.321.212.494.064-.148.15-.296.192-.445.128-.42.277-.815.383-1.26.064-.271.086-.592.107-.84 2.003.594 3.984 1.26 6.072 1.384.34.025.49.222.532.593l.064.667c.022.197.043.395.128.593.49-.494.32-1.137.298-1.902.213.494.363.74.533.173.021-.05.213-.075.298-.075.98.1 1.939.173 2.919.297 1.044.148 1.044.148 1.172 1.334.021.247-.225 14.62.128 14.73.043 0 .958-7.172.426-10.164.298-.826.213-4.295.298-4.566.085-.346-.15-.815 0-1.136.042-.124.255-.248.383-.272 1.875-.346 3.771-.692 5.646-1.013 1.086-.198 2.173-.346 3.238-.568.469-.099.597.099.618.568.021.247.064.494.085.79.341-.271.341-.271.256-1.432.511-.099 1.023-.222 1.534-.321.064-.025.234.123.234.197.021.519 0 1.063-.021 1.73.085 0 .298.098.469.024.106-.05.191-.346.191-.543.022-1.112.533-1.705 1.492-1.606.468.05.916.173 1.363.272.107.025.234-.05.384-.074.042.32.085.617.127.889.405.025.789.05 1.13.074.191-.89.894-1.482 1.682-1.531 1.833-.1 3.644-.025 5.454.42.086.024.192.049.235.074.085.642.34.844.403 1.436.043 0-.477 5.278-.112 4.097.064-.148.482-3.181.461-3.305-.085-.667.121-1.858.42-2.278.149-.222.553-.32.83-.296 1.3.123 2.578.32 3.878.47.447.049.703.27.639.839-.064.593-.15 1.186-.213 1.803-.022.198 0 .395 0 .593.064.025.149.025.213.05.106-.322.213-.618.298-.89.746-.321.448-1.16.703-1.852.533.296 1.087.568 1.598.889.34.197.66.444.937.716.128.124.17.445.128.642-.106.494-.277.939-.405 1.433-.02.124.064.296.107.42.085-.074.192-.148.277-.272.106-.148.213-.32.298-.494.043.025.107.074.15.1-.022.123-.022.246-.043.37-.405 2.272-.874 4.52-1.215 6.817a102.374 102.374 0 00-.681 6.274c-.192 2.347-.299 4.694-.384 7.065-.064 1.877-.128 3.73-.064 5.607.064 2.05.32 4.1.448 6.151.213 2.964.916 5.83 1.342 8.744.149.939.575 1.73.745 2.619.128.494.107.74-.191.84z" fill="#C7A363"/><path d="M1.004 56.179c-.363-.297-.32-.717-.256-1.137.213-1.531.447-3.038.618-4.594.128-1.186.17-2.371.277-3.532.277-3.088.596-6.176.873-9.288.085-.89.043-1.779.064-2.668.021-2.149.064-4.298.064-6.447.021-3.187.064-6.373.021-9.56-.042-2.89-.128-5.78-.255-8.67-.064-1.457-.277-2.915-.363-4.397-.02-.346.107-.716.17-1.062h.214c.043.173.064.321.128.494.064.148.149.297.234.445.085-.148.17-.297.234-.47.043-.098 0-.222 0-.395.107.346.214.642.299.914.064-.025.149-.025.213-.05a55.13 55.13 0 01-.17-1.481c.17-.149.298-.321.468-.42.298-.198.597-.37.916-.519.32-.123.66-.198 1.001-.272.618-.123.98.173 1.13.865.042.173.17.296.34.568 0 0-.063.173-.063.321 0 .124.063.247.106.395.085-.074.234-.148.277-.271.128-.396.213-.84.34-1.235.107-.297.235-.593.64-.494 0 .172-.043.345-.021.494.021.123.128.296.213.32.085.025.255-.123.277-.222.064-.444.213-.667.618-.469.34.173.937.099.724.89-.064.246-.085.518-.15.765-.127.47.065.543.427.395.042.47.064.939.106 1.408.767.025.789-.889 1.236-1.26.405.223.511.593.298 1.21-.788 2.273-1.257 4.645-1.598 7.04-.234 1.631-.34 3.286-.468 4.941-.15 1.976-.299 3.952-.426 5.928a65.124 65.124 0 00-.15 4.076c0 3.014-.042 6.052.086 9.066.213 4.841.468 9.683 1.619 14.4.17.742.383 1.483.554 2.224.021.123.021.247.042.444-.17-.098-.298-.148-.34-.222-.086-.272-.235-.346-.47-.321-.084 0-.234-.099-.234-.148 0-.568-.49-.445-.681-.692-.235-.272-.362-.667-.554-.988-.064-.123-.17-.247-.256-.37-.106.123-.234.247-.277.395-.064.222-.064.494-.128.716-.042.124-.149.247-.234.346-.085-.124-.213-.198-.277-.346-.043-.099 0-.272-.021-.395a2.923 2.923 0 00-.17-.47 3.28 3.28 0 01-.342.272c-.042-.099-.106-.247-.149-.42-.042 0-.085 0-.149.025-.021.297-.021.593-.042 1.013-.49.05-.98.074-1.492.123-.085 0-.255-.024-.255-.074-.128-.568-.81-.815-.64-1.556.022-.099-.106-.247-.17-.346-.064.124-.192.247-.192.37-.021.445 0 .865-.021 1.31-.064-.346-.106-.667-.17-1.013-.086 0-.15.025-.235.025 0 .321 0 .642.022.938.042.396-.064.593-.448.717-.703.222-1.363.568-2.066.864-.213.1-.448.173-.703.272-.043.37-.086.79-.15 1.21 0 0-.042.025-.063.075z" fill="#C7A363"/><path d="M3.198 56.424c0-.247.021-.395 0-.519-.17-1.284.042-1.21 1.022-1.433.299-.074.576-.247.874-.37a.54.54 0 01.277-.099c.703 0 1.427 0 2.13-.025.384 0 .554.124.426.593-.064.198-.042.42-.064.717a6.19 6.19 0 01-.767.123c-1.086.148-2.194.272-3.28.445-.192.074-.363.346-.618.568zm49.68 2.941c0-.469-.042-.864 0-1.235.022-.099.256-.272.384-.247 1.235.074 2.471.148 3.685.297.767.099 1.513.271 2.259.444.191.05.362.223.554.321-.022.05-.043.124-.064.173a106.492 106.492 0 01-4.005-.271c-.427-.05-.831-.272-1.236-.346-.17-.05-.533.05-.533.099-.042.815-.618.592-1.044.765zM2.77 57.29c.704.172 1.407.345 2.11.493.362.074.533.247.469.47-.213.123-.384.148-.405.246-.064.297-.064.593-.107.89-.02.197-.02.395-.02.592-.043.05-.086.075-.15.124-.256-.222-.49-.445-.746-.642-.34-.297-.703-.593-1.044-.914-.17-.173-.277-.445-.404-.667.34-.074.362-.296.298-.593zm6.457-.742c.404-.197.468-.593.426-1.037-.064-.519-.107-1.038-.17-1.507.83.642 1.96.815 2.62 1.951-.277.173-.533.396-.81.494-.383.124-.405-.296-.49-.593-.064-.222-.064-.518-.362-.296-.043-.222-.107-.47-.17-.716h-.235c.15 1.012.235 2-.66 2.692a16.371 16.371 0 00-.128-.766c-.021-.074-.021-.148-.021-.222z" fill="#C7A363"/><path d="M9.227 56.548v.223c-.532.024-.639.148-.681.864-.363 0-.789.297-1.044-.321-.022-.05-.277-.05-.384.025-.469.37-.916.222-1.385-.025-.127-.074-.32 0-.468-.025-.576-.123-1.15-.247-1.726-.494.447-.197.874-.395 1.385-.617-.128.716.149.79.618.74 1.257-.172 2.471-.27 3.685-.37zm52.387 1.014c0 .42-.021.84.043 1.235.042.222.234.445.404.593.064.05.277-.173.426-.272.064.173.17.42.277.692-.639.247-1.3.469-1.917.765-.383.173-.511.025-.532-.42v-.617c0-.47.149-.642.575-.568.617.123.66.05.66-.692 0-.247 0-.494-.021-.74.021.024.042.024.085.024zm-58.842-.273c.064.296.043.518-.277.568-.383-.346-.873-.568-1.001-1.235-.043-.173-.32-.297-.49-.445l.085-.099c.511-.395 1.001-.766 1.555-1.185.043.864.086 1.63.128 2.396zm52.259 3.459c1.492-.049 3.004-.074 4.495-.123 0 .05.022.123.022.173-.341.123-.66.346-1.002.37-.426.05-.852-.024-1.257-.049-.404-.025-.81-.05-1.214-.099-.34-.05-.703-.148-1.044-.222v-.05z" fill="#C7A363"/><path d="M9.12 55.586c-.682-.124-.533-.865-.788-1.31.639-.345.703-.32.81.47.042.222.042.444.063.667.043.445-.17.593-.511.642-.32.025-.64.124-.938.173-.042 0-.106.074-.127.05-.66-.445-1.279.222-1.918.049-.064-.025-.128-.074-.191-.099v-.198c1.193-.074 2.386-.172 3.6-.247-.021-.024-.021-.098 0-.197zm49.98 4.395c-1.215.025-2.43.05-3.686.1l.192-.223a27.377 27.377 0 01-.682-.272c1.491-.247 2.833-.05 4.154.198a.714.714 0 01.021.197zm-6.135-.097c.298-.074.575-.197.873-.222.64-.074.788.148.597.988-.512-.173-1.002-.37-1.492-.544 0-.074.022-.148.022-.222z" fill="#C7A363"/></g><defs><clipPath id="clip0_13385_1343"><path fill="#fff" d="M0 0h64v64H0z"/></clipPath></defs></svg>