<svg width="55" height="54" fill="none" xmlns="http://www.w3.org/2000/svg"><path d="M9.386 42.146a9.23 9.23 0 01-.769-.877L1.07 48.818l4.554 4.554 7.548-7.547a9.268 9.268 0 01-.877-.769l-2.91-2.91zm36.438-.876c-.236.303-.49.597-.769.876l-2.91 2.91a9.27 9.27 0 01-.876.768l7.547 7.546 4.554-4.554-7.546-7.547zm-15.882 2.326l.316.317a5.993 5.993 0 008.476 0l5.18-5.18a5.993 5.993 0 000-8.477l-.316-.316-3.423 3.415L36.32 29.5l-6.83 6.83 3.855 3.855-3.403 3.411zm-4.999-25.484l-9.59-9.59A31.885 31.885 0 00.54.135L0 0l.135.54a31.887 31.887 0 008.387 14.814l9.59 9.59 6.831-6.832z" fill="#C7A363"/><path d="M45.919 15.354A31.888 31.888 0 0054.306.54l.135-.54-.54.135a31.887 31.887 0 00-14.814 8.387l-24.83 24.831-3.416-3.415-.316.316a5.993 5.993 0 000 8.476l5.186 5.186a5.993 5.993 0 008.476 0l.316-.316-3.415-3.415 24.83-24.831z" fill="#C7A363"/></svg>