<svg width="64" height="159" fill="none" xmlns="http://www.w3.org/2000/svg"><path fill-rule="evenodd" clip-rule="evenodd" d="M28.558.49c-.703.256-1.392.579-1.53.716-.138.137.11 1.304.55 2.592 1.158 3.392 2.59 9.488 3.353 14.277.732 4.59 1.668 13.702 1.592 15.505-.056 1.34.04 1.948-.95-6.057-.359-2.906-1.012-7.158-1.451-9.448-1.465-7.64-3.93-15.854-4.759-15.854-.207 0-.992.623-1.743 1.385l-1.366 1.385.996 2.21c2.813 6.242 4.088 15.885 3.652 27.614-.12 3.218-.254 5.812-.299 5.765-.045-.047-.244-2.968-.443-6.49-.63-11.184-1.609-17.36-3.799-23.979-1.147-3.468-1.153-3.477-1.717-2.732-.311.41-.884 1.832-1.273 3.16-.39 1.326-.828 2.54-.975 2.7-.155.166-.61.063-1.088-.248-.814-.532-.82-.529-.82.386 0 .507.711 3.79 1.581 7.294 1.533 6.176 3.035 13.572 2.804 13.803-.063.062-.366-.792-.675-1.898-1.243-4.45-2.882-8.886-4.292-11.609l-1.487-2.873-.411 1.417c-.657 2.259-2.035 8.524-2.666 12.115l-.58 3.303 1.258 2.142c1.106 1.884 4.146 8.602 4.146 9.162 0 .115-1.07-1.057-2.378-2.605-1.307-1.547-2.741-3.15-3.185-3.56l-.808-.747-.178.907c-.098.499-.351 2.802-.562 5.118l-.383 4.21 1.978 2.41c1.088 1.326 1.978 2.468 1.978 2.538 0 .07-1.014-.375-2.254-.987-1.24-.613-2.316-1.052-2.393-.976-.222.221-.815 7.582-.818 10.162-.003 2.067-.135 2.587-1.096 4.323C3.923 70.9 1.66 76.183 1.155 78.498c-.423 1.938-.53 5.116-.603 18.046-.05 8.632-.23 16.415-.402 17.296-.3 1.536-.254 1.719 1.134 4.484 3.594 7.161 11.316 19.88 19.25 31.708 5.306 7.909 5.853 8.675 6.042 8.464.067-.075-.074-1.506-.313-3.179-.61-4.266-3.218-27.417-3.704-32.886-.512-5.769-.155-8.698 1.797-14.728.786-2.426 1.4-4.423 1.364-4.438-.035-.015-2.146-.64-4.69-1.388-4.947-1.455-9.714-3.23-11.513-4.286-.776-.456-1.442-1.315-2.234-2.882-.965-1.907-3.34-7.46-3.34-7.808 0-.063 1.538.895 3.418 2.129 3.933 2.581 10.736 5.969 16.48 8.207 3.197 1.246 4.039 1.707 4.297 2.35.177.441.335 3.035.352 5.765.03 4.826.002 5.045-1.009 7.847a612.084 612.084 0 00-1.206 3.363c-.16.465 3.986 6.405 5.114 7.326.457.373.62.373 1.077 0 .479-.391 4.441-5.571 5.056-6.61.132-.222-.199-1.535-.734-2.917-1.34-3.459-1.788-7.276-1.372-11.693.18-1.916.446-3.593.59-3.725.146-.132 1.947-.904 4.003-1.716 7.278-2.874 14.152-6.397 18.373-9.416.842-.602 1.531-1.002 1.531-.887 0 .388-2.265 5.66-3.374 7.852-.738 1.46-1.453 2.39-2.161 2.818-1.672 1.006-6.52 2.804-11.552 4.283-2.544.748-4.66 1.378-4.703 1.401-.042.022.5 1.752 1.206 3.845 1.528 4.528 2.249 8.073 2.249 11.058 0 3.629-3.392 34.625-4.363 39.858l-.177.961.665-.801c.365-.44 2.525-3.539 4.8-6.886 7.541-11.1 16.216-25.334 19.812-32.509L64 115.441l-.312-2.242c-.171-1.233-.342-9.016-.38-17.295-.037-8.28-.18-15.63-.316-16.335-.508-2.632-1.135-4.284-3.343-8.807-2.545-5.215-4.807-8.368-7.698-10.73-2.283-1.865-2.872-3.08-3.882-8.007a71.162 71.162 0 01-1.432-12.708c-.068-3.19-.11-3.387-.617-2.93-.3.27-1.14 1.628-1.866 3.02-.727 1.39-1.377 2.529-1.444 2.529-.348 0 1.495-4.764 2.478-6.406.618-1.03.675-1.633.702-7.49l.03-6.37-1.348 4.128c-.742 2.27-1.357 3.81-1.367 3.42-.01-.389.615-3.776 1.39-7.526 1.58-7.646 1.872-9.542 1.47-9.542-.384 0-2.283 4.074-3.508 7.526-1.704 4.802-2.832 9.857-4.504 20.178-.252 1.558-.282 1.1-.157-2.413.351-9.937 2.796-20.54 6.265-27.173l1.235-2.361-.774-1.221c-.93-1.466-3.334-3.825-3.9-3.825-1.046 0-2.964 9.46-4.286 21.14l-.235 2.08-.046-2.06c-.053-2.427.268-5.384 1.618-14.892l.997-7.025-.656-.529C37.362.97 33.91-.18 33.644.085c-.098.097-.022 1.807.169 3.799.549 5.731.804 14 .507 16.44l-.272 2.235-.222-2.883c-.493-6.401-.679-8.194-1.292-12.49-.353-2.467-.795-5.098-.983-5.846-.387-1.537-.792-1.652-2.993-.85zm.228 49.68l3.13 1.075 1.856-.533a34.762 34.762 0 003.584-1.292c.95-.417 1.802-.758 1.891-.758.09 0 .063 1.137-.059 2.526l-.221 2.526 1.707.406c1.913.454 6.927 2.467 7.186 2.884.092.15-1.102-.157-2.654-.68-4.48-1.506-5.696-1.544-8.326-.255-1.982.972-2.482 1.08-4.952 1.08-2.467 0-2.972-.109-4.938-1.073l-2.19-1.073-2.146.535c-4.103 1.025-8.555 3.43-12.427 6.711-1.86 1.578-1.89 1.59-.965.4 1.437-1.849 5.607-5.057 8.288-6.377 1.31-.645 3.496-1.5 4.858-1.898l2.475-.725-.223-2.546c-.212-2.418-.193-2.531.386-2.277.335.148 2.018.753 3.74 1.344zm-2.531 1.58c.309 2.243.855 3.082 2.553 3.92 1.938.957 4.5.971 6.342.035 1.618-.822 2.152-1.654 2.434-3.796l.226-1.717-.77.413c-.423.227-1.565.659-2.537.96-1.683.52-1.78.61-2.03 1.865-.332 1.677-.748 1.682-1.031.014-.136-.796-.428-1.366-.753-1.463-.291-.088-1.454-.505-2.583-.927l-2.052-.767.2 1.463zm7.281 8.171c3.44 4.622 10.19 9.928 16.405 12.895 4.603 2.196 7.73 2.828 9.73 1.964.43-.186.564-.092.564.392 0 1.016-.88 1.489-2.685 1.443-4.706-.118-13.913-4.642-22.805-11.205l-2.812-2.075-2.335 1.738C18.703 73.186 7.718 78.048 4.345 76.249c-.887-.472-1.043-1.867-.161-1.44.93.45 3.986.27 5.87-.346 2.693-.88 6.566-2.885 10.133-5.246 3.31-2.191 9.76-8.217 10.944-10.226.338-.572.691-1.035.786-1.028.094.007.823.888 1.62 1.958z" fill="#C7A363"/></svg>