<svg width="221" height="225" fill="none" xmlns="http://www.w3.org/2000/svg"><path fill-rule="evenodd" clip-rule="evenodd" d="M109.117.17l-.939.278.163 1.577c.415 4.03.511 10.188.171 11.005l-.345.832-.203-.896c-.111-.493-.293-2.295-.404-4.004-.111-1.709-.331-3.427-.487-3.817-.157-.39-.427-1.397-.6-2.235-.295-1.432-.369-1.53-1.197-1.61-.551-.054-1.57.234-2.71.765-2.253 1.05-2.442 1.54-1.593 4.138.33 1.01.598 2.097.596 2.416-.002.319.186 1.192.419 1.94.233.75.549 2.36.702 3.58.154 1.22.462 3.03.685 4.02.223.992.535 3.238.694 4.992.16 1.753.43 4.56.601 6.238.266 2.606.121 9.822-.191 9.511-.05-.05-.215-2.31-.367-5.023-.152-2.713-.411-5.095-.577-5.294-.165-.198-.482-2.247-.704-4.552-.222-2.306-.524-4.417-.672-4.693-.148-.275-.405-1.472-.57-2.659-.166-1.187-.427-2.391-.579-2.675-.152-.283-.418-1.18-.59-1.992-.431-2.039-1.83-6.307-2.221-6.775-.556-.667-1.206-.43-2.866 1.043-2.066 1.834-2.308 2.445-1.57 3.963.31.638.564 1.277.565 1.42.001.142.202.632.447 1.09 1.26 2.355 4.047 12.817 4.432 16.636.092.915.354 2.622.581 3.793.479 2.469.662 10.692.251 11.319-.218.333-.308.25-.454-.416-.1-.458-.197-1.473-.215-2.257-.018-.784-.335-3.03-.705-4.99-.369-1.962-.796-4.253-.948-5.092-.737-4.06-1.244-6.319-1.604-7.15-.217-.5-.396-1.124-.396-1.385-.001-.262-.137-.962-.303-1.555l-.3-1.08-.7.699c-.718.714-1.989 3.38-2.232 4.681-.074.4.074 1.13.33 1.623.257.493.636 1.414.845 2.047.208.632.65 1.898.983 2.813 1.54 4.229 2.986 9.716 3.236 12.27.164 1.675-.3 2.01-.597.43-.106-.563-.42-1.31-.695-1.66-.277-.35-.59-1.106-.699-1.68-.107-.573-.335-1.21-.506-1.416-.17-.206-.504-.955-.74-1.664-.483-1.449-.737-1.542-1.484-.546-.81 1.081-.934 2.802-.269 3.742 1.218 1.719 4.542 8.927 4.997 10.835.188.785-.465.852-.67.069-.08-.305-.316-.555-.524-.555-.208 0-.578-.384-.821-.853-.416-.801-.48-.828-1.051-.444-.496.335-.6.652-.56 1.72.042 1.147.176 1.415 1.078 2.156.567.465 1.172 1.02 1.344 1.233.172.213.528.623.79.91.26.288.727 1.016 1.036 1.618.308.602.877 1.343 1.264 1.646.715.56.934 1.164.421 1.164-.414 0-1.386 1.7-1.387 2.427 0 .343.125.623.278.623.397 0 .345.988-.07 1.321-.191.155-.912.373-1.6.486-1.622.265-5.942 2.005-8.492 3.418-5.09 2.822-9.6 7.087-13.094 12.382-2.098 3.18-4.56 8.888-5.002 11.601-.137.836-.719 1.661-2.712 3.847-2.918 3.198-2.8 2.702-1.9 7.982.325 1.906.714 4.527.864 5.823.15 1.296.395 3.355.543 4.575.148 1.22.4 3.965.561 6.1.463 6.141.005 5.345 4.855 8.43.827.526 1.667 1.968 1.146 1.968-.206 0-.447-.188-.535-.416-.088-.229-.385-.416-.66-.416s-.937-.231-1.47-.512c-1.402-.74-2.388-.93-2.722-.525-.171.206-.333 3.332-.405 7.83-.113 7.034-.488 11.522-1.368 16.359-.6 3.296-.596 3.708.038 5.208.786 1.863 1.658 3.829 1.932 4.358 1.87 3.607 3.538 6.665 3.955 7.252.288.405.523.865.523 1.023 0 .489.605.69.865.287.14-.217.181-6.073.094-13.553-.154-13.22.024-18.86.6-19.05.506-.166 1.492 2.627 1.925 5.451.224 1.456.533 3.395.688 4.31.439 2.592 1.155 19.392 1.07 25.094-.074 4.87-.046 5.185.545 6.238.598 1.066 2.083 3.276 2.98 4.437.236.305 1.325 1.74 2.42 3.188 6.628 8.766 10.224 13.192 14.471 17.809 1.616 1.757 1.731 1.437 1.505-4.193a352.625 352.625 0 00-.593-10.15c-.555-7.368-.55-31.86.007-39.373.87-11.725.963-13.843.617-14.063-.8-.507-3.19-.02-8.82 1.796a1048.74 1048.74 0 01-3.898 1.25c-.689.219-1.738.577-2.331.797-.934.346-1.14.347-1.531.006-.25-.217-.738-.482-1.087-.588-1.227-.372-1.494-1.209-1.157-3.621.167-1.195.224-2.596.126-3.113-.226-1.2-1.45-2.79-3.898-5.061l-2.575-2.389c-.347-.323-.631-.666-.631-.763 0-.313.974-.186 1.538.201.302.207 1.007.46 1.566.562.558.102 1.169.369 1.356.594.188.224.544.408.794.407.249-.001 1.33.293 2.402.653 4.477 1.504 5.592 1.844 6.045 1.844.263 0 1.077.205 1.81.456.733.252 2.084.61 3.002.798.92.187 2.423.529 3.341.759.919.23 3.237.696 5.151 1.035 1.914.34 3.76.668 4.102.73 1.106.199 1.096 1.347-.065 8.145-.47 2.745-1.417 9.148-1.827 12.338-.156 1.22-.392 2.546-.524 2.945-.199.601-.112.85.498 1.434 2.422 2.317 5.027 4.96 5.75 5.832.46.553.911.978 1.003.943.092-.035.911-.951 1.82-2.037.909-1.085 2.274-2.499 3.034-3.14 1.829-1.545 2.411-2.246 2.236-2.699-.079-.205-.274-1.464-.433-2.796-.159-1.332-.529-3.92-.822-5.75-.293-1.83-.664-4.201-.825-5.268a70.003 70.003 0 00-.553-3.189c-.144-.686-.351-2.397-.46-3.802-.229-2.957-.341-2.828 2.935-3.374 5.161-.86 8.126-1.419 8.393-1.583.271-.167 1.637-.512 6.497-1.642.917-.213 2.107-.564 2.645-.781.538-.216 1.48-.524 2.092-.684 1.754-.458 3.797-1.164 5.042-1.743.629-.293 1.334-.532 1.567-.532.232 0 .578-.187.769-.416.321-.385 1.67-.602 1.67-.268 0 .081-1.49 1.629-3.312 3.44-3.006 2.987-3.34 3.42-3.61 4.677-.229 1.064-.208 1.816.092 3.243.482 2.293.283 2.805-1.467 3.772l-1.308.724-1.809-.528c-.996-.291-2.186-.711-2.645-.933-.792-.384-2.035-.774-4.872-1.528-.689-.183-2.057-.566-3.04-.851-2.136-.619-3.601-.669-3.809-.129-.083.214.05 3.489.295 7.278l.747 11.603c.356 5.54.153 30.165-.29 35.214-.161 1.83-.425 5.69-.587 8.577-.263 4.691-.248 5.295.15 5.684.405.396.495.372 1.006-.258a92.816 92.816 0 011.906-2.219c1.701-1.929 6.834-8.061 7.937-9.482.46-.592 1.59-2.038 2.513-3.214.922-1.176 1.894-2.45 2.158-2.831.265-.381.983-1.379 1.597-2.218.613-.839 1.894-2.648 2.847-4.021l1.731-2.495.187-10.121c.103-5.566.334-12.365.514-15.109.325-4.969 1.434-12.671 1.911-13.272.138-.174.406-.796.595-1.382.259-.798.425-.986.663-.749.477.475.672 10.19.441 22.056-.164 8.48-.133 10.328.18 10.658.209.22.422.345.475.277.353-.453 3.416-6.088 4.361-8.024a153.567 153.567 0 011.695-3.382c.299-.564.545-1.188.545-1.387.001-.198.198-.735.438-1.192.396-.755.396-1.039.003-3.051-1.039-5.312-1.634-11.865-1.691-18.603-.031-3.674-.151-6.832-.266-7.017-.265-.429-1.654-.155-2.833.557-.478.289-1.077.525-1.331.525-.255 0-.536.187-.624.416-.088.228-.47.416-.848.416-.687 0-.687-.001.214-.898.496-.494 1.114-1.024 1.374-1.179.874-.519 2.633-1.76 3.457-2.439.808-.664.821-.722 1.027-4.387.114-2.042.335-4.524.49-5.516.155-.991.365-3.05.465-4.575.1-1.525.304-3.334.453-4.02.36-1.652 1.341-7.977 1.341-8.641 0-.287-.98-1.549-2.178-2.803-2.571-2.692-3.112-3.436-3.112-4.281 0-1.594-2.577-7.956-4.189-10.339-.258-.381-.911-1.38-1.451-2.218-.54-.839-1.335-1.9-1.767-2.357a303.06 303.06 0 01-2.177-2.357c-4.474-4.897-11.532-8.96-18.014-10.37-.898-.196-1.258-1.22-.597-1.703.398-.29.408-.444.079-1.268-.206-.516-.691-1.202-1.078-1.524-.687-.571-.69-.592-.146-.882.307-.163 1.22-1.255 2.029-2.427.81-1.17 1.918-2.519 2.462-2.995 1.62-1.416 2.094-3.474 1.007-4.372-.319-.264-.659-.044-1.779 1.15-1.139 1.215-1.384 1.37-1.384.881 0-.326.175-1.004.389-1.504 1.394-3.26 3.187-7.006 4.131-8.63.877-1.51 1.068-2.073.935-2.772-.194-1.022-1.148-2.68-1.542-2.68-.149 0-.423.53-.609 1.179-.185.648-.496 1.368-.691 1.599-.194.23-.477.97-.629 1.642-.152.672-.46 1.325-.686 1.45-.226.126-.493.828-.594 1.56-.268 1.943-.592 2.262-.795.784-.119-.864-.013-1.754.342-2.862.283-.885.608-2.17.722-2.856.114-.686.369-1.684.567-2.218.197-.534.745-2.156 1.218-3.605.98-3.008 1.691-4.954 2.351-6.437.588-1.32.578-1.758-.064-2.819a10.615 10.615 0 01-.843-1.863c-.176-.55-.626-1.285-1-1.635l-.679-.636-.287.752c-.158.413-.287.966-.287 1.229 0 .262-.25 1.186-.557 2.054-.306.868-.557 1.94-.557 2.38 0 .442-.232 1.537-.516 2.434-.285.896-.604 2.503-.71 3.57-.106 1.068-.372 2.566-.591 3.328-.218.763-.53 2.816-.692 4.563-.163 1.746-.36 3.24-.439 3.319-.804.8-.818-8.528-.018-11.902a44.54 44.54 0 00.692-3.882c.302-2.373 1.272-6.962 1.904-9.012 1.436-4.651 3.017-8.985 3.427-9.393.366-.365.365-1.446-.002-2.128-.157-.293-1.059-1.173-2.004-1.956l-1.717-1.424-.612.708c-.545.632-2.343 5.62-2.341 6.498 0 .19-.239 1.063-.532 1.94-.292.879-.613 2.283-.712 3.121-.099.84-.349 2.027-.556 2.64-.207.613-.52 2.791-.695 4.84-.174 2.05-.458 3.896-.631 4.104-.252.303-.622 4.656-.758 8.935-.017.551-.077.608-.292.277-.481-.741-.309-8.455.279-12.477.3-2.06.548-4.225.551-4.813.003-.588.183-1.773.4-2.634.217-.86.476-2.376.575-3.367.1-.991.374-2.489.611-3.327.236-.84.531-2.15.655-2.912.125-.762.43-1.954.68-2.647.488-1.356.242-2.76-.484-2.76-.201 0-.861-.252-1.468-.56-.606-.308-1.51-.672-2.008-.81-.771-.212-.966-.161-1.322.345-.23.327-.42.847-.422 1.157-.002.309-.186 1.082-.409 1.719-.222.636-.539 2.815-.703 4.84-.165 2.027-.363 3.748-.442 3.826-.078.078-.269-.041-.425-.265-.285-.411-.125-9.662.191-11.083.085-.382-.01-.904-.21-1.161-.466-.599-2.045-.827-3.252-.47zm2.711 17.782c-.028 2.996-.089 3.616-.254 2.565-.197-1.259-.041-6.516.194-6.516.053 0 .081 1.777.06 3.95zm-2.539 3.314c-.052 1.265-.094.304-.095-2.136 0-2.44.042-3.475.094-2.3.052 1.174.053 3.17.001 4.436zM70.687 31.453c-.319.197-.325.465-.04 1.582.932 3.638.608 9.77-.738 13.961-1.9 5.917-3.81 9.307-6.988 12.405-1.29 1.257-2.467 2.21-2.618 2.117-.308-.19-.183-1.041.425-2.876 1.21-3.656 1.402-4.794 1.421-8.405.03-5.572-1.261-11.005-2.615-11.005-.325 0-1.362 2.143-2.417 4.992-.718 1.94-.77 2.365-.767 6.377.002 3.086.13 4.77.454 5.97.249.92.533 2.854.632 4.298.223 3.255.169 3.364-3.67 7.301-2.425 2.489-2.886 2.849-3.184 2.491-.281-.337-.25-.774.16-2.267.884-3.221 1.05-4.55.927-7.414-.113-2.607-.703-4.937-1.647-6.497a18.02 18.02 0 01-.676-1.337c-.233-.507-.857-1.535-1.386-2.285-.53-.75-.962-1.468-.962-1.596 0-.128-.39-.82-.867-1.536-.695-1.045-.943-1.24-1.253-.984-.212.175-.386.53-.386.788 0 .257-.263 1.459-.585 2.67-.497 1.865-.564 2.727-.446 5.666.14 3.481.81 6.828 1.711 8.566.239.458.434.952.434 1.096 0 .145.503 1.088 1.117 2.095 1.67 2.738 1.975 5.842.715 7.278-1.211 1.381-2.865 3.394-3.364 4.094-.306.43-.964 1.278-1.461 1.884-.498.607-.905 1.216-.905 1.354a.256.256 0 01-.26.251c-.517 0-.584-1.075-.14-2.257.623-1.654 1.485-6.664 1.5-8.72.023-2.913-1.436-7.474-4.159-13.007-.6-1.22-1.22-2.561-1.376-2.98-.156-.42-.41-.763-.564-.763-.448 0-1.269 1.867-2.133 4.852-.735 2.54-.803 3.146-.803 7.21 0 3.897.08 4.688.66 6.515.755 2.38 1.877 5.346 2.425 6.412.205.4.52 1.869.7 3.264.408 3.17.096 4.94-1.237 7.015-.53.824-1.165 1.93-1.413 2.455a26.111 26.111 0 01-1.125 2.058c-.573.934-.705 1.024-.872.593-.107-.28-.036-1.898.16-3.597.377-3.289.274-7.963-.26-11.684-.435-3.043-1.893-7.566-3.083-9.566-.136-.229-.7-1.203-1.255-2.164-.555-.962-1.153-1.701-1.33-1.642-.176.058-.417.658-.535 1.332a202.66 202.66 0 01-.747 3.86c-.921 4.56-1.136 6.23-1.136 8.836 0 3.905 1.098 9.636 2.37 12.376.212.457.581 1.269.82 1.802a21.81 21.81 0 001.058 1.998c1.865 3.068 2.146 3.643 1.918 3.933-.132.169-.468.932-.746 1.694-.277.763-.59 1.512-.695 1.664-.104.153-.341.894-.526 1.648-.188.764-.637 1.648-1.015 1.997-.373.344-.68.539-.683.431-.003-.107-.18-1.317-.392-2.69-.545-3.516-1.32-4.964-4.32-8.083-3.98-4.138-4.998-6.17-5.281-10.537-.091-1.4-.27-2.65-.399-2.777-.402-.398-1.93 1.74-3.104 4.345-.24.534-.609 1.282-.82 1.664-.21.38-.607 2.021-.882 3.645-.48 2.834-.48 3.057-.006 5.569.272 1.439.668 2.917.88 3.286.212.369.501.922.644 1.23.434.94 2.437 2.766 4.566 4.165l3.056 2.008c1.404.921 3.507 3.199 3.965 4.295.205.492.406 1.269.446 1.727.115 1.33-.313 5.66-.758 7.672-.225 1.017-.37 2.078-.322 2.357.059.343-.083.507-.44.507-.374 0-.621-.325-.861-1.133-.441-1.488-2.522-4.654-4.066-6.186-1.648-1.636-4.907-3.731-8.188-5.264-1.81-.846-4.106-2.709-5.15-4.18-.536-.755-1.072-1.378-1.19-1.385-.578-.035-.809 1.73-.688 5.255.104 3.052.238 3.984.725 5.045.328.716.596 1.45.596 1.63 0 .557 1.589 3.127 2.427 3.926 1.206 1.15 3.781 2.271 7.178 3.127 3.7.931 5.116 1.63 7.303 3.6 1.955 1.762 2.205 2.308 2.417 5.27.087 1.22.24 3.062.338 4.093l.18 1.875-2.207-2.152c-1.831-1.785-2.515-2.259-4.006-2.776-1.999-.694-5.201-.835-7.804-.343-2.638.498-4.975.411-7.009-.262-1.033-.342-1.973-.777-2.088-.967-.115-.19-.623-.547-1.128-.794-.858-.418-.91-.417-.79.023.071.259.214.97.317 1.58.511 3.024 4.31 8.146 7.1 9.576 1.892.969 4.886.923 8.49-.132 3.493-1.022 5.856-1.208 7.14-.561 2.064 1.04 3.064 2.534 3.519 5.258.36 2.15 1.398 6.24 1.742 6.859.393.709.325 1.321-.148 1.321-.228 0-1.103-.622-1.946-1.382-3.96-3.571-8.495-5.108-13.145-4.453-2.734.385-5.625 2.394-7.073 4.913-.827 1.44-.9 1.764-.9 4.007 0 2.213.076 2.561.812 3.742.447.717.934 1.314 1.084 1.328.15.013.384-.35.52-.808.89-2.972 2.923-5.552 4.887-6.202 2.526-.837 8.52.115 12.696 2.015 4.395 2 6.264 3.213 6.264 4.065 0 .689 3.67 7.721 4.825 9.245.358.473.723 1.14.81 1.483.181.711-.264 1.157-.512.513-.09-.232-.434-.504-.764-.604-.33-.101-.794-.351-1.031-.558-1.527-1.33-4.683-2.361-8.366-2.735-1.01-.102-2.197-.373-2.64-.601-2.784-1.439-4.444-1.907-6.66-1.878-2.758.037-4.088.598-6.443 2.72-1.722 1.552-2.164 2.299-1.754 2.961.184.296.518.272 1.786-.126 1.337-.419 1.788-.443 3.15-.164 1.905.389 3.285 1.651 4.86 4.444 1.223 2.171 1.855 2.863 3.273 3.584 2.018 1.025 3.67.692 8.63-1.737 2.338-1.144 2.405-1.158 5.43-1.167 2.8-.007 3.18.056 4.454.737.766.41 2.52 1.831 3.898 3.157 1.378 1.327 2.913 2.722 3.41 3.101.498.378.905.798.905.933 0 .385-2.294.285-4.355-.191-1.403-.324-2.915-.407-5.933-.326-5.435.147-8.434.848-12.906 3.019-1.694.822-4.543 2.619-4.794 3.024-.22.355.826.817 1.87.824.507.003 1.469.253 2.136.555.668.301 1.357.549 1.531.55.175.001.694.205 1.153.454 1.63.883 4.475 1.571 6.965 1.684 2.098.095 2.917-.004 4.988-.602 1.363-.393 2.614-.817 2.78-.941.165-.125 1.366-.648 2.667-1.161 1.302-.514 2.517-1.045 2.701-1.179.545-.396 4.518-1.307 5.705-1.307 1.353 0 2.489.595 6.972 3.651a11.16 11.16 0 001.392.801c1.484.665 2.762 1.589 2.457 1.777-.175.107-1.973.24-3.996.294-3.874.103-6.45.675-11.194 2.485-1.072.408-2.45.873-3.062 1.032-.613.159-1.584.48-2.158.713-1.385.56-5.787.627-6.43.096-.407-.336-.46-.301-.46.304 0 .753 2.974 3.82 3.703 3.82.223 0 .547.171.722.38.174.21 1.285.74 2.47 1.179 2.06.764 2.356.798 6.886.798h4.733l2.227-1.204c1.225-.663 2.853-1.725 3.619-2.361 3.02-2.511 6.656-4.615 7.971-4.615.439 0 4.284 2.086 8.543 4.634.564.338 1.339.776 1.721.974.684.354 1.679.973 4.733 2.947a51.729 51.729 0 012.977 2.109 156.04 156.04 0 002.645 2.001c1.778 1.306 3.889 3.201 7.292 6.548 1.78 1.75 3.228 2.958 3.486 2.909.628-.119.698-1.08.298-4.117-.308-2.349-.449-2.762-1.228-3.605-2.704-2.927-9.815-8.301-15.978-12.074a161.467 161.467 0 01-2.784-1.742c-.563-.365-2.164-1.271-3.558-2.013-3.698-1.969-3.586-1.771-3.61-6.433-.033-6.781-.879-10.832-3.2-15.326-.983-1.903-2.73-4.33-3.865-5.371-.862-.789-2.714-3.47-3.352-4.852-.49-1.061-.68-2.097-.809-4.415-.096-1.732-.294-3.069-.462-3.124-.439-.144-1.702 3.362-2.067 5.736-.913 5.94.047 11.674 2.833 16.912.974 1.83 3.19 4.858 4.542 6.204 1.503 1.497 3.386 4.503 3.888 6.206.372 1.266-1.105.613-8.435-3.726a127.309 127.309 0 00-3.885-2.228c-1.788-.98-2.105-2.162-1.895-7.05.492-11.437.5-12.806.079-14.368-1.749-6.499-2.228-9.463-2.063-12.763.073-1.449.222-2.852.333-3.117.135-.327.049-.541-.267-.662-.34-.13-1.026.407-2.515 1.968-3.527 3.7-4.88 7.352-4.865 13.13.01 3.579 1.26 9.284 2.41 10.994.203.3.368.73.368.954 0 .223.578 1.566 1.285 2.984 1.146 2.3 1.39 3.424.742 3.413-.709-.011-6.892-5.581-9.064-8.165l-1.39-1.654.155-2.379c.152-2.336 1.195-5.836 3.677-12.337.407-1.067.928-2.688 1.158-3.601.23-.913.564-1.837.744-2.053.223-.267.324-1.899.32-5.133-.008-4.697-.016-4.76-.91-6.958-1.11-2.728-1.874-3.797-2.278-3.189-.152.229-.278.733-.28 1.12-.003.387-.242 1.166-.532 1.732-.29.566-.603 1.332-.696 1.703-.093.371-.328.839-.52 1.04-.194.202-.513.678-.71 1.06-.197.381-.66 1.192-1.031 1.802-3.335 5.498-4.097 9.765-2.938 16.455 1.048 6.048.641 6.797-1.566 2.885-2.548-4.518-2.954-5.685-2.808-8.081.102-1.684.33-2.528 1.13-4.189 1.144-2.378 2.35-4.289 3.873-6.138.583-.707 1.06-1.406 1.06-1.552 0-.145.248-.488.55-.76.302-.273.634-.759.736-1.082.103-.322.357-.711.564-.864.726-.536 1.72-4.835 1.765-7.626.047-2.989.944-6.331 2.207-8.23 1.09-1.64 1.113-2.064.094-1.769-2.743.795-5.091 2.851-8.62 7.547-4.139 5.508-4.948 7.841-5.824 16.801-.161 1.645-.506 1.897-.76.554-.094-.496-.447-1.873-.786-3.061-.556-1.95-.582-2.314-.266-3.743.191-.871.469-2.394.615-3.386 1.087-7.344 4.927-13.357 10.333-16.175 1.33-.694 2.896-1.34 3.48-1.438a13.684 13.684 0 002.112-.57c.577-.217 1.62-.394 2.315-.394.696 0 1.52-.135 1.83-.301.56-.299.56-.307-.087-.998-.957-1.021-3.116-2.042-5.803-2.742-1.648-.429-2.395-.755-2.46-1.074-.109-.54 1.71-2.969 3.267-4.36 1.24-1.108 3.66-2.448 4.424-2.448.28 0 .752-.178 1.049-.397.508-.373.45-.437-.99-1.084-1.935-.869-3.82-1.102-6.126-.758-2.505.373-5.301 1.175-6.12 1.754-.377.267-.829.485-1.005.485-.507 0-2.608 1.952-3.731 3.466-1.163 1.568-3.465 5.977-3.739 7.16-.305 1.317-.85.693-.943-1.082-.117-2.229.385-5.735 1.023-7.141 1.182-2.603 4.282-4.462 8.177-4.906 1.183-.134 2.722-.437 3.42-.673.697-.235 1.484-.428 1.749-.428.265 0 .918-.231 1.452-.513.534-.281 1.294-.59 1.69-.686.395-.097 1.361-.815 2.146-1.596 1.083-1.079 1.538-1.798 1.89-2.987.47-1.58.883-5.31.59-5.31-.492 0-1.74.648-2.03 1.053-.607.849-3.372 2.018-8.327 3.522-3.356 1.019-5.207 1.93-6.544 3.223-.612.592-1.238 1.075-1.39 1.075-.468 0-.312-1.618.302-3.137 1.89-4.68 3.017-6.149 5.638-7.35 3.526-1.615 2.998-1.529 8.13-1.324 6.767.27 8.154-.006 11.542-2.298 1.257-.85 2.334-2.523 3.104-4.823.433-1.29.538-1.992.356-2.37-.253-.53-.299-.527-2.47.122-1.79.536-2.85.664-5.568.67-4.268.011-6.886.353-8.646 1.129-1.532.675-2.94 1.585-3.285 2.121-.122.19-.4.347-.617.347-.216 0-.53.253-.695.562-.167.31-.427.486-.578.393-.283-.175-.095-1.094.332-1.627.132-.164 1.264-1.834 2.517-3.71 2.763-4.137 3.614-4.768 6.435-4.768 1.05 0 2.168.171 2.62.4.791.404 2.371.951 4.964 1.722 2.018.6 6.064.35 7.689-.474 2.635-1.336 5.233-4.261 4.687-5.278-.228-.423-.492-.489-1.455-.36-.878.116-1.92-.076-4.1-.755-2.32-.723-3.41-.913-5.29-.92-2.401-.008-5.384.62-6.602 1.392-.714.453-2.028.523-2.028.108 0-.534 3.488-3.755 4.458-4.116a48.714 48.714 0 001.885-.754c1.297-.557 5.131-.52 6.26.061 1.097.566 5.067.805 7.164.433 1.986-.353 5.251-1.142 6.074-1.468.727-.288.758-1.3.05-1.645-2.236-1.092-7.438-2.21-10.28-2.21-1.429 0-5.063.794-5.787 1.264-.612.397-2.029.556-2.029.229 0-.094.877-1.015 1.949-2.047 2.023-1.949 2.972-2.39 3.84-1.785.28.196 2.255.546 4.39.778 7.562.822 11.491-.453 13.79-4.474.846-1.482.909-1.772.928-4.278.015-1.941-.086-2.788-.362-3.05-.316-.299-.408-.294-.524.024-.31.851-3.095 3.808-4.53 4.81-2.246 1.568-5.173 2.88-7.523 3.372-1.14.239-2.555.57-3.144.736-1.183.334-1.854.199-1.854-.374 0-.525.669-1.117 2.917-2.586 1.069-.699 2.356-1.6 2.862-2.005 1.252-1 4.477-4.269 5.04-5.108l1.223-1.824c1.467-2.186 2.157-4.552 2.157-7.397 0-2.985-.58-4.87-2.253-7.34-1.77-2.61-4.09-4.816-4.682-4.452zm76.891 1.812a19.785 19.785 0 00-3.163 4.518c-1.2 2.375-1.222 2.472-1.226 5.193-.002 2.252.123 3.111.668 4.575.915 2.457 2.832 5.29 5.171 7.638 1.888 1.895 4.882 4.285 5.369 4.285.13 0 .918.619 1.752 1.376 1.247 1.134 1.441 1.427 1.097 1.66-.23.155-.82.209-1.311.119-1.501-.273-5.719-1.41-6.961-1.874-2.845-1.066-7.23-4.56-8.331-6.639-.351-.661-.481-.727-.845-.427-.349.29-.409.875-.32 3.14.097 2.477.199 2.935.929 4.17 2.34 3.95 6.366 5.245 13.766 4.427 2.014-.223 3.897-.53 4.184-.683 1.218-.65 2.031-.324 4.109 1.643 1.11 1.051 2.018 1.985 2.018 2.075 0 .32-1.54.138-2.042-.24-.282-.213-1.677-.596-3.103-.851-2.414-.433-2.833-.434-6.143-.009-1.954.251-3.794.585-4.089.742-.294.158-1.152.468-1.906.691-1.213.36-1.37.493-1.37 1.173 0 .737.114.8 2.801 1.546 3.651 1.012 7.787 1.244 10.006.56 2.497-.771 5.437-.82 7.507-.125.968.325 2.203.926 2.744 1.336 1.304.99 3.376 3.163 3.384 3.55.008.382-1.358.17-1.943-.301-.594-.479-4.023-1.325-5.937-1.465-1.615-.118-5.019.554-7.597 1.5-.673.247-1.765.382-2.645.328-1.353-.084-1.508-.035-1.584.499-.109.76 2.47 3.887 3.668 4.447.479.223 1.247.614 1.707.868 1.329.736 6.822.647 8.491-.138 3.932-1.849 7.31-2.235 9.193-1.052.609.383 1.111.789 1.114.902.004.112.411.66.905 1.216.494.558 1.116 1.369 1.382 1.803.265.434.985 1.538 1.598 2.453 2.207 3.29 2.07 3.753-.499 1.686-1.136-.915-2.627-1.79-3.812-2.239-1.764-.668-2.468-.758-7.515-.961-4.716-.19-5.797-.315-7.064-.822-.823-.33-1.559-.536-1.636-.46-.285.284-.114 1.46.454 3.127 1.055 3.093 2.589 4.76 5.601 6.083l1.81.795 6.209-.077c5.002-.061 6.354.002 6.96.326a44.8 44.8 0 002.004.97c1.875.851 3.207 2.077 4.158 3.827.469.863.853 1.707.853 1.877 0 .169.25.795.555 1.39.663 1.296.967 2.735.716 3.387-.162.419-.271.389-.936-.261-2.169-2.12-3.009-2.581-7.016-3.852-4.532-1.438-6.348-2.137-7.438-2.863l-2.086-1.392-1.032-.69-.182.966c-.319 1.693.502 4.783 1.749 6.59.707 1.024 2.714 2.695 3.236 2.695.144 0 .778.233 1.407.518 1.307.591 5.461 1.591 7.599 1.831 3.326.372 6.609 2.664 7.431 5.188 1.012 3.112 1.316 8.407.482 8.407-.212 0-.537-.499-.721-1.109-.4-1.324-2.417-5.131-3.447-6.506-2.009-2.682-4.085-4.048-7.973-5.246-3.267-1.006-6.63-.98-8.909.068-1.568.722-1.637.793-1.13 1.166.298.219.747.397 1 .397.529 0 2.905 1.264 3.909 2.08 1.093.888 3.877 4.29 3.877 4.738 0 .225-.156.451-.348.503-.191.052-1.287.321-2.436.597-2.317.557-4.193 1.433-5.606 2.618l-.936.785.784.301c.431.165 1.225.301 1.764.301 1.731 0 8.225 2.065 8.727 2.776.077.108.515.39.975.626.915.471 3.056 2.447 3.831 3.534 2.941 4.131 3.901 6.545 4.954 12.449.31 1.74.626 3.264.702 3.387.122.196-1.076 5.503-1.476 6.543-.292.757-.624-.262-.653-2.004-.048-2.879-1.031-7.873-1.857-9.433-.16-.302-.696-1.359-1.19-2.35-1.011-2.025-1.995-3.382-4.986-6.875-2.332-2.723-3.778-3.921-5.561-4.606-1.73-.665-1.957-.249-.778 1.423 1.303 1.846 2.112 4.928 2.419 9.219.156 2.161.415 3.807.681 4.315.237.451.431 1.023.432 1.269.001.246.252.765.558 1.153.307.387.557.831.557.986 0 .155.296.635.659 1.066a36.573 36.573 0 011.533 2.031c4.484 6.391 5.112 7.728 5.154 10.952.028 2.155-.013 2.302-1.454 5.13-2.063 4.047-2.637 4.989-3.038 4.99-.475.001-.447-2.401.056-4.765.707-3.323.828-6.789.311-8.959a425.455 425.455 0 01-.718-3.067c-.224-.98-1.259-2.952-3.533-6.729a20.99 20.99 0 01-.928-1.711 44.314 44.314 0 00-.849-1.719c-.293-.564-.534-1.352-.534-1.751 0-.399-.134-.975-.298-1.28-.582-1.084-1.472.243-2.666 3.974-.643 2.01-.734 2.756-.725 5.906.007 2.396.151 4.069.432 4.99l.846 2.773c.234.763 1.11 3.258 1.947 5.546 2.066 5.65 2.609 7.474 2.811 9.43.278 2.702.082 3.135-2.723 5.995-2.884 2.942-6.975 6.479-7.492 6.479-.569 0-.559-1.194.017-2.009.297-.42.637-1.075.755-1.457.118-.381.447-1.128.732-1.659.285-.532.518-1.179.518-1.439s.115-.544.255-.631c.141-.086.636-1.373 1.101-2.858 2.176-6.959 1.622-14.111-1.463-18.892-.8-1.241-3.954-4.466-4.366-4.466-.47 0-.535.562-.277 2.378.314 2.207-.046 7.08-.663 8.968-1.205 3.69-1.687 7.029-1.643 11.378.025 2.357.199 5.013.388 5.901.435 2.039.209 6.741-.377 7.87-.231.446-1.09 1.228-1.908 1.739a74.414 74.414 0 00-2.235 1.445c-.412.284-1.476.903-2.366 1.375a102.96 102.96 0 00-3.011 1.669c-.766.445-1.662.927-1.992 1.069-.329.143-.681.393-.782.554-.225.364-1.82.394-1.82.034 0-.144.116-.332.257-.419.142-.087.346-.562.455-1.056.194-.883 2.368-3.978 3.941-5.612 2.474-2.569 4.811-6.474 6.036-10.084 1.605-4.731 1.567-12.23-.081-16.283-.421-1.035-.897-1.926-1.057-1.979-.185-.061-.342.992-.431 2.895-.198 4.214-.882 5.617-5.136 10.543-1.888 2.187-3.759 5.488-4.678 8.254-.939 2.83-1.558 7.582-1.479 11.368.051 2.442-.033 3.796-.262 4.2-.186.327-1.75 1.379-3.475 2.336-3.652 2.026-4.801 2.739-10.193 6.331a2546.194 2546.194 0 01-4.638 3.085c-.629.414-2.529 1.932-3.46 2.764-.255.229-1.321 1.159-2.368 2.067-1.047.908-2.072 2.053-2.278 2.544-.38.905-.988 6.167-.757 6.549.382.63 1.473-.142 4.712-3.337 5.487-5.411 7.768-7.182 15.983-12.414 2.758-1.756 10.905-6.222 11.336-6.213.273.005.998.25 1.61.545.613.294 1.203.54 1.313.545.25.012 1.669 1.004 4.987 3.487 1.435 1.074 3.351 2.322 4.258 2.773 1.633.812 1.693.82 6.403.82 4.909 0 5.457-.1 8.652-1.573 1.929-.889 4.722-3.275 4.997-4.269.153-.551.093-.565-1.584-.349-2.923.375-3.734.205-11.208-2.353-6.502-2.226-6.427-2.209-10.506-2.261-3.736-.046-4.653-.212-3.824-.692a113.263 113.263 0 005.226-3.201c4.543-2.942 4.908-3.04 8.229-2.199 1.763.447 5.116 1.681 5.608 2.065.363.283 4.317 1.761 6.226 2.327 3.259.967 6.813.458 12.427-1.779 1.225-.488 2.825-.977 3.556-1.086 1.812-.271 2.046-.582 1.109-1.473-.792-.753-5.413-3.26-6.008-3.26-.185 0-.787-.24-1.338-.534-.551-.295-1.489-.617-2.084-.717-.595-.1-1.457-.293-1.917-.429-2.88-.854-9.512-.795-12.994.117-.87.227-1.84.346-2.158.263-.603-.157-.816-.918-.256-.918.176 0 1.711-1.348 3.41-2.995 4.024-3.901 4.98-4.359 9.053-4.336 2.874.017 2.999.044 5.172 1.139 2.829 1.425 5.418 2.311 6.753 2.309 1.082-.001 2.586-.745 3.548-1.757.669-.702 2.076-2.737 2.083-3.012.003-.108.304-.634.668-1.169 1.652-2.424 3.64-3.164 6.664-2.479 1.045.237 1.969.362 2.053.278.373-.371-.301-1.638-1.548-2.913-1.815-1.856-4.514-3.088-6.765-3.088-1.566 0-3.817.696-5.826 1.802-.397.218-1.65.531-2.784.694-3.864.555-6.236 1.185-7.717 2.049a207.91 207.91 0 01-2.042 1.177c-.309.173-.702.453-.873.623-.171.171-.399.31-.507.31-.273 0 .036-1.159.444-1.664.185-.228.42-.603.522-.832.102-.228.549-.977.993-1.663 1.103-1.707 3.638-6.873 3.638-7.415 0-.27 1.74-2.012 2.009-2.012.096 0 1.364-.562 2.819-1.248 1.455-.686 2.764-1.248 2.91-1.248.146 0 1.252-.334 2.458-.741 1.851-.626 2.693-.745 5.395-.763 3.551-.023 4.19.18 5.745 1.827 1.027 1.087 2.327 3.455 2.333 4.25.006.802.468 1.446.796 1.109.147-.151.591-.886.986-1.633 1.044-1.971 1.029-4.986-.035-7.111-.945-1.89-2.601-3.5-4.652-4.523-1.441-.719-1.862-.793-4.597-.811-2.788-.017-3.192.052-5.459.93-1.878.727-2.943 1.368-4.575 2.751-2.587 2.193-3.26 2.613-3.43 2.14-.067-.185.005-.581.16-.881.309-.594 1.113-3.854 1.724-6.985.39-2.002 1.187-3.901 1.866-4.451 1.807-1.465 4.444-1.884 6.762-1.075 2.054.716 5 1.364 6.727 1.479 3.809.254 7.387-2.483 10.039-7.681.518-1.014 1.479-4.024 1.479-4.629 0-.317-1.322.315-2.132 1.018-.484.42-1.537.982-2.341 1.247-1.692.56-5.142.649-6.802.176-.613-.174-2.242-.318-3.62-.319-3.798-.002-6.279 1.098-8.75 3.879-.679.763-1.352 1.388-1.497 1.388-.156 0-.188-.596-.079-1.456.101-.801.289-2.669.416-4.152.26-3.017.476-3.477 2.561-5.458 1.375-1.307 3.942-2.798 4.816-2.798.26 0 .811-.169 1.225-.377.413-.208 1.304-.462 1.979-.565 1.927-.294 5.101-1.738 6.321-2.874 1.344-1.253 2.069-2.545 3.07-5.472.672-1.969.76-2.643.777-5.988.014-2.838-.077-3.884-.369-4.236-.355-.426-.435-.388-.932.442-1.305 2.18-3.99 4.29-7.589 5.963-.459.213-1.023.505-1.253.648-.229.143-.71.386-1.069.54-1.773.76-6.726 5.575-6.726 6.54 0 .09-.237.496-.528.903-.29.406-.67 1.262-.843 1.902-.355 1.316-1.029 1.377-1.292.118a218.54 218.54 0 00-.396-1.842c-.134-.61-.394-2.551-.58-4.314-.373-3.548-.232-4.396 1.059-6.359.636-.967 3.913-3.883 4.365-3.883.1 0 1.024-.554 2.052-1.231 2.112-1.39 3.855-3.11 4.76-4.696.776-1.361 1.426-4.406 1.426-6.683 0-1.883-.62-5.587-1.076-6.427a40.236 40.236 0 01-.846-1.759c-.834-1.83-2.492-4.298-2.887-4.298-.232 0-.406.845-.543 2.634-.322 4.226-1.564 6.739-5.174 10.465-3.221 3.324-4.061 4.894-4.545 8.486-.298 2.21-.41 2.549-.734 2.226-.211-.21-.494-.381-.63-.381-.137 0-.383-.531-.548-1.178-.293-1.155-.411-1.488-1.655-4.696l-.611-1.577 1.148-1.75c1.394-2.126 3.024-5.473 3.255-6.685.093-.489.327-1.202.52-1.584.53-1.054 1.52-7.296 1.511-9.53-.005-1.086-.325-3.66-.711-5.718a411.662 411.662 0 01-1.066-5.9c-.199-1.185-.454-2.245-.564-2.355-.111-.111-.389.048-.617.353-1.415 1.888-3.994 7.075-3.994 8.031 0 .25-.174.79-.387 1.202-.213.411-.662 2.653-.997 4.98-.648 4.494-.642 7.602.023 11.545.241 1.426.253 2.147.041 2.524-.271.483-.335.446-.756-.43-.692-1.442-1.586-2.952-3.124-5.277-.807-1.22-1.124-4.513-.686-7.133.266-1.593 1.466-5.061 1.986-5.738.116-.153.535-1.4.93-2.773 1.263-4.385 1.265-10.18.005-14.111-.954-2.979-1.627-4.598-1.966-4.728-.33-.126-.94 1-3.224 5.946-1.631 3.534-2.573 6.487-3.11 9.755-.199 1.212.862 8.075 1.416 9.155.448.875.513 2.717.096 2.717-.158 0-.371-.218-.474-.485-.17-.441-2.423-3.306-5.039-6.409-1.355-1.606-1.509-2.094-1.283-4.058.209-1.808.351-2.211 1.369-3.882.372-.61.76-1.296.862-1.525.103-.229.415-.915.694-1.525 1.826-3.992 2.313-10.794 1.102-15.389-.341-1.296-.718-2.46-.838-2.588-.208-.221-1.674 1.434-1.674 1.89 0 .121-.551 1.053-1.224 2.07-1.514 2.289-3.108 5.598-3.488 7.237-.506 2.187-.356 7.678.258 9.414.538 1.524.721 3.348.371 3.697-.102.102-1.606-1.28-3.341-3.07-2.375-2.45-3.199-3.488-3.333-4.2-.217-1.151.07-5.535.422-6.458.141-.368.401-2.038.578-3.711.504-4.752-.106-8.368-2.138-12.668-1.158-2.452-2.012-2.036-2.706 1.317-.878 4.247-1.023 5.642-.923 8.91.096 3.161.966 7.561 1.633 8.267.282.299.344 2.093.072 2.093-.385 0-3.131-2.424-4.026-3.553-1.13-1.428-1.852-2.624-3.045-5.042-2.035-4.123-2.658-5.962-3.34-9.843-.655-3.732-.677-5.408-.108-8.204.468-2.3.451-3.335-.058-3.501-.172-.057-1.187.84-2.254 1.994zm-42.549 24.753c.211.953-.239 1.407-1.076 1.087-.341-.131-.341-.33 0-1.46.218-.72.411-1.758.431-2.305.03-.867.061-.817.24.39.113.763.295 1.792.405 2.288zm6.039-2.08c.186.649.447 1.322.579 1.498.132.175.368 1.108.524 2.073.156.965.411 1.833.567 1.928.155.096.413 1.16.573 2.363.16 1.204.448 2.501.64 2.883.193.38.439 1.537.547 2.569.108 1.032.437 2.557.731 3.39.294.832.534 1.894.534 2.359 0 .465.238 1.52.53 2.345.291.825.617 2.038.725 2.697.492 2.997 3.341 6.733 7.409 9.716 2.274 1.668 5.572 3.633 6.649 3.962.382.117 1.132.444 1.666.728.533.284 1.16.52 1.392.525.232.005.923.25 1.535.545.613.295 1.302.54 1.531.545.23.005 1.17.255 2.088.555 3.572 1.164 5.386 1.653 7.854 2.115l2.564.48.544-.67c.623-.765.7-.727 1.273.64.384.915.379 1.052-.06 1.575-.451.537-.603.554-2.43.27-1.072-.167-2.576-.494-3.341-.727a52.426 52.426 0 00-2.923-.775c-.843-.193-1.908-.482-2.367-.643a73.464 73.464 0 00-5.011-1.55c-.766-.202-1.768-.566-2.227-.811-.46-.245-.985-.447-1.167-.448-.453-.002-4.956-2.346-5.845-3.042-.396-.31-.841-.564-.99-.564-.148 0-.618-.28-1.043-.624-.425-.343-1.178-.936-1.674-1.317-2.047-1.574-2.5-2.013-3.939-3.806-1.576-1.966-2.745-3.908-2.739-4.55.002-.208-.243-1.189-.544-2.18-.774-2.544-1.619-6.477-1.846-8.596-.106-.99-.353-2.116-.547-2.499-.195-.383-.445-2.005-.557-3.604-.118-1.685-.364-3.138-.584-3.455-.209-.3-.382-.987-.384-1.525-.006-1.64-.276-2.265-.937-2.17-.501.07-.612.318-.73 1.634-.076.854-.282 1.727-.456 1.941-.174.214-.402 1.45-.505 2.746-.104 1.297-.375 3.024-.603 3.838-.228.814-.526 2.454-.662 3.643-.136 1.19-.429 2.77-.65 3.51a39.986 39.986 0 00-.69 2.734c-.866 4.174-1.79 6.285-3.771 8.618-1.517 1.786-5.684 5.372-6.677 5.746-.325.122-.78.39-1.013.595-.905.797-4.86 2.649-7.45 3.49-1.495.484-2.969 1.014-3.275 1.176-.306.163-1.246.452-2.088.643-.842.191-2.032.539-2.645.772-.612.234-1.393.43-1.734.437-.342.007-1.093.199-1.67.426-.578.228-2.115.598-3.417.823-2.254.389-2.391.383-2.898-.12-.516-.512-.517-.566-.035-1.823l.497-1.296.609.76c.515.644.755.736 1.566.603 2.188-.36 4.926-1.005 5.969-1.404.612-.236 1.381-.433 1.71-.44.327-.007 1.141-.259 1.809-.56.667-.302 1.529-.552 1.914-.555.385-.004 1.136-.237 1.67-.518.534-.282 1.346-.6 1.805-.705.786-.181 1.818-.626 4.455-1.92 3.59-1.763 8.438-5.706 10.459-8.509 1.254-1.74 2.305-4.82 3.19-9.351.215-1.103.575-2.662.8-3.466.225-.804.494-2.136.598-2.96.105-.824.348-1.885.542-2.357.194-.473.441-1.703.548-2.733.107-1.031.37-2.049.584-2.262.215-.214.472-1.118.572-2.008.1-.891.352-1.932.56-2.313a12.33 12.33 0 00.652-1.456c.388-1.082.769-.946 1.16.416zm5.919 2.269c.194.77-.154 1.1-.907.862-.439-.138-.48-.314-.28-1.196.13-.568.321-1.533.426-2.143l.19-1.109.2 1.454c.11.8.277 1.76.371 2.132zm-9.693-.801c-.095.375-.295.681-.445.681-.314 0-.376-2.3-.07-2.605.314-.313.708 1.16.515 1.924zm7.058-.081c.01.419-.098.762-.243.762-.477 0-.631-.578-.428-1.612.17-.867.234-.938.426-.467.124.305.234.897.245 1.317zm-12.156 2.608c-.188.076-.564.08-.835.01s-.116-.133.343-.138c.459-.006.681.052.492.128zm17.674.009a2.29 2.29 0 01-.975 0c-.267-.07-.048-.127.488-.127s.755.057.487.127zm-17.888 4.803c-.612.118-1.301.108-1.531-.024-.269-.154.127-.231 1.114-.216 1.52.023 1.523.025.417.24zm18.299-.048c-.334.21-2.012.106-2.012-.125 0-.06.533-.106 1.183-.103.71.002 1.041.094.829.228zm-19.866 3.344c.277.174.086.335-.696.585-.593.19-1.265.492-1.495.671-.23.18-1.357.806-2.506 1.39-1.782.908-3.37 1.855-5.959 3.55-3.622 2.374-8.536 7.35-11.57 11.716-.529.763-1.064 1.43-1.19 1.481-.124.053-.408.53-.63 1.06-.224.53-.534.886-.69.79-.421-.26-.345-1.62.126-2.238.225-.296.799-1.33 1.274-2.299 1.939-3.946 7.855-10.283 11.54-12.36.46-.258 1.462-.837 2.227-1.286.766-.45 1.58-.885 1.81-.968.23-.083.874-.39 1.434-.684.558-.293 1.559-.62 2.223-.725.664-.106 1.375-.359 1.58-.562.416-.416 1.94-.489 2.522-.121zm22.569.145c.18.217.854.482 1.496.588 2.894.481 9.104 4.146 12.667 7.475 2.062 1.927 6.178 7.1 6.178 7.764 0 .191.176.493.391.67.214.177.475.66.578 1.074.104.413.362.944.575 1.179.494.545.65 2.247.22 2.399-.178.063-.416-.173-.527-.524-.112-.352-.604-1.139-1.094-1.749-.49-.61-1.35-1.81-1.911-2.666-1.329-2.028-5.829-6.54-8.888-8.91-1.328-1.03-2.502-1.871-2.61-1.871-.107 0-1.019-.533-2.026-1.184-2.56-1.657-2.853-1.832-3.639-2.17a18.114 18.114 0 01-1.392-.69 24.977 24.977 0 00-1.751-.854c-.738-.324-.947-.531-.696-.69.579-.366 2.073-.268 2.429.159zm-12.127 15.238c.091 1.544.237 7.049.324 12.234.087 5.185.274 11.236.416 13.448.142 2.211.391 6.204.554 8.872.163 2.669.466 5.539.675 6.378.208.838.461 2.12.562 2.847.272 1.955.846 2.235 4.1 2.001 1.425-.103 3.342-.353 4.261-.556a38.763 38.763 0 013.48-.563c.995-.108 2.221-.362 2.723-.565.502-.204 1.655-.504 2.562-.668.908-.164 2-.48 2.428-.702.428-.223.995-.405 1.26-.406.635-.003 3.617-1.182 6.881-2.722 4.408-2.08 7.574-4.563 8.062-6.323.153-.552.491-1.238.75-1.523.259-.286.532-1.144.606-1.909.073-.763.243-1.389.377-1.389.336 0 .306 3.255-.041 4.439-.157.532-.414 2.208-.573 3.723-.158 1.515-.354 2.861-.434 2.99-.08.129-.579-.143-1.108-.606-.529-.463-1.005-.841-1.057-.841-.369 0-2.08.875-2.355 1.204-.185.223-.667.488-1.069.588-.403.101-1.041.425-1.418.721-.378.295-.879.537-1.114.537-.235 0-.626.168-.867.374-.242.205-1.004.565-1.693.8-.689.234-1.691.58-2.227.768-4.006 1.407-6.204 2.011-9.605 2.642-1.072.198-2.27.484-2.663.635-.393.15-1.458.357-2.366.46-.909.102-2.279.355-3.045.561-.765.206-2.081.499-2.923.651-2.289.412-4.137 1.288-4.45 2.108-.146.384-.411 2.977-.587 5.762-.177 2.785-.444 5.376-.594 5.757l-.273.693-.255-.663c-.141-.366-.376-2.487-.524-4.714-.376-5.687-.562-6.968-1.093-7.497-.704-.701-6.829-2.306-10.18-2.667-.92-.1-1.895-.3-2.168-.445-.273-.145-1.566-.436-2.873-.647-1.307-.211-2.524-.5-2.705-.643-.18-.143-.955-.351-1.72-.46-.766-.11-1.918-.438-2.56-.728-.643-.291-1.4-.529-1.682-.529-.282 0-1.004-.249-1.605-.554-.6-.305-1.199-.555-1.329-.555-.272 0-3.195-1.288-3.822-1.684-.23-.145-.918-.514-1.53-.819a26.65 26.65 0 01-2.002-1.122c-.828-.527-.945-.536-1.727-.134-.46.237-.952.635-1.092.883-.397.707-.607.092-.92-2.696-.156-1.393-.4-2.838-.543-3.212-.143-.374-.245-1.701-.228-2.949l.03-2.269.361 1.474c.2.812.56 1.694.802 1.96s.52.888.62 1.382c.202 1.007 3.04 4.035 4.077 4.35.342.103.81.348 1.039.545 1.034.883 8.822 4.288 9.82 4.293.187.001.692.183 1.12.406.428.222 1.52.538 2.428.702.907.164 2.06.464 2.562.667.502.203 1.79.453 2.862.557 1.072.102 2.64.364 3.483.58 1.907.49 7.361.669 7.78.257.282-.279.81-2.528 1.395-5.944.571-3.336 1.235-16.938 1.541-31.58.161-7.7.409-11.582.707-11.101.113.182.28 1.593.372 3.136zm35.164 6.602c-.089.22-.155.155-.168-.168-.012-.292.054-.456.146-.364.093.092.103.332.022.532zm-26.917 1.889a.278.278 0 01-.557 0 .278.278 0 01.557 0zm-17.818.96c0 .224-.25.54-.556.703-.307.163-.557.429-.557.59 0 .16-.282.535-.627.832-1.098.948-4.61 3.238-5.274 3.44-.353.107-.83.357-1.06.556-.23.199-.793.453-1.252.565-.46.111-1.272.433-1.806.714-.533.282-1.19.512-1.46.512s-1.211.24-2.092.533c-.882.293-2.573.616-3.76.717-1.186.101-2.158.298-2.158.438 0 .139-.657.231-1.461.203l-1.462-.05 1.353-.105c1.044-.081 1.385-.225 1.492-.634.148-.563.41-.678 2.166-.946.613-.093 1.678-.398 2.367-.677 1.565-.633 3.695-1.374 5.15-1.793.613-.176 1.424-.538 1.802-.805.379-.267.86-.485 1.07-.485.21 0 .7-.25 1.09-.555.389-.305.847-.556 1.018-.558.17-.003 1.5-.812 2.955-1.799 1.454-.986 2.739-1.796 2.854-1.798.115-.002.208.179.208.402zm19.968.495c.731.496 1.395.987 1.475 1.092.08.105.456.33.835.5.38.17 1.192.611 1.804.982.613.37 1.427.811 1.81.979.383.168 1.134.53 1.67.802.536.274 1.37.583 1.852.687.483.104 1.355.432 1.939.728.583.296 1.315.54 1.627.54.313.001.944.25 1.403.553.46.303 1.048.552 1.309.552 1.157.005 3.285.63 3.285.966 0 .209.559.479 1.322.637l1.323.275-1.203.033c-.737.02-1.366-.129-1.621-.384-.294-.292-1.011-.416-2.416-.416-1.94 0-3.187-.302-7.149-1.733-1.984-.717-4.392-1.82-5.282-2.42a221.86 221.86 0 00-1.936-1.28c-1.698-1.11-2.805-2.11-2.805-2.53 0-.195-.18-.355-.401-.355-.492 0-.806-.456-.573-.832.239-.385.244-.383 1.732.624zm-80.855 26.39c-.363.486-.938.749-2.085.954-.946.168-1.822.519-2.175.87-.61.608-1.135.628-1.328.05-.063-.19.258-.405.748-.503.473-.094.86-.329.86-.523 0-.489.65-.688 2.25-.688 1.03 0 1.369-.102 1.369-.416 0-.228.193-.416.43-.416.37 0 .36.096-.07.672zm142.926.16c.744 0 1.013.133 1.123.555.081.305.367.554.636.554.27 0 .645.186.834.413.28.336.253.447-.148.601-.326.125-.651-.007-.963-.39-.303-.374-1.078-.698-2.184-.915-.942-.184-1.713-.433-1.713-.554 0-.301.618-.521 1.067-.38.203.064.81.116 1.348.116zm-148.577 2.618c0 .22-.117.471-.26.559-.33.204-.663-.315-.436-.681.256-.413.696-.336.696.122zm152.223.103c.061.181-.088.329-.331.329a.44.44 0 01-.44-.439c0-.489.599-.404.771.11zm-153.615 1.316c0 .238-.127.354-.283.258-.156-.096-.211-.29-.123-.432.239-.385.406-.313.406.174zm154.514 0c0 .238-.127.354-.283.258-.156-.096-.211-.29-.123-.432.239-.385.406-.313.406.174zm-157.665 5.007c.095.247-.091 1.401-.415 2.565-.469 1.688-1.129 6.696-1.175 8.924-.007.283-.098.248-.311-.116-.397-.68-1.06-5.396-1.068-7.58-.006-2.051.3-2.793 1.479-3.591 1.094-.741 1.273-.765 1.49-.202zm161.879.176c1.525 1.117 1.669 1.709 1.352 5.534-.337 4.048-.813 6.439-1.119 5.615-.11-.299-.29-1.854-.399-3.455-.108-1.601-.437-3.704-.73-4.673-.584-1.929-.699-3.645-.244-3.645.159 0 .672.28 1.14.624z" fill="#C7A363"/></svg>