<svg width="78" height="159" fill="none" xmlns="http://www.w3.org/2000/svg"><path fill-rule="evenodd" clip-rule="evenodd" d="M30.86.383c-1.84.243-1.924.314-1.8 1.53l.13 1.275-.69-.956c-.38-.526-1.066-.957-1.524-.957-1.041 0-1.04.18.013 1.612 1.077 1.465 3.12 9.789 4.092 16.67.413 2.922.8 5.372.86 5.442.06.071 1.66-.183 3.558-.564 3.152-.633 3.756-.636 6.996-.03 2.482.464 3.632.526 3.831.207.157-.251.406-1.752.555-3.336.605-6.46 3.13-16.783 4.605-18.831l.841-1.17h-.909c-.5 0-1.294.43-1.764.957-.78.872-.83.881-.573.106.155-.467.316-1.032.358-1.254.082-.44-4.857-1.223-5.255-.833-.135.132-.463 1.134-.73 2.226-.48 1.967-.486 1.972-.566.499-.068-1.238-.143-1.345-.45-.638-.312.72-.373.646-.399-.486C42.008.374 41.438 0 39.222 0c-2.295 0-2.784.358-2.822 2.065l-.035 1.549-.59-1.276-.588-1.275-.07 1.488c-.067 1.421-.09 1.398-.495-.532C34.313.552 34.005.017 33.493.064a97.29 97.29 0 00-2.633.319zM24.427 3.38c0 .456.303 4.122.672 8.147.383 4.162.614 10.116.536 13.806l-.136 6.489 1.127-.224c2.219-.442 3.37.952 5.556 6.722l.863 2.28-.215-3.402c-.266-4.192-.033-3.761.93 1.72l.745 4.232 4.598.12c.515.014.973.032 1.38.048 1.617.063 2.457.096 2.95-.298.534-.427.661-1.355.927-3.287.062-.45.132-.956.216-1.523.612-4.129 1.362-6.683 1.047-3.563l-.407 4.04c-.22 2.189.063 1.77 1.57-2.334 1.185-3.223 2.935-5.054 4.6-4.812l1.202.175.038-7.948c.035-7.111.533-15.082 1.23-19.66.232-1.522.182-1.62-.76-1.487-.774.109-1.221.683-1.933 2.48-1.123 2.836-2.462 9.157-3.32 15.669-.35 2.656-.731 4.922-.847 5.037-.115.114-1.946-.027-4.068-.315-2.947-.4-4.631-.409-7.123-.041l-.766.114h-.001c-2.325.347-3.321.496-3.797.071-.356-.319-.42-.96-.533-2.08l-.05-.493c-.777-7.405-3.03-17.56-4.338-19.557-.77-1.176-1.893-1.251-1.893-.126zm1.299 30.708c-.566.92-.868 2.152-.868 3.546l-.002 2.138 1.636-.155c1.47-.14 1.761.01 2.888 1.472.688.895 1.889 3.16 2.667 5.033l1.416 3.405-.248-2.126c-.383-3.277-2.825-11.624-3.838-13.118-1.28-1.887-2.568-1.956-3.651-.195zm23.575-.407c-1.116 1.188-3.703 9.19-4.044 12.508l-.015.154c-.11 1.059-.173 1.672-.066 1.703.147.042.617-1.025 1.736-3.563l.12-.27c1.48-3.36 2.883-4.677 4.98-4.677h1.696l-.251-2.102c-.504-4.218-2.243-5.788-4.156-3.753z" fill="#C7A363"/><path d="M50.247 41.468c-2.467 1.74-5.466 9.031-4.973 12.088l.276 1.711-3.164.018-3.164.017 1.921 1.722c6.132 5.493 17.56 11.397 27.017 13.956 5.644 1.527 7.578.948 8.596-2.569.679-2.347.537-2.847-.895-3.159-.763-.166-1.475-.67-1.697-1.203-.21-.504-.905-2.256-1.543-3.893-1.734-4.441-4.31-8.419-7.442-11.492-3.144-3.085-4.978-4.408-8.522-6.151-3.293-1.62-5.164-1.925-6.41-1.045z" fill="#C7A363"/><path d="M33.608 44.906c.148.38.387 2.628.533 4.995l.265 4.303 4.777-.13 4.778-.13-.011-1.783c-.006-.98.136-3.17.314-4.865l.325-3.082h-5.624c-5.018 0-5.595.074-5.357.692z" fill="#C7A363"/><path d="M23.727 41.595c-3.674 1.258-7.06 3.509-10.664 7.088-3.701 3.674-6.271 7.88-8.1 13.253-.865 2.542-1.124 2.899-2.333 3.21-1.204.308-1.36.521-1.36 1.846 0 2.906 1.677 4.856 4.179 4.856 3.7 0 14.13-3.748 20.754-7.459 4.437-2.485 12.376-8.085 12.376-8.73 0-.215-1.347-.392-2.994-.392h-2.994l.258-1.863c.452-3.271-2.711-10.784-5.044-11.98-.566-.29-.9-.469-1.255-.524-.561-.09-1.171.129-2.823.695z" fill="#C7A363"/><path d="M35.362 60.199c-1.887 1.281-6.808 4.008-10.935 6.06-10.702 5.318-19.066 7.813-21.63 6.453-1.1-.583-1.94-2.08-1.986-3.541-.03-.901-.045-.905-.4-.087-.818 1.888-.402 10.613 1.12 23.523.369 3.117.578 5.759.465 5.87-.112.112.702 3.584 1.166 5.464l1.476.645 1.267 1.056c3.56 2.971 3.415 8.817-.333 13.442-1.52 1.875-1.535 1.959-.55 3.075.412.468.51.711.214.54-.328-.19-.536-.067-.536.318 0 1.329 2.76 8.365 5.29 13.487 3.386 6.853 12.375 22.477 12.936 22.485.719.009 2.38-2.758 3.357-5.595.877-2.548.923-3.408.894-16.926-.02-9.02-.293-17.657-.747-23.556-.394-5.123-.716-9.446-.716-9.608 0-.162-1.303-.832-2.895-1.49-3.397-1.404-8.08-4.023-9.396-5.254-.96-.898-1.973-4.55-2.522-9.089l-.296-2.444h4.078c4.705 0 9.705.909 13.39 2.434 3.441 1.424 7.316 4.168 7.917 5.605.613 1.467.013 6.71-1.56 13.643-.61 2.689-1.132 5.16-1.16 5.492-.07.822 4.231 3.013 5.894 3 .74-.005 2.31-.535 3.489-1.178 2.542-1.385 2.522-1.187.883-8.377-.64-2.806-1.271-6.834-1.403-8.952l-.24-3.85 1.881-1.598c2.28-1.938 6.967-4.263 10.457-5.188 1.416-.375 4.937-.786 7.827-.914l5.253-.232.001 1.439c0 .792-.316 3.16-.704 5.265-.87 4.722-1.673 5.601-7.74 8.48-2.314 1.097-4.69 2.228-5.28 2.512-1.051.506-1.082.66-1.573 7.942-2.135 31.669-1.77 41.495 1.736 46.748.625.936 1.305 1.702 1.51 1.702.319 0 6.527-10.49 11.12-18.791 3.004-5.426 6.482-14.02 7.502-18.538.156-.686-.155-1.406-1.034-2.398-1.429-1.613-2.764-4.405-3.18-6.651-.416-2.244.456-4.848 2.205-6.582 1.387-1.375 1.8-.38 2.43-1.025 1.353-2.686 1.813-5.59 1.723-5.68-.09-.088.13-2.435.487-5.215 1.11-8.63 1.519-14.189 1.484-20.147-.033-5.667-.042-5.716-.684-3.915-.895 2.506-2.15 3.241-5.028 2.947-5.712-.584-19.93-6.679-28.561-12.243-2.24-1.444-4.267-2.686-4.503-2.76-.236-.073-1.973.915-3.86 2.197z" fill="#C7A363"/></svg>