<svg width="67" height="160" fill="none" xmlns="http://www.w3.org/2000/svg"><path fill-rule="evenodd" clip-rule="evenodd" d="M16.065 6.006L23.259 0l2.821.611-1.743 8.124.538 8.67 2.154 4.064 2.154 11.921.788-5.69 1.097-8.398-1.616-6.232 1.616-5.418L33.5 2.219l3.331.722v5.253l1.942 2.008 1.492-6.52 2.33.514 1.227 3.147 2.453-2.345 4.66 1.008S43.83 39.892 41.587 50.37c29.115 8.14 25.753 40.206 24.78 49.49-.124 1.183-.21 1.996-.184 2.342.06.794.198 1.545.333 2.274.424 2.298.808 4.381-1.457 6.879-2.114 2.332-1.735 3.796-.775 7.509.395 1.528.889 3.436 1.347 5.943C69.332 144.985 42.454 160 42.454 160l1.574-45.497 17.762-8.721-2.126-10.16-21.605 11.867c-2.575 2.736 1.84 14.46 1.84 14.46l-6.398 5.862-6.398-5.862s4.415-11.724 1.84-14.46l-11.605-6.493v-5.374l-2.962 3.749-7.038-3.75-2.126 10.161 5.664 3.071-1.346 6.774 4.577-5.69 8.868 4.566L24.547 160S-2.33 144.985 1.368 124.808c.46-2.507.953-4.415 1.348-5.943.96-3.713 1.339-5.177-.775-7.509-2.265-2.498-1.88-4.581-1.457-6.879.135-.729.273-1.48.333-2.274.025-.346-.06-1.159-.184-2.343-.973-9.283-4.335-41.35 24.781-49.49-2.242-10.48-9.35-44.364-9.35-44.364zm15.003 56.373H33.5l5.376 1.626 2.692 4.335 4.846 1.354v6.503l4.578 3.522-2.424 1.896-2.423.542-3.77-2.438v-3.522l-4.317-1.626-2.952-.813.27-3.522H33.5l-.817-.542h-1.615l-.27-.27-.538.541h-.808l-.51-1.625-.836-1.084v-1.355l.836-.813v-2.167l2.126-.542z" fill="#C7A464"/></svg>