<svg width="70" height="160" fill="none" xmlns="http://www.w3.org/2000/svg"><path fill-rule="evenodd" clip-rule="evenodd" d="M40.719.063l-1.836.19-.444 2.531c-.244 1.393-.466 3.102-.493 3.798-.1 2.617-.681-.13-.708-3.346L37.213.072H29.89l-.234 1.718c-.303 2.216-.443 2.622-.905 2.622-.219 0-.38-.92-.38-2.17 0-1.648-.127-2.17-.53-2.17-.839 0-.879.315-.548 4.34.172 2.088.661 9.25 1.088 15.913.427 6.664.844 12.324.928 12.578.116.353 1.505.438 5.961.361l5.81-.1.241-3.616c.133-1.99.427-6.953.654-11.031.227-4.078.595-9.828.817-12.778.228-3.03.264-5.473.083-5.614-.177-.138-1.147-.166-2.156-.062zm-6.227 36.458l-5.116.1.242 2.793c.134 1.536.343 3.728.466 4.872l.224 2.08h4.938c3.628 0 4.975-.12 5.08-.453.078-.248.225-2.365.326-4.704.162-3.732.109-4.286-.43-4.521-.338-.148-2.917-.223-5.73-.168zm-9.314 7.865c-6.654 1.756-14.023 6.236-18.245 11.092C3.772 59.114-.205 65.811.428 66.433c.089.087 2.475-.571 5.303-1.463 2.828-.891 5.418-1.555 5.757-1.474.339.082 5.23-1.14 10.868-2.716 5.638-1.576 10.998-2.955 11.91-3.066 1.354-.165 3.613.342 12.34 2.767 5.877 1.633 11.159 2.96 11.739 2.95.856-.016 3.846.816 10.79 3.005.941.297.772-.42-.808-3.424-3.339-6.346-9.358-12.329-15.621-15.528-3.253-1.661-9.09-3.68-9.833-3.4-.308.117-.503.745-.503 1.622 0 2.747.026 2.736-6.734 2.802-3.31.032-6.3-.047-6.642-.176-.389-.146-.637-.662-.66-1.371-.049-1.52-.454-2.87-.894-2.984-.197-.05-1.215.134-2.262.41zm-2.417 18.431c-5.213 1.466-9.648 2.768-9.855 2.893-.207.126-.376.616-.376 1.09 0 1.29-.522 1.358-1.243.161-.352-.586-.921-1.058-1.265-1.05-.343.008-2.696.7-5.228 1.537L.189 68.97.094 96.534 0 124.097l3.332 4.083c1.832 2.245 3.479 4.132 3.66 4.194.179.061.983-.296 1.787-.793.803-.498 1.56-.806 1.684-.685.124.122.225 1.384.225 2.805v2.583l10.744 11.733c5.909 6.452 10.882 11.786 11.052 11.853.469.183.51.49-1.211-8.982a1385.89 1385.89 0 01-.874-4.882 3109.05 3109.05 0 00-1.998-11.031c-.817-4.476-1.748-9.603-2.069-11.393-.32-1.79-.823-4.452-1.114-5.916-.292-1.463-.53-3.041-.53-3.507 0-.654-1.445-2.027-6.356-6.039-3.495-2.857-6.575-5.325-6.845-5.484-.316-.187-.858.055-1.526.683-1.162 1.093-1.685.759-1.115-.714.462-1.193.338-1.395-1.466-2.39-1.125-.62-1.468-1.043-1.554-1.916-.219-2.198.122-9.618.442-9.618.178 0 2.278.904 4.665 2.01l4.34 2.01 1.994-2.021c1.097-1.112 2.068-1.948 2.16-1.86.09.09-.181.929-.603 1.866-.423.937-.764 1.886-.76 2.11.006.223 2.739 1.626 6.074 3.118 3.336 1.492 6.067 2.882 6.07 3.089.003.206-.67 2.078-1.495 4.159-.825 2.081-1.771 4.565-2.103 5.52l-.602 1.737 4.4 8.663c2.42 4.764 4.53 8.62 4.69 8.568.16-.053 1.283-2.291 2.496-4.975a493.83 493.83 0 012.56-5.603c1.307-2.675 2.953-6.489 2.953-6.847 0-.235-.996-2.853-2.213-5.817-2.437-5.936-2.441-5.773.187-6.788.81-.314 5.847-2.372 11.192-4.574s9.945-4.003 10.223-4.003c.404 0 .503 1.027.497 5.153l-.007 5.154-8.65 6.649c-4.758 3.658-8.651 6.669-8.652 6.691 0 .023-.42 2.32-.934 5.105-.512 2.785-1.248 6.854-1.634 9.042-.386 2.188-1.056 5.932-1.489 8.319-.776 4.283-.998 5.523-2.01 11.211-1.915 10.759-2.34 13.385-2.189 13.533.208.204-.627 1.085 9.92-10.459 4.816-5.271 9.48-10.369 10.363-11.33 1.584-1.723 1.605-1.78 1.605-4.37 0-1.443.101-2.723.225-2.845.124-.121.866.177 1.65.663.785.487 1.56.884 1.723.884.28 0 3.213-3.367 5.889-6.758L70 124.168v-55.33l-.829-.237c-.456-.13-2.63-.792-4.83-1.47-2.2-.68-4.227-1.235-4.504-1.235-.276 0-.771.512-1.1 1.138-.463.877-.675 1.022-.926.632-.179-.277-.328-.85-.331-1.27-.004-.632-.411-.876-2.308-1.386-1.266-.341-5.752-1.587-9.968-2.769-4.216-1.181-7.798-2.069-7.959-1.971-.16.098-.396 1.281-.523 2.63a744.526 744.526 0 01-.781 7.517c-.302 2.784-.553 5.217-.56 5.406-.006.208-.156.201-.376-.015-.202-.198-.616-2.794-.92-5.769-.828-8.06-1.072-9.68-1.477-9.788-.203-.054-4.634 1.101-9.847 2.566z" fill="#C7A363"/></svg>