<svg width="64" height="64" fill="none" xmlns="http://www.w3.org/2000/svg"><path d="M57.126 39.96s.024 0 .024.024c.025-.048.073-.096.097-.145a3.99 3.99 0 00.702-2.13c0 .145-.024.29-.048.46 0 .048-.024.097-.024.12-.025.073-.025.146-.049.219-.024.097-.048.218-.097.314l-.072.218s0 .025-.024.025c-.025.072-.073.169-.097.242-.049.072-.073.145-.121.242l-.025.024-.145.218c-.048.048-.072.097-.097.145-.024 0-.024.024-.024.024zm-1.115-12.997s.024.024 0 0zm-3.388 3.871c0 .073.024.121.024.194.024.218.048.435.097.653.024.121.024.242.048.363.048.363.121.726.218 1.09l.073.363c.024.17.072.339.12.508.049.218.097.411.17.605v-.024c-.048-.218-.121-.412-.17-.63 0-.048-.024-.096-.024-.12l-.145-.581c-.048-.218-.097-.436-.145-.678-.049-.194-.073-.412-.097-.605-.024-.073-.024-.146-.048-.242-.025-.146-.049-.267-.073-.412 0-.048-.024-.097-.024-.145 0-.121 0-.218-.024-.339zm-.507-4.55c.072.097.145.17.218.267a.275.275 0 01.072.193c0-.072-.024-.17-.072-.218a1.088 1.088 0 00-.218-.242c0-.024 0 0 0 0zM50.88 28.22c.509-.218 1.017-.436 1.526-.63h.024v-.048s0-.024-.024-.024c-.509.217-1.017.435-1.501.629 0 .024-.025.048-.025.073zm-1.257 6.15v.048c.532.242 1.065.484 1.597.702.024 0 .049.024.073.024.556.218.823.484.871 1.089-.024-.63-.29-.896-.871-1.138-.024 0-.049-.024-.073-.024a46.173 46.173 0 01-1.597-.702zm6.801 8.641c.169.436.387.848.629 1.26.436.75.63 1.379.775 1.887.024.097.048.194.096.315l.727 2.3.024.048c1.67-1.283 2.227-1.259 4.066.072.363.267.702.557 1.065.847.049-.024.121-.072.194-.096-.726-1.477-1.404-3.002-2.203-4.43-.218-.411-.798-.726-1.283-.871-.823-.242-1.452-.702-1.888-1.429-.072-.12-.145-.266-.266-.363-.387-.338-.799-.629-1.186-.944-.29.436-.532.92-.75 1.404zm-4.334-2.445c.145 1.21.436 2.421.871 3.583l.049.048c-.024-.024-.024-.072-.049-.097-.435-1.137-.75-2.323-.871-3.534zm-6.56 4.356v.025l.436-.872c.072-.145.145-.266.194-.411.556.435 1.137.871 1.694 1.331.097.073.145.17.218.266.048.097.097.17.145.267.63 1.04 1.5 1.67 2.687 2.033.678.218 1.5.653 1.815 1.234.121.218.242.436.363.678.024.024.024.048.049.073 0 .024.024.048.024.048.121.242.266.508.387.75.073.121.121.242.194.364.073.12.12.242.194.363l.435.871v-.024s0-.024-.024-.024l-.436-.872a2.646 2.646 0 00-.193-.363 2.636 2.636 0 00-.194-.363c-.121-.242-.266-.508-.387-.75-.025-.025-.025-.049-.025-.049 0-.024-.024-.048-.048-.072-.12-.218-.242-.46-.363-.678-.315-.581-1.138-1.017-1.815-1.235-1.187-.363-2.058-.992-2.663-2.033-.048-.072-.097-.17-.17-.266a2.605 2.605 0 00-.217-.267c-.557-.46-1.138-.895-1.695-1.33-.072.145-.145.266-.193.41-.121.291-.267.606-.412.896zm-4.598-3.533c0 .024 0 .048.025.072.12.702.266 1.38.435 2.058 0 .048.024.097.024.145.025.121.049.242.097.363.025.121.049.242.097.363.048.17.097.363.145.533.049.193.097.363.146.556.096.364.217.727.338 1.09h.025c0-.025-.025-.025-.025-.049a18.7 18.7 0 01-.338-1.089c-.049-.194-.097-.363-.146-.557-.048-.17-.097-.363-.145-.532-.024-.121-.072-.242-.097-.363-.024-.121-.072-.242-.096-.363 0-.049-.025-.097-.025-.146a18.623 18.623 0 01-.46-2.081c0 .024 0 0 0 0zm-.194-1.211l.145.944v-.049c-.073-.29-.097-.58-.145-.895z" fill="#C7A363"/><path d="M29.748 40.182v.048l-.048.024.048-.072zm6.391 3.073h-.025v-.025s.025 0 .025.025z" fill="#fff"/><path d="M41.343 35.121c0 .024.024.048.024.073h.025l.096-.049h-.145v-.024z" fill="#C7A363"/><path d="M41.464 35.12l-.097.048h-.024c0-.024-.024-.048-.024-.072h.145v.024zm0 0l-.097.048h-.024c0-.024-.024-.048-.024-.072h.145v.024zm-5.253 13.507l-.072.12-.025.05v-.243c.025.024.073.048.097.073zm5.253-13.507l-.097.048h-.024c0-.024-.024-.048-.024-.072h.145v.024zm12.877 16.823l.073.145-.121-.072c.024-.025.048-.049.048-.073zM41.464 35.12l-.097.048h-.024c0-.024-.024-.048-.024-.072h.145v.024zm-5.325 8.133h-.025v-.025s.025 0 .025.025z" fill="#fff"/><path d="M29.7 40.252l.048-.024v-.048l-.048.072z" fill="#C7A363"/><path d="M20.6 42.745l1.161.145h-.024l-1.137-.145zm20.865-7.625l-.097.048h-.024c0-.024-.024-.048-.024-.072h.145v.024zm-11.717 5.06v.048l-.048.024.048-.072z" fill="#fff"/><path d="M36.114 43.23v.025h.025c0-.025-.025-.025-.025-.025zM29.7 40.252l.048-.024v-.048l-.048.072zm24.641 11.691c0 .025-.024.049-.048.073l.121.073-.073-.146zm-18.227-3.412v.242l.024-.048.073-.121c-.024 0-.073-.024-.097-.073zm-15.539-5.787l1.137.145h.024c-.363-.072-.75-.096-1.162-.145zm-.098-.023h.096l.025-.073c-.024.025-.073.049-.121.073z" fill="#C7A363"/><path d="M20.598 42.744l1.162.145h-.024l-1.138-.145zM12.44 42.6h.025-.024v.048c-.024 0-.024 0-.049-.024l.049-.024z" fill="#fff"/><path d="M41.465 35.122l-.097.048h-.024c0-.024-.024-.048-.024-.072h.145v.024zm0 0l-.097.048h-.024c0-.024-.024-.048-.024-.072h.145v.024zm0 0l-.097.048h-.024c0-.024-.024-.048-.024-.072h.145v.024zm0 0l-.097.048h-.024c0-.024-.024-.048-.024-.072h.145v.024zm0 0l-.097.048h-.024c0-.024-.024-.048-.024-.072h.145v.024zm0 0l-.097.048h-.024c0-.024-.024-.048-.024-.072h.145v.024zm0 0l-.097.048h-.024c0-.024-.024-.048-.024-.072h.145v.024zm0 0l-.097.048h-.024c0-.024-.024-.048-.024-.072h.145v.024zm0 0l-.097.048h-.024c0-.024-.024-.048-.024-.072h.145v.024zm-11.717 5.06v.048l-.048.024.048-.072z" fill="#C7A363"/><path d="M29.748 40.182v.048l-.048.024.048-.072z" fill="#C7A363"/><path d="M29.748 40.182v.048l-.048.024.048-.072z" fill="#C7A363"/><path d="M29.748 40.182v.048l-.048.024.048-.072z" fill="#C7A363"/><path d="M29.748 40.182v.048l-.048.024.048-.072zm6.391 3.073h-.025v-.025s.025 0 .025.025z" fill="#C7A363"/><path d="M29.748 40.182v.048l-.048.024.048-.072zm6.391 3.073h-.025v-.025s.025 0 .025.025z" fill="#C7A363"/><path d="M29.748 40.182v.048l-.048.024.048-.072z" fill="#C7A363"/><path d="M29.748 40.182v.048l-.048.024.048-.072zm6.391 3.073h-.025v-.025s.025 0 .025.025z" fill="#C7A363"/><path d="M29.748 40.182v.048l-.048.024.048-.072z" fill="#C7A363"/><path d="M29.748 40.182v.048l-.048.024.048-.072z" fill="#C7A363"/><path d="M29.748 40.182v.048l-.048.024.048-.072z" fill="#C7A363"/><path d="M29.748 40.182v.048l-.048.024.048-.072z" fill="#C7A363"/><path d="M29.748 40.182v.048l-.048.024.048-.072z" fill="#C7A363"/><path d="M29.748 40.182v.048l-.048.024.048-.072zm15.782 4.792c.122.387.243.75.364 1.138.097.29.218.605.315.895.048.17.12.315.17.484.047.17.096.34.144.484.049.121.073.242.121.388l1.719 5.494c1.138-.871 1.888-1.307 2.687-1.307.823 0 1.67.484 3.001 1.428.509.364 1.017.8 1.501 1.186l.266-.145-.024-.024c-.484-.968-.944-1.96-1.404-2.929l-.12-.072c.023-.025.023-.049.048-.073l-.436-.871c-.048-.121-.121-.242-.194-.364a2.61 2.61 0 00-.193-.363c-.121-.242-.267-.508-.388-.75 0-.024-.024-.048-.024-.048-.024-.025-.024-.049-.048-.073-.121-.218-.242-.46-.363-.678-.315-.58-1.138-1.017-1.816-1.234-1.186-.363-2.057-.993-2.687-2.034a2.64 2.64 0 01-.145-.266 2.563 2.563 0 00-.218-.266 45.639 45.639 0 00-1.694-1.331c-.073.145-.145.266-.194.411-.097.315-.242.605-.387.92zm-1.257-21.518c0-.048 0-.097-.024-.145.557-.145 1.162-.194 1.767-.194.75 0 1.525.073 2.251.194 1.646.339 2.542 1.525 2.566 1.573 0 0 0 .024.024.073v.072c-1.09.775-2.905 2.155-3.195 2.494-.024.024-.049.048-.049.072 1.187-.726 2.373-1.428 3.631-2.203.025 0 .049-.024.073-.024.048 0 .072.024.097.049.218.266.435.532.678.847.072.097.145.17.217.266a.275.275 0 01.073.194.353.353 0 01-.17.314c-.338.17-.702.34-1.113.533-1.912.944-4.333 2.179-4.865 2.517-.073.049-.121.073-.097.097a638.84 638.84 0 004.744-1.985 40.492 40.492 0 011.525-.629h.024c0 .387 0 .75.025 1.138 0 .145.024.29.024.435.024.243.024.46.048.678l.073.678c0 .121.024.218.048.315 0 .072.024.12.024.193.025.218.049.436.097.654.024.12.024.242.049.363.048.363.12.726.218 1.09l.072.362c.024.17.073.34.121.509.049.217.097.411.17.605l.145.508c.145.484.29.968.46 1.428.097.315.218.63.339.944.024.024.024.049.024.073.024.193-.145.315-.315.315a.266.266 0 01-.242-.146l-.436-.944c-.12-.266-.242-.532-.339-.799-.12-.29-.266-.58-.387-.871-.097-.218-.193-.411-.29-.63-.46-.992-1.55-1.621-2.687-1.694h-.266a3.49 3.49 0 00-1.937.581c-.024 0-.024.024-.048.024.774.34 1.5.702 2.227 1.041.532.242 1.065.484 1.597.702.025 0 .049.024.073.024.557.218.823.485.871 1.09v.242c0 .17-.024.339-.048.556v.073c0 .049-.024.121-.024.17a6.116 6.116 0 00-.073.944c0 .12 0 .217-.024.338v.896c0 .097 0 .194.024.29.024.291.049.581.073.848.145 1.21.435 2.42.871 3.582.048.121.097.242.145.34 0 .023.025.023.025.047 0 0-.025 0-.025-.024a7.217 7.217 0 00-1.113-.435c-.46-.146-.533-.267-.63-.436l-.024-.049a5.425 5.425 0 00-1.113-1.38c-.46-.387-.896-.725-1.332-1.064a7.56 7.56 0 00-.46-.363l-1.742-1.38a1.227 1.227 0 00-.218-.387c.024-.073.073-.17.097-.242.12-.364.193-.775.218-1.162v-.388c0-.12-.025-.218-.049-.339a4.899 4.899 0 00-.218-.798c-.12-.34-.242-.678-.363-1.017-.871-2.469-1.428-4.817-1.67-7.116-.048-.364-.072-.702-.097-1.041-.024-.17-.024-.363-.024-.533-.024-.508-.024-1.017-.024-1.5v-.195c0-.169-.024-.314-.049-.483v-.533c-.024-.073-.024-.145-.048-.242z" fill="#C7A363"/><path d="M7.722 21.81v-.097c.339-2.178.726-4.333 1.186-6.487.194-.872.58-1.695 1.5-1.695.098 0 .17 0 .267.025 0-.024-.024-.024-.024-.049-.121-.339-.363-.702-.363-.968v-.024c0-.049 0-.097.024-.121 1.5-3.534 3.897-6.318 7.407-8.327-.049.581-.073 1.017-.121 1.67v.049c2.42-2.832 5.252-4.382 8.787-4.817h.048c-.799 1.162-1.5 2.178-2.227 3.22a.335.335 0 00-.073.096c2.687-2.01 5.447-3.123 8.351-3.123 1.888 0 3.849.46 5.93 1.453.025 0 .025.024.05.024l-1.55.654-.048.024c.338.193.605.193.871.242 3.292.411 5.979 1.888 7.867 4.623.072.097.097.242.12.412v.919c.727.533 1.235 1.065 1.526 1.622.048.097.072.194.097.29v.049a.905.905 0 01-.896.944c-.097 0-.17-.024-.266-.048h-.049l1.041 1.428.049.048c-1.235-.315-2.252-.678-3.317-.823a12.885 12.885 0 00-1.67-.097c-.532 0-1.065.025-1.573.025-1.452.024-2.566.532-2.953 2.105-.29 1.162-.726 2.3-1.114 3.438a2.146 2.146 0 00-.145.726v.145c.024.533.315.944 1.017 1.235.46.193.823.58 1.355.992.024.024.024.024.024.048 0 .049 0 .073-.024.097-1.355.969-3.63 2.687-3.921 3.074-.024.025-.024.049-.024.073 1.428-.847 2.832-1.719 4.357-2.638a.183.183 0 01.096-.049c.025-.024.049-.024.097-.024.049 0 .097.024.121.048.315.388.63.775 1.017 1.26.024.047.073.072.097.12a.275.275 0 01.073.194v.024c.024.145-.073.315-.218.387-.267.146-.581.29-.896.436-.896.436-1.912.944-2.856 1.428-1.719.872-3.244 1.67-3.607 1.912a.417.417 0 01-.097.073c1.162-.484 2.3-.968 3.486-1.452.823-.34 1.67-.702 2.493-1.041.581-.242 1.138-.484 1.719-.726.024 0 .024 0 .024.024 0 .411 0 .823.024 1.234v.049c0 .145 0 .29.024.435 0 .194.024.412.024.606.025.145.025.314.049.484.048.435.072.895.145 1.331a31.86 31.86 0 001.235 5.616c.048.17.097.314.145.484a52.1 52.1 0 00.63 1.815c.048.17.12.34.193.509 0 .024.024.048.024.072.024.17-.121.315-.29.315a.449.449 0 01-.17-.049 1.036 1.036 0 01-.363-.435c-.072-.145-.12-.267-.194-.412a54.272 54.272 0 01-.774-1.743h.024l.097-.048h-.121a1.674 1.674 0 01-.121-.315c-.218-.484-.412-.968-.654-1.428a3.597 3.597 0 00-.823-1.089 4.135 4.135 0 00-1.815-.896 4.455 4.455 0 00-.993-.12 4.73 4.73 0 00-.823.072 4.276 4.276 0 00-1.549.63c-.024 0-.024.024-.048.024l1.597.726c.606.29 1.21.556 1.816.823.46.218.92.411 1.404.605.145.072.29.12.411.193.315.194.484.412.581.75.024.073.024.146.049.219 0 .024 0 .072.024.12v.848c0 .194.024.411.024.605 0 .097 0 .17.024.266.024.315.024.605.049.92v.048l.072.775c.025.218.049.46.073.678.024.194.048.363.072.557l.146.944v.048c0 .073.024.145.024.194 0 .024 0 .048.024.072.121.702.266 1.38.436 2.058 0 .048.024.097.024.145.024.121.049.242.097.363.024.121.048.242.097.363.048.17.096.363.145.533.048.193.097.363.145.556.097.364.218.727.34 1.09.193.556.386 1.137.604 1.694.073.194.145.412.218.63 0 .024.024.048.024.096 0 0 0-.024-.024-.024-1.113-1.96-3.268-2.808-4.14-3.074-.386-.121-.604-.242-.774-.436a.874.874 0 01-.17-.242l-.048-.072c-.024-.049-.048-.073-.072-.121 0 0 0-.025-.024-.025a4.266 4.266 0 00-.654-.871c-.024-.024-.048-.073-.097-.097-.097-.097-.193-.194-.314-.29-.218-.17-.412-.34-.63-.509l-.024-.024a18.313 18.313 0 00-.799-.63c-.17-.12-.339-.266-.508-.387l-.412-.314-1.694-1.332-.678-.532-.17-.145-.58-.46-.17.363-.75 1.573c-.339-.29-.508-.653-.557-1.113v-.581c0-.097 0-.17.025-.266.048-.509.048-1.017.048-1.55v-.048c0-.29-.024-.58-.048-.871-.025-.29-.049-.605-.097-.896-.024-.315-.073-.605-.121-.92-.024-.12-.024-.242-.049-.387-.12-.799-.774-1.186-1.573-1.186-.097 0-.194 0-.29.024-.872.097-1.356.605-1.501 1.477a4.848 4.848 0 01-.097.58c-.024.17-.049.34-.049.509v.024c-.048.799-.411 1.307-1.065 1.646-.12.048-.242.121-.387.17-.387.12-.774.266-1.162.411h-.024a7.138 7.138 0 00-.654.242c-.072-.024-.12-.048-.193-.073a8.51 8.51 0 00-.726-.242 33.007 33.007 0 00-2.058-.605c0-.024 0-.024.024-.048l.146-.436c.096-.363.145-.726.145-1.09v-.386c-.073-1.308-.702-2.566-1.791-3.51a1.052 1.052 0 01-.363-.678v-.048c0-.267.145-.533.411-.727.847-.58 1.743-1.137 2.59-1.718 0-.024-.024-.024-.024-.049-.024-.048-.024-.048-.073-.12-.895.41-1.815.822-2.929 1.33v-.048c.242-3.364 1.646-6.027 3.946-8.375l-.024-.024c-.533-.412-.993-.775-1.501-1.162-1.743 2.13-2.687 4.502-3.147 7.068-.097.557-.073 1.259-.411 1.598-1.26 1.282-1.453 2.928-1.695 4.55-.17 1.09-.702 2.13-1.476 3.026h-.484c-1.67 0-3.413.145-5.156.436v-.049c.339-1.476.484-2.977.46-4.478 0-.242-.025-.46-.025-.702 0-.096 0-.193-.024-.29 0-.097-.024-.194-.024-.29a12.37 12.37 0 00-.121-.993 28.961 28.961 0 01-.218-2.033c-.097-1.09-.12-2.179-.17-3.268-.023-.799.194-1.622.291-2.372v-.024c-.266-.194-.508-.581-.508-.896zm15.298-1.235c1.67-.629 3.22-1.307 4.817-1.767.944-.266 1.985-.266 3.001-.266.775 0 .848-.436.872-.992.024-.533.12-1.065-.678-1.138-.412-.024-.799-.048-1.186-.048-2.929 0-5.543.968-7.964 2.88l1.138 1.331zm13.096 27.958v.242l.024-.048.073-.121c-.024 0-.073-.024-.097-.073zm-15.541-5.785l1.137.145h.024c-.363-.072-.75-.096-1.162-.145zm-.096-.023h.096l.025-.073a.529.529 0 01-.121.073zm-8.109-.073c.024 0 .024 0 .048.024l.025-.048.024-.025h-.024l-.073.049z" fill="#C7A363"/><path d="M0 51.172c.654-1.84 1.767-3.34 3.147-4.72 1.162-1.162 2.493-1.694 3.994-1.694.266 0 .533.024.799.048.193.024.387.048.605.097v-.049c0-.096-.024-.193-.024-.314h-.049c-1.5-.17-3.025-.363-4.671-.557.024 0 .048-.024.072-.024.605-.29 1.235-.581 1.84-.8 1.186-.459 2.396-.725 3.606-.725.678 0 1.38.097 2.082.29.17.049.34.097.484.17.097.024.194.072.315.12.218.097.46.194.678.315l.048-.484a4.173 4.173 0 01-.508-.17l.024-.048.024-.024h-.024l-.048.024-.436-.145a155.48 155.48 0 01-3.22-1.017c-.387-.12-.798-.242-1.21-.387.024 0 .049 0 .097-.024 1.452-.29 2.856-.46 4.212-.508.387-.024.75-.024 1.113-.024h.146c.92 0 1.84.048 2.735.145 1.162.12 2.3.339 3.413.63.29.072.557.144.847.241.266.073.508.17.775.266.314.097.629.218.92.34.314.12.605.241.92.387.435.193.87.387 1.306.629 0 0 .025 0 .025.024.242.121.46.242.701.363a27.46 27.46 0 012.13 1.283c.412.266.848.557 1.26.872a38.227 38.227 0 013.63 3.074c-.024-.025-.024-.049-.048-.073-.194-.412-.412-.702-.412-.896 0-.024 0-.048.025-.072.193-.484.435-.968.653-1.453.194-.411.412-.822.605-1.21.63.508 1.259.993 1.888 1.5.17.146.29.388.412.582a4.72 4.72 0 001.258 1.404v.242l.025-.049.072-.12c.484.338 1.017.58 1.622.774.75.242 1.67.726 2.033 1.38.242.411.46.823.678 1.234.847 1.598 1.598 3.244 2.372 4.866.145.29.267.58.412.871l.024.024c-.145.121-.121.097-.242.194-.17-.121-.315-.266-.484-.387a25.204 25.204 0 00-1.259-.993c-1.065-.775-1.84-1.259-2.542-1.477a2.569 2.569 0 00-.822-.145 2.77 2.77 0 00-1.26.315c-.46.218-.967.557-1.548.992-.17.121-.34.267-.533.412-.411.315-.847.532-1.259.532-.314 0-.629-.12-.944-.387-.46-.387-.895-.799-1.33-1.21l-.05-.048a23.871 23.871 0 01-1.694-1.816c-.048-.048-.072-.097-.12-.121a58.286 58.286 0 01-1.477-1.936c-.654-.896-1.283-1.792-1.913-2.687-.048.024-.024.024-.072.048.411.823.871 1.646 1.331 2.47.387.701.75 1.379 1.09 2.105a17.009 17.009 0 01.847 2.154c.145.509.217 1.017.242 1.525v.34c0 .12 0 .241-.025.362 0 .121-.024.218-.024.34v.023a3.86 3.86 0 01-.145.727 3.507 3.507 0 00-.073.241 2.766 2.766 0 01-.218.63c-.048.097-.072.218-.12.315-.049.096-.097.217-.146.314-.048.097-.097.218-.145.315-.048.097-.097.17-.145.266a6.844 6.844 0 01-.34.581 2.21 2.21 0 00-.193.315l-.145.218c-.17.242-.339.484-.532.726-.92-1.743-1.743-3.413-2.663-5.01-1.428-2.446-3.607-3.656-6.415-3.656h-.193c-.34 0-.678-.024-1.017-.024-.17 0-.315 0-.46.024-.387.024-.774.049-1.162.049-2.977 0-5.712-.8-8.181-2.639-1.21-.895-2.445-1.404-3.728-1.404-.992 0-1.985.29-3.001.944H.242c-.048 0-.12-.048-.242-.097v-.048zm20.6-8.424l.024-.072c-.049.024-.073.048-.121.048.024 0 .048 0 .096.024l1.138.146h.024c-.387-.073-.774-.097-1.162-.146z" fill="#C7A363"/><path d="M36.139 43.257h-.025v-.025s.025 0 .025.025z" fill="#fff"/><path d="M41.27 18.953V19c.097 1.186 2.566 2.082 3.026 3.026 0 0 2.324-.896 4.14-.097 0 0 0-.024-.025-.048a4.533 4.533 0 01-.072-.557v-.145c-.024-.412 0-.92.17-1.501 0-.024 0-.024.023-.048a4.13 4.13 0 01.8-1.501l.023-.024a2.96 2.96 0 01.557-.533l-.024-.024c-.266-.218-2.59-1.985-5.882-.799a8.63 8.63 0 00-1.114.484c-1.21.654-1.646 1.21-1.621 1.719zm11.596 4.212v.048c.024.872 1.331 1.574 2.251 2.252.363.266.654.532.775.798 0 0 .024 0 .097-.024 0 .073.024.145.024.218v.048c.024.17.024.34 0 .484v.025c.024.096.024.193.024.29v1.017c0 .435.024.847.073 1.283 0 .12.024.218.024.338.048.46.097.896.17 1.356.048.218.072.46.12.678.049.218.097.46.146.678l.072.363c.024.12.049.242.097.338.024.122.049.243.097.34.12.46.266.943.436 1.428.024.048.024.096.048.145.097.314.218.63.339.944.12.339.194.678.242 1.016 0 .097.024.194.024.29v.146a3.99 3.99 0 01-.702 2.13c-.024.049-.072.097-.097.146a33.346 33.346 0 013.026 1.694c1.234.799 2.396 1.718 3.68 2.687-.098-.29-.146-.533-.243-.727-.968-2.565-1.525-5.228-1.549-7.987 0-.533-.194-.75-.678-.944-1.016-.412-1.985-.896-3.05-1.38 1.38-.847 3.268-.363 3.873.92.388.823.726 1.694 1.114 2.517.12.242.363.387.678.508-1.09-2.71-1.743-5.47-1.719-8.399-1.67.702-3.292 1.38-4.89 2.058 0-.049 3.244-1.72 4.987-2.59-.387-.485-.678-.848-.944-1.187-.993.606-1.96 1.187-2.88 1.743-.025-.048 1.621-1.355 2.565-2.033-.387-.29-.63-.557-.92-.678-.072-.024-.145-.072-.218-.097-.096-.556-.363-2.71 1.501-4.236 0 0-2.929-2.541-7.02-.338a5.383 5.383 0 00-1.137.774c-.29.315-.436.63-.436.92z" fill="#C7A363"/></svg>