<svg width="1440" height="25" fill="none" xmlns="http://www.w3.org/2000/svg"><g opacity=".5" clip-path="url(#clip0_13263_1063)" fill="#C7A363"><path d="M609.918 5.833H-327V8.97h5.602L-327 14.582v4.412l10.005-10.024h3.939L-327 23.258v4.411l14.678 14.362h-4.624L-327 31.958v4.485l5.651 5.661H-327v3.112H720v-3.112h-5.675L720 36.443v-4.411l-10.079 10.072h-3.889L720 27.792V23.38L705.322 9.043h4.599l10.006 10.024v-4.436L714.3 9.043h5.7V5.907H609.918v-.074zm29.135 3.137l-2.299 2.304-2.324-2.304h4.623zm-9.027 0l6.728 6.715 6.702-6.715h3.89l-12.549 12.548-8.758 8.773-5.088-4.901 3.889-4.117 2.911 2.94 6.63-6.641-8.635-8.627 4.28.025zm-20.108 0h5.602l-5.602 5.612-5.626-5.612h5.626zm-10.029 0l10.005 10.024L619.923 8.97h3.939l-13.944 14.288L595.241 8.97h4.648zm-15.926 0l-2.324 2.304-2.324-2.304h4.648zm-9.051 0l6.727 6.715 6.728-6.715h3.865l-12.525 12.548-8.929 8.773-5.113-4.901 3.89-4.117 2.935 2.94 6.605-6.641-8.635-8.627 4.452.025zm-20.108 0h5.602l-5.602 5.612-5.626-5.612h5.626zm-10.03 0l10.005 10.024 10.03-10.024h3.939l-13.944 14.288L540.126 8.97h4.648zm-15.925 0l-2.324 2.304-2.299-2.304h4.623zm-9.027 0l6.703 6.715 6.727-6.715h3.89l-12.549 12.548-8.758 8.773-5.113-4.901 3.89-4.117 2.935 2.94 6.605-6.641-8.611-8.627 4.281.025zm-20.132 0h5.626l-5.602 5.612-5.651-5.612h5.627zm-10.03 0l10.03 10.024L509.719 8.97h3.914L499.69 23.258 485.012 8.97h4.648zm-15.925 0l-2.3 2.304-2.324-2.304h4.624zm-9.027 0l6.727 6.715 6.703-6.715h3.89l-12.525 12.548-8.807 8.773-5.088-4.901 3.89-4.117 2.911 2.94 6.629-6.641-8.635-8.627 4.305.025zm-20.108 0h5.602l-5.602 5.612-5.627-5.612h5.627zm-10.03 0l10.005 10.024 10.03-10.024h3.939L444.6 23.258 429.922 8.97h4.648zm-15.925 0l-2.324 2.304-2.299-2.304h4.623zm-9.027 0l6.703 6.715 6.727-6.715h3.865l-12.696 12.548-8.757 8.773-5.113-4.901 3.89-4.117 2.935 2.94 6.605-6.641-8.635-8.627 4.476.025zm-20.132 0h5.602l-5.602 5.612-5.627-5.612h5.627zm-10.03 0l10.005 10.024 10.03-10.024h3.938l-13.943 14.288L374.808 8.97h4.648zm-15.925 0l-2.447 2.304-2.299-2.304h4.746zm-9.027 0l6.703 6.715 6.727-6.715h3.89l-12.55 12.548-8.757 8.773-5.089-4.901 3.865-4.117 2.936 2.94 6.629-6.641-8.635-8.627 4.281.025zm-20.108 0h5.602l-5.602 5.612-5.627-5.612h5.627zm-10.03 0l10.005 10.024 10.03-10.024h3.767l-13.919 14.288L319.571 8.97h4.795zm-15.95 0l-2.299 2.304-2.324-2.304h4.623zm-9.026 0l6.727 6.715 6.703-6.715h3.889l-12.574 12.548-8.782 8.773-5.088-4.901 3.89-4.117 2.911 2.94 6.629-6.641-8.635-8.627 4.33.025zm-20.109 0h5.602l-5.602 5.612-5.626-5.612h5.626zm-10.029 0l10.005 10.024 10.03-10.024h3.938l-13.944 14.288L264.604 8.97h4.648zm-15.925 0l-2.447 2.304-2.299-2.304h4.746zm-9.027 0l6.703 6.715 6.727-6.715h3.865L249.07 21.518l-8.757 8.773-5.113-4.901 3.889-4.117 2.936 2.94 6.605-6.641-8.611-8.627 4.281.025zm-20.133 0h5.602l-5.602 5.612-5.626-5.612h5.626zm-10.029 0l10.005 10.024L234.172 8.97h3.914l-13.943 14.288L209.465 8.97h4.673zm-15.926 0l-2.299 2.304-2.446-2.304h4.745zm-9.026 0l6.727 6.715 6.703-6.715h3.669l-12.549 12.548-8.758 8.773-5.088-4.901 3.889-4.117 2.936 2.916 6.629-6.641-8.635-8.627 4.477.049zm-20.109 0h5.407l-5.602 5.612-5.627-5.612h5.822zm-10.029 0l10.005 10.024 10.03-10.024h3.938l-13.944 14.288L154.4 8.97h4.648zm-15.95 0l-2.299 2.304-2.447-2.304h4.746zm-9.027 0l6.728 6.715 6.702-6.715h3.89l-12.525 12.548-8.782 8.773-5.088-4.901 3.889-4.117 2.936 2.94 6.605-6.641-8.636-8.627 4.281.025zm-20.108 0h5.602l-5.602 5.612-5.626-5.612h5.626zm-10.03 0l10.006 10.024L123.968 8.97h3.939l-13.944 14.288L99.286 8.97h4.647zm-15.925 0l-2.324 2.304-2.3-2.304h4.624zm-9.026 0l6.702 6.715 6.728-6.715h3.791L83.678 21.518l-8.757 8.773-5.113-4.901 3.89-4.117 2.935 2.916 6.605-6.641-8.61-8.627 4.354.049zm-20.133 0h5.553l-5.627 5.612L53.15 8.97h5.7zm-10.03 0l10.005 10.024L68.88 8.97h3.913L58.85 23.258 44.17 8.97h4.648zm-15.925 0l-2.3 2.304-2.323-2.304h4.623zm-9.027 0l6.727 6.715 6.703-6.715h3.89l-12.55 12.548-8.757 8.773-5.088-4.901 3.89-4.117 2.91 2.94 6.63-6.641-8.636-8.627 4.281.025zm-20.108 0h5.602l-5.602 5.612-5.626-5.612h5.626zm-10.03 0L3.735 18.994 13.765 8.97h3.938L3.759 23.258-10.919 8.97h4.648zm-15.925 0l-2.446 2.304-2.3-2.304h4.746zm-9.026 0l6.702 6.715 6.727-6.715h3.865l-12.524 12.548-8.758 8.773-5.113-4.901 3.89-4.117 2.935 2.94 6.605-6.641-8.635-8.627 4.305.025zm-20.133 0h5.602l-5.602 5.612-5.627-5.612h5.627zm-10.03 0l10.005 10.024L-41.35 8.97h3.939l-13.944 14.288L-66.033 8.97h4.648zm-15.925 0l-2.446 2.304-2.3-2.304h4.746zm-9.027 0l6.703 6.715 6.727-6.715h3.89l-12.55 12.548-8.757 8.773-5.113-4.901 3.89-4.117 2.935 2.94 6.63-6.641-8.636-8.627 4.281.025zm-20.108 0h5.602l-5.602 5.612-5.626-5.612h5.626zm-10.054 0l10.029 10.024L-96.44 8.97h3.914l-13.919 14.288-14.678-14.288h4.624zm-15.925 0l-2.3 2.304-2.446-2.304h4.746zm-9.027 0l6.727 6.715 6.703-6.715h3.889l-12.524 12.548-8.782 8.773-5.089-4.901 3.89-4.117 2.911 2.94 6.629-6.641-8.635-8.627 4.281.025zm-20.108 0h5.602l-5.602 5.612-5.627-5.612h5.627zm-10.03 0l10.005 10.024 10.03-10.024h3.938l-13.943 14.288-14.678-14.288h4.648zm-15.925 0l-2.446 2.304-2.3-2.304h4.746zm-9.027 0l6.532 6.715 6.727-6.715h3.865l-12.525 12.548-8.758 8.773-5.112-4.901 3.889-4.117 2.936 2.94 6.605-6.641-8.636-8.627 4.477.025zm-20.133 0h5.602l-5.602 5.612-5.626-5.612h5.626zm-10.029 0l9.785 10.024 10.029-10.024h3.939l-13.944 14.288-14.677-14.288h4.868zm-15.925 0l-2.3 2.304-2.446-2.304h4.746zm-9.027 0l6.727 6.715 6.703-6.715h3.889l-12.549 12.548-8.758 8.773-5.088-4.901 3.89-4.117 2.911 2.94 6.629-6.641-8.757-8.602h4.403zm-20.108 0h5.602l-5.602 5.612-5.627-5.612h5.627zm-10.03 0l10.005 10.024 10.03-10.024h3.938l-13.943 14.288-14.678-14.288h4.648zm-15.95 0l-2.299 2.304-2.324-2.304h4.623zm-9.026 0l6.678 6.715 6.703-6.715h3.816l-12.525 12.548-8.782 8.773-5.088-4.901 3.889-4.117 2.936 2.94 6.605-6.641-8.636-8.627 4.404.025zm6.36 33.06l2.446-2.45 2.446 2.45h-4.892zm9.124 0l-6.751-6.788-6.948 6.789h-4.403l13.185-13.21 8.122-8.137 5.113 4.902-3.89 4.117-2.886-3.063-6.605 6.617 8.659 8.675-3.596.099zm-.538-8.675l2.202-2.206 2.984 2.99 8.22-8.725-9.541-9.092-8.977 8.97-13.92 13.847-13.943-13.676 12.696-13.038 5.161 5.172-2.201 2.23-3.009-2.99-8.22 8.7 9.565 9.117 8.954-8.995 1.883-1.862 1.272-1.274 10.666-10.588 13.944 13.675-12.696 13.014-5.04-5.27zm20.06 8.676h-5.798l5.651-5.588 5.675 5.661-5.528-.073zm10.054 0l-10.054-10.073-10.079 10.073h-4.012l13.968-14.313 14.678 14.313h-4.501zm16.39 0l2.446-2.451 2.446 2.45h-4.892zm9.149 0l-6.776-6.79-6.777 6.79h-4.403l13.185-13.21 8.147-8.137 5.088 4.902-3.89 4.068-3.033-3.014-6.63 6.617 8.66 8.675-3.571.099zm-.563-8.676l2.226-2.206 2.911 2.99 8.22-8.725-9.541-9.092-8.978 8.97-13.796 13.847-13.944-13.676 12.696-13.038 5.162 5.172-2.227 2.23-3.033-2.99-8.219 8.7 9.54 9.117 8.978-8.995 1.883-1.862 1.273-1.274 10.641-10.588 13.943 13.675-12.598 12.916-5.137-5.171zm20.059 8.676h-5.797l5.675-5.588 5.675 5.661-5.553-.073zm10.079 0l-10.079-10.073-10.078 10.073h-4.012l13.968-14.313 14.678 14.313h-4.477zm16.39 0l2.446-2.451 2.446 2.45h-4.892zm9.149 0l-6.776-6.79-6.776 6.79h-4.404l13.186-13.21 8.048-8.137 5.113 4.902-3.89 4.117-2.984-3.063-6.605 6.617 8.66 8.675-3.572.099zm-.563-8.676l2.202-2.206 3.009 2.99 8.219-8.725-9.589-9.092-8.978 8.97-13.797 13.847-13.919-13.676 12.696-13.038 5.162 5.172-2.202 2.23-3.107-2.99-8.219 8.7 9.54 9.117 8.978-8.995 1.859-1.862 1.272-1.274 10.715-10.588 13.944 13.675-12.696 13.014-5.089-5.27zm20.06 8.676h-5.798l5.651-5.588 5.675 5.661-5.528-.073zm10.054 0l-10.054-10.073-10.079 10.073h-4.012l13.968-14.313 14.678 14.313h-4.501zm16.414 0l2.446-2.451 2.447 2.45h-4.893zm9.125 0l-6.776-6.79-6.752 6.79h-4.55l13.185-13.21 8.146-8.137 5.113 4.902-3.914 4.068-2.911-3.014-6.629 6.617 8.659 8.675-3.571.099zm-.538-8.676l2.201-2.206 2.789 2.99 8.219-8.725-9.54-9.092-8.978 8.97-13.797 13.847-13.943-13.676 12.696-13.038 5.161 5.172-2.226 2.23-2.911-2.99-8.219 8.7 9.54 9.117 8.978-8.995 1.884-1.862 1.272-1.274 10.641-10.588 13.968 13.675-12.745 12.916-4.99-5.171zm20.059 8.676h-5.798l5.651-5.588 5.675 5.661-5.528-.073zm10.054 0l-10.054-10.073-10.177 10.073h-3.914l13.969-14.313 14.677 14.313h-4.5zm16.39 0l2.446-2.451 2.447 2.45h-4.893zm9.149 0l-6.776-6.79-6.776 6.79h-4.404l13.186-13.21 8.146-8.137 5.088 4.902-3.89 4.117-3.033-3.063-6.63 6.617 8.66 8.675-3.571.099zm-.563-8.676l2.227-2.206 2.984 2.99 8.22-8.725-9.541-9.092-8.978 8.97L-90.3 39.139l-14.09-13.676 12.72-13.038 5.162 5.172-2.226 2.23-2.985-2.99-8.219 8.7 9.54 9.117 8.978-8.995 1.86-1.862 1.296-1.274 10.568-10.588 13.943 13.675-12.696 13.014-4.966-5.27zm20.06 8.676h-5.676l5.676-5.662 5.675 5.662h-5.675zm10.078 0l-10.078-10.073-10.079 10.073h-3.89l13.969-14.313 14.677 14.313h-4.599zm16.39 0l2.447-2.451 2.446 2.45h-4.893zm9.15 0l-6.777-6.79-6.776 6.79h-4.403l13.185-13.21 8.122-8.137 5.112 4.902-3.89 4.117-2.935-2.916-6.605 6.617 8.66 8.675-3.694-.048zm-.563-8.676l2.201-2.206 2.985 2.99 8.244-8.725-9.565-9.092-8.978 8.97-13.797 13.847-13.944-13.676 12.697-13.038 5.161 5.172-2.202 2.23-3.13-2.99-8.22 8.7 9.565 9.117 8.978-8.995 1.859-1.862 1.272-1.274 10.665-10.686L1.435 25.512-11.26 38.526l-5.04-5.171zM3.76 42.03h-5.676l5.65-5.662L9.41 42.03H3.76zm10.053 0L3.76 31.958l-10.3 10.073h-3.89L3.54 27.718l14.677 14.313h-4.403zm16.415 0l2.446-2.451 2.446 2.45h-4.892zm9.124 0l-6.776-6.79-6.752 6.79h-4.427l13.185-13.21 8.146-8.137 5.113 4.902-3.89 4.117-2.935-2.916-6.63 6.617 8.66 8.675-3.694-.048zm-.563-8.676l2.227-2.206L44 34.14l8.17-8.725-9.54-9.092-8.978 8.97L19.855 39.14 5.912 25.463l12.696-13.038 5.162 5.172-2.227 2.23-3.058-2.99-8.219 8.7 9.54 9.117 8.978-8.995 1.884-1.862 1.272-1.274 10.641-10.686 13.944 13.675-12.696 13.014-5.04-5.171zm20.06 8.676h-5.675l5.675-5.662 5.675 5.662H58.85zm10.078 0L58.85 31.958 48.77 42.031h-3.938l13.944-14.313 14.677 14.313h-4.526zm16.39 0l2.447-2.451 2.446 2.45h-4.893zm9.15 0l-6.777-6.79-6.776 6.79h-4.403l13.185-13.21 8.146-8.137 5.088 4.902-3.89 4.117-3.032-3.063-6.63 6.617 8.66 8.675-3.572.099zm-.563-8.676l2.226-2.206 2.984 2.99 8.22-8.725-9.565-9.092-8.953 8.97-13.822 13.847L61.05 25.463l12.721-13.038 5.137 5.172-2.201 2.23-3.107-2.99-8.22 8.7 9.54 9.117 9.052-8.995 1.86-1.862 1.296-1.274 10.64-10.686 13.945 13.675-12.697 13.014-5.112-5.171zm20.059 8.676h-5.675l5.528-5.588 5.676 5.661-5.529-.073zm10.054 0l-10.054-10.073-10.078 10.073h-4.012l13.968-14.313 14.677 14.313h-4.501zm16.415 0l2.446-2.451 2.446 2.45h-4.892zm9.124 0l-6.874-6.79-6.776 6.79h-4.403l13.185-13.21 8.122-8.137 5.112 4.902-3.889 4.117-2.936-2.916-6.605 6.617 8.66 8.675-3.596-.048zm-.538-8.676l2.202-2.206 2.984 2.99 8.048-8.725-9.54-9.092-8.978 8.97-13.797 13.847-13.944-13.676 12.697-13.038 5.161 5.172-2.201 2.23-2.96-2.99-8.22 8.7 9.565 9.117 8.978-8.995 1.859-1.862 1.272-1.274 10.666-10.686 13.943 13.675-12.696 13.014-5.039-5.171zm20.059 8.676h-5.675l5.651-5.662 5.675 5.662h-5.651zm10.055 0l-10.055-10.073-10.078 10.073h-4.085l13.968-14.313 14.677 14.313h-4.427zm16.389 0l2.447-2.451 2.446 2.45h-4.893zm9.149 0l-6.776-6.79-6.776 6.79h-4.403L199.9 28.82l8.146-8.137 5.089 4.902-3.89 4.117-2.96-3.063-6.629 6.617 8.659 8.675-3.645.099zm-.562-8.676l2.226-2.206 2.984 2.99 8.22-8.725-9.541-9.092-9.051 8.97-13.797 13.847-13.943-13.676 12.696-13.038 5.161 5.172-2.226 2.23-3.033-2.99-8.22 8.7 9.541 9.117 8.929-8.995 1.883-1.862 1.272-1.274 10.642-10.686 13.943 13.675-12.696 13.014-4.99-5.171zm20.059 8.676h-5.675l5.675-5.662 5.676 5.662h-5.676zm10.079 0l-10.079-10.073-10.078 10.073h-3.89l13.968-14.313 14.678 14.313h-4.599zm16.39 0l2.446-2.451 2.446 2.45h-4.892zm9.149 0l-6.776-6.79-6.777 6.79h-4.403l13.186-13.21 8.121-8.137 5.113 4.902-3.89 4.117-2.935-2.916-6.605 6.617 8.66 8.675-3.694-.048zm-.563-8.676l2.202-2.206 3.009 2.99 8.219-8.725-9.565-9.092-8.978 8.97-13.796 13.847-13.944-13.676 12.696-13.038 5.162 5.172-2.202 2.23-3.107-2.99-8.17 8.7 9.54 9.117 8.978-8.995 1.859-1.862 1.272-1.274 10.666-10.686 13.943 13.675-12.696 13.014-5.088-5.171zm20.059 8.676h-5.675l5.651-5.662 5.675 5.662h-5.651zm10.055 0l-10.055-10.073-10.078 10.073h-3.89l13.968-14.313 14.678 14.313h-4.623zm16.414 0l2.446-2.451 2.447 2.45h-4.893zm9.125 0l-6.752-6.79-6.776 6.79h-4.55l13.185-13.21 8.122-8.137 5.112 4.902-3.889 4.117-2.96-3.063-6.605 6.617 8.66 8.675-3.547.099zm-.539-8.676l2.202-2.206 2.985 2.99 8.219-8.725-9.54-9.092-9.174 8.97-13.797 13.847-13.944-13.676 12.697-13.038 5.161 5.172-2.226 2.23-2.911-2.99-8.219 8.7 9.564 9.117 8.954-8.995 1.883-1.862 1.272-1.274 10.666-10.686 13.944 13.675-12.721 13.014-5.015-5.171zm20.06 8.676h-5.798l5.651-5.662 5.675 5.662h-5.528zm10.054 0l-10.054-10.073-10.079 10.073h-3.889l13.968-14.313 14.677 14.313h-4.623zm16.39 0l2.446-2.451 2.446 2.45h-4.892zm9.149 0l-6.776-6.79-6.776 6.79h-4.404l13.186-13.21 8.146-8.137 5.088 4.902-3.89 4.117-3.033-3.063-6.629 6.617 8.659 8.675-3.571.099zm-.563-8.676l2.226-2.206 2.985 2.99 8.219-8.725-9.54-9.092-8.978 8.97-13.797 13.847-13.944-13.676 12.696-13.038 5.162 5.172-2.226 2.23-3.107-2.99-8.293 8.7 9.541 9.117 8.978-8.995 1.859-1.862 1.296-1.274 10.642-10.686 13.943 13.675-12.696 13.014-4.966-5.171zm20.06 8.676h-5.676l5.676-5.662 5.675 5.662h-5.675zm10.078 0l-10.078-10.073-10.079 10.073h-3.89l13.969-14.313 14.677 14.313h-4.599zm16.39 0l2.446-2.451 2.447 2.45h-4.893zm9.149 0l-6.776-6.79-6.776 6.79h-4.403l13.185-13.21 8.122-8.137 5.112 4.902-3.889 4.117-2.936-2.916-6.605 6.617 8.66 8.675-3.694-.048zm-.562-8.676l2.201-2.206 3.009 2.99 8.219-8.725-9.564-9.092-8.978 8.97-13.797 13.847-13.944-13.676 12.696-13.038 5.162 5.172-2.202 2.23-3.106-2.99-8.22 8.7 9.54 9.117 8.978-8.995 1.859-1.862 1.273-1.274 10.665-10.686 13.944 13.675-12.696 13.014-5.039-5.171zM444.6 42.03h-5.675l5.65-5.662 5.676 5.662H444.6zm10.054 0L444.6 31.958l-10.079 10.073h-3.889L444.6 27.718l14.677 14.313h-4.623zm16.414 0l2.447-2.451 2.446 2.45h-4.893zm9.125 0l-6.776-6.79-6.752 6.79h-4.428l13.186-13.21 8.146-8.137 5.113 4.902-3.89 4.117-3.058-3.063-6.629 6.617 8.659 8.675-3.571.099zm-.563-8.676l2.226-2.206 2.985 2.99 8.219-8.725-9.54-9.092-8.978 8.97-13.846 13.847-13.943-13.676 12.696-13.038 5.161 5.172-2.226 2.23-3.058-2.99-8.219 8.7 9.54 9.117 8.978-8.995 1.884-1.862 1.272-1.274 10.641-10.686 13.968 13.675-12.72 13.014-5.04-5.171zm20.06 8.676h-5.676l5.676-5.662 5.675 5.662h-5.675zm10.078 0l-10.054-10.073-10.103 10.073h-3.865l13.944-14.313 14.677 14.313h-4.599zm16.39 0l2.446-2.451 2.447 2.45h-4.893zm9.149 0l-6.776-6.79-6.776 6.79h-4.403l13.185-13.21 8.146-8.137 5.088 4.902-3.889 4.117-3.034-3.063-6.629 6.617 8.66 8.675-3.572.099zm-.562-8.676l2.226-2.206 2.984 2.99 8.22-8.725-9.565-9.092-8.954 8.97-13.797 13.847-13.968-13.676 12.721-13.038 5.137 5.172-2.202 2.23-3.033-2.99-8.219 8.7 9.54 9.117 8.978-8.995 1.859-1.862 1.296-1.274 10.642-10.686 13.943 13.675-12.696 13.014-5.112-5.171zm20.059 8.676h-5.798l5.676-5.662 5.675 5.662h-5.553zm10.079 0l-10.079-10.073-10.079 10.073h-3.889l13.968-14.313 14.678 14.313h-4.599zm16.39 0l2.446-2.451 2.446 2.45h-4.892zm9.124 0l-6.752-6.79-6.776 6.79h-4.403l13.185-13.21 8.122-8.137 5.113 4.902-3.89 4.117-2.935-2.916-6.605 6.617 8.659 8.675-3.718-.048zm-.538-8.676l2.202-2.206 2.984 2.99 8.219-8.725-9.54-9.092-8.978 8.97-13.968 13.847-13.944-13.676 12.696-13.038 5.162 5.172-2.202 2.23-2.96-2.99-8.219 8.7 9.565 9.117 8.978-8.995 1.859-1.862 1.272-1.274 10.666-10.686 13.943 13.675-12.696 13.014-5.039-5.171zm20.059 8.676h-5.675l5.651-5.662 5.675 5.662h-5.651zm10.054 0l-10.054-10.073L599.84 42.03h-3.89l13.968-14.313 14.678 14.313h-4.624zm16.39 0l2.447-2.451 2.446 2.45h-4.893zm9.149 0l-6.776-6.79-6.8 6.79h-4.404l13.186-13.21 8.146-8.137 5.112 4.902-3.889 4.117-2.936-2.916-6.629 6.617 8.66 8.675-3.67-.048zm-.562-8.676l2.226-2.206 2.984 2.99 8.22-8.725-9.541-9.092-8.978 8.97-13.796 13.847-13.944-13.676 12.476-13.038 5.161 5.172-2.226 2.23-2.935-2.99-8.22 8.7 9.541 9.117 8.978-8.995 1.883-1.862 1.272-1.274 10.641-10.686 13.944 13.675-12.696 13.014-4.99-5.171zm20.059 8.676h-5.675l5.675-5.662 5.675 5.662h-5.675zm10.079 0l-10.079-10.073-10.079 10.073h-3.889l13.968-14.313 14.678 14.313h-4.599zm16.39 0l2.446-2.451 2.446 2.45h-4.892zm9.149 0l-6.777-6.79-6.776 6.79h-4.403l13.185-13.21 8.146-8.137 5.089 4.902-3.89 4.117-3.033-3.063-6.63 6.617 8.66 8.675-3.571.099zm-6.459-33.06l-2.323 2.304-2.3-2.304h4.623zm-9.026 0l6.703 6.715 6.727-6.715h3.865l-12.525 12.548-8.758 8.773-5.112-4.901 3.889-4.117 2.936 2.94 6.605-6.641-8.611-8.602h4.281zm0 8.627l-2.202 2.23-3.18-2.99-8.219 8.7 9.54 9.117 8.978-8.995 1.859-1.862 1.272-1.274 10.666-10.588 13.943 13.675-12.696 13.014-5.161-5.171 2.226-2.206 2.984 2.99 8.22-8.725-9.565-9.092-8.954 8.97-13.821 13.847-13.944-13.676 12.721-13.037 5.333 5.073zm-6.116-8.627l-13.944 14.288L650.404 8.97h4.599l10.005 10.024 10.03-10.024h3.987zm-13.944 5.612l-5.626-5.612h11.228l-5.602 5.612zM664.886 0H-327v3.112H720V0h-55.114z"/></g><g opacity=".5" clip-path="url(#clip1_13263_1063)" fill="#C7A363"><path d="M1656.92 5.833H720V8.97h5.602L720 14.582v4.412L730.005 8.97h3.939L720 23.258v4.411l14.678 14.362h-4.624L720 31.958v4.485l5.651 5.661H720v3.112h1047v-3.112h-5.68l5.68-5.661v-4.411l-10.08 10.072h-3.89L1767 27.792V23.38l-14.68-14.337h4.6l10.01 10.024v-4.436l-5.63-5.588h5.7V5.907h-110.08v-.074zm29.13 3.137l-2.3 2.304-2.32-2.304h4.62zm-9.02 0l6.72 6.715 6.71-6.715h3.89l-12.55 12.548-8.76 8.773-5.09-4.901 3.89-4.117 2.91 2.94 6.63-6.641-8.63-8.627 4.28.025zm-20.11 0h5.6l-5.6 5.612-5.63-5.612h5.63zm-10.03 0l10 10.024 10.03-10.024h3.94l-13.94 14.288-14.68-14.288h4.65zm-15.93 0l-2.32 2.304-2.32-2.304h4.64zm-9.05 0l6.73 6.715 6.73-6.715h3.86l-12.52 12.548-8.93 8.773-5.11-4.901 3.88-4.117 2.94 2.94 6.61-6.641-8.64-8.627 4.45.025zm-20.11 0h5.61l-5.61 5.612-5.62-5.612h5.62zm-10.03 0l10.01 10.024 10.03-10.024h3.94l-13.95 14.288-14.67-14.288h4.64zm-15.92 0l-2.32 2.304-2.3-2.304h4.62zm-9.03 0l6.71 6.715 6.72-6.715h3.89l-12.55 12.548-8.75 8.773-5.12-4.901 3.89-4.117 2.94 2.94 6.6-6.641-8.61-8.627 4.28.025zm-20.13 0h5.63l-5.61 5.612-5.65-5.612h5.63zm-10.03 0l10.03 10.024 10.03-10.024h3.91l-13.94 14.288-14.68-14.288h4.65zm-15.93 0l-2.29 2.304-2.33-2.304h4.62zm-9.02 0l6.73 6.715 6.7-6.715h3.89l-12.53 12.548-8.8 8.773-5.09-4.901 3.89-4.117 2.91 2.94 6.63-6.641-8.64-8.627 4.31.025zm-20.11 0h5.6l-5.6 5.612-5.63-5.612h5.63zm-10.03 0l10.01 10.024 10.03-10.024h3.93l-13.94 14.288-14.68-14.288h4.65zm-15.92 0l-2.33 2.304-2.3-2.304h4.63zm-9.03 0l6.7 6.715 6.73-6.715h3.86l-12.69 12.548-8.76 8.773-5.11-4.901 3.89-4.117 2.93 2.94 6.61-6.641-8.64-8.627 4.48.025zm-20.13 0h5.6l-5.6 5.612-5.63-5.612h5.63zm-10.03 0l10 10.024 10.03-10.024h3.94l-13.94 14.288-14.68-14.288h4.65zm-15.93 0l-2.45 2.304-2.3-2.304h4.75zm-9.03 0l6.71 6.715 6.72-6.715h3.89l-12.55 12.548-8.75 8.773-5.09-4.901 3.86-4.117 2.94 2.94 6.63-6.641-8.64-8.627 4.28.025zm-20.1 0h5.6l-5.6 5.612-5.63-5.612h5.63zm-10.03 0l10 10.024L1391.4 8.97h3.77l-13.92 14.288-14.68-14.288h4.8zm-15.95 0l-2.3 2.304-2.33-2.304h4.63zm-9.03 0l6.73 6.715 6.7-6.715h3.89l-12.57 12.548-8.79 8.773-5.08-4.901 3.88-4.117 2.92 2.94 6.63-6.641-8.64-8.627 4.33.025zm-20.11 0h5.6l-5.6 5.612-5.62-5.612h5.62zm-10.03 0l10.01 10.024 10.03-10.024h3.94l-13.95 14.288L1311.6 8.97h4.65zm-15.92 0l-2.45 2.304-2.3-2.304h4.75zm-9.03 0l6.7 6.715 6.73-6.715h3.87l-12.53 12.548-8.76 8.773-5.11-4.901 3.89-4.117 2.93 2.94 6.61-6.641-8.61-8.627 4.28.025zm-20.13 0h5.6l-5.6 5.612-5.63-5.612h5.63zm-10.03 0l10 10.024 10.03-10.024h3.92l-13.95 14.288-14.67-14.288h4.67zm-15.93 0l-2.3 2.304-2.44-2.304h4.74zm-9.02 0l6.72 6.715 6.71-6.715h3.67l-12.55 12.548-8.76 8.773-5.09-4.901 3.89-4.117 2.93 2.916 6.63-6.641-8.63-8.627 4.48.049zm-20.11 0h5.4l-5.6 5.612-5.62-5.612h5.82zm-10.03 0l10 10.024 10.03-10.024h3.94l-13.94 14.288L1201.4 8.97h4.65zm-15.95 0l-2.3 2.304-2.45-2.304h4.75zm-9.03 0l6.73 6.715 6.7-6.715h3.89l-12.52 12.548-8.79 8.773-5.08-4.901 3.89-4.117 2.93 2.94 6.61-6.641-8.64-8.627 4.28.025zm-20.11 0h5.61l-5.61 5.612-5.62-5.612h5.62zm-10.03 0l10.01 10.024 10.03-10.024h3.94l-13.95 14.288-14.67-14.288h4.64zm-15.92 0l-2.33 2.304-2.3-2.304h4.63zm-9.03 0l6.7 6.715 6.73-6.715h3.79l-12.52 12.548-8.76 8.773-5.11-4.901 3.89-4.117 2.93 2.916 6.61-6.641-8.61-8.627 4.35.049zm-20.13 0h5.55l-5.62 5.612-5.63-5.612h5.7zm-10.03 0l10 10.024 10.06-10.024h3.91l-13.94 14.288-14.68-14.288h4.65zm-15.93 0l-2.3 2.304-2.32-2.304h4.62zm-9.02 0l6.72 6.715 6.71-6.715h3.89l-12.55 12.548-8.76 8.773-5.09-4.901 3.89-4.117 2.91 2.94 6.63-6.641-8.63-8.627 4.28.025zm-20.11 0h5.6l-5.6 5.612-5.63-5.612h5.63zm-10.03 0l10 10.024 10.03-10.024h3.94l-13.94 14.288-14.68-14.288h4.65zm-15.93 0l-2.44 2.304-2.3-2.304h4.74zm-9.02 0l6.7 6.715 6.73-6.715h3.86l-12.52 12.548-8.76 8.773-5.11-4.901 3.89-4.117 2.93 2.94 6.61-6.641-8.64-8.627 4.31.025zm-20.135 0h5.605l-5.605 5.612-5.627-5.612h5.627zm-10.03 0l10.005 10.024 10.03-10.024h3.94l-13.945 14.288L980.967 8.97h4.648zm-15.925 0l-2.446 2.304-2.3-2.304h4.746zm-9.027 0l6.703 6.715 6.727-6.715h3.89l-12.55 12.548-8.757 8.773-5.113-4.901 3.89-4.117 2.935 2.94 6.63-6.641-8.636-8.627 4.281.025zm-20.108 0h5.602l-5.602 5.612-5.626-5.612h5.626zm-10.054 0l10.029 10.024L950.56 8.97h3.914l-13.919 14.288L925.877 8.97h4.624zm-15.925 0l-2.3 2.304-2.446-2.304h4.746zm-9.027 0l6.727 6.715 6.703-6.715h3.889l-12.524 12.548-8.782 8.773-5.089-4.901 3.89-4.117 2.911 2.94 6.629-6.641-8.635-8.627 4.281.025zm-20.108 0h5.602l-5.602 5.612-5.627-5.612h5.627zm-10.03 0l10.005 10.024 10.03-10.024h3.938l-13.943 14.288L870.763 8.97h4.648zm-15.925 0l-2.446 2.304-2.3-2.304h4.746zm-9.027 0l6.532 6.715 6.727-6.715h3.865l-12.525 12.548-8.758 8.773-5.112-4.901 3.889-4.117 2.936 2.94 6.605-6.641-8.636-8.627 4.477.025zm-20.133 0h5.602l-5.602 5.612L824.7 8.97h5.626zm-10.029 0l9.785 10.024L840.111 8.97h3.939l-13.944 14.288L815.429 8.97h4.868zm-15.925 0l-2.3 2.304-2.446-2.304h4.746zm-9.027 0l6.727 6.715 6.703-6.715h3.889l-12.549 12.548-8.758 8.773-5.088-4.901 3.89-4.117 2.911 2.94 6.629-6.641-8.757-8.602h4.403zm-20.108 0h5.602l-5.602 5.612-5.627-5.612h5.627zm-10.03 0l10.005 10.024 10.03-10.024h3.938l-13.943 14.288L760.559 8.97h4.648zm-15.95 0l-2.299 2.304-2.324-2.304h4.623zm-9.026 0l6.678 6.715 6.703-6.715h3.816l-12.525 12.548-8.782 8.773-5.088-4.901 3.889-4.117 2.936 2.94 6.605-6.641-8.636-8.627 4.404.025zm6.36 33.06l2.446-2.45 2.446 2.45h-4.892zm9.124 0l-6.751-6.788-6.948 6.789h-4.403l13.185-13.21 8.122-8.137 5.113 4.902-3.89 4.117-2.886-3.063-6.605 6.617 8.659 8.675-3.596.099zm-.538-8.675l2.202-2.206 2.984 2.99 8.22-8.725-9.541-9.092-8.977 8.97-13.92 13.847-13.943-13.676 12.696-13.038 5.161 5.172-2.201 2.23-3.009-2.99-8.22 8.7 9.565 9.117 8.954-8.995 1.883-1.862 1.272-1.274 10.666-10.588 13.944 13.675-12.696 13.014-5.04-5.27zm20.06 8.676h-5.798l5.651-5.588 5.675 5.661-5.528-.073zm10.054 0l-10.054-10.073-10.079 10.073h-4.012l13.968-14.313 14.678 14.313h-4.501zm16.39 0l2.446-2.451 2.446 2.45h-4.892zm9.149 0l-6.776-6.79-6.777 6.79h-4.403l13.185-13.21 8.147-8.137 5.088 4.902-3.89 4.068-3.033-3.014-6.63 6.617 8.66 8.675-3.571.099zm-.563-8.676l2.226-2.206 2.911 2.99 8.22-8.725-9.541-9.092-8.978 8.97-13.796 13.847-13.944-13.676 12.696-13.038 5.162 5.172-2.227 2.23-3.033-2.99-8.219 8.7 9.54 9.117 8.978-8.995 1.883-1.862 1.273-1.274 10.641-10.588 13.943 13.675-12.598 12.916-5.137-5.171zm20.059 8.676h-5.797l5.675-5.588 5.675 5.661-5.553-.073zm10.079 0l-10.079-10.073-10.078 10.073h-4.012l13.968-14.313 14.678 14.313h-4.477zm16.39 0l2.446-2.451 2.446 2.45h-4.892zm9.149 0l-6.776-6.79-6.776 6.79h-4.404l13.186-13.21 8.048-8.137 5.113 4.902-3.89 4.117-2.984-3.063-6.605 6.617 8.66 8.675-3.572.099zm-.563-8.676l2.202-2.206 3.009 2.99 8.219-8.725-9.589-9.092-8.978 8.97-13.797 13.847-13.919-13.676 12.696-13.038 5.162 5.172-2.202 2.23-3.107-2.99-8.219 8.7 9.54 9.117 8.978-8.995 1.859-1.862 1.272-1.274 10.715-10.588 13.944 13.675-12.696 13.014-5.089-5.27zm20.06 8.676h-5.798l5.651-5.588 5.675 5.661-5.528-.073zm10.054 0l-10.054-10.073-10.079 10.073h-4.012l13.968-14.313 14.678 14.313h-4.501zm16.414 0l2.446-2.451 2.447 2.45h-4.893zm9.125 0l-6.776-6.79-6.752 6.79h-4.55l13.185-13.21 8.146-8.137 5.113 4.902-3.914 4.068-2.911-3.014-6.629 6.617 8.659 8.675-3.571.099zm-.538-8.676l2.201-2.206 2.789 2.99 8.219-8.725-9.54-9.092-8.978 8.97-13.797 13.847-13.943-13.676 12.696-13.038 5.161 5.172-2.226 2.23-2.911-2.99-8.219 8.7 9.54 9.117 8.978-8.995 1.884-1.862 1.272-1.274 10.641-10.588 13.968 13.675-12.745 12.916-4.99-5.171zm20.059 8.676h-5.798l5.651-5.588 5.675 5.661-5.528-.073zm10.054 0l-10.054-10.073-10.177 10.073h-3.914l13.969-14.313 14.677 14.313h-4.501zm16.39 0l2.446-2.451 2.447 2.45h-4.893zm9.149 0l-6.776-6.79-6.776 6.79h-4.403l13.185-13.21 8.146-8.137 5.088 4.902-3.889 4.117-3.034-3.063-6.629 6.617 8.66 8.675-3.572.099zm-.563-8.676l2.227-2.206 2.984 2.99 8.219-8.725-9.54-9.092-8.978 8.97L956.7 39.139l-14.09-13.676 12.72-13.038 5.162 5.172-2.226 2.23-2.985-2.99-8.219 8.7 9.54 9.117 8.978-8.995 1.859-1.862 1.297-1.274 10.568-10.588 13.943 13.675-12.696 13.014-4.966-5.27zm20.06 8.676h-5.676l5.676-5.662 5.675 5.662h-5.675zm10.075 0l-10.075-10.073-10.079 10.073h-3.889l13.968-14.313 14.675 14.313h-4.6zm16.39 0l2.45-2.451 2.45 2.45h-4.9zm9.15 0l-6.77-6.79-6.78 6.79h-4.4l13.18-13.21 8.12-8.137 5.12 4.902-3.89 4.117-2.94-2.916-6.6 6.617 8.66 8.675-3.7-.048zm-.56-8.676l2.2-2.206 2.99 2.99 8.24-8.725-9.57-9.092-8.97 8.97-13.8 13.847-13.944-13.676 12.694-13.038 5.16 5.172-2.2 2.23-3.13-2.99-8.22 8.7 9.57 9.117 8.97-8.995 1.86-1.862 1.28-1.274 10.66-10.686 13.95 13.675-12.7 13.014-5.04-5.171zm20.06 8.676h-5.68l5.65-5.662 5.68 5.662h-5.65zm10.05 0l-10.05-10.073-10.3 10.073h-3.89l13.97-14.313 14.68 14.313h-4.41zm16.42 0l2.44-2.451 2.45 2.45h-4.89zm9.12 0l-6.77-6.79-6.76 6.79h-4.42l13.18-13.21 8.15-8.137 5.11 4.902-3.89 4.117-2.93-2.916-6.63 6.617 8.66 8.675-3.7-.048zm-.56-8.676l2.23-2.206 2.98 2.99 8.17-8.725-9.54-9.092-8.98 8.97-13.79 13.847-13.95-13.676 12.7-13.038 5.16 5.172-2.23 2.23-3.05-2.99-8.22 8.7 9.54 9.117 8.97-8.995 1.89-1.862 1.27-1.274 10.64-10.686 13.94 13.675-12.69 13.014-5.04-5.171zm20.06 8.676h-5.68l5.68-5.662 5.67 5.662h-5.67zm10.08 0l-10.08-10.073-10.08 10.073h-3.94l13.95-14.313 14.67 14.313h-4.52zm16.39 0l2.44-2.451 2.45 2.45h-4.89zm9.15 0l-6.78-6.79-6.78 6.79h-4.4l13.19-13.21 8.14-8.137 5.09 4.902-3.89 4.117-3.03-3.063-6.63 6.617 8.66 8.675-3.57.099zm-.57-8.676l2.23-2.206 2.98 2.99 8.22-8.725-9.56-9.092-8.95 8.97-13.83 13.847-13.94-13.676 12.72-13.038 5.14 5.172-2.2 2.23-3.11-2.99-8.22 8.7 9.54 9.117 9.05-8.995 1.86-1.862 1.3-1.274 10.64-10.686 13.94 13.675-12.69 13.014-5.12-5.171zm20.06 8.676h-5.67l5.53-5.588 5.67 5.661-5.53-.073zm10.06 0l-10.06-10.073-10.08 10.073h-4.01l13.97-14.313 14.68 14.313h-4.5zm16.41 0l2.45-2.451 2.44 2.45h-4.89zm9.13 0l-6.88-6.79-6.77 6.79h-4.41l13.19-13.21 8.12-8.137 5.11 4.902-3.89 4.117-2.93-2.916-6.61 6.617 8.66 8.675-3.59-.048zm-.54-8.676l2.2-2.206 2.98 2.99 8.05-8.725-9.54-9.092-8.98 8.97-13.79 13.847-13.95-13.676 12.7-13.038 5.16 5.172-2.2 2.23-2.96-2.99-8.22 8.7 9.57 9.117 8.97-8.995 1.86-1.862 1.27-1.274 10.67-10.686 13.94 13.675-12.69 13.014-5.04-5.171zm20.06 8.676h-5.68l5.65-5.662 5.68 5.662h-5.65zm10.05 0l-10.05-10.073L1206 42.031h-4.09l13.97-14.313 14.68 14.313h-4.43zm16.39 0l2.45-2.451 2.44 2.45h-4.89zm9.15 0l-6.78-6.79-6.77 6.79h-4.41l13.19-13.21 8.15-8.137 5.08 4.902-3.88 4.117-2.96-3.063-6.63 6.617 8.66 8.675-3.65.099zm-.56-8.676l2.22-2.206 2.99 2.99 8.22-8.725-9.54-9.092-9.05 8.97-13.8 13.847-13.94-13.676 12.69-13.038 5.16 5.172-2.22 2.23-3.04-2.99-8.22 8.7 9.54 9.117 8.93-8.995 1.89-1.862 1.27-1.274 10.64-10.686 13.94 13.675-12.69 13.014-4.99-5.171zm20.06 8.676h-5.68l5.68-5.662 5.67 5.662h-5.67zm10.08 0l-10.08-10.073-10.08 10.073h-3.89l13.97-14.313 14.67 14.313h-4.59zm16.39 0l2.44-2.451 2.45 2.45h-4.89zm9.14 0l-6.77-6.79-6.78 6.79h-4.4l13.18-13.21 8.13-8.137 5.11 4.902-3.89 4.117-2.94-2.916-6.6 6.617 8.66 8.675-3.7-.048zm-.56-8.676l2.2-2.206 3.01 2.99 8.22-8.725-9.56-9.092-8.98 8.97-13.8 13.847-13.94-13.676 12.69-13.038 5.17 5.172-2.21 2.23-3.1-2.99-8.17 8.7 9.54 9.117 8.98-8.995 1.85-1.862 1.28-1.274 10.66-10.686 13.95 13.675-12.7 13.014-5.09-5.171zm20.06 8.676h-5.67l5.65-5.662 5.67 5.662h-5.65zm10.06 0l-10.06-10.073-10.08 10.073h-3.89l13.97-14.313 14.68 14.313h-4.62zm16.41 0l2.45-2.451 2.44 2.45h-4.89zm9.12 0l-6.75-6.79-6.77 6.79h-4.55l13.18-13.21 8.12-8.137 5.12 4.902-3.89 4.117-2.96-3.063-6.61 6.617 8.66 8.675-3.55.099zm-.53-8.676l2.2-2.206 2.98 2.99 8.22-8.725-9.54-9.092-9.17 8.97-13.8 13.847-13.94-13.676 12.69-13.038 5.17 5.172-2.23 2.23-2.91-2.99-8.22 8.7 9.56 9.117 8.96-8.995 1.88-1.862 1.27-1.274 10.67-10.686 13.94 13.675-12.72 13.014-5.01-5.171zm20.06 8.676h-5.8l5.65-5.662 5.67 5.662h-5.52zm10.05 0l-10.05-10.073-10.08 10.073h-3.89l13.97-14.313 14.67 14.313h-4.62zm16.39 0l2.45-2.451 2.44 2.45h-4.89zm9.15 0l-6.78-6.79-6.77 6.79h-4.41l13.19-13.21 8.14-8.137 5.09 4.902-3.89 4.117-3.03-3.063-6.63 6.617 8.66 8.675-3.57.099zm-.56-8.676l2.22-2.206 2.99 2.99 8.22-8.725-9.54-9.092-8.98 8.97-13.8 13.847-13.94-13.676 12.69-13.038 5.17 5.172-2.23 2.23-3.11-2.99-8.29 8.7 9.54 9.117 8.98-8.995 1.86-1.862 1.29-1.274 10.64-10.686 13.95 13.675-12.7 13.014-4.96-5.171zm20.06 8.676h-5.68l5.68-5.662 5.67 5.662h-5.67zm10.07 0l-10.07-10.073-10.08 10.073h-3.89l13.97-14.313 14.67 14.313h-4.6zm16.39 0l2.45-2.451 2.45 2.45h-4.9zm9.15 0l-6.77-6.79-6.78 6.79h-4.4l13.18-13.21 8.12-8.137 5.12 4.902-3.89 4.117-2.94-2.916-6.6 6.617 8.66 8.675-3.7-.048zm-.56-8.676l2.2-2.206 3.01 2.99 8.22-8.725-9.56-9.092-8.98 8.97-13.8 13.847-13.94-13.676 12.69-13.038 5.16 5.172-2.2 2.23-3.1-2.99-8.22 8.7 9.54 9.117 8.98-8.995 1.85-1.862 1.28-1.274 10.66-10.686 13.95 13.675-12.7 13.014-5.04-5.171zm20.06 8.676h-5.68l5.66-5.662 5.67 5.662h-5.65zm10.05 0l-10.05-10.073-10.08 10.073h-3.89l13.97-14.313 14.68 14.313h-4.63zm16.42 0l2.44-2.451 2.45 2.45h-4.89zm9.12 0l-6.77-6.79-6.75 6.79h-4.43l13.18-13.21 8.15-8.137 5.11 4.902-3.89 4.117-3.06-3.063-6.63 6.617 8.66 8.675-3.57.099zm-.56-8.676l2.23-2.206 2.98 2.99 8.22-8.725-9.54-9.092-8.98 8.97-13.84 13.847-13.95-13.676 12.7-13.038 5.16 5.172-2.23 2.23-3.05-2.99-8.22 8.7 9.54 9.117 8.98-8.995 1.88-1.862 1.27-1.274 10.64-10.686 13.97 13.675-12.72 13.014-5.04-5.171zm20.06 8.676h-5.68l5.68-5.662 5.67 5.662h-5.67zm10.08 0l-10.06-10.073-10.1 10.073h-3.86l13.94-14.313 14.68 14.313h-4.6zm16.39 0l2.44-2.451 2.45 2.45h-4.89zm9.15 0l-6.78-6.79-6.78 6.79h-4.4l13.19-13.21 8.14-8.137 5.09 4.902-3.89 4.117-3.03-3.063-6.63 6.617 8.66 8.675-3.57.099zm-.57-8.676l2.23-2.206 2.99 2.99 8.21-8.725-9.56-9.092-8.95 8.97-13.8 13.847-13.97-13.676 12.72-13.038 5.14 5.172-2.2 2.23-3.04-2.99-8.22 8.7 9.55 9.117 8.97-8.995 1.86-1.862 1.3-1.274 10.64-10.686 13.94 13.675-12.69 13.014-5.12-5.171zm20.06 8.676h-5.79l5.67-5.662 5.68 5.662h-5.56zm10.08 0l-10.08-10.073-10.07 10.073h-3.89l13.96-14.313 14.68 14.313h-4.6zm16.39 0l2.45-2.451 2.45 2.45h-4.9zm9.13 0l-6.75-6.79-6.78 6.79h-4.4l13.18-13.21 8.12-8.137 5.12 4.902-3.89 4.117-2.94-2.916-6.6 6.617 8.66 8.675-3.72-.048zm-.54-8.676l2.2-2.206 2.98 2.99 8.22-8.725-9.54-9.092-8.97 8.97-13.97 13.847-13.95-13.676 12.7-13.038 5.16 5.172-2.2 2.23-2.96-2.99-8.22 8.7 9.57 9.117 8.97-8.995 1.86-1.862 1.27-1.274 10.67-10.686 13.94 13.675-12.69 13.014-5.04-5.171zm20.06 8.676h-5.68l5.65-5.662 5.68 5.662h-5.65zm10.05 0l-10.05-10.073-10.08 10.073h-3.89l13.97-14.313 14.68 14.313h-4.63zm16.39 0l2.45-2.451 2.44 2.45h-4.89zm9.15 0l-6.77-6.79-6.81 6.79h-4.4l13.19-13.21 8.14-8.137 5.12 4.902-3.89 4.117-2.94-2.916-6.63 6.617 8.66 8.675-3.67-.048zm-.56-8.676l2.22-2.206 2.99 2.99 8.22-8.725-9.54-9.092-8.98 8.97-13.8 13.847-13.94-13.676 12.48-13.038 5.16 5.172-2.23 2.23-2.93-2.99-8.22 8.7 9.54 9.117 8.97-8.995 1.89-1.862 1.27-1.274 10.64-10.686 13.95 13.675-12.7 13.014-4.99-5.171zm20.06 8.676h-5.68l5.68-5.662 5.67 5.662h-5.67zm10.08 0l-10.08-10.073-10.08 10.073h-3.89l13.97-14.313 14.68 14.313h-4.6zm16.39 0l2.44-2.451 2.45 2.45h-4.89zm9.15 0l-6.78-6.79-6.78 6.79h-4.4l13.19-13.21 8.14-8.137 5.09 4.902-3.89 4.117-3.03-3.063-6.63 6.617 8.66 8.675-3.57.099zm-6.46-33.061l-2.33 2.304-2.3-2.304h4.63zm-9.03 0l6.7 6.715 6.73-6.715h3.87l-12.53 12.548-8.76 8.773-5.11-4.901 3.89-4.117 2.94 2.94 6.6-6.641-8.61-8.602h4.28zm0 8.627l-2.2 2.23-3.18-2.99-8.22 8.7 9.54 9.117 8.98-8.995 1.86-1.862 1.27-1.274 10.66-10.588 13.95 13.675-12.7 13.014-5.16-5.171 2.23-2.206 2.98 2.99 8.22-8.725-9.56-9.092-8.96 8.97-13.82 13.847-13.94-13.676 12.72-13.037 5.33 5.073zm-6.11-8.627l-13.95 14.288L1697.4 8.97h4.6l10.01 10.024 10.03-10.024h3.99zm-13.95 5.612l-5.62-5.612h11.22l-5.6 5.612zM1711.89 0H720v3.112h1047V0h-55.11z"/></g><defs><clipPath id="clip0_13263_1063"><path fill="#fff" d="M0 0h720v25H0z"/></clipPath><clipPath id="clip1_13263_1063"><path fill="#fff" transform="translate(720)" d="M0 0h720v25H0z"/></clipPath></defs></svg>