<svg width="213" height="27" fill="none" xmlns="http://www.w3.org/2000/svg"><g clip-path="url(#clip0_13621_321)"><path d="M122.549 8.145a.187.187 0 00.007-.107l-.116-.484c-.013-.056-.03-.11-.041-.166-.048-.245-.117-.484-.174-.726l-.158-.666c-.004-.015-.005-.03-.01-.046-.089-.277-.133-.565-.21-.845a11.527 11.527 0 01-.173-.71c-.01-.046-.023-.09-.031-.137a2.292 2.292 0 00-.091-.345.93.93 0 01-.052-.227.32.32 0 00-.011-.061l-.139-.543-.004-.015-.154-.65c-.01-.045-.025-.09-.039-.134-.006-.02-.015-.04-.019-.06a.094.094 0 01.026-.085.284.284 0 01.048-.039l.351-.232.302-.193.457-.296c.231-.15.46-.302.693-.449.277-.174.545-.362.823-.533.173-.106.337-.225.505-.338.022-.014.042-.032.065-.043a.147.147 0 01.135.003c.014.007.026.017.039.026.263.186.534.359.807.53.11.068.215.144.324.215.161.104.324.207.486.31.017.011.036.02.053.033.157.119.33.216.495.323.283.184.565.37.847.555l.144.092c.067.044.086.089.058.158a.999.999 0 00-.062.24c-.003.026-.012.05-.018.076l-.082.348c-.007.03-.014.06-.023.09-.058.178-.093.362-.142.542a.658.658 0 00-.017.076 2.298 2.298 0 01-.096.392c-.016.05-.031.1-.041.15-.069.346-.156.687-.245 1.029-.023.09-.046.18-.065.272a8.058 8.058 0 01-.101.407c-.048.18-.088.363-.132.544-.047.197-.093.394-.143.59-.021.08-.043.16-.058.242-.024.122-.056.242-.088.362-.041.15-.071.303-.104.455-.002.009.004.02.007.032.013-.01.029-.016.036-.028l.1-.176.818-1.504c.019-.036.041-.072.059-.109.022-.043.096-.062.137-.04.28.148.569.28.832.457.056.037.114.072.171.108.202.128.391.273.569.433.267.24.521.493.754.765.122.142.236.29.333.45.121.2.243.399.343.61.085.179.153.364.226.547.037.167.093.329.144.492.002.005.004.01.004.015.03.268.091.53.107.801.016.275.012.55.027.824.006.134-.012.16-.118.23-.229.154-.455.31-.682.466-.017.012-.032.027-.047.04-.003.004-.004.01-.006.014.008.004.017.012.024.01l.377-.097 1.278-.342c.015-.004.03-.008.045-.009.016 0 .03.006.039.02.015.024.022.05.014.075-.05.165-.058.337-.086.505-.01.057-.019.113-.032.168a2.418 2.418 0 00-.051.339 4.18 4.18 0 01-.069.445 5.664 5.664 0 00-.071.43c-.019.154-.047.308-.074.46a1.21 1.21 0 00-.02.295c.017.253.034.507.053.76.02.27.044.538.054.808.009.238.025.476.061.712.038.252.058.505.061.76 0 .03 0 .062.003.093.017.191.023.383.034.575.006.103.025.206.04.308.013.082.029.163.043.245.003.02-.001.041-.001.061 0 .011-.025.028-.036.024-.019-.007-.039-.013-.058-.021l-.294-.142c-.014-.007-.029-.011-.044-.017-.018-.006-.045.013-.043.032.004.036.007.072.014.107.022.107.046.213.067.32.048.234.098.467.139.702.023.133.051.265.086.395.023.085.04.171.052.259.014.097.034.194.054.29.029.137.059.274.09.41a.308.308 0 01-.005.154c-.02.065-.04.13-.064.192a8.99 8.99 0 01-.83 1.564c-.133.198-.265.397-.412.585-.083.107-.169.21-.253.316-.091.114-.182.227-.271.341-.093.12-.193.232-.298.34-.257.264-.517.526-.777.786-.118.117-.242.229-.361.344a6.801 6.801 0 01-.521.445c-.135.106-.266.216-.397.326-.04.033-.073.074-.111.109-.036.034-.101.011-.11-.038l-.004-.015a.04.04 0 01-.001-.015c.009-.136-.015-.269-.035-.402-.035-.226-.042-.454-.053-.682-.008-.16-.012-.322-.037-.481-.003-.026-.005-.052-.011-.077-.054-.244-.067-.493-.08-.742-.011-.228-.033-.455-.054-.682a2.006 2.006 0 01-.01-.109c-.021-.263-.04-.527-.064-.79-.011-.13-.031-.258-.048-.387-.005-.04-.011-.082-.013-.123a17.033 17.033 0 00-.058-.713c-.018-.186-.027-.373-.041-.559-.019-.253-.037-.507-.057-.76a1.933 1.933 0 00-.023-.17 5.12 5.12 0 01-.071-.665 17.39 17.39 0 00-.038-.558c-.014-.166-.032-.33-.048-.496-.004-.041-.006-.083-.009-.124-.006-.088-.004-.176-.018-.264-.011-.068.017-.121.079-.155l.245-.136.656-.359.546-.298.478-.263.628-.344.082-.044c.15-.072.289-.164.434-.244.018-.01.035-.023.052-.036a.186.186 0 00.081-.143c.003-.031.004-.063.005-.094.01-.212.017-.425.032-.637.013-.191.036-.382.054-.573.005-.057.01-.114.013-.17.005-.125.006-.25.03-.372a.208.208 0 00-.003-.108c-.005-.015-.031-.037-.047-.034-.036.008-.072.013-.106.025a6.52 6.52 0 01-.717.209c-.07.017-.139.043-.207.069a.829.829 0 01-.179.051.287.287 0 00-.061.013c-.22.08-.45.125-.673.195-.128.04-.256.084-.389.11-.036.006-.07.021-.104.033a2.038 2.038 0 01-.298.088c-.031.006-.06.017-.09.026-.035.01-.068.025-.104.033-.243.056-.479.136-.718.206l-.076.019c-.05.012-.103.02-.151.038-.175.067-.357.11-.536.162-.04.012-.079.027-.12.034-.139.024-.269.08-.405.112-.015.003-.029.011-.043.018-.032.015-.057.054-.051.089.034.194.036.392.087.583.049.181.061.368.09.553.046.302.082.606.142.906.032.158.05.318.075.477.034.215.065.43.091.647a1.343 1.343 0 00.084.362c.016.049.01.093-.025.131a1.168 1.168 0 01-.076.079l-.317.299-.645.61c-.015.014-.029.03-.045.043-.045.038-.128.036-.173-.003a.274.274 0 01-.023-.021c-.281-.285-.58-.55-.872-.824-.06-.057-.118-.116-.177-.175-.036-.036-.044-.08-.033-.13a.342.342 0 01.013-.044c.047-.117.066-.241.078-.364.019-.181.049-.36.074-.54.014-.097.027-.195.043-.292.023-.138.05-.276.073-.414.018-.107.035-.215.05-.323.029-.22.072-.44.091-.662.007-.072.025-.143.039-.214l.059-.29a.787.787 0 00.015-.108c.005-.088.008-.176.032-.262.003-.01.002-.02.002-.03a.094.094 0 00-.056-.087.33.33 0 00-.044-.016c-.136-.032-.266-.087-.405-.112-.051-.01-.1-.03-.149-.044-.04-.012-.079-.027-.12-.034-.088-.014-.17-.046-.254-.073a6.837 6.837 0 00-.194-.06l-.449-.127a63.179 63.179 0 01-.539-.154c-.02-.006-.039-.015-.059-.019-.129-.023-.251-.067-.373-.11-.02-.007-.039-.014-.06-.019-.207-.047-.409-.116-.613-.174-.055-.016-.111-.03-.166-.044-.05-.013-.101-.024-.15-.04-.079-.027-.156-.057-.24-.067a.276.276 0 01-.075-.021 2.865 2.865 0 00-.416-.127 5.226 5.226 0 01-.522-.157 1.5 1.5 0 00-.119-.037c-.046-.012-.081.018-.08.068.001.031.006.062.009.093.005.046.015.092.016.139.011.306.045.61.078.914.007.062.007.124.01.187l.026.543c.001.026.005.052.008.078a.13.13 0 00.044.08.719.719 0 00.101.073c.395.229.797.446 1.199.663.32.172.637.349.955.524l.642.351c.087.048.174.094.259.143.055.031.08.08.076.143-.013.176-.024.352-.042.527-.039.382-.07.764-.087 1.148a2.225 2.225 0 01-.034.293c-.055.292-.069.587-.089.882-.021.321-.044.642-.077.962-.008.077-.012.155-.017.233-.012.176-.023.352-.05.526-.041.272-.054.547-.078.821-.016.18-.033.362-.047.543a27.08 27.08 0 00-.042.636 3.6 3.6 0 01-.05.464 3.81 3.81 0 00-.07.664 6.21 6.21 0 01-.08.883c-.008.05-.005.103-.008.155a.714.714 0 01-.008.092c-.007.042-.065.062-.099.037-.004-.004-.01-.005-.013-.009-.126-.14-.284-.242-.422-.368a9.438 9.438 0 01-.978-.868 50.32 50.32 0 01-.723-.73 4.254 4.254 0 01-.405-.472c-.064-.088-.137-.17-.206-.254a8.872 8.872 0 01-.613-.824c-.14-.212-.273-.428-.401-.649-.099-.17-.182-.349-.273-.524-.079-.152-.141-.311-.205-.47-.027-.067-.046-.137-.067-.207a.244.244 0 01-.002-.123c.035-.157.071-.313.104-.47.015-.072.024-.144.037-.215.016-.087.03-.174.051-.26.036-.14.07-.28.093-.424.016-.098.04-.193.058-.29.046-.255.103-.508.152-.763.005-.025.006-.051.008-.077.001-.01-.025-.028-.035-.025-.015.005-.03.008-.044.014l-.309.149a.32.32 0 01-.043.017c-.015.006-.047-.013-.048-.028-.001-.01-.004-.021-.002-.03l.041-.23c.022-.123.042-.246.049-.37.008-.166.019-.332.028-.498.01-.191.017-.383.03-.574a3.53 3.53 0 01.035-.325 5.67 5.67 0 00.061-.65c.008-.202.021-.404.035-.606.013-.192.03-.383.045-.574.012-.155.024-.31.033-.466a.81.81 0 00-.006-.17 67.063 67.063 0 00-.139-.891c-.019-.118-.046-.235-.064-.352-.015-.092-.022-.186-.034-.278-.008-.062-.015-.124-.028-.185-.038-.172-.062-.347-.086-.521a1.338 1.338 0 00-.038-.199.246.246 0 01-.009-.076c-.001-.041.033-.068.072-.058l.722.194.963.255c.004 0 .013-.003.013-.004.001-.008.002-.018-.002-.024a.09.09 0 00-.022-.023c-.012-.01-.025-.018-.038-.027l-.682-.464c-.013-.01-.026-.017-.039-.026a.15.15 0 01-.066-.118c-.003-.036 0-.072.001-.109l.014-.388c.005-.135.01-.27.013-.405.002-.114.019-.227.036-.34.019-.128.036-.256.058-.384a1.4 1.4 0 01.045-.181c.037-.114.074-.227.1-.343a.405.405 0 01.016-.06c.109-.275.211-.553.364-.808.048-.08.095-.16.141-.242.147-.259.33-.49.531-.709a8.82 8.82 0 01.574-.57 4.65 4.65 0 01.721-.542l.278-.172c.031-.02.062-.038.094-.055l.511-.266a.119.119 0 01.091-.009c.02.006.039.013.051.032.019.03.037.062.054.094l.781 1.435.187.341c-.004-.011-.002-.013.004-.006l-.01.003z" fill="#C7A363"/></g><path d="M17.1 8.2c-.04-.38-.1-.54-.24-.54-.14 0-.22.14-.3.32l-5.88 12.56L4.56 7.96c-.1-.22-.18-.3-.3-.3s-.2.16-.22.38L2.6 21.06c-.1.86-.18 1.54-.8 1.66-.3.06-.44.06-.6.06-.1 0-.2.04-.2.1 0 .14.14.18.34.18.54 0 1.5-.06 1.68-.06.16 0 1.12.06 1.86.06.24 0 .36-.04.36-.18 0-.06-.08-.1-.16-.1-.12 0-.42-.02-.76-.1a.64.64 0 01-.52-.62c0-.44.02-1 .06-1.54l.76-8.76h.08l5.02 10.42c.3.62.46.82.58.82.16 0 .24-.14.56-.82l5-10.62h.06l.94 10.1c.02.24.04.5.04.56 0 .22-.04.36-.1.38-.1.02-.14.06-.14.14 0 .1.1.16.56.2.74.06 2.9.12 3.34.12.24 0 .42-.06.42-.18 0-.08-.06-.1-.16-.1-.2 0-.72 0-1.3-.18-.86-.28-1-1.4-1.08-2.12L17.1 8.2zm10.776-.54c-.12 0-.2.12-.44.78l-4.54 12.42c-.36 1-.76 1.76-1.68 1.88-.16.02-.44.04-.58.04-.1 0-.18.04-.18.12 0 .12.12.16.38.16.94 0 2.04-.06 2.26-.06.22 0 1.08.06 1.56.06.18 0 .3-.04.3-.16 0-.08-.06-.12-.2-.12h-.2c-.34 0-.76-.18-.76-.58 0-.36.1-.84.28-1.34l1.2-3.54c.04-.1.1-.16.2-.16h4.3c.1 0 .14.04.18.12l1.86 4.92c.04.08.04.2.04.26 0 .18-.12.28-.16.28-.06 0-.14.06-.14.14 0 .12.22.12.6.14 1.38.04 2.84.04 3.14.04.22 0 .4-.04.4-.16 0-.1-.08-.12-.2-.12-.2 0-.5-.02-.8-.12-.42-.12-1-.44-1.72-2.22-1.22-3.04-4.36-11.3-4.66-12.06-.24-.62-.32-.72-.44-.72zm-2.18 8.78c-.06 0-.1-.04-.06-.14l1.76-5.4c.04-.14.1-.22.14-.22.06 0 .1.06.16.22l1.9 5.4c.02.08.02.14-.08.14h-3.82zm11.784 4.62c-.66 1.02-1.06 1.46-1.66 1.62-.3.08-.6.1-.76.1-.1 0-.16.06-.16.14 0 .08.04.14.2.14.66 0 1.64-.06 1.82-.06.18 0 1.44.06 1.92.06.14 0 .24-.04.24-.14 0-.08-.06-.14-.16-.14s-.26-.02-.38-.04c-.18-.04-.32-.18-.32-.38s.08-.56.26-.88l3.12-5.3c1.2 2.02 2.36 4 3.44 5.96.18.32 0 .52-.1.56-.08.02-.12.08-.12.16 0 .1.1.12.62.16 1.02.02 1.98.04 3.2.04.18 0 .28-.06.28-.16 0-.08-.06-.12-.16-.12-.12 0-.42-.04-.7-.12-.58-.18-.86-.48-1.18-.9-.42-.54-3.84-6.36-4.22-6.98l3.22-4.84c.58-.86.96-1.44 1.54-1.62.22-.08.52-.1.66-.1s.22-.06.22-.14c0-.08-.1-.14-.32-.14-.68 0-1.5.06-1.68.06-.18 0-1.02-.06-1.78-.06-.24 0-.34.06-.34.14 0 .1.06.14.18.14s.4 0 .6.06c.2.06.34.22.34.36 0 .24-.06.42-.2.72-.2.42-2.34 3.84-2.94 4.7-1.04-1.72-1.86-3.2-2.7-4.78-.12-.22-.2-.46-.2-.66 0-.14.06-.28.24-.34.16-.06.42-.06.54-.06.12 0 .18-.04.18-.14s-.06-.14-.34-.14c-.68 0-1.7.06-1.88.06-.16 0-1.78-.06-2.34-.06-.26 0-.34.04-.34.14 0 .08.06.14.18.14s.52.04.84.14c.68.24 1.1.82 1.56 1.6l3.2 5.38-3.62 5.72zm16.647-7.32c0-3.12 0-3.68.04-4.32.04-.7.2-1.04.74-1.14.24-.04.36-.06.5-.06.08 0 .16-.04.16-.12 0-.12-.1-.16-.32-.16-.6 0-1.86.06-1.96.06-.1 0-1.6-.06-2.26-.06-.22 0-.32.04-.32.16 0 .08.08.12.16.12.18 0 .52.02.68.06.66.14.78.44.84.92.04.34.06 1.18.06 4.54v3.52c0 2.44-.04 4.06-.14 4.58-.12.58-.22.76-.54.86-.18.06-.42.08-.6.08-.12 0-.16.06-.16.12 0 .12.1.16.32.16.36 0 1.86-.06 1.96-.06.1 0 1.36.06 2.46.06.22 0 .32-.06.32-.16 0-.06-.04-.12-.16-.12-.18 0-.62-.04-.9-.08-.6-.08-.72-.52-.78-1.1-.1-.84-.1-2.42-.1-4.34v-3.52zM74.795 8.2c-.04-.38-.1-.54-.24-.54-.14 0-.22.14-.3.32l-5.88 12.56-6.12-12.58c-.1-.22-.18-.3-.3-.3s-.2.16-.22.38l-1.44 13.02c-.1.86-.18 1.54-.8 1.66-.3.06-.44.06-.6.06-.1 0-.2.04-.2.1 0 .14.14.18.34.18.54 0 1.5-.06 1.68-.06.16 0 1.12.06 1.86.06.24 0 .36-.04.36-.18 0-.06-.08-.1-.16-.1-.12 0-.42-.02-.76-.1a.64.64 0 01-.52-.62c0-.44.02-1 .06-1.54l.76-8.76h.08l5.02 10.42c.3.62.46.82.58.82.16 0 .24-.14.56-.82l5-10.62h.06l.94 10.1c.02.24.04.5.04.56 0 .22-.04.36-.1.38-.1.02-.14.06-.14.14 0 .1.1.16.56.2.74.06 2.9.12 3.34.12.24 0 .42-.06.42-.18 0-.08-.06-.1-.16-.1-.2 0-.72 0-1.3-.18-.86-.28-1-1.4-1.08-2.12L74.795 8.2zm6.296 8.46c0 2.92.76 4.32 1.74 5.26 1.42 1.34 3.44 1.42 4.12 1.42 1.18 0 2.68-.2 4.12-1.48 1.6-1.42 1.84-3.82 1.84-5.98v-2.14c0-3.12 0-3.68.04-4.32.04-.7.2-1.04.74-1.14.24-.06.36-.06.5-.06.08 0 .16-.04.16-.12 0-.12-.1-.16-.32-.16-.6 0-1.54.06-1.68.06-.12 0-1.22-.06-2.12-.06-.22 0-.32.04-.32.16 0 .08.08.12.16.12.18 0 .52.02.68.06.66.14.82.46.86 1.14.04.64.04 1.2.04 4.32v2.5c0 2.06-.24 3.76-1.16 4.9-.72.86-1.92 1.44-3.14 1.44-1.14 0-2.04-.18-3.02-1.1-.86-.82-1.5-2.06-1.5-4.94v-2.8c0-3.12 0-3.68.04-4.32.04-.7.2-1.06.74-1.14.24-.04.36-.06.5-.06.08 0 .16-.04.16-.12 0-.12-.1-.16-.32-.16-.6 0-1.8.06-1.98.06-.18 0-1.4-.06-2.3-.06-.22 0-.32.04-.32.16 0 .08.08.12.16.12.18 0 .52.02.68.06.66.14.82.46.86 1.14.04.64.04 1.2.04 4.32v2.92zm23.482-6.44c0-1.36.08-2.02.08-2.12 0-.1-.04-.14-.2-.14s-.32-.02-.7-.1c-.5-.12-1.08-.2-1.86-.2-2.54 0-4.14 1.46-4.14 3.6 0 1.36.48 2.6 2.6 4.34l.9.74c1.72 1.42 2.3 2.22 2.3 3.6 0 1.28-.94 2.66-2.86 2.66-1.34 0-2.66-.56-2.96-2.04-.06-.28-.06-.56-.06-.74 0-.16-.02-.22-.14-.22-.1 0-.14.1-.16.32-.02.32-.1 1.12-.1 2.12 0 .54.02.62.3.76.82.4 1.74.54 2.68.54 3.06 0 4.72-1.9 4.72-4.16 0-1.7-.8-3-2.3-4.2l-1.18-.94c-1.9-1.52-2.44-2.22-2.44-3.36 0-1.46 1.08-2.32 2.46-2.32 1.84 0 2.38.84 2.5 1.06.12.22.24.76.26 1 .02.16.04.26.16.26.1 0 .14-.14.14-.46zm42.466-1.42l2.52.04c1.92.04 2.38.5 2.46 1.1l.02.22c.02.28.06.34.16.34.08 0 .14-.08.14-.26 0-.22.06-1.6.06-2.2 0-.12 0-.24-.1-.24-.16 0-.7.2-1.98.2h-7.5c-.24 0-1-.04-1.58-.1-.54-.04-.74-.24-.88-.24-.08 0-.16.26-.2.38-.04.16-.44 1.88-.44 2.08 0 .12.04.18.1.18.08 0 .14-.04.2-.2.06-.14.12-.28.34-.62.32-.48.8-.62 2.04-.64l2.96-.04v8.46c0 1.92 0 3.5-.1 4.34-.08.58-.18 1.02-.58 1.1-.18.04-.42.08-.6.08-.12 0-.16.06-.16.12 0 .12.1.16.32.16.6 0 1.86-.06 1.96-.06.1 0 1.36.06 2.46.06.22 0 .32-.06.32-.16 0-.06-.04-.12-.16-.12-.18 0-.62-.04-.9-.08-.6-.08-.72-.52-.78-1.1-.1-.84-.1-2.42-.1-4.34V8.8zm9.568 8.46c0 1.92 0 3.5-.1 4.34-.08.58-.18 1.02-.58 1.1-.18.04-.42.08-.6.08-.12 0-.16.06-.16.12 0 .12.1.16.32.16.6 0 1.86-.06 1.88-.06.1 0 1.36.06 2.46.06.22 0 .32-.06.32-.16 0-.06-.04-.12-.16-.12-.18 0-.62-.04-.9-.08-.6-.08-.72-.52-.78-1.1-.1-.84-.1-2.42-.1-4.34v-.48c0-.1.04-.16.14-.16l2.46.04c.12 0 .18.04.26.12.4.52 1.34 1.86 2.18 2.96 1.14 1.5 1.84 2.48 2.7 2.94.52.28 1.02.38 2.14.38h1.42c.36 0 .48-.04.48-.16 0-.06-.08-.12-.18-.12-.12 0-.4 0-.78-.06-.5-.08-1.36-.3-2.44-1.44-1.16-1.24-2.52-3.02-4.16-5.12 1.8-1.66 2.42-3.14 2.42-4.62 0-1.38-.88-2.36-1.38-2.72-1.06-.76-2.4-.88-3.66-.88-.62 0-2.14.06-2.36.06-.1 0-1.36-.06-2.26-.06-.22 0-.32.04-.32.16 0 .08.08.12.16.12.18 0 .52.02.68.06.66.14.82.46.86 1.14.04.64.04 1.2.04 4.32v3.52zm1.6-8.32c0-.12.06-.2.16-.24.2-.06.74-.12 1.34-.12 2.14 0 3.46 1.5 3.46 4 0 1.52-.52 2.6-1.22 3.08-.46.32-1.02.38-1.5.38-.88 0-1.8-.14-2.1-.32a.261.261 0 01-.14-.24V8.94zm16.798-1.28c-.12 0-.2.12-.44.78l-4.54 12.42c-.36 1-.76 1.76-1.68 1.88-.16.02-.44.04-.58.04-.1 0-.18.04-.18.12 0 .12.12.16.38.16.94 0 2.04-.06 2.26-.06.22 0 1.08.06 1.56.06.18 0 .3-.04.3-.16 0-.08-.06-.12-.2-.12h-.2c-.34 0-.76-.18-.76-.58 0-.36.1-.84.28-1.34l1.2-3.54c.04-.1.1-.16.2-.16h4.3c.1 0 .14.04.18.12l1.86 4.92c.04.08.04.2.04.26 0 .18-.12.28-.16.28-.06 0-.14.06-.14.14 0 .12.22.12.6.14 1.38.04 2.84.04 3.14.04.22 0 .4-.04.4-.16 0-.1-.08-.12-.2-.12-.2 0-.5-.02-.8-.12-.42-.12-1-.44-1.72-2.22-1.22-3.04-4.36-11.3-4.66-12.06-.24-.62-.32-.72-.44-.72zm-2.18 8.78c-.06 0-.1-.04-.06-.14l1.76-5.4c.04-.14.1-.22.14-.22.06 0 .1.06.16.22l1.9 5.4c.02.08.02.14-.08.14h-3.82zm17.464-8.5c-1.2 0-3.52.06-3.76.06-.1 0-1.36-.06-2.26-.06-.22 0-.32.04-.32.16 0 .08.08.12.16.12.18 0 .52.02.68.06.66.14.78.44.84.92.04.34.06 1.18.06 4.54v3.52c0 2.44-.04 4.06-.14 4.58-.12.58-.22.76-.54.86-.18.06-.42.08-.6.08-.12 0-.16.06-.16.12 0 .12.1.16.32.16.6 0 1.86-.06 1.96-.06.2 0 2.72.24 4.44.24 5.36 0 8.22-3.7 8.22-7.94 0-5.46-4.16-7.36-8.9-7.36zm-2.92 2.68c0-1.68.06-1.76.26-1.86.16-.08.9-.14 1.3-.14 4.8 0 8.46 2.5 8.46 7.3 0 4.1-2.48 6.64-6.36 6.64-2.36 0-3.1-.4-3.4-.8-.2-.28-.26-1.48-.26-3.62v-7.52zm18.34-1.7c0-.14.04-.18.12-.18.4 0 2.2.06 2.32.06 1.18 0 1.66.4 1.78.66.12.26.18.6.18.76 0 .14.04.22.14.22s.14-.1.16-.2c.04-.24.08-1.12.1-1.32.06-.56.16-.8.16-.94 0-.1-.04-.22-.12-.22-.08 0-.16.08-.28.12-.08.02-.56.06-.88.08-.32.02-2.36.04-4.52.04-.1 0-1.36-.06-2.26-.06-.22 0-.32.04-.32.16 0 .08.08.12.16.12.18 0 .52.02.68.06.66.14.78.44.84.92.04.34.06 1.18.06 4.54v3.52c0 2.44-.04 4.06-.14 4.58-.12.58-.22.76-.54.86-.18.06-.42.08-.6.08-.12 0-.16.06-.16.12 0 .12.1.16.32.16.44 0 1.44-.06 1.96-.06.58 0 1.92.12 4.94.12.78 0 .94 0 1.08-.52.1-.42.26-1.78.26-1.94 0-.14 0-.3-.12-.3-.1 0-.14.08-.18.3-.14.82-.38 1.22-.9 1.44-.52.22-1.4.22-1.92.22-1.96 0-2.32-.32-2.32-1.64V15.5c0-.08.04-.14.14-.14.34 0 2.32.04 2.86.1.78.08.96.42 1.04.7.08.26.08.46.08.66 0 .1.04.18.14.18.12 0 .14-.16.14-.38 0-.98.24-2.32.24-2.4 0-.12-.04-.16-.1-.16-.08 0-.16.1-.3.26-.18.2-.46.24-.94.28-.46.04-2.92.04-3.18.04-.1 0-.12-.06-.12-.2V8.92z" fill="#C7A363"/><defs><clipPath id="clip0_13621_321"><path fill="#fff" transform="translate(116.975)" d="M0 0h14.997v27H0z"/></clipPath></defs></svg>