<svg width="16" height="16" fill="none" xmlns="http://www.w3.org/2000/svg"><path d="M7.573 7.707c1.06 0 1.976-.38 2.725-1.129a3.728 3.728 0 001.13-2.725 3.73 3.73 0 00-1.13-2.724A3.73 3.73 0 007.573 0C6.515 0 5.598.38 4.85 1.129a3.729 3.729 0 00-1.13 2.724c0 1.06.38 1.976 1.13 2.725a3.73 3.73 0 002.724 1.13zm6.743 4.596a9.498 9.498 0 00-.13-1.01 7.958 7.958 0 00-.248-1.017 5.017 5.017 0 00-.418-.948 3.576 3.576 0 00-.63-.822 2.778 2.778 0 00-.905-.568c-.35-.14-.74-.21-1.155-.21-.164 0-.322.068-.627.266-.188.123-.407.264-.652.42-.21.134-.494.26-.844.373-.343.11-.69.167-1.033.167a3.35 3.35 0 01-1.033-.167 3.73 3.73 0 01-.843-.372 89.524 89.524 0 01-.653-.42c-.305-.2-.463-.266-.626-.266-.416 0-.805.07-1.156.209-.352.14-.656.33-.905.569-.238.227-.45.503-.63.82a5.031 5.031 0 00-.418.949 7.99 7.99 0 00-.248 1.016 9.487 9.487 0 00-.13 1.011c-.021.307-.032.624-.032.945 0 .836.266 1.512.79 2.01.516.492 1.2.742 2.032.742h7.704c.832 0 1.516-.25 2.034-.742.523-.498.789-1.174.789-2.01 0-.322-.011-.64-.033-.945z" fill="#B9B9B9"/></svg>