<svg width="80" height="12" viewBox="0 0 80 12" fill="none" xmlns="http://www.w3.org/2000/svg">
<g clip-path="url(#clip0_13385_864)">
<path d="M17.582 5.00977H15.4383V7.15348H17.582V5.00977Z" fill="#C7A363"/>
<path d="M13.5209 7.26886C12.4825 7.52737 11.6065 8.21991 10.953 9.30879C10.7937 9.57558 10.6535 9.85326 10.5332 10.1397L2.41796 6.08204L10.5329 2.02467C10.6531 2.31116 10.7934 2.58883 10.9526 2.85563C11.6061 3.94484 12.4823 4.63713 13.5206 4.89555L13.5209 7.26886Z" fill="#C7A363"/>
<path d="M31.1055 5.00977H19.4983V7.15348H31.1055V5.00977Z" fill="#C7A363"/>
<path d="M76.114 5.0094C76.3675 5.00966 76.6105 5.11046 76.7897 5.28968C76.9689 5.4689 77.0697 5.7119 77.07 5.96535L77.07 6.19741C77.0696 6.45089 76.9688 6.6939 76.7896 6.87314C76.6103 7.05238 76.3673 7.15322 76.1138 7.15353L33.0101 7.15352L33.0101 5.0094L76.114 5.0094Z" fill="#C7A363"/>
</g>
<defs>
<clipPath id="clip0_13385_864">
<rect width="80" height="12" fill="white" transform="matrix(-1 0 0 1 80 0)"/>
</clipPath>
</defs>
</svg>
