<svg width="57" height="64" viewBox="0 0 57 64" fill="none" xmlns="http://www.w3.org/2000/svg">
<path fill-rule="evenodd" clip-rule="evenodd" d="M27.2889 0.0378871C27.2206 0.106123 27.2441 0.184245 27.3907 0.376809C27.442 0.444123 27.489 0.503434 27.4952 0.508612C27.5013 0.51379 27.5356 0.556155 27.5713 0.602757C27.607 0.649359 27.6407 0.691724 27.6461 0.696902C27.6516 0.70208 27.6982 0.757155 27.7498 0.819291C27.8013 0.881426 27.8481 0.936501 27.8538 0.941679C27.8595 0.946857 27.8935 0.989222 27.9294 1.03582C27.9653 1.08243 28.01 1.1375 28.0288 1.15821C28.0477 1.17892 28.1113 1.25816 28.1702 1.3343C28.2292 1.41045 28.3329 1.54178 28.4008 1.62615C28.5226 1.77757 28.8309 2.18577 28.8932 2.27809C28.9108 2.30422 28.9642 2.38069 29.0119 2.448C29.0595 2.51531 29.1718 2.68054 29.2614 2.81516C29.3509 2.94979 29.4346 3.07058 29.4474 3.08359C29.4601 3.0966 29.4759 3.12413 29.4825 3.14478C29.4891 3.16544 29.5017 3.18233 29.5107 3.18233C29.5197 3.18233 29.5324 3.19922 29.5389 3.21988C29.5455 3.24053 29.561 3.26806 29.5735 3.28107C29.5859 3.29408 29.6667 3.40999 29.753 3.53867C29.8393 3.66735 29.9251 3.79444 29.9437 3.8211C30.1378 4.09885 30.1864 4.2184 30.1112 4.23272C30.0945 4.23591 30.014 4.19156 29.9323 4.13419C29.8506 4.07682 29.7202 3.98606 29.6425 3.9325C29.5648 3.87895 29.4971 3.83016 29.4919 3.82412C29.4867 3.81805 29.457 3.79551 29.426 3.77403C29.1429 3.57823 29.0672 3.52562 29.0214 3.49301C28.8673 3.38325 28.7394 3.296 28.2492 2.96615C27.6062 2.53354 27.5326 2.48315 27.5001 2.45297C27.4863 2.44018 27.3887 2.3782 27.2831 2.31522C27.1775 2.25225 27.0744 2.1907 27.0538 2.17844C27.0333 2.16619 26.9809 2.13284 26.9375 2.10437C26.894 2.0759 26.8534 2.05259 26.8473 2.05259C26.8412 2.05259 26.8009 2.03032 26.7578 2.00309C26.7147 1.97586 26.556 1.89021 26.4051 1.81275C26.2543 1.7353 26.0885 1.64848 26.0368 1.61984C25.8095 1.49412 25.3501 1.26145 25.2557 1.22423C25.1989 1.20186 25.1076 1.16301 25.0527 1.13793C24.9978 1.11283 24.9492 1.09231 24.9447 1.09231C24.9401 1.09231 24.8916 1.07262 24.837 1.04853C24.658 0.969715 24.3586 0.854952 24.187 0.799369C24.1377 0.783402 24.0804 0.762709 24.0597 0.753389C23.8113 0.641695 22.8777 0.432467 22.3839 0.377845C22.2804 0.366378 22.1236 0.34898 22.0356 0.33917C21.9476 0.32936 21.7781 0.312452 21.659 0.301568C21.5399 0.290704 21.3577 0.273814 21.2542 0.264061C20.6543 0.207536 20.4472 0.198932 19.6914 0.199252C19.2382 0.19944 18.7449 0.209721 18.5711 0.222619C17.8849 0.273513 17.5049 0.308478 17.2907 0.340412C17.2234 0.350448 17.0751 0.371631 16.9612 0.387467C16.5499 0.444631 16.0261 0.559921 15.1818 0.779072C14.8088 0.87591 13.9445 1.16874 13.6473 1.29902C13.6266 1.30809 13.5376 1.34174 13.4496 1.37379C13.3615 1.40581 13.2748 1.44033 13.2568 1.45046C13.2389 1.46061 13.2157 1.46889 13.2055 1.46889C13.1953 1.46889 13.1337 1.49316 13.0688 1.52282C13.0038 1.55247 12.8871 1.60429 12.8094 1.63798C12.7317 1.67164 12.6258 1.7179 12.574 1.74076C12.5222 1.7636 12.4502 1.79399 12.414 1.80828C12.3777 1.82256 12.293 1.86311 12.2257 1.89838C12.0048 2.01412 11.7109 2.1714 11.6378 2.21292C11.5507 2.26235 11.4486 2.37918 11.4204 2.46146C11.4012 2.5174 11.4039 2.52563 11.4563 2.56973C11.5213 2.62433 11.5162 2.62309 11.8303 2.66289C12.1503 2.70347 12.5188 2.7731 12.7435 2.83542C12.8056 2.85267 12.8776 2.87069 12.9035 2.87547C12.9294 2.88026 13.0311 2.89974 13.1295 2.91878C13.2279 2.93782 13.3677 2.9638 13.4402 2.97653C13.6713 3.01709 13.8433 3.06823 13.93 3.12223C14.0062 3.16964 14.1391 3.32713 14.2018 3.44415C14.2254 3.48828 14.2246 3.4889 14.1625 3.47642C13.9194 3.42747 13.0981 3.39393 12.8652 3.42342C12.7775 3.43453 12.6041 3.45298 12.4799 3.46444C12.3556 3.47591 12.1904 3.49758 12.1127 3.51259C12.035 3.5276 11.8571 3.55746 11.7173 3.57892C11.4834 3.61487 11.2211 3.66654 11.0583 3.70877C10.668 3.80999 10.1685 3.96419 10.0481 4.02065C10.0155 4.03594 9.98157 4.04875 9.97278 4.0491C9.96398 4.04946 9.9229 4.06611 9.88147 4.08612C9.84005 4.10614 9.79927 4.12278 9.79083 4.12314C9.78239 4.1235 9.73156 4.14383 9.67786 4.16835C9.51843 4.24108 9.4189 4.28529 9.26953 4.34969C9.19186 4.38317 9.08357 4.43077 9.0289 4.45547C8.97423 4.48016 8.92571 4.50036 8.9211 4.50036C8.91649 4.50036 8.85955 4.52467 8.79457 4.55438C8.72959 4.58409 8.62981 4.62804 8.57286 4.65203C8.5159 4.67602 8.39389 4.74067 8.30172 4.79571C8.20955 4.85075 8.131 4.89577 8.12718 4.89577C8.12335 4.89577 8.08861 4.9156 8.04998 4.93985C8.01136 4.9641 7.94162 5.00526 7.89501 5.03134C7.6402 5.17389 7.51949 5.24663 7.32073 5.3774C7.22753 5.4387 7.14279 5.49312 7.13244 5.4983C7.12208 5.50348 6.99619 5.58608 6.85266 5.68188C6.70914 5.77766 6.58928 5.85605 6.5863 5.85605C6.56653 5.85605 6.19722 6.11384 6.04855 6.2314C5.94949 6.30975 5.83996 6.39503 5.80513 6.42092C5.73105 6.47597 5.63019 6.55694 5.6167 6.57215C5.61153 6.57799 5.57763 6.60315 5.54139 6.62804C5.50514 6.65293 5.47125 6.67833 5.46607 6.68449C5.46089 6.69066 5.40582 6.7357 5.34368 6.7846C5.28155 6.8335 5.17458 6.92207 5.10597 6.98142C5.03735 7.04079 4.88484 7.17048 4.76705 7.26965C4.40466 7.57474 4.15557 7.82648 3.82029 8.22653C3.44647 8.67257 3.38505 8.74726 3.27697 8.88752C3.23308 8.94447 3.18646 9.00239 3.17336 9.01625C3.16025 9.03009 3.12636 9.07245 3.09804 9.1104C3.06972 9.14832 3.03583 9.19068 3.02273 9.20454C3.00962 9.21838 2.97573 9.26061 2.94741 9.29842C2.91909 9.33621 2.8756 9.39038 2.85076 9.41881C2.82593 9.44725 2.79627 9.48701 2.78486 9.5072C2.75748 9.55561 2.47324 10.0029 2.38762 10.1322C2.35066 10.1881 2.26983 10.3327 2.20803 10.4536C2.10526 10.6547 2.09574 10.6836 2.09628 10.7925C2.09694 10.9239 2.11221 10.9537 2.20899 11.0127C2.26625 11.0477 2.30338 11.0527 2.50207 11.0528C2.78635 11.0529 2.93515 11.0798 3.00418 11.1438C3.03265 11.1701 3.05596 11.2079 3.05596 11.2276C3.05596 11.287 2.98793 11.364 2.90173 11.4022C2.85711 11.422 2.75893 11.4743 2.68354 11.5185C2.60817 11.5627 2.54212 11.5989 2.53677 11.5989C2.52788 11.5989 2.38887 11.6926 2.171 11.8455C1.99898 11.9662 1.7594 12.1816 1.44166 12.5013C1.03574 12.9097 0.896067 13.1058 0.636113 13.6324C0.435641 14.0385 0.446562 14.0115 0.327468 14.395C0.228108 14.7149 0.19736 14.8242 0.176573 14.9316C0.165539 14.9886 0.139084 15.1199 0.11777 15.2235C0.0964744 15.327 0.0709986 15.4562 0.0611698 15.5106C0.0513599 15.565 0.032983 15.6582 0.0203675 15.7177C-0.00947643 15.8585 -0.00591799 16.0979 0.0270704 16.1671C0.0463325 16.2074 0.0683812 16.2229 0.112855 16.2272C0.175669 16.2333 0.200166 16.2234 0.632461 16.0163C0.77526 15.9479 0.896518 15.8919 0.90196 15.8919C0.907383 15.8919 0.968483 15.8657 1.03774 15.8336C1.10699 15.8015 1.18059 15.7676 1.2013 15.7582C1.31661 15.7059 1.58613 15.6283 1.6526 15.6283C1.72021 15.6283 1.73219 15.6349 1.75013 15.6825C1.76757 15.7287 1.76271 15.7527 1.71705 15.8458C1.6876 15.9059 1.656 15.9599 1.64685 15.9658C1.6377 15.9718 1.61609 16.0021 1.5988 16.0331C1.58154 16.0642 1.53298 16.1362 1.49087 16.1932C1.37809 16.3458 1.22439 16.5823 1.15434 16.711C1.12053 16.7731 1.06428 16.8756 1.02939 16.9387C0.994486 17.0019 0.965941 17.063 0.965941 17.0747C0.965941 17.0863 0.944231 17.1433 0.917701 17.2013C0.879629 17.2845 0.87415 17.3125 0.891755 17.3337C0.920149 17.3679 0.949032 17.3686 0.93604 17.3348C0.928942 17.3163 0.975544 17.2927 1.1014 17.2508C1.25689 17.1991 1.75774 17.0249 1.83208 16.9967C1.996 16.9344 2.72256 16.6946 2.83943 16.6642C2.87049 16.6561 2.93828 16.6357 2.99006 16.6189C3.04184 16.6021 3.10962 16.5806 3.14069 16.5713C3.17176 16.5619 3.27767 16.529 3.37605 16.4981C3.47443 16.4672 3.61848 16.423 3.69615 16.3998C3.77382 16.3766 3.87126 16.3471 3.91268 16.3343C4.35264 16.1979 4.44891 16.1674 4.50579 16.1463C4.63069 16.1001 4.69075 16.087 5.07066 16.0237C5.20896 16.0007 5.38752 15.9696 5.51314 15.9469C5.56492 15.9375 5.76828 15.9043 5.96504 15.8731C6.1618 15.8419 6.36516 15.8082 6.41694 15.7981C6.56224 15.7699 7.88677 15.7655 8.12096 15.7924C8.2297 15.805 8.42034 15.8242 8.54461 15.8351C9.14982 15.8885 9.2324 15.898 9.53314 15.9484C9.59009 15.9579 9.69601 15.975 9.7685 15.9863C10.0951 16.0371 10.1507 16.046 10.2392 16.0612C10.291 16.0702 10.4054 16.0875 10.4934 16.0999C10.5814 16.1122 10.7424 16.1474 10.8512 16.178C10.9599 16.2087 11.0743 16.2409 11.1054 16.2496C11.1364 16.2583 11.2212 16.2835 11.2936 16.3057C11.3661 16.3279 11.4692 16.358 11.5226 16.3725C11.5761 16.3871 11.6684 16.4252 11.7277 16.4573C11.7871 16.4894 11.8771 16.5374 11.9278 16.5639C11.9786 16.5904 12.0493 16.6471 12.085 16.6898C12.1208 16.7325 12.1888 16.8141 12.2362 16.871C12.3147 16.9652 12.4041 17.1329 12.6179 17.5865C12.6594 17.6745 12.7533 17.872 12.8266 18.0253C12.9 18.1786 12.96 18.3077 12.96 18.3122C12.96 18.3166 13.0076 18.42 13.0657 18.5418C13.1238 18.6636 13.1908 18.8057 13.2146 18.8575C13.2383 18.9093 13.3009 19.0432 13.3537 19.1552C13.4064 19.2671 13.4496 19.3617 13.4496 19.3653C13.4496 19.3689 13.4783 19.4341 13.5135 19.5101C13.5889 19.673 13.6591 19.8283 13.7885 20.1188C13.8092 20.1653 13.8261 20.2074 13.8261 20.2124C13.8261 20.2213 13.862 20.3018 13.9887 20.577C14.0236 20.6528 14.0521 20.7183 14.0521 20.7224C14.0521 20.7265 14.0743 20.7789 14.1014 20.8387C14.1286 20.8985 14.1615 20.9729 14.1745 21.004C14.1876 21.035 14.211 21.0901 14.2265 21.1264C14.242 21.1626 14.282 21.2812 14.3153 21.39C14.3487 21.4987 14.3911 21.6343 14.4096 21.6912C14.6557 22.4478 14.8077 22.9384 14.8412 23.0846C14.8638 23.183 14.8899 23.2973 14.8992 23.3388C14.929 23.4711 14.9948 23.7508 15.0121 23.8189C15.0315 23.8952 15.0578 24.011 15.0891 24.1578C15.1013 24.2148 15.1186 24.286 15.1277 24.316C15.1368 24.346 15.1442 24.4842 15.1442 24.623C15.1442 24.8701 15.1429 24.8777 15.085 24.9856C15.0408 25.0681 15.0076 25.1046 14.9534 25.1305C14.9136 25.1496 14.8809 25.1716 14.8808 25.1793C14.8807 25.1871 14.8722 25.1934 14.862 25.1934C14.8308 25.1934 14.445 25.4286 14.0932 25.662C13.4102 26.1151 13.3242 26.1754 13.1671 26.3109C13.0611 26.4025 12.8794 26.53 12.7597 26.597C12.6356 26.6664 12.3581 26.8661 11.7455 27.3271C11.3786 27.6032 10.8075 28.1411 10.652 28.3571C10.5896 28.4438 10.5359 28.5012 10.5237 28.4941C10.5122 28.4874 10.3927 28.4079 10.2581 28.3174C9.91749 28.0886 9.7193 27.99 9.60939 27.9948C9.48759 28.0001 9.43283 28.0471 9.41578 28.161C9.40819 28.2117 9.39395 28.5539 9.38412 28.9216C9.36326 29.7028 9.37623 30.2054 9.45801 31.7836C9.49689 32.5338 9.50751 33.4103 9.49329 34.6927C9.48525 35.4176 9.47028 36.1124 9.46002 36.2366C9.44178 36.4577 9.41559 36.8102 9.38234 37.2816C9.36582 37.5158 9.33515 37.7692 9.31606 37.8294C9.31054 37.8468 9.29787 37.9276 9.28789 38.0091C9.27104 38.1465 9.25784 38.2424 9.21174 38.562C9.20203 38.6293 9.18567 38.748 9.17539 38.8256C9.13842 39.1046 9.12014 39.2144 9.08124 39.3905C9.05951 39.4889 9.03458 39.6033 9.02583 39.6447C9.01705 39.6861 8.99107 39.809 8.96806 39.9177C8.94505 40.0264 8.91973 40.1493 8.91178 40.1907C8.89566 40.2747 8.82178 40.6253 8.79867 40.7274C8.78572 40.7846 8.74286 40.9384 8.68589 41.1322C8.67676 41.1632 8.64701 41.2607 8.6198 41.3487C8.59257 41.4367 8.55791 41.5554 8.54275 41.6123C8.52759 41.6693 8.49762 41.7752 8.47613 41.8477C8.41275 42.0614 8.36683 42.2192 8.34457 42.2996C8.33309 42.341 8.3172 42.3961 8.30925 42.422C8.3013 42.4479 8.28419 42.5072 8.27124 42.5538C8.23763 42.6747 8.06621 43.1962 8.04532 43.241C8.03567 43.2617 8.00236 43.3549 7.97129 43.4481C7.84478 43.8277 7.37381 45.1937 7.2864 45.4346C7.20378 45.6623 7.09105 45.9539 7.05599 46.0306C7.04108 46.0632 7.02888 46.0958 7.02888 46.103C7.02888 46.1103 7.01687 46.1429 7.00218 46.1755C6.98749 46.2081 6.91479 46.3916 6.84065 46.5832C6.76648 46.7748 6.69847 46.9485 6.68949 46.9692C6.68052 46.9899 6.65578 47.0466 6.63451 47.0952C6.61323 47.1438 6.59581 47.1892 6.59581 47.1959C6.59581 47.2027 6.5838 47.235 6.56911 47.2676C6.55443 47.3002 6.48173 47.4837 6.40758 47.6753C6.33341 47.8668 6.26499 48.0405 6.25553 48.0612C6.20724 48.1669 6.18157 48.2744 6.18157 48.3708C6.18157 48.4765 6.18259 48.4785 6.25672 48.518C6.32961 48.5569 6.34313 48.5576 6.70926 48.5409C6.91683 48.5314 7.11813 48.5153 7.15661 48.5051C7.1951 48.4948 7.2565 48.4818 7.29307 48.4762C7.34368 48.4684 7.38902 48.4356 7.48296 48.3389C7.59262 48.226 7.72555 48.0439 7.72555 48.0066C7.72555 47.9991 7.74673 47.9466 7.77262 47.89C7.79851 47.8334 7.8197 47.7834 7.8197 47.7788C7.8197 47.7743 7.83998 47.7258 7.86477 47.6711C7.88955 47.6164 7.94118 47.4954 7.97948 47.4022C8.01778 47.309 8.06952 47.188 8.09445 47.1334C8.11938 47.0787 8.13979 47.0302 8.13979 47.0257C8.13979 47.0211 8.16001 46.9726 8.18475 46.918C8.20948 46.8633 8.28238 46.6914 8.3468 46.5361C8.48308 46.2073 8.49854 46.1708 8.55184 46.0515C8.57376 46.0024 8.59169 45.9581 8.59169 45.9531C8.59169 45.9481 8.61803 45.8865 8.65021 45.8164C8.6824 45.7462 8.72541 45.6466 8.7458 45.595C8.76619 45.5434 8.80342 45.4563 8.8285 45.4014C8.8536 45.3466 8.87412 45.2976 8.87412 45.2926C8.87412 45.2876 8.89205 45.2434 8.91396 45.1943C8.96727 45.075 8.98273 45.0385 9.11901 44.7097C9.18342 44.5544 9.25727 44.3807 9.28312 44.3237C9.309 44.2667 9.38465 44.0888 9.45125 43.9283C9.51785 43.7678 9.58895 43.6005 9.60922 43.5566C9.6295 43.5127 9.64611 43.4727 9.64611 43.4677C9.64611 43.4628 9.66628 43.4139 9.69092 43.3593C9.71555 43.3046 9.77575 43.1624 9.82467 43.0433C9.91962 42.8122 9.93681 42.7719 10.0095 42.6103C10.0352 42.5533 10.1088 42.3796 10.1732 42.2243C10.2927 41.9361 10.3152 41.8824 10.3688 41.7582C10.4083 41.6668 10.4436 41.5835 10.4828 41.4899C10.5534 41.3211 10.588 41.2711 10.8024 41.0274C10.9604 40.8478 11.1125 40.7207 11.3878 40.5384C11.481 40.4767 11.5675 40.4177 11.58 40.4073C11.5925 40.3969 11.6078 40.3884 11.614 40.3884C11.6202 40.3884 11.6751 40.3545 11.7361 40.3131C11.7971 40.2717 11.8511 40.2378 11.8561 40.2378C11.861 40.2378 11.9561 40.1861 12.0674 40.123C12.1786 40.0598 12.3678 39.9704 12.4877 39.9243C12.6077 39.8782 12.7228 39.8333 12.7435 39.8245C12.8634 39.7734 13.0192 39.7224 13.2613 39.655C13.4114 39.6132 13.5597 39.5711 13.5908 39.5615C13.8089 39.4937 14.8597 39.4409 15.1326 39.484C15.1959 39.494 15.3367 39.5114 15.4454 39.5227C15.6321 39.5421 15.7582 39.5607 15.9538 39.5976C16.0004 39.6064 16.0936 39.6234 16.1609 39.6353C16.2283 39.6472 16.3215 39.6641 16.3681 39.6729C16.4147 39.6817 16.5079 39.6989 16.5752 39.711C16.6822 39.7303 16.9044 39.8069 17.0977 39.8911C17.238 39.9522 17.2832 39.9706 17.3196 39.9815C17.3407 39.9878 17.3981 40.0338 17.4472 40.0836L17.5364 40.1741L17.5239 40.3088C17.5161 40.3924 17.4997 40.4562 17.4805 40.4772C17.4636 40.4957 17.4292 40.5405 17.4042 40.5767C17.3429 40.6656 17.3658 40.6484 16.9706 40.9009C16.8483 40.979 16.4075 41.2357 16.3957 41.2357C16.3912 41.2357 16.3345 41.2681 16.2696 41.3076C16.2046 41.3471 16.1388 41.3853 16.1233 41.3925C16.1078 41.3996 16.0654 41.4235 16.0291 41.4455C15.9929 41.4675 15.9209 41.5087 15.8691 41.537C15.8173 41.5652 15.7453 41.605 15.709 41.6254C15.6728 41.6458 15.5754 41.6993 15.4925 41.7443C15.4097 41.7893 15.3013 41.8501 15.2516 41.8793C15.202 41.9085 15.1579 41.9324 15.1538 41.9324C15.1496 41.9324 15.0504 41.9882 14.9334 42.0565C14.7121 42.1854 12.464 43.3069 12.4268 43.3069C12.4213 43.3069 12.3547 43.3355 12.2788 43.3705C12.203 43.4054 11.9969 43.4952 11.8209 43.57C11.6448 43.6447 11.456 43.7263 11.4014 43.7512C11.3467 43.7761 11.2982 43.7965 11.2936 43.7965C11.2889 43.7965 11.232 43.8204 11.167 43.8497C11.102 43.8789 11.0192 43.9145 10.983 43.9289C10.8699 43.9736 10.8436 43.9916 10.7614 44.0812C10.6875 44.1615 10.68 44.1795 10.6627 44.3166C10.6524 44.3981 10.6359 44.5115 10.6261 44.5685C10.6163 44.6254 10.5991 44.8161 10.588 44.9921C10.5769 45.1682 10.5598 45.4224 10.55 45.557C10.5402 45.6916 10.5231 45.9416 10.5121 46.1124C10.4931 46.4058 10.4805 46.5948 10.437 47.2422C10.427 47.3923 10.41 47.6508 10.3993 47.8165C10.3515 48.5615 10.3066 49.1785 10.2863 49.3699C10.277 49.4579 10.2603 49.6274 10.2491 49.7464C10.2381 49.8655 10.2209 50.0477 10.211 50.1513C10.2011 50.2548 10.1841 50.437 10.1731 50.5561C10.1622 50.6752 10.1454 50.8489 10.1359 50.9421C10.1264 51.0353 10.1096 51.2132 10.0985 51.3375C10.0457 51.9292 9.98707 52.4757 9.97404 52.4976C9.97025 52.504 9.95826 52.5845 9.94741 52.6765C9.93655 52.7685 9.91936 52.9031 9.90921 52.9756C9.89906 53.0481 9.88232 53.1731 9.872 53.2533C9.76976 54.0483 9.77494 54.0124 9.70277 54.4255C9.68106 54.5497 9.65477 54.698 9.64434 54.755C9.63393 54.8119 9.61777 54.9051 9.60845 54.9621C9.59913 55.019 9.58298 55.1122 9.57256 55.1692C9.54361 55.3274 9.47296 55.7328 9.41997 56.0447C9.40538 56.1306 9.37953 56.2308 9.29608 56.5249C9.26804 56.6237 9.24358 56.7169 9.09348 57.2969C9.05731 57.4367 9.01351 57.6019 8.99617 57.664C8.97883 57.7262 8.95814 57.8067 8.95021 57.8429C8.90583 58.0456 8.78813 58.4448 8.74202 58.549C8.73285 58.5697 8.614 58.9213 8.47792 59.3304C8.34184 59.7395 8.2101 60.1189 8.18515 60.1736C8.1602 60.2282 8.13979 60.2767 8.13979 60.2813C8.13979 60.2858 8.11953 60.3343 8.09477 60.389C8.03753 60.5154 7.94071 60.7407 7.63133 61.4675C7.49467 61.7885 7.36364 62.0936 7.34016 62.1453C7.19533 62.4646 6.59321 63.8953 6.58374 63.9427C6.57278 63.9975 6.57504 64 6.6359 64C6.68678 64 6.72048 63.9802 6.80431 63.9011C6.86194 63.8468 6.98053 63.7391 7.06784 63.6618C7.15515 63.5846 7.30284 63.4484 7.39604 63.3593C7.48925 63.2702 7.62035 63.147 7.6874 63.0855C7.75445 63.0241 7.85189 62.9348 7.90394 62.8871C7.95598 62.8394 8.06903 62.7377 8.15517 62.6612C8.37798 62.463 8.59366 62.2695 8.84558 62.0418C8.96586 61.933 9.12669 61.789 9.20301 61.7217C9.2793 61.6544 9.45048 61.5016 9.58337 61.3822C9.71625 61.2627 9.84718 61.1483 9.87434 61.128C9.90147 61.1076 10.07 60.9723 10.2489 60.8273C10.6207 60.5259 10.6774 60.4806 10.8185 60.3722C10.8747 60.3291 10.9326 60.2823 10.9471 60.2684C10.9617 60.2545 11.0583 60.1758 11.1618 60.0935C11.2654 60.0113 11.3544 59.9393 11.3595 59.9336C11.3647 59.9279 11.4 59.9002 11.4379 59.8719C11.4759 59.8436 11.5182 59.8098 11.5321 59.7966C11.5459 59.7834 11.5869 59.7488 11.6232 59.7197C11.7631 59.6073 11.8551 59.5322 12.1574 59.2833C12.2077 59.2419 12.2807 59.1826 12.3195 59.1515C12.3583 59.1205 12.4517 59.0442 12.5269 58.9821C12.9499 58.6329 13.0717 58.5399 13.4025 58.3136C13.5061 58.2428 13.6162 58.1667 13.6473 58.1446C13.8121 58.0272 13.9773 57.9131 14.1659 57.7864C14.2816 57.7088 14.3859 57.6367 14.3977 57.6264C14.4096 57.616 14.5064 57.5482 14.6129 57.4757C14.7194 57.4033 14.8857 57.2889 14.9825 57.2216C15.0792 57.1542 15.2378 57.0445 15.3349 56.9777C15.5782 56.8102 15.65 56.7599 15.7373 56.6958C15.8364 56.623 16.1581 56.4307 16.1808 56.4307C16.1906 56.4307 16.1986 56.4223 16.1986 56.4119C16.1986 56.4016 16.2068 56.3931 16.2169 56.3931C16.2269 56.3931 16.3011 56.3541 16.3816 56.3064C16.4622 56.2587 16.5747 56.194 16.6317 56.1626C16.6886 56.1312 16.7717 56.0813 16.8162 56.0516C16.8607 56.0219 16.9005 55.9977 16.9045 55.9977C16.9085 55.9977 17.0108 55.9384 17.132 55.8659C17.2531 55.7934 17.3545 55.7341 17.3573 55.7341C17.3602 55.7341 17.4481 55.6832 17.5528 55.6211C17.6574 55.559 17.7514 55.5081 17.7616 55.5081C17.7719 55.5081 17.7802 55.4996 17.7802 55.4893C17.7802 55.4789 17.7876 55.4705 17.7967 55.4705C17.811 55.4705 17.919 55.412 18.0062 55.357C18.085 55.3073 18.4829 55.0751 18.4892 55.0751C18.4932 55.0751 18.5281 55.0551 18.5667 55.0308C18.6053 55.0065 19.0182 54.7935 19.4843 54.5576C19.9503 54.3216 20.34 54.1221 20.3504 54.1142C20.3739 54.0964 21.6296 53.4682 21.8473 53.3654C21.9353 53.3239 22.1754 53.2086 22.3807 53.1092C22.586 53.0099 22.7572 52.9285 22.7611 52.9285C22.765 52.9285 22.974 52.8284 23.2256 52.7059C23.4773 52.5834 23.7806 52.4375 23.8997 52.3816C24.0188 52.3257 24.1598 52.2476 24.213 52.2081C24.2983 52.1448 24.3114 52.126 24.3228 52.0497C24.3405 51.9318 24.3369 51.6404 24.3149 51.4128C24.3049 51.3093 24.2877 51.1017 24.2766 50.9515C24.2655 50.8013 24.2485 50.5768 24.2387 50.4525C24.2289 50.3283 24.212 50.108 24.201 49.963C24.1901 49.818 24.1732 49.6019 24.1635 49.4828C24.1538 49.3637 24.1368 49.1434 24.1257 48.9933C24.1145 48.8431 24.0977 48.6271 24.0882 48.5131C24.0787 48.3992 24.0617 48.1789 24.0504 48.0236C24.0391 47.8683 24.0213 47.6522 24.0109 47.5435C23.9821 47.2435 23.9568 45.6893 23.9759 45.3969C23.9851 45.2571 24.0013 44.9973 24.0119 44.8195C24.0225 44.6417 24.039 44.4553 24.0485 44.4053C24.0581 44.3552 24.0762 44.238 24.0888 44.1448C24.123 43.8922 24.2734 43.4601 24.4428 43.1281C24.5662 42.8862 24.6076 42.824 24.731 42.695C24.8281 42.5934 24.9354 42.5068 25.0605 42.4291C25.2165 42.3321 25.4418 42.2148 25.4719 42.2148C25.4764 42.2148 25.5292 42.1924 25.589 42.165C25.7767 42.0789 26.036 42.0458 26.5247 42.0456C26.8481 42.0454 26.9801 42.0523 27.0519 42.073C27.1045 42.0882 27.2239 42.1185 27.3171 42.1403C27.4103 42.1621 27.5459 42.2061 27.6184 42.2381C27.8995 42.3621 28.1665 42.4976 28.2115 42.5392C28.2374 42.5631 28.3009 42.6163 28.3527 42.6576C28.4045 42.6988 28.4596 42.7455 28.4751 42.7613C28.4906 42.7772 28.5415 42.8195 28.5881 42.8553C28.6347 42.8911 28.6813 42.929 28.6918 42.9395C28.7297 42.9778 28.9271 43.4108 29.0008 43.6176C29.0341 43.7108 29.0789 43.8294 29.1004 43.8812C29.1497 43.9997 29.1689 44.2077 29.1837 44.785C29.1958 45.2602 29.1816 45.509 29.1144 45.9995C29.0743 46.2928 29.0178 46.6315 28.9848 46.7763C28.9731 46.8278 28.9697 46.9224 28.9768 46.9986C28.9888 47.128 28.9913 47.1331 29.08 47.2107C29.1575 47.2785 29.2151 47.3049 29.4679 47.3882C29.6313 47.4421 29.8115 47.4985 29.8685 47.5136C29.9254 47.5288 30.0313 47.5593 30.1038 47.5815C30.1763 47.6037 30.261 47.6289 30.2921 47.6375C30.4419 47.679 30.8247 47.7916 30.8664 47.8064C30.8923 47.8156 31.0279 47.8586 31.1677 47.9019C31.3075 47.9453 31.5362 48.018 31.676 48.0635C31.8158 48.1091 31.9811 48.1624 32.0432 48.182C32.1053 48.2016 32.2875 48.2596 32.448 48.3108C32.6085 48.362 32.8288 48.4316 32.9376 48.4655C33.0463 48.4993 33.2158 48.5522 33.3142 48.5829C33.4125 48.6137 33.5185 48.6465 33.5495 48.6557C33.5806 48.6649 33.6696 48.6929 33.7472 48.7179C33.8249 48.7428 34.0028 48.7985 34.1426 48.8416C34.2824 48.8847 34.418 48.927 34.4439 48.9356C34.4698 48.9442 34.5291 48.9619 34.5757 48.9748C34.6223 48.9877 34.707 49.0134 34.764 49.0319C34.821 49.0504 34.9565 49.0921 35.0653 49.1247C35.174 49.1573 35.2841 49.1914 35.31 49.2004C35.3501 49.2144 35.4816 49.2544 35.8184 49.3551C35.8547 49.3659 35.914 49.3859 35.9502 49.3995C35.9865 49.4131 36.1051 49.4509 36.2138 49.4834C36.3226 49.5159 36.4581 49.5575 36.5151 49.576C36.5721 49.5943 36.6822 49.6287 36.7599 49.6523C36.8375 49.6759 36.9477 49.7103 37.0047 49.7287C37.0616 49.7471 37.248 49.8062 37.4189 49.8599C37.5898 49.9136 37.7677 49.9704 37.8143 49.9861C37.8609 50.0017 37.9244 50.0213 37.9555 50.0296C37.9866 50.0379 38.0586 50.0612 38.1156 50.0813C38.1725 50.1014 38.2827 50.1374 38.3603 50.1611C38.438 50.1848 38.5632 50.2241 38.6385 50.2484C38.7825 50.2948 38.861 50.3028 38.9041 50.2755C38.9406 50.2523 38.9046 50.1854 38.7496 49.9889C38.6813 49.9022 38.5185 49.6956 38.3881 49.5299C38.2576 49.3642 38.138 49.213 38.1224 49.1938C38.0954 49.1608 37.9551 48.9709 37.8978 48.8897C37.8832 48.869 37.8237 48.7851 37.7656 48.7033C37.6085 48.482 37.3624 48.056 37.3624 48.0054C37.3624 48.0004 37.337 47.9408 37.3059 47.873C37.2748 47.8051 37.2494 47.7455 37.2494 47.7405C37.2494 47.7355 37.2325 47.6933 37.2118 47.6468C37.1911 47.6003 37.1572 47.5242 37.1365 47.4778C37.1157 47.4313 37.0988 47.3891 37.0988 47.384C37.0988 47.379 37.0701 47.3132 37.0351 47.2379C37.0001 47.1626 36.9575 47.0388 36.9404 46.9629C36.9048 46.8047 36.8383 46.482 36.8155 46.3572C36.807 46.3106 36.7783 46.1712 36.7517 46.0474C36.7167 45.8844 36.6983 45.7209 36.6848 45.4543C36.6613 44.9878 36.6604 44.267 36.6832 44.1338C36.6928 44.0778 36.7104 43.9725 36.7222 43.9C36.8038 43.401 36.8735 43.1001 36.949 42.9209C36.9577 42.9002 37.0369 42.7028 37.1249 42.4822C37.2166 42.2523 37.3075 42.0543 37.3377 42.0184C37.3668 41.9839 37.433 41.9024 37.4848 41.8374C37.5366 41.7723 37.6128 41.6792 37.6542 41.6304C37.6957 41.5817 37.7931 41.4632 37.8708 41.367C37.9485 41.2708 38.0205 41.1829 38.0308 41.1716C38.1445 41.0474 38.1625 41.0027 38.1691 40.8293L38.1755 40.6582L38.0514 40.5479L37.9273 40.4376L37.9274 40.2859C37.9274 40.2025 37.9363 40.1025 37.9471 40.0636C37.9662 39.9946 37.9688 39.993 38.0566 39.993C38.1446 39.993 38.1497 39.9963 38.2958 40.1484C38.3779 40.2338 38.4838 40.3461 38.5311 40.3978C38.5784 40.4496 38.6395 40.5039 38.6669 40.5183C38.7141 40.5433 38.721 40.5408 38.7974 40.4723C39.0442 40.2511 39.403 39.9004 39.4347 39.8496C39.4684 39.7955 39.4712 39.7534 39.4712 39.3094V38.8279L39.3953 38.7401C39.3274 38.6617 39.2485 38.5964 39.0664 38.4679C39.0354 38.4459 38.9633 38.3937 38.9064 38.3517C38.8494 38.3097 38.735 38.2334 38.6522 38.1821C38.3006 37.9644 38.0858 37.8284 38.0646 37.8098C38.0521 37.7989 38.0368 37.79 38.0306 37.79C38.0244 37.79 37.9711 37.7576 37.9121 37.718C37.8531 37.6783 37.7922 37.6401 37.7766 37.6331C37.7611 37.6261 37.6999 37.5886 37.6407 37.5498C37.5814 37.5111 37.4159 37.4057 37.2728 37.3157C36.9668 37.1231 36.8917 37.0446 36.8917 36.917C36.8917 36.8479 36.9021 36.8222 36.9496 36.7747C36.9815 36.7429 37.0175 36.7171 37.0296 36.7174C37.3491 36.7271 37.5604 36.7591 37.8143 36.8364C38.0505 36.9083 38.3292 37.0106 38.5439 37.1043C38.5776 37.119 38.6369 37.1444 38.6757 37.1607C38.7146 37.177 38.8791 37.2573 39.0413 37.3391C39.3299 37.4848 39.3371 37.4873 39.3774 37.4546C39.4403 37.4037 39.4634 37.1418 39.4359 36.7921C39.4241 36.6419 39.4145 36.4679 39.4146 36.4053C39.4147 36.3055 39.3908 36.1577 39.3207 35.8271C39.3103 35.7779 39.2934 35.6974 39.2831 35.6482C39.2728 35.599 39.2465 35.4741 39.2246 35.3705C39.1865 35.1907 39.0358 34.7179 38.5852 33.3642C38.4064 32.8272 38.3557 32.699 38.1757 32.3286C38.0627 32.0962 37.9314 31.8247 37.884 31.7254C37.8365 31.6261 37.7421 31.4498 37.6742 31.3336C37.6063 31.2174 37.5507 31.1188 37.5507 31.1144C37.5507 31.11 37.5168 31.051 37.4754 30.9833C37.4339 30.9157 37.4001 30.8567 37.4001 30.8522C37.4001 30.8478 37.3684 30.7907 37.3296 30.7255C37.2909 30.6602 37.2507 30.5919 37.2402 30.5737C37.1023 30.3341 36.8342 29.9521 36.7415 29.863C36.7253 29.8475 36.6743 29.7882 36.628 29.7312C36.5817 29.6743 36.5393 29.6234 36.5337 29.6182C36.5281 29.6131 36.4945 29.5707 36.4591 29.5241C36.4236 29.4775 36.3687 29.4091 36.3372 29.3721C36.3056 29.3352 36.2628 29.2842 36.2421 29.2589C36.0695 29.0479 36.0268 28.997 35.9672 28.931C35.5376 28.4549 34.7936 27.671 34.6844 27.5795C34.4249 27.3619 34.2222 27.1654 34.1846 27.0948C34.1498 27.0297 34.1448 26.9989 34.1548 26.9132C34.1661 26.8176 34.1762 26.8006 34.2913 26.6833C34.3597 26.6136 34.5035 26.4807 34.6109 26.3881C34.7183 26.2954 34.8623 26.1711 34.931 26.1117C34.9997 26.0524 35.1194 25.951 35.1971 25.8865C35.2747 25.8219 35.351 25.7555 35.3665 25.7389C35.4395 25.6607 35.6173 25.5324 35.7133 25.4884C35.8124 25.4431 35.827 25.4412 35.927 25.4613C36.0538 25.4867 36.2036 25.5921 36.341 25.7524C36.3901 25.8098 36.4685 25.9013 36.5151 25.9558C36.5617 26.0102 36.638 26.1115 36.6846 26.1808C36.7312 26.2501 36.7905 26.3353 36.8164 26.37C36.9034 26.4867 37.2069 26.9345 37.2441 27.001C37.2644 27.0373 37.3725 27.2449 37.4843 27.4623C37.5962 27.6798 37.6939 27.8662 37.7015 27.8766C37.7282 27.9131 38.1909 28.8379 38.1915 28.8561C38.1919 28.8662 38.2085 28.9084 38.2285 28.9498C38.2485 28.9912 38.2652 29.0319 38.2656 29.0403C38.2661 29.0539 38.2954 29.1238 38.3697 29.2887C38.3836 29.3198 38.4009 29.3686 38.408 29.3972C38.4152 29.4258 38.4285 29.4538 38.4377 29.4595C38.447 29.4652 38.4545 29.4821 38.4545 29.4972C38.4545 29.5122 38.4706 29.5604 38.4903 29.6043C38.51 29.6482 38.5868 29.8409 38.661 30.0325C38.7352 30.2241 38.8032 30.3978 38.8121 30.4185C38.821 30.4392 38.8547 30.5282 38.8869 30.6162C38.9192 30.7042 38.9534 30.7932 38.963 30.8139C38.9726 30.8346 39.0323 30.9829 39.0958 31.1434C39.1592 31.3039 39.2273 31.4708 39.247 31.5142C39.2668 31.5577 39.283 31.5988 39.283 31.6055C39.283 31.6123 39.295 31.6445 39.3097 31.6772C39.3411 31.7471 39.395 31.9071 39.4534 32.1037C39.5037 32.273 39.5994 32.5841 39.6214 32.6497C39.6921 32.8605 39.7684 33.1622 39.9034 33.7653C39.9133 33.8094 39.9477 33.9555 39.9798 34.0901C40.1833 34.9415 40.2116 35.0697 40.2438 35.2858C40.2789 35.5211 40.3026 35.667 40.3219 35.7659C40.332 35.8177 40.3476 35.9094 40.3564 35.9698C40.3819 36.143 40.5057 36.3428 40.7141 36.5473C40.7405 36.5732 40.8381 36.6822 40.931 36.7896C41.2665 37.1774 41.3096 37.2267 41.4765 37.4134C41.8015 37.7769 41.8722 37.8618 41.9096 37.9338C41.9303 37.9736 42.0096 38.1164 42.0858 38.2512C42.216 38.4814 42.4787 39.087 42.5194 39.2506C42.5295 39.2913 42.5547 39.3881 42.5753 39.4658C42.6614 39.7896 42.7427 40.1238 42.7653 40.2472C42.7786 40.3197 42.8047 40.4595 42.8234 40.5579C42.8591 40.746 42.8824 40.9473 42.9172 41.3675C42.9287 41.5073 42.9465 41.6919 42.9566 41.7778C42.9667 41.8636 42.9832 42.0881 42.9933 42.2767C43.0033 42.4654 43.0196 42.7256 43.0294 42.855C43.0393 42.9845 43.056 43.2115 43.0667 43.3594C43.0895 43.6769 43.0914 43.6865 43.1665 43.8812C43.2131 44.0018 43.2783 44.1032 43.4934 44.3896C43.8241 44.8299 43.9136 44.9465 43.9464 44.9793C43.9605 44.9933 43.995 45.0358 44.0232 45.0738C44.0514 45.1117 44.0874 45.1555 44.1032 45.171C44.1189 45.1865 44.1548 45.2301 44.1828 45.2678C44.2108 45.3055 44.2574 45.3605 44.2863 45.3902C44.3152 45.4198 44.4023 45.5159 44.4799 45.6038C44.5575 45.6917 44.6422 45.7849 44.6681 45.8109C44.6939 45.8369 44.7699 45.9218 44.8367 45.9995C44.9369 46.1157 45.3977 46.5929 45.8637 47.063C45.9515 47.1515 46.1853 47.365 46.3813 47.5358C46.4278 47.5762 46.4766 47.6194 46.4897 47.6316C46.5028 47.6439 46.5304 47.6593 46.5511 47.6659C46.5717 47.6724 46.5886 47.6857 46.5886 47.6953C46.5886 47.705 46.5969 47.7129 46.6071 47.7129C46.6172 47.7129 46.6744 47.7446 46.7342 47.7833C46.7939 47.822 46.8575 47.8623 46.8754 47.8728C46.8933 47.8832 47.0034 47.9519 47.1201 48.0254C47.2369 48.0988 47.3824 48.1867 47.4435 48.2206C47.5047 48.2544 47.6304 48.3276 47.7229 48.3831C47.869 48.4707 48.1381 48.6088 48.255 48.656C48.2757 48.6644 48.3477 48.696 48.415 48.7264C48.6402 48.8279 48.8072 48.8991 48.8202 48.8991C48.8272 48.8991 48.8597 48.9109 48.8923 48.9253C48.925 48.9397 49.0237 48.9786 49.1117 49.0118C49.1997 49.045 49.2887 49.0797 49.3094 49.0889C49.3778 49.1193 50.2873 49.4208 50.345 49.4322C50.3761 49.4383 50.482 49.4609 50.5804 49.4822C50.6787 49.5036 50.8397 49.5378 50.9381 49.5582C51.0365 49.5785 51.1975 49.6127 51.2959 49.6341C51.6081 49.7019 51.6611 49.7129 51.7478 49.7279C51.7944 49.736 51.8812 49.752 51.9408 49.7634C52.0422 49.7828 52.0869 49.791 52.3644 49.8414C52.4239 49.8522 52.515 49.8688 52.5668 49.8783C52.701 49.9029 53.0096 49.948 53.2023 49.9713C53.5933 50.0185 53.7061 50.0332 53.866 50.0577C53.9592 50.072 54.1075 50.0932 54.1955 50.1047C54.2836 50.1162 54.4022 50.1333 54.4591 50.1425C54.6891 50.1799 55.1337 50.2008 55.5732 50.195C55.8287 50.1917 56.0423 50.1843 56.0479 50.1787C56.0804 50.1461 56.0239 50.0797 55.9023 50.0074C55.8283 49.9635 55.6576 49.8491 55.523 49.7533C55.3883 49.6576 55.2528 49.5612 55.2217 49.5393C55.0895 49.4459 54.5584 49.0389 54.5345 49.0128C54.5293 49.0071 54.4954 48.9803 54.4591 48.9533C54.4229 48.9262 54.3551 48.8663 54.3085 48.8202C54.2619 48.774 54.1392 48.6607 54.0358 48.5682C53.8 48.3575 53.7182 48.2758 53.6129 48.1457C53.5669 48.0889 53.5117 48.0255 53.4902 48.0048C53.4687 47.9841 53.4131 47.9207 53.3667 47.864C53.3203 47.8072 53.2501 47.7267 53.2106 47.6851C53.1712 47.6434 53.0857 47.5289 53.0206 47.4305C52.7104 46.9615 52.6139 46.8124 52.6139 46.8021C52.6139 46.7959 52.5683 46.6954 52.5127 46.5787C52.312 46.1582 52.2561 46.0361 52.2561 46.0177C52.2561 46.0074 52.2478 45.9842 52.2375 45.9663C52.1644 45.8381 52.0803 45.5525 52.0114 45.1992C51.9628 44.9497 51.9372 44.8054 51.9179 44.672C51.8803 44.4133 51.8591 44.28 51.8399 44.1825C51.7895 43.9262 51.7629 41.2107 51.8036 40.4732C51.8139 40.2868 51.8311 39.9648 51.8419 39.7577C51.8528 39.5505 51.8696 39.2794 51.8794 39.1551C51.8892 39.0309 51.9061 38.8106 51.917 38.6656C51.9279 38.5206 51.9448 38.3257 51.9545 38.2325C51.9642 38.1393 51.9813 37.9571 51.9925 37.8277C52.0037 37.6982 52.0207 37.5161 52.0302 37.4229C52.0397 37.3297 52.0565 37.1602 52.0675 37.0463C52.0786 36.9324 52.0955 36.7587 52.1052 36.6603C52.1149 36.5619 52.1321 36.384 52.1435 36.2649C52.1549 36.1458 52.176 35.9551 52.1904 35.8412C52.2151 35.647 52.2296 35.4589 52.2744 34.7539C52.3137 34.1347 52.333 33.8399 52.3424 33.7136C52.3518 33.5876 52.3721 32.943 52.3999 31.8882C52.4293 30.7753 52.2727 26.0603 52.1807 25.2876C52.1702 25.1996 52.1533 25.0534 52.143 24.9628C52.0923 24.515 52.0836 24.4395 52.0677 24.3085C52.0582 24.2308 52.0414 24.0825 52.0302 23.979C51.9902 23.6084 51.9642 23.4167 51.8802 22.8728C51.8702 22.808 51.8528 22.6915 51.8415 22.6139C51.8302 22.5362 51.8131 22.4303 51.8034 22.3785C51.7937 22.3267 51.7688 22.1911 51.7481 22.0772C51.7273 21.9633 51.7019 21.8235 51.6915 21.7666C51.6706 21.6521 51.6196 21.3983 51.5967 21.2958C51.5887 21.2596 51.5729 21.1848 51.5616 21.1296C51.5503 21.0745 51.5366 21.0221 51.5312 21.0134C51.5258 21.0046 51.5122 20.9523 51.5009 20.8972C51.4896 20.842 51.472 20.7587 51.4616 20.7121C51.4513 20.6655 51.4362 20.5977 51.4282 20.5615C51.3351 20.1421 51.3034 20.0119 51.2582 19.8648C51.2503 19.8389 51.2343 19.7839 51.2229 19.7424C51.2114 19.701 51.1595 19.5146 51.1076 19.3282C51.0556 19.1418 51.0039 18.9554 50.9926 18.914C50.9813 18.8725 50.9301 18.7158 50.879 18.5656C50.8279 18.4155 50.7238 18.1062 50.6477 17.8784C50.5716 17.6505 50.488 17.4175 50.4618 17.3606C50.4356 17.3036 50.3873 17.1892 50.3545 17.1064C50.3217 17.0235 50.282 16.9261 50.2662 16.8898C50.2505 16.8536 50.2305 16.807 50.2218 16.7863C50.213 16.7656 50.1858 16.702 50.1611 16.6451C50.1365 16.5881 50.0876 16.4695 50.0525 16.3815C49.9974 16.2431 49.3772 14.993 49.3379 14.941C49.33 14.9307 49.246 14.7697 49.1512 14.5833C49.0564 14.3969 48.96 14.213 48.937 14.1748C48.914 14.1365 48.7427 13.8533 48.5562 13.5455C48.3698 13.2377 48.204 12.9627 48.1876 12.9343C48.1713 12.9059 48.1439 12.8612 48.1268 12.8351C48.1097 12.8089 48.0793 12.7585 48.0594 12.723C48.0395 12.6875 48.0118 12.6383 47.9978 12.6135C47.9839 12.5888 47.9683 12.5643 47.9631 12.5592C47.958 12.554 47.9388 12.5243 47.9206 12.4933C47.9024 12.4622 47.8092 12.3071 47.7135 12.1485C47.6178 11.99 47.5309 11.846 47.5204 11.8285C47.5099 11.8109 47.4876 11.7754 47.4707 11.7495C47.4539 11.7236 47.3617 11.5754 47.2658 11.42C47.17 11.2647 47.0652 11.0997 47.0331 11.0534C46.9691 10.9613 46.8603 10.8096 46.8369 10.7798C46.8288 10.7695 46.7851 10.7059 46.7397 10.6386C46.6944 10.5713 46.6518 10.512 46.645 10.5068C46.6382 10.5016 46.5892 10.4338 46.536 10.3562C46.3836 10.1335 46.2876 9.99724 46.2044 9.88545C46.1619 9.8285 46.0934 9.73341 46.0519 9.67414C45.893 9.44657 45.8552 9.40113 45.2423 8.69957C45.1491 8.59286 45.039 8.4652 44.9976 8.41587C44.9561 8.36654 44.8683 8.26394 44.8023 8.18789C44.6598 8.02366 43.8068 7.19149 43.5043 6.92156C43.0596 6.52487 42.8619 6.3514 42.7298 6.24204C42.6547 6.17991 42.5531 6.09518 42.5039 6.05375C42.4548 6.01233 42.306 5.88947 42.1734 5.78073C42.0408 5.67199 41.8963 5.55337 41.8523 5.51713C41.8084 5.48088 41.7237 5.4131 41.6643 5.36649C41.6049 5.31989 41.5256 5.25578 41.4882 5.22403C41.4507 5.19229 41.3904 5.14593 41.3541 5.12102C41.3179 5.09609 41.2671 5.05619 41.2412 5.03234C41.2153 5.00848 41.1263 4.94474 41.0435 4.8907C40.9606 4.83667 40.8816 4.7818 40.868 4.76879C40.8543 4.75577 40.8358 4.74514 40.8269 4.74514C40.8181 4.74514 40.7996 4.73423 40.7859 4.72092C40.7722 4.70761 40.7342 4.68006 40.7015 4.65973C40.6687 4.63939 40.5035 4.53041 40.3343 4.41757C39.9979 4.19317 39.8365 4.08689 39.7883 4.05788C39.771 4.04752 39.7086 4.00939 39.6497 3.97315C39.4576 3.85513 39.428 3.83873 39.1135 3.67621C38.543 3.38143 38.5384 3.37971 38.4646 3.43368C38.4341 3.45593 38.4312 3.47736 38.4408 3.60785C38.4469 3.68966 38.4685 3.8244 38.4889 3.90725C38.5093 3.99009 38.545 4.14261 38.5682 4.24617C38.6281 4.51394 38.6834 4.71727 38.7753 5.00874C38.8194 5.14855 38.8593 5.30313 38.8639 5.35226C38.8798 5.52065 38.8424 5.49873 38.4672 5.11951C38.2789 4.92913 38.0124 4.6717 37.8751 4.54743C37.4891 4.19817 37.2911 4.02111 37.127 3.87861C37.0442 3.80664 36.9044 3.68397 36.8164 3.60598C36.3796 3.21903 36.1667 3.04893 35.6382 2.66453C35.5385 2.59204 35.4472 2.52375 35.4353 2.51277C35.4043 2.48426 35.1254 2.29737 35.1138 2.29737C35.1085 2.29737 35.0551 2.26445 34.9952 2.22425C34.9354 2.18404 34.8228 2.11087 34.7452 2.06168C34.6675 2.01248 34.5616 1.94493 34.5098 1.91154C34.458 1.87814 34.3648 1.82318 34.3027 1.7894C34.2405 1.75562 34.1431 1.70156 34.0862 1.66927C34.0292 1.63698 33.9487 1.59147 33.9073 1.56814C33.7623 1.48648 33.3311 1.2806 33.305 1.2806C33.2998 1.2806 33.2298 1.25023 33.1495 1.2131C32.9926 1.14059 32.7228 1.04949 31.789 0.753841C31.7466 0.740416 31.7055 0.728705 31.516 0.676153C31.4453 0.656514 31.1947 0.597805 30.9605 0.54595C30.8622 0.524165 30.7478 0.498727 30.7063 0.489425C30.6649 0.480105 30.5463 0.454855 30.4427 0.433296C30.3392 0.411737 30.2206 0.386129 30.1791 0.376376C30.1004 0.357829 29.8629 0.308441 29.7178 0.280424C29.6712 0.271423 29.595 0.255513 29.5484 0.245062C29.5018 0.234631 29.4213 0.218213 29.3695 0.208591C29.3177 0.198969 29.233 0.182795 29.1812 0.172665C29.1294 0.162535 29.0235 0.14429 28.9458 0.132126C28.8682 0.119944 28.7665 0.102753 28.7199 0.0939035C28.4269 0.038245 27.9404 -0.000410941 27.5384 3.29724e-06C27.3518 0.000210416 27.322 0.00472925 27.2889 0.0378871ZM24.1727 20.1092C24.7597 20.1414 25.074 20.1669 25.3589 20.2054C26.0703 20.3016 26.0783 20.3029 26.6299 20.4112C26.78 20.4407 26.9961 20.4829 27.11 20.5049C27.2956 20.5408 28.2628 20.8096 28.6257 20.9261C28.8031 20.9831 28.9579 21.0309 29.2094 21.1066C29.3967 21.1628 29.5528 21.2204 29.7309 21.2987C29.7743 21.3179 29.8151 21.3335 29.8214 21.3335C29.8277 21.3335 29.8684 21.3492 29.9119 21.3685C29.9553 21.3877 30.101 21.4478 30.2356 21.502C30.4712 21.5969 31.8499 22.268 32.0432 22.382C32.095 22.4125 32.1967 22.4698 32.2692 22.5092C32.3416 22.5487 32.6501 22.7472 32.9545 22.9504C33.5364 23.3388 33.6154 23.4077 33.6154 23.5265C33.6154 23.5836 33.5655 23.6525 33.3078 23.9507C33.2854 23.9766 33.2206 24.0529 33.1638 24.1202C33.107 24.1875 33.0265 24.281 32.9849 24.3281C32.9433 24.3751 32.85 24.4847 32.7775 24.5716C32.705 24.6585 32.6076 24.7733 32.561 24.8266C32.5144 24.88 32.4094 25.0013 32.3277 25.0962C32.2182 25.2233 32.1673 25.2687 32.1345 25.2687C32.11 25.2687 32.0131 25.2179 31.9193 25.1558C31.8255 25.0936 31.7436 25.0428 31.7374 25.0428C31.7312 25.0428 31.7127 25.0312 31.6964 25.017C31.68 25.0028 31.6243 24.968 31.5725 24.9397C31.421 24.8569 30.9962 24.6178 30.9041 24.5636C30.8243 24.5166 30.6278 24.4195 30.0756 24.1539C29.9461 24.0917 29.7767 24.0155 29.699 23.9846C29.6213 23.9538 29.5222 23.9123 29.4788 23.8926C29.4354 23.8728 29.3946 23.8566 29.3883 23.8566C29.382 23.8566 29.3385 23.8391 29.2917 23.8178C29.2448 23.7964 29.1119 23.749 28.9961 23.7123C28.8804 23.6757 28.6206 23.592 28.4186 23.5264C28.0603 23.4101 27.9026 23.3607 27.7879 23.3292C27.7568 23.3206 27.6763 23.2968 27.609 23.2763C27.1865 23.1475 27.0389 23.1067 26.9217 23.0865C26.8492 23.074 26.756 23.0566 26.7146 23.0478C26.6732 23.039 26.5969 23.0233 26.5451 23.0129C26.4934 23.0025 26.4044 22.9847 26.3474 22.9733C25.6786 22.8394 25.6465 22.8353 24.7376 22.7716C24.2 22.7338 22.9698 22.7445 22.2356 22.7931C21.7081 22.8281 21.632 22.8221 21.5792 22.7408C21.553 22.7005 21.5324 22.5818 21.4899 22.2278C21.4794 22.1398 21.4623 21.9979 21.4521 21.9125C21.4418 21.8271 21.4245 21.6809 21.4137 21.5877C21.3626 21.1469 21.3288 20.8673 21.3021 20.6654C21.2779 20.4828 21.3418 20.3942 21.5322 20.3461C22.1337 20.194 22.7239 20.1234 23.5607 20.1034C23.6695 20.1008 23.7796 20.0971 23.8055 20.0952C23.8314 20.0933 23.9966 20.0996 24.1727 20.1092Z" fill="#C7A363"/>
</svg>
