<svg width="64" height="54" viewBox="0 0 64 54" fill="none" xmlns="http://www.w3.org/2000/svg">
<path d="M20.0152 41.7968C20.0803 41.4713 20.0586 41.1023 20.2323 40.9287C21.1004 40.1256 20.8834 39.0838 20.8834 38.1071C20.8834 33.1585 20.9051 28.21 20.8834 23.2614C20.8834 22.6971 20.5578 22.1328 20.4059 21.5467C20.2323 20.8522 20.0803 20.136 19.8633 19.2461C23.0538 19.2461 25.9839 19.2461 29.2395 19.2461C28.9791 20.1794 28.762 20.9607 28.545 21.7638C28.4148 22.1979 28.1977 22.632 28.1977 23.0877C28.176 28.5138 28.176 33.9399 28.2194 39.3442C28.2194 39.8217 28.5667 40.2992 28.7837 40.7767C29.0225 41.3193 29.4349 41.9705 28.3931 41.9922C25.7668 42.0356 23.1189 41.9922 20.4927 41.9705C20.3625 41.9705 20.2757 41.8836 20.0152 41.7968ZM22.8368 38.9536C22.9019 38.9536 22.967 38.9536 23.0104 38.9536C23.0104 33.3539 23.0104 27.7542 23.0104 22.1545C22.9453 22.1545 22.8802 22.1545 22.8368 22.1545C22.8368 27.7542 22.8368 33.3539 22.8368 38.9536ZM25.9839 38.9102C26.049 38.9102 26.1141 38.9102 26.1792 38.9102C26.1792 33.3322 26.1792 27.7542 26.1792 22.1545C26.1141 22.1545 26.049 22.1545 25.9839 22.1545C25.9839 27.7542 25.9839 33.3322 25.9839 38.9102ZM24.4646 38.9102C24.5297 38.9102 24.5731 38.9102 24.6382 38.9319C24.6382 33.3539 24.6382 27.7976 24.6382 22.2196C24.5731 22.2196 24.5297 22.2196 24.4646 22.2196C24.4646 27.7759 24.4646 33.3539 24.4646 38.9102Z" fill="#C7A363"/>
<path d="M34.9918 41.7968C35.0569 41.4713 35.0352 41.1023 35.2088 40.9287C36.077 40.1256 35.8599 39.0838 35.8599 38.1071C35.8599 33.1585 35.8816 28.21 35.8599 23.2614C35.8599 22.6971 35.5344 22.1328 35.3825 21.5467C35.2088 20.8522 35.0569 20.136 34.8398 19.2461C38.0304 19.2461 40.9604 19.2461 44.2161 19.2461C43.9556 20.1794 43.7386 20.9607 43.5215 21.7638C43.3913 22.1979 43.1743 22.632 43.1743 23.0877C43.1526 28.5138 43.1526 33.9399 43.196 39.3442C43.196 39.8217 43.5433 40.2992 43.7603 40.7767C43.999 41.3193 44.4114 41.9705 43.3696 41.9922C40.7434 42.0356 38.0955 41.9922 35.4693 41.9705C35.339 41.9705 35.2522 41.8836 34.9918 41.7968ZM37.8133 38.9536C37.8784 38.9536 37.9436 38.9536 37.987 38.9536C37.987 33.3539 37.987 27.7542 37.987 22.1545C37.9218 22.1545 37.8567 22.1545 37.8133 22.1545C37.8133 27.7542 37.8133 33.3539 37.8133 38.9536ZM40.9604 38.9102C41.0256 38.9102 41.0907 38.9102 41.1558 38.9102C41.1558 33.3322 41.1558 27.7542 41.1558 22.1545C41.0907 22.1545 41.0256 22.1545 40.9604 22.1545C40.9604 27.7542 40.9604 33.3322 40.9604 38.9102ZM39.4411 38.9102C39.5063 38.9102 39.5497 38.9102 39.6148 38.9319C39.6148 33.3539 39.6148 27.7976 39.6148 22.2196C39.5497 22.2196 39.5063 22.2196 39.4411 22.2196C39.4411 27.7759 39.4411 33.3539 39.4411 38.9102Z" fill="#C7A363"/>
<path d="M49.75 19.2031C53.0708 19.2031 56.0008 19.2031 59.2348 19.2031C58.9309 20.2015 58.6922 21.0263 58.4534 21.851C58.3449 22.2634 58.1496 22.6758 58.1496 23.0882C58.1278 28.4708 58.1278 33.8535 58.1713 39.2579C58.1713 39.7788 58.4968 40.3214 58.7573 40.7989C59.2131 41.6236 59.0394 42.036 58.1278 42.036C55.7404 42.0577 53.3529 42.0577 50.9654 42.036C50.6616 42.036 50.1624 41.9058 50.1407 41.7539C50.0756 41.45 50.2275 41.081 50.336 40.7555C50.5096 40.1694 50.8786 39.5834 50.8786 38.9974C50.922 33.7884 50.9003 28.5794 50.8786 23.3703C50.8786 22.8928 50.705 22.3937 50.5748 21.9162C50.336 21.048 50.0539 20.2232 49.75 19.2031ZM54.373 38.9106C54.4381 38.9106 54.5032 38.8889 54.5683 38.8889C54.5683 33.3109 54.5683 27.7546 54.5683 22.1766C54.5032 22.1766 54.4381 22.1766 54.373 22.1766C54.373 27.7546 54.373 33.3326 54.373 38.9106ZM56.1745 22.1983C56.1094 22.1983 56.0442 22.22 55.9791 22.22C55.9791 27.798 55.9791 33.3543 55.9791 38.9323C56.0442 38.9323 56.1094 38.9323 56.1745 38.9323C56.1745 33.3326 56.1745 27.7763 56.1745 22.1983ZM53.0056 22.1766C52.9622 22.1766 52.8971 22.1766 52.8537 22.1766C52.8537 27.7546 52.8537 33.3543 52.8537 38.9323C52.8971 38.9323 52.9622 38.9323 53.0056 38.9323C53.0056 33.3543 53.0056 27.7763 53.0056 22.1766Z" fill="#C7A363"/>
<path d="M14.8493 16.0576C15.1315 17.8591 14.5672 18.5319 12.9176 18.5319C10.5736 18.5319 8.20782 18.597 5.86376 18.4885C5.32116 18.4668 4.64832 18.011 4.34446 17.5552C3.73674 16.687 4.19253 15.9491 5.25604 15.9491C8.18612 15.9274 11.1162 15.9491 14.0463 15.9491C14.3284 15.9491 14.5889 16.0142 14.8493 16.0576Z" fill="#C7A363"/>
<path d="M54.4177 15.9467C55.785 15.9467 57.1741 15.925 58.5415 15.9467C59.1275 15.9684 59.9306 15.6863 59.8871 16.7932C59.8654 17.6831 59.2794 18.4861 58.4547 18.5078C56.9354 18.5512 55.4161 18.5295 53.8968 18.5295C52.855 18.5295 51.7915 18.6381 50.7496 18.4861C50.207 18.3993 49.5559 17.9869 49.2303 17.5094C48.6443 16.6413 49.1218 15.9467 50.1636 15.9467C51.5961 15.925 53.0069 15.9467 54.4177 15.9467Z" fill="#C7A363"/>
<path d="M24.5521 15.9468C25.9195 15.9468 27.3086 15.9251 28.6759 15.9685C29.1968 15.9902 29.9131 15.7081 29.9565 16.6631C29.9999 17.5312 29.4356 18.5079 28.6759 18.5296C25.9412 18.573 23.1848 18.5948 20.45 18.5296C19.5819 18.5079 18.8222 17.1189 19.2346 16.3809C19.3648 16.1639 19.8206 16.0119 20.1245 16.0119C21.5786 15.9251 23.0545 15.9468 24.5521 15.9468Z" fill="#C7A363"/>
<path d="M39.5273 15.9464C40.873 15.9464 42.1969 15.9247 43.5426 15.9681C44.0635 15.9898 44.8666 15.6208 44.9317 16.6626C44.9968 17.5308 44.4108 18.5075 43.6511 18.5075C40.9164 18.5509 38.1599 18.5509 35.4252 18.5075C34.6004 18.4858 33.8625 17.2486 34.1881 16.4456C34.2966 16.2068 34.7741 15.9898 35.0996 15.9681C36.5538 15.9247 38.0514 15.9464 39.5273 15.9464Z" fill="#C7A363"/>
<path d="M48.666 43.359C49.404 43.1203 50.1419 42.7079 50.8798 42.6862C53.289 42.5994 55.7199 42.5994 58.1291 42.6862C58.867 42.7079 59.605 43.142 60.3212 43.3807C60.2778 43.511 60.2561 43.6629 60.2127 43.7931C56.3927 43.7931 52.5945 43.7931 48.7745 43.7931C48.7528 43.6412 48.7094 43.511 48.666 43.359Z" fill="#C7A363"/>
<path d="M45.2144 43.8148C41.4162 43.8148 37.5962 43.8148 33.798 43.8148C33.7546 43.6846 33.7112 43.5544 33.6895 43.4242C34.384 43.1637 35.0568 42.7079 35.7514 42.6862C38.2691 42.5994 40.8085 42.5994 43.3478 42.6862C44.0424 42.7079 44.7152 43.1854 45.4098 43.4459C45.3229 43.5761 45.2795 43.7063 45.2144 43.8148Z" fill="#C7A363"/>
<path d="M30.1957 43.8166C26.4409 43.8166 22.6861 43.8166 18.9312 43.8166C18.8878 43.708 18.8227 43.5995 18.7793 43.491C19.3653 43.2088 19.9296 42.7313 20.5373 42.7096C23.207 42.6228 25.8983 42.6228 28.5679 42.7096C29.1539 42.7313 29.7399 43.2088 30.326 43.4693C30.2826 43.5778 30.2391 43.6863 30.1957 43.8166Z" fill="#C7A363"/>
<path d="M15.2411 43.8383C11.4646 43.8383 7.70972 43.8383 3.93318 43.8383C3.88977 43.7297 3.84636 43.5995 3.78125 43.491C4.36727 43.2088 4.95328 42.7313 5.5393 42.7096C8.20892 42.6228 10.8785 42.6228 13.5482 42.7096C14.1776 42.7313 14.7853 43.2305 15.393 43.5127C15.3496 43.5995 15.2845 43.708 15.2411 43.8383Z" fill="#C7A363"/>
<path d="M13.2014 39.323C13.158 33.8969 13.1797 28.4925 13.2014 23.0665C13.2014 22.6324 13.4402 22.1983 13.5704 21.7425C13.7874 20.9612 13.9828 20.1581 14.2432 19.2031C11.0093 19.2031 8.1009 19.2031 4.88867 19.2031C5.12742 20.1364 5.34446 20.9395 5.5398 21.7425C5.67003 22.2417 5.90877 22.7626 5.90877 23.2835C5.93048 27.0167 5.93048 30.7715 5.93048 34.5046C6.27774 35.0689 6.5382 35.7201 6.5599 36.3278C6.5816 36.9138 6.40797 37.4781 6.47308 38.0424C6.51649 38.368 6.62501 38.6718 6.69013 38.9974C6.86376 39.8005 6.79865 40.6469 7.0591 41.4066C6.82035 41.0376 6.60331 40.6469 6.5599 40.2128C6.5382 39.9958 6.5599 39.7788 6.5599 39.54C6.5382 39.0191 6.27774 38.5416 6.25604 38.0207C6.25604 37.7603 6.29945 37.4781 6.23434 37.2177C6.16922 36.9572 5.99559 36.7185 5.95218 36.458C5.95218 36.4363 5.95218 36.3929 5.95218 36.3712C5.95218 36.9572 5.95218 37.5432 5.95218 38.1292C5.95218 39.0842 6.14752 40.0609 5.30105 40.8423C5.10571 41.0159 5.12742 41.4283 5.0189 41.8841C5.47469 41.9492 5.75684 42.0143 6.039 42.0143C8.38306 42.0143 10.7271 42.036 13.0929 42.0143C13.3967 42.0143 13.9393 41.8841 13.9393 41.7756C13.9828 41.4066 13.8308 41.0376 13.7223 40.6686C13.5704 40.2129 13.2231 39.7571 13.2014 39.323ZM8.0792 38.8672C8.01409 38.8672 7.94897 38.8672 7.88386 38.8672C7.88386 33.3109 7.88386 27.7546 7.88386 22.1766C7.94897 22.1766 8.01409 22.1766 8.0792 22.1766C8.0792 27.7546 8.0792 33.3109 8.0792 38.8672ZM9.66361 38.9106C9.5985 38.9106 9.53338 38.9106 9.46827 38.9106C9.46827 33.3326 9.46827 27.7546 9.46827 22.1766C9.53338 22.1766 9.5985 22.1766 9.66361 22.1766C9.66361 27.7546 9.66361 33.3326 9.66361 38.9106ZM11.248 38.9106C11.1829 38.9106 11.1178 38.9106 11.0527 38.9106C11.0527 33.3326 11.0527 27.7546 11.0527 22.1766C11.1178 22.1766 11.1829 22.1766 11.248 22.1766C11.248 27.7546 11.248 33.3326 11.248 38.9106Z" fill="#C7A363"/>
<path d="M61.8618 13.8418C61.7967 12.5396 61.7967 11.2373 61.8618 9.93507C61.9052 9.15372 61.6448 8.78474 60.8634 8.5677C58.7364 7.95998 56.6311 7.37397 54.504 6.76625C54.1134 6.93988 53.7227 7.15692 53.332 7.35226C53.0499 7.50419 52.7677 7.65612 52.5507 7.87316C52.2902 8.13361 52.1166 8.48088 51.9646 8.82815C51.7476 9.32735 51.4655 8.95838 51.3135 9.50098C51.2484 9.73973 50.9445 10.087 50.7709 10.2606C50.619 10.4126 50.4019 10.7164 50.2066 10.7598C50.1198 10.7815 50.0547 10.8249 49.9896 10.8901C49.9679 10.9769 50.0547 11.0637 49.8159 11.3241C49.664 11.4978 49.7508 11.4544 49.7291 11.6714C49.7291 11.7365 49.7291 11.845 49.7074 11.8885C49.664 11.9536 49.4035 12.1272 49.3384 12.1489C49.1431 12.2574 48.7307 12.4311 48.4703 12.7349C48.6656 12.4962 48.9695 12.3442 49.0997 12.0621C49.1214 12.0187 49.1431 11.9536 49.1648 11.9102C49.2082 11.845 49.2733 11.8016 49.3601 11.7582C49.664 11.5846 49.7725 11.1288 50.0113 10.8901C50.0113 10.8466 50.0547 10.8249 50.1198 10.7815C49.5772 10.8901 49.2733 11.411 48.709 11.411C48.5571 11.411 48.4052 11.4327 48.2532 11.4761C48.1013 11.5412 47.9711 11.6497 47.8408 11.7365C47.168 12.1489 46.6254 11.6063 45.844 11.7582C45.6487 11.8016 44.1945 11.411 43.9341 11.1722C43.6736 10.9118 43.131 10.673 42.7837 10.5428C43.6519 10.7815 44.6069 10.9552 45.4317 11.3024C46.1696 11.6063 46.8207 11.7365 47.6455 11.5412C48.3183 11.3893 48.9695 11.0854 49.5772 10.7381C49.6423 10.6947 49.7074 10.6513 49.7725 10.6079C49.8593 10.5211 49.9027 10.4343 49.9462 10.3257C50.1849 9.89166 50.5973 9.54439 51.0097 9.26224C51.3352 9.02349 51.7042 8.80645 51.8995 8.45918C52.0515 8.19873 52.0949 7.87316 52.2468 7.59101C52.4421 7.24374 52.8328 7.0267 53.2018 6.87477C53.4622 6.76625 53.7227 6.67943 53.9831 6.61432C51.3135 5.85467 48.6439 5.09502 45.9526 4.31366C45.8875 4.61752 45.7789 4.92138 45.6704 5.20354C45.6487 5.24695 45.627 5.29036 45.627 5.35547C45.627 5.39888 45.6487 5.42058 45.6487 5.46399C45.6704 5.55081 45.6487 5.63762 45.627 5.72444C45.4751 6.26705 45.2363 6.78795 45.2363 7.35226C45.2363 7.5693 45.3448 7.98168 45.2146 8.15532C44.9759 8.02509 44.8674 7.20033 44.7805 6.93988C45.1061 6.67943 45.2146 6.26705 45.3014 5.87637C45.3666 5.48569 45.3883 5.05161 45.5836 4.70434C45.6704 4.55241 45.7572 4.42219 45.8658 4.29196C41.4815 3.05482 37.0972 1.79597 32.6913 0.537122C32.2572 0.406897 31.758 0.406897 31.3239 0.537122C25.5506 2.18665 19.7338 3.83617 13.9388 5.5074C13.6566 6.05 13.5698 6.74454 13.2659 7.30885C12.9187 7.93828 12.2024 8.15532 11.8986 8.82815C11.6815 9.30564 11.5296 9.91336 11.2257 10.3257C10.9653 10.673 10.7917 11.3024 10.2925 11.997L10.5529 10.8684C10.5529 10.8684 9.88008 11.5412 9.81497 11.628C9.4894 12.0621 8.9468 12.4745 8.4693 12.7566C7.4275 13.3426 6.95 13.3426 5.73457 13.4295C6.08183 13.386 7.90499 13.1256 9.07702 11.845C8.90339 11.8233 11.0955 10.0002 11.1823 9.86996L11.4428 8.78474C11.0087 8.93667 9.90178 9.26224 9.44599 9.26224C9.4677 9.26224 9.9669 9.15372 9.57622 9.0886C8.9468 9.00179 8.29567 8.93667 7.68795 9.11031C7.68795 9.11031 8.27396 8.80645 8.57782 8.82815C9.4677 8.89326 10.2708 8.78474 11.1172 8.45918C11.942 8.13362 12.7016 7.48249 12.9838 6.63602C13.0923 6.33216 13.1357 6.0066 13.2659 5.72444C9.85838 6.67943 6.47251 7.63442 3.08665 8.61111C2.39211 8.80645 2.17507 9.15372 2.19677 9.84825C2.24018 11.2156 2.26188 12.6047 2.19677 13.9721C2.17507 14.7751 2.47893 14.9922 3.28198 14.9922C12.8319 14.9705 22.3817 14.9705 31.9316 14.9705C36.012 14.9705 40.1141 14.9705 44.1945 14.9705C49.6857 14.9705 55.1986 14.9488 60.6898 14.9922C61.5579 15.0139 61.9052 14.7534 61.8618 13.8418Z" fill="#C7A363"/>
<path d="M63.9668 49.1332C63.9451 48.8727 63.5327 48.4604 63.294 48.4387C62.556 48.3952 62.3607 48.0697 62.4041 47.3968C62.4258 47.0062 62.4041 46.5938 62.4041 46.2031C62.3824 44.7055 62.3824 44.7055 60.9282 44.7055C51.8775 44.6838 42.8268 44.6838 33.7762 44.6621C34.0366 44.9443 34.2537 45.2915 34.5792 45.5303C34.7963 45.7039 35.0784 45.7907 35.3172 45.9427C35.9466 46.2899 36.4241 46.8325 37.0969 47.093C36.7062 47.0496 36.2939 46.9845 35.99 46.7674C35.8381 46.6589 35.7078 46.507 35.5559 46.3767C35.2086 46.0946 34.7312 45.9861 34.4056 45.7039C34.232 45.552 34.1017 45.3566 33.8847 45.2481C33.6676 45.1396 33.4072 45.1396 33.2119 45.0094C33.1033 44.9443 32.9948 44.814 32.8646 44.7706C32.7778 44.7272 32.6693 44.7272 32.5607 44.7272C32.5173 44.7272 32.4522 44.7055 32.4088 44.7055C31.4104 44.7055 30.4337 44.7055 29.4353 44.7055C21.0358 44.7055 12.6579 44.7272 4.25837 44.7489C2.15306 44.7489 1.80579 44.7489 1.69727 46.2031C1.74067 46.2031 1.80579 46.1814 1.8492 46.1814C2.19646 46.138 2.54373 46.1597 2.891 46.2031C3.60724 46.2899 4.28007 46.5287 4.95291 46.7674C5.40869 46.9194 5.9513 47.2449 5.84278 47.7007C5.60403 47.5054 5.19165 47.3534 5.01802 47.5922C4.9312 47.7224 4.95291 47.896 4.97461 48.048C5.01802 48.2867 5.03972 48.5472 5.08313 48.7859C5.16995 49.3719 5.32188 50.0665 5.84278 50.3486C5.97301 50.4137 6.14664 50.4789 6.21175 50.6091C6.25516 50.6959 6.23346 50.8044 6.23346 50.9129C6.19005 51.2168 6.14664 51.5207 6.10323 51.8245C6.08153 52.0199 6.08153 52.2803 6.27687 52.3454C6.23346 52.4539 6.19005 52.5842 6.16834 52.6927C6.03812 52.6493 5.88619 52.671 5.75596 52.7361C5.82108 52.9965 5.79937 53.2787 5.75596 53.5392C14.4811 53.5392 23.2279 53.5392 31.953 53.5392C34.8397 53.5392 37.748 53.5392 40.6347 53.5392C40.3092 53.474 40.0053 53.3872 39.7014 53.3004C38.3775 52.9097 37.1403 52.3237 35.8164 51.9764C35.0784 51.7811 34.3405 51.6509 33.6025 51.499C31.736 51.0866 29.8477 50.4137 28.0028 50.1099C28.9144 50.1533 29.8694 50.2184 30.8678 50.4789C31.367 50.6091 31.8662 50.8044 32.3871 50.9563C33.5591 51.3036 34.7312 51.4121 35.9032 51.7594C36.5109 51.9547 37.1186 52.1935 37.7263 52.3237C38.3341 52.4539 38.9201 52.4539 39.5278 52.6059C39.8968 52.6927 40.2657 52.8446 40.6347 52.9097C40.8735 52.9531 41.1122 52.9531 41.3293 52.9531C42.3276 52.9965 43.478 53.2787 44.6066 53.5609C50.3148 53.5609 56.0447 53.5609 61.753 53.5609C62.2305 53.5609 62.6862 53.5392 63.1637 53.5609C63.7063 53.5826 63.9668 53.3872 63.9451 52.8012C63.9885 51.5207 64.0319 50.3269 63.9668 49.1332Z" fill="#C7A363"/>
<path d="M5.53888 51.0223C5.51718 50.8487 5.45207 50.6751 5.32184 50.5448C5.21332 50.4363 5.03969 50.3712 4.88776 50.2844C4.54049 50.0673 4.36685 49.6333 4.32345 49.2209C4.28004 48.8085 4.36685 48.3961 4.38856 47.9837C4.38856 47.8969 4.38856 47.8101 4.34515 47.745C4.28004 47.6365 4.1064 47.6148 3.95447 47.6365C3.43357 47.7016 2.19643 47.962 1.50189 47.7016C1.30655 47.9837 1.08951 48.3093 0.850763 48.3527C0.199635 48.4395 -0.0174074 48.6783 0.00429686 49.3294C0.0477054 50.3712 0.0477054 51.4347 0.00429686 52.4765C-0.0391117 53.2362 0.243044 53.4749 1.00269 53.4749C2.39177 53.4749 3.78084 53.4749 5.14821 53.4749C5.32184 52.6502 5.71252 51.8254 5.53888 51.0223Z" fill="#C7A363"/>
</svg>
