<svg width="64" height="64" viewBox="0 0 64 64" fill="none" xmlns="http://www.w3.org/2000/svg">
<g clip-path="url(#clip0_13385_1343)">
<path d="M7.50113 1.78516C7.62896 1.95807 7.73548 2.20508 7.90592 2.27919C8.3107 2.4274 8.75808 2.62501 9.14156 2.5262C9.92982 2.30389 10.3772 2.92143 10.9098 3.29195C11.3572 3.58837 11.7407 4.033 12.1455 4.45292C12.4011 4.69994 12.6142 4.97166 12.8485 5.24337C13.1681 5.6633 13.3811 6.05852 13.0189 6.65136C12.8272 6.97248 12.7633 7.39241 12.6781 7.76293C12.5715 8.15816 12.6994 8.42987 13.0828 8.33107C13.7859 8.15816 14.3824 8.45457 15.0428 8.70159C16.1081 9.12152 17.2372 9.36853 18.3663 9.59085C19.1546 9.73906 19.9641 9.61555 20.7524 9.81316C22.5419 10.2578 24.3528 10.1343 26.1423 10.159C26.1637 10.159 26.185 10.159 26.185 10.159C27.0584 10.7024 27.868 10.159 28.6989 9.98607C31.7028 9.44264 34.7067 8.8745 37.7106 8.30637C37.9449 8.25696 38.1792 8.25696 38.3923 8.15816C38.6479 8.05935 38.8823 7.88644 39.1166 7.73823C39.1166 7.66412 39.1379 7.61472 39.1379 7.54062C39.2871 7.68883 39.4362 7.83704 39.5853 7.98524C39.6279 8.03465 39.6919 8.05935 39.7558 8.05935C40.6505 8.00995 41.5666 8.00995 42.4614 7.91114C42.9301 7.86174 43.3988 7.68883 43.8888 7.56532C43.9527 7.81233 44.0166 7.98524 44.0379 8.10875C45.4014 7.54062 46.8075 7.56532 48.2136 7.61472C49.3001 7.63942 50.3866 7.81233 51.4731 7.93584C51.7501 7.96054 52.027 7.98524 51.9631 7.41711C52.3253 8.13345 52.8579 8.00995 53.3266 7.98524C55.7766 7.86174 58.1626 8.18286 60.4209 9.39323C61.3796 9.91197 62.2744 10.4554 63.0413 11.32C63.1904 11.4929 63.3183 11.814 63.297 12.0363C63.0839 13.3208 62.807 14.6053 62.5939 15.9144C62.2104 18.2611 61.827 20.583 61.55 22.9544C61.2944 25.1528 61.0813 27.376 60.9748 29.5991C60.8257 32.7115 60.7192 35.8239 60.7831 38.9363C60.847 41.6288 61.1239 44.3212 61.4009 46.989C61.5287 48.2735 61.8483 49.5332 62.1039 50.793C62.6578 53.4114 63.233 56.0298 63.787 58.6481C63.8722 59.068 64 59.488 64 59.9326C64 60.6242 63.4035 60.229 63.1265 60.476C62.7218 60.8219 62.1891 60.9948 61.6778 61.1183C60.5274 61.4394 59.4409 61.9828 58.2052 61.9334C56.2453 61.8593 54.3705 61.3653 52.4744 60.8219C52.1122 60.7231 51.9844 60.4266 52.0483 60.0067C52.1335 59.5621 52.2188 59.1175 52.2827 58.6728C52.3892 57.9812 52.24 57.7342 51.6648 57.8577C51.2388 57.9565 50.8127 57.5118 50.3866 57.9071C50.344 57.9565 50.1096 57.7342 49.9179 57.586C49.3853 58.3023 48.6183 58.0059 47.894 58.0306C47.1696 58.0553 46.424 58.1294 45.6996 58.1788C44.5279 58.2776 43.3562 58.3517 42.1844 58.4752C40.9914 58.5987 39.7984 58.7963 38.6053 58.9198C38.1792 58.9692 37.7532 58.9198 37.5188 58.3764C37.391 58.1047 37.1992 58.0553 37.0714 58.3023C36.6879 59.0928 36.0275 59.1669 35.3671 59.2657C34.0036 59.488 32.6401 59.7844 31.2767 60.0067C29.8493 60.229 28.4006 60.3278 26.9519 60.5254C26.0145 60.6489 25.0984 60.896 24.1611 60.9701C22.5206 61.0936 20.8589 61.143 19.1972 61.2171C18.1959 61.2665 17.1946 61.3653 16.172 61.4147C15.7033 61.4394 15.2346 61.3159 14.7659 61.2665C14.6381 61.2418 14.5102 61.2665 14.3824 61.2665C13.4876 61.2418 12.5928 61.2171 11.6981 61.1924C11.3998 61.1924 11.1016 61.2171 10.8246 61.1924C9.3333 61.143 7.842 61.0689 6.3507 60.9948C6.22288 60.9948 6.07375 60.9207 5.96723 60.9948C5.37071 61.39 4.88071 60.9948 4.41201 60.6983C3.87941 60.3525 3.3468 59.9573 2.85681 59.5127C2.47333 59.1669 2.19637 58.6975 1.8555 58.3023C1.38681 57.7589 0.854205 57.2648 0.470729 56.6473C0.193773 56.2027 -0.0831768 55.7086 0.0233445 55.017C0.278995 53.2879 0.406818 51.5341 0.619861 49.805C0.875512 47.8782 1.21638 45.9762 1.42942 44.0495C1.64246 42.0734 1.72768 40.0973 1.83421 38.1211C1.89812 36.7131 1.94072 35.2805 1.96203 33.8725C1.98333 31.8222 1.98333 29.7473 1.98333 27.6971C2.00464 24.9058 2.06855 22.1145 2.04725 19.3233C2.04725 17.4459 1.91942 15.5439 1.87681 13.6666C1.85551 12.7773 1.96203 11.8881 1.89812 10.9988C1.74899 9.14622 1.51464 7.2936 1.3229 5.46569C1.30159 5.24337 1.36551 4.94695 1.49334 4.74934C1.66377 4.50233 1.94073 4.37882 2.15377 4.18121C2.43072 3.90949 2.98463 3.93419 2.94202 3.26725C2.94202 3.21785 3.09115 3.11904 3.17637 3.09434C3.92202 2.89673 4.64636 2.67441 5.39201 2.5015C6.05244 2.35329 6.71287 2.20508 7.28809 2.77322C7.73548 2.4521 7.39461 2.13098 7.352 1.80986C7.3094 1.78516 7.41591 1.78516 7.50113 1.78516ZM9.22678 56.5485C8.01243 56.672 6.79809 56.7461 5.58375 56.8943C5.11505 56.9437 4.8381 56.8696 4.96593 56.1533C4.45462 56.3756 4.00724 56.5732 3.58115 56.7708C4.15636 57.0178 4.73158 57.1413 5.3068 57.2648C5.45593 57.2895 5.64767 57.2154 5.77549 57.2895C6.24418 57.5366 6.67027 57.6848 7.16027 57.3142C7.24548 57.2401 7.52244 57.2401 7.54374 57.2895C7.79939 57.9071 8.20417 57.6107 8.58765 57.6107C8.60895 56.8943 8.73678 56.7708 9.26939 56.7461C9.312 56.9931 9.35461 57.2154 9.39721 57.5118C10.292 56.8202 10.2068 55.8321 10.0576 54.8194C10.1429 54.8194 10.2281 54.8194 10.292 54.8194C10.3559 55.0664 10.4198 55.3134 10.4624 55.5357C10.7607 55.3134 10.7607 55.6345 10.8246 55.8321C10.9098 56.1286 10.9311 56.5485 11.3146 56.425C11.5916 56.3262 11.8472 56.1039 12.1242 55.931C11.4637 54.7947 10.3346 54.6218 9.50374 53.9795C9.54634 54.4489 9.61025 54.9676 9.67417 55.4863C9.69547 55.9557 9.63156 56.3509 9.22678 56.5485ZM2.49463 57.8577C2.62246 58.08 2.72898 58.3517 2.89942 58.5246C3.21898 58.8704 3.58115 59.1422 3.94333 59.4386C4.19898 59.6609 4.43332 59.8832 4.68897 60.0808C4.73158 60.0314 4.77419 60.0067 4.8381 59.9573C4.8381 59.7597 4.85941 59.5621 4.85941 59.3645C4.88071 59.068 4.90201 58.7716 4.96593 58.4752C4.98723 58.4011 5.15766 58.3517 5.37071 58.2282C5.41331 58.0059 5.26419 57.833 4.90202 57.7589C4.19898 57.6354 3.49594 57.4377 2.7929 57.2648C2.75029 56.4991 2.70768 55.7333 2.66507 54.8688C2.13246 55.2887 1.62116 55.6592 1.10986 56.0545C1.15246 55.6345 1.21638 55.2146 1.25899 54.8441C1.51464 54.7453 1.74898 54.6712 1.96203 54.5724C2.64376 54.2759 3.3255 53.9301 4.02854 53.7078C4.41202 53.5843 4.49724 53.4114 4.47593 52.9915C4.45463 52.6703 4.45463 52.3492 4.45463 52.0528C4.53984 52.0528 4.60376 52.0281 4.68897 52.0281C4.75289 52.3739 4.79549 52.695 4.85941 53.0409C4.88071 52.5962 4.85941 52.1763 4.88071 51.7317C4.88071 51.6082 5.00853 51.4847 5.07245 51.3612C5.13636 51.4847 5.26419 51.6329 5.24289 51.707C5.07245 52.448 5.75419 52.695 5.88201 53.2632C5.90332 53.3126 6.05244 53.3373 6.13766 53.3373C6.64896 53.3126 7.13896 53.2632 7.62896 53.2138C7.65026 52.7939 7.65026 52.4974 7.67157 52.201C7.71418 52.201 7.75678 52.201 7.82069 52.1763C7.88461 52.3245 7.94852 52.4974 7.96983 52.5962C8.07635 52.5221 8.18287 52.4233 8.3107 52.3245C8.37461 52.4727 8.43852 52.6456 8.48113 52.7939C8.50243 52.9174 8.45982 53.0656 8.50243 53.1891C8.56635 53.3126 8.67286 53.4114 8.77939 53.5349C8.8646 53.4114 8.97112 53.3126 9.01373 53.1891C9.07765 52.9668 9.05634 52.695 9.14156 52.4727C9.18417 52.3245 9.3333 52.201 9.41851 52.0775C9.50373 52.201 9.58895 52.3245 9.67417 52.448C9.8659 52.7691 9.99373 53.1644 10.2281 53.4361C10.4411 53.6831 10.9311 53.5596 10.9098 54.1277C10.9098 54.1771 11.0589 54.3007 11.1442 54.2759C11.3785 54.2512 11.5276 54.3254 11.6129 54.5971C11.6342 54.6712 11.7833 54.7206 11.9537 54.8194C11.9324 54.6218 11.9324 54.4736 11.9111 54.3748C11.7194 53.6337 11.5276 52.8927 11.3572 52.1516C10.2068 47.4336 9.97242 42.5921 9.73808 37.7506C9.61025 34.737 9.65286 31.7234 9.65286 28.6851C9.65286 27.3266 9.71678 25.968 9.80199 24.6094C9.92982 22.6333 10.0576 20.6571 10.2281 18.681C10.3559 17.026 10.4624 15.371 10.6968 13.7407C11.0376 11.3447 11.5063 8.97331 12.2946 6.70077C12.5076 6.08323 12.4011 5.7374 11.9963 5.49039C11.5489 5.86091 11.5276 6.77487 10.7607 6.75017C10.7181 6.28084 10.6968 5.83621 10.6542 5.34218C10.292 5.49039 10.1003 5.44099 10.2281 4.94695C10.292 4.69994 10.3133 4.42822 10.3772 4.18121C10.5689 3.39076 9.99373 3.46486 9.65286 3.29195C9.24808 3.09434 9.09895 3.31665 9.03504 3.76128C9.01373 3.86009 8.8433 3.98359 8.75809 3.98359C8.67287 3.95889 8.56635 3.78598 8.54504 3.66247C8.52374 3.51426 8.54504 3.34135 8.56634 3.16844C8.16156 3.06964 8.03374 3.36606 7.92722 3.66247C7.79939 4.0577 7.71418 4.50233 7.58635 4.89755C7.54374 4.99636 7.41592 5.07046 7.30939 5.16927C7.26679 5.04576 7.20287 4.92225 7.20287 4.77404C7.20287 4.62583 7.26679 4.45292 7.26679 4.45292C7.09635 4.20591 6.96853 4.0577 6.92592 3.88479C6.75549 3.19314 6.41461 2.92143 5.79679 3.02023C5.45592 3.09434 5.11506 3.16844 4.7955 3.29195C4.47593 3.41546 4.17767 3.61307 3.87941 3.81068C3.70897 3.90949 3.58115 4.0824 3.41072 4.23061C3.45333 4.67524 3.51724 5.19397 3.58115 5.7127C3.51724 5.7374 3.43202 5.7374 3.36811 5.76211C3.28289 5.46569 3.17637 5.19397 3.06985 4.84815C3.06985 5.02106 3.11246 5.14457 3.06985 5.24337C3.00594 5.41628 2.92072 5.53979 2.8355 5.7127C2.75028 5.56449 2.66507 5.41628 2.60115 5.26807C2.53724 5.11987 2.51594 4.94695 2.47333 4.77404C2.40942 4.77404 2.3242 4.77404 2.26029 4.77404C2.19638 5.11987 2.06855 5.49039 2.08985 5.83621C2.19637 7.2936 2.38811 8.75099 2.45203 10.2331C2.57985 13.1232 2.66507 16.0132 2.70767 18.9033C2.75028 22.0898 2.70768 25.2763 2.68638 28.4628C2.66507 30.6119 2.64376 32.7609 2.62246 34.9099C2.60115 35.7992 2.64377 36.6884 2.55855 37.5777C2.28159 40.6654 1.98333 43.7531 1.68507 46.8655C1.57855 48.0512 1.53595 49.2368 1.40812 50.3978C1.23769 51.9293 1.00333 53.4608 0.790292 54.9923C0.726379 55.4122 0.683774 55.8321 1.04595 56.1286C1.21638 56.2768 1.51464 56.4003 1.53594 56.5732C1.62116 57.2895 2.11116 57.4871 2.49463 57.8577ZM62.1252 57.413C62.4448 57.3389 62.4448 57.0672 62.3596 56.5979C62.1891 55.6839 61.7417 54.9182 61.6139 53.9795C61.1665 51.0647 60.4635 48.1994 60.2718 45.2352C60.1226 43.185 59.8883 41.1347 59.8244 39.0845C59.7605 37.2319 59.8244 35.3546 59.8883 33.4772C59.9735 31.1306 60.08 28.7592 60.2718 26.4126C60.4422 24.313 60.6552 22.2133 60.9535 20.1384C61.2944 17.8659 61.7631 15.5933 62.1678 13.3208C62.1891 13.1973 62.1891 13.0738 62.2104 12.9503C62.1678 12.9256 62.1039 12.8762 62.0613 12.8514C61.9548 13.0244 61.8696 13.1973 61.7631 13.3455C61.6778 13.4443 61.5713 13.5184 61.4861 13.6172C61.4435 13.469 61.3583 13.3208 61.3796 13.1973C61.4861 12.7032 61.6778 12.2586 61.7844 11.7646C61.827 11.567 61.7844 11.2458 61.6565 11.1223C61.3796 10.8259 61.0387 10.6036 60.7191 10.406C60.1865 10.0849 59.6539 9.81316 59.1213 9.51674C58.8657 10.1837 59.1639 11.0482 58.4183 11.3694C58.3331 11.6411 58.2266 11.9622 58.12 12.2586C58.0561 12.2339 57.9709 12.2339 57.907 12.2092C57.907 12.0116 57.8857 11.814 57.907 11.6164C57.9709 11.0235 58.0561 10.4307 58.12 9.81316C58.1839 9.26973 57.9283 9.02271 57.4809 8.97331C56.1813 8.8251 54.9031 8.62749 53.6035 8.50398C53.3266 8.47928 52.9431 8.57808 52.7727 8.8004C52.4744 9.19562 52.0696 9.61555 52.1548 10.2825C52.1761 10.406 52.027 10.5542 51.9631 10.7024C51.9205 10.7024 51.8566 10.6777 51.814 10.6777C51.7501 10.0849 51.6648 9.49204 51.6009 8.8498C51.5583 8.8251 51.4518 8.8004 51.3666 8.77569C49.577 8.33107 47.7449 8.25696 45.9127 8.35577C45.1244 8.40517 44.4214 8.99801 44.2297 9.88726C43.8675 9.86256 43.5053 9.83786 43.1005 9.81316C43.0579 9.54144 43.0153 9.24502 42.9727 8.9239C42.8236 8.94861 42.7171 9.02271 42.5892 8.99801C42.1418 8.9239 41.6731 8.7757 41.2258 8.72629C40.2671 8.62749 39.7771 9.22032 39.7345 10.3319C39.7345 10.5295 39.6492 10.8259 39.5427 10.8753C39.3723 10.9494 39.1592 10.8506 39.074 10.8506C39.074 10.1837 39.0953 9.64025 39.0953 9.12152C39.0953 9.04741 38.9249 8.9239 38.861 8.9239C38.3497 9.02271 37.8171 9.14622 37.3271 9.24502C37.391 10.406 37.391 10.406 37.0714 10.6777C37.0288 10.3813 36.9862 10.1343 36.9862 9.88726C36.9649 9.41793 36.8371 9.22032 36.3684 9.31913C35.3032 9.54144 34.2167 9.68965 33.1301 9.88726C31.2554 10.2084 29.3593 10.5542 27.4845 10.9C27.3354 10.9247 27.1436 11.0235 27.101 11.1717C26.9732 11.4929 26.9093 11.8634 26.8028 12.2092C26.7389 12.4809 26.6536 12.7526 26.5684 13.0244C26.5258 13.0244 26.4832 13.0244 26.4193 13.0244C26.3554 12.7773 26.2702 12.555 26.2489 12.308C26.121 11.1223 26.121 11.0976 25.0771 10.9741C24.0971 10.8506 23.1385 10.7518 22.1585 10.6777C22.0519 10.6777 21.8602 10.7024 21.8602 10.7518C21.6898 11.3447 21.5193 11.0976 21.3276 10.5789C21.3489 11.3447 21.5193 11.9869 21.0293 12.4809C20.9441 12.2833 20.9228 12.0857 20.9015 11.8881C20.8802 11.6658 20.8589 11.4435 20.8376 11.2211C20.8163 10.8506 20.6672 10.653 20.305 10.6283C18.2172 10.5048 16.2359 9.86256 14.2333 9.24502C14.212 9.49204 14.1907 9.78846 14.1268 10.0849C14.0202 10.5048 13.8711 10.9247 13.7433 11.3447C13.7007 11.4929 13.6155 11.6411 13.5515 11.7893C13.4663 11.6164 13.3172 11.4435 13.3385 11.2953C13.4663 10.4307 13.0828 9.76376 12.6994 9.09682C12.6355 8.99801 12.5076 8.8745 12.4437 8.8992C12.3372 8.94861 12.252 9.07211 12.2094 9.19562C11.8898 10.4801 11.5063 11.7399 11.272 13.0491C10.995 14.7041 10.782 16.3591 10.6542 18.0388C10.4624 20.2372 10.3346 22.4357 10.2494 24.6341C10.1003 27.9688 9.8446 31.3035 10.0576 34.6382C10.1642 36.4908 10.1855 38.3681 10.2707 40.2455C10.3772 42.0487 10.4624 43.8766 10.6755 45.6551C10.9098 47.483 11.2294 49.2862 11.6129 51.0894C11.9324 52.5468 12.4011 53.9795 12.8059 55.4122C12.8911 55.758 12.9763 56.1039 12.6355 56.3015C11.5702 56.9437 10.5689 57.7589 9.3546 57.9812C8.8433 58.08 8.3107 58.1788 7.77809 58.1541C7.20288 58.1541 6.64896 58.0306 6.07375 57.9812C5.96723 57.9812 5.75419 58.1047 5.75419 58.1788C5.73288 58.6728 5.73288 59.1669 5.79679 59.6362C5.81809 59.8091 6.05245 60.0561 6.20158 60.1055C7.35201 60.3031 8.52374 60.4513 9.69547 60.5995C10.0576 60.6489 10.4411 60.5995 10.782 60.5748C10.8246 60.1796 10.8246 59.7844 10.9311 59.4386C11.0589 59.0928 11.3146 58.821 11.5063 58.5246C11.5489 58.5246 11.5916 58.5246 11.6342 58.5246C11.6342 58.9939 11.6342 59.4633 11.6768 59.9079C11.6981 60.0808 11.762 60.4019 11.8259 60.4266C12.5715 60.5254 13.3385 60.5748 14.1054 60.6489C14.1481 60.6489 14.1694 60.5748 14.212 60.5501C14.3611 60.5007 14.5102 60.476 14.7446 60.4266C14.7872 59.735 14.8511 58.9198 14.8937 58.1294C14.9363 58.08 14.9789 58.0306 15.0428 57.9565C15.1068 58.1047 15.1707 58.2282 15.192 58.3764C15.3198 58.9445 15.4689 59.5127 15.5115 60.1055C15.5541 60.5007 15.682 60.6489 15.9802 60.6489C16.6833 60.6489 17.4076 60.6242 18.1106 60.5995C18.0893 60.5501 18.0467 60.5007 18.0254 60.4513C18.1746 60.2784 18.3024 60.1302 18.4941 59.9326C18.6006 60.2043 18.6646 60.3525 18.7285 60.5007C18.835 60.1796 18.835 59.8585 18.8563 59.5374C18.8563 59.4386 18.9628 59.3398 19.0267 59.241C19.0906 59.3398 19.2185 59.4139 19.2185 59.5127C19.2611 59.8091 19.2611 60.1302 19.3037 60.5748C19.4102 59.7597 19.1119 59.068 19.5806 58.4505C19.6872 58.9445 19.7298 59.4139 19.7298 59.9079C19.7298 60.3278 19.9002 60.5007 20.2411 60.4513C20.6885 60.4019 21.1572 60.3278 21.6045 60.3278C22.2863 60.3278 22.968 60.4019 23.6498 60.3525C24.3741 60.3278 25.0984 60.3031 25.695 59.5868C25.9932 59.2163 26.185 58.9692 26.0784 58.4505C26.0358 58.2529 26.1423 58.0306 26.1637 57.8083C26.2276 57.8083 26.2702 57.8083 26.3341 57.833C26.5045 58.2776 26.675 58.7469 26.888 59.1916C26.9519 59.3398 27.0797 59.488 27.1863 59.5127C27.4632 59.5621 27.7615 59.6115 28.0384 59.5374C29.0184 59.3151 29.9771 59.068 30.9571 58.821C31.6388 58.6481 31.6388 58.6728 31.7667 57.7589C31.9797 58.08 32.1288 58.2776 32.2993 58.5493C32.3419 58.2529 32.3845 58.0306 32.4484 57.6601C32.5975 57.8824 32.6614 57.9812 32.7467 58.1047C32.7467 57.8083 32.7254 57.5366 32.7467 57.2401C32.7467 57.1413 32.8532 57.0425 32.9171 56.9437C33.0023 57.0178 33.1301 57.0919 33.1301 57.1907C33.1728 57.4377 33.1941 57.7095 33.1515 57.9812C33.1088 58.3517 33.1941 58.4505 33.5136 58.4258C34.3019 58.3517 35.1114 58.3517 35.8997 58.2776C36.0701 58.2529 36.3045 58.1788 36.3897 58.0306C36.7519 57.413 37.1353 56.8449 37.7319 56.5732C37.9875 56.8696 38.3497 57.1166 38.4349 57.4624C38.5627 57.9318 38.7758 57.9812 39.1166 57.9565C39.4149 57.9318 39.7345 57.9318 40.054 57.8824C41.3323 57.7589 42.6105 57.586 43.8888 57.4871C44.6131 57.4377 45.3588 57.4377 46.0831 57.4377C46.4027 57.4377 46.5518 57.3142 46.5518 56.919C46.5518 56.6967 46.637 56.4991 46.6796 56.2768C46.7436 56.2768 46.8075 56.2768 46.8501 56.2768C46.8927 56.5732 46.9566 56.8696 46.9992 57.1907C47.0418 56.8696 47.0631 56.5485 47.0844 56.2521C47.1483 56.2521 47.2122 56.2521 47.2762 56.2521C47.3188 56.4497 47.3614 56.672 47.4253 56.8696C47.4679 57.0178 47.5318 57.2154 47.6383 57.2895C48.0644 57.586 49.087 57.2895 49.4279 56.8202C49.577 56.5979 49.8114 56.4744 50.0244 56.3015C50.3014 56.0051 49.9179 55.3875 50.4931 55.017C50.7061 55.6098 50.9831 56.1039 51.0896 56.6473C51.1535 56.9931 51.2388 57.0672 51.5157 57.0919C53.1561 57.1907 54.7753 57.2401 56.4157 57.4377C57.7153 57.6107 58.9935 57.9318 60.2931 58.2529C60.6978 58.3517 60.8683 58.1788 60.7618 57.7836C60.6126 57.1166 61.0387 56.6967 61.1878 56.0051C61.4861 56.4991 61.7844 56.919 62.1252 57.413ZM3.19768 56.425C3.43202 56.2027 3.62376 55.931 3.8155 55.9062C4.90201 55.7333 5.98853 55.6098 7.09635 55.4616C7.352 55.4369 7.62896 55.3628 7.86331 55.3381C7.88461 55.0417 7.88461 54.8194 7.92722 54.6218C8.07635 54.1524 7.90591 54.0042 7.50113 54.0289C6.79809 54.0536 6.07375 54.0289 5.37071 54.0536C5.28549 54.0536 5.20027 54.1277 5.09375 54.1524C4.79549 54.2759 4.51854 54.4489 4.22028 54.523C3.24028 54.7453 3.00594 54.6712 3.19768 55.9557C3.24028 56.0298 3.21898 56.178 3.19768 56.425ZM52.8792 59.3645C53.3053 59.1916 53.8805 59.4139 53.9231 58.5987C53.9231 58.5493 54.2853 58.4752 54.4557 58.4999C54.8818 58.5987 55.2866 58.821 55.6913 58.8457C57.0335 58.9692 58.3544 59.0186 59.6965 59.1175C59.7178 59.068 59.7391 58.9939 59.7605 58.9445C59.5687 58.821 59.3983 58.6481 59.2065 58.6234C58.4609 58.4505 57.7153 58.2776 56.9483 58.1788C55.7127 58.0306 54.4983 57.9565 53.2627 57.8824C53.1348 57.8824 52.9005 58.0306 52.8792 58.1294C52.8366 58.4999 52.8792 58.8951 52.8792 59.3645ZM61.6139 57.5613C61.5713 57.5613 61.55 57.5613 61.5074 57.5613C61.5074 57.8083 61.5287 58.0553 61.5287 58.3023C61.5287 59.0433 61.4861 59.1175 60.8683 58.9939C60.4422 58.8951 60.2931 59.0928 60.2931 59.5621C60.2931 59.7597 60.2931 59.982 60.2931 60.1796C60.2931 60.5995 60.4422 60.7478 60.8257 60.5995C61.4648 60.3278 62.1039 60.1055 62.743 59.8338C62.6365 59.5621 62.5513 59.3151 62.4661 59.1422C62.3383 59.241 62.1039 59.4633 62.04 59.4139C61.8696 59.2657 61.6778 59.0433 61.6352 58.821C61.5713 58.4011 61.6139 57.9812 61.6139 57.5613ZM55.0309 60.7478C55.0309 60.7725 55.0309 60.7972 55.0309 60.8219C55.3718 60.896 55.7126 60.9948 56.0748 61.0442C56.4796 61.0936 56.8844 61.1183 57.2892 61.143C57.7152 61.1677 58.1413 61.2418 58.5461 61.1924C58.887 61.143 59.2065 60.9454 59.5474 60.8219C59.5474 60.7725 59.5261 60.6984 59.5261 60.6489C58.0348 60.6736 56.5222 60.6983 55.0309 60.7478ZM9.12025 55.5851C9.12025 55.6592 9.09895 55.7333 9.09895 55.8074C7.90591 55.8815 6.71287 55.9804 5.49853 56.0545C5.49853 56.1286 5.49853 56.178 5.49853 56.2521C5.56245 56.2768 5.62636 56.3262 5.69027 56.3509C6.3294 56.5238 6.94722 55.8568 7.60765 56.3015C7.62896 56.3262 7.69287 56.2521 7.73548 56.2521C8.05504 56.178 8.3533 56.1039 8.67286 56.0792C9.01373 56.0298 9.22678 55.8815 9.18417 55.4369C9.16287 55.2146 9.16286 54.9923 9.12025 54.77C8.99243 53.9795 8.94982 53.9548 8.3107 54.3006C8.58765 54.7453 8.43852 55.4616 9.12025 55.5851ZM59.1 59.982C59.1 59.9079 59.1 59.8585 59.1 59.7844C57.7792 59.5127 56.437 59.3398 54.9457 59.5868C55.244 59.7103 55.4357 59.7844 55.6274 59.8585C55.5422 59.9573 55.4996 60.0067 55.4357 60.0808C56.65 60.0561 57.8857 60.0067 59.1 59.982ZM52.9644 59.8832C52.9644 59.9573 52.9644 60.0314 52.9431 60.1055C53.4331 60.2784 53.9444 60.476 54.4344 60.6489C54.6261 59.8091 54.477 59.5868 53.8379 59.6609C53.5396 59.6856 53.2627 59.8091 52.9644 59.8832Z" fill="#070C10"/>
<path d="M62.1256 57.4135C61.7848 56.9195 61.5078 56.4996 61.1456 55.9808C60.9965 56.6725 60.5704 57.0677 60.7195 57.7594C60.8047 58.1546 60.6556 58.3275 60.2508 58.2287C58.9726 57.9323 57.673 57.5864 56.3735 57.4135C54.7543 57.2159 53.1139 57.1665 51.4735 57.0677C51.1965 57.043 51.1113 56.9689 51.0474 56.6231C50.9409 56.0797 50.6639 55.5856 50.4509 54.9928C49.897 55.3633 50.2591 55.9808 49.9822 56.2773C49.7905 56.4502 49.5561 56.5737 49.3857 56.796C49.0448 57.2653 48.0435 57.5864 47.5961 57.2653C47.4896 57.1912 47.4257 56.9936 47.3831 56.8454C47.3192 56.6478 47.2766 56.4255 47.2339 56.2279C47.17 56.2279 47.1061 56.2279 47.0422 56.2279C47.0209 56.5243 46.9783 56.8207 46.957 57.1665C46.9144 56.8454 46.8505 56.549 46.8079 56.2526C46.7439 56.2526 46.68 56.2526 46.6374 56.2526C46.5948 56.4749 46.5096 56.6725 46.5096 56.8948C46.5096 57.29 46.3605 57.4135 46.0409 57.4135C45.3166 57.4135 44.5709 57.4135 43.8466 57.4629C42.5683 57.5617 41.2901 57.7347 40.0118 57.8582C39.7136 57.8829 39.394 57.8829 39.0744 57.9323C38.7335 57.957 38.5205 57.9076 38.3927 57.4382C38.2862 57.0924 38.6483 43.5705 38.3927 43.2741C37.7962 43.5458 36.7096 57.3888 36.3475 58.0064C36.2623 58.1546 36.0279 58.2534 35.8575 58.2534C35.0692 58.3275 34.2597 58.3275 33.4714 58.4016C33.1518 58.4263 33.0666 58.3275 33.1092 57.957C33.1518 57.7099 33.1305 57.4382 33.0879 57.1665C33.0666 57.0677 32.9388 56.9936 32.8749 56.9195C32.811 57.0183 32.7258 57.1171 32.7044 57.2159C32.6831 57.4876 32.7044 57.7841 32.7044 58.0805C32.6192 57.957 32.5553 57.8582 32.4062 57.6358C32.3423 58.0064 32.2997 58.2287 32.2571 58.5251C32.0866 58.2781 31.9375 58.0558 31.7245 57.7347C31.5966 58.6486 31.5966 58.6239 30.9149 58.7968C29.9349 59.0191 28.9762 59.2909 27.9962 59.5132C27.7193 59.5626 27.421 59.5379 27.144 59.4885C27.0375 59.4638 26.9097 59.2909 26.8458 59.1673C26.654 58.7227 26.4836 58.2781 26.2919 57.8088C26.228 57.8088 26.1853 57.8088 26.1214 57.7841C26.0788 58.0064 25.9723 58.2287 26.0362 58.4263C26.164 58.945 25.9723 59.192 25.6527 59.5626C25.0562 60.2789 24.3532 60.3036 23.6075 60.3283C22.9258 60.353 22.2441 60.2789 21.5623 60.3036C21.1149 60.3036 20.6462 60.3777 20.1988 60.4271C19.858 60.4765 20.3534 57.1186 20.3534 56.6987C20.3534 56.2047 20.3693 52.2582 20.2628 51.7889C19.7728 52.4064 19.368 59.7355 19.2615 60.5506C19.2402 60.0813 19.2189 59.7849 19.1762 59.4885C19.1549 59.3897 19.0484 59.3156 18.9845 59.2167C18.9206 59.3156 18.8354 59.4144 18.8141 59.5132C18.7928 59.8343 18.7928 60.1307 18.6862 60.4765C18.6223 60.3283 18.5797 60.2048 18.4519 59.9084C18.2815 60.106 18.1323 60.2789 17.9832 60.4271C18.0045 60.4765 18.0471 60.5259 18.0684 60.5753C17.3654 60.6 16.641 60.6247 15.938 60.6247C15.6397 60.6247 15.4906 60.4765 15.4693 60.0813C15.4267 59.4885 15.2563 58.9203 15.1497 58.3522C15.1284 58.204 15.0432 58.0805 15.0006 57.9323C14.958 57.9817 14.9154 58.0311 14.8515 58.1052C14.8089 58.8956 14.745 59.6861 14.7024 60.4024C14.468 60.4518 14.3189 60.4765 14.1697 60.5259C14.1271 60.5259 14.0845 60.6247 14.0632 60.6247C13.2963 60.5753 12.5506 60.5012 11.7837 60.4024C11.7198 60.4024 11.6345 60.0813 11.6345 59.8837C11.6132 59.4144 11.6132 58.945 11.5919 58.5004C11.5493 58.5004 11.5067 58.5004 11.4641 58.5004C11.2724 58.7968 10.9954 59.0685 10.8889 59.4144C10.7611 59.7602 10.7824 60.1554 10.7398 60.5506C10.3989 60.5506 10.0367 60.6247 9.65325 60.5753C8.48151 60.4271 7.33108 60.2789 6.15935 60.0813C6.01022 60.0566 5.77587 59.8096 5.75457 59.612C5.69066 59.1426 5.69066 58.6486 5.71196 58.1546C5.71196 58.0805 5.925 57.957 6.03152 57.957C6.60674 58.0064 7.16065 58.1299 7.73586 58.1299C8.26847 58.1299 8.80107 58.0558 9.31238 57.957C10.5267 57.7346 11.528 56.9195 12.5932 56.2773C12.9341 56.0796 12.8489 55.7091 12.7637 55.388C12.3589 53.9553 11.8902 52.5226 11.5706 51.0652C11.1872 49.2867 10.8676 47.4588 10.6332 45.6309C10.4202 43.8524 10.3137 42.0245 10.2285 40.2213C10.1219 38.3686 10.1219 36.4913 10.0154 34.614C9.82368 31.2793 10.0793 27.9446 10.2072 24.6099C10.2924 22.4114 10.4415 20.213 10.6119 18.0146C10.7611 16.3349 10.9528 14.6799 11.2298 13.0249C11.4428 11.7157 11.8263 10.4559 12.1672 9.17142C12.1885 9.04791 12.295 8.8997 12.4015 8.875C12.4654 8.8503 12.6145 8.97381 12.6571 9.07261C13.0406 9.73955 13.4241 10.4065 13.2963 11.271C13.275 11.4193 13.4454 11.5922 13.5093 11.7651C13.5732 11.6169 13.6584 11.4687 13.7011 11.3205C13.8289 10.9005 13.978 10.5053 14.0845 10.0607C14.1484 9.78896 14.1698 9.46784 14.1911 9.22082C16.1937 9.81366 18.1749 10.4806 20.2628 10.6041C20.6036 10.6288 20.7528 10.8264 20.7954 11.1969C20.8167 11.4193 20.838 11.6416 20.8593 11.8639C20.8806 12.0615 20.9019 12.2591 20.9871 12.4567C21.4771 11.9627 21.3067 11.3205 21.2854 10.5547C21.4984 11.0487 21.6475 11.2958 21.818 10.7276C21.8393 10.6782 22.031 10.6535 22.1162 10.6535C23.0962 10.7523 24.0549 10.8264 25.0349 10.9499C26.0788 11.0981 26.0788 11.0981 26.2067 12.2838C26.228 12.5308 25.9818 26.9032 26.3352 27.0139C26.3778 27.0139 27.2932 19.8419 26.7606 16.8498C27.0588 16.024 26.9736 12.5555 27.0588 12.2838C27.144 11.938 26.9097 11.4687 27.0588 11.1475C27.1014 11.024 27.3145 10.9005 27.4423 10.8758C29.3171 10.53 31.2131 10.1842 33.0879 9.86306C34.1744 9.66545 35.261 9.51724 36.3262 9.29493C36.7949 9.19612 36.9227 9.39373 36.944 9.86306C36.9653 10.1101 37.0079 10.3571 37.0292 10.6535C37.3701 10.3818 37.3701 10.3818 37.2849 9.22082C37.7962 9.12201 38.3075 8.99851 38.8188 8.8997C38.8827 8.875 39.0531 9.02321 39.0531 9.09731C39.0744 9.61605 39.0531 10.1595 39.0318 10.8264C39.117 10.8264 39.3301 10.9252 39.5005 10.8511C39.607 10.8017 39.6922 10.5053 39.6922 10.3077C39.7135 9.19612 40.2248 8.60328 41.1835 8.70209C41.6522 8.75149 42.0996 8.875 42.547 8.97381C42.6535 8.99851 42.7813 8.9244 42.9305 8.8997C42.9731 9.22082 43.0157 9.51724 43.0583 9.78896C43.4631 9.81366 43.8466 9.83836 44.1874 9.86306C44.3792 8.97381 45.0822 8.38097 45.8705 8.33156C47.7026 8.23276 49.5135 8.30686 51.3244 8.75149C51.4096 8.77619 51.5161 8.80089 51.5587 8.8256C51.6439 9.46784 51.8981 9.66962 51.962 10.2625C52.0047 10.2625 51.4847 15.5397 51.8501 14.3589C51.9141 14.2107 52.3324 11.1776 52.3111 11.0541C52.2259 10.3871 52.4322 9.19612 52.7304 8.77619C52.8796 8.55388 53.2844 8.45507 53.5613 8.47977C54.8609 8.60328 56.1391 8.80089 57.4387 8.9491C57.8861 8.99851 58.1417 9.22082 58.0778 9.78896C58.0139 10.3818 57.9287 10.9746 57.8648 11.5922C57.8435 11.7898 57.8648 11.9874 57.8648 12.185C57.9287 12.2097 58.0139 12.2097 58.0778 12.2344C58.1843 11.9133 58.2908 11.6169 58.3761 11.3452C59.1217 11.024 58.8235 10.1842 59.0791 9.49254C59.6117 9.78896 60.1656 10.0607 60.6769 10.3818C61.0178 10.5794 61.3374 10.8264 61.6143 11.0981C61.7421 11.2216 61.7848 11.5428 61.7421 11.7404C61.6356 12.2344 61.4652 12.679 61.3374 13.1731C61.3161 13.2966 61.4013 13.4695 61.4439 13.593C61.5291 13.5189 61.6356 13.4448 61.7208 13.3213C61.8274 13.1731 61.9339 13.0002 62.0191 12.8272C62.0617 12.8519 62.1256 12.9014 62.1682 12.9261C62.1469 13.0496 62.1469 13.1731 62.1256 13.2966C61.7208 15.5691 61.2521 17.817 60.9113 20.1142C60.613 22.1891 60.4 24.2888 60.2295 26.3884C60.0378 28.735 59.9313 31.0817 59.8461 33.453C59.7821 35.3304 59.7182 37.183 59.7822 39.0603C59.8461 41.1105 60.1017 43.1607 60.2295 45.211C60.4426 48.1752 61.1456 51.0405 61.5717 53.9553C61.7208 54.894 62.1469 55.6844 62.3174 56.5737C62.4452 57.0677 62.4239 57.3147 62.1256 57.4135Z" fill="#C7A363"/>
<path d="M1.00358 56.1786C0.641411 55.8822 0.684024 55.4623 0.747936 55.0423C0.960979 53.5108 1.19532 52.0041 1.36576 50.4479C1.49358 49.2622 1.53619 48.0765 1.64271 46.9155C1.91967 43.8278 2.23923 40.7402 2.51619 37.6278C2.6014 36.7385 2.5588 35.8492 2.5801 34.96C2.60141 32.811 2.64401 30.6619 2.64401 28.5129C2.66532 25.3264 2.70793 22.1399 2.66532 18.9534C2.62271 16.0633 2.53749 13.1732 2.40967 10.2831C2.34575 8.82575 2.13271 7.36836 2.0475 5.88627C2.02619 5.54045 2.15402 5.16992 2.21793 4.8241C2.28184 4.8241 2.36706 4.8241 2.43097 4.8241C2.47358 4.99701 2.49488 5.14522 2.5588 5.31813C2.62271 5.46634 2.70793 5.61455 2.79315 5.76276C2.87836 5.61455 2.96357 5.46634 3.02749 5.29343C3.0701 5.19463 3.02749 5.07112 3.02749 4.89821C3.13401 5.24403 3.24054 5.54045 3.32575 5.81216C3.38966 5.78746 3.47488 5.78746 3.53879 5.76276C3.47488 5.24403 3.41097 4.7253 3.36836 4.28067C3.53879 4.13246 3.66662 3.95955 3.83705 3.86074C4.13531 3.66313 4.43357 3.49022 4.75313 3.34201C5.0727 3.2185 5.41357 3.1444 5.75444 3.07029C6.37226 2.94678 6.73443 3.2432 6.88356 3.93485C6.92617 4.10776 7.05399 4.23126 7.22443 4.50298C7.22443 4.50298 7.16052 4.67589 7.16052 4.8241C7.16052 4.94761 7.22443 5.07112 7.26704 5.21933C7.35225 5.14522 7.50138 5.07112 7.54399 4.94761C7.67182 4.55239 7.75703 4.10776 7.88486 3.71253C7.99138 3.41611 8.11921 3.1197 8.52399 3.2185C8.52399 3.39141 8.48138 3.56432 8.50268 3.71253C8.52399 3.83604 8.63051 4.00895 8.71572 4.03365C8.80094 4.05835 8.97137 3.91014 8.99268 3.81134C9.05659 3.36671 9.20572 3.1444 9.61051 3.34201C9.95137 3.51492 10.5479 3.44082 10.3348 4.23126C10.2709 4.47828 10.2496 4.75 10.1857 4.99701C10.0579 5.46634 10.2496 5.54045 10.6118 5.39224C10.6544 5.86157 10.6757 6.3309 10.7183 6.80023C11.4853 6.82493 11.5066 5.91097 11.954 5.54045C12.3588 5.76276 12.4653 6.13328 12.2522 6.75082C11.464 9.02337 10.9953 11.3947 10.6544 13.7908C10.4201 15.4211 10.3135 17.0761 10.1857 18.7311C10.0366 20.7072 9.88746 22.6833 9.75963 24.6594C9.67441 26.018 9.61051 27.3766 9.61051 28.7352C9.61051 31.7488 9.5679 34.7871 9.69572 37.8007C9.90876 42.6422 10.1644 47.4837 11.3148 52.2017C11.4853 52.9427 11.6983 53.6838 11.8688 54.4248C11.8901 54.5483 11.8901 54.6718 11.9114 54.8694C11.7409 54.7706 11.6131 54.7212 11.5705 54.6471C11.4853 54.3754 11.3362 54.3013 11.1018 54.326C11.0166 54.326 10.8675 54.2272 10.8675 54.1778C10.8675 53.6097 10.3775 53.7332 10.1857 53.4862C9.95137 53.2144 9.82354 52.8192 9.6318 52.4981C9.56789 52.3746 9.46137 52.2511 9.37616 52.1276C9.26964 52.2511 9.14181 52.3746 9.0992 52.5228C9.03529 52.7451 9.03529 53.0168 8.97138 53.2391C8.92877 53.3626 8.82225 53.4861 8.73703 53.585C8.65181 53.4614 8.52398 53.3873 8.46007 53.2391C8.41746 53.1403 8.46008 52.9674 8.43877 52.8439C8.39616 52.671 8.33225 52.5228 8.26833 52.3746C8.16181 52.4734 8.03399 52.5722 7.92746 52.6463C7.88486 52.5475 7.82095 52.3993 7.77834 52.2264C7.73573 52.2264 7.69312 52.2264 7.62921 52.2511C7.6079 52.5475 7.60791 52.8439 7.5866 53.2638C7.0966 53.3132 6.60661 53.3379 6.0953 53.3873C6.01009 53.3873 5.83965 53.3626 5.83965 53.3132C5.71183 52.7451 5.03009 52.4981 5.20052 51.757C5.22183 51.6582 5.094 51.51 5.03009 51.4112C4.96618 51.5347 4.83835 51.6582 4.83835 51.7817C4.81704 52.2264 4.83835 52.6463 4.81705 53.0909C4.75314 52.7451 4.71052 52.424 4.64661 52.0782C4.56139 52.0782 4.49748 52.1029 4.41226 52.1029C4.41226 52.424 4.41226 52.7451 4.43357 53.0415C4.47618 53.4367 4.36966 53.6344 3.98618 53.7579C3.28314 53.9802 2.62271 54.326 1.91967 54.6224C1.70663 54.7212 1.47228 54.7953 1.21663 54.8941C1.17402 55.2647 1.13141 55.6846 1.0675 56.1045C1.0675 56.1045 1.02489 56.1292 1.00358 56.1786Z" fill="#C7A363"/>
<path d="M3.19771 56.424C3.19771 56.177 3.21902 56.0287 3.19771 55.9052C3.02728 54.6208 3.24032 54.6949 4.22031 54.4725C4.51857 54.3984 4.79553 54.2255 5.09379 54.102C5.17901 54.0526 5.26422 54.0032 5.37074 54.0032C6.07378 54.0032 6.79813 54.0032 7.50117 53.9785C7.88464 53.9785 8.05508 54.102 7.92725 54.5714C7.86334 54.769 7.88464 54.9913 7.86334 55.2877C7.62899 55.3371 7.37334 55.3865 7.09639 55.4112C6.00987 55.5594 4.90205 55.6829 3.81553 55.8558C3.6238 55.9299 3.45336 56.2017 3.19771 56.424Z" fill="#C7A363"/>
<path d="M52.8783 59.3653C52.8783 58.896 52.8357 58.5008 52.8783 58.1303C52.8996 58.0315 53.134 57.8585 53.2618 57.8832C54.4974 57.9574 55.7331 58.0315 56.9474 58.1797C57.7144 58.2785 58.46 58.4514 59.2057 58.6243C59.3974 58.6737 59.5678 58.8466 59.7596 58.9454C59.7383 58.9948 59.717 59.0689 59.6957 59.1183C58.3535 59.0442 57.0113 58.9701 55.6905 58.8466C55.2644 58.7972 54.8596 58.5749 54.4548 58.5008C54.2844 58.4514 53.9222 58.5502 53.9222 58.5996C53.8796 59.4147 53.3044 59.1924 52.8783 59.3653Z" fill="#C7A363"/>
<path d="M2.77091 57.2891C3.47395 57.462 4.17699 57.6349 4.88003 57.7831C5.24221 57.8572 5.41264 58.0301 5.34873 58.2524C5.13569 58.3759 4.96525 58.4006 4.94394 58.4994C4.88003 58.7959 4.88003 59.0923 4.83742 59.3887C4.81612 59.5863 4.81612 59.7839 4.81612 59.9815C4.77352 60.0309 4.7309 60.0556 4.66699 60.105C4.41134 59.8827 4.17699 59.6604 3.92134 59.4628C3.58047 59.1664 3.2183 58.87 2.87744 58.5488C2.707 58.3759 2.60048 58.1042 2.47266 57.8819C2.81352 57.8078 2.83483 57.5855 2.77091 57.2891Z" fill="#C7A363"/>
<path d="M9.22656 56.5482C9.63134 56.3506 9.69526 55.9553 9.65265 55.5107C9.58873 54.992 9.54613 54.4732 9.48222 54.0039C10.3131 54.6461 11.4422 54.8191 12.1026 55.9553C11.8257 56.1282 11.57 56.3506 11.2931 56.4494C10.9096 56.5729 10.8883 56.1529 10.8031 55.8565C10.7392 55.6342 10.7392 55.3378 10.4409 55.5601C10.3983 55.3378 10.3344 55.0908 10.2705 54.8438C10.1853 54.8438 10.1 54.8438 10.0361 54.8438C10.1853 55.8565 10.2705 56.8446 9.37569 57.5362C9.33309 57.2398 9.29048 56.9928 9.24787 56.7705C9.22656 56.6964 9.22656 56.6223 9.22656 56.5482Z" fill="#C7A363"/>
<path d="M9.22729 56.5483C9.22729 56.6224 9.22729 56.6965 9.22729 56.7706C8.69469 56.7953 8.58817 56.9188 8.54556 57.6351C8.18339 57.6351 7.7573 57.9315 7.50165 57.314C7.48034 57.2646 7.2247 57.2646 7.11817 57.3387C6.64948 57.7092 6.20209 57.561 5.7334 57.314C5.60557 57.2399 5.41383 57.314 5.2647 57.2893C4.68949 57.1658 4.11428 57.0423 3.53906 56.7953C3.98645 56.5977 4.41254 56.4 4.92384 56.1777C4.79601 56.8941 5.07297 56.9682 5.54166 56.9188C6.79861 56.7459 8.01295 56.6471 9.22729 56.5483Z" fill="#C7A363"/>
<path d="M61.614 57.5618C61.614 57.9817 61.5927 58.4017 61.6566 58.7969C61.6992 59.0192 61.891 59.2415 62.0614 59.3897C62.1253 59.4391 62.3384 59.2168 62.4875 59.118C62.5514 59.2909 62.6579 59.5379 62.7644 59.8097C62.1253 60.0567 61.4649 60.279 60.8471 60.5754C60.4636 60.7483 60.3358 60.6001 60.3145 60.1555C60.3145 59.9579 60.3145 59.7355 60.3145 59.5379C60.3145 59.0686 60.4636 58.8957 60.8897 58.9698C61.5075 59.0933 61.5501 59.0192 61.5501 58.2782C61.5501 58.0311 61.5501 57.7841 61.5288 57.5371C61.5501 57.5618 61.5714 57.5618 61.614 57.5618Z" fill="#C7A363"/>
<path d="M2.77216 57.2886C2.83608 57.585 2.81477 57.8074 2.4952 57.8568C2.11173 57.5109 1.62173 57.2886 1.49391 56.6217C1.4513 56.4488 1.17434 56.3253 1.00391 56.1771C1.02521 56.1524 1.06782 56.103 1.08913 56.0783C1.60043 55.683 2.09043 55.3125 2.64434 54.8926C2.68694 55.7571 2.72955 56.5229 2.77216 57.2886Z" fill="#C7A363"/>
<path d="M55.0312 60.7485C56.5225 60.6991 58.0351 60.6744 59.5264 60.625C59.5264 60.6744 59.5477 60.7485 59.5477 60.7979C59.2069 60.9214 58.8873 61.1437 58.5465 61.1684C58.1204 61.2178 57.6943 61.1437 57.2895 61.119C56.8847 61.0943 56.4799 61.0696 56.0752 61.0202C55.7343 60.9708 55.3721 60.872 55.0312 60.7979C55.0312 60.7979 55.0312 60.7732 55.0312 60.7485Z" fill="#C7A363"/>
<path d="M9.11995 55.5857C8.43821 55.4622 8.58735 54.7212 8.33169 54.2766C8.97082 53.9307 9.03473 53.9554 9.14125 54.7459C9.18386 54.9682 9.18386 55.1905 9.20516 55.4128C9.24777 55.8575 9.03473 56.0057 8.69386 56.0551C8.3743 56.0798 8.05474 56.1786 7.75648 56.228C7.71387 56.228 7.64995 56.3021 7.62865 56.2774C6.96822 55.8328 6.3504 56.4997 5.71127 56.3268C5.64736 56.3021 5.58344 56.2527 5.51953 56.228C5.51953 56.1539 5.51953 56.1045 5.51953 56.0304C6.71257 55.9563 7.90561 55.8575 9.11995 55.7834C9.09864 55.7587 9.09864 55.6846 9.11995 55.5857Z" fill="#C7A363"/>
<path d="M59.0995 59.9814C57.8851 60.0061 56.6708 60.0308 55.4138 60.0802C55.4777 60.0061 55.5203 59.9567 55.6056 59.8579C55.4138 59.7838 55.2221 59.7097 54.9238 59.5862C56.4151 59.3392 57.7573 59.5368 59.0782 59.7838C59.0995 59.8579 59.0995 59.932 59.0995 59.9814Z" fill="#C7A363"/>
<path d="M52.9647 59.8841C53.2629 59.81 53.5399 59.6865 53.8381 59.6618C54.4773 59.5877 54.6264 59.81 54.4347 60.6498C53.9234 60.4769 53.4334 60.2793 52.9434 60.1064C52.9434 60.0323 52.9647 59.9582 52.9647 59.8841Z" fill="#C7A363"/>
</g>
<defs>
<clipPath id="clip0_13385_1343">
<rect width="64" height="64" fill="white"/>
</clipPath>
</defs>
</svg>
