<svg width="55" height="54" viewBox="0 0 55 54" fill="none" xmlns="http://www.w3.org/2000/svg">
<path d="M9.38574 42.1456C9.10695 41.8669 8.8526 41.5732 8.61719 41.2695L1.07031 48.8166L5.62443 53.3707L13.1715 45.8238C12.8678 45.5883 12.5743 45.3339 12.2955 45.0552L9.38574 42.1456Z" fill="#C7A363"/>
<path d="M45.8235 41.2695C45.5881 41.5733 45.3338 41.8669 45.0551 42.1456L42.1455 45.0552C41.8668 45.3339 41.5732 45.5882 41.2695 45.8238L48.8158 53.37L53.37 48.8158L45.8235 41.2695Z" fill="#C7A363"/>
<path d="M29.9419 43.5963L30.2582 43.9125C32.5988 46.253 36.3933 46.253 38.7339 43.9125L43.9144 38.7321C46.2549 36.3916 46.2549 32.597 43.9144 30.2563L43.5981 29.9401L40.1752 33.3548L36.3204 29.5L29.4902 36.3302L33.345 40.185L29.9419 43.5963Z" fill="#C7A363"/>
<path d="M24.9431 18.1117L15.3536 8.52235C11.2672 4.43566 6.14662 1.53668 0.539731 0.134933L0 0L0.134933 0.539837C1.53668 6.14662 4.43577 11.267 8.52246 15.3536L18.1119 24.9431L24.9431 18.1117Z" fill="#C7A363"/>
<path d="M45.9185 15.3537C50.0052 11.267 52.9042 6.14672 54.306 0.539944L54.4409 0L53.9011 0.134933C48.2944 1.53668 43.1738 4.43577 39.0873 8.52246L14.2566 33.3534L10.8412 29.938L10.5249 30.2542C8.1844 32.5947 8.1844 36.3894 10.5249 38.73L15.7114 43.9164C18.0519 46.2571 21.8465 46.2571 24.1872 43.9164L24.5034 43.6002L21.0878 40.1847L45.9185 15.3537Z" fill="#C7A363"/>
</svg>
