<svg width="67" height="160" viewBox="0 0 67 160" fill="none" xmlns="http://www.w3.org/2000/svg">
<path fill-rule="evenodd" clip-rule="evenodd" d="M16.0646 6.0059L23.2594 0L26.0801 0.611286L24.3366 8.73538L24.8751 17.4051L27.029 21.4691L29.183 33.39L29.9709 27.7005L31.0676 19.3016L29.4522 13.0703L31.0676 7.65166L33.4998 2.21923L36.8315 2.94125V8.19352L38.7733 10.2018L40.2654 3.6817L42.5956 4.1959L43.822 7.34283L46.2748 4.99806L50.935 6.0059C50.935 6.0059 43.8301 39.8916 41.5866 50.3711C70.702 58.5103 67.3402 90.5767 66.3669 99.8604C66.2428 101.044 66.1576 101.857 66.1834 102.203C66.2425 102.997 66.3811 103.748 66.5158 104.477C66.9398 106.775 67.3243 108.858 65.0592 111.356C62.945 113.688 63.3237 115.152 64.2839 118.865L64.2839 118.865C64.679 120.393 65.1727 122.301 65.6315 124.808C69.3311 144.985 42.4526 160 42.4526 160L44.0266 114.503L61.7888 105.782L59.6631 95.6217L38.0581 107.489C35.4826 110.225 39.8977 121.949 39.8977 121.949L33.5 127.811L27.1023 121.949C27.1023 121.949 31.5173 110.225 28.9419 107.489L17.3366 100.996V95.6217L14.3749 99.3707L7.33694 95.6217L5.21116 105.782L10.8748 108.853L9.52859 115.627L14.1057 109.937L22.9735 114.503L24.5473 160C24.5473 160 -2.33118 144.985 1.36845 124.808C1.82732 122.301 2.32095 120.393 2.71609 118.865C3.67623 115.152 4.05493 113.688 1.94077 111.356C-0.324305 108.858 0.0601197 106.775 0.484193 104.477C0.618834 103.748 0.757471 102.997 0.816579 102.203C0.842382 101.857 0.757121 101.044 0.633039 99.8604C-0.340252 90.5766 -3.70207 58.5096 25.4144 50.3708C23.1724 39.8904 16.0646 6.0059 16.0646 6.0059ZM31.0678 62.3792H33.5L38.8757 64.0048L41.5681 68.3397L46.4145 69.6944V76.1967L50.9916 79.7188L48.5684 81.6153L46.1452 82.1571L42.3759 79.7188V76.1967L38.0581 74.5711L35.1064 73.7583L35.3756 70.2362H33.5L32.6833 69.6944H31.0678L30.7986 69.4234L30.2601 69.9653H29.4524L28.9419 68.3397L28.1062 67.256V65.9013L28.9419 65.0885V62.9211L31.0678 62.3792Z" fill="#C7A464"/>
</svg>
