<svg width="221" height="225" viewBox="0 0 221 225" fill="none" xmlns="http://www.w3.org/2000/svg">
<path fill-rule="evenodd" clip-rule="evenodd" d="M109.117 0.169921L108.178 0.447749L108.341 2.02516C108.756 6.05561 108.852 12.2128 108.512 13.0302L108.167 13.862L107.964 12.9656C107.853 12.4726 107.671 10.6708 107.56 8.962C107.449 7.25316 107.229 5.53545 107.073 5.14477C106.916 4.75437 106.646 3.74842 106.473 2.90966C106.178 1.47782 106.104 1.37939 105.276 1.29953C104.725 1.2463 103.706 1.53411 102.566 2.06537C100.313 3.11457 100.124 3.60507 100.973 6.20312C101.303 7.21295 101.571 8.30015 101.569 8.61901C101.567 8.93788 101.755 9.81129 101.988 10.5599C102.221 11.3086 102.537 12.9193 102.69 14.1393C102.844 15.3593 103.152 17.1685 103.375 18.1597C103.598 19.151 103.91 21.3969 104.069 23.1507C104.229 24.9044 104.499 27.7118 104.67 29.3893C104.936 31.9949 104.791 39.2109 104.479 38.9001C104.429 38.8502 104.264 36.5898 104.112 33.8767C103.96 31.1639 103.701 28.7818 103.535 28.5833C103.37 28.3848 103.053 26.3363 102.831 24.0307C102.609 21.7252 102.307 19.6138 102.159 19.3384C102.011 19.0634 101.754 17.8664 101.589 16.6791C101.423 15.4915 101.162 14.2879 101.01 14.0042C100.858 13.7206 100.592 12.8241 100.42 12.0117C99.989 9.9735 98.5897 5.70542 98.1988 5.23655C97.6431 4.5697 96.9931 4.80622 95.3329 6.27965C93.2672 8.11354 93.0247 8.72521 93.7625 10.243C94.0726 10.881 94.3271 11.5196 94.3279 11.6621C94.329 11.8046 94.53 12.2954 94.7747 12.7529C96.0348 15.1083 98.8222 25.5704 99.2069 29.3893C99.2994 30.3043 99.5608 32.0109 99.788 33.1816C100.267 35.651 100.45 43.8741 100.039 44.5007C99.8214 44.8335 99.7306 44.7503 99.5853 44.0848C99.4851 43.6273 99.3885 42.612 99.3704 41.8281C99.3523 41.0445 99.0352 38.7986 98.6654 36.8372C98.296 34.876 97.8689 32.5849 97.7166 31.7461C96.9797 27.686 96.473 25.4274 96.113 24.5969C95.8959 24.0962 95.7174 23.4723 95.7166 23.2106C95.7157 22.9488 95.5799 22.2492 95.4142 21.6559L95.1136 20.5767L94.4131 21.2746C93.6959 21.9886 92.425 24.6557 92.1822 25.9561C92.1076 26.3551 92.2563 27.0855 92.5124 27.5787C92.7686 28.072 93.1483 28.9931 93.3566 29.6256C93.5648 30.2583 94.0075 31.5243 94.3404 32.4393C95.8792 36.668 97.326 42.155 97.576 44.7087C97.74 46.3843 97.2767 46.7187 96.9791 45.1393C96.8731 44.5756 96.5599 43.8281 96.2837 43.4782C96.0072 43.1282 95.6932 42.3729 95.5855 41.7998C95.478 41.2264 95.25 40.589 95.079 40.383C94.9081 40.1769 94.5748 39.4283 94.3385 38.7193C93.8555 37.2703 93.6018 37.1771 92.8551 38.1731C92.0444 39.2544 91.9205 40.9755 92.5862 41.9152C93.8037 43.634 97.1281 50.842 97.5833 52.7496C97.7706 53.5352 97.1183 53.6025 96.9126 52.819C96.8324 52.514 96.5969 52.2644 96.3889 52.2644C96.181 52.2644 95.8115 51.8804 95.5679 51.411C95.152 50.6099 95.0874 50.5828 94.5167 50.9673C94.0208 51.3017 93.9175 51.6192 93.9568 52.687C93.9988 53.8335 94.133 54.1022 95.0353 54.8428C95.6022 55.308 96.2068 55.8632 96.3792 56.0761C96.5515 56.289 96.9068 56.6986 97.1685 56.9864C97.4299 57.2742 97.8962 58.002 98.2047 58.604C98.5129 59.206 99.0819 59.9466 99.4689 60.2496C100.184 60.8103 100.403 61.4145 99.8901 61.4145C99.4764 61.4145 98.5045 63.1147 98.5034 63.8406C98.5028 64.1839 98.6276 64.4645 98.7807 64.4645C99.1777 64.4645 99.1256 65.4521 98.7111 65.7854C98.5198 65.9396 97.7993 66.1578 97.1103 66.2706C95.4891 66.536 91.1689 68.2756 88.6189 69.6894C83.5292 72.5112 79.0199 76.7757 75.5253 82.0714C73.427 85.2514 70.9659 90.9585 70.5227 93.672C70.3863 94.5079 69.8044 95.3334 67.8105 97.5191C64.8928 100.717 65.0111 100.221 65.9112 105.501C66.2361 107.407 66.6248 110.028 66.7751 111.324C66.9254 112.62 67.1696 114.679 67.3177 115.899C67.4658 117.119 67.7186 119.864 67.8795 121.999C68.3425 128.14 67.8843 127.344 72.7338 130.429C73.5606 130.955 74.4009 132.397 73.8802 132.397C73.6742 132.397 73.4334 132.209 73.3452 131.981C73.2572 131.752 72.9598 131.565 72.6851 131.565C72.41 131.565 71.7482 131.334 71.2145 131.053C69.8128 130.313 68.827 130.123 68.4926 130.528C68.3219 130.734 68.1604 133.86 68.0881 138.358C67.9753 145.392 67.6 149.88 66.7203 154.717C66.1209 158.013 66.1239 158.425 66.7576 159.925C67.5441 161.788 68.416 163.754 68.6902 164.283C70.5606 167.89 72.2285 170.948 72.6452 171.535C72.9326 171.94 73.1675 172.4 73.1675 172.558C73.1675 173.047 73.7731 173.248 74.0334 172.845C74.1737 172.628 74.2141 166.772 74.1269 159.292C73.9732 146.072 74.1509 140.432 74.7271 140.242C75.2327 140.076 76.2194 142.869 76.6523 145.693C76.8756 147.149 77.1852 149.088 77.34 150.003C77.779 152.595 78.4948 169.395 78.4093 175.097C78.3361 179.967 78.3637 180.282 78.9547 181.335C79.553 182.401 81.038 184.611 81.935 185.772C82.1708 186.077 83.26 187.512 84.3555 188.96C90.9826 197.726 94.579 202.152 98.8261 206.769C100.442 208.526 100.557 208.206 100.331 202.576C100.223 199.891 99.9567 195.324 99.7384 192.426C99.1833 185.058 99.1874 160.566 99.7451 153.053C100.615 141.328 100.708 139.21 100.362 138.99C99.5613 138.483 97.1712 138.97 91.5422 140.786C90.0875 141.255 88.3336 141.818 87.6445 142.036C86.9555 142.255 85.9062 142.613 85.3129 142.833C84.3794 143.179 84.1731 143.18 83.7817 142.839C83.5328 142.622 83.0442 142.357 82.6954 142.251C81.4684 141.879 81.2012 141.042 81.538 138.63C81.7048 137.435 81.7619 136.034 81.6644 135.517C81.4384 134.317 80.2139 132.727 77.7656 130.456C76.6971 129.464 75.5387 128.389 75.1913 128.067C74.8438 127.744 74.5596 127.401 74.5596 127.304C74.5596 126.991 75.534 127.118 76.0983 127.505C76.4004 127.712 77.1047 127.965 77.6638 128.067C78.2225 128.169 78.8328 128.436 79.0201 128.661C79.2075 128.885 79.5644 129.069 79.8136 129.068C80.063 129.067 81.1438 129.361 82.2157 129.721C86.6932 131.225 87.808 131.565 88.2612 131.565C88.5237 131.565 89.3381 131.77 90.0708 132.021C90.8036 132.273 92.1547 132.631 93.0734 132.819C93.9921 133.006 95.4955 133.348 96.4143 133.578C97.333 133.808 99.6507 134.274 101.565 134.613C103.479 134.953 105.325 135.281 105.667 135.343C106.773 135.542 106.763 136.69 105.602 143.488C105.132 146.233 104.185 152.636 103.775 155.826C103.619 157.046 103.383 158.372 103.251 158.771C103.052 159.372 103.139 159.621 103.749 160.205C106.171 162.522 108.776 165.165 109.499 166.037C109.959 166.59 110.41 167.015 110.502 166.98C110.594 166.945 111.413 166.029 112.322 164.943C113.231 163.858 114.596 162.444 115.356 161.803C117.185 160.258 117.767 159.557 117.592 159.104C117.513 158.899 117.318 157.64 117.159 156.308C117 154.976 116.63 152.388 116.337 150.558C116.044 148.728 115.673 146.357 115.512 145.29C115.352 144.222 115.103 142.787 114.959 142.101C114.815 141.415 114.608 139.704 114.499 138.299C114.27 135.342 114.158 135.471 117.434 134.925C122.595 134.065 125.56 133.506 125.827 133.342C126.098 133.175 127.464 132.83 132.324 131.7C133.241 131.487 134.431 131.136 134.969 130.919C135.507 130.703 136.449 130.395 137.061 130.235C138.815 129.777 140.858 129.071 142.103 128.492C142.732 128.199 143.437 127.96 143.67 127.96C143.902 127.96 144.248 127.773 144.439 127.544C144.76 127.159 146.109 126.942 146.109 127.276C146.109 127.357 144.619 128.905 142.797 130.716C139.791 133.703 139.457 134.136 139.187 135.393C138.958 136.457 138.979 137.209 139.279 138.636C139.761 140.929 139.562 141.441 137.812 142.408L136.504 143.132L134.695 142.604C133.699 142.313 132.509 141.893 132.05 141.671C131.258 141.287 130.015 140.897 127.178 140.143C126.489 139.96 125.121 139.577 124.138 139.292C122.002 138.673 120.537 138.623 120.329 139.163C120.246 139.377 120.379 142.652 120.624 146.441C120.869 150.231 121.205 155.452 121.371 158.044C121.727 163.584 121.524 188.209 121.081 193.258C120.92 195.088 120.656 198.948 120.494 201.835C120.231 206.526 120.246 207.13 120.644 207.519C121.049 207.915 121.139 207.891 121.65 207.261C121.958 206.879 122.816 205.881 123.556 205.042C125.257 203.113 130.39 196.981 131.493 195.56C131.953 194.968 133.083 193.522 134.006 192.346C134.928 191.17 135.9 189.896 136.164 189.515C136.429 189.134 137.147 188.136 137.761 187.297C138.374 186.458 139.655 184.649 140.608 183.276L142.339 180.781L142.526 170.66C142.629 165.094 142.86 158.295 143.04 155.551C143.365 150.582 144.474 142.88 144.951 142.279C145.089 142.105 145.357 141.483 145.546 140.897C145.805 140.099 145.971 139.911 146.209 140.148C146.686 140.623 146.881 150.338 146.65 162.204C146.486 170.684 146.517 172.532 146.83 172.862C147.039 173.082 147.252 173.207 147.305 173.139C147.658 172.686 150.721 167.051 151.666 165.115C152.299 163.819 153.061 162.297 153.361 161.733C153.66 161.169 153.906 160.545 153.906 160.346C153.907 160.148 154.104 159.611 154.344 159.154C154.74 158.399 154.74 158.115 154.347 156.103C153.308 150.791 152.713 144.238 152.656 137.5C152.625 133.826 152.505 130.668 152.39 130.483C152.125 130.054 150.736 130.328 149.557 131.04C149.079 131.329 148.48 131.565 148.226 131.565C147.971 131.565 147.69 131.752 147.602 131.981C147.514 132.209 147.132 132.397 146.754 132.397C146.067 132.397 146.067 132.396 146.968 131.499C147.464 131.005 148.082 130.475 148.342 130.32C149.216 129.801 150.975 128.56 151.799 127.881C152.607 127.217 152.62 127.159 152.826 123.494C152.94 121.452 153.161 118.97 153.316 117.978C153.471 116.987 153.681 114.928 153.781 113.403C153.881 111.878 154.085 110.069 154.234 109.383C154.594 107.731 155.575 101.406 155.575 100.742C155.575 100.455 154.595 99.1933 153.397 97.9389C150.826 95.2474 150.285 94.5032 150.285 93.6575C150.285 92.064 147.708 85.702 146.096 83.3191C145.838 82.9378 145.185 81.9397 144.645 81.1009C144.105 80.2622 143.31 79.2016 142.878 78.7441C142.448 78.2866 141.468 77.226 140.701 76.3872C136.227 71.4898 129.169 67.4263 122.687 66.0161C121.789 65.8206 121.429 64.7961 122.09 64.3145C122.488 64.0244 122.498 63.87 122.169 63.0459C121.963 62.5299 121.478 61.8442 121.091 61.5223C120.404 60.9506 120.401 60.9303 120.945 60.64C121.252 60.4767 122.165 59.3848 122.974 58.2133C123.784 57.0421 124.892 55.694 125.436 55.2182C127.056 53.8019 127.53 51.744 126.443 50.8459C126.124 50.5819 125.784 50.8015 124.664 51.9957C123.525 53.2108 123.28 53.3666 123.28 52.8775C123.28 52.5506 123.455 51.8735 123.669 51.3727C125.063 48.1125 126.856 44.3674 127.8 42.7437C128.677 41.2328 128.868 40.6699 128.735 39.9709C128.541 38.9492 127.587 37.2916 127.193 37.2916C127.044 37.2916 126.77 37.8218 126.584 38.47C126.399 39.1183 126.088 39.8376 125.893 40.0685C125.699 40.2995 125.416 41.0384 125.264 41.7105C125.112 42.3826 124.804 43.0356 124.578 43.1612C124.352 43.2871 124.085 43.9889 123.984 44.7212C123.716 46.6643 123.392 46.9832 123.189 45.505C123.07 44.6405 123.176 43.751 123.531 42.6427C123.814 41.7585 124.139 40.4733 124.253 39.7871C124.367 39.1008 124.622 38.1026 124.82 37.5689C125.017 37.0351 125.565 35.4131 126.038 33.9643C127.018 30.9565 127.729 29.01 128.389 27.5266C128.977 26.2073 128.967 25.7687 128.325 24.7084C128.038 24.2329 127.658 23.3944 127.482 22.8448C127.306 22.2953 126.856 21.5597 126.482 21.21L125.803 20.5745L125.516 21.3262C125.358 21.7393 125.229 22.2922 125.229 22.5545C125.229 22.8168 124.979 23.7413 124.672 24.6091C124.366 25.4767 124.115 26.5481 124.115 26.9895C124.115 27.4309 123.883 28.5259 123.599 29.4226C123.314 30.3193 122.995 31.9264 122.889 32.9939C122.783 34.0614 122.517 35.5587 122.298 36.3212C122.08 37.0837 121.768 39.1369 121.606 40.8837C121.443 42.6305 121.246 44.1242 121.167 44.203C120.363 45.0032 120.349 35.6754 121.149 32.3007C121.385 31.3094 121.696 29.5626 121.841 28.4189C122.143 26.0457 123.113 21.4568 123.745 19.4075C125.181 14.7559 126.762 10.4218 127.172 10.0137C127.538 9.64936 127.537 8.56827 127.17 7.8859C127.013 7.59282 126.111 6.71275 125.166 5.92973L123.449 4.50621L122.837 5.21436C122.292 5.84599 120.494 10.8347 120.496 11.712C120.496 11.9019 120.257 12.7753 119.964 13.6529C119.672 14.5305 119.351 15.9346 119.252 16.7734C119.153 17.6121 118.903 18.8 118.696 19.413C118.489 20.0261 118.176 22.2043 118.001 24.2539C117.827 26.3033 117.543 28.1494 117.37 28.3565C117.118 28.6595 116.748 33.0125 116.612 37.2916C116.595 37.8434 116.535 37.9 116.32 37.5689C115.839 36.828 116.011 29.114 116.599 25.0916C116.899 23.0328 117.147 20.8673 117.15 20.2792C117.153 19.6914 117.333 18.506 117.55 17.6451C117.767 16.7844 118.026 15.2691 118.125 14.2779C118.225 13.2866 118.499 11.7894 118.736 10.9506C118.972 10.1119 119.267 8.80173 119.391 8.03923C119.516 7.27673 119.821 6.08528 120.071 5.39182C120.559 4.03623 120.313 2.63239 119.587 2.63239C119.386 2.63239 118.726 2.38035 118.119 2.07202C117.513 1.76397 116.609 1.39963 116.111 1.26266C115.34 1.05027 115.145 1.10101 114.789 1.60731C114.559 1.93394 114.369 2.4541 114.367 2.76354C114.365 3.0727 114.181 3.8463 113.958 4.48292C113.736 5.11926 113.419 7.2978 113.255 9.32357C113.09 11.3496 112.892 13.0712 112.813 13.1494C112.735 13.2273 112.544 13.1078 112.388 12.8835C112.103 12.4728 112.263 3.22187 112.579 1.80057C112.664 1.41932 112.569 0.896933 112.369 0.639623C111.903 0.0412656 110.324 -0.186931 109.117 0.169921ZM111.828 17.9518C111.8 20.9477 111.739 21.5677 111.574 20.5166C111.377 19.258 111.533 14.0006 111.768 14.0006C111.821 14.0006 111.849 15.7785 111.828 17.9518ZM109.289 21.266C109.237 22.5312 109.195 21.5702 109.194 19.1302C109.194 16.6902 109.236 15.6548 109.288 16.8296C109.34 18.0042 109.341 20.0006 109.289 21.266ZM70.687 31.4533C70.3682 31.6497 70.3615 31.9181 70.6477 33.0349C71.5795 36.673 71.2549 42.8044 69.9088 46.9962C68.0087 52.913 66.0989 56.3032 62.9209 59.4014C61.6319 60.6581 60.4539 61.6102 60.3031 61.5176C59.9949 61.3277 60.1204 60.4767 60.7276 58.6417C61.9373 54.9859 62.1299 53.8479 62.1492 50.2375C62.1787 44.6654 60.8877 39.2325 59.5338 39.2325C59.2095 39.2325 58.1721 41.375 57.1173 44.2235C56.3987 46.1647 56.3475 46.5892 56.35 50.6008C56.3517 53.6866 56.48 55.3702 56.8044 56.5713C57.0527 57.4913 57.3369 59.4253 57.436 60.8691C57.6593 64.124 57.6045 64.2329 53.7664 68.17C51.3407 70.6585 50.8799 71.0189 50.582 70.6613C50.3008 70.3238 50.3315 69.8874 50.7418 68.3937C51.6263 65.1729 51.7922 63.8442 51.6686 60.9805C51.5559 58.3725 50.9657 56.0431 50.0219 54.4826C49.8835 54.2539 49.5795 53.6522 49.3462 53.1456C49.1129 52.6387 48.489 51.6106 47.9597 50.8609C47.4305 50.1108 46.9976 49.3927 46.9976 49.2649C46.9976 49.1368 46.6075 48.4458 46.1309 47.729C45.4357 46.6837 45.1877 46.4891 44.8781 46.745C44.6657 46.9205 44.4919 47.2749 44.4919 47.5325C44.4919 47.79 44.2286 48.9915 43.9067 50.2021C43.4103 52.0681 43.3427 52.9304 43.4613 55.869C43.6016 59.3502 44.2703 62.6971 45.1724 64.4345C45.4107 64.8934 45.6056 65.387 45.6056 65.5314C45.6056 65.6759 46.1086 66.6186 46.7233 67.6265C48.3929 70.3637 48.6978 73.4681 47.4377 74.9044C46.2267 76.2852 44.573 78.2977 44.0743 78.9978C43.7681 79.4276 43.1102 80.2757 42.6127 80.8821C42.1152 81.4888 41.7079 82.0983 41.7079 82.2363C41.7079 82.3744 41.591 82.4873 41.4482 82.4873C40.9306 82.4873 40.8643 81.4123 41.3089 80.23C41.9312 78.5758 42.7926 73.566 42.8084 71.51C42.831 68.597 41.3724 64.0361 38.6494 58.5031C38.0488 57.2831 37.4294 55.9416 37.2732 55.5224C37.1167 55.1031 36.8631 54.7599 36.7092 54.7599C36.2612 54.7599 35.4405 56.6268 34.576 59.6122C33.8408 62.1517 33.7734 62.7578 33.7734 66.8213C33.7734 70.7192 33.8536 71.51 34.4335 73.3372C35.1885 75.7162 36.3102 78.6825 36.8578 79.7489C37.0633 80.149 37.3784 81.6177 37.558 83.013C37.9662 86.1828 37.6541 87.9526 36.3211 90.028C35.7915 90.8524 35.1557 91.9573 34.9082 92.4833C34.6604 93.0093 34.154 93.9351 33.7826 94.5409C33.2099 95.4751 33.0777 95.5652 32.9115 95.134C32.8037 94.8545 32.8753 93.2361 33.0704 91.5372C33.4482 88.2482 33.3447 83.5736 32.8118 79.8532C32.3758 76.8098 30.9181 72.2875 29.7282 70.2872C29.592 70.0585 29.0272 69.0844 28.4726 68.1228C27.918 67.161 27.32 66.422 27.1435 66.4805C26.9667 66.5393 26.7259 67.1391 26.6078 67.8134C26.4901 68.4877 26.154 70.2248 25.8612 71.6736C24.9399 76.2334 24.7253 77.9034 24.7253 80.5089C24.7253 84.4143 25.8225 90.1453 27.0948 92.885C27.3072 93.3425 27.6761 94.1536 27.9147 94.6873C28.1532 95.2211 28.6296 96.12 28.9729 96.6848C30.8382 99.7528 31.1185 100.328 30.8914 100.618C30.7586 100.787 30.4228 101.55 30.1452 102.312C29.8677 103.075 29.555 103.824 29.4503 103.976C29.3457 104.129 29.1087 104.87 28.9239 105.624C28.7365 106.388 28.2874 107.272 27.9094 107.621C27.5363 107.965 27.2287 108.16 27.2259 108.052C27.2231 107.945 27.0469 106.735 26.8339 105.362C26.2888 101.846 25.5148 100.398 22.5142 97.2787C18.5344 93.1415 17.5157 91.1097 17.2326 86.742C17.1415 85.3413 16.9625 84.0919 16.8345 83.9651C16.4316 83.567 14.9046 85.7048 13.7305 88.31C13.49 88.8438 13.1211 89.5924 12.9109 89.9737C12.7007 90.3549 12.3034 91.9953 12.0281 93.619C11.5476 96.453 11.5473 96.6762 12.0223 99.1875C12.2943 100.627 12.6901 102.105 12.9017 102.474C13.1136 102.843 13.4034 103.396 13.546 103.704C13.9805 104.644 15.9825 106.47 18.1115 107.869C19.2226 108.599 20.5979 109.503 21.1681 109.877C22.5721 110.798 24.6749 113.076 25.1326 114.172C25.3383 114.664 25.539 115.441 25.5786 115.899C25.6936 117.229 25.2662 121.559 24.8213 123.571C24.5964 124.588 24.4513 125.649 24.4992 125.928C24.5579 126.271 24.4157 126.435 24.0599 126.435C23.6849 126.435 23.4376 126.11 23.1979 125.302C22.7567 123.814 20.6762 120.648 19.1324 119.116C17.484 117.48 14.2253 115.385 10.9443 113.852C9.13381 113.006 6.83809 111.143 5.7938 109.672C5.25787 108.917 4.72222 108.294 4.60362 108.287C4.02621 108.252 3.79542 110.017 3.91597 113.542C4.02037 116.594 4.15428 117.526 4.64065 118.587C4.96861 119.303 5.23699 120.037 5.23699 120.217C5.23699 120.774 6.82584 123.344 7.66412 124.143C8.87016 125.293 11.4454 126.414 14.8419 127.27C18.5422 128.201 19.9584 128.9 22.145 130.87C24.0997 132.632 24.3503 133.178 24.5621 136.14C24.6493 137.36 24.8015 139.202 24.9004 140.233L25.0805 142.108L22.8728 139.956C21.0417 138.171 20.3582 137.697 18.8671 137.18C16.8681 136.486 13.6657 136.345 11.0629 136.837C8.42472 137.335 6.08807 137.248 4.05405 136.575C3.0209 136.233 2.08128 135.798 1.96603 135.608C1.85104 135.418 1.34324 135.061 0.837932 134.814C-0.0195516 134.396 -0.0724479 134.397 0.048101 134.837C0.119094 135.096 0.261637 135.807 0.364646 136.417C0.876074 139.441 4.67406 144.563 7.46422 145.993C9.35681 146.962 12.3513 146.916 15.9555 145.861C19.4478 144.839 21.8112 144.653 23.0949 145.3C25.1585 146.34 26.159 147.834 26.614 150.558C26.9731 152.708 28.0115 156.798 28.3556 157.417C28.7493 158.126 28.6811 158.738 28.2084 158.738C27.9801 158.738 27.1045 158.116 26.2623 157.356C22.3026 153.785 17.7666 152.248 13.1167 152.903C10.3833 153.288 7.49151 155.297 6.04409 157.816C5.21723 159.256 5.14428 159.58 5.14428 161.823C5.14428 164.036 5.21973 164.384 5.95611 165.565C6.40295 166.282 6.89043 166.879 7.03994 166.893C7.18944 166.906 7.42358 166.543 7.56055 166.085C8.45061 163.113 10.483 160.533 12.4474 159.883C14.9728 159.046 20.9671 159.998 25.1429 161.898C29.5378 163.898 31.407 165.111 31.407 165.963C31.407 166.652 35.0774 173.684 36.2323 175.208C36.5903 175.681 36.9547 176.348 37.0421 176.691C37.2234 177.402 36.7779 177.848 36.5299 177.204C36.4402 176.972 36.0964 176.7 35.7662 176.6C35.4357 176.499 34.9716 176.249 34.7347 176.042C33.208 174.712 30.052 173.681 26.3695 173.307C25.3597 173.205 24.1718 172.934 23.7297 172.706C20.9454 171.267 19.2855 170.799 17.0692 170.828C14.3107 170.865 12.9805 171.426 10.6258 173.548C8.90441 175.1 8.46174 175.847 8.87211 176.509C9.05586 176.805 9.39022 176.781 10.6581 176.383C11.9947 175.964 12.446 175.94 13.8085 176.219C15.7128 176.608 17.0925 177.87 18.6672 180.663C19.8905 182.834 20.5233 183.526 21.9407 184.247C23.9585 185.272 25.6103 184.939 30.5717 182.51C32.9089 181.366 32.976 181.352 36.0006 181.343C38.8014 181.336 39.1819 181.399 40.4551 182.08C41.2207 182.49 42.9746 183.911 44.3527 185.237C45.7308 186.564 47.2657 187.959 47.7632 188.338C48.261 188.716 48.668 189.136 48.668 189.271C48.668 189.656 46.3745 189.556 44.3135 189.08C42.91 188.756 41.398 188.673 38.3801 188.754C32.9451 188.901 29.9462 189.602 25.4739 191.773C23.7801 192.595 20.9315 194.392 20.6801 194.797C20.4593 195.152 21.5064 195.614 22.5493 195.621C23.0571 195.624 24.0187 195.874 24.686 196.176C25.3536 196.477 26.0427 196.725 26.2172 196.726C26.3921 196.727 26.9107 196.931 27.3701 197.18C29.0007 198.063 31.8446 198.751 34.3349 198.864C36.433 198.959 37.2523 198.86 39.3231 198.262C40.6856 197.869 41.9365 197.445 42.1024 197.321C42.2683 197.196 43.4688 196.673 44.7703 196.16C46.0719 195.646 47.2874 195.115 47.4711 194.981C48.0157 194.585 51.9894 193.674 53.1759 193.674C54.5287 193.674 55.6646 194.269 60.1483 197.325C60.567 197.61 61.1934 197.971 61.5403 198.126C63.0242 198.791 64.3018 199.715 63.9966 199.903C63.8215 200.01 62.0236 200.143 60.0013 200.197C56.127 200.3 53.5515 200.872 48.8072 202.682C47.7353 203.09 46.3572 203.555 45.7448 203.714C45.1323 203.873 44.1612 204.194 43.5868 204.427C42.2021 204.987 37.7997 205.054 37.1571 204.523C36.7498 204.187 36.6966 204.222 36.6966 204.827C36.6966 205.58 39.6711 208.647 40.4002 208.647C40.6227 208.647 40.947 208.818 41.1216 209.027C41.2959 209.237 42.4075 209.767 43.5916 210.206C45.6523 210.97 45.9477 211.004 50.4776 211.004H55.2105L57.4377 209.8C58.6627 209.137 60.2914 208.075 61.057 207.439C64.0779 204.928 67.7125 202.824 69.0282 202.824C69.4667 202.824 73.3118 204.91 77.5708 207.458C78.1348 207.796 78.9096 208.234 79.2924 208.432C79.9756 208.786 80.9706 209.405 84.0253 211.379C84.8675 211.923 86.2071 212.872 87.0025 213.488C87.7977 214.104 88.9878 215.005 89.6474 215.489C91.4247 216.795 93.5356 218.69 96.9393 222.037C98.7183 223.787 100.167 224.995 100.425 224.946C101.053 224.827 101.123 223.866 100.723 220.829C100.415 218.48 100.274 218.067 99.4951 217.224C96.7912 214.297 89.6799 208.923 83.5175 205.15C82.5489 204.557 81.2961 203.773 80.7334 203.408C80.1705 203.043 78.5691 202.137 77.1749 201.395C73.4774 199.426 73.5888 199.624 73.5657 194.962C73.5322 188.181 72.6862 184.13 70.3649 179.636C69.3824 177.733 67.6351 175.306 66.4995 174.265C65.6381 173.476 63.7864 170.795 63.1481 169.413C62.6578 168.352 62.4679 167.316 62.339 164.998C62.2427 163.266 62.0447 161.929 61.8766 161.874C61.4381 161.73 60.1753 165.236 59.81 167.61C58.8966 173.55 59.8573 179.284 62.6433 184.522C63.6166 186.352 65.8335 189.38 67.1852 190.726C68.6877 192.223 70.5709 195.229 71.0725 196.932C71.4453 198.198 69.9681 197.545 62.6383 193.206C61.011 192.243 59.9601 191.64 58.7529 190.978C56.9655 189.998 56.6479 188.816 56.8581 183.928C57.3497 172.491 57.3573 171.122 56.9369 169.56C55.1882 163.061 54.7091 160.097 54.8739 156.797C54.9466 155.348 55.0961 153.945 55.2066 153.68C55.3424 153.353 55.2559 153.139 54.9399 153.018C54.5997 152.888 53.9142 153.425 52.4253 154.986C48.8982 158.686 47.5449 162.338 47.56 168.116C47.5694 171.695 48.82 177.4 49.9704 179.11C50.1728 179.41 50.3384 179.84 50.3384 180.064C50.3384 180.287 50.9164 181.63 51.6227 183.048C52.7692 185.348 53.0136 186.472 52.3655 186.461C51.6561 186.45 45.4733 180.88 43.3012 178.296L41.9117 176.642L42.0665 174.263C42.2182 171.927 43.2614 168.427 45.7428 161.926C46.1504 160.859 46.6713 159.238 46.9007 158.325C47.1301 157.412 47.465 156.488 47.6449 156.272C47.8681 156.005 47.9695 154.373 47.9645 151.139C47.957 146.442 47.9486 146.379 47.0541 144.181C45.9441 141.453 45.1807 140.384 44.7767 140.992C44.6247 141.221 44.4986 141.725 44.4961 142.112C44.4939 142.499 44.255 143.278 43.9655 143.844C43.6759 144.41 43.3625 145.176 43.2689 145.547C43.1756 145.918 42.9412 146.386 42.7483 146.587C42.5554 146.789 42.2363 147.265 42.0392 147.647C41.8421 148.028 41.3783 148.839 41.008 149.449C37.6727 154.947 36.9107 159.214 38.07 165.904C39.1182 171.952 38.7114 172.701 36.5043 168.789C33.9555 164.271 33.5498 163.104 33.6957 160.708C33.7984 159.024 34.0262 158.18 34.8252 156.519C35.9697 154.141 37.1758 152.23 38.6995 150.381C39.2822 149.674 39.7591 148.975 39.7591 148.829C39.7591 148.684 40.0066 148.341 40.3086 148.069C40.611 147.796 40.9426 147.31 41.0453 146.987C41.148 146.665 41.4017 146.276 41.6088 146.123C42.3346 145.587 43.3293 141.288 43.3739 138.497C43.4215 135.508 44.3177 132.166 45.5811 130.267C46.6718 128.627 46.6944 128.203 45.6752 128.498C42.9323 129.293 40.584 131.349 37.0552 136.045C32.9165 141.553 32.1074 143.886 31.231 152.846C31.0698 154.491 30.7249 154.743 30.471 153.4C30.3774 152.904 30.0236 151.527 29.685 150.339C29.1293 148.389 29.1034 148.025 29.4186 146.596C29.6104 145.725 29.8877 144.202 30.0341 143.21C31.1205 135.866 34.9613 129.853 40.3668 127.035C41.6965 126.341 43.2625 125.695 43.8469 125.597C44.4312 125.5 45.382 125.243 45.9591 125.027C46.5365 124.81 47.5783 124.633 48.2743 124.633C48.9703 124.633 49.7939 124.498 50.1046 124.332C50.6644 124.033 50.6639 124.025 50.0166 123.334C49.0603 122.313 46.9007 121.292 44.2135 120.592C42.5657 120.163 41.819 119.837 41.7544 119.518C41.6453 118.978 43.4649 116.549 45.0209 115.158C46.2601 114.05 48.6814 112.71 49.4447 112.71C49.7245 112.71 50.1967 112.532 50.494 112.313C51.0024 111.94 50.9437 111.876 49.5032 111.229C47.5694 110.36 45.6832 110.127 43.3783 110.471C40.873 110.844 38.0767 111.646 37.2585 112.225C36.8812 112.492 36.4291 112.71 36.2534 112.71C35.7462 112.71 33.645 114.662 32.522 116.176C31.3591 117.744 29.057 122.153 28.7833 123.336C28.4784 124.653 27.9339 124.029 27.8403 122.254C27.7228 120.025 28.2251 116.519 28.8635 115.113C30.0453 112.51 33.1448 110.651 37.0396 110.207C38.2234 110.073 39.7624 109.77 40.4598 109.534C41.1569 109.299 41.944 109.106 42.209 109.106C42.4738 109.106 43.1272 108.875 43.6609 108.593C44.1946 108.312 44.9549 108.003 45.3508 107.907C45.7464 107.81 46.7122 107.092 47.4968 106.311C48.5797 105.232 49.0352 104.513 49.3877 103.324C49.8565 101.744 50.2699 98.0146 49.9762 98.0146C49.4848 98.0146 48.2367 98.662 47.9467 99.0674C47.34 99.9156 44.5746 101.085 39.6199 102.589C36.2637 103.608 34.4134 104.519 33.0757 105.812C32.4638 106.404 31.8379 106.887 31.6851 106.887C31.2182 106.887 31.3744 105.269 31.9877 103.75C33.8778 99.0705 35.005 97.6012 37.6259 96.4006C41.1522 94.7855 40.6244 94.8714 45.7553 95.0763C52.5225 95.3464 53.9103 95.07 57.2985 92.7777C58.5547 91.9276 59.6315 90.2548 60.4024 87.9554C60.8351 86.6647 60.9403 85.9635 60.7585 85.5841C60.5049 85.0554 60.459 85.0579 58.2885 85.7073C56.4981 86.243 55.4374 86.3708 52.7204 86.3777C48.4522 86.3885 45.8338 86.7301 44.0743 87.5059C42.5417 88.1814 41.1341 89.0906 40.7892 89.6271C40.6667 89.8178 40.3894 89.9737 40.1725 89.9737C39.9559 89.9737 39.6427 90.2268 39.4765 90.536C39.3103 90.8451 39.0503 91.022 38.8985 90.9286C38.6159 90.7545 38.8039 89.835 39.2312 89.3018C39.3626 89.1377 40.4955 87.4679 41.7483 85.5916C44.5106 81.4547 45.3625 80.8236 48.1827 80.8236C49.2329 80.8236 50.3512 80.995 50.8031 81.2248C51.594 81.6277 53.1742 82.1753 55.7673 82.9456C57.7854 83.5451 61.8309 83.2958 63.456 82.472C66.0913 81.1361 68.6891 78.2106 68.1429 77.1938C67.9155 76.771 67.651 76.7053 66.6882 76.8331C65.8104 76.9498 64.7687 76.7582 62.5882 76.0789C60.2674 75.3561 59.1772 75.1664 57.2985 75.1595C54.8965 75.1506 51.9142 75.7792 50.6962 76.5511C49.9821 77.0036 48.668 77.0738 48.668 76.6592C48.668 76.1247 52.1558 72.9041 53.1255 72.5434C53.6598 72.3449 54.5084 72.0055 55.0112 71.7892C56.3082 71.2319 60.1421 71.2693 61.2705 71.8505C62.368 72.4159 66.3383 72.6554 68.4347 72.2828C70.4214 71.9298 73.6865 71.1407 74.5089 70.8149C75.2361 70.5268 75.2673 69.515 74.5596 69.1695C72.3231 68.0776 67.1212 66.9594 64.2792 66.9602C62.8504 66.9605 59.2164 67.7541 58.4915 68.2237C57.8795 68.6205 56.4633 68.7805 56.4633 68.4528C56.4633 68.3588 57.3403 67.4377 58.4119 66.4057C60.435 64.4575 61.3844 64.0164 62.2516 64.6214C62.532 64.8169 64.5075 65.1668 66.6418 65.3989C74.2038 66.2213 78.1334 64.9464 80.4311 60.9248C81.278 59.4425 81.3406 59.1533 81.3598 56.6473C81.3746 54.7058 81.2741 53.8593 80.9976 53.5973C80.6819 53.2984 80.5901 53.3025 80.474 53.6214C80.1635 54.4721 77.3787 57.4292 75.9446 58.4304C73.6979 59.9992 70.7708 61.3113 68.421 61.8032C67.2801 62.0419 65.8656 62.373 65.2773 62.5391C64.0938 62.8729 63.4234 62.7376 63.4234 62.1648C63.4234 61.6404 64.0919 61.0476 66.3402 59.5786C67.4085 58.8804 68.6964 57.9785 69.202 57.5742C70.4537 56.5738 73.6787 53.305 74.2413 52.4663C74.493 52.0914 75.0437 51.2704 75.4652 50.6424C76.9324 48.4558 77.622 46.0904 77.622 43.2447C77.622 40.2604 77.0429 38.3741 75.3686 35.9053C73.5988 33.2953 71.2788 31.089 70.687 31.4533ZM147.578 33.2653C146.286 34.662 145.229 36.1714 144.415 37.783C143.215 40.1578 143.193 40.2546 143.189 42.9757C143.187 45.2275 143.312 46.087 143.857 47.5508C144.772 50.0082 146.689 52.8403 149.028 55.1888C150.916 57.084 153.91 59.4735 154.397 59.4735C154.527 59.4735 155.315 60.093 156.149 60.8502C157.396 61.9845 157.59 62.2768 157.246 62.5094C157.016 62.6647 156.426 62.7185 155.935 62.6289C154.434 62.3555 150.216 61.2195 148.974 60.7545C146.129 59.689 141.744 56.1953 140.643 54.1163C140.292 53.4545 140.162 53.3888 139.798 53.6893C139.449 53.9782 139.389 54.5639 139.478 56.8283C139.575 59.3063 139.677 59.7644 140.407 60.9985C142.747 64.9486 146.773 66.2437 154.173 65.4258C156.187 65.2031 158.07 64.8956 158.357 64.7429C159.575 64.0938 160.388 64.419 162.466 66.386C163.576 67.4371 164.484 68.3707 164.484 68.4605C164.484 68.7802 162.944 68.5992 162.442 68.2201C162.16 68.008 160.765 67.6254 159.339 67.3697C156.925 66.9366 156.506 66.9361 153.196 67.3614C151.242 67.6121 149.402 67.9462 149.107 68.1034C148.813 68.2606 147.955 68.5714 147.201 68.7944C145.988 69.1532 145.831 69.2874 145.831 69.9672C145.831 70.7037 145.945 70.7669 148.632 71.5125C152.283 72.5254 156.419 72.7572 158.638 72.0726C161.135 71.302 164.075 71.2533 166.145 71.9478C167.113 72.2725 168.348 72.8739 168.889 73.2843C170.193 74.2733 172.265 76.4469 172.273 76.8339C172.281 77.2155 170.915 77.0036 170.33 76.5328C169.736 76.0542 166.307 75.2083 164.393 75.0683C162.778 74.9499 159.374 75.622 156.796 76.568C156.123 76.8151 155.031 76.9504 154.151 76.8958C152.798 76.8123 152.643 76.8608 152.567 77.3946C152.458 78.1554 155.037 81.2817 156.235 81.8415C156.714 82.0653 157.482 82.4562 157.942 82.7105C159.271 83.4464 164.764 83.3571 166.433 82.5724C170.365 80.7235 173.743 80.337 175.626 81.5204C176.235 81.9033 176.737 82.309 176.74 82.4216C176.744 82.5339 177.151 83.0815 177.645 83.6385C178.139 84.1956 178.761 85.0066 179.027 85.4408C179.292 85.875 180.012 86.9791 180.625 87.8941C182.832 91.1848 182.695 91.647 180.126 89.5797C178.99 88.6655 177.499 87.7899 176.314 87.341C174.55 86.6727 173.846 86.5826 168.799 86.3799C164.083 86.1905 163.002 86.0649 161.735 85.5575C160.912 85.2284 160.176 85.0216 160.099 85.0978C159.814 85.382 159.985 86.5571 160.553 88.2249C161.608 91.3184 163.142 92.9849 166.154 94.3083L167.964 95.1032L174.173 95.0264C179.175 94.9649 180.527 95.0278 181.133 95.3517C181.546 95.5727 182.448 96.0094 183.137 96.3224C185.012 97.1734 186.344 98.3992 187.295 100.149C187.764 101.012 188.148 101.856 188.148 102.026C188.148 102.195 188.398 102.821 188.703 103.416C189.366 104.712 189.67 106.151 189.419 106.803C189.257 107.222 189.148 107.192 188.483 106.542C186.314 104.422 185.474 103.961 181.467 102.69C176.935 101.252 175.119 100.553 174.029 99.8269C173.449 99.4406 172.511 98.8143 171.943 98.4347L170.911 97.7443L170.729 98.7114C170.41 100.404 171.231 103.494 172.478 105.301C173.185 106.325 175.192 107.996 175.714 107.996C175.858 107.996 176.492 108.229 177.121 108.514C178.428 109.105 182.582 110.105 184.72 110.345C188.046 110.717 191.329 113.009 192.151 115.533C193.163 118.645 193.467 123.94 192.633 123.94C192.421 123.94 192.096 123.441 191.912 122.831C191.512 121.507 189.495 117.7 188.465 116.325C186.456 113.643 184.38 112.277 180.492 111.079C177.225 110.073 173.862 110.099 171.583 111.147C170.015 111.869 169.946 111.94 170.453 112.313C170.751 112.532 171.2 112.71 171.453 112.71C171.982 112.71 174.358 113.974 175.362 114.79C176.455 115.678 179.239 119.08 179.239 119.528C179.239 119.753 179.083 119.979 178.891 120.031C178.7 120.083 177.604 120.352 176.455 120.628C174.138 121.185 172.262 122.061 170.849 123.246L169.913 124.031L170.697 124.332C171.128 124.497 171.922 124.633 172.461 124.633C174.192 124.633 180.686 126.698 181.188 127.409C181.265 127.517 181.703 127.799 182.163 128.035C183.078 128.506 185.219 130.482 185.994 131.569C188.935 135.7 189.895 138.114 190.948 144.018C191.258 145.758 191.574 147.282 191.65 147.405C191.772 147.601 190.574 152.908 190.174 153.948C189.882 154.705 189.55 153.686 189.521 151.944C189.473 149.065 188.49 144.071 187.664 142.511C187.504 142.209 186.968 141.152 186.474 140.161C185.463 138.136 184.479 136.779 181.488 133.286C179.156 130.563 177.71 129.365 175.927 128.68C174.197 128.015 173.97 128.431 175.149 130.103C176.452 131.949 177.261 135.031 177.568 139.322C177.724 141.483 177.983 143.129 178.249 143.637C178.486 144.088 178.68 144.66 178.681 144.906C178.682 145.152 178.933 145.671 179.239 146.059C179.546 146.446 179.796 146.89 179.796 147.045C179.796 147.2 180.092 147.68 180.455 148.111C180.817 148.542 181.507 149.456 181.988 150.142C186.472 156.533 187.1 157.87 187.142 161.094C187.17 163.249 187.129 163.396 185.688 166.224C183.625 170.271 183.051 171.213 182.65 171.214C182.175 171.215 182.203 168.813 182.706 166.449C183.413 163.126 183.534 159.66 183.017 157.49C182.763 156.422 182.44 155.042 182.299 154.423C182.075 153.443 181.04 151.471 178.766 147.694C178.428 147.134 178.011 146.364 177.838 145.983C177.665 145.602 177.283 144.828 176.989 144.264C176.696 143.7 176.455 142.912 176.455 142.513C176.455 142.114 176.321 141.538 176.157 141.233C175.575 140.149 174.685 141.476 173.491 145.207C172.848 147.217 172.757 147.963 172.766 151.113C172.773 153.509 172.917 155.182 173.198 156.103C173.43 156.866 173.811 158.114 174.044 158.876C174.278 159.639 175.154 162.134 175.991 164.422C178.057 170.072 178.6 171.896 178.802 173.852C179.08 176.554 178.884 176.987 176.079 179.847C173.195 182.789 169.104 186.326 168.587 186.326C168.018 186.326 168.028 185.132 168.604 184.317C168.901 183.897 169.241 183.242 169.359 182.86C169.477 182.479 169.806 181.732 170.091 181.201C170.376 180.669 170.609 180.022 170.609 179.762C170.609 179.502 170.724 179.218 170.864 179.131C171.005 179.045 171.5 177.758 171.965 176.273C174.141 169.314 173.587 162.162 170.502 157.381C169.702 156.14 166.548 152.915 166.136 152.915C165.666 152.915 165.601 153.477 165.859 155.293C166.173 157.5 165.813 162.373 165.196 164.261C163.991 167.951 163.509 171.29 163.553 175.639C163.578 177.996 163.752 180.652 163.941 181.54C164.376 183.579 164.15 188.281 163.564 189.41C163.333 189.856 162.474 190.638 161.656 191.149C160.838 191.659 159.832 192.31 159.421 192.594C159.009 192.878 157.945 193.497 157.055 193.969C156.164 194.441 154.809 195.192 154.044 195.638C153.278 196.083 152.382 196.565 152.052 196.707C151.723 196.85 151.371 197.1 151.27 197.261C151.045 197.625 149.45 197.655 149.45 197.295C149.45 197.151 149.566 196.963 149.707 196.876C149.849 196.789 150.053 196.314 150.162 195.82C150.356 194.937 152.53 191.842 154.103 190.208C156.577 187.639 158.914 183.734 160.139 180.124C161.744 175.393 161.706 167.894 160.058 163.841C159.637 162.806 159.161 161.915 159.001 161.862C158.816 161.801 158.659 162.854 158.57 164.757C158.372 168.971 157.688 170.374 153.434 175.3C151.546 177.487 149.675 180.788 148.756 183.554C147.817 186.384 147.198 191.136 147.277 194.922C147.328 197.364 147.244 198.718 147.015 199.122C146.829 199.449 145.265 200.501 143.54 201.458C139.888 203.484 138.739 204.197 133.347 207.789C131.151 209.252 129.064 210.64 128.709 210.874C128.08 211.288 126.18 212.806 125.249 213.638C124.994 213.867 123.928 214.797 122.881 215.705C121.834 216.613 120.809 217.758 120.603 218.249C120.223 219.154 119.615 224.416 119.846 224.798C120.228 225.428 121.319 224.656 124.558 221.461C130.045 216.05 132.326 214.279 140.541 209.047C143.299 207.291 151.446 202.825 151.877 202.834C152.15 202.839 152.875 203.084 153.487 203.379C154.1 203.673 154.69 203.919 154.8 203.924C155.05 203.936 156.469 204.928 159.787 207.411C161.222 208.485 163.138 209.733 164.045 210.184C165.678 210.996 165.738 211.004 170.448 211.004C175.357 211.004 175.905 210.904 179.1 209.431C181.029 208.542 183.822 206.156 184.097 205.162C184.25 204.611 184.19 204.597 182.513 204.813C179.59 205.188 178.779 205.018 171.305 202.46C164.803 200.234 164.878 200.251 160.799 200.199C157.063 200.153 156.146 199.987 156.975 199.507C158.824 198.439 160.371 197.492 162.201 196.306C166.744 193.364 167.109 193.266 170.43 194.107C172.193 194.554 175.546 195.788 176.038 196.172C176.401 196.455 180.355 197.933 182.264 198.499C185.523 199.466 189.077 198.957 194.691 196.72C195.916 196.232 197.516 195.743 198.247 195.634C200.059 195.363 200.293 195.052 199.356 194.161C198.564 193.408 193.943 190.901 193.348 190.901C193.163 190.901 192.561 190.661 192.01 190.367C191.459 190.072 190.521 189.75 189.926 189.65C189.331 189.55 188.469 189.357 188.009 189.221C185.129 188.367 178.497 188.426 175.015 189.338C174.145 189.565 173.175 189.684 172.857 189.601C172.254 189.444 172.041 188.683 172.601 188.683C172.777 188.683 174.312 187.335 176.011 185.688C180.035 181.787 180.991 181.329 185.064 181.352C187.938 181.369 188.063 181.396 190.236 182.491C193.065 183.916 195.654 184.802 196.989 184.8C198.071 184.799 199.575 184.055 200.537 183.043C201.206 182.341 202.613 180.306 202.62 180.031C202.623 179.923 202.924 179.397 203.288 178.862C204.94 176.438 206.928 175.698 209.952 176.383C210.997 176.62 211.921 176.745 212.005 176.661C212.378 176.29 211.704 175.023 210.457 173.748C208.642 171.892 205.943 170.66 203.692 170.66C202.126 170.66 199.875 171.356 197.866 172.462C197.469 172.68 196.216 172.993 195.082 173.156C191.218 173.711 188.846 174.341 187.365 175.205C186.551 175.679 185.632 176.209 185.323 176.382C185.014 176.555 184.621 176.835 184.45 177.005C184.279 177.176 184.051 177.315 183.943 177.315C183.67 177.315 183.979 176.156 184.387 175.651C184.572 175.423 184.807 175.048 184.909 174.819C185.011 174.591 185.458 173.842 185.902 173.156C187.005 171.449 189.54 166.283 189.54 165.741C189.54 165.471 191.28 163.729 191.549 163.729C191.645 163.729 192.913 163.167 194.368 162.481C195.823 161.795 197.132 161.233 197.278 161.233C197.424 161.233 198.53 160.899 199.736 160.492C201.587 159.866 202.429 159.747 205.131 159.729C208.682 159.706 209.321 159.909 210.876 161.556C211.903 162.643 213.203 165.011 213.209 165.806C213.215 166.608 213.677 167.252 214.005 166.915C214.152 166.764 214.596 166.029 214.991 165.282C216.035 163.311 216.02 160.296 214.956 158.171C214.011 156.281 212.355 154.671 210.304 153.648C208.863 152.929 208.442 152.855 205.707 152.837C202.919 152.82 202.515 152.889 200.248 153.767C198.37 154.494 197.305 155.135 195.673 156.518C193.086 158.711 192.413 159.131 192.243 158.658C192.176 158.473 192.248 158.077 192.403 157.777C192.712 157.183 193.516 153.923 194.127 150.792C194.517 148.79 195.314 146.891 195.993 146.341C197.8 144.876 200.437 144.457 202.755 145.266C204.809 145.982 207.755 146.63 209.482 146.745C213.291 146.999 216.869 144.262 219.521 139.064C220.039 138.05 221 135.04 221 134.435C221 134.118 219.678 134.75 218.868 135.453C218.384 135.873 217.331 136.435 216.527 136.7C214.835 137.26 211.385 137.349 209.725 136.876C209.112 136.702 207.483 136.558 206.105 136.557C202.307 136.555 199.826 137.655 197.355 140.436C196.676 141.199 196.003 141.824 195.858 141.824C195.702 141.824 195.67 141.228 195.779 140.368C195.88 139.567 196.068 137.699 196.195 136.216C196.455 133.199 196.671 132.739 198.756 130.758C200.131 129.451 202.698 127.96 203.572 127.96C203.832 127.96 204.383 127.791 204.797 127.583C205.21 127.375 206.101 127.121 206.776 127.018C208.703 126.724 211.877 125.28 213.097 124.144C214.441 122.891 215.166 121.599 216.167 118.672C216.839 116.703 216.927 116.029 216.944 112.684C216.958 109.846 216.867 108.8 216.575 108.448C216.22 108.022 216.14 108.06 215.643 108.89C214.338 111.07 211.653 113.18 208.054 114.853C207.595 115.066 207.031 115.358 206.801 115.501C206.572 115.644 206.091 115.887 205.732 116.041C203.959 116.801 199.006 121.616 199.006 122.581C199.006 122.671 198.769 123.077 198.478 123.484C198.188 123.89 197.808 124.746 197.635 125.386C197.28 126.702 196.606 126.763 196.343 125.504C196.259 125.101 196.081 124.272 195.947 123.662C195.813 123.052 195.553 121.111 195.367 119.348C194.994 115.8 195.135 114.952 196.426 112.989C197.062 112.022 200.339 109.106 200.791 109.106C200.891 109.106 201.815 108.552 202.843 107.875C204.955 106.485 206.698 104.765 207.603 103.179C208.379 101.818 209.029 98.7732 209.029 96.496C209.029 94.613 208.409 90.9092 207.953 90.0685C207.801 89.7876 207.42 88.9963 207.107 88.31C206.273 86.4809 204.615 84.0123 204.22 84.0123C203.988 84.0123 203.814 84.8574 203.677 86.6464C203.355 90.8718 202.113 93.385 198.503 97.1107C195.282 100.435 194.442 102.005 193.958 105.597C193.66 107.807 193.548 108.146 193.224 107.823C193.013 107.613 192.73 107.442 192.594 107.442C192.457 107.442 192.211 106.911 192.046 106.264C191.753 105.109 191.635 104.776 190.391 101.568L189.78 99.9907L190.928 98.2403C192.322 96.1145 193.952 92.7683 194.183 91.5564C194.276 91.0672 194.51 90.3544 194.703 89.9723C195.233 88.9184 196.223 82.6761 196.214 80.4424C196.209 79.3557 195.889 76.7824 195.503 74.7236C195.116 72.6648 194.637 70.0105 194.437 68.8249C194.238 67.6393 193.983 66.579 193.873 66.4686C193.762 66.358 193.484 66.5169 193.256 66.8219C191.841 68.7098 189.262 73.8971 189.262 74.8531C189.262 75.1021 189.088 75.6425 188.875 76.0545C188.662 76.4663 188.213 78.7078 187.878 81.0355C187.23 85.5293 187.236 88.6369 187.901 92.5803C188.142 94.0063 188.154 94.7273 187.942 95.1038C187.671 95.5865 187.607 95.5502 187.186 94.6737C186.494 93.2316 185.6 91.7222 184.062 89.3969C183.255 88.1767 182.938 84.8838 183.376 82.2641C183.642 80.6714 184.842 77.2027 185.362 76.5259C185.478 76.3734 185.897 75.1256 186.292 73.7531C187.555 69.3675 187.557 63.5736 186.297 59.6416C185.343 56.6634 184.67 55.0438 184.331 54.9143C184.001 54.7884 183.391 55.9139 181.107 60.8599C179.476 64.3935 178.534 67.3473 177.997 70.6155C177.798 71.8266 178.859 78.6895 179.413 79.77C179.861 80.6453 179.926 82.4873 179.509 82.4873C179.351 82.4873 179.138 82.2688 179.035 82.002C178.865 81.5609 176.612 78.6955 173.996 75.5934C172.641 73.9874 172.487 73.4992 172.713 71.535C172.922 69.7266 173.064 69.324 174.082 67.6531C174.454 67.0431 174.842 66.3569 174.944 66.1281C175.047 65.8994 175.359 65.2131 175.638 64.6031C177.464 60.6106 177.951 53.8091 176.74 49.2144C176.399 47.9181 176.022 46.7533 175.902 46.626C175.694 46.4048 174.228 48.0598 174.228 48.5162C174.228 48.6371 173.677 49.5688 173.004 50.5866C171.49 52.875 169.896 56.1837 169.516 57.8232C169.01 60.0095 169.16 65.5012 169.774 67.2372C170.312 68.7614 170.495 70.5853 170.145 70.9344C170.043 71.0361 168.539 69.6548 166.804 67.8647C164.429 65.4147 163.605 64.3757 163.471 63.664C163.254 62.5127 163.541 58.129 163.893 57.2057C164.034 56.8383 164.294 55.1683 164.471 53.4947C164.975 48.743 164.365 45.1266 162.333 40.8269C161.175 38.3752 160.321 38.7908 159.627 42.1439C158.749 46.3912 158.604 47.7856 158.704 51.0547C158.8 54.215 159.67 58.6154 160.337 59.321C160.619 59.6197 160.681 61.4145 160.409 61.4145C160.024 61.4145 157.278 58.9902 156.383 57.8609C155.253 56.433 154.531 55.2371 153.338 52.819C151.303 48.6956 150.68 46.8573 149.998 42.9757C149.343 39.2436 149.321 37.5678 149.89 34.772C150.358 32.472 150.341 31.4373 149.832 31.2709C149.66 31.2143 148.645 32.1119 147.578 33.2653ZM105.029 58.0181C105.24 58.9706 104.79 59.4245 103.953 59.1045C103.612 58.9739 103.612 58.7754 103.953 57.6444C104.171 56.9243 104.364 55.8873 104.384 55.3397C104.414 54.4726 104.445 54.5231 104.624 55.7303C104.737 56.4928 104.919 57.5224 105.029 58.0181ZM111.068 55.9383C111.254 56.5866 111.515 57.2603 111.647 57.4356C111.779 57.6111 112.015 58.5438 112.171 59.5088C112.327 60.4737 112.582 61.3415 112.738 61.4372C112.893 61.5328 113.151 62.5962 113.311 63.8004C113.471 65.0043 113.759 66.3014 113.951 66.6827C114.144 67.0639 114.39 68.2201 114.498 69.2519C114.606 70.2836 114.935 71.8092 115.229 72.6416C115.523 73.4739 115.763 74.5359 115.763 75.0009C115.763 75.4659 116.001 76.5215 116.293 77.3461C116.584 78.171 116.91 79.3843 117.018 80.0426C117.51 83.0396 120.359 86.7762 124.427 89.7591C126.701 91.4266 129.999 93.3919 131.076 93.7205C131.458 93.8375 132.208 94.1652 132.742 94.4489C133.275 94.7325 133.902 94.9688 134.134 94.974C134.366 94.9793 135.057 95.2244 135.669 95.5191C136.282 95.8139 136.971 96.059 137.2 96.0643C137.43 96.0693 138.37 96.3188 139.288 96.6185C142.86 97.7834 144.674 98.2719 147.142 98.7339L149.706 99.2135L150.25 98.5448C150.873 97.7789 150.95 97.8175 151.523 99.1839C151.907 100.099 151.902 100.236 151.463 100.759C151.012 101.296 150.86 101.313 149.033 101.029C147.961 100.862 146.457 100.535 145.692 100.302C144.926 100.069 143.611 99.7201 142.769 99.5271C141.926 99.3344 140.861 99.045 140.402 98.8841C138.802 98.3238 136.773 97.6957 135.391 97.3334C134.625 97.1323 133.623 96.7677 133.164 96.5226C132.704 96.2775 132.179 96.0765 131.997 96.0754C131.544 96.0731 127.041 93.7293 126.152 93.0328C125.756 92.7228 125.311 92.4691 125.162 92.4691C125.014 92.4691 124.544 92.1885 124.119 91.8453C123.694 91.502 122.941 90.9095 122.445 90.5282C120.398 88.9536 119.945 88.5152 118.506 86.7215C116.93 84.7557 115.761 82.8142 115.767 82.1723C115.769 81.9643 115.524 80.9831 115.223 79.9918C114.449 77.4484 113.604 73.5152 113.377 71.3963C113.271 70.4051 113.024 69.2804 112.83 68.8972C112.635 68.5141 112.385 66.892 112.273 65.2927C112.155 63.6085 111.909 62.1548 111.689 61.8378C111.48 61.5373 111.307 60.851 111.305 60.3128C111.299 58.673 111.029 58.0481 110.368 58.1421C109.867 58.2131 109.756 58.4609 109.638 59.7774C109.562 60.6309 109.356 61.5043 109.182 61.7183C109.008 61.9324 108.78 63.1682 108.677 64.4645C108.573 65.7607 108.302 67.4876 108.074 68.3019C107.846 69.1163 107.548 70.7558 107.412 71.9453C107.276 73.1348 106.983 74.7145 106.762 75.4556C106.541 76.1968 106.23 77.427 106.072 78.1895C105.206 82.3631 104.282 84.4742 102.301 86.8072C100.784 88.5934 96.6172 92.1791 95.6244 92.5532C95.2995 92.6754 94.8432 92.9433 94.6105 93.1482C93.7057 93.9445 89.7507 95.7967 87.1604 96.6371C85.6659 97.1221 84.1923 97.6517 83.8861 97.8141C83.5798 97.9766 82.6402 98.2658 81.7981 98.4569C80.9559 98.6482 79.7657 98.9956 79.1532 99.2291C78.5407 99.4628 77.7604 99.6594 77.4188 99.6661C77.0774 99.6727 76.3257 99.8646 75.7483 100.092C75.1712 100.32 73.6339 100.69 72.3323 100.915C70.0775 101.304 69.9408 101.298 69.4341 100.795C68.918 100.283 68.9171 100.229 69.3993 98.9718L69.896 97.6763L70.5046 98.4363C71.0197 99.0796 71.2605 99.1725 72.0709 99.0389C74.2594 98.6787 76.9973 98.0343 78.0396 97.6345C78.6521 97.3993 79.4213 97.2016 79.7493 97.195C80.077 97.1883 80.8913 96.936 81.5589 96.6343C82.2262 96.3327 83.0876 96.0831 83.4727 96.0798C83.8577 96.0765 84.6094 95.8433 85.1431 95.5616C85.6768 95.2801 86.4892 94.9629 86.9485 94.857C87.7336 94.6757 88.7662 94.2307 91.403 92.9366C94.9938 91.1745 99.8409 87.2312 101.862 84.4282C103.116 82.6875 104.167 79.6072 105.052 75.0766C105.267 73.9744 105.627 72.4147 105.852 71.6107C106.077 70.8066 106.346 69.4745 106.45 68.6505C106.555 67.8267 106.798 66.7661 106.992 66.2936C107.186 65.8214 107.433 64.5915 107.54 63.5608C107.647 62.5299 107.91 61.5121 108.124 61.2986C108.339 61.0851 108.596 60.1814 108.696 59.2908C108.796 58.3999 109.048 57.3593 109.256 56.9781C109.464 56.5968 109.758 55.9416 109.908 55.5224C110.296 54.4399 110.677 54.5763 111.068 55.9383ZM116.987 58.207C117.181 58.9772 116.833 59.3077 116.08 59.0695C115.641 58.9309 115.6 58.7551 115.8 57.8734C115.93 57.3047 116.121 56.3403 116.226 55.7303L116.416 54.6212L116.616 56.0753C116.726 56.8749 116.893 57.8343 116.987 58.207ZM107.294 57.4059C107.199 57.7805 106.999 58.0872 106.849 58.0872C106.535 58.0872 106.473 55.7866 106.779 55.4819C107.093 55.1694 107.487 56.6412 107.294 57.4059ZM114.352 57.3247C114.362 57.7439 114.254 58.0872 114.109 58.0872C113.632 58.0872 113.478 57.5093 113.681 56.4748C113.851 55.6075 113.915 55.5368 114.107 56.0076C114.231 56.3126 114.341 56.9054 114.352 57.3247ZM102.196 59.9327C102.008 60.0087 101.632 60.0134 101.361 59.943C101.09 59.8725 101.245 59.8104 101.704 59.8049C102.163 59.7993 102.385 59.8567 102.196 59.9327ZM119.87 59.9419C119.602 60.0117 119.163 60.0117 118.895 59.9419C118.628 59.8723 118.847 59.8151 119.383 59.8151C119.919 59.8151 120.138 59.8723 119.87 59.9419ZM101.982 64.7445C101.37 64.8635 100.681 64.8529 100.451 64.7209C100.182 64.5665 100.578 64.4897 101.565 64.5047C103.085 64.528 103.088 64.5299 101.982 64.7445ZM120.281 64.6971C119.947 64.9078 118.269 64.8033 118.269 64.5718C118.269 64.5127 118.802 64.4664 119.452 64.4686C120.162 64.4711 120.493 64.5626 120.281 64.6971ZM100.415 68.0407C100.692 68.2154 100.501 68.376 99.7189 68.6261C99.1262 68.8157 98.4536 69.118 98.2239 69.2973C97.9942 69.477 96.8667 70.1026 95.7182 70.6876C93.9365 71.5954 92.3482 72.5415 89.7593 74.2378C86.1373 76.6107 81.2229 81.5872 78.1899 85.9532C77.6601 86.7157 77.1248 87.3823 76.9998 87.4344C76.875 87.4865 76.5908 87.9632 76.3681 88.4941C76.1453 89.0248 75.8352 89.3803 75.679 89.2841C75.2578 89.0248 75.3344 87.6634 75.8049 87.0459C76.0304 86.7501 76.6039 85.7156 77.0794 84.7471C79.0176 80.8006 84.9337 74.4641 88.6189 72.3878C89.0783 72.1292 90.0806 71.5499 90.8462 71.1007C91.6118 70.6516 92.4261 70.2162 92.6558 70.1333C92.8855 70.0504 93.5305 69.7427 94.0896 69.4493C94.6483 69.1562 95.6489 68.8299 96.3132 68.7239C96.9772 68.6183 97.688 68.3652 97.8923 68.1616C98.3091 67.7463 99.8325 67.6734 100.415 68.0407ZM122.984 68.186C123.164 68.4029 123.838 68.6677 124.48 68.7744C127.374 69.2555 133.584 72.9199 137.147 76.2486C139.209 78.1759 143.325 83.3482 143.325 84.0131C143.325 84.2042 143.501 84.5056 143.716 84.683C143.93 84.8602 144.191 85.3435 144.294 85.7566C144.398 86.1697 144.656 86.7005 144.869 86.9359C145.363 87.4815 145.519 89.1829 145.089 89.3348C144.911 89.3981 144.673 89.1621 144.562 88.8105C144.45 88.4589 143.958 87.6723 143.468 87.0623C142.978 86.4523 142.118 85.2522 141.557 84.3955C140.228 82.368 135.728 77.8565 132.669 75.4861C131.341 74.4569 130.167 73.6145 130.059 73.6145C129.952 73.6145 129.04 73.0816 128.033 72.4305C125.473 70.7741 125.18 70.5994 124.394 70.2609C124.011 70.0959 123.385 69.7853 123.002 69.5707C122.619 69.3559 121.831 68.9718 121.251 68.717C120.513 68.3926 120.304 68.1858 120.555 68.0269C121.134 67.6609 122.628 67.7588 122.984 68.186ZM110.857 83.4245C110.948 84.9678 111.094 90.4728 111.181 95.6578C111.268 100.843 111.455 106.894 111.597 109.106C111.739 111.317 111.988 115.31 112.151 117.978C112.314 120.647 112.617 123.517 112.826 124.356C113.034 125.194 113.287 126.476 113.388 127.203C113.66 129.158 114.234 129.438 117.488 129.204C118.913 129.101 120.83 128.851 121.749 128.648C122.668 128.445 124.234 128.192 125.229 128.085C126.224 127.977 127.45 127.723 127.952 127.52C128.454 127.316 129.607 127.016 130.514 126.852C131.422 126.688 132.514 126.372 132.942 126.15C133.37 125.927 133.937 125.745 134.202 125.744C134.837 125.741 137.819 124.562 141.083 123.022C145.491 120.942 148.657 118.459 149.145 116.699C149.298 116.147 149.636 115.461 149.895 115.176C150.154 114.89 150.427 114.032 150.501 113.267C150.574 112.504 150.744 111.878 150.878 111.878C151.214 111.878 151.184 115.133 150.837 116.317C150.68 116.849 150.423 118.525 150.264 120.04C150.106 121.555 149.91 122.901 149.83 123.03C149.75 123.159 149.251 122.887 148.722 122.424C148.193 121.961 147.717 121.583 147.665 121.583C147.296 121.583 145.585 122.458 145.31 122.787C145.125 123.01 144.643 123.275 144.241 123.375C143.838 123.476 143.2 123.8 142.823 124.096C142.445 124.391 141.944 124.633 141.709 124.633C141.474 124.633 141.083 124.801 140.842 125.007C140.6 125.212 139.838 125.572 139.149 125.807C138.46 126.041 137.458 126.387 136.922 126.575C132.916 127.982 130.718 128.586 127.317 129.217C126.245 129.415 125.047 129.701 124.654 129.852C124.261 130.002 123.196 130.209 122.288 130.312C121.379 130.414 120.009 130.667 119.243 130.873C118.478 131.079 117.162 131.372 116.32 131.524C114.031 131.936 112.183 132.812 111.87 133.632C111.724 134.016 111.459 136.609 111.283 139.394C111.106 142.179 110.839 144.77 110.689 145.151L110.416 145.844L110.161 145.181C110.02 144.815 109.785 142.694 109.637 140.467C109.261 134.78 109.075 133.499 108.544 132.97C107.84 132.269 101.715 130.664 98.3631 130.303C97.4444 130.203 96.4691 130.003 96.1957 129.858C95.9226 129.713 94.6297 129.422 93.3226 129.211C92.0158 129 90.7986 128.711 90.6179 128.568C90.4372 128.425 89.663 128.217 88.8974 128.108C88.1317 127.998 86.9797 127.67 86.3374 127.38C85.6952 127.089 84.9384 126.851 84.6561 126.851C84.3738 126.851 83.6517 126.602 83.0509 126.297C82.4501 125.992 81.8521 125.742 81.722 125.742C81.4503 125.742 78.5268 124.454 77.9004 124.058C77.6707 123.913 76.9817 123.544 76.3692 123.239C75.7567 122.933 74.8561 122.429 74.3675 122.117C73.5398 121.59 73.4228 121.581 72.6413 121.983C72.1803 122.22 71.6889 122.618 71.5494 122.866C71.1522 123.573 70.942 122.958 70.6293 120.17C70.4734 118.777 70.2287 117.332 70.0862 116.958C69.9433 116.584 69.8406 115.257 69.8576 114.009L69.8882 111.74L70.2493 113.214C70.4481 114.026 70.8086 114.908 71.0506 115.174C71.2925 115.44 71.5717 116.062 71.6708 116.556C71.873 117.563 74.7118 120.591 75.7478 120.906C76.0897 121.009 76.5571 121.254 76.7868 121.451C77.8208 122.334 85.6086 125.739 86.6061 125.744C86.7943 125.745 87.2988 125.927 87.7267 126.15C88.1549 126.372 89.2473 126.688 90.1546 126.852C91.0617 127.016 92.2148 127.316 92.7171 127.519C93.2193 127.722 94.5072 127.972 95.579 128.076C96.6509 128.178 98.2186 128.44 99.0624 128.656C100.969 129.146 106.423 129.325 106.842 128.913C107.124 128.634 107.652 126.385 108.237 122.969C108.808 119.633 109.472 106.031 109.778 91.3892C109.939 83.6881 110.187 79.8066 110.485 80.2879C110.598 80.4696 110.765 81.8812 110.857 83.4245ZM146.021 90.0258C145.932 90.2468 145.866 90.1811 145.853 89.858C145.841 89.5658 145.907 89.4022 145.999 89.4943C146.092 89.5863 146.102 89.8256 146.021 90.0258ZM119.104 91.9146C119.104 92.0671 118.979 92.1919 118.826 92.1919C118.673 92.1919 118.547 92.0671 118.547 91.9146C118.547 91.7621 118.673 91.6373 118.826 91.6373C118.979 91.6373 119.104 91.7621 119.104 91.9146ZM101.286 92.8753C101.286 93.0985 101.036 93.4149 100.73 93.5782C100.423 93.7415 100.173 94.0066 100.173 94.1674C100.173 94.3283 99.891 94.7031 99.5463 95.0004C98.448 95.9484 94.9368 98.2378 94.2717 98.4399C93.9189 98.547 93.4423 98.7974 93.2126 98.9962C92.9829 99.195 92.4192 99.4489 91.9598 99.5607C91.5004 99.6721 90.688 99.9938 90.1544 100.275C89.6207 100.557 88.9633 100.787 88.6938 100.787C88.4241 100.787 87.4828 101.027 86.6016 101.32C85.7205 101.613 84.0286 101.936 82.8421 102.037C81.6555 102.138 80.6844 102.335 80.6844 102.475C80.6844 102.614 80.0266 102.706 79.2228 102.678L77.7612 102.628L79.114 102.523C80.1585 102.442 80.4985 102.298 80.6057 101.889C80.7535 101.326 81.0166 101.211 82.7725 100.943C83.385 100.85 84.4499 100.545 85.1389 100.266C86.7038 99.6331 88.8342 98.8916 90.2894 98.4732C90.9019 98.2971 91.7129 97.9348 92.0915 97.668C92.4698 97.4013 92.9512 97.1828 93.1611 97.1828C93.3708 97.1828 93.861 96.9332 94.2502 96.6282C94.6397 96.3232 95.098 96.0717 95.2686 96.0695C95.4393 96.0673 96.7692 95.2582 98.2239 94.2714C99.6785 93.2846 100.963 92.4755 101.078 92.4733C101.193 92.4711 101.286 92.6519 101.286 92.8753ZM121.254 93.3703C121.985 93.866 122.649 94.3571 122.729 94.4619C122.809 94.567 123.185 94.7916 123.564 94.9616C123.944 95.1315 124.756 95.5735 125.368 95.9439C125.981 96.3141 126.795 96.755 127.178 96.923C127.561 97.091 128.312 97.4523 128.848 97.7254C129.384 97.9988 130.218 98.3077 130.7 98.4119C131.183 98.5159 132.055 98.8437 132.639 99.1398C133.222 99.4359 133.954 99.6791 134.266 99.6802C134.579 99.681 135.21 99.9297 135.669 100.233C136.129 100.536 136.717 100.785 136.978 100.785C138.135 100.79 140.263 101.415 140.263 101.751C140.263 101.96 140.822 102.23 141.585 102.388L142.908 102.663L141.705 102.696C140.968 102.716 140.339 102.567 140.084 102.312C139.79 102.02 139.073 101.896 137.668 101.896C135.728 101.896 134.481 101.594 130.519 100.163C128.535 99.4462 126.127 98.3432 125.237 97.7434C124.85 97.4828 123.979 96.9069 123.301 96.4635C121.603 95.3525 120.496 94.3538 120.496 93.9323C120.496 93.7377 120.316 93.5782 120.095 93.5782C119.603 93.5782 119.289 93.1218 119.522 92.7464C119.761 92.3607 119.766 92.3627 121.254 93.3703ZM40.3986 119.759C40.0364 120.245 39.4612 120.508 38.3144 120.713C37.3684 120.881 36.4923 121.232 36.1393 121.583C35.529 122.191 35.0042 122.211 34.811 121.633C34.7475 121.443 35.0685 121.228 35.5591 121.13C36.0315 121.036 36.4182 120.801 36.4182 120.607C36.4182 120.118 37.0691 119.919 38.6683 119.919C39.6998 119.919 40.0375 119.817 40.0375 119.503C40.0375 119.275 40.2312 119.087 40.4682 119.087C40.8373 119.087 40.8276 119.183 40.3986 119.759ZM183.325 119.919C184.069 119.919 184.338 120.052 184.448 120.474C184.529 120.779 184.815 121.028 185.084 121.028C185.354 121.028 185.729 121.214 185.918 121.441C186.198 121.777 186.171 121.888 185.77 122.042C185.444 122.167 185.119 122.035 184.807 121.652C184.504 121.278 183.729 120.954 182.623 120.737C181.681 120.553 180.91 120.304 180.91 120.183C180.91 119.882 181.528 119.662 181.977 119.803C182.18 119.867 182.787 119.919 183.325 119.919ZM34.7478 122.537C34.7478 122.757 34.6312 123.008 34.4886 123.096C34.1576 123.3 33.8246 122.781 34.0518 122.415C34.3079 122.002 34.7478 122.079 34.7478 122.537ZM186.971 122.64C187.032 122.821 186.883 122.969 186.64 122.969C186.398 122.969 186.2 122.772 186.2 122.53C186.2 122.041 186.799 122.126 186.971 122.64ZM33.3558 123.956C33.3558 124.194 33.2286 124.31 33.0729 124.214C32.9173 124.118 32.8619 123.924 32.9501 123.782C33.1887 123.397 33.3558 123.469 33.3558 123.956ZM187.87 123.956C187.87 124.194 187.743 124.31 187.587 124.214C187.431 124.118 187.376 123.924 187.464 123.782C187.703 123.397 187.87 123.469 187.87 123.956ZM30.2054 128.963C30.3003 129.21 30.1138 130.364 29.7903 131.528C29.3212 133.216 28.6613 138.224 28.6146 140.452C28.6084 140.735 28.5166 140.7 28.3039 140.336C27.9074 139.656 27.2431 134.94 27.2362 132.756C27.2298 130.705 27.5355 129.963 28.7145 129.165C29.8086 128.424 29.9882 128.4 30.2054 128.963ZM192.084 129.139C193.609 130.256 193.753 130.848 193.436 134.673C193.099 138.721 192.623 141.112 192.317 140.288C192.207 139.989 192.027 138.434 191.918 136.833C191.81 135.232 191.481 133.129 191.188 132.16C190.604 130.231 190.489 128.515 190.944 128.515C191.103 128.515 191.616 128.795 192.084 129.139Z" fill="#C7A363"/>
</svg>
