<svg width="70" height="160" viewBox="0 0 70 160" fill="none" xmlns="http://www.w3.org/2000/svg">
<path fill-rule="evenodd" clip-rule="evenodd" d="M40.719 0.063067L38.8833 0.252582L38.439 2.78427C38.1947 4.1767 37.973 5.88559 37.9461 6.58181C37.8459 9.19922 37.2649 6.45233 37.2384 3.23636L37.2126 0.0717471H33.5511H29.89L29.6557 1.78968C29.3532 4.00636 29.2132 4.41179 28.7509 4.41179C28.532 4.41179 28.371 3.49134 28.371 2.24177C28.371 0.593637 28.2436 0.0717471 27.8402 0.0717471C27.0021 0.0717471 26.9623 0.386762 27.2931 4.41179C27.4648 6.50043 27.9544 13.6615 28.381 20.3253C28.8076 26.989 29.225 32.6488 29.3086 32.9027C29.425 33.2564 30.8139 33.3407 35.2704 33.2644L41.0808 33.1646L41.3213 29.5479C41.4536 27.5587 41.7479 22.5948 41.9752 18.5169C42.2022 14.4391 42.5698 8.6889 42.7916 5.73912C43.0197 2.70977 43.0557 0.266326 42.8749 0.124551C42.6984 -0.0132454 41.7284 -0.041094 40.719 0.063067ZM34.492 36.5205L29.3764 36.6214L29.6184 39.4139C29.7518 40.9499 29.9614 43.1423 30.0845 44.2859L30.3081 46.3655H35.2457C38.8737 46.3655 40.2209 46.2458 40.3259 45.9134C40.4044 45.665 40.5514 43.5477 40.6523 41.2085C40.8137 37.4775 40.761 36.923 40.2217 36.6876C39.8838 36.5404 37.3054 36.4652 34.492 36.5205ZM25.1781 44.3865C18.5245 46.142 11.1555 50.6224 6.93288 55.4785C3.77166 59.1144 -0.205202 65.8107 0.428074 66.4321C0.516857 66.5192 2.90334 65.861 5.7308 64.9691C8.55862 64.0776 11.1492 63.4143 11.4881 63.4953C11.8267 63.5767 16.7172 62.3542 22.3558 60.7788C27.9942 59.2034 33.3536 57.824 34.2654 57.7129C35.6196 57.548 37.8794 58.0547 46.6067 60.4804C52.4827 62.1134 57.7648 63.4407 58.3446 63.4298C59.2012 63.4139 62.1907 64.2465 69.135 66.4353C70.0763 66.7319 69.9068 66.0143 68.3271 63.0114C64.9883 56.6655 58.9694 50.6821 52.7056 47.4831C49.4533 45.8219 43.6161 43.8034 42.8734 44.0834C42.5654 44.1995 42.3702 44.8277 42.3702 45.7048C42.3702 48.4516 42.3956 48.4411 35.6359 48.507C32.3254 48.5395 29.3366 48.4603 28.994 48.3312C28.605 48.1847 28.3574 47.6693 28.3342 46.9597C28.2852 45.4404 27.8803 44.0895 27.4397 43.9763C27.243 43.9253 26.2251 44.1101 25.1781 44.3865ZM22.7607 62.8172C17.5479 64.2827 13.1131 65.5847 12.9061 65.7102C12.6994 65.8357 12.5299 66.3261 12.5299 66.7999C12.5299 68.0903 12.0076 68.158 11.2873 66.9612C10.9348 66.3753 10.3656 65.9026 10.0223 65.9105C9.67928 65.9189 7.32632 66.6107 4.79359 67.4476L0.188617 68.9699L0.0943086 96.5335L0 124.097L3.33179 128.18C5.1642 130.425 6.81093 132.312 6.99108 132.374C7.17086 132.435 7.97544 132.078 8.77855 131.581C9.58166 131.083 10.3398 130.775 10.4632 130.896C10.587 131.018 10.688 132.28 10.688 133.701V136.284L21.4319 148.017C27.341 154.469 32.3144 159.803 32.4838 159.87C32.9528 160.053 32.9944 160.36 31.2729 150.888C31.074 149.794 30.6809 147.597 30.3991 146.006C30.1173 144.414 29.2184 139.45 28.4013 134.975C27.5845 130.499 26.6532 125.372 26.332 123.582C26.0111 121.792 25.5093 119.13 25.2176 117.666C24.9258 116.203 24.6871 114.625 24.6871 114.159C24.6871 113.505 23.243 112.132 18.3322 108.12C14.8369 105.263 11.7567 102.795 11.487 102.636C11.1706 102.449 10.629 102.691 9.96147 103.319C8.79881 104.412 8.27569 104.078 8.84597 102.605C9.30794 101.412 9.18379 101.21 7.38048 100.215C6.25466 99.5943 5.91241 99.1722 5.82584 98.2995C5.60738 96.1013 5.94815 88.6809 6.26755 88.6809C6.44622 88.6809 8.54609 89.5855 10.9329 90.6907L15.2734 92.7005L17.2675 90.6795C18.3639 89.5681 19.3354 88.7316 19.4263 88.8205C19.517 88.9095 19.2458 89.7489 18.8237 90.686C18.4015 91.6231 18.06 92.5725 18.0648 92.7956C18.0695 93.0191 20.8027 94.4224 24.1382 95.9143C27.4736 97.4062 30.2049 98.7957 30.2079 99.0026C30.2108 99.2091 29.5381 101.081 28.7133 103.162C27.8881 105.243 26.942 107.727 26.6105 108.682L26.0078 110.419L30.4076 119.082C32.8276 123.846 34.9381 127.702 35.098 127.65C35.2575 127.597 36.3808 125.359 37.5939 122.675C38.807 119.991 39.9586 117.47 40.1531 117.072C41.4613 114.397 43.107 110.583 43.107 110.225C43.107 109.99 42.1112 107.372 40.8944 104.408C38.457 98.4717 38.4526 98.6355 41.0808 97.6196C41.8912 97.3064 46.9276 95.2481 52.2727 93.0463C57.6178 90.8441 62.218 89.0426 62.4957 89.0426C62.8999 89.0426 62.999 90.0697 62.9934 94.1964L62.9861 99.3502L54.3361 105.999C49.5782 109.657 45.685 112.668 45.6843 112.69C45.6832 112.713 45.2632 115.01 44.7504 117.795C44.2379 120.58 43.5022 124.649 43.1158 126.837C42.7297 129.025 42.0596 132.769 41.6271 135.156C40.8513 139.439 40.6287 140.679 39.6164 146.367C37.7018 157.126 37.2774 159.752 37.4281 159.9C37.6359 160.104 36.8011 160.985 47.348 149.441C52.1644 144.17 56.8279 139.072 57.711 138.111C59.2951 136.388 59.3165 136.331 59.3165 133.741C59.3165 132.298 59.4174 131.018 59.5412 130.896C59.6646 130.775 60.4073 131.073 61.1916 131.559C61.9759 132.046 62.751 132.443 62.9142 132.443C63.1935 132.443 66.1274 129.076 68.8027 125.685L70 124.168V96.5028V68.8379L69.1711 68.601C68.715 68.4708 66.5415 67.8089 64.341 67.1301C62.1402 66.4512 60.1137 65.8957 59.8374 65.8957C59.5615 65.8957 59.0656 66.4078 58.7362 67.0335C58.2743 67.9106 58.0624 68.0556 57.8112 67.6664C57.6321 67.3887 57.4833 66.8169 57.48 66.3955C57.4756 65.7644 57.0689 65.5203 55.172 65.0096C53.9058 64.6686 49.4198 63.4226 45.2039 62.241C40.9876 61.0595 37.4064 60.1723 37.2454 60.2699C37.0848 60.3676 36.8486 61.551 36.7215 62.9004C36.5941 64.2494 36.2426 67.6317 35.9409 70.4166C35.6392 73.2014 35.3876 75.6344 35.3817 75.8235C35.375 76.0308 35.2251 76.0243 35.0048 75.808C34.8033 75.6102 34.3892 73.0145 34.0842 70.0394C33.2575 61.9792 33.0132 60.3593 32.6076 60.2511C32.405 60.1972 27.9739 61.352 22.7607 62.8172Z" fill="#C7A363"/>
</svg>
