<svg width="64" height="64" viewBox="0 0 64 64" fill="none" xmlns="http://www.w3.org/2000/svg">
<path d="M57.1262 39.9601C57.1262 39.9601 57.1504 39.9601 57.1504 39.9843C57.1746 39.9359 57.223 39.8875 57.2473 39.8391C57.683 39.2097 57.925 38.4594 57.9492 37.709C57.9492 37.8542 57.925 37.9995 57.9008 38.1689C57.9008 38.2173 57.8766 38.2657 57.8766 38.2899C57.8524 38.3625 57.8524 38.4352 57.8282 38.5078C57.804 38.6046 57.7798 38.7256 57.7314 38.8224C57.7072 38.8951 57.683 38.9677 57.6587 39.0403C57.6587 39.0403 57.6588 39.0645 57.6345 39.0645C57.6103 39.1371 57.5619 39.2339 57.5377 39.3066C57.4893 39.3792 57.4651 39.4518 57.4167 39.5486L57.3925 39.5728C57.3441 39.6454 57.2957 39.7181 57.2473 39.7907C57.1988 39.8391 57.1746 39.8875 57.1504 39.9359C57.1262 39.9359 57.1262 39.9601 57.1262 39.9601Z" fill="#C7A363"/>
<path d="M56.0111 26.9626C56.0111 26.9626 56.0353 26.9868 56.0111 26.9626C56.0353 26.8174 56.0353 26.648 56.0111 26.4785C56.0353 26.648 56.0353 26.7932 56.0111 26.9626Z" fill="#C7A363"/>
<path d="M52.6227 30.834C52.6227 30.9066 52.6469 30.955 52.6469 31.0276C52.6711 31.2455 52.6953 31.4633 52.7437 31.6812C52.7679 31.8022 52.7679 31.9232 52.7921 32.0443C52.8405 32.4074 52.9131 32.7704 53.01 33.1335C53.0342 33.2546 53.0584 33.3756 53.0826 33.4966C53.1068 33.6661 53.1552 33.8355 53.2036 34.0049C53.252 34.2228 53.3004 34.4164 53.373 34.6101V34.5859C53.3246 34.368 53.252 34.1744 53.2036 33.9565C53.2036 33.9081 53.1794 33.8597 53.1794 33.8355C53.131 33.6418 53.0826 33.4482 53.0342 33.2546C52.9858 33.0367 52.9373 32.8189 52.8889 32.5768C52.8405 32.3832 52.8163 32.1653 52.7921 31.9717C52.7679 31.899 52.7679 31.8264 52.7437 31.7296C52.7195 31.5844 52.6953 31.4633 52.6711 31.3181C52.6711 31.2697 52.6469 31.2213 52.6469 31.1729C52.6469 31.0518 52.6469 30.955 52.6227 30.834Z" fill="#C7A363"/>
<path d="M52.1158 26.2842C52.1884 26.381 52.261 26.4536 52.3336 26.5505C52.382 26.5989 52.4062 26.6715 52.4062 26.7441C52.4062 26.6715 52.382 26.5747 52.3336 26.5263C52.261 26.4294 52.1884 26.3326 52.1158 26.2842C52.1158 26.26 52.1158 26.2842 52.1158 26.2842Z" fill="#C7A363"/>
<path d="M50.8805 28.2195C51.3888 28.0017 51.8972 27.7838 52.4055 27.5902H52.4297V27.5418C52.4297 27.5418 52.4297 27.5176 52.4055 27.5176C51.8972 27.7354 51.3888 27.9533 50.9047 28.1469C50.9047 28.1711 50.8805 28.1953 50.8805 28.2195Z" fill="#C7A363"/>
<path d="M49.6225 34.3691V34.4176C50.155 34.6596 50.6875 34.9017 51.22 35.1195C51.2442 35.1195 51.2685 35.1437 51.2927 35.1437C51.8494 35.3616 52.1157 35.6278 52.1641 36.233C52.1399 35.6036 51.8736 35.3374 51.2927 35.0953C51.2685 35.0953 51.2442 35.0711 51.22 35.0711C50.6875 34.8533 50.155 34.6112 49.6225 34.3691Z" fill="#C7A363"/>
<path d="M56.4236 43.0114C56.593 43.4471 56.8109 43.8586 57.053 44.2701C57.4887 45.0204 57.6823 45.6498 57.8275 46.1581C57.8517 46.2549 57.876 46.3517 57.9244 46.4728L58.6505 48.7723L58.6747 48.8207C60.3449 47.5378 60.9017 47.562 62.7413 48.8933C63.1044 49.1596 63.4433 49.4501 63.8064 49.7405C63.8548 49.7163 63.9274 49.6679 64 49.6437C63.2738 48.1672 62.5961 46.6422 61.7973 45.2141C61.5794 44.8026 60.9985 44.4879 60.5144 44.3427C59.6914 44.1006 59.062 43.6407 58.6263 42.9145C58.5537 42.7935 58.4811 42.6483 58.3601 42.5514C57.9728 42.2126 57.5613 41.9221 57.174 41.6074C56.8835 42.0431 56.6415 42.5272 56.4236 43.0114Z" fill="#C7A363"/>
<path d="M52.0899 40.5664C52.2352 41.7767 52.5257 42.987 52.9614 44.1489C52.9856 44.1731 52.9856 44.1731 53.0098 44.1973C52.9856 44.1731 52.9856 44.1246 52.9614 44.1004C52.5257 42.9628 52.211 41.7767 52.0899 40.5664Z" fill="#C7A363"/>
<path d="M45.5301 44.9223V44.9465C45.6754 44.6561 45.8206 44.3656 45.9658 44.0751C46.0385 43.9299 46.1111 43.8089 46.1595 43.6636C46.7162 44.0993 47.2972 44.5351 47.8539 44.995C47.9507 45.0676 47.9991 45.1644 48.0717 45.2612C48.1202 45.358 48.1686 45.4307 48.217 45.5275C48.8463 46.5683 49.7177 47.1977 50.9038 47.5608C51.5816 47.7786 52.4046 48.2143 52.7192 48.7953C52.8403 49.0131 52.9613 49.231 53.0823 49.473C53.1065 49.4972 53.1065 49.5214 53.1307 49.5456C53.1307 49.5698 53.1549 49.594 53.1549 49.594C53.276 49.8361 53.4212 50.1024 53.5422 50.3444C53.6149 50.4655 53.6633 50.5865 53.7359 50.7075C53.8085 50.8285 53.8569 50.9496 53.9295 51.0706C54.0748 51.3611 54.22 51.6515 54.3652 51.942C54.3652 51.942 54.3652 51.942 54.3652 51.9178C54.3652 51.9178 54.3652 51.8936 54.341 51.8936C54.1958 51.6031 54.0506 51.3127 53.9053 51.0222C53.8569 50.9012 53.7843 50.7801 53.7117 50.6591C53.6633 50.5381 53.5907 50.417 53.518 50.296C53.397 50.054 53.2518 49.7877 53.1307 49.5456C53.1065 49.5214 53.1065 49.4972 53.1065 49.4972C53.1065 49.473 53.0823 49.4488 53.0581 49.4246C52.9371 49.2068 52.8161 48.9647 52.695 48.7468C52.3804 48.1659 51.5574 47.7302 50.8796 47.5124C49.6935 47.1493 48.8221 46.5199 48.217 45.4791C48.1686 45.4065 48.1202 45.3096 48.0475 45.2128C47.9749 45.116 47.9023 45.0192 47.8297 44.9465C47.273 44.4866 46.692 44.0509 46.1353 43.6152C46.0627 43.7605 45.9901 43.8815 45.9416 44.0267C45.8206 44.3172 45.6754 44.6319 45.5301 44.9223Z" fill="#C7A363"/>
<path d="M40.9324 41.3887C40.9324 41.4129 40.9324 41.4371 40.9566 41.4613C41.0776 42.1633 41.2228 42.841 41.3923 43.5188C41.3923 43.5672 41.4165 43.6156 41.4165 43.664C41.4407 43.785 41.4649 43.9061 41.5133 44.0271C41.5375 44.1481 41.5617 44.2692 41.6101 44.3902C41.6585 44.5596 41.7069 44.7533 41.7554 44.9227C41.8038 45.1164 41.8522 45.2858 41.9006 45.4794C41.9974 45.8425 42.1184 46.2056 42.2395 46.5687H42.2637C42.2637 46.5445 42.2395 46.5445 42.2395 46.5203C42.1184 46.1572 41.9974 45.7941 41.9006 45.431C41.8522 45.2374 41.8038 45.0679 41.7554 44.8743C41.7069 44.7049 41.6585 44.5112 41.6101 44.3418C41.5859 44.2207 41.5375 44.0997 41.5133 43.9787C41.4891 43.8577 41.4407 43.7366 41.4165 43.6156C41.4165 43.5672 41.3923 43.5188 41.3923 43.4704C41.1986 42.7926 41.0534 42.1148 40.9324 41.3887C40.9324 41.4129 40.9324 41.3887 40.9324 41.3887Z" fill="#C7A363"/>
<path d="M40.7376 40.1777C40.786 40.4924 40.8344 40.8071 40.8828 41.1218C40.8828 41.0976 40.8828 41.0976 40.8828 41.0733C40.8102 40.7829 40.786 40.4924 40.7376 40.1777Z" fill="#C7A363"/>
<path d="M29.748 40.1816C29.748 40.2058 29.748 40.2058 29.748 40.2299L29.6998 40.254L29.748 40.1816Z" fill="white"/>
<path d="M36.1387 43.2553H36.1138V43.2305C36.1138 43.2305 36.1387 43.2305 36.1387 43.2553Z" fill="white"/>
<path d="M41.343 35.1211C41.343 35.1453 41.3673 35.1695 41.3673 35.1937H41.3915L41.4883 35.1453H41.343V35.1211Z" fill="#C7A363"/>
<path d="M41.464 35.1199L41.3672 35.1683H41.343C41.343 35.1441 41.3188 35.1199 41.3188 35.0957H41.464V35.1199ZM41.464 35.1199L41.3672 35.1683H41.343C41.343 35.1441 41.3188 35.1199 41.3188 35.0957H41.464V35.1199ZM36.2114 48.6267L36.1387 48.7477L36.1145 48.7961V48.5541C36.1387 48.5783 36.1872 48.6025 36.2114 48.6267ZM41.464 35.1199L41.3672 35.1683H41.343C41.343 35.1441 41.3188 35.1199 41.3188 35.0957H41.464V35.1199ZM54.3414 51.9429C54.3657 51.9913 54.3899 52.0397 54.4141 52.0881L54.293 52.0155C54.3172 51.9913 54.3414 51.9671 54.3414 51.9429ZM41.464 35.1199L41.3672 35.1683H41.343C41.343 35.1441 41.3188 35.1199 41.3188 35.0957H41.464V35.1199Z" fill="white"/>
<path d="M36.1387 43.2534H36.1138V43.2285C36.1138 43.2285 36.1387 43.2285 36.1387 43.2534Z" fill="white"/>
<path d="M29.6998 40.252L29.748 40.2279C29.748 40.2038 29.748 40.2038 29.748 40.1797L29.6998 40.252Z" fill="#C7A363"/>
<path d="M20.5995 42.7447C20.9868 42.7931 21.3741 42.8415 21.7614 42.8899H21.7372L20.5995 42.7447ZM41.4648 35.1199L41.368 35.1683H41.3438C41.3438 35.1441 41.3196 35.1199 41.3196 35.0957H41.4648V35.1199Z" fill="white"/>
<path d="M29.748 40.1797C29.748 40.2038 29.748 40.2038 29.748 40.2279L29.6998 40.252L29.748 40.1797Z" fill="white"/>
<path d="M36.1138 43.2305V43.2553H36.1387C36.1387 43.2305 36.1138 43.2305 36.1138 43.2305Z" fill="#C7A363"/>
<path d="M29.6998 40.252L29.748 40.2279C29.748 40.2038 29.748 40.2038 29.748 40.1797L29.6998 40.252Z" fill="#C7A363"/>
<path d="M54.3414 51.9434C54.3414 51.9676 54.3172 51.9918 54.293 52.016L54.4141 52.0886C54.3899 52.0402 54.3657 51.9918 54.3414 51.9434Z" fill="#C7A363"/>
<path d="M36.1141 48.5312V48.7733L36.1383 48.7249L36.2109 48.6039C36.1867 48.6039 36.1383 48.5797 36.1141 48.5312Z" fill="#C7A363"/>
<path d="M20.5745 42.7441L21.7121 42.8894H21.7363C21.3732 42.8168 20.986 42.7926 20.5745 42.7441Z" fill="#C7A363"/>
<path d="M20.4766 42.7211C20.5008 42.7211 20.5492 42.7211 20.5735 42.7211L20.5977 42.6484C20.5735 42.6726 20.525 42.6968 20.4766 42.7211Z" fill="#C7A363"/>
<path d="M20.5979 42.7441C20.9852 42.7926 21.3725 42.841 21.7598 42.8894H21.7356L20.5979 42.7441Z" fill="white"/>
<path d="M12.4407 42.5996H12.4648H12.4407V42.6478C12.4166 42.6478 12.4166 42.6478 12.3925 42.6237L12.4407 42.5996Z" fill="white"/>
<path d="M41.4648 35.1219L41.368 35.1703H41.3438C41.3438 35.1461 41.3196 35.1219 41.3196 35.0977H41.4648V35.1219ZM41.4648 35.1219L41.368 35.1703H41.3438C41.3438 35.1461 41.3196 35.1219 41.3196 35.0977H41.4648V35.1219ZM41.4648 35.1219L41.368 35.1703H41.3438C41.3438 35.1461 41.3196 35.1219 41.3196 35.0977H41.4648V35.1219ZM41.4648 35.1219L41.368 35.1703H41.3438C41.3438 35.1461 41.3196 35.1219 41.3196 35.0977H41.4648V35.1219ZM41.4648 35.1219L41.368 35.1703H41.3438C41.3438 35.1461 41.3196 35.1219 41.3196 35.0977H41.4648V35.1219ZM41.4648 35.1219L41.368 35.1703H41.3438C41.3438 35.1461 41.3196 35.1219 41.3196 35.0977H41.4648V35.1219ZM41.4648 35.1219L41.368 35.1703H41.3438C41.3438 35.1461 41.3196 35.1219 41.3196 35.0977H41.4648V35.1219ZM41.4648 35.1219L41.368 35.1703H41.3438C41.3438 35.1461 41.3196 35.1219 41.3196 35.0977H41.4648V35.1219ZM41.4648 35.1219L41.368 35.1703H41.3438C41.3438 35.1461 41.3196 35.1219 41.3196 35.0977H41.4648V35.1219Z" fill="#C7A363"/>
<path d="M29.748 40.1816C29.748 40.2058 29.748 40.2058 29.748 40.2299L29.6998 40.254L29.748 40.1816Z" fill="#C7A363"/>
<path d="M29.748 40.1816C29.748 40.2058 29.748 40.2058 29.748 40.2299L29.6998 40.254L29.748 40.1816Z" fill="#C7A363"/>
<path d="M29.748 40.1816C29.748 40.2058 29.748 40.2058 29.748 40.2299L29.6998 40.254L29.748 40.1816Z" fill="#C7A363"/>
<path d="M29.748 40.1816C29.748 40.2058 29.748 40.2058 29.748 40.2299L29.6998 40.254L29.748 40.1816Z" fill="#C7A363"/>
<path d="M29.748 40.1816C29.748 40.2058 29.748 40.2058 29.748 40.2299L29.6998 40.254L29.748 40.1816Z" fill="#C7A363"/>
<path d="M36.1387 43.2553H36.1138V43.2305C36.1138 43.2305 36.1387 43.2305 36.1387 43.2553Z" fill="#C7A363"/>
<path d="M29.748 40.1816C29.748 40.2058 29.748 40.2058 29.748 40.2299L29.6998 40.254L29.748 40.1816Z" fill="#C7A363"/>
<path d="M36.1387 43.2553H36.1138V43.2305C36.1138 43.2305 36.1387 43.2305 36.1387 43.2553Z" fill="#C7A363"/>
<path d="M29.748 40.1816C29.748 40.2058 29.748 40.2058 29.748 40.2299L29.6998 40.254L29.748 40.1816Z" fill="#C7A363"/>
<path d="M29.748 40.1816C29.748 40.2058 29.748 40.2058 29.748 40.2299L29.6998 40.254L29.748 40.1816Z" fill="#C7A363"/>
<path d="M36.1387 43.2553H36.1138V43.2305C36.1138 43.2305 36.1387 43.2305 36.1387 43.2553Z" fill="#C7A363"/>
<path d="M29.748 40.1816C29.748 40.2058 29.748 40.2058 29.748 40.2299L29.6998 40.254L29.748 40.1816Z" fill="#C7A363"/>
<path d="M29.748 40.1816C29.748 40.2058 29.748 40.2058 29.748 40.2299L29.6998 40.254L29.748 40.1816Z" fill="#C7A363"/>
<path d="M29.748 40.1816C29.748 40.2058 29.748 40.2058 29.748 40.2299L29.6998 40.254L29.748 40.1816Z" fill="#C7A363"/>
<path d="M29.748 40.1816C29.748 40.2058 29.748 40.2058 29.748 40.2299L29.6998 40.254L29.748 40.1816Z" fill="#C7A363"/>
<path d="M29.748 40.1816C29.748 40.2058 29.748 40.2058 29.748 40.2299L29.6998 40.254L29.748 40.1816Z" fill="#C7A363"/>
<path d="M29.748 40.1816C29.748 40.2058 29.748 40.2058 29.748 40.2299L29.6998 40.254L29.748 40.1816Z" fill="#C7A363"/>
<path d="M45.5309 44.9739C45.652 45.3612 45.773 45.7243 45.894 46.1116C45.9908 46.402 46.1119 46.7167 46.2087 47.0072C46.2571 47.1766 46.3297 47.3218 46.3781 47.4913C46.4265 47.6607 46.4749 47.8302 46.5234 47.9754C46.5718 48.0964 46.596 48.2175 46.6444 48.3627L48.363 53.8574C49.5007 52.986 50.251 52.5503 51.0498 52.5503C51.8728 52.5503 52.72 53.0344 54.0513 53.9784C54.5597 54.3415 55.068 54.7772 55.5521 55.1645L55.8184 55.0193L55.7942 54.9951C55.31 54.0268 54.8501 53.0344 54.3902 52.0662L54.2692 51.9936C54.2934 51.9693 54.2934 51.9451 54.3176 51.9209C54.1724 51.6305 54.0271 51.34 53.8819 51.0495C53.8335 50.9285 53.7609 50.8075 53.6883 50.6864C53.6398 50.5654 53.5672 50.4444 53.4946 50.3234C53.3736 50.0813 53.2283 49.815 53.1073 49.573C53.1073 49.5488 53.0831 49.5246 53.0831 49.5246C53.0589 49.5004 53.0589 49.4762 53.0347 49.452C52.9137 49.2341 52.7926 48.992 52.6716 48.7742C52.3569 48.1933 51.5339 47.7575 50.8562 47.5397C49.6701 47.1766 48.7987 46.5473 48.1693 45.5064C48.1209 45.4338 48.0725 45.337 48.0241 45.2402C47.9515 45.1433 47.8789 45.0465 47.8063 44.9739C47.2495 44.514 46.6928 44.0783 46.1119 43.6426C46.0392 43.7878 45.9666 43.9088 45.9182 44.0541C45.8214 44.3687 45.6762 44.6592 45.5309 44.9739Z" fill="#C7A363"/>
<path d="M44.273 23.4561C44.273 23.4077 44.273 23.3592 44.2488 23.3108C44.8056 23.1656 45.4107 23.1172 46.0158 23.1172C46.7662 23.1172 47.5408 23.1898 48.267 23.3108C49.913 23.6497 50.8086 24.8358 50.8328 24.8842C50.8328 24.8842 50.8328 24.9084 50.857 24.9568C50.857 24.981 50.857 25.0052 50.857 25.0294C49.7677 25.804 47.9523 27.1837 47.6618 27.5226C47.6376 27.5468 47.6134 27.571 47.6134 27.5952C48.7995 26.8691 49.9856 26.1671 51.2443 25.3925C51.2685 25.3925 51.2927 25.3683 51.3169 25.3683C51.3653 25.3683 51.3895 25.3925 51.4137 25.4167C51.6316 25.683 51.8494 25.9493 52.0915 26.2639C52.1641 26.3608 52.2367 26.4334 52.3093 26.5302C52.3577 26.5786 52.382 26.6512 52.382 26.7238C52.382 26.8449 52.3335 26.9659 52.2125 27.0385C51.8736 27.208 51.5105 27.3774 51.099 27.571C49.1868 28.5151 46.7662 29.7496 46.2337 30.0884C46.1611 30.1368 46.1127 30.1611 46.1369 30.1853C47.7102 29.5317 49.2836 28.8782 50.8812 28.2004C51.3895 27.9825 51.8978 27.7647 52.4062 27.571H52.4304C52.4304 27.9583 52.4304 28.3214 52.4546 28.7087C52.4546 28.8539 52.4788 28.9992 52.4788 29.1444C52.503 29.3865 52.503 29.6043 52.5272 29.8222C52.5514 30.04 52.5756 30.2821 52.5998 30.4999C52.5998 30.621 52.624 30.7178 52.6482 30.8146C52.6482 30.8872 52.6724 30.9356 52.6724 31.0083C52.6966 31.2261 52.7208 31.444 52.7692 31.6618C52.7934 31.7828 52.7934 31.9039 52.8177 32.0249C52.8661 32.388 52.9387 32.7511 53.0355 33.1142C53.0597 33.2352 53.0839 33.3562 53.1081 33.4772C53.1323 33.6467 53.1807 33.8161 53.2292 33.9856C53.2776 34.2034 53.326 34.3971 53.3986 34.5907C53.447 34.7601 53.4954 34.9296 53.5438 35.099C53.6891 35.5831 53.8343 36.0673 54.0037 36.5272C54.1006 36.8418 54.2216 37.1565 54.3426 37.4712C54.3668 37.4954 54.3668 37.5196 54.3668 37.5438C54.391 37.7374 54.2216 37.8585 54.0521 37.8585C53.9553 37.8585 53.8585 37.8101 53.8101 37.7132C53.6649 37.3986 53.5196 37.0839 53.3744 36.7692C53.2534 36.503 53.1323 36.2367 53.0355 35.9704C52.9145 35.68 52.7692 35.3895 52.6482 35.099C52.5514 34.8812 52.4546 34.6875 52.3577 34.4697C51.8978 33.4772 50.8086 32.8479 49.6709 32.7753C49.5741 32.7753 49.5015 32.7753 49.4046 32.7753C48.7269 32.7753 48.0491 32.9689 47.4682 33.3562C47.444 33.3562 47.444 33.3804 47.4198 33.3804C48.1944 33.7193 48.9205 34.0824 49.6467 34.4213C50.1792 34.6633 50.7118 34.9054 51.2443 35.1232C51.2685 35.1232 51.2927 35.1474 51.3169 35.1474C51.8736 35.3653 52.1399 35.6315 52.1883 36.2367C52.1883 36.2609 52.1883 36.3093 52.1883 36.3335C52.1883 36.3819 52.1883 36.4303 52.1883 36.4787C52.1883 36.6482 52.1641 36.8176 52.1399 37.0355C52.1399 37.0597 52.1399 37.0839 52.1399 37.1081C52.1399 37.1565 52.1157 37.2291 52.1157 37.2775C52.0673 37.5922 52.0431 37.9069 52.0431 38.2216C52.0431 38.3426 52.0431 38.4394 52.0189 38.5604C52.0189 38.8267 52.0189 39.1172 52.0189 39.3834C52.0189 39.4076 52.0189 39.4318 52.0189 39.4561C52.0189 39.5529 52.0189 39.6497 52.0431 39.7465C52.0673 40.037 52.0915 40.3275 52.1157 40.5937C52.2609 41.804 52.5514 43.0143 52.9871 44.1762C53.0355 44.2972 53.0839 44.4182 53.1323 44.5151C53.1323 44.5393 53.1565 44.5393 53.1565 44.5635C53.1565 44.5635 53.1323 44.5635 53.1323 44.5393C52.6724 44.3214 52.2851 44.1762 52.0189 44.1036C51.559 43.9583 51.4863 43.8373 51.3895 43.6679L51.3653 43.6194C51.1959 43.329 50.857 42.7722 50.2518 42.2397C49.7919 41.8524 49.3562 41.5135 48.9205 41.1747C48.7753 41.0536 48.6301 40.9326 48.4606 40.8116L46.7178 39.4318C46.6694 39.2866 46.5968 39.1656 46.5 39.0446C46.5242 38.9719 46.5726 38.8751 46.5968 38.8025C46.7178 38.4394 46.7904 38.0279 46.8146 37.6406C46.8146 37.5922 46.8146 37.5196 46.8146 37.4712C46.8146 37.3986 46.8146 37.3259 46.8146 37.2533C46.8146 37.1323 46.7904 37.0355 46.7662 36.9145C46.7178 36.6482 46.6452 36.3819 46.5484 36.1157C46.4273 35.7768 46.3063 35.4379 46.1853 35.099C45.3139 32.63 44.7571 30.2821 44.5151 27.9825C44.4667 27.6195 44.4425 27.2806 44.4183 26.9417C44.3941 26.7723 44.3941 26.5786 44.3941 26.4092C44.3699 25.9008 44.3699 25.3925 44.3699 24.9084V24.8842C44.3699 24.8358 44.3699 24.7632 44.3699 24.7148C44.3699 24.5453 44.3456 24.4001 44.3214 24.2307C44.3214 24.2064 44.3214 24.2064 44.3214 24.2064C44.3214 24.1338 44.3214 24.0854 44.3214 24.0128C44.3214 23.916 44.3214 23.7949 44.3214 23.6981C44.2972 23.6255 44.2972 23.5529 44.273 23.4561Z" fill="#C7A363"/>
<path d="M7.72187 21.8099C7.72187 21.7615 7.72187 21.7373 7.72187 21.7131C8.06075 19.5345 8.44804 17.3802 8.90795 15.2259C9.10159 14.3545 9.48889 13.5315 10.4087 13.5315C10.5055 13.5315 10.5781 13.5315 10.675 13.5557C10.675 13.5315 10.6508 13.5315 10.6508 13.5073C10.5297 13.1684 10.2877 12.8054 10.2877 12.5391C10.2877 12.5391 10.2877 12.5391 10.2877 12.5149C10.2877 12.4665 10.2877 12.4181 10.3119 12.3939C11.8126 8.85982 14.209 6.07616 17.7188 4.06708C17.6704 4.64802 17.6462 5.08372 17.5978 5.73728C17.5978 5.76148 17.5978 5.76148 17.5978 5.78569C20.0184 2.95362 22.8504 1.40445 26.3845 0.96875C26.4087 0.96875 26.4087 0.96875 26.4329 0.96875C25.6341 2.13063 24.9321 3.14727 24.206 4.18811C24.1818 4.21232 24.1576 4.23652 24.1334 4.28493C26.8202 2.27586 29.5796 1.1624 32.4843 1.1624C34.3724 1.1624 36.333 1.6223 38.4147 2.61474C38.4389 2.61474 38.4389 2.63895 38.4631 2.63895L36.914 3.2925L36.8656 3.31671C37.2044 3.51035 37.4707 3.51035 37.737 3.55876C41.0289 3.97026 43.7158 5.44681 45.6038 8.18206C45.6764 8.27888 45.7007 8.42411 45.7249 8.59355C45.7249 8.64197 45.7249 8.69038 45.7249 8.73879C45.7249 8.76299 45.7249 8.81141 45.7249 8.83561C45.7249 8.93243 45.7249 9.05346 45.7249 9.17449C45.7249 9.2229 45.7249 9.29552 45.7249 9.34393C45.7249 9.39234 45.7249 9.41655 45.7249 9.46496C45.7249 9.48917 45.7249 9.48917 45.7249 9.51337C46.451 10.0459 46.9594 10.5784 47.2498 11.1352C47.2982 11.232 47.3224 11.3288 47.3466 11.4256C47.3466 11.4498 47.3466 11.474 47.3466 11.474C47.3708 11.9824 46.9593 12.4181 46.451 12.4181C46.3542 12.4181 46.2816 12.3939 46.1848 12.3696C46.1606 12.3696 46.1606 12.3696 46.1364 12.3696L47.1772 13.7978L47.2256 13.8462C45.9911 13.5315 44.9745 13.1684 43.9094 13.0232C43.3527 12.9506 42.796 12.9264 42.2392 12.9264C41.7067 12.9264 41.1742 12.9506 40.6659 12.9506C39.2135 12.9748 38.1001 13.4831 37.7128 15.0565C37.4223 16.2184 36.9866 17.356 36.5993 18.4937C36.5025 18.76 36.4541 19.002 36.4541 19.2199C36.4541 19.2683 36.4541 19.3167 36.4541 19.3651C36.4783 19.8976 36.7687 20.3091 37.4707 20.5996C37.9306 20.7932 38.2937 21.1805 38.8262 21.592C38.8504 21.6162 38.8504 21.6162 38.8504 21.6404C38.8504 21.6889 38.8504 21.7131 38.8262 21.7373C37.4707 22.7055 35.1954 24.4241 34.9049 24.8114C34.8807 24.8356 34.8807 24.8598 34.8807 24.884C36.3088 24.0368 37.7128 23.1654 39.2377 22.2456C39.2619 22.2214 39.3103 22.1972 39.3345 22.1972C39.3588 22.173 39.383 22.173 39.4314 22.173C39.4798 22.173 39.5282 22.1972 39.5524 22.2214C39.8671 22.6087 40.1817 22.996 40.569 23.4801C40.5932 23.5285 40.6417 23.5527 40.6659 23.6011C40.7143 23.6495 40.7385 23.7221 40.7385 23.7948V23.819C40.7627 23.9642 40.6659 24.1336 40.5206 24.2062C40.2544 24.3515 39.9397 24.4967 39.625 24.642C38.7294 25.0777 37.7128 25.586 36.7687 26.0701C35.0501 26.9415 33.5252 27.7403 33.1621 27.9823C33.1137 28.0308 33.0653 28.055 33.0653 28.055C34.2271 27.5708 35.3648 27.0867 36.5509 26.6026C37.3739 26.2637 38.2211 25.9007 39.0441 25.5618C39.625 25.3197 40.1817 25.0777 40.7627 24.8356C40.7869 24.8356 40.7869 24.8356 40.7869 24.8598C40.7869 25.2713 40.7869 25.6828 40.8111 26.0943V26.1427C40.8111 26.2879 40.8111 26.4332 40.8353 26.5784C40.8353 26.7721 40.8595 26.9899 40.8595 27.1836C40.8837 27.3288 40.8837 27.4982 40.9079 27.6677C40.9563 28.1034 40.9805 28.5633 41.0532 28.999C41.2952 30.9112 41.7067 32.7751 42.2876 34.6147C42.3361 34.7842 42.3845 34.9294 42.4329 35.0988C42.6265 35.704 42.8444 36.3091 43.0622 36.9143C43.1106 37.0837 43.1833 37.2531 43.2559 37.4226C43.2559 37.4468 43.2801 37.471 43.2801 37.4952C43.3043 37.6646 43.159 37.8099 42.9896 37.8099C42.9412 37.8099 42.8686 37.7857 42.8202 37.7615C42.6507 37.6404 42.5297 37.4952 42.4571 37.3258C42.3845 37.1805 42.3361 37.0595 42.2634 36.9143C41.9972 36.3333 41.7309 35.7524 41.4889 35.1714H41.5131L41.6099 35.123H41.4889C41.4404 35.0262 41.392 34.9052 41.3678 34.8084C41.15 34.3242 40.9563 33.8401 40.7143 33.3802C40.5206 32.9687 40.2302 32.6056 39.8913 32.291C39.383 31.8553 38.7536 31.5406 38.0758 31.3953C37.7612 31.3227 37.4223 31.2743 37.0834 31.2743C36.8172 31.2743 36.5267 31.2985 36.2604 31.3469C35.7279 31.4438 35.1954 31.6616 34.7113 31.9763C34.687 31.9763 34.687 32.0005 34.6628 32.0005C35.1954 32.2425 35.7279 32.4846 36.2604 32.7267C36.8656 33.0171 37.4707 33.2834 38.0758 33.5497C38.5358 33.7675 38.9957 33.9612 39.4798 34.1548C39.625 34.2274 39.7702 34.2758 39.8913 34.3484C40.206 34.5421 40.3754 34.7599 40.4722 35.0988C40.4964 35.1714 40.4964 35.2441 40.5206 35.3167C40.5206 35.3409 40.5206 35.3893 40.5448 35.4377C40.5448 35.4861 40.5448 35.5103 40.5448 35.5587V35.5829C40.5448 35.6071 40.5448 35.6071 40.5448 35.6314C40.5448 35.6798 40.5448 35.7282 40.5448 35.7524C40.5448 35.8492 40.5448 35.946 40.5448 36.0428C40.5448 36.1155 40.5448 36.1881 40.5448 36.2849C40.5448 36.4785 40.569 36.6964 40.569 36.89C40.569 36.9869 40.569 37.0595 40.5932 37.1563C40.6174 37.471 40.6174 37.7615 40.6417 38.0761C40.6417 38.1003 40.6417 38.1003 40.6417 38.1245C40.6659 38.3908 40.6901 38.6329 40.7143 38.8991C40.7385 39.117 40.7627 39.359 40.7869 39.5769C40.8111 39.7705 40.8353 39.94 40.8595 40.1336C40.9079 40.4483 40.9563 40.763 41.0047 41.0776C41.0047 41.1018 41.0047 41.1261 41.0047 41.1261C41.0047 41.1987 41.0289 41.2713 41.0289 41.3197C41.0289 41.3439 41.0289 41.3681 41.0532 41.3923C41.1742 42.0943 41.3194 42.772 41.4889 43.4498C41.4889 43.4982 41.5131 43.5466 41.5131 43.595C41.5373 43.7161 41.5615 43.8371 41.6099 43.9581C41.6341 44.0792 41.6583 44.2002 41.7067 44.3212C41.7551 44.4907 41.8035 44.6843 41.8519 44.8537C41.9004 45.0474 41.9488 45.2168 41.9972 45.4105C42.094 45.7736 42.215 46.1366 42.3361 46.4997C42.5297 47.0565 42.7233 47.6374 42.9412 48.1941C43.0138 48.3878 43.0864 48.6056 43.1591 48.8235C43.1591 48.8477 43.1833 48.8719 43.1833 48.9203C43.1833 48.9203 43.1833 48.8961 43.1591 48.8961C42.0456 46.9354 39.8913 46.0882 39.0199 45.822C38.6326 45.7009 38.4147 45.5799 38.2453 45.3863C38.1727 45.3136 38.1243 45.241 38.0758 45.1442L38.0274 45.0716C38.0032 45.0232 37.979 44.999 37.9548 44.9506C37.9548 44.9506 37.9548 44.9264 37.9306 44.9264C37.7854 44.6843 37.5917 44.3696 37.2771 44.0549C37.2529 44.0307 37.2286 43.9823 37.1802 43.9581C37.0834 43.8613 36.9866 43.7645 36.8656 43.6677C36.6477 43.4982 36.4541 43.3288 36.2362 43.1593L36.212 43.1351C35.9457 42.9173 35.6795 42.6994 35.4132 42.5058C35.2438 42.3848 35.0743 42.2395 34.9049 42.1185L34.4934 41.8038L32.799 40.4725L32.1212 39.94L31.9518 39.7947L31.3709 39.3348L31.2014 39.6979L30.451 41.2713C30.1122 40.9808 29.9427 40.6177 29.8943 40.1578C29.8943 40.1336 29.8943 40.1336 29.8943 40.1094C29.8943 40.0852 29.8943 40.0852 29.8943 40.061C29.8943 40.0126 29.8943 39.9884 29.8943 39.94C29.8943 39.9158 29.8943 39.8674 29.8943 39.8432C29.8943 39.7705 29.8943 39.6737 29.8943 39.5769C29.8943 39.4801 29.8943 39.4074 29.9185 39.3106C29.9669 38.8023 29.9669 38.294 29.9669 37.7615C29.9669 37.7373 29.9669 37.7373 29.9669 37.713C29.9669 37.4226 29.9427 37.1321 29.9185 36.8416C29.8943 36.5512 29.8701 36.2365 29.8217 35.946C29.7975 35.6314 29.7491 35.3409 29.7007 35.0262C29.6765 34.9052 29.6765 34.7842 29.6523 34.6389C29.5312 33.8401 28.8777 33.4528 28.0789 33.4528C27.9821 33.4528 27.8852 33.4528 27.7884 33.477C26.917 33.5739 26.4329 34.0822 26.2877 34.9536C26.2635 35.1472 26.2392 35.3409 26.1908 35.5345C26.1666 35.704 26.1424 35.8734 26.1424 36.0428V36.0671C26.094 36.8658 25.7309 37.3742 25.0774 37.713C24.9563 37.7615 24.8353 37.8341 24.6901 37.8825C24.3028 38.0035 23.9155 38.1487 23.5282 38.294H23.504C23.2861 38.3666 23.0683 38.4392 22.8504 38.536C22.7778 38.5118 22.7294 38.4876 22.6568 38.4634C22.4147 38.3666 22.1727 38.294 21.9306 38.2214C21.2529 38.0035 20.5509 37.7857 19.8731 37.6162C19.8731 37.592 19.8731 37.592 19.8973 37.5678C19.9458 37.4226 19.9942 37.2773 20.0426 37.1321C20.1394 36.769 20.1878 36.4059 20.1878 36.0428C20.1878 35.9944 20.1878 35.946 20.1878 35.8976C20.1878 35.825 20.1878 35.7524 20.1878 35.6556C20.1152 34.3484 19.4859 33.0898 18.3966 32.1457C18.1787 31.9521 18.0577 31.71 18.0335 31.468C18.0335 31.4438 18.0335 31.4438 18.0335 31.4196C18.0335 31.1533 18.1787 30.887 18.445 30.6934C19.2922 30.1124 20.1878 29.5557 21.035 28.9748C21.035 28.9506 21.0108 28.9506 21.0108 28.9264C20.9866 28.878 20.9866 28.878 20.9382 28.8053C20.0426 29.2168 19.1228 29.6283 18.0093 30.1367C18.0093 30.1124 18.0093 30.1124 18.0093 30.0882C18.2514 26.7236 19.6553 24.061 21.9548 21.7131L21.9306 21.6889C21.3981 21.2774 20.9382 20.9143 20.4299 20.527C18.6871 22.6571 17.743 25.0292 17.2831 27.5951C17.1863 28.1518 17.2105 28.8537 16.8716 29.1926C15.6129 30.4755 15.4193 32.1215 15.1772 33.7433C15.0078 34.8326 14.4753 35.8734 13.7007 36.769C13.5312 36.769 13.3618 36.769 13.2166 36.769C11.5464 36.769 9.80356 36.9143 8.06075 37.2047C8.06075 37.1805 8.06075 37.1805 8.06075 37.1563C8.39963 35.6798 8.54486 34.179 8.52066 32.6783C8.52066 32.4362 8.49645 32.2183 8.49645 31.9763C8.49645 31.8795 8.49645 31.7826 8.47225 31.6858C8.47225 31.589 8.44804 31.4922 8.44804 31.3953C8.42383 31.0565 8.37542 30.7176 8.32701 30.4029C8.23019 29.7252 8.15757 29.0474 8.10916 28.3696C8.01234 27.2804 7.98813 26.1911 7.93972 25.1019C7.91551 24.3031 8.13337 23.4801 8.23019 22.7297C8.23019 22.7297 8.23019 22.7297 8.23019 22.7055C7.96392 22.5118 7.72187 22.1246 7.72187 21.8099ZM23.0199 20.5754C24.6901 19.946 26.2393 19.2683 27.8368 18.8084C28.7809 18.5421 29.8217 18.5421 30.8383 18.5421C31.6129 18.5421 31.6855 18.1064 31.7097 17.5497C31.7339 17.0171 31.8308 16.4846 31.032 16.412C30.6205 16.3878 30.2332 16.3636 29.8459 16.3636C26.917 16.3636 24.3028 17.3318 21.8822 19.2441L23.0199 20.5754Z" fill="#C7A363"/>
<path d="M36.1161 48.5332V48.7753L36.1403 48.7268L36.2129 48.6058C36.1887 48.6058 36.1403 48.5816 36.1161 48.5332Z" fill="#C7A363"/>
<path d="M20.5745 42.748L21.7121 42.8933H21.7363C21.3732 42.8207 20.986 42.7965 20.5745 42.748Z" fill="#C7A363"/>
<path d="M20.4786 42.725C20.5028 42.725 20.5512 42.725 20.5754 42.725L20.5996 42.6523C20.5754 42.6765 20.527 42.7008 20.4786 42.725Z" fill="#C7A363"/>
<path d="M12.37 42.6519C12.3942 42.6519 12.3942 42.6519 12.4184 42.6761L12.4426 42.6277L12.4668 42.6035H12.4426L12.37 42.6519Z" fill="#C7A363"/>
<path d="M0.000293732 51.172C0.653851 49.3324 1.76731 47.8316 3.14704 46.4519C4.30891 45.29 5.64023 44.7575 7.14098 44.7575C7.40725 44.7575 7.67351 44.7817 7.93977 44.8059C8.13342 44.8301 8.32706 44.8543 8.54491 44.9027C8.54491 44.8785 8.54491 44.8785 8.54491 44.8543C8.54491 44.7575 8.52071 44.6607 8.52071 44.5396C8.4965 44.5396 8.49651 44.5396 8.4723 44.5396C6.97154 44.3702 5.44658 44.1766 3.80059 43.9829C3.8248 43.9829 3.84901 43.9587 3.87321 43.9587C4.47836 43.6682 5.1077 43.3778 5.71284 43.1599C6.89893 42.7 8.10921 42.4337 9.3195 42.4337C9.99726 42.4337 10.6992 42.5306 11.4012 42.7242C11.5706 42.7726 11.7401 42.821 11.8853 42.8936C11.9821 42.9179 12.079 42.9663 12.2 43.0147C12.4178 43.1115 12.6599 43.2083 12.8777 43.3294L12.9262 42.8452C12.7567 42.7968 12.5873 42.7484 12.4178 42.6758L12.442 42.6274L12.4662 42.6032H12.442L12.3936 42.6274C12.2484 42.579 12.1032 42.5306 11.9579 42.4821C10.9171 42.1675 9.85202 41.8286 8.73856 41.4655C8.35127 41.3445 7.93977 41.2235 7.52827 41.0782C7.55248 41.0782 7.57669 41.0782 7.6251 41.054C9.07744 40.7635 10.4814 40.5941 11.8369 40.5457C12.2242 40.5215 12.5873 40.5215 12.9504 40.5215C12.9988 40.5215 13.0472 40.5215 13.0956 40.5215C14.0154 40.5215 14.9352 40.5699 15.8308 40.6667C16.9927 40.7877 18.1304 41.0056 19.2438 41.2961C19.5343 41.3687 19.8006 41.4413 20.091 41.5381C20.3573 41.6107 20.5994 41.7076 20.8656 41.8044C21.1803 41.9012 21.495 42.0222 21.7854 42.1433C22.1001 42.2643 22.3906 42.3853 22.7053 42.5306C23.141 42.7242 23.5767 42.9179 24.0124 43.1599C24.0124 43.1599 24.0366 43.1599 24.0366 43.1841C24.2786 43.3051 24.4965 43.4262 24.7385 43.5472C25.4647 43.9345 26.1667 44.3702 26.8687 44.8301C27.2801 45.0964 27.7158 45.3868 28.1273 45.7015C29.3618 46.6213 30.5721 47.638 31.7582 48.7756C31.734 48.7514 31.734 48.7272 31.7098 48.703C31.5161 48.2915 31.2983 48.0011 31.2983 47.8074C31.2983 47.7832 31.2983 47.759 31.3225 47.7348C31.5161 47.2507 31.7582 46.7666 31.9761 46.2824C32.1697 45.871 32.3876 45.4595 32.5812 45.0722C33.2105 45.5805 33.8399 46.0646 34.4692 46.5729C34.6387 46.7182 34.7597 46.9602 34.8807 47.1539C35.2196 47.7348 35.6553 48.1947 36.1394 48.5578V48.7998L36.1636 48.7514L36.2363 48.6304C36.7204 48.9693 37.2529 49.2113 37.858 49.405C38.6084 49.647 39.5282 50.1312 39.8913 50.7847C40.1334 51.1962 40.3512 51.6077 40.5691 52.0192C41.4163 53.6168 42.1667 55.2628 42.9412 56.8846C43.0865 57.175 43.2075 57.4655 43.3527 57.756L43.377 57.7802C43.2317 57.9012 43.2559 57.877 43.1349 57.9738C42.9655 57.8528 42.8202 57.7076 42.6508 57.5865C42.2393 57.2476 41.8278 56.9088 41.3921 56.5941C40.327 55.8195 39.5524 55.3354 38.8505 55.1175C38.56 55.0207 38.2937 54.9723 38.0275 54.9723C37.616 54.9723 37.2045 55.0691 36.7688 55.287C36.3089 55.5048 35.8006 55.8437 35.2196 56.2794C35.0502 56.4004 34.8807 56.5457 34.6871 56.6909C34.2756 57.0056 33.8399 57.2234 33.4284 57.2234C33.1137 57.2234 32.7991 57.1024 32.4844 56.8361C32.0245 56.4489 31.5888 56.0374 31.1531 55.6259C31.1289 55.6017 31.1289 55.6017 31.1047 55.5775C30.4995 54.9965 29.9428 54.3914 29.4103 53.762C29.3618 53.7136 29.3376 53.6652 29.2892 53.641C28.7809 53.0116 28.2968 52.3581 27.8127 51.7045C27.1591 50.8089 26.5298 49.9133 25.9004 49.0177C25.852 49.0419 25.8762 49.0419 25.8278 49.0661C26.2393 49.8891 26.6992 50.7121 27.1591 51.5351C27.5464 52.2371 27.9095 52.9148 28.2484 53.641C28.5388 54.2703 28.8051 54.8997 29.023 55.5775C29.0472 55.6501 29.0714 55.7227 29.0956 55.7953C29.2408 56.3036 29.3134 56.8119 29.3376 57.3203C29.3376 57.4413 29.3376 57.5623 29.3376 57.6591C29.3376 57.7802 29.3376 57.9012 29.3134 58.0222C29.3134 58.1433 29.2892 58.2401 29.2892 58.3611V58.3853C29.265 58.6274 29.2166 58.8694 29.144 59.1115C29.1198 59.1841 29.0956 59.2567 29.0714 59.3535C29.023 59.5714 28.9503 59.7892 28.8535 59.9829C28.8051 60.0797 28.7809 60.2007 28.7325 60.2976C28.6841 60.3944 28.6357 60.5154 28.5873 60.6122C28.5388 60.7091 28.4904 60.8301 28.442 60.9269C28.3936 61.0237 28.3452 61.0964 28.2968 61.1932C28.2 61.3868 28.0789 61.5805 27.9579 61.7741C27.8853 61.8709 27.8127 61.992 27.7643 62.0888C27.7158 62.1614 27.6674 62.234 27.619 62.3066C27.4496 62.5487 27.2801 62.7908 27.0865 63.0328C26.1667 61.29 25.3437 59.6198 24.4239 58.0222C22.9957 55.5774 20.8172 54.3672 18.0094 54.3672H17.8157C17.4768 54.3672 17.1379 54.343 16.7991 54.343C16.6296 54.343 16.4844 54.343 16.3392 54.3672C15.9519 54.3914 15.5646 54.4156 15.1773 54.4156C12.2 54.4156 9.46473 53.6168 6.99575 51.7771C5.78546 50.8815 4.55097 50.3732 3.26807 50.3732C2.27563 50.3732 1.2832 50.6637 0.26656 51.3172H0.242352C0.193939 51.3172 0.121323 51.2688 0.000293732 51.2204C0.000293732 51.1962 0.000293732 51.1962 0.000293732 51.172ZM20.5994 42.7484L20.6236 42.6758C20.5752 42.7 20.551 42.7242 20.5025 42.7242C20.5267 42.7242 20.551 42.7242 20.5994 42.7484L21.737 42.8936H21.7612C21.3739 42.821 20.9867 42.7968 20.5994 42.7484Z" fill="#C7A363"/>
<path d="M36.1387 43.2573H36.1138V43.2324C36.1138 43.2324 36.1387 43.2324 36.1387 43.2573Z" fill="white"/>
<path d="M41.2707 18.9527C41.2707 18.9769 41.2707 18.9769 41.2707 19.0011C41.3675 20.1872 43.8365 21.0828 44.2964 22.0268C44.2964 22.0268 46.6201 21.1312 48.4356 21.93C48.4356 21.93 48.4356 21.9058 48.4114 21.8816C48.3871 21.7848 48.3629 21.5911 48.3387 21.3249C48.3387 21.2765 48.3387 21.228 48.3387 21.1796C48.3145 20.7681 48.3387 20.2598 48.5082 19.6789C48.5082 19.6547 48.5082 19.6547 48.5324 19.6305C48.6776 19.1464 48.9197 18.6138 49.3312 18.1297L49.3554 18.1055C49.5006 17.9119 49.6943 17.7424 49.9121 17.573C49.9121 17.573 49.9121 17.573 49.8879 17.5488C49.6216 17.3309 47.2979 15.5639 44.0059 16.75C43.6428 16.871 43.2797 17.0405 42.8924 17.2341C41.6822 17.8877 41.2465 18.4444 41.2707 18.9527Z" fill="#C7A363"/>
<path d="M52.8661 23.1649C52.8661 23.1891 52.8661 23.1891 52.8661 23.2133C52.8903 24.0847 54.1974 24.7867 55.1173 25.4645C55.4804 25.7307 55.7708 25.997 55.8918 26.2632C55.8918 26.2632 55.9161 26.2632 55.9887 26.239C55.9887 26.3117 56.0129 26.3843 56.0129 26.4569C56.0129 26.4569 56.0129 26.4811 56.0129 26.5053C56.0371 26.6747 56.0371 26.8442 56.0129 26.9894V27.0136C56.0371 27.1104 56.0371 27.2073 56.0371 27.3041C56.0371 27.3283 56.0371 27.3767 56.0371 27.4251C56.0371 27.4735 56.0371 27.4977 56.0371 27.5461C56.0371 27.5704 56.0371 27.6188 56.0371 27.6672C56.0371 27.7156 56.0371 27.764 56.0371 27.8124C56.0371 27.9819 56.0371 28.1513 56.0371 28.3207C56.0371 28.7564 56.0613 29.1679 56.1097 29.6036C56.1097 29.7247 56.1339 29.8215 56.1339 29.9425C56.1823 30.4024 56.2307 30.8381 56.3033 31.298C56.3518 31.5159 56.376 31.7579 56.4244 31.9758C56.4728 32.1936 56.5212 32.4357 56.5696 32.6536C56.5938 32.7746 56.618 32.8956 56.6422 33.0166C56.6664 33.1377 56.6906 33.2587 56.739 33.3555C56.7633 33.4766 56.7875 33.5976 56.8359 33.6944C56.9569 34.1543 57.1021 34.6384 57.2716 35.1225C57.2958 35.171 57.2958 35.2194 57.32 35.2678C57.4168 35.5824 57.5378 35.8971 57.6589 36.2118C57.7799 36.5507 57.8525 36.8896 57.9009 37.2284C57.9009 37.3253 57.9251 37.4221 57.9251 37.5189C57.9251 37.5673 57.9251 37.6157 57.9251 37.6641C57.9009 38.4145 57.6589 39.1649 57.2232 39.7942C57.199 39.8427 57.1505 39.8911 57.1263 39.9395C58.1672 40.4478 59.1838 41.0287 60.1521 41.6339C61.3865 42.4327 62.5484 43.3525 63.8313 44.3207C63.7345 44.0302 63.6861 43.7882 63.5893 43.5945C62.621 41.0287 62.0643 38.3661 62.0401 35.6067C62.0401 35.0741 61.8465 34.8563 61.3623 34.6626C60.3457 34.2511 59.3775 33.767 58.3124 33.2829C59.6921 32.4357 61.5802 32.9198 62.1853 34.2027C62.5726 35.0257 62.9115 35.8971 63.2988 36.7201C63.4198 36.9622 63.6619 37.1074 63.9766 37.2284C62.8873 34.5174 62.2338 31.7579 62.258 28.829C60.5878 29.531 58.966 30.2088 57.3684 30.8865C57.3684 30.8381 60.612 29.1679 62.3548 28.2965C61.9675 27.8124 61.677 27.4493 61.4108 27.1104C60.4183 27.7156 59.4501 28.2965 58.5303 28.8533C58.5061 28.8048 60.1521 27.4977 61.0961 26.82C60.7088 26.5295 60.4667 26.2632 60.1763 26.1422C60.1036 26.118 60.031 26.0696 59.9584 26.0454C59.8616 25.4887 59.5953 23.3344 61.4592 21.8094C61.4592 21.8094 58.5303 19.2678 54.4395 21.4705C53.9312 21.7368 53.5681 22.003 53.3018 22.2451C53.0114 22.5598 52.8661 22.8744 52.8661 23.1649Z" fill="#C7A363"/>
</svg>
