<svg width="78" height="159" viewBox="0 0 78 159" fill="none" xmlns="http://www.w3.org/2000/svg">
<path fill-rule="evenodd" clip-rule="evenodd" d="M30.8596 0.38262C29.0194 0.625797 28.9358 0.697219 29.0601 1.9131L29.1901 3.1885L28.4996 2.23195C28.1197 1.70564 27.434 1.2754 26.9755 1.2754C25.9347 1.2754 25.936 1.45438 26.9888 2.88666C28.0657 4.35209 30.1091 12.6758 31.0808 19.5562C31.4938 22.4789 31.8806 24.9286 31.9402 24.9991C32.0003 25.0701 33.6016 24.8163 35.4988 24.4354C38.6512 23.802 39.255 23.7994 42.4954 24.4052C44.9766 24.8695 46.1272 24.9315 46.3262 24.6123C46.4827 24.361 46.7323 22.8603 46.8807 21.2762C47.4862 14.8168 50.0108 4.49324 51.4856 2.44452L52.3274 1.2754H51.4183C50.9183 1.2754 50.1245 1.70564 49.6545 2.23195C48.8748 3.1039 48.8242 3.11325 49.0811 2.33824C49.2363 1.87059 49.3972 1.30601 49.4388 1.08409C49.5211 0.643652 44.5817 -0.139444 44.1837 0.250829C44.0491 0.38262 43.721 1.38466 43.4543 2.47725C42.974 4.44435 42.9684 4.44902 42.8882 2.97594C42.8204 1.73837 42.7449 1.63124 42.4383 2.33824C42.1261 3.05841 42.0652 2.98401 42.0395 1.85231C42.0065 0.374118 41.4374 0 39.222 0C36.9268 0 36.438 0.357538 36.3998 2.06487L36.3651 3.61364L35.7758 2.33824L35.1866 1.06283L35.1167 2.5508C35.0498 3.97245 35.0279 3.94907 34.6222 2.01939C34.3135 0.551824 34.0051 0.0174305 33.4935 0.0637701C33.1063 0.0990562 31.921 0.242326 30.8596 0.38262ZM24.4269 3.38066C24.4269 3.83683 24.7297 7.50319 25.0993 11.5279C25.4819 15.6896 25.713 21.644 25.6354 25.3341L25.499 31.8225L26.626 31.5985C28.8449 31.1572 29.9963 32.5508 32.1821 38.3211L33.0454 40.6003L32.8297 37.1992C32.5638 33.007 32.7971 33.4376 33.7607 38.9189L34.5047 43.1511L39.1032 43.2718C39.6176 43.2853 40.0756 43.3032 40.4839 43.3192C42.0998 43.3824 42.9398 43.4153 43.433 43.0208C43.9668 42.5938 44.0944 41.666 44.3601 39.7341C44.4222 39.2833 44.4917 38.7777 44.5757 38.211C45.1876 34.0821 45.9385 31.5279 45.6229 34.6484C45.505 35.8175 45.3219 37.635 45.2164 38.6872C44.9968 40.8766 45.279 40.4574 46.7868 36.354C47.9713 33.1307 49.7214 31.3 51.3866 31.5424L52.5882 31.7171L52.6263 23.7688C52.6607 16.658 53.1594 8.68718 53.8563 4.10977C54.0883 2.58694 54.0385 2.48958 53.0968 2.6218C52.3219 2.73063 51.8746 3.30456 51.1631 5.1016C50.0404 7.9381 48.7011 14.2594 47.8426 20.7708C47.4927 23.4266 47.1119 25.693 46.9965 25.8077C46.8807 25.9221 45.05 25.7805 42.9276 25.4931C39.9815 25.0939 38.297 25.0842 35.8046 25.4519C35.5345 25.4917 35.2796 25.5298 35.0389 25.5658L35.0382 25.5659L35.0376 25.566C32.7127 25.9134 31.7167 26.0622 31.2411 25.6371C30.8846 25.3185 30.8205 24.6775 30.7082 23.5562C30.6927 23.4013 30.6763 23.2372 30.658 23.0635C29.8805 15.6585 27.6278 5.50463 26.3198 3.50735C25.5496 2.33101 24.4269 2.25576 24.4269 3.38066ZM25.7259 34.0889C25.1602 35.0085 24.8583 36.2414 24.8575 37.6354L24.8558 39.7725L26.4918 39.6178C27.9627 39.4788 28.2535 39.6271 29.3796 41.0904C30.0679 41.9854 31.2687 44.25 32.047 46.1228L33.4631 49.5281L33.2148 47.4024C32.8318 44.125 30.39 35.7775 29.3775 34.2841C28.0978 32.3969 26.8091 32.3276 25.7259 34.0889ZM49.3007 33.6825C48.1852 34.8695 45.598 42.8726 45.2575 46.1895L45.2416 46.3443C45.1326 47.4028 45.0693 48.0164 45.176 48.047C45.3231 48.0893 45.7934 47.0223 46.9123 44.4837L47.0312 44.2139C48.5116 40.8549 49.9152 39.5374 52.0127 39.5374H53.7079L53.4566 37.4347C52.9527 33.217 51.2137 31.647 49.3007 33.6825Z" fill="#C7A363"/>
<path d="M50.2467 41.4675C47.78 43.2089 44.7807 50.4991 45.2738 53.5558L45.55 55.2674L42.386 55.2848L39.222 55.3022L41.1432 57.0236C47.2748 62.5172 58.7039 68.421 68.1603 70.9799C73.8039 72.5066 75.7384 71.9284 76.7561 68.4112C77.4349 66.0641 77.2934 65.5641 75.8606 65.2521C75.0981 65.0858 74.3863 64.5812 74.1641 64.0489C73.954 63.5447 73.2593 61.7932 72.6207 60.1564C70.8873 55.7146 68.3117 51.7375 65.1786 48.6638C62.0347 45.5794 60.201 44.256 56.657 42.5129C53.364 40.8932 51.4929 40.5879 50.2467 41.4675Z" fill="#C7A363"/>
<path d="M33.6085 44.9056C33.756 45.2861 33.9953 47.5338 34.1411 49.9009L34.4057 54.2045L39.183 54.074L43.9607 53.9439L43.95 52.1609C43.944 51.1806 44.0855 48.9911 44.2639 47.2961L44.5885 44.2139H38.9647C33.9472 44.2139 33.3696 44.2883 33.6085 44.9056Z" fill="#C7A363"/>
<path d="M23.727 41.5947C20.0532 42.8535 16.6674 45.1037 13.0626 48.6829C9.36167 52.3573 6.79161 56.5628 4.96346 61.9356C4.09848 64.4775 3.8386 64.835 2.62969 65.1454C1.42636 65.4544 1.2694 65.6674 1.2694 66.9917C1.2694 69.8984 2.94747 71.8476 5.44891 71.8476C9.14939 71.8476 19.5784 68.1 26.2032 64.3895C30.64 61.9041 38.5787 56.3043 38.5787 55.6594C38.5787 55.4438 37.2317 55.2674 35.585 55.2674H32.5912L32.849 53.4044C33.3014 50.133 30.1378 42.6197 27.8045 41.4233C27.2393 41.1335 26.9045 40.9554 26.5501 40.8995C25.989 40.8109 25.3788 41.0287 23.727 41.5947Z" fill="#C7A363"/>
<path d="M35.3624 60.1985C33.4755 61.4803 28.5545 64.2075 24.4269 66.2584C13.7251 71.5768 5.36099 74.0723 2.79737 72.7119C1.69696 72.1286 0.857285 70.6317 0.810541 69.1705C0.78138 68.2697 0.766371 68.2663 0.411718 69.0842C-0.406515 70.9718 0.00903356 79.6968 1.53185 92.6073C1.8998 95.7244 2.10865 98.3657 1.99629 98.4771C1.88394 98.5889 2.69761 102.061 3.16204 103.941L4.63839 104.586L5.90477 105.642C9.46545 108.613 9.3205 114.459 5.57156 119.084C4.05174 120.959 4.03673 121.043 5.02178 122.159C5.43433 122.627 5.53124 122.87 5.2362 122.699C4.90771 122.509 4.70015 122.632 4.70015 123.017C4.70015 124.346 7.46061 131.382 9.99078 136.504C13.3761 143.357 22.3646 158.981 22.926 158.989C23.6447 158.998 25.3052 156.231 26.2825 153.394C27.1604 150.846 27.2063 149.986 27.1771 136.468C27.1578 127.448 26.8842 118.811 26.43 112.912C26.0359 107.789 25.7135 103.466 25.7135 103.304C25.7135 103.142 24.4111 102.472 22.8188 101.814C19.4219 100.41 14.7394 97.7914 13.4228 96.5602C12.4635 95.6623 11.4501 92.0108 10.9008 87.4713L10.6053 85.0267H14.6828C19.3884 85.0267 24.3879 85.9357 28.0721 87.4606C31.514 88.8853 35.3894 91.6291 35.9898 93.0664C36.6026 94.5327 36.0031 99.7759 34.4305 106.709C33.8203 109.398 33.298 111.869 33.2697 112.201C33.1993 113.023 37.5015 115.214 39.1637 115.201C39.9034 115.196 41.4734 114.666 42.6528 114.023C45.1954 112.638 45.1748 112.836 43.5357 105.646C42.8959 102.84 42.2646 98.8117 42.133 96.6941L41.8933 92.8441L43.7742 91.246C46.0543 89.3083 50.7407 86.9832 54.2315 86.0581C55.6467 85.6831 59.1683 85.2716 62.0579 85.1441L67.3112 84.9119L67.3121 86.351C67.3125 87.1426 66.9956 89.5119 66.6079 91.6163C65.7382 96.3383 64.9354 97.2174 58.8677 100.096C56.5537 101.193 54.1779 102.324 53.5882 102.608C52.5367 103.114 52.5063 103.268 52.0152 110.55C49.8796 142.219 50.2441 152.045 53.7508 157.298C54.3756 158.234 55.0557 159 55.2616 159C55.5798 159 61.7877 148.51 66.3819 140.209C69.3855 134.783 72.8626 126.189 73.8832 121.671C74.0385 120.985 73.7276 120.265 72.8489 119.273C71.4204 117.66 70.0854 114.868 69.669 112.622C69.2526 110.378 70.1253 107.774 71.8737 106.04C73.2614 104.665 73.6741 105.66 74.3045 105.015C75.657 102.329 76.1171 99.4247 76.027 99.3359C75.9374 99.2466 76.1561 96.8995 76.5138 94.1195C77.6232 85.4893 78.0327 79.9315 77.998 73.9733C77.965 68.3062 77.9564 68.2569 77.3135 70.0578C76.4194 72.5644 75.1646 73.2994 72.2862 73.0052C66.5745 72.4207 52.3562 66.326 43.7249 60.7622C41.4842 59.3176 39.4579 58.0758 39.222 58.0023C38.9861 57.9287 37.2493 58.9172 35.3624 60.1985Z" fill="#C7A363"/>
</svg>
