<svg width="64" height="159" viewBox="0 0 64 159" fill="none" xmlns="http://www.w3.org/2000/svg">
<path fill-rule="evenodd" clip-rule="evenodd" d="M28.5581 0.48993C27.8546 0.746478 27.1662 1.06868 27.0282 1.20609C26.8902 1.34349 27.1373 2.50996 27.5773 3.79815C28.736 7.19028 30.1681 13.2856 30.9314 18.0748C31.6632 22.6651 32.5986 31.7772 32.523 33.5801C32.467 34.9192 32.5622 35.5278 31.5734 27.5232C31.2141 24.6166 30.5608 20.3649 30.1217 18.0748C28.6569 10.4351 26.1913 2.22075 25.3633 2.22075C25.1555 2.22075 24.3706 2.84402 23.6198 3.60598L22.2543 4.99121L23.2499 7.20085C26.0626 13.4429 27.338 23.0863 26.9021 34.8151C26.7825 38.033 26.648 40.6273 26.603 40.5803C26.5583 40.5332 26.3588 37.6122 26.1604 34.0891C25.5296 22.9057 24.5511 16.7293 22.3614 10.1113C21.2141 6.64291 21.2083 6.63395 20.6441 7.37861C20.3327 7.78953 19.7598 9.21128 19.3709 10.5382C18.9817 11.8648 18.5432 13.0797 18.3962 13.2382C18.2412 13.4054 17.7851 13.3016 17.3083 12.9906C16.4942 12.4593 16.4878 12.4622 16.4878 13.3769C16.4878 13.8842 17.1993 17.1665 18.0691 20.6711C19.6018 26.8471 21.1044 34.2434 20.8728 34.4737C20.8104 34.5362 20.5067 33.6823 20.1979 32.5763C18.9553 28.1254 17.3157 23.6901 15.9065 20.967L14.4194 18.094L14.0077 19.511C13.3508 21.7696 11.9725 28.0347 11.342 31.6264L10.7624 34.9292L12.0201 37.0712C13.126 38.9551 16.1661 45.6731 16.1661 46.2333C16.1661 46.3479 15.0962 45.1757 13.7883 43.6284C12.4807 42.0811 11.047 40.4787 10.6031 40.0678L9.79542 39.3209L9.61689 40.2279C9.51878 40.7269 9.26595 43.0301 9.05525 45.3461L8.67215 49.5565L10.6498 51.9667C11.7377 53.2923 12.6277 54.4338 12.6277 54.5037C12.6277 54.5732 11.6135 54.1292 10.3741 53.5165C9.13439 52.9038 8.05775 52.465 7.9812 52.5413C7.75924 52.7623 7.16641 60.1227 7.16255 62.7026C7.15965 64.7704 7.02809 65.2896 6.06694 67.0265C3.92334 70.899 1.66071 76.1834 1.15537 78.4981C0.73205 80.4365 0.625896 83.614 0.551912 96.5445C0.502375 105.176 0.321273 112.959 0.149501 113.84C-0.150295 115.376 -0.103975 115.559 1.28371 118.324C4.87805 125.485 12.5997 138.204 20.5344 150.032C25.84 157.941 26.3865 158.707 26.5756 158.496C26.6432 158.421 26.5023 156.99 26.263 155.317C25.6525 151.051 23.045 127.9 22.559 122.431C22.0465 116.662 22.4039 113.733 24.3564 107.703C25.1423 105.277 25.7557 103.28 25.72 103.265C25.6846 103.25 23.5738 102.625 21.0297 101.877C16.0828 100.422 11.3163 98.6478 9.51749 97.5912C8.7413 97.1351 8.07545 96.2764 7.28286 94.7093C6.31817 92.802 3.94263 87.2489 3.94263 86.9011C3.94263 86.838 5.48086 87.796 7.3607 89.0297C11.2944 91.6112 18.0967 94.9988 23.8411 97.2373C27.0382 98.4829 27.88 98.9435 28.1383 99.5872C28.3152 100.028 28.4735 102.622 28.4905 105.352C28.5205 110.178 28.4922 110.397 27.4811 113.199C26.9089 114.785 26.3662 116.298 26.2749 116.562C26.1144 117.027 30.2607 122.967 31.3894 123.888C31.8459 124.261 32.0099 124.261 32.4664 123.888C32.945 123.497 36.9074 118.317 37.5218 117.278C37.6536 117.056 37.3233 115.743 36.788 114.361C35.4483 110.902 35.0002 107.085 35.4155 102.668C35.5956 100.752 35.8616 99.0754 36.0067 98.9435C36.1518 98.8115 37.9528 98.0393 40.0089 97.2274C47.287 94.3531 54.1611 90.8303 58.3817 87.8113C59.2242 87.2089 59.9132 86.8095 59.9132 86.9241C59.9132 87.3123 57.648 92.5836 56.5392 94.7762C55.8006 96.2361 55.0865 97.1668 54.3776 97.5935C52.7058 98.5998 47.8573 100.398 42.8261 101.877C40.282 102.625 38.1657 103.255 38.123 103.278C38.0805 103.3 38.6231 105.03 39.3292 107.123C40.8571 111.651 41.578 115.196 41.578 118.181C41.578 121.81 38.1857 152.806 37.2155 158.039L37.0376 159L37.7025 158.199C38.0683 157.759 40.2283 154.66 42.5022 151.313C50.0444 140.213 58.7195 125.979 62.3148 118.804L64 115.441L63.6883 113.199C63.5169 111.966 63.3457 104.183 63.3084 95.904C63.2708 87.6246 63.1286 80.2741 62.9925 79.5694C62.4837 76.9367 61.8567 75.2853 59.6491 70.7616C57.1037 65.5467 54.8421 62.3942 51.9506 60.0321C49.6683 58.1674 49.0787 56.9516 48.069 52.025C47.2111 47.8395 46.7276 43.5493 46.6369 39.3167C46.5687 36.127 46.5272 35.9297 46.0196 36.3868C45.7205 36.6564 44.8806 38.0154 44.1539 39.4064C43.427 40.7977 42.7772 41.936 42.71 41.936C42.3616 41.936 44.2051 37.1715 45.1884 35.5303C45.8064 34.4993 45.8627 33.8975 45.8903 28.0398L45.9206 21.67L44.5718 25.7978C43.83 28.068 43.2147 29.6073 43.2047 29.2182C43.1947 28.8293 43.8204 25.4423 44.5956 21.6915C46.1753 14.0463 46.4674 12.1496 46.0653 12.1496C45.6809 12.1496 43.7818 16.2239 42.5568 19.6763C40.8533 24.478 39.7249 29.5333 38.0535 39.8542C37.8013 41.4117 37.7714 40.9543 37.8959 37.4405C38.2471 27.504 40.6918 16.9019 44.161 10.2682L45.3959 7.90676L44.6217 6.68551C43.6927 5.22021 41.2875 2.86132 40.7227 2.86132C39.676 2.86132 37.7579 12.3216 36.4364 24.0001L36.201 26.0819L36.1553 24.0219C36.1016 21.5944 36.4226 18.6366 37.7727 9.12896L38.7698 2.10448L38.1136 1.57537C37.3619 0.969396 33.9113 -0.181066 33.644 0.0850905C33.5459 0.182457 33.6221 1.89214 33.8129 3.88398C34.3617 9.61547 34.6168 17.8849 34.3199 20.3239L34.048 22.5588L33.8261 19.6763C33.3326 13.2747 33.1474 11.4818 32.5336 7.18516C32.1814 4.71897 31.7391 2.08847 31.5506 1.33996C31.1639 -0.19676 30.7586 -0.312062 28.5581 0.48993ZM28.7858 50.1699L31.9163 51.2454L33.7717 50.7115C34.7921 50.4178 36.4049 49.8365 37.3558 49.4198C38.3066 49.0031 39.1578 48.662 39.2472 48.662C39.3363 48.662 39.3099 49.7987 39.188 51.1878L38.9667 53.7135L40.6744 54.1196C42.5868 54.5741 47.601 56.5871 47.8599 57.0044C47.9522 57.1531 46.7575 56.8472 45.2055 56.3248C40.7269 54.8175 39.5097 54.7801 36.8797 56.0692C34.8979 57.0406 34.3983 57.1495 31.9279 57.1495C29.461 57.1495 28.9563 57.04 26.9903 56.0759L24.8004 55.0027L22.6545 55.5385C18.551 56.5634 14.0994 58.9675 10.2268 62.2494C8.36624 63.8265 8.33696 63.8384 9.26177 62.6491C10.699 60.8005 14.8688 57.5918 17.5499 56.2719C18.8604 55.6269 21.0461 54.7727 22.4078 54.3739L24.8833 53.6488L24.6604 51.1035C24.4484 48.6847 24.4674 48.5717 25.0464 48.8263C25.3813 48.9739 27.0639 49.5786 28.7858 50.1699ZM26.2549 51.7499C26.5637 53.9931 27.1099 54.8316 28.8077 55.6698C30.7458 56.6268 33.3082 56.6412 35.1501 55.7054C36.7681 54.8835 37.3021 54.0508 37.5842 51.909L37.8103 50.1917L37.0405 50.6048C36.6169 50.8319 35.475 51.264 34.5029 51.565C32.8196 52.0858 32.7228 52.1749 32.4735 53.4297C32.1405 55.1068 31.7246 55.1125 31.4415 53.4438C31.3064 52.6476 31.014 52.0785 30.6895 51.9811C30.3977 51.8933 29.2352 51.4763 28.1061 51.0545L26.0536 50.2874L26.2549 51.7499ZM33.5363 59.921C36.9762 64.5427 43.7268 69.8485 49.9414 72.8156C54.5436 75.0124 57.6715 75.644 59.6719 74.7796C60.101 74.5945 60.2349 74.6877 60.2349 75.1723C60.2349 76.1882 59.3554 76.6606 57.5499 76.6151C52.8435 76.497 43.6373 71.9733 34.7451 65.41L31.9331 63.3345L29.5984 65.073C18.7034 73.1855 7.71743 78.0478 4.34472 76.2494C3.45756 75.7766 3.30219 74.3824 4.18389 74.8087C5.11448 75.2587 8.1697 75.0787 10.0544 74.4632C12.7471 73.5833 16.6196 71.5783 20.187 69.2172C23.4976 67.0258 29.9468 60.9997 31.1311 58.9912C31.4686 58.4188 31.8224 57.956 31.917 57.9631C32.0115 57.9701 32.7401 58.8512 33.5363 59.921Z" fill="#C7A363"/>
</svg>
