<svg width="17" height="13" viewBox="0 0 17 13" fill="none" xmlns="http://www.w3.org/2000/svg">
<path d="M15.321 10.6562L15.0164 11.9773C14.954 12.2469 14.7141 12.4375 14.4375 12.4375H2.56246C2.28577 12.4375 2.04589 12.2469 1.98355 11.9773L1.67896 10.6562H15.321Z" fill="#C7A363"/>
<path d="M16.7977 4.25865L15.5954 9.46881H1.40475L0.202409 4.25865C0.149565 4.02887 0.23744 3.789 0.426847 3.64828C0.616847 3.50756 0.871565 3.49272 1.07582 3.60968L4.75053 5.70978L8.00547 0.827372C8.11175 0.668247 8.2875 0.569685 8.4781 0.56256C8.67047 0.554247 8.85157 0.640935 8.96853 0.791747L12.7858 5.69969L15.8893 3.63106C16.0918 3.49687 16.356 3.49806 16.5561 3.6364C16.7568 3.77475 16.8518 4.02175 16.7977 4.25865Z" fill="#C7A363"/>
</svg>
