<svg width="1440" height="51" viewBox="0 0 1440 51" fill="none" xmlns="http://www.w3.org/2000/svg">
<g opacity="0.5" clip-path="url(#clip0_13385_920)">
<path d="M699.796 47.8867H644.682H589.567H534.478H479.363H424.273H369.159H314.045H258.955H203.841H148.727H93.6367H38.5224H-16.5674H-71.6816H-126.796H-181.886H-237V50.9992H-181.886H-126.796H-71.6816H-16.5674H38.5224H93.6367H148.727H203.841H258.955H314.045H369.159H424.273H479.363H534.478H589.567H644.682H699.796H754.886H810V47.8867H754.886H699.796Z" fill="#C7A363"/>
<path d="M699.918 5.83203H-237V8.96898H-231.398L-237 14.5811V18.9925L-226.995 8.96898H-223.056L-237 23.2568V27.6682L-222.322 42.0295H-226.946L-237 31.957V36.4418L-231.349 42.103H-237V45.2154H810V42.103H804.325L810 36.4418V32.0305L799.921 42.103H796.032L810 27.7907V23.3794L795.322 9.0425H799.921L809.927 19.066V14.6302L804.3 9.0425H810V5.90555H699.918V5.83203ZM729.053 8.96898L726.754 11.2727L724.43 8.96898H729.053ZM720.026 8.96898L726.754 15.684L733.456 8.96898H737.346L724.797 21.5168L716.039 30.2904L710.951 25.3889L714.84 21.2717L717.751 24.2126L724.381 17.571L715.746 8.94445L720.026 8.96898ZM699.918 8.96898H705.52L699.918 14.5811L694.292 8.96898H699.918ZM689.889 8.96898L699.894 18.9925L709.923 8.96898H713.862L699.918 23.2568L685.241 8.96898H689.889ZM673.963 8.96898L671.639 11.2727L669.315 8.96898H673.963ZM664.912 8.96898L671.639 15.684L678.367 8.96898H682.232L669.707 21.5168L660.778 30.2904L655.665 25.3889L659.555 21.2717L662.49 24.2126L669.095 17.571L660.46 8.94445L664.912 8.96898ZM644.804 8.96898H650.406L644.804 14.5811L639.178 8.96898H644.804ZM634.774 8.96898L644.779 18.9925L654.809 8.96898H658.748L644.804 23.2568L630.126 8.96898H634.774ZM618.849 8.96898L616.525 11.2727L614.226 8.96898H618.849ZM609.822 8.96898L616.525 15.684L623.252 8.96898H627.142L614.593 21.5168L605.835 30.2904L600.722 25.3889L604.612 21.2717L607.547 24.2126L614.152 17.571L605.541 8.94445L609.822 8.96898ZM589.69 8.96898H595.316L589.714 14.5811L584.063 8.96898H589.69ZM579.66 8.96898L589.69 18.9925L599.719 8.96898H603.633L589.69 23.2568L575.012 8.96898H579.66ZM563.735 8.96898L561.435 11.2727L559.111 8.96898H563.735ZM554.708 8.96898L561.435 15.684L568.138 8.96898H572.028L559.503 21.5168L550.696 30.2904L545.608 25.3889L549.498 21.2717L552.409 24.2126L559.038 17.571L550.403 8.94445L554.708 8.96898ZM534.6 8.96898H540.202L534.6 14.5811L528.973 8.96898H534.6ZM524.57 8.96898L534.575 18.9925L544.605 8.96898H548.544L534.6 23.2568L519.922 8.96898H524.57ZM508.645 8.96898L506.321 11.2727L504.022 8.96898H508.645ZM499.618 8.96898L506.321 15.684L513.048 8.96898H516.913L504.217 21.5168L495.46 30.2904L490.347 25.3889L494.237 21.2717L497.172 24.2126L503.777 17.571L495.142 8.94445L499.618 8.96898ZM479.486 8.96898H485.087L479.486 14.5811L473.859 8.96898H479.486ZM469.456 8.96898L479.461 18.9925L489.491 8.96898H493.429L479.486 23.2568L464.808 8.96898H469.456ZM453.531 8.96898L451.084 11.2727L448.785 8.96898H453.531ZM444.504 8.96898L451.207 15.684L457.934 8.96898H461.824L449.274 21.5168L440.517 30.2904L435.428 25.3889L439.293 21.2717L442.229 24.2126L448.858 17.571L440.223 8.94445L444.504 8.96898ZM424.396 8.96898H429.998L424.396 14.5811L418.769 8.96898H424.396ZM414.366 8.96898L424.371 18.9925L434.401 8.96898H438.168L424.249 23.2568L409.571 8.96898H414.366ZM398.416 8.96898L396.117 11.2727L393.793 8.96898H398.416ZM389.39 8.96898L396.117 15.684L402.82 8.96898H406.709L394.136 21.5168L385.353 30.2904L380.265 25.3889L384.155 21.2717L387.066 24.2126L393.695 17.571L385.06 8.94445L389.39 8.96898ZM369.281 8.96898H374.883L369.281 14.5811L363.655 8.96898H369.281ZM359.252 8.96898L369.257 18.9925L379.287 8.96898H383.225L369.281 23.2568L354.604 8.96898H359.252ZM343.327 8.96898L340.88 11.2727L338.581 8.96898H343.327ZM334.3 8.96898L341.003 15.684L347.73 8.96898H351.595L339.07 21.5168L330.313 30.2904L325.2 25.3889L329.089 21.2717L332.025 24.2126L338.63 17.571L330.019 8.94445L334.3 8.96898ZM314.167 8.96898H319.769L314.167 14.5811L308.541 8.96898H314.167ZM304.138 8.96898L314.143 18.9925L324.172 8.96898H328.086L314.143 23.2568L299.465 8.96898H304.138ZM288.212 8.96898L285.913 11.2727L283.467 8.96898H288.212ZM279.186 8.96898L285.913 15.684L292.616 8.96898H296.285L283.736 21.5168L274.978 30.2904L269.89 25.3889L273.779 21.2717L276.715 24.1881L283.344 17.5466L274.709 8.91992L279.186 8.96898ZM259.077 8.96898H264.484L258.882 14.5811L253.255 8.96898H259.077ZM249.048 8.96898L259.053 18.9925L269.083 8.96898H273.021L259.077 23.2568L244.4 8.96898H249.048ZM233.098 8.96898L230.799 11.2727L228.352 8.96898H233.098ZM224.071 8.96898L230.799 15.684L237.501 8.96898H241.391L228.866 21.5168L220.084 30.2904L214.996 25.3889L218.885 21.2717L221.821 24.2126L228.426 17.571L219.79 8.94445L224.071 8.96898ZM203.963 8.96898H209.565L203.963 14.5811L198.337 8.96898H203.963ZM193.933 8.96898L203.939 18.9925L213.968 8.96898H217.907L203.963 23.2568L189.286 8.96898H193.933ZM178.008 8.96898L175.684 11.2727L173.385 8.96898H178.008ZM168.982 8.96898L175.684 15.684L182.412 8.96898H186.203L173.678 21.5168L164.921 30.2904L159.808 25.3889L163.698 21.2717L166.633 24.1881L173.238 17.5466L164.627 8.91992L168.982 8.96898ZM148.849 8.96898H154.402L148.775 14.5811L143.149 8.96898H148.849ZM138.819 8.96898L148.824 18.9925L158.879 8.96898H162.793L148.849 23.2568L134.171 8.96898H138.819ZM122.894 8.96898L120.595 11.2727L118.271 8.96898H122.894ZM113.867 8.96898L120.595 15.684L127.297 8.96898H131.187L118.638 21.5168L109.88 30.2904L104.792 25.3889L108.681 21.2717L111.592 24.2126L118.222 17.571L109.586 8.94445L113.867 8.96898ZM93.7591 8.96898H99.361L93.7591 14.5811L88.1326 8.96898H93.7591ZM83.7294 8.96898L93.7346 18.9925L103.764 8.96898H107.703L93.7591 23.2568L79.0815 8.96898H83.7294ZM67.8042 8.96898L65.358 11.2727L63.0585 8.96898H67.8042ZM58.7775 8.96898L65.4802 15.684L72.2075 8.96898H76.0726L63.5477 21.5168L54.7901 30.2904L49.6774 25.3889L53.567 21.2717L56.5025 24.2126L63.1074 17.571L54.4721 8.94445L58.7775 8.96898ZM38.6448 8.96898H44.2467L38.6448 14.5811L33.0184 8.96898H38.6448ZM28.6151 8.96898L38.6203 18.9925L48.65 8.96898H52.5885L38.6448 23.2568L23.9672 8.96898H28.6151ZM12.6899 8.96898L10.2437 11.2727L7.94417 8.96898H12.6899ZM3.66321 8.96898L10.366 15.684L17.0932 8.96898H20.9828L8.43344 21.5168L-0.324186 30.2904L-5.43686 25.3889L-1.54732 21.2717L1.38819 24.2126L8.01758 17.571L-0.617744 8.94445L3.66321 8.96898ZM-16.445 8.96898H-10.8431L-16.445 14.5811L-22.0715 8.96898H-16.445ZM-26.4992 8.96898L-16.4695 18.9925L-6.43984 8.96898H-2.52583L-16.445 23.2568L-31.1226 8.96898H-26.4992ZM-42.4243 8.96898L-44.7238 11.2727L-47.1701 8.96898H-42.4243ZM-51.4511 8.96898L-44.7238 15.684L-38.0211 8.96898H-34.1315L-46.6564 21.5168L-55.4385 30.2904L-60.5267 25.3889L-56.6371 21.2717L-53.7261 24.2126L-47.0967 17.571L-55.732 8.94445L-51.4511 8.96898ZM-71.5593 8.96898H-65.9574L-71.5593 14.5811L-77.1857 8.96898H-71.5593ZM-81.589 8.96898L-71.5838 18.9925L-61.5541 8.96898H-57.6156L-71.5593 23.2568L-86.2369 8.96898H-81.589ZM-97.5142 8.96898L-99.9604 11.2727L-102.26 8.96898H-97.5142ZM-106.541 8.96898L-100.009 15.684L-93.2821 8.96898H-89.417L-101.942 21.5168L-110.7 30.2904L-115.812 25.3889L-111.923 21.2717L-108.987 24.2126L-102.382 17.571L-111.018 8.94445L-106.541 8.96898ZM-126.674 8.96898H-121.072L-126.674 14.5811L-132.3 8.96898H-126.674ZM-136.703 8.96898L-126.918 18.9925L-116.889 8.96898H-112.95L-126.894 23.2568L-141.571 8.96898H-136.703ZM-152.628 8.96898L-154.928 11.2727L-157.374 8.96898H-152.628ZM-161.655 8.96898L-154.928 15.684L-148.225 8.96898H-144.336L-156.885 21.5168L-165.643 30.2904L-170.731 25.3889L-166.841 21.2717L-163.93 24.2126L-157.301 17.571L-166.058 8.96898H-161.655ZM-181.763 8.96898H-176.161L-181.763 14.5811L-187.39 8.96898H-181.763ZM-191.793 8.96898L-181.788 18.9925L-171.758 8.96898H-167.82L-181.763 23.2568L-196.441 8.96898H-191.793ZM-207.743 8.96898L-210.042 11.2727L-212.366 8.96898H-207.743ZM-216.769 8.96898L-210.091 15.684L-203.388 8.96898H-199.572L-212.097 21.5168L-220.879 30.2904L-225.967 25.3889L-222.078 21.2717L-219.142 24.2126L-212.537 17.571L-221.173 8.94445L-216.769 8.96898ZM-210.409 42.0295L-207.963 39.5788L-205.517 42.0295H-210.409ZM-201.285 42.0295L-208.036 35.241L-214.984 42.0295H-219.387L-206.202 28.82L-198.08 20.6835L-192.967 25.585L-196.857 29.7023L-199.743 26.6388L-206.348 33.2559L-197.689 41.9315L-201.285 42.0295ZM-201.823 33.3539L-199.621 31.1482L-196.637 34.1381L-188.417 25.4135L-197.958 16.3212L-206.935 25.291L-220.855 39.1376L-234.798 25.4624L-222.102 12.4245L-216.941 17.5956L-219.142 19.8258L-222.151 16.8359L-230.371 25.536L-220.806 34.6527L-211.852 25.6586L-209.969 23.796L-208.697 22.5216L-198.031 11.9344L-184.087 25.6095L-196.783 38.623L-201.823 33.3539ZM-181.763 42.0295H-187.561L-181.91 36.4418L-176.235 42.103L-181.763 42.0295ZM-171.709 42.0295L-181.763 31.957L-191.842 42.0295H-195.854L-181.886 27.7172L-167.208 42.0295H-171.709ZM-155.319 42.0295L-152.873 39.5788L-150.427 42.0295H-155.319ZM-146.17 42.0295L-152.946 35.241L-159.723 42.0295H-164.126L-150.941 28.82L-142.794 20.6835L-137.706 25.585L-141.596 29.6533L-144.629 26.6388L-151.259 33.2559L-142.599 41.9315L-146.17 42.0295ZM-146.733 33.3539L-144.507 31.1482L-141.596 34.1381L-133.376 25.4135L-142.917 16.3212L-151.895 25.291L-165.691 39.1376L-179.635 25.4624L-166.939 12.4245L-161.777 17.5956L-164.004 19.8258L-167.037 16.8359L-175.256 25.536L-165.716 34.6527L-156.738 25.6586L-154.855 23.796L-153.582 22.5216L-142.941 11.9344L-128.998 25.6095L-141.596 38.525L-146.733 33.3539ZM-126.674 42.0295H-132.471L-126.796 36.4418L-121.121 42.103L-126.674 42.0295ZM-116.595 42.0295L-126.674 31.957L-136.752 42.0295H-140.764L-126.796 27.7172L-112.118 42.0295H-116.595ZM-100.205 42.0295L-97.7588 39.5788L-95.3125 42.0295H-100.205ZM-91.056 42.0295L-97.8322 35.241L-104.608 42.0295H-109.012L-95.8262 28.82L-87.778 20.6835L-82.6654 25.585L-86.5549 29.7023L-89.5394 26.6388L-96.1443 33.2559L-87.4845 41.9315L-91.056 42.0295ZM-91.6187 33.3539L-89.417 31.1482L-86.4081 34.1381L-78.1887 25.4135L-87.778 16.3212L-96.7558 25.291L-110.553 39.1376L-124.472 25.4624L-111.776 12.4245L-106.614 17.5956L-108.816 19.8258L-111.923 16.8359L-120.142 25.536L-110.602 34.6527L-101.624 25.6586L-99.7647 23.796L-98.4927 22.5216L-87.778 11.9344L-73.8344 25.6095L-86.5304 38.623L-91.6187 33.3539ZM-71.5593 42.0295H-77.357L-71.7061 36.4418L-66.0308 42.103L-71.5593 42.0295ZM-61.5052 42.0295L-71.5593 31.957L-81.6379 42.0295H-85.6498L-71.6816 27.7172L-57.0041 42.0295H-61.5052ZM-45.0908 42.0295L-42.6445 39.5788L-40.1983 42.0295H-45.0908ZM-35.9662 42.0295L-42.7424 35.241L-49.494 42.0295H-54.0441L-40.8587 28.82L-32.7127 20.6835L-27.6 25.585L-31.514 29.6533L-34.4251 26.6388L-41.0544 33.2559L-32.3947 41.9315L-35.9662 42.0295ZM-36.5044 33.3539L-34.3028 31.1482L-31.514 34.1381L-23.2946 25.4135L-32.835 16.3212L-41.8128 25.291L-55.6097 39.1376L-69.5534 25.4624L-56.8573 12.4245L-51.6957 17.5956L-53.9218 19.8258L-56.8328 16.8359L-65.0523 25.536L-55.5118 34.6527L-46.5341 25.6586L-44.6505 23.796L-43.3784 22.5216L-32.7372 11.9344L-18.769 25.6095L-31.514 38.525L-36.5044 33.3539ZM-16.445 42.0295H-22.2427L-16.5918 36.4418L-10.9165 42.103L-16.445 42.0295ZM-6.39092 42.0295L-16.445 31.957L-26.6215 42.0295H-30.5355L-16.5674 27.7172L-1.88979 42.0295H-6.39092ZM9.99904 42.0295L12.4453 39.5788L14.8916 42.0295H9.99904ZM19.1481 42.0295L12.3719 35.241L5.59576 42.0295H1.1925L14.3779 28.82L22.5239 20.6835L27.6121 25.585L23.7226 29.7023L20.6892 26.6388L14.0598 33.2559L22.7196 41.9315L19.1481 42.0295ZM18.5854 33.3539L20.8115 31.1482L23.796 34.1381L32.0154 25.4135L22.475 16.3212L13.4972 25.291L-0.299718 39.1376L-14.3902 25.4624L-1.66964 12.4245L3.49198 17.5956L1.26589 19.8258L-1.71855 16.8359L-9.93799 25.536L-0.397571 34.6527L8.5802 25.6586L10.4394 23.796L11.7359 22.5216L22.3037 11.9344L36.2474 25.6095L23.5513 38.623L18.5854 33.3539ZM38.6448 42.0295H32.9694L38.6448 36.3683L44.3201 42.0295H38.6448ZM48.7234 42.0295L38.6448 31.957L28.5662 42.0295H24.6766L38.6448 27.7172L53.3223 42.0295H48.7234ZM65.1133 42.0295L67.5596 39.5788L70.0058 42.0295H65.1133ZM74.2623 42.0295L67.4862 35.241L60.71 42.0295H56.3068L69.4921 28.82L77.6137 20.6835L82.7264 25.585L78.8368 29.7023L75.9013 26.7859L69.2964 33.4029L77.9562 42.0785L74.2623 42.0295ZM73.6997 33.3539L75.9013 31.1482L78.8858 34.1381L87.1297 25.4135L77.5648 16.3212L68.587 25.291L54.7901 39.1376L40.8464 25.4624L53.5425 12.4245L58.7041 17.5956L56.5025 19.8258L53.3712 16.8359L45.1518 25.536L54.7167 34.6527L63.6945 25.6586L65.5536 23.796L66.8257 22.5216L77.4914 11.8363L91.4351 25.5115L78.739 38.525L73.6997 33.3539ZM93.7591 42.0295H88.0837L93.7346 36.3683L99.4099 42.0295H93.7591ZM103.813 42.0295L93.7591 31.957L83.4603 42.0295H79.5707L93.5389 27.7172L108.216 42.0295H103.813ZM120.228 42.0295L122.674 39.5788L125.12 42.0295H120.228ZM129.352 42.0295L122.576 35.241L115.824 42.0295H111.397L124.582 28.82L132.728 20.6835L137.841 25.585L133.951 29.7023L131.016 26.7859L124.386 33.4029L133.046 42.0785L129.352 42.0295ZM128.79 33.3539L131.016 31.1482L134 34.1381L142.171 25.4135L132.63 16.3212L123.652 25.291L109.855 39.1376L95.9117 25.4624L108.608 12.4245L113.769 17.5956L111.543 19.8258L108.486 16.8359L100.266 25.536L109.807 34.6527L118.784 25.6586L120.668 23.796L121.94 22.5216L132.581 11.8363L146.525 25.5115L133.829 38.525L128.79 33.3539ZM148.849 42.0295H143.174L148.849 36.3683L154.524 42.0295H148.849ZM158.927 42.0295L148.849 31.957L138.77 42.0295H134.832L148.775 27.7172L163.453 42.0295H158.927ZM175.317 42.0295L177.764 39.5788L180.21 42.0295H175.317ZM184.466 42.0295L177.69 35.241L170.914 42.0295H166.511L179.696 28.82L187.842 20.6835L192.93 25.585L189.041 29.7023L186.008 26.6388L179.378 33.2559L188.038 41.9315L184.466 42.0295ZM183.904 33.3539L186.13 31.1482L189.114 34.1381L197.334 25.4135L187.769 16.3212L178.816 25.291L164.994 39.1376L151.05 25.4624L163.771 12.4245L168.908 17.5956L166.707 19.8258L163.6 16.8359L155.38 25.536L164.921 34.6527L173.972 25.6586L175.831 23.796L177.128 22.5216L187.769 11.8363L201.713 25.5115L189.016 38.525L183.904 33.3539ZM203.963 42.0295H198.288L203.816 36.4418L209.492 42.103L203.963 42.0295ZM214.017 42.0295L203.963 31.957L193.885 42.0295H189.873L203.841 27.7172L218.518 42.0295H214.017ZM230.432 42.0295L232.878 39.5788L235.324 42.0295H230.432ZM239.556 42.0295L232.682 35.241L225.906 42.0295H221.503L234.688 28.82L242.81 20.6835L247.922 25.585L244.033 29.7023L241.097 26.7859L234.492 33.4029L243.152 42.0785L239.556 42.0295ZM239.018 33.3539L241.22 31.1482L244.204 34.1381L252.252 25.4135L242.712 16.3212L233.734 25.291L219.937 39.1376L205.994 25.4624L218.69 12.4245L223.851 17.5956L221.65 19.8258L218.69 16.8359L210.47 25.536L220.035 34.6527L229.013 25.6586L230.872 23.796L232.144 22.5216L242.81 11.8363L256.753 25.5115L244.057 38.525L239.018 33.3539ZM259.077 42.0295H253.402L259.053 36.3683L264.728 42.0295H259.077ZM269.132 42.0295L259.077 31.957L248.999 42.0295H244.914L258.882 27.7172L273.559 42.0295H269.132ZM285.522 42.0295L287.968 39.5788L290.414 42.0295H285.522ZM294.67 42.0295L287.894 35.241L281.118 42.0295H276.715L289.9 28.82L298.046 20.6835L303.135 25.585L299.245 29.7023L296.285 26.6388L289.656 33.2559L298.315 41.9315L294.67 42.0295ZM294.108 33.3539L296.334 31.1482L299.318 34.1381L307.538 25.4135L297.997 16.3212L288.946 25.291L275.149 39.1376L261.206 25.4624L273.902 12.4245L279.063 17.5956L276.837 19.8258L273.804 16.8359L265.584 25.536L275.125 34.6527L284.054 25.6586L285.937 23.796L287.209 22.5216L297.851 11.8363L311.794 25.5115L299.098 38.525L294.108 33.3539ZM314.167 42.0295H308.492L314.167 36.3683L319.843 42.0295H314.167ZM324.246 42.0295L314.167 31.957L304.089 42.0295H300.199L314.167 27.7172L328.845 42.0295H324.246ZM340.636 42.0295L343.082 39.5788L345.528 42.0295H340.636ZM349.785 42.0295L343.009 35.241L336.232 42.0295H331.829L345.015 28.82L353.136 20.6835L358.249 25.585L354.359 29.7023L351.424 26.7859L344.819 33.4029L353.479 42.0785L349.785 42.0295ZM349.222 33.3539L351.424 31.1482L354.433 34.1381L362.652 25.4135L353.087 16.3212L344.109 25.291L330.313 39.1376L316.369 25.4624L329.065 12.4245L334.227 17.5956L332.025 19.8258L328.918 16.8359L320.748 25.536L330.288 34.6527L339.266 25.6586L341.125 23.796L342.397 22.5216L353.063 11.8363L367.006 25.5115L354.31 38.525L349.222 33.3539ZM369.281 42.0295H363.606L369.257 36.3683L374.932 42.0295H369.281ZM379.336 42.0295L369.281 31.957L359.203 42.0295H355.313L369.281 27.7172L383.959 42.0295H379.336ZM395.75 42.0295L398.196 39.5788L400.643 42.0295H395.75ZM404.875 42.0295L398.123 35.241L391.347 42.0295H386.797L399.982 28.82L408.104 20.6835L413.216 25.585L409.327 29.7023L406.367 26.6388L399.762 33.2559L408.422 41.9315L404.875 42.0295ZM404.336 33.3539L406.538 31.1482L409.523 34.1381L417.742 25.4135L408.202 16.3212L399.028 25.291L385.231 39.1376L371.287 25.4624L383.984 12.4245L389.145 17.5956L386.919 19.8258L384.008 16.8359L375.789 25.536L385.353 34.6527L394.307 25.6586L396.19 23.796L397.462 22.5216L408.128 11.8363L422.072 25.5115L409.351 38.525L404.336 33.3539ZM424.396 42.0295H418.598L424.249 36.3683L429.924 42.0295H424.396ZM434.45 42.0295L424.396 31.957L414.317 42.0295H410.428L424.396 27.7172L439.073 42.0295H434.45ZM450.84 42.0295L453.286 39.5788L455.732 42.0295H450.84ZM459.989 42.0295L453.213 35.241L446.437 42.0295H442.033L455.219 28.82L463.365 20.6835L468.453 25.585L464.563 29.7023L461.53 26.6388L454.901 33.2559L463.56 41.9315L459.989 42.0295ZM459.426 33.3539L461.652 31.1482L464.637 34.1381L472.856 25.4135L463.316 16.3212L454.338 25.291L440.541 39.1376L426.597 25.4624L439.293 12.4245L444.455 17.5956L442.229 19.8258L439.122 16.8359L430.829 25.536L440.37 34.6527L449.348 25.6586L451.207 23.796L452.503 22.5216L463.145 11.8363L477.088 25.5115L464.392 38.525L459.426 33.3539ZM479.486 42.0295H473.81L479.486 36.3683L485.161 42.0295H479.486ZM489.564 42.0295L479.486 31.957L469.407 42.0295H465.517L479.486 27.7172L494.163 42.0295H489.564ZM505.954 42.0295L508.4 39.5788L510.847 42.0295H505.954ZM515.103 42.0295L508.327 35.241L501.551 42.0295H497.148L510.333 28.82L518.455 20.6835L523.567 25.585L519.678 29.7023L516.742 26.7859L510.137 33.4029L518.797 42.0785L515.103 42.0295ZM514.541 33.3539L516.742 31.1482L519.751 34.1381L527.97 25.4135L518.406 16.3212L509.428 25.291L495.631 39.1376L481.687 25.4624L494.383 12.4245L499.545 17.5956L497.343 19.8258L494.237 16.8359L486.017 25.536L495.557 34.6527L504.535 25.6586L506.394 23.796L507.667 22.5216L518.332 11.8363L532.276 25.5115L519.58 38.525L514.541 33.3539ZM534.6 42.0295H528.925L534.575 36.3683L540.251 42.0295H534.6ZM544.654 42.0295L534.6 31.957L524.521 42.0295H520.632L534.6 27.7172L549.277 42.0295H544.654ZM561.068 42.0295L563.515 39.5788L565.961 42.0295H561.068ZM570.193 42.0295L563.417 35.241L556.665 42.0295H552.237L565.423 28.82L573.569 20.6835L578.681 25.585L574.792 29.7023L571.734 26.6388L565.105 33.2559L573.764 41.9315L570.193 42.0295ZM569.63 33.3539L571.856 31.1482L574.841 34.1381L583.06 25.4135L573.52 16.3212L564.542 25.291L550.696 39.1376L536.753 25.4624L549.449 12.4245L554.61 17.5956L552.384 19.8258L549.326 16.8359L541.107 25.536L550.647 34.6527L559.625 25.6586L561.509 23.796L562.781 22.5216L573.422 11.8363L587.39 25.5115L574.67 38.525L569.63 33.3539ZM589.69 42.0295H584.014L589.69 36.3683L595.365 42.0295H589.69ZM599.768 42.0295L589.714 31.957L579.611 42.0295H575.746L589.69 27.7172L604.367 42.0295H599.768ZM616.158 42.0295L618.604 39.5788L621.051 42.0295H616.158ZM625.307 42.0295L618.531 35.241L611.755 42.0295H607.352L620.537 28.82L628.683 20.6835L633.771 25.585L629.882 29.7023L626.848 26.6388L620.219 33.2559L628.879 41.9315L625.307 42.0295ZM624.745 33.3539L626.971 31.1482L629.955 34.1381L638.175 25.4135L628.61 16.3212L619.656 25.291L605.859 39.1376L591.891 25.4624L604.612 12.4245L609.749 17.5956L607.547 19.8258L604.514 16.8359L596.295 25.536L605.835 34.6527L614.813 25.6586L616.672 23.796L617.968 22.5216L628.61 11.8363L642.553 25.5115L629.857 38.525L624.745 33.3539ZM644.804 42.0295H639.006L644.682 36.3683L650.357 42.0295H644.804ZM654.883 42.0295L644.804 31.957L634.725 42.0295H630.836L644.804 27.7172L659.482 42.0295H654.883ZM671.273 42.0295L673.719 39.5788L676.165 42.0295H671.273ZM680.397 42.0295L673.645 35.241L666.869 42.0295H662.466L675.651 28.82L683.773 20.6835L688.886 25.585L684.996 29.7023L682.061 26.7859L675.456 33.4029L684.115 42.0785L680.397 42.0295ZM679.859 33.3539L682.061 31.1482L685.045 34.1381L693.264 25.4135L683.724 16.3212L674.746 25.291L660.778 39.1376L646.834 25.4624L659.53 12.4245L664.692 17.5956L662.49 19.8258L659.53 16.8359L651.311 25.536L660.876 34.6527L669.854 25.6586L671.713 23.796L672.985 22.5216L683.651 11.8363L697.594 25.5115L684.898 38.525L679.859 33.3539ZM699.918 42.0295H694.243L699.894 36.3683L705.569 42.0295H699.918ZM709.972 42.0295L699.918 31.957L689.84 42.0295H685.95L699.918 27.7172L714.596 42.0295H709.972ZM726.362 42.0295L728.809 39.5788L731.255 42.0295H726.362ZM735.511 42.0295L728.735 35.241L721.935 42.0295H717.531L730.717 28.82L738.863 20.6835L743.975 25.585L740.086 29.7023L737.15 26.7859L730.521 33.4029L739.181 42.0785L735.511 42.0295ZM734.949 33.3539L737.175 31.1482L740.159 34.1381L748.379 25.4135L738.838 16.3212L729.86 25.291L716.064 39.1376L702.12 25.4624L714.596 12.4245L719.757 17.5956L717.531 19.8258L714.596 16.8359L706.376 25.536L715.917 34.6527L724.895 25.6586L726.778 23.796L728.05 22.5216L738.691 11.8363L752.635 25.5115L739.939 38.525L734.949 33.3539ZM755.008 42.0295H749.333L755.008 36.3683L760.683 42.0295H755.008ZM765.087 42.0295L755.008 31.957L744.929 42.0295H741.04L755.008 27.7172L769.686 42.0295H765.087ZM781.477 42.0295L783.923 39.5788L786.369 42.0295H781.477ZM790.626 42.0295L783.849 35.241L777.073 42.0295H772.67L785.855 28.82L794.001 20.6835L799.09 25.585L795.2 29.7023L792.167 26.6388L785.537 33.2559L794.197 41.9315L790.626 42.0295ZM784.167 8.96898L781.843 11.2727L779.544 8.96898H784.167ZM775.141 8.96898L781.843 15.684L788.571 8.96898H792.436L779.911 21.5168L771.153 30.2904L766.041 25.3889L769.93 21.2717L772.866 24.2126L779.471 17.571L770.86 8.96898H775.141ZM775.141 17.5956L772.939 19.8258L769.759 16.8359L761.54 25.536L771.08 34.6527L780.058 25.6586L781.917 23.796L783.189 22.5216L793.855 11.9344L807.798 25.6095L795.102 38.623L789.941 33.4519L792.167 31.2462L795.151 34.2362L803.371 25.5115L793.806 16.4192L784.852 25.3889L771.031 39.2357L757.087 25.5605L769.808 12.5225L775.141 17.5956ZM769.025 8.96898L755.081 23.2568L740.404 8.96898H745.003L755.008 18.9925L765.038 8.96898H769.025ZM755.081 14.5811L749.455 8.96898H760.683L755.081 14.5811Z" fill="#C7A363"/>
<path d="M754.886 0H699.796H644.682H589.567H534.478H479.363H424.273H369.159H314.045H258.955H203.841H148.727H93.6367H38.5224H-16.5674H-71.6816H-126.796H-181.886H-237V3.11245H-181.886H-126.796H-71.6816H-16.5674H38.5224H93.6367H148.727H203.841H258.955H314.045H369.159H424.273H479.363H534.478H589.567H644.682H699.796H754.886H810V0H754.886Z" fill="#C7A363"/>
</g>
<g opacity="0.5" clip-path="url(#clip1_13385_920)">
<path d="M1746.8 47.8867H1691.68H1636.57H1581.48H1526.36H1471.27H1416.16H1361.04H1305.96H1250.84H1195.73H1140.64H1085.52H1030.43H975.318H920.204H865.114H810V50.9992H865.114H920.204H975.318H1030.43H1085.52H1140.64H1195.73H1250.84H1305.96H1361.04H1416.16H1471.27H1526.36H1581.48H1636.57H1691.68H1746.8H1801.89H1857V47.8867H1801.89H1746.8Z" fill="#C7A363"/>
<path d="M1746.92 5.83203H810V8.96898H815.602L810 14.5811V18.9925L820.005 8.96898H823.944L810 23.2568V27.6682L824.678 42.0295H820.054L810 31.957V36.4418L815.651 42.103H810V45.2154H1857V42.103H1851.32L1857 36.4418V32.0305L1846.92 42.103H1843.03L1857 27.7907V23.3794L1842.32 9.0425H1846.92L1856.93 19.066V14.6302L1851.3 9.0425H1857V5.90555H1746.92V5.83203ZM1776.05 8.96898L1773.75 11.2727L1771.43 8.96898H1776.05ZM1767.03 8.96898L1773.75 15.684L1780.46 8.96898H1784.35L1771.8 21.5168L1763.04 30.2904L1757.95 25.3889L1761.84 21.2717L1764.75 24.2126L1771.38 17.571L1762.75 8.94445L1767.03 8.96898ZM1746.92 8.96898H1752.52L1746.92 14.5811L1741.29 8.96898H1746.92ZM1736.89 8.96898L1746.89 18.9925L1756.92 8.96898H1760.86L1746.92 23.2568L1732.24 8.96898H1736.89ZM1720.96 8.96898L1718.64 11.2727L1716.32 8.96898H1720.96ZM1711.91 8.96898L1718.64 15.684L1725.37 8.96898H1729.23L1716.71 21.5168L1707.78 30.2904L1702.67 25.3889L1706.55 21.2717L1709.49 24.2126L1716.1 17.571L1707.46 8.94445L1711.91 8.96898ZM1691.8 8.96898H1697.41L1691.8 14.5811L1686.18 8.96898H1691.8ZM1681.77 8.96898L1691.78 18.9925L1701.81 8.96898H1705.75L1691.8 23.2568L1677.13 8.96898H1681.77ZM1665.85 8.96898L1663.53 11.2727L1661.23 8.96898H1665.85ZM1656.82 8.96898L1663.53 15.684L1670.25 8.96898H1674.14L1661.59 21.5168L1652.84 30.2904L1647.72 25.3889L1651.61 21.2717L1654.55 24.2126L1661.15 17.571L1652.54 8.94445L1656.82 8.96898ZM1636.69 8.96898H1642.32L1636.71 14.5811L1631.06 8.96898H1636.69ZM1626.66 8.96898L1636.69 18.9925L1646.72 8.96898H1650.63L1636.69 23.2568L1622.01 8.96898H1626.66ZM1610.73 8.96898L1608.44 11.2727L1606.11 8.96898H1610.73ZM1601.71 8.96898L1608.44 15.684L1615.14 8.96898H1619.03L1606.5 21.5168L1597.7 30.2904L1592.61 25.3889L1596.5 21.2717L1599.41 24.2126L1606.04 17.571L1597.4 8.94445L1601.71 8.96898ZM1581.6 8.96898H1587.2L1581.6 14.5811L1575.97 8.96898H1581.6ZM1571.57 8.96898L1581.58 18.9925L1591.61 8.96898H1595.54L1581.6 23.2568L1566.92 8.96898H1571.57ZM1555.65 8.96898L1553.32 11.2727L1551.02 8.96898H1555.65ZM1546.62 8.96898L1553.32 15.684L1560.05 8.96898H1563.91L1551.22 21.5168L1542.46 30.2904L1537.35 25.3889L1541.24 21.2717L1544.17 24.2126L1550.78 17.571L1542.14 8.94445L1546.62 8.96898ZM1526.49 8.96898H1532.09L1526.49 14.5811L1520.86 8.96898H1526.49ZM1516.46 8.96898L1526.46 18.9925L1536.49 8.96898H1540.43L1526.49 23.2568L1511.81 8.96898H1516.46ZM1500.53 8.96898L1498.08 11.2727L1495.78 8.96898H1500.53ZM1491.5 8.96898L1498.21 15.684L1504.93 8.96898H1508.82L1496.27 21.5168L1487.52 30.2904L1482.43 25.3889L1486.29 21.2717L1489.23 24.2126L1495.86 17.571L1487.22 8.94445L1491.5 8.96898ZM1471.4 8.96898H1477L1471.4 14.5811L1465.77 8.96898H1471.4ZM1461.37 8.96898L1471.37 18.9925L1481.4 8.96898H1485.17L1471.25 23.2568L1456.57 8.96898H1461.37ZM1445.42 8.96898L1443.12 11.2727L1440.79 8.96898H1445.42ZM1436.39 8.96898L1443.12 15.684L1449.82 8.96898H1453.71L1441.14 21.5168L1432.35 30.2904L1427.27 25.3889L1431.15 21.2717L1434.07 24.2126L1440.7 17.571L1432.06 8.94445L1436.39 8.96898ZM1416.28 8.96898H1421.88L1416.28 14.5811L1410.66 8.96898H1416.28ZM1406.25 8.96898L1416.26 18.9925L1426.29 8.96898H1430.23L1416.28 23.2568L1401.6 8.96898H1406.25ZM1390.33 8.96898L1387.88 11.2727L1385.58 8.96898H1390.33ZM1381.3 8.96898L1388 15.684L1394.73 8.96898H1398.6L1386.07 21.5168L1377.31 30.2904L1372.2 25.3889L1376.09 21.2717L1379.02 24.2126L1385.63 17.571L1377.02 8.94445L1381.3 8.96898ZM1361.17 8.96898H1366.77L1361.17 14.5811L1355.54 8.96898H1361.17ZM1351.14 8.96898L1361.14 18.9925L1371.17 8.96898H1375.09L1361.14 23.2568L1346.47 8.96898H1351.14ZM1335.21 8.96898L1332.91 11.2727L1330.47 8.96898H1335.21ZM1326.19 8.96898L1332.91 15.684L1339.62 8.96898H1343.29L1330.74 21.5168L1321.98 30.2904L1316.89 25.3889L1320.78 21.2717L1323.71 24.1881L1330.34 17.5466L1321.71 8.91992L1326.19 8.96898ZM1306.08 8.96898H1311.48L1305.88 14.5811L1300.26 8.96898H1306.08ZM1296.05 8.96898L1306.05 18.9925L1316.08 8.96898H1320.02L1306.08 23.2568L1291.4 8.96898H1296.05ZM1280.1 8.96898L1277.8 11.2727L1275.35 8.96898H1280.1ZM1271.07 8.96898L1277.8 15.684L1284.5 8.96898H1288.39L1275.87 21.5168L1267.08 30.2904L1262 25.3889L1265.89 21.2717L1268.82 24.2126L1275.43 17.571L1266.79 8.94445L1271.07 8.96898ZM1250.96 8.96898H1256.57L1250.96 14.5811L1245.34 8.96898H1250.96ZM1240.93 8.96898L1250.94 18.9925L1260.97 8.96898H1264.91L1250.96 23.2568L1236.29 8.96898H1240.93ZM1225.01 8.96898L1222.68 11.2727L1220.38 8.96898H1225.01ZM1215.98 8.96898L1222.68 15.684L1229.41 8.96898H1233.2L1220.68 21.5168L1211.92 30.2904L1206.81 25.3889L1210.7 21.2717L1213.63 24.1881L1220.24 17.5466L1211.63 8.91992L1215.98 8.96898ZM1195.85 8.96898H1201.4L1195.78 14.5811L1190.15 8.96898H1195.85ZM1185.82 8.96898L1195.82 18.9925L1205.88 8.96898H1209.79L1195.85 23.2568L1181.17 8.96898H1185.82ZM1169.89 8.96898L1167.59 11.2727L1165.27 8.96898H1169.89ZM1160.87 8.96898L1167.59 15.684L1174.3 8.96898H1178.19L1165.64 21.5168L1156.88 30.2904L1151.79 25.3889L1155.68 21.2717L1158.59 24.2126L1165.22 17.571L1156.59 8.94445L1160.87 8.96898ZM1140.76 8.96898H1146.36L1140.76 14.5811L1135.13 8.96898H1140.76ZM1130.73 8.96898L1140.73 18.9925L1150.76 8.96898H1154.7L1140.76 23.2568L1126.08 8.96898H1130.73ZM1114.8 8.96898L1112.36 11.2727L1110.06 8.96898H1114.8ZM1105.78 8.96898L1112.48 15.684L1119.21 8.96898H1123.07L1110.55 21.5168L1101.79 30.2904L1096.68 25.3889L1100.57 21.2717L1103.5 24.2126L1110.11 17.571L1101.47 8.94445L1105.78 8.96898ZM1085.64 8.96898H1091.25L1085.64 14.5811L1080.02 8.96898H1085.64ZM1075.62 8.96898L1085.62 18.9925L1095.65 8.96898H1099.59L1085.64 23.2568L1070.97 8.96898H1075.62ZM1059.69 8.96898L1057.24 11.2727L1054.94 8.96898H1059.69ZM1050.66 8.96898L1057.37 15.684L1064.09 8.96898H1067.98L1055.43 21.5168L1046.68 30.2904L1041.56 25.3889L1045.45 21.2717L1048.39 24.2126L1055.02 17.571L1046.38 8.94445L1050.66 8.96898ZM1030.55 8.96898H1036.16L1030.55 14.5811L1024.93 8.96898H1030.55ZM1020.5 8.96898L1030.53 18.9925L1040.56 8.96898H1044.47L1030.55 23.2568L1015.88 8.96898H1020.5ZM1004.58 8.96898L1002.28 11.2727L999.83 8.96898H1004.58ZM995.549 8.96898L1002.28 15.684L1008.98 8.96898H1012.87L1000.34 21.5168L991.562 30.2904L986.473 25.3889L990.363 21.2717L993.274 24.2126L999.903 17.571L991.268 8.94445L995.549 8.96898ZM975.441 8.96898H981.043L975.441 14.5811L969.814 8.96898H975.441ZM965.411 8.96898L975.416 18.9925L985.446 8.96898H989.384L975.441 23.2568L960.763 8.96898H965.411ZM949.486 8.96898L947.04 11.2727L944.74 8.96898H949.486ZM940.459 8.96898L946.991 15.684L953.718 8.96898H957.583L945.058 21.5168L936.3 30.2904L931.188 25.3889L935.077 21.2717L938.013 24.2126L944.618 17.571L935.982 8.94445L940.459 8.96898ZM920.326 8.96898H925.928L920.326 14.5811L914.7 8.96898H920.326ZM910.297 8.96898L920.082 18.9925L930.111 8.96898H934.05L920.106 23.2568L905.429 8.96898H910.297ZM894.372 8.96898L892.072 11.2727L889.626 8.96898H894.372ZM885.345 8.96898L892.072 15.684L898.775 8.96898H902.664L890.115 21.5168L881.357 30.2904L876.269 25.3889L880.159 21.2717L883.07 24.2126L889.699 17.571L880.942 8.96898H885.345ZM865.237 8.96898H870.839L865.237 14.5811L859.61 8.96898H865.237ZM855.207 8.96898L865.212 18.9925L875.242 8.96898H879.18L865.237 23.2568L850.559 8.96898H855.207ZM839.257 8.96898L836.958 11.2727L834.634 8.96898H839.257ZM830.231 8.96898L836.909 15.684L843.612 8.96898H847.428L834.903 21.5168L826.121 30.2904L821.033 25.3889L824.922 21.2717L827.858 24.2126L834.463 17.571L825.827 8.94445L830.231 8.96898ZM836.591 42.0295L839.037 39.5788L841.483 42.0295H836.591ZM845.715 42.0295L838.964 35.241L832.016 42.0295H827.613L840.798 28.82L848.92 20.6835L854.033 25.585L850.143 29.7023L847.257 26.6388L840.652 33.2559L849.311 41.9315L845.715 42.0295ZM845.177 33.3539L847.379 31.1482L850.363 34.1381L858.583 25.4135L849.042 16.3212L840.065 25.291L826.145 39.1376L812.202 25.4624L824.898 12.4245L830.059 17.5956L827.858 19.8258L824.849 16.8359L816.629 25.536L826.194 34.6527L835.148 25.6586L837.031 23.796L838.303 22.5216L848.969 11.9344L862.913 25.6095L850.217 38.623L845.177 33.3539ZM865.237 42.0295H859.439L865.09 36.4418L870.765 42.103L865.237 42.0295ZM875.291 42.0295L865.237 31.957L855.158 42.0295H851.146L865.114 27.7172L879.792 42.0295H875.291ZM891.681 42.0295L894.127 39.5788L896.573 42.0295H891.681ZM900.83 42.0295L894.054 35.241L887.277 42.0295H882.874L896.059 28.82L904.206 20.6835L909.294 25.585L905.404 29.6533L902.371 26.6388L895.741 33.2559L904.401 41.9315L900.83 42.0295ZM900.267 33.3539L902.493 31.1482L905.404 34.1381L913.624 25.4135L904.083 16.3212L895.105 25.291L881.309 39.1376L867.365 25.4624L880.061 12.4245L885.223 17.5956L882.996 19.8258L879.963 16.8359L871.744 25.536L881.284 34.6527L890.262 25.6586L892.145 23.796L893.418 22.5216L904.059 11.9344L918.002 25.6095L905.404 38.525L900.267 33.3539ZM920.326 42.0295H914.529L920.204 36.4418L925.879 42.103L920.326 42.0295ZM930.405 42.0295L920.326 31.957L910.248 42.0295H906.236L920.204 27.7172L934.882 42.0295H930.405ZM946.795 42.0295L949.241 39.5788L951.687 42.0295H946.795ZM955.944 42.0295L949.168 35.241L942.392 42.0295H937.988L951.174 28.82L959.222 20.6835L964.335 25.585L960.445 29.7023L957.461 26.6388L950.856 33.2559L959.516 41.9315L955.944 42.0295ZM955.381 33.3539L957.583 31.1482L960.592 34.1381L968.811 25.4135L959.222 16.3212L950.244 25.291L936.447 39.1376L922.528 25.4624L935.224 12.4245L940.386 17.5956L938.184 19.8258L935.077 16.8359L926.858 25.536L936.398 34.6527L945.376 25.6586L947.235 23.796L948.507 22.5216L959.222 11.9344L973.166 25.6095L960.47 38.623L955.381 33.3539ZM975.441 42.0295H969.643L975.294 36.4418L980.969 42.103L975.441 42.0295ZM985.495 42.0295L975.441 31.957L965.362 42.0295H961.35L975.318 27.7172L989.996 42.0295H985.495ZM1001.91 42.0295L1004.36 39.5788L1006.8 42.0295H1001.91ZM1011.03 42.0295L1004.26 35.241L997.506 42.0295H992.956L1006.14 28.82L1014.29 20.6835L1019.4 25.585L1015.49 29.6533L1012.57 26.6388L1005.95 33.2559L1014.61 41.9315L1011.03 42.0295ZM1010.5 33.3539L1012.7 31.1482L1015.49 34.1381L1023.71 25.4135L1014.16 16.3212L1005.19 25.291L991.39 39.1376L977.447 25.4624L990.143 12.4245L995.304 17.5956L993.078 19.8258L990.167 16.8359L981.948 25.536L991.488 34.6527L1000.47 25.6586L1002.35 23.796L1003.62 22.5216L1014.26 11.9344L1028.23 25.6095L1015.49 38.525L1010.5 33.3539ZM1030.55 42.0295H1024.76L1030.41 36.4418L1036.08 42.103L1030.55 42.0295ZM1040.61 42.0295L1030.55 31.957L1020.38 42.0295H1016.46L1030.43 27.7172L1045.11 42.0295H1040.61ZM1057 42.0295L1059.45 39.5788L1061.89 42.0295H1057ZM1066.15 42.0295L1059.37 35.241L1052.6 42.0295H1048.19L1061.38 28.82L1069.52 20.6835L1074.61 25.585L1070.72 29.7023L1067.69 26.6388L1061.06 33.2559L1069.72 41.9315L1066.15 42.0295ZM1065.59 33.3539L1067.81 31.1482L1070.8 34.1381L1079.02 25.4135L1069.47 16.3212L1060.5 25.291L1046.7 39.1376L1032.61 25.4624L1045.33 12.4245L1050.49 17.5956L1048.27 19.8258L1045.28 16.8359L1037.06 25.536L1046.6 34.6527L1055.58 25.6586L1057.44 23.796L1058.74 22.5216L1069.3 11.9344L1083.25 25.6095L1070.55 38.623L1065.59 33.3539ZM1085.64 42.0295H1079.97L1085.64 36.3683L1091.32 42.0295H1085.64ZM1095.72 42.0295L1085.64 31.957L1075.57 42.0295H1071.68L1085.64 27.7172L1100.32 42.0295H1095.72ZM1112.11 42.0295L1114.56 39.5788L1117.01 42.0295H1112.11ZM1121.26 42.0295L1114.49 35.241L1107.71 42.0295H1103.31L1116.49 28.82L1124.61 20.6835L1129.73 25.585L1125.84 29.7023L1122.9 26.7859L1116.3 33.4029L1124.96 42.0785L1121.26 42.0295ZM1120.7 33.3539L1122.9 31.1482L1125.89 34.1381L1134.13 25.4135L1124.56 16.3212L1115.59 25.291L1101.79 39.1376L1087.85 25.4624L1100.54 12.4245L1105.7 17.5956L1103.5 19.8258L1100.37 16.8359L1092.15 25.536L1101.72 34.6527L1110.69 25.6586L1112.55 23.796L1113.83 22.5216L1124.49 11.8363L1138.44 25.5115L1125.74 38.525L1120.7 33.3539ZM1140.76 42.0295H1135.08L1140.73 36.3683L1146.41 42.0295H1140.76ZM1150.81 42.0295L1140.76 31.957L1130.46 42.0295H1126.57L1140.54 27.7172L1155.22 42.0295H1150.81ZM1167.23 42.0295L1169.67 39.5788L1172.12 42.0295H1167.23ZM1176.35 42.0295L1169.58 35.241L1162.82 42.0295H1158.4L1171.58 28.82L1179.73 20.6835L1184.84 25.585L1180.95 29.7023L1178.02 26.7859L1171.39 33.4029L1180.05 42.0785L1176.35 42.0295ZM1175.79 33.3539L1178.02 31.1482L1181 34.1381L1189.17 25.4135L1179.63 16.3212L1170.65 25.291L1156.86 39.1376L1142.91 25.4624L1155.61 12.4245L1160.77 17.5956L1158.54 19.8258L1155.49 16.8359L1147.27 25.536L1156.81 34.6527L1165.78 25.6586L1167.67 23.796L1168.94 22.5216L1179.58 11.8363L1193.52 25.5115L1180.83 38.525L1175.79 33.3539ZM1195.85 42.0295H1190.17L1195.85 36.3683L1201.52 42.0295H1195.85ZM1205.93 42.0295L1195.85 31.957L1185.77 42.0295H1181.83L1195.78 27.7172L1210.45 42.0295H1205.93ZM1222.32 42.0295L1224.76 39.5788L1227.21 42.0295H1222.32ZM1231.47 42.0295L1224.69 35.241L1217.91 42.0295H1213.51L1226.7 28.82L1234.84 20.6835L1239.93 25.585L1236.04 29.7023L1233.01 26.6388L1226.38 33.2559L1235.04 41.9315L1231.47 42.0295ZM1230.9 33.3539L1233.13 31.1482L1236.11 34.1381L1244.33 25.4135L1234.77 16.3212L1225.82 25.291L1211.99 39.1376L1198.05 25.4624L1210.77 12.4245L1215.91 17.5956L1213.71 19.8258L1210.6 16.8359L1202.38 25.536L1211.92 34.6527L1220.97 25.6586L1222.83 23.796L1224.13 22.5216L1234.77 11.8363L1248.71 25.5115L1236.02 38.525L1230.9 33.3539ZM1250.96 42.0295H1245.29L1250.82 36.4418L1256.49 42.103L1250.96 42.0295ZM1261.02 42.0295L1250.96 31.957L1240.88 42.0295H1236.87L1250.84 27.7172L1265.52 42.0295H1261.02ZM1277.43 42.0295L1279.88 39.5788L1282.32 42.0295H1277.43ZM1286.56 42.0295L1279.68 35.241L1272.91 42.0295H1268.5L1281.69 28.82L1289.81 20.6835L1294.92 25.585L1291.03 29.7023L1288.1 26.7859L1281.49 33.4029L1290.15 42.0785L1286.56 42.0295ZM1286.02 33.3539L1288.22 31.1482L1291.2 34.1381L1299.25 25.4135L1289.71 16.3212L1280.73 25.291L1266.94 39.1376L1252.99 25.4624L1265.69 12.4245L1270.85 17.5956L1268.65 19.8258L1265.69 16.8359L1257.47 25.536L1267.04 34.6527L1276.01 25.6586L1277.87 23.796L1279.14 22.5216L1289.81 11.8363L1303.75 25.5115L1291.06 38.525L1286.02 33.3539ZM1306.08 42.0295H1300.4L1306.05 36.3683L1311.73 42.0295H1306.08ZM1316.13 42.0295L1306.08 31.957L1296 42.0295H1291.91L1305.88 27.7172L1320.56 42.0295H1316.13ZM1332.52 42.0295L1334.97 39.5788L1337.41 42.0295H1332.52ZM1341.67 42.0295L1334.89 35.241L1328.12 42.0295H1323.71L1336.9 28.82L1345.05 20.6835L1350.13 25.585L1346.25 29.7023L1343.29 26.6388L1336.66 33.2559L1345.32 41.9315L1341.67 42.0295ZM1341.11 33.3539L1343.33 31.1482L1346.32 34.1381L1354.54 25.4135L1345 16.3212L1335.95 25.291L1322.15 39.1376L1308.21 25.4624L1320.9 12.4245L1326.06 17.5956L1323.84 19.8258L1320.8 16.8359L1312.58 25.536L1322.12 34.6527L1331.05 25.6586L1332.94 23.796L1334.21 22.5216L1344.85 11.8363L1358.79 25.5115L1346.1 38.525L1341.11 33.3539ZM1361.17 42.0295H1355.49L1361.17 36.3683L1366.84 42.0295H1361.17ZM1371.25 42.0295L1361.17 31.957L1351.09 42.0295H1347.2L1361.17 27.7172L1375.84 42.0295H1371.25ZM1387.64 42.0295L1390.08 39.5788L1392.53 42.0295H1387.64ZM1396.78 42.0295L1390.01 35.241L1383.23 42.0295H1378.83L1392.01 28.82L1400.14 20.6835L1405.25 25.585L1401.36 29.7023L1398.42 26.7859L1391.82 33.4029L1400.48 42.0785L1396.78 42.0295ZM1396.22 33.3539L1398.42 31.1482L1401.43 34.1381L1409.65 25.4135L1400.09 16.3212L1391.11 25.291L1377.31 39.1376L1363.37 25.4624L1376.06 12.4245L1381.23 17.5956L1379.02 19.8258L1375.92 16.8359L1367.75 25.536L1377.29 34.6527L1386.27 25.6586L1388.13 23.796L1389.4 22.5216L1400.06 11.8363L1414.01 25.5115L1401.31 38.525L1396.22 33.3539ZM1416.28 42.0295H1410.61L1416.26 36.3683L1421.93 42.0295H1416.28ZM1426.34 42.0295L1416.28 31.957L1406.2 42.0295H1402.31L1416.28 27.7172L1430.96 42.0295H1426.34ZM1442.75 42.0295L1445.2 39.5788L1447.64 42.0295H1442.75ZM1451.87 42.0295L1445.12 35.241L1438.35 42.0295H1433.8L1446.98 28.82L1455.1 20.6835L1460.22 25.585L1456.33 29.7023L1453.37 26.6388L1446.76 33.2559L1455.42 41.9315L1451.87 42.0295ZM1451.34 33.3539L1453.54 31.1482L1456.52 34.1381L1464.74 25.4135L1455.2 16.3212L1446.03 25.291L1432.23 39.1376L1418.29 25.4624L1430.98 12.4245L1436.15 17.5956L1433.92 19.8258L1431.01 16.8359L1422.79 25.536L1432.35 34.6527L1441.31 25.6586L1443.19 23.796L1444.46 22.5216L1455.13 11.8363L1469.07 25.5115L1456.35 38.525L1451.34 33.3539ZM1471.4 42.0295H1465.6L1471.25 36.3683L1476.92 42.0295H1471.4ZM1481.45 42.0295L1471.4 31.957L1461.32 42.0295H1457.43L1471.4 27.7172L1486.07 42.0295H1481.45ZM1497.84 42.0295L1500.29 39.5788L1502.73 42.0295H1497.84ZM1506.99 42.0295L1500.21 35.241L1493.44 42.0295H1489.03L1502.22 28.82L1510.36 20.6835L1515.45 25.585L1511.56 29.7023L1508.53 26.6388L1501.9 33.2559L1510.56 41.9315L1506.99 42.0295ZM1506.43 33.3539L1508.65 31.1482L1511.64 34.1381L1519.86 25.4135L1510.32 16.3212L1501.34 25.291L1487.54 39.1376L1473.6 25.4624L1486.29 12.4245L1491.46 17.5956L1489.23 19.8258L1486.12 16.8359L1477.83 25.536L1487.37 34.6527L1496.35 25.6586L1498.21 23.796L1499.5 22.5216L1510.14 11.8363L1524.09 25.5115L1511.39 38.525L1506.43 33.3539ZM1526.49 42.0295H1520.81L1526.49 36.3683L1532.16 42.0295H1526.49ZM1536.56 42.0295L1526.49 31.957L1516.41 42.0295H1512.52L1526.49 27.7172L1541.16 42.0295H1536.56ZM1552.95 42.0295L1555.4 39.5788L1557.85 42.0295H1552.95ZM1562.1 42.0295L1555.33 35.241L1548.55 42.0295H1544.15L1557.33 28.82L1565.45 20.6835L1570.57 25.585L1566.68 29.7023L1563.74 26.7859L1557.14 33.4029L1565.8 42.0785L1562.1 42.0295ZM1561.54 33.3539L1563.74 31.1482L1566.75 34.1381L1574.97 25.4135L1565.41 16.3212L1556.43 25.291L1542.63 39.1376L1528.69 25.4624L1541.38 12.4245L1546.54 17.5956L1544.34 19.8258L1541.24 16.8359L1533.02 25.536L1542.56 34.6527L1551.54 25.6586L1553.39 23.796L1554.67 22.5216L1565.33 11.8363L1579.28 25.5115L1566.58 38.525L1561.54 33.3539ZM1581.6 42.0295H1575.92L1581.58 36.3683L1587.25 42.0295H1581.6ZM1591.65 42.0295L1581.6 31.957L1571.52 42.0295H1567.63L1581.6 27.7172L1596.28 42.0295H1591.65ZM1608.07 42.0295L1610.51 39.5788L1612.96 42.0295H1608.07ZM1617.19 42.0295L1610.42 35.241L1603.67 42.0295H1599.24L1612.42 28.82L1620.57 20.6835L1625.68 25.585L1621.79 29.7023L1618.73 26.6388L1612.1 33.2559L1620.76 41.9315L1617.19 42.0295ZM1616.63 33.3539L1618.86 31.1482L1621.84 34.1381L1630.06 25.4135L1620.52 16.3212L1611.54 25.291L1597.7 39.1376L1583.75 25.4624L1596.45 12.4245L1601.61 17.5956L1599.38 19.8258L1596.33 16.8359L1588.11 25.536L1597.65 34.6527L1606.63 25.6586L1608.51 23.796L1609.78 22.5216L1620.42 11.8363L1634.39 25.5115L1621.67 38.525L1616.63 33.3539ZM1636.69 42.0295H1631.01L1636.69 36.3683L1642.37 42.0295H1636.69ZM1646.77 42.0295L1636.71 31.957L1626.61 42.0295H1622.75L1636.69 27.7172L1651.37 42.0295H1646.77ZM1663.16 42.0295L1665.6 39.5788L1668.05 42.0295H1663.16ZM1672.31 42.0295L1665.53 35.241L1658.75 42.0295H1654.35L1667.54 28.82L1675.68 20.6835L1680.77 25.585L1676.88 29.7023L1673.85 26.6388L1667.22 33.2559L1675.88 41.9315L1672.31 42.0295ZM1671.74 33.3539L1673.97 31.1482L1676.96 34.1381L1685.17 25.4135L1675.61 16.3212L1666.66 25.291L1652.86 39.1376L1638.89 25.4624L1651.61 12.4245L1656.75 17.5956L1654.55 19.8258L1651.51 16.8359L1643.29 25.536L1652.84 34.6527L1661.81 25.6586L1663.67 23.796L1664.97 22.5216L1675.61 11.8363L1689.55 25.5115L1676.86 38.525L1671.74 33.3539ZM1691.8 42.0295H1686.01L1691.68 36.3683L1697.36 42.0295H1691.8ZM1701.88 42.0295L1691.8 31.957L1681.73 42.0295H1677.84L1691.8 27.7172L1706.48 42.0295H1701.88ZM1718.27 42.0295L1720.72 39.5788L1723.17 42.0295H1718.27ZM1727.4 42.0295L1720.65 35.241L1713.87 42.0295H1709.47L1722.65 28.82L1730.77 20.6835L1735.89 25.585L1732 29.7023L1729.06 26.7859L1722.46 33.4029L1731.12 42.0785L1727.4 42.0295ZM1726.86 33.3539L1729.06 31.1482L1732.04 34.1381L1740.26 25.4135L1730.72 16.3212L1721.75 25.291L1707.78 39.1376L1693.83 25.4624L1706.53 12.4245L1711.69 17.5956L1709.49 19.8258L1706.53 16.8359L1698.31 25.536L1707.88 34.6527L1716.85 25.6586L1718.71 23.796L1719.98 22.5216L1730.65 11.8363L1744.59 25.5115L1731.9 38.525L1726.86 33.3539ZM1746.92 42.0295H1741.24L1746.89 36.3683L1752.57 42.0295H1746.92ZM1756.97 42.0295L1746.92 31.957L1736.84 42.0295H1732.95L1746.92 27.7172L1761.6 42.0295H1756.97ZM1773.36 42.0295L1775.81 39.5788L1778.25 42.0295H1773.36ZM1782.51 42.0295L1775.74 35.241L1768.93 42.0295H1764.53L1777.72 28.82L1785.86 20.6835L1790.98 25.585L1787.09 29.7023L1784.15 26.7859L1777.52 33.4029L1786.18 42.0785L1782.51 42.0295ZM1781.95 33.3539L1784.17 31.1482L1787.16 34.1381L1795.38 25.4135L1785.84 16.3212L1776.86 25.291L1763.06 39.1376L1749.12 25.4624L1761.6 12.4245L1766.76 17.5956L1764.53 19.8258L1761.6 16.8359L1753.38 25.536L1762.92 34.6527L1771.89 25.6586L1773.78 23.796L1775.05 22.5216L1785.69 11.8363L1799.64 25.5115L1786.94 38.525L1781.95 33.3539ZM1802.01 42.0295H1796.33L1802.01 36.3683L1807.68 42.0295H1802.01ZM1812.09 42.0295L1802.01 31.957L1791.93 42.0295H1788.04L1802.01 27.7172L1816.69 42.0295H1812.09ZM1828.48 42.0295L1830.92 39.5788L1833.37 42.0295H1828.48ZM1837.63 42.0295L1830.85 35.241L1824.07 42.0295H1819.67L1832.86 28.82L1841 20.6835L1846.09 25.585L1842.2 29.7023L1839.17 26.6388L1832.54 33.2559L1841.2 41.9315L1837.63 42.0295ZM1831.17 8.96898L1828.84 11.2727L1826.54 8.96898H1831.17ZM1822.14 8.96898L1828.84 15.684L1835.57 8.96898H1839.44L1826.91 21.5168L1818.15 30.2904L1813.04 25.3889L1816.93 21.2717L1819.87 24.2126L1826.47 17.571L1817.86 8.96898H1822.14ZM1822.14 17.5956L1819.94 19.8258L1816.76 16.8359L1808.54 25.536L1818.08 34.6527L1827.06 25.6586L1828.92 23.796L1830.19 22.5216L1840.85 11.9344L1854.8 25.6095L1842.1 38.623L1836.94 33.4519L1839.17 31.2462L1842.15 34.2362L1850.37 25.5115L1840.81 16.4192L1831.85 25.3889L1818.03 39.2357L1804.09 25.5605L1816.81 12.5225L1822.14 17.5956ZM1816.03 8.96898L1802.08 23.2568L1787.4 8.96898H1792L1802.01 18.9925L1812.04 8.96898H1816.03ZM1802.08 14.5811L1796.46 8.96898H1807.68L1802.08 14.5811Z" fill="#C7A363"/>
<path d="M1801.89 0H1746.8H1691.68H1636.57H1581.48H1526.36H1471.27H1416.16H1361.04H1305.96H1250.84H1195.73H1140.64H1085.52H1030.43H975.318H920.204H865.114H810V3.11245H865.114H920.204H975.318H1030.43H1085.52H1140.64H1195.73H1250.84H1305.96H1361.04H1416.16H1471.27H1526.36H1581.48H1636.57H1691.68H1746.8H1801.89H1857V0H1801.89Z" fill="#C7A363"/>
</g>
<defs>
<clipPath id="clip0_13385_920">
<rect width="1047" height="51" fill="white" transform="translate(-237)"/>
</clipPath>
<clipPath id="clip1_13385_920">
<rect width="1047" height="51" fill="white" transform="translate(810)"/>
</clipPath>
</defs>
</svg>
