<svg width="1440" height="25" viewBox="0 0 1440 25" fill="none" xmlns="http://www.w3.org/2000/svg">
<g opacity="0.5" clip-path="url(#clip0_13263_1063)">
<path d="M609.918 5.83301H-327V8.96996H-321.398L-327 14.5821V18.9935L-316.995 8.96996H-313.056L-327 23.2578V27.6692L-312.322 42.0305H-316.946L-327 31.958V36.4428L-321.349 42.104H-327V45.2164H720V42.104H714.325L720 36.4428V32.0315L709.921 42.104H706.032L720 27.7917V23.3804L705.322 9.04348H709.921L719.927 19.067V14.6312L714.3 9.04348H720V5.90653H609.918V5.83301ZM639.053 8.96996L636.754 11.2737L634.43 8.96996H639.053ZM630.026 8.96996L636.754 15.685L643.456 8.96996H647.346L634.797 21.5178L626.039 30.2914L620.951 25.3899L624.84 21.2727L627.751 24.2136L634.381 17.572L625.746 8.94543L630.026 8.96996ZM609.918 8.96996H615.52L609.918 14.5821L604.292 8.96996H609.918ZM599.889 8.96996L609.894 18.9935L619.923 8.96996H623.862L609.918 23.2578L595.241 8.96996H599.889ZM583.963 8.96996L581.639 11.2737L579.315 8.96996H583.963ZM574.912 8.96996L581.639 15.685L588.367 8.96996H592.232L579.707 21.5178L570.778 30.2914L565.665 25.3899L569.555 21.2727L572.49 24.2136L579.095 17.572L570.46 8.94543L574.912 8.96996ZM554.804 8.96996H560.406L554.804 14.5821L549.178 8.96996H554.804ZM544.774 8.96996L554.779 18.9935L564.809 8.96996H568.748L554.804 23.2578L540.126 8.96996H544.774ZM528.849 8.96996L526.525 11.2737L524.226 8.96996H528.849ZM519.822 8.96996L526.525 15.685L533.252 8.96996H537.142L524.593 21.5178L515.835 30.2914L510.722 25.3899L514.612 21.2727L517.547 24.2136L524.152 17.572L515.541 8.94543L519.822 8.96996ZM499.69 8.96996H505.316L499.714 14.5821L494.063 8.96996H499.69ZM489.66 8.96996L499.69 18.9935L509.719 8.96996H513.633L499.69 23.2578L485.012 8.96996H489.66ZM473.735 8.96996L471.435 11.2737L469.111 8.96996H473.735ZM464.708 8.96996L471.435 15.685L478.138 8.96996H482.028L469.503 21.5178L460.696 30.2914L455.608 25.3899L459.498 21.2727L462.409 24.2136L469.038 17.572L460.403 8.94543L464.708 8.96996ZM444.6 8.96996H450.202L444.6 14.5821L438.973 8.96996H444.6ZM434.57 8.96996L444.575 18.9935L454.605 8.96996H458.544L444.6 23.2578L429.922 8.96996H434.57ZM418.645 8.96996L416.321 11.2737L414.022 8.96996H418.645ZM409.618 8.96996L416.321 15.685L423.048 8.96996H426.913L414.217 21.5178L405.46 30.2914L400.347 25.3899L404.237 21.2727L407.172 24.2136L413.777 17.572L405.142 8.94543L409.618 8.96996ZM389.486 8.96996H395.088L389.486 14.5821L383.859 8.96996H389.486ZM379.456 8.96996L389.461 18.9935L399.491 8.96996H403.429L389.486 23.2578L374.808 8.96996H379.456ZM363.531 8.96996L361.084 11.2737L358.785 8.96996H363.531ZM354.504 8.96996L361.207 15.685L367.934 8.96996H371.824L359.274 21.5178L350.517 30.2914L345.428 25.3899L349.293 21.2727L352.229 24.2136L358.858 17.572L350.223 8.94543L354.504 8.96996ZM334.396 8.96996H339.998L334.396 14.5821L328.769 8.96996H334.396ZM324.366 8.96996L334.371 18.9935L344.401 8.96996H348.168L334.249 23.2578L319.571 8.96996H324.366ZM308.416 8.96996L306.117 11.2737L303.793 8.96996H308.416ZM299.39 8.96996L306.117 15.685L312.82 8.96996H316.709L304.135 21.5178L295.353 30.2914L290.265 25.3899L294.155 21.2727L297.066 24.2136L303.695 17.572L295.06 8.94543L299.39 8.96996ZM279.281 8.96996H284.883L279.281 14.5821L273.655 8.96996H279.281ZM269.252 8.96996L279.257 18.9935L289.287 8.96996H293.225L279.281 23.2578L264.604 8.96996H269.252ZM253.327 8.96996L250.88 11.2737L248.581 8.96996H253.327ZM244.3 8.96996L251.003 15.685L257.73 8.96996H261.595L249.07 21.5178L240.313 30.2914L235.2 25.3899L239.089 21.2727L242.025 24.2136L248.63 17.572L240.019 8.94543L244.3 8.96996ZM224.167 8.96996H229.769L224.167 14.5821L218.541 8.96996H224.167ZM214.138 8.96996L224.143 18.9935L234.172 8.96996H238.086L224.143 23.2578L209.465 8.96996H214.138ZM198.212 8.96996L195.913 11.2737L193.467 8.96996H198.212ZM189.186 8.96996L195.913 15.685L202.616 8.96996H206.285L193.736 21.5178L184.978 30.2914L179.89 25.3899L183.779 21.2727L186.715 24.1891L193.344 17.5476L184.709 8.9209L189.186 8.96996ZM169.077 8.96996H174.484L168.882 14.5821L163.255 8.96996H169.077ZM159.048 8.96996L169.053 18.9935L179.083 8.96996H183.021L169.077 23.2578L154.4 8.96996H159.048ZM143.098 8.96996L140.799 11.2737L138.352 8.96996H143.098ZM134.071 8.96996L140.799 15.685L147.501 8.96996H151.391L138.866 21.5178L130.084 30.2914L124.996 25.3899L128.885 21.2727L131.821 24.2136L138.426 17.572L129.79 8.94543L134.071 8.96996ZM113.963 8.96996H119.565L113.963 14.5821L108.337 8.96996H113.963ZM103.933 8.96996L113.939 18.9935L123.968 8.96996H127.907L113.963 23.2578L99.2856 8.96996H103.933ZM88.0083 8.96996L85.6843 11.2737L83.3848 8.96996H88.0083ZM78.9816 8.96996L85.6843 15.685L92.4116 8.96996H96.2033L83.6784 21.5178L74.9208 30.2914L69.8081 25.3899L73.6977 21.2727L76.6332 24.1891L83.2381 17.5476L74.6272 8.9209L78.9816 8.96996ZM58.8488 8.96996H64.4019L58.7755 14.5821L53.149 8.96996H58.8488ZM48.8192 8.96996L58.8244 18.9935L68.8785 8.96996H72.7925L58.8488 23.2578L44.1713 8.96996H48.8192ZM32.894 8.96996L30.5945 11.2737L28.2706 8.96996H32.894ZM23.8673 8.96996L30.5945 15.685L37.2973 8.96996H41.1868L28.6375 21.5178L19.8799 30.2914L14.7917 25.3899L18.6812 21.2727L21.5923 24.2136L28.2217 17.572L19.5863 8.94543L23.8673 8.96996ZM3.75906 8.96996H9.36096L3.75906 14.5821L-1.86737 8.96996H3.75906ZM-6.27063 8.96996L3.73456 18.9935L13.7643 8.96996H17.7027L3.75906 23.2578L-10.9185 8.96996H-6.27063ZM-22.1958 8.96996L-24.6421 11.2737L-26.9415 8.96996H-22.1958ZM-31.2225 8.96996L-24.5198 15.685L-17.7925 8.96996H-13.9275L-26.4523 21.5178L-35.2099 30.2914L-40.3226 25.3899L-36.433 21.2727L-33.4975 24.2136L-26.8926 17.572L-35.528 8.94543L-31.2225 8.96996ZM-51.3552 8.96996H-45.7533L-51.3552 14.5821L-56.9817 8.96996H-51.3552ZM-61.3849 8.96996L-51.3797 18.9935L-41.35 8.96996H-37.4115L-51.3552 23.2578L-66.0328 8.96996H-61.3849ZM-77.3101 8.96996L-79.7563 11.2737L-82.0558 8.96996H-77.3101ZM-86.3368 8.96996L-79.634 15.685L-72.9068 8.96996H-69.0172L-81.5666 21.5178L-90.3242 30.2914L-95.4369 25.3899L-91.5473 21.2727L-88.6118 24.2136L-81.9824 17.572L-90.6177 8.94543L-86.3368 8.96996ZM-106.445 8.96996H-100.843L-106.445 14.5821L-112.071 8.96996H-106.445ZM-116.499 8.96996L-106.47 18.9935L-96.4398 8.96996H-92.5258L-106.445 23.2578L-121.123 8.96996H-116.499ZM-132.424 8.96996L-134.724 11.2737L-137.17 8.96996H-132.424ZM-141.451 8.96996L-134.724 15.685L-128.021 8.96996H-124.132L-136.656 21.5178L-145.438 30.2914L-150.527 25.3899L-146.637 21.2727L-143.726 24.2136L-137.097 17.572L-145.732 8.94543L-141.451 8.96996ZM-161.559 8.96996H-155.957L-161.559 14.5821L-167.186 8.96996H-161.559ZM-171.589 8.96996L-161.584 18.9935L-151.554 8.96996H-147.616L-161.559 23.2578L-176.237 8.96996H-171.589ZM-187.514 8.96996L-189.96 11.2737L-192.26 8.96996H-187.514ZM-196.541 8.96996L-190.009 15.685L-183.282 8.96996H-179.417L-191.942 21.5178L-200.7 30.2914L-205.812 25.3899L-201.923 21.2727L-198.987 24.2136L-192.382 17.572L-201.018 8.94543L-196.541 8.96996ZM-216.674 8.96996H-211.072L-216.674 14.5821L-222.3 8.96996H-216.674ZM-226.703 8.96996L-216.918 18.9935L-206.889 8.96996H-202.95L-216.894 23.2578L-231.571 8.96996H-226.703ZM-242.628 8.96996L-244.928 11.2737L-247.374 8.96996H-242.628ZM-251.655 8.96996L-244.928 15.685L-238.225 8.96996H-234.336L-246.885 21.5178L-255.643 30.2914L-260.731 25.3899L-256.841 21.2727L-253.93 24.2136L-247.301 17.572L-256.058 8.96996H-251.655ZM-271.763 8.96996H-266.161L-271.763 14.5821L-277.39 8.96996H-271.763ZM-281.793 8.96996L-271.788 18.9935L-261.758 8.96996H-257.82L-271.763 23.2578L-286.441 8.96996H-281.793ZM-297.743 8.96996L-300.042 11.2737L-302.366 8.96996H-297.743ZM-306.769 8.96996L-300.091 15.685L-293.388 8.96996H-289.572L-302.097 21.5178L-310.879 30.2914L-315.967 25.3899L-312.078 21.2727L-309.142 24.2136L-302.537 17.572L-311.173 8.94543L-306.769 8.96996ZM-300.409 42.0305L-297.963 39.5797L-295.517 42.0305H-300.409ZM-291.285 42.0305L-298.036 35.2419L-304.984 42.0305H-309.387L-296.202 28.821L-288.08 20.6845L-282.967 25.586L-286.857 29.7032L-289.743 26.6398L-296.348 33.2569L-287.689 41.9324L-291.285 42.0305ZM-291.823 33.3548L-289.621 31.1492L-286.637 34.1391L-278.417 25.4144L-287.958 16.3222L-296.935 25.2919L-310.855 39.1386L-324.798 25.4634L-312.102 12.4255L-306.941 17.5966L-309.142 19.8267L-312.151 16.8368L-320.371 25.5369L-310.806 34.6537L-301.852 25.6595L-299.969 23.7969L-298.697 22.5226L-288.031 11.9353L-274.087 25.6105L-286.783 38.624L-291.823 33.3548ZM-271.763 42.0305H-277.561L-271.91 36.4428L-266.235 42.104L-271.763 42.0305ZM-261.709 42.0305L-271.763 31.958L-281.842 42.0305H-285.854L-271.886 27.7181L-257.208 42.0305H-261.709ZM-245.319 42.0305L-242.873 39.5797L-240.427 42.0305H-245.319ZM-236.17 42.0305L-242.946 35.2419L-249.723 42.0305H-254.126L-240.941 28.821L-232.794 20.6845L-227.706 25.586L-231.596 29.6543L-234.629 26.6398L-241.259 33.2569L-232.599 41.9324L-236.17 42.0305ZM-236.733 33.3548L-234.507 31.1492L-231.596 34.1391L-223.376 25.4144L-232.917 16.3222L-241.895 25.2919L-255.691 39.1386L-269.635 25.4634L-256.939 12.4255L-251.777 17.5966L-254.004 19.8267L-257.037 16.8368L-265.256 25.5369L-255.716 34.6537L-246.738 25.6595L-244.855 23.7969L-243.582 22.5226L-232.941 11.9353L-218.998 25.6105L-231.596 38.5259L-236.733 33.3548ZM-216.674 42.0305H-222.471L-216.796 36.4428L-211.121 42.104L-216.674 42.0305ZM-206.595 42.0305L-216.674 31.958L-226.752 42.0305H-230.764L-216.796 27.7181L-202.118 42.0305H-206.595ZM-190.205 42.0305L-187.759 39.5797L-185.313 42.0305H-190.205ZM-181.056 42.0305L-187.832 35.2419L-194.608 42.0305H-199.012L-185.826 28.821L-177.778 20.6845L-172.665 25.586L-176.555 29.7032L-179.539 26.6398L-186.144 33.2569L-177.484 41.9324L-181.056 42.0305ZM-181.619 33.3548L-179.417 31.1492L-176.408 34.1391L-168.189 25.4144L-177.778 16.3222L-186.756 25.2919L-200.553 39.1386L-214.472 25.4634L-201.776 12.4255L-196.614 17.5966L-198.816 19.8267L-201.923 16.8368L-210.142 25.5369L-200.602 34.6537L-191.624 25.6595L-189.765 23.7969L-188.493 22.5226L-177.778 11.9353L-163.834 25.6105L-176.53 38.624L-181.619 33.3548ZM-161.559 42.0305H-167.357L-161.706 36.4428L-156.031 42.104L-161.559 42.0305ZM-151.505 42.0305L-161.559 31.958L-171.638 42.0305H-175.65L-161.682 27.7181L-147.004 42.0305H-151.505ZM-135.091 42.0305L-132.645 39.5797L-130.198 42.0305H-135.091ZM-125.966 42.0305L-132.742 35.2419L-139.494 42.0305H-144.044L-130.859 28.821L-122.713 20.6845L-117.6 25.586L-121.514 29.6543L-124.425 26.6398L-131.054 33.2569L-122.395 41.9324L-125.966 42.0305ZM-126.504 33.3548L-124.303 31.1492L-121.514 34.1391L-113.295 25.4144L-122.835 16.3222L-131.813 25.2919L-145.61 39.1386L-159.553 25.4634L-146.857 12.4255L-141.696 17.5966L-143.922 19.8267L-146.833 16.8368L-155.052 25.5369L-145.512 34.6537L-136.534 25.6595L-134.65 23.7969L-133.378 22.5226L-122.737 11.9353L-108.769 25.6105L-121.514 38.5259L-126.504 33.3548ZM-106.445 42.0305H-112.243L-106.592 36.4428L-100.917 42.104L-106.445 42.0305ZM-96.3909 42.0305L-106.445 31.958L-116.622 42.0305H-120.536L-106.567 27.7181L-91.8898 42.0305H-96.3909ZM-80.001 42.0305L-77.5547 39.5797L-75.1084 42.0305H-80.001ZM-70.852 42.0305L-77.6281 35.2419L-84.4042 42.0305H-88.8075L-75.6221 28.821L-67.4761 20.6845L-62.3879 25.586L-66.2774 29.7032L-69.3108 26.6398L-75.9402 33.2569L-67.2804 41.9324L-70.852 42.0305ZM-71.4146 33.3548L-69.1885 31.1492L-66.204 34.1391L-57.9846 25.4144L-67.525 16.3222L-76.5028 25.2919L-90.2997 39.1386L-104.39 25.4634L-91.6696 12.4255L-86.508 17.5966L-88.7341 19.8267L-91.7186 16.8368L-99.938 25.5369L-90.3976 34.6537L-81.4198 25.6595L-79.5606 23.7969L-78.2641 22.5226L-67.6963 11.9353L-53.7526 25.6105L-66.4487 38.624L-71.4146 33.3548ZM-51.3552 42.0305H-57.0306L-51.3552 36.3693L-45.6799 42.0305H-51.3552ZM-41.2766 42.0305L-51.3552 31.958L-61.4338 42.0305H-65.3234L-51.3552 27.7181L-36.6777 42.0305H-41.2766ZM-24.8867 42.0305L-22.4404 39.5797L-19.9942 42.0305H-24.8867ZM-15.7376 42.0305L-22.5138 35.2419L-29.29 42.0305H-33.6932L-20.5079 28.821L-12.3863 20.6845L-7.27362 25.586L-11.1631 29.7032L-14.0987 26.7868L-20.7036 33.4039L-12.0438 42.0795L-15.7376 42.0305ZM-16.3003 33.3548L-14.0987 31.1492L-11.1142 34.1391L-2.87033 25.4144L-12.4352 16.3222L-21.413 25.2919L-35.2099 39.1386L-49.1536 25.4634L-36.4575 12.4255L-31.2959 17.5966L-33.4975 19.8267L-36.6288 16.8368L-44.8482 25.5369L-35.2833 34.6537L-26.3055 25.6595L-24.4464 23.7969L-23.1743 22.5226L-12.5086 11.8373L1.43509 25.5125L-11.261 38.5259L-16.3003 33.3548ZM3.75906 42.0305H-1.91629L3.73456 36.3693L9.40991 42.0305H3.75906ZM13.8132 42.0305L3.75906 31.958L-6.53973 42.0305H-10.4293L3.53885 27.7181L18.2164 42.0305H13.8132ZM30.2276 42.0305L32.6739 39.5797L35.1201 42.0305H30.2276ZM39.3521 42.0305L32.576 35.2419L25.8243 42.0305H21.3966L34.5819 28.821L42.728 20.6845L47.8407 25.586L43.9511 29.7032L41.0156 26.7868L34.3862 33.4039L43.046 42.0795L39.3521 42.0305ZM38.7895 33.3548L41.0156 31.1492L44.0001 34.1391L52.1706 25.4144L42.6302 16.3222L33.6523 25.2919L19.8554 39.1386L5.91174 25.4634L18.6078 12.4255L23.7695 17.5966L21.5433 19.8267L18.4855 16.8368L10.2661 25.5369L19.8065 34.6537L28.7843 25.6595L30.6679 23.7969L31.94 22.5226L42.5812 11.8373L56.5249 25.5125L43.8288 38.5259L38.7895 33.3548ZM58.8488 42.0305H53.1735L58.8488 36.3693L64.5242 42.0305H58.8488ZM68.9275 42.0305L58.8488 31.958L48.7703 42.0305H44.8318L58.7755 27.7181L73.453 42.0305H68.9275ZM85.3174 42.0305L87.7637 39.5797L90.2099 42.0305H85.3174ZM94.4664 42.0305L87.6903 35.2419L80.9141 42.0305H76.5109L89.6962 28.821L97.8423 20.6845L102.93 25.586L99.0409 29.7032L96.0076 26.6398L89.3782 33.2569L98.038 41.9324L94.4664 42.0305ZM93.9038 33.3548L96.1299 31.1492L99.1143 34.1391L107.334 25.4144L97.7689 16.3222L88.8156 25.2919L74.9942 39.1386L61.0505 25.4634L73.7711 12.4255L78.9082 17.5966L76.7065 19.8267L73.5998 16.8368L65.3803 25.5369L74.9208 34.6537L83.972 25.6595L85.8311 23.7969L87.1276 22.5226L97.7689 11.8373L111.713 25.5125L99.0164 38.5259L93.9038 33.3548ZM113.963 42.0305H108.288L113.816 36.4428L119.492 42.104L113.963 42.0305ZM124.017 42.0305L113.963 31.958L103.885 42.0305H99.8727L113.841 27.7181L128.518 42.0305H124.017ZM140.432 42.0305L142.878 39.5797L145.324 42.0305H140.432ZM149.556 42.0305L142.682 35.2419L135.906 42.0305H131.503L144.688 28.821L152.81 20.6845L157.922 25.586L154.033 29.7032L151.097 26.7868L144.492 33.4039L153.152 42.0795L149.556 42.0305ZM149.018 33.3548L151.22 31.1492L154.204 34.1391L162.252 25.4144L152.712 16.3222L143.734 25.2919L129.937 39.1386L115.993 25.4634L128.69 12.4255L133.851 17.5966L131.65 19.8267L128.69 16.8368L120.47 25.5369L130.035 34.6537L139.013 25.6595L140.872 23.7969L142.144 22.5226L152.81 11.8373L166.753 25.5125L154.057 38.5259L149.018 33.3548ZM169.077 42.0305H163.402L169.053 36.3693L174.728 42.0305H169.077ZM179.132 42.0305L169.077 31.958L158.999 42.0305H154.914L168.882 27.7181L183.559 42.0305H179.132ZM195.521 42.0305L197.968 39.5797L200.414 42.0305H195.521ZM204.67 42.0305L197.894 35.2419L191.118 42.0305H186.715L199.9 28.821L208.046 20.6845L213.135 25.586L209.245 29.7032L206.285 26.6398L199.656 33.2569L208.315 41.9324L204.67 42.0305ZM204.108 33.3548L206.334 31.1492L209.318 34.1391L217.538 25.4144L207.997 16.3222L198.946 25.2919L185.149 39.1386L171.206 25.4634L183.902 12.4255L189.063 17.5966L186.837 19.8267L183.804 16.8368L175.584 25.5369L185.125 34.6537L194.054 25.6595L195.937 23.7969L197.209 22.5226L207.851 11.8373L221.794 25.5125L209.098 38.5259L204.108 33.3548ZM224.167 42.0305H218.492L224.167 36.3693L229.843 42.0305H224.167ZM234.246 42.0305L224.167 31.958L214.089 42.0305H210.199L224.167 27.7181L238.845 42.0305H234.246ZM250.636 42.0305L253.082 39.5797L255.528 42.0305H250.636ZM259.785 42.0305L253.009 35.2419L246.232 42.0305H241.829L255.015 28.821L263.136 20.6845L268.249 25.586L264.359 29.7032L261.424 26.7868L254.819 33.4039L263.479 42.0795L259.785 42.0305ZM259.222 33.3548L261.424 31.1492L264.433 34.1391L272.652 25.4144L263.087 16.3222L254.109 25.2919L240.313 39.1386L226.369 25.4634L239.065 12.4255L244.227 17.5966L242.025 19.8267L238.918 16.8368L230.748 25.5369L240.288 34.6537L249.266 25.6595L251.125 23.7969L252.397 22.5226L263.063 11.8373L277.006 25.5125L264.31 38.5259L259.222 33.3548ZM279.281 42.0305H273.606L279.257 36.3693L284.932 42.0305H279.281ZM289.336 42.0305L279.281 31.958L269.203 42.0305H265.313L279.281 27.7181L293.959 42.0305H289.336ZM305.75 42.0305L308.196 39.5797L310.643 42.0305H305.75ZM314.875 42.0305L308.123 35.2419L301.347 42.0305H296.797L309.982 28.821L318.104 20.6845L323.216 25.586L319.327 29.7032L316.367 26.6398L309.762 33.2569L318.422 41.9324L314.875 42.0305ZM314.336 33.3548L316.538 31.1492L319.523 34.1391L327.742 25.4144L318.202 16.3222L309.028 25.2919L295.231 39.1386L281.287 25.4634L293.984 12.4255L299.145 17.5966L296.919 19.8267L294.008 16.8368L285.789 25.5369L295.353 34.6537L304.307 25.6595L306.19 23.7969L307.462 22.5226L318.128 11.8373L332.072 25.5125L319.351 38.5259L314.336 33.3548ZM334.396 42.0305H328.598L334.249 36.3693L339.924 42.0305H334.396ZM344.45 42.0305L334.396 31.958L324.317 42.0305H320.428L334.396 27.7181L349.073 42.0305H344.45ZM360.84 42.0305L363.286 39.5797L365.732 42.0305H360.84ZM369.989 42.0305L363.213 35.2419L356.437 42.0305H352.033L365.219 28.821L373.365 20.6845L378.453 25.586L374.563 29.7032L371.53 26.6398L364.901 33.2569L373.56 41.9324L369.989 42.0305ZM369.426 33.3548L371.652 31.1492L374.637 34.1391L382.856 25.4144L373.316 16.3222L364.338 25.2919L350.541 39.1386L336.597 25.4634L349.293 12.4255L354.455 17.5966L352.229 19.8267L349.122 16.8368L340.829 25.5369L350.37 34.6537L359.348 25.6595L361.207 23.7969L362.503 22.5226L373.145 11.8373L387.088 25.5125L374.392 38.5259L369.426 33.3548ZM389.486 42.0305H383.81L389.486 36.3693L395.161 42.0305H389.486ZM399.564 42.0305L389.486 31.958L379.407 42.0305H375.517L389.486 27.7181L404.163 42.0305H399.564ZM415.954 42.0305L418.4 39.5797L420.847 42.0305H415.954ZM425.103 42.0305L418.327 35.2419L411.551 42.0305H407.148L420.333 28.821L428.455 20.6845L433.567 25.586L429.678 29.7032L426.742 26.7868L420.137 33.4039L428.797 42.0795L425.103 42.0305ZM424.541 33.3548L426.742 31.1492L429.751 34.1391L437.97 25.4144L428.406 16.3222L419.428 25.2919L405.631 39.1386L391.687 25.4634L404.383 12.4255L409.545 17.5966L407.343 19.8267L404.237 16.8368L396.017 25.5369L405.557 34.6537L414.535 25.6595L416.394 23.7969L417.667 22.5226L428.332 11.8373L442.276 25.5125L429.58 38.5259L424.541 33.3548ZM444.6 42.0305H438.925L444.575 36.3693L450.251 42.0305H444.6ZM454.654 42.0305L444.6 31.958L434.521 42.0305H430.632L444.6 27.7181L459.277 42.0305H454.654ZM471.068 42.0305L473.515 39.5797L475.961 42.0305H471.068ZM480.193 42.0305L473.417 35.2419L466.665 42.0305H462.237L475.423 28.821L483.569 20.6845L488.682 25.586L484.792 29.7032L481.734 26.6398L475.105 33.2569L483.764 41.9324L480.193 42.0305ZM479.63 33.3548L481.856 31.1492L484.841 34.1391L493.06 25.4144L483.52 16.3222L474.542 25.2919L460.696 39.1386L446.753 25.4634L459.449 12.4255L464.61 17.5966L462.384 19.8267L459.326 16.8368L451.107 25.5369L460.647 34.6537L469.625 25.6595L471.509 23.7969L472.781 22.5226L483.422 11.8373L497.39 25.5125L484.67 38.5259L479.63 33.3548ZM499.69 42.0305H494.014L499.69 36.3693L505.365 42.0305H499.69ZM509.768 42.0305L499.714 31.958L489.611 42.0305H485.746L499.69 27.7181L514.367 42.0305H509.768ZM526.158 42.0305L528.604 39.5797L531.051 42.0305H526.158ZM535.307 42.0305L528.531 35.2419L521.755 42.0305H517.352L530.537 28.821L538.683 20.6845L543.771 25.586L539.882 29.7032L536.848 26.6398L530.219 33.2569L538.879 41.9324L535.307 42.0305ZM534.745 33.3548L536.971 31.1492L539.955 34.1391L548.175 25.4144L538.61 16.3222L529.656 25.2919L515.859 39.1386L501.891 25.4634L514.612 12.4255L519.749 17.5966L517.547 19.8267L514.514 16.8368L506.295 25.5369L515.835 34.6537L524.813 25.6595L526.672 23.7969L527.968 22.5226L538.61 11.8373L552.553 25.5125L539.857 38.5259L534.745 33.3548ZM554.804 42.0305H549.006L554.682 36.3693L560.357 42.0305H554.804ZM564.883 42.0305L554.804 31.958L544.725 42.0305H540.836L554.804 27.7181L569.482 42.0305H564.883ZM581.273 42.0305L583.719 39.5797L586.165 42.0305H581.273ZM590.397 42.0305L583.645 35.2419L576.869 42.0305H572.466L585.651 28.821L593.773 20.6845L598.886 25.586L594.996 29.7032L592.061 26.7868L585.456 33.4039L594.115 42.0795L590.397 42.0305ZM589.859 33.3548L592.061 31.1492L595.045 34.1391L603.264 25.4144L593.724 16.3222L584.746 25.2919L570.778 39.1386L556.834 25.4634L569.53 12.4255L574.692 17.5966L572.49 19.8267L569.53 16.8368L561.311 25.5369L570.876 34.6537L579.854 25.6595L581.713 23.7969L582.985 22.5226L593.651 11.8373L607.594 25.5125L594.898 38.5259L589.859 33.3548ZM609.918 42.0305H604.243L609.894 36.3693L615.569 42.0305H609.918ZM619.972 42.0305L609.918 31.958L599.84 42.0305H595.95L609.918 27.7181L624.596 42.0305H619.972ZM636.362 42.0305L638.809 39.5797L641.255 42.0305H636.362ZM645.511 42.0305L638.735 35.2419L631.935 42.0305H627.531L640.717 28.821L648.863 20.6845L653.975 25.586L650.086 29.7032L647.15 26.7868L640.521 33.4039L649.181 42.0795L645.511 42.0305ZM644.949 33.3548L647.175 31.1492L650.159 34.1391L658.379 25.4144L648.838 16.3222L639.86 25.2919L626.064 39.1386L612.12 25.4634L624.596 12.4255L629.757 17.5966L627.531 19.8267L624.596 16.8368L616.376 25.5369L625.917 34.6537L634.895 25.6595L636.778 23.7969L638.05 22.5226L648.691 11.8373L662.635 25.5125L649.939 38.5259L644.949 33.3548ZM665.008 42.0305H659.333L665.008 36.3693L670.683 42.0305H665.008ZM675.087 42.0305L665.008 31.958L654.929 42.0305H651.04L665.008 27.7181L679.686 42.0305H675.087ZM691.477 42.0305L693.923 39.5797L696.369 42.0305H691.477ZM700.626 42.0305L693.849 35.2419L687.073 42.0305H682.67L695.855 28.821L704.001 20.6845L709.09 25.586L705.2 29.7032L702.167 26.6398L695.537 33.2569L704.197 41.9324L700.626 42.0305ZM694.167 8.96996L691.844 11.2737L689.544 8.96996H694.167ZM685.141 8.96996L691.844 15.685L698.571 8.96996H702.436L689.911 21.5178L681.153 30.2914L676.041 25.3899L679.93 21.2727L682.866 24.2136L689.471 17.572L680.86 8.96996H685.141ZM685.141 17.5966L682.939 19.8267L679.759 16.8368L671.54 25.5369L681.08 34.6537L690.058 25.6595L691.917 23.7969L693.189 22.5226L703.855 11.9353L717.798 25.6105L705.102 38.624L699.941 33.4529L702.167 31.2472L705.151 34.2371L713.371 25.5125L703.806 16.4202L694.852 25.3899L681.031 39.2367L667.087 25.5615L679.808 12.5235L685.141 17.5966ZM679.025 8.96996L665.081 23.2578L650.404 8.96996H655.003L665.008 18.9935L675.038 8.96996H679.025ZM665.081 14.5821L659.455 8.96996H670.683L665.081 14.5821Z" fill="#C7A363"/>
<path d="M664.886 0H609.796H554.682H499.567H444.478H389.363H334.273H279.159H224.045H168.955H113.841H58.7265H3.63672H-51.4776H-106.567H-161.682H-216.796H-271.886H-327V3.11245H-271.886H-216.796H-161.682H-106.567H-51.4776H3.63672H58.7265H113.841H168.955H224.045H279.159H334.273H389.363H444.478H499.567H554.682H609.796H664.886H720V0H664.886Z" fill="#C7A363"/>
</g>
<g opacity="0.5" clip-path="url(#clip1_13263_1063)">
<path d="M1656.92 5.83301H720V8.96996H725.602L720 14.5821V18.9935L730.005 8.96996H733.944L720 23.2578V27.6692L734.678 42.0305H730.054L720 31.958V36.4428L725.651 42.104H720V45.2164H1767V42.104H1761.32L1767 36.4428V32.0315L1756.92 42.104H1753.03L1767 27.7917V23.3804L1752.32 9.04348H1756.92L1766.93 19.067V14.6312L1761.3 9.04348H1767V5.90653H1656.92V5.83301ZM1686.05 8.96996L1683.75 11.2737L1681.43 8.96996H1686.05ZM1677.03 8.96996L1683.75 15.685L1690.46 8.96996H1694.35L1681.8 21.5178L1673.04 30.2914L1667.95 25.3899L1671.84 21.2727L1674.75 24.2136L1681.38 17.572L1672.75 8.94543L1677.03 8.96996ZM1656.92 8.96996H1662.52L1656.92 14.5821L1651.29 8.96996H1656.92ZM1646.89 8.96996L1656.89 18.9935L1666.92 8.96996H1670.86L1656.92 23.2578L1642.24 8.96996H1646.89ZM1630.96 8.96996L1628.64 11.2737L1626.32 8.96996H1630.96ZM1621.91 8.96996L1628.64 15.685L1635.37 8.96996H1639.23L1626.71 21.5178L1617.78 30.2914L1612.67 25.3899L1616.55 21.2727L1619.49 24.2136L1626.1 17.572L1617.46 8.94543L1621.91 8.96996ZM1601.8 8.96996H1607.41L1601.8 14.5821L1596.18 8.96996H1601.8ZM1591.77 8.96996L1601.78 18.9935L1611.81 8.96996H1615.75L1601.8 23.2578L1587.13 8.96996H1591.77ZM1575.85 8.96996L1573.53 11.2737L1571.23 8.96996H1575.85ZM1566.82 8.96996L1573.53 15.685L1580.25 8.96996H1584.14L1571.59 21.5178L1562.84 30.2914L1557.72 25.3899L1561.61 21.2727L1564.55 24.2136L1571.15 17.572L1562.54 8.94543L1566.82 8.96996ZM1546.69 8.96996H1552.32L1546.71 14.5821L1541.06 8.96996H1546.69ZM1536.66 8.96996L1546.69 18.9935L1556.72 8.96996H1560.63L1546.69 23.2578L1532.01 8.96996H1536.66ZM1520.73 8.96996L1518.44 11.2737L1516.11 8.96996H1520.73ZM1511.71 8.96996L1518.44 15.685L1525.14 8.96996H1529.03L1516.5 21.5178L1507.7 30.2914L1502.61 25.3899L1506.5 21.2727L1509.41 24.2136L1516.04 17.572L1507.4 8.94543L1511.71 8.96996ZM1491.6 8.96996H1497.2L1491.6 14.5821L1485.97 8.96996H1491.6ZM1481.57 8.96996L1491.58 18.9935L1501.61 8.96996H1505.54L1491.6 23.2578L1476.92 8.96996H1481.57ZM1465.65 8.96996L1463.32 11.2737L1461.02 8.96996H1465.65ZM1456.62 8.96996L1463.32 15.685L1470.05 8.96996H1473.91L1461.22 21.5178L1452.46 30.2914L1447.35 25.3899L1451.24 21.2727L1454.17 24.2136L1460.78 17.572L1452.14 8.94543L1456.62 8.96996ZM1436.49 8.96996H1442.09L1436.49 14.5821L1430.86 8.96996H1436.49ZM1426.46 8.96996L1436.46 18.9935L1446.49 8.96996H1450.43L1436.49 23.2578L1421.81 8.96996H1426.46ZM1410.53 8.96996L1408.08 11.2737L1405.78 8.96996H1410.53ZM1401.5 8.96996L1408.21 15.685L1414.93 8.96996H1418.82L1406.27 21.5178L1397.52 30.2914L1392.43 25.3899L1396.29 21.2727L1399.23 24.2136L1405.86 17.572L1397.22 8.94543L1401.5 8.96996ZM1381.4 8.96996H1387L1381.4 14.5821L1375.77 8.96996H1381.4ZM1371.37 8.96996L1381.37 18.9935L1391.4 8.96996H1395.17L1381.25 23.2578L1366.57 8.96996H1371.37ZM1355.42 8.96996L1353.12 11.2737L1350.79 8.96996H1355.42ZM1346.39 8.96996L1353.12 15.685L1359.82 8.96996H1363.71L1351.14 21.5178L1342.35 30.2914L1337.27 25.3899L1341.15 21.2727L1344.07 24.2136L1350.7 17.572L1342.06 8.94543L1346.39 8.96996ZM1326.28 8.96996H1331.88L1326.28 14.5821L1320.66 8.96996H1326.28ZM1316.25 8.96996L1326.26 18.9935L1336.29 8.96996H1340.23L1326.28 23.2578L1311.6 8.96996H1316.25ZM1300.33 8.96996L1297.88 11.2737L1295.58 8.96996H1300.33ZM1291.3 8.96996L1298 15.685L1304.73 8.96996H1308.6L1296.07 21.5178L1287.31 30.2914L1282.2 25.3899L1286.09 21.2727L1289.02 24.2136L1295.63 17.572L1287.02 8.94543L1291.3 8.96996ZM1271.17 8.96996H1276.77L1271.17 14.5821L1265.54 8.96996H1271.17ZM1261.14 8.96996L1271.14 18.9935L1281.17 8.96996H1285.09L1271.14 23.2578L1256.47 8.96996H1261.14ZM1245.21 8.96996L1242.91 11.2737L1240.47 8.96996H1245.21ZM1236.19 8.96996L1242.91 15.685L1249.62 8.96996H1253.29L1240.74 21.5178L1231.98 30.2914L1226.89 25.3899L1230.78 21.2727L1233.71 24.1891L1240.34 17.5476L1231.71 8.9209L1236.19 8.96996ZM1216.08 8.96996H1221.48L1215.88 14.5821L1210.26 8.96996H1216.08ZM1206.05 8.96996L1216.05 18.9935L1226.08 8.96996H1230.02L1216.08 23.2578L1201.4 8.96996H1206.05ZM1190.1 8.96996L1187.8 11.2737L1185.35 8.96996H1190.1ZM1181.07 8.96996L1187.8 15.685L1194.5 8.96996H1198.39L1185.87 21.5178L1177.08 30.2914L1172 25.3899L1175.89 21.2727L1178.82 24.2136L1185.43 17.572L1176.79 8.94543L1181.07 8.96996ZM1160.96 8.96996H1166.57L1160.96 14.5821L1155.34 8.96996H1160.96ZM1150.93 8.96996L1160.94 18.9935L1170.97 8.96996H1174.91L1160.96 23.2578L1146.29 8.96996H1150.93ZM1135.01 8.96996L1132.68 11.2737L1130.38 8.96996H1135.01ZM1125.98 8.96996L1132.68 15.685L1139.41 8.96996H1143.2L1130.68 21.5178L1121.92 30.2914L1116.81 25.3899L1120.7 21.2727L1123.63 24.1891L1130.24 17.5476L1121.63 8.9209L1125.98 8.96996ZM1105.85 8.96996H1111.4L1105.78 14.5821L1100.15 8.96996H1105.85ZM1095.82 8.96996L1105.82 18.9935L1115.88 8.96996H1119.79L1105.85 23.2578L1091.17 8.96996H1095.82ZM1079.89 8.96996L1077.59 11.2737L1075.27 8.96996H1079.89ZM1070.87 8.96996L1077.59 15.685L1084.3 8.96996H1088.19L1075.64 21.5178L1066.88 30.2914L1061.79 25.3899L1065.68 21.2727L1068.59 24.2136L1075.22 17.572L1066.59 8.94543L1070.87 8.96996ZM1050.76 8.96996H1056.36L1050.76 14.5821L1045.13 8.96996H1050.76ZM1040.73 8.96996L1050.73 18.9935L1060.76 8.96996H1064.7L1050.76 23.2578L1036.08 8.96996H1040.73ZM1024.8 8.96996L1022.36 11.2737L1020.06 8.96996H1024.8ZM1015.78 8.96996L1022.48 15.685L1029.21 8.96996H1033.07L1020.55 21.5178L1011.79 30.2914L1006.68 25.3899L1010.57 21.2727L1013.5 24.2136L1020.11 17.572L1011.47 8.94543L1015.78 8.96996ZM995.645 8.96996H1001.25L995.645 14.5821L990.018 8.96996H995.645ZM985.615 8.96996L995.62 18.9935L1005.65 8.96996H1009.59L995.645 23.2578L980.967 8.96996H985.615ZM969.69 8.96996L967.244 11.2737L964.944 8.96996H969.69ZM960.663 8.96996L967.366 15.685L974.093 8.96996H977.983L965.433 21.5178L956.676 30.2914L951.563 25.3899L955.453 21.2727L958.388 24.2136L965.018 17.572L956.382 8.94543L960.663 8.96996ZM940.555 8.96996H946.157L940.555 14.5821L934.929 8.96996H940.555ZM930.501 8.96996L940.53 18.9935L950.56 8.96996H954.474L940.555 23.2578L925.877 8.96996H930.501ZM914.576 8.96996L912.276 11.2737L909.83 8.96996H914.576ZM905.549 8.96996L912.276 15.685L918.979 8.96996H922.868L910.344 21.5178L901.562 30.2914L896.473 25.3899L900.363 21.2727L903.274 24.2136L909.903 17.572L901.268 8.94543L905.549 8.96996ZM885.441 8.96996H891.043L885.441 14.5821L879.814 8.96996H885.441ZM875.411 8.96996L885.416 18.9935L895.446 8.96996H899.384L885.441 23.2578L870.763 8.96996H875.411ZM859.486 8.96996L857.04 11.2737L854.74 8.96996H859.486ZM850.459 8.96996L856.991 15.685L863.718 8.96996H867.583L855.058 21.5178L846.3 30.2914L841.188 25.3899L845.077 21.2727L848.013 24.2136L854.618 17.572L845.982 8.94543L850.459 8.96996ZM830.326 8.96996H835.928L830.326 14.5821L824.7 8.96996H830.326ZM820.297 8.96996L830.082 18.9935L840.111 8.96996H844.05L830.106 23.2578L815.429 8.96996H820.297ZM804.372 8.96996L802.072 11.2737L799.626 8.96996H804.372ZM795.345 8.96996L802.072 15.685L808.775 8.96996H812.664L800.115 21.5178L791.357 30.2914L786.269 25.3899L790.159 21.2727L793.07 24.2136L799.699 17.572L790.942 8.96996H795.345ZM775.237 8.96996H780.839L775.237 14.5821L769.61 8.96996H775.237ZM765.207 8.96996L775.212 18.9935L785.242 8.96996H789.18L775.237 23.2578L760.559 8.96996H765.207ZM749.257 8.96996L746.958 11.2737L744.634 8.96996H749.257ZM740.231 8.96996L746.909 15.685L753.612 8.96996H757.428L744.903 21.5178L736.121 30.2914L731.033 25.3899L734.922 21.2727L737.858 24.2136L744.463 17.572L735.827 8.94543L740.231 8.96996ZM746.591 42.0305L749.037 39.5797L751.483 42.0305H746.591ZM755.715 42.0305L748.964 35.2419L742.016 42.0305H737.613L750.798 28.821L758.92 20.6845L764.033 25.586L760.143 29.7032L757.257 26.6398L750.652 33.2569L759.311 41.9324L755.715 42.0305ZM755.177 33.3548L757.379 31.1492L760.363 34.1391L768.583 25.4144L759.042 16.3222L750.065 25.2919L736.145 39.1386L722.202 25.4634L734.898 12.4255L740.059 17.5966L737.858 19.8267L734.849 16.8368L726.629 25.5369L736.194 34.6537L745.148 25.6595L747.031 23.7969L748.303 22.5226L758.969 11.9353L772.913 25.6105L760.217 38.624L755.177 33.3548ZM775.237 42.0305H769.439L775.09 36.4428L780.765 42.104L775.237 42.0305ZM785.291 42.0305L775.237 31.958L765.158 42.0305H761.146L775.114 27.7181L789.792 42.0305H785.291ZM801.681 42.0305L804.127 39.5797L806.573 42.0305H801.681ZM810.83 42.0305L804.054 35.2419L797.277 42.0305H792.874L806.059 28.821L814.206 20.6845L819.294 25.586L815.404 29.6543L812.371 26.6398L805.741 33.2569L814.401 41.9324L810.83 42.0305ZM810.267 33.3548L812.493 31.1492L815.404 34.1391L823.624 25.4144L814.083 16.3222L805.105 25.2919L791.309 39.1386L777.365 25.4634L790.061 12.4255L795.223 17.5966L792.996 19.8267L789.963 16.8368L781.744 25.5369L791.284 34.6537L800.262 25.6595L802.145 23.7969L803.418 22.5226L814.059 11.9353L828.002 25.6105L815.404 38.5259L810.267 33.3548ZM830.326 42.0305H824.529L830.204 36.4428L835.879 42.104L830.326 42.0305ZM840.405 42.0305L830.326 31.958L820.248 42.0305H816.236L830.204 27.7181L844.882 42.0305H840.405ZM856.795 42.0305L859.241 39.5797L861.687 42.0305H856.795ZM865.944 42.0305L859.168 35.2419L852.392 42.0305H847.988L861.174 28.821L869.222 20.6845L874.335 25.586L870.445 29.7032L867.461 26.6398L860.856 33.2569L869.516 41.9324L865.944 42.0305ZM865.381 33.3548L867.583 31.1492L870.592 34.1391L878.811 25.4144L869.222 16.3222L860.244 25.2919L846.447 39.1386L832.528 25.4634L845.224 12.4255L850.386 17.5966L848.184 19.8267L845.077 16.8368L836.858 25.5369L846.398 34.6537L855.376 25.6595L857.235 23.7969L858.507 22.5226L869.222 11.9353L883.166 25.6105L870.47 38.624L865.381 33.3548ZM885.441 42.0305H879.643L885.294 36.4428L890.969 42.104L885.441 42.0305ZM895.495 42.0305L885.441 31.958L875.362 42.0305H871.35L885.318 27.7181L899.996 42.0305H895.495ZM911.909 42.0305L914.355 39.5797L916.802 42.0305H911.909ZM921.034 42.0305L914.258 35.2419L907.506 42.0305H902.956L916.141 28.821L924.287 20.6845L929.4 25.586L925.486 29.6543L922.575 26.6398L915.946 33.2569L924.605 41.9324L921.034 42.0305ZM920.496 33.3548L922.697 31.1492L925.486 34.1391L933.705 25.4144L924.165 16.3222L915.187 25.2919L901.39 39.1386L887.447 25.4634L900.143 12.4255L905.304 17.5966L903.078 19.8267L900.167 16.8368L891.948 25.5369L901.488 34.6537L910.466 25.6595L912.35 23.7969L913.622 22.5226L924.263 11.9353L938.231 25.6105L925.486 38.5259L920.496 33.3548ZM940.555 42.0305H934.757L940.408 36.4428L946.083 42.104L940.555 42.0305ZM950.609 42.0305L940.555 31.958L930.378 42.0305H926.464L940.433 27.7181L955.11 42.0305H950.609ZM966.999 42.0305L969.445 39.5797L971.892 42.0305H966.999ZM976.148 42.0305L969.372 35.2419L962.596 42.0305H958.193L971.378 28.821L979.524 20.6845L984.612 25.586L980.723 29.7032L977.689 26.6398L971.06 33.2569L979.72 41.9324L976.148 42.0305ZM975.585 33.3548L977.812 31.1492L980.796 34.1391L989.015 25.4144L979.475 16.3222L970.497 25.2919L956.7 39.1386L942.61 25.4634L955.33 12.4255L960.492 17.5966L958.266 19.8267L955.281 16.8368L947.062 25.5369L956.602 34.6537L965.58 25.6595L967.439 23.7969L968.736 22.5226L979.304 11.9353L993.247 25.6105L980.551 38.624L975.585 33.3548ZM995.645 42.0305H989.969L995.645 36.3693L1001.32 42.0305H995.645ZM1005.72 42.0305L995.645 31.958L985.566 42.0305H981.677L995.645 27.7181L1010.32 42.0305H1005.72ZM1022.11 42.0305L1024.56 39.5797L1027.01 42.0305H1022.11ZM1031.26 42.0305L1024.49 35.2419L1017.71 42.0305H1013.31L1026.49 28.821L1034.61 20.6845L1039.73 25.586L1035.84 29.7032L1032.9 26.7868L1026.3 33.4039L1034.96 42.0795L1031.26 42.0305ZM1030.7 33.3548L1032.9 31.1492L1035.89 34.1391L1044.13 25.4144L1034.56 16.3222L1025.59 25.2919L1011.79 39.1386L997.846 25.4634L1010.54 12.4255L1015.7 17.5966L1013.5 19.8267L1010.37 16.8368L1002.15 25.5369L1011.72 34.6537L1020.69 25.6595L1022.55 23.7969L1023.83 22.5226L1034.49 11.8373L1048.44 25.5125L1035.74 38.5259L1030.7 33.3548ZM1050.76 42.0305H1045.08L1050.73 36.3693L1056.41 42.0305H1050.76ZM1060.81 42.0305L1050.76 31.958L1040.46 42.0305H1036.57L1050.54 27.7181L1065.22 42.0305H1060.81ZM1077.23 42.0305L1079.67 39.5797L1082.12 42.0305H1077.23ZM1086.35 42.0305L1079.58 35.2419L1072.82 42.0305H1068.4L1081.58 28.821L1089.73 20.6845L1094.84 25.586L1090.95 29.7032L1088.02 26.7868L1081.39 33.4039L1090.05 42.0795L1086.35 42.0305ZM1085.79 33.3548L1088.02 31.1492L1091 34.1391L1099.17 25.4144L1089.63 16.3222L1080.65 25.2919L1066.86 39.1386L1052.91 25.4634L1065.61 12.4255L1070.77 17.5966L1068.54 19.8267L1065.49 16.8368L1057.27 25.5369L1066.81 34.6537L1075.78 25.6595L1077.67 23.7969L1078.94 22.5226L1089.58 11.8373L1103.52 25.5125L1090.83 38.5259L1085.79 33.3548ZM1105.85 42.0305H1100.17L1105.85 36.3693L1111.52 42.0305H1105.85ZM1115.93 42.0305L1105.85 31.958L1095.77 42.0305H1091.83L1105.78 27.7181L1120.45 42.0305H1115.93ZM1132.32 42.0305L1134.76 39.5797L1137.21 42.0305H1132.32ZM1141.47 42.0305L1134.69 35.2419L1127.91 42.0305H1123.51L1136.7 28.821L1144.84 20.6845L1149.93 25.586L1146.04 29.7032L1143.01 26.6398L1136.38 33.2569L1145.04 41.9324L1141.47 42.0305ZM1140.9 33.3548L1143.13 31.1492L1146.11 34.1391L1154.33 25.4144L1144.77 16.3222L1135.82 25.2919L1121.99 39.1386L1108.05 25.4634L1120.77 12.4255L1125.91 17.5966L1123.71 19.8267L1120.6 16.8368L1112.38 25.5369L1121.92 34.6537L1130.97 25.6595L1132.83 23.7969L1134.13 22.5226L1144.77 11.8373L1158.71 25.5125L1146.02 38.5259L1140.9 33.3548ZM1160.96 42.0305H1155.29L1160.82 36.4428L1166.49 42.104L1160.96 42.0305ZM1171.02 42.0305L1160.96 31.958L1150.88 42.0305H1146.87L1160.84 27.7181L1175.52 42.0305H1171.02ZM1187.43 42.0305L1189.88 39.5797L1192.32 42.0305H1187.43ZM1196.56 42.0305L1189.68 35.2419L1182.91 42.0305H1178.5L1191.69 28.821L1199.81 20.6845L1204.92 25.586L1201.03 29.7032L1198.1 26.7868L1191.49 33.4039L1200.15 42.0795L1196.56 42.0305ZM1196.02 33.3548L1198.22 31.1492L1201.2 34.1391L1209.25 25.4144L1199.71 16.3222L1190.73 25.2919L1176.94 39.1386L1162.99 25.4634L1175.69 12.4255L1180.85 17.5966L1178.65 19.8267L1175.69 16.8368L1167.47 25.5369L1177.04 34.6537L1186.01 25.6595L1187.87 23.7969L1189.14 22.5226L1199.81 11.8373L1213.75 25.5125L1201.06 38.5259L1196.02 33.3548ZM1216.08 42.0305H1210.4L1216.05 36.3693L1221.73 42.0305H1216.08ZM1226.13 42.0305L1216.08 31.958L1206 42.0305H1201.91L1215.88 27.7181L1230.56 42.0305H1226.13ZM1242.52 42.0305L1244.97 39.5797L1247.41 42.0305H1242.52ZM1251.67 42.0305L1244.89 35.2419L1238.12 42.0305H1233.71L1246.9 28.821L1255.05 20.6845L1260.13 25.586L1256.25 29.7032L1253.29 26.6398L1246.66 33.2569L1255.32 41.9324L1251.67 42.0305ZM1251.11 33.3548L1253.33 31.1492L1256.32 34.1391L1264.54 25.4144L1255 16.3222L1245.95 25.2919L1232.15 39.1386L1218.21 25.4634L1230.9 12.4255L1236.06 17.5966L1233.84 19.8267L1230.8 16.8368L1222.58 25.5369L1232.12 34.6537L1241.05 25.6595L1242.94 23.7969L1244.21 22.5226L1254.85 11.8373L1268.79 25.5125L1256.1 38.5259L1251.11 33.3548ZM1271.17 42.0305H1265.49L1271.17 36.3693L1276.84 42.0305H1271.17ZM1281.25 42.0305L1271.17 31.958L1261.09 42.0305H1257.2L1271.17 27.7181L1285.84 42.0305H1281.25ZM1297.64 42.0305L1300.08 39.5797L1302.53 42.0305H1297.64ZM1306.78 42.0305L1300.01 35.2419L1293.23 42.0305H1288.83L1302.01 28.821L1310.14 20.6845L1315.25 25.586L1311.36 29.7032L1308.42 26.7868L1301.82 33.4039L1310.48 42.0795L1306.78 42.0305ZM1306.22 33.3548L1308.42 31.1492L1311.43 34.1391L1319.65 25.4144L1310.09 16.3222L1301.11 25.2919L1287.31 39.1386L1273.37 25.4634L1286.06 12.4255L1291.23 17.5966L1289.02 19.8267L1285.92 16.8368L1277.75 25.5369L1287.29 34.6537L1296.27 25.6595L1298.12 23.7969L1299.4 22.5226L1310.06 11.8373L1324.01 25.5125L1311.31 38.5259L1306.22 33.3548ZM1326.28 42.0305H1320.61L1326.26 36.3693L1331.93 42.0305H1326.28ZM1336.34 42.0305L1326.28 31.958L1316.2 42.0305H1312.31L1326.28 27.7181L1340.96 42.0305H1336.34ZM1352.75 42.0305L1355.2 39.5797L1357.64 42.0305H1352.75ZM1361.87 42.0305L1355.12 35.2419L1348.35 42.0305H1343.8L1356.98 28.821L1365.1 20.6845L1370.22 25.586L1366.33 29.7032L1363.37 26.6398L1356.76 33.2569L1365.42 41.9324L1361.87 42.0305ZM1361.34 33.3548L1363.54 31.1492L1366.52 34.1391L1374.74 25.4144L1365.2 16.3222L1356.03 25.2919L1342.23 39.1386L1328.29 25.4634L1340.98 12.4255L1346.15 17.5966L1343.92 19.8267L1341.01 16.8368L1332.79 25.5369L1342.35 34.6537L1351.31 25.6595L1353.19 23.7969L1354.46 22.5226L1365.13 11.8373L1379.07 25.5125L1366.35 38.5259L1361.34 33.3548ZM1381.4 42.0305H1375.6L1381.25 36.3693L1386.92 42.0305H1381.4ZM1391.45 42.0305L1381.4 31.958L1371.32 42.0305H1367.43L1381.4 27.7181L1396.07 42.0305H1391.45ZM1407.84 42.0305L1410.29 39.5797L1412.73 42.0305H1407.84ZM1416.99 42.0305L1410.21 35.2419L1403.44 42.0305H1399.03L1412.22 28.821L1420.36 20.6845L1425.45 25.586L1421.56 29.7032L1418.53 26.6398L1411.9 33.2569L1420.56 41.9324L1416.99 42.0305ZM1416.43 33.3548L1418.65 31.1492L1421.64 34.1391L1429.86 25.4144L1420.32 16.3222L1411.34 25.2919L1397.54 39.1386L1383.6 25.4634L1396.29 12.4255L1401.46 17.5966L1399.23 19.8267L1396.12 16.8368L1387.83 25.5369L1397.37 34.6537L1406.35 25.6595L1408.21 23.7969L1409.5 22.5226L1420.14 11.8373L1434.09 25.5125L1421.39 38.5259L1416.43 33.3548ZM1436.49 42.0305H1430.81L1436.49 36.3693L1442.16 42.0305H1436.49ZM1446.56 42.0305L1436.49 31.958L1426.41 42.0305H1422.52L1436.49 27.7181L1451.16 42.0305H1446.56ZM1462.95 42.0305L1465.4 39.5797L1467.85 42.0305H1462.95ZM1472.1 42.0305L1465.33 35.2419L1458.55 42.0305H1454.15L1467.33 28.821L1475.45 20.6845L1480.57 25.586L1476.68 29.7032L1473.74 26.7868L1467.14 33.4039L1475.8 42.0795L1472.1 42.0305ZM1471.54 33.3548L1473.74 31.1492L1476.75 34.1391L1484.97 25.4144L1475.41 16.3222L1466.43 25.2919L1452.63 39.1386L1438.69 25.4634L1451.38 12.4255L1456.54 17.5966L1454.34 19.8267L1451.24 16.8368L1443.02 25.5369L1452.56 34.6537L1461.54 25.6595L1463.39 23.7969L1464.67 22.5226L1475.33 11.8373L1489.28 25.5125L1476.58 38.5259L1471.54 33.3548ZM1491.6 42.0305H1485.92L1491.58 36.3693L1497.25 42.0305H1491.6ZM1501.65 42.0305L1491.6 31.958L1481.52 42.0305H1477.63L1491.6 27.7181L1506.28 42.0305H1501.65ZM1518.07 42.0305L1520.51 39.5797L1522.96 42.0305H1518.07ZM1527.19 42.0305L1520.42 35.2419L1513.67 42.0305H1509.24L1522.42 28.821L1530.57 20.6845L1535.68 25.586L1531.79 29.7032L1528.73 26.6398L1522.1 33.2569L1530.76 41.9324L1527.19 42.0305ZM1526.63 33.3548L1528.86 31.1492L1531.84 34.1391L1540.06 25.4144L1530.52 16.3222L1521.54 25.2919L1507.7 39.1386L1493.75 25.4634L1506.45 12.4255L1511.61 17.5966L1509.38 19.8267L1506.33 16.8368L1498.11 25.5369L1507.65 34.6537L1516.63 25.6595L1518.51 23.7969L1519.78 22.5226L1530.42 11.8373L1544.39 25.5125L1531.67 38.5259L1526.63 33.3548ZM1546.69 42.0305H1541.01L1546.69 36.3693L1552.36 42.0305H1546.69ZM1556.77 42.0305L1546.71 31.958L1536.61 42.0305H1532.75L1546.69 27.7181L1561.37 42.0305H1556.77ZM1573.16 42.0305L1575.6 39.5797L1578.05 42.0305H1573.16ZM1582.31 42.0305L1575.53 35.2419L1568.75 42.0305H1564.35L1577.54 28.821L1585.68 20.6845L1590.77 25.586L1586.88 29.7032L1583.85 26.6398L1577.22 33.2569L1585.88 41.9324L1582.31 42.0305ZM1581.74 33.3548L1583.97 31.1492L1586.96 34.1391L1595.17 25.4144L1585.61 16.3222L1576.66 25.2919L1562.86 39.1386L1548.89 25.4634L1561.61 12.4255L1566.75 17.5966L1564.55 19.8267L1561.51 16.8368L1553.29 25.5369L1562.84 34.6537L1571.81 25.6595L1573.67 23.7969L1574.97 22.5226L1585.61 11.8373L1599.55 25.5125L1586.86 38.5259L1581.74 33.3548ZM1601.8 42.0305H1596.01L1601.68 36.3693L1607.36 42.0305H1601.8ZM1611.88 42.0305L1601.8 31.958L1591.73 42.0305H1587.84L1601.8 27.7181L1616.48 42.0305H1611.88ZM1628.27 42.0305L1630.72 39.5797L1633.17 42.0305H1628.27ZM1637.4 42.0305L1630.65 35.2419L1623.87 42.0305H1619.47L1632.65 28.821L1640.77 20.6845L1645.89 25.586L1642 29.7032L1639.06 26.7868L1632.46 33.4039L1641.12 42.0795L1637.4 42.0305ZM1636.86 33.3548L1639.06 31.1492L1642.04 34.1391L1650.26 25.4144L1640.72 16.3222L1631.75 25.2919L1617.78 39.1386L1603.83 25.4634L1616.53 12.4255L1621.69 17.5966L1619.49 19.8267L1616.53 16.8368L1608.31 25.5369L1617.88 34.6537L1626.85 25.6595L1628.71 23.7969L1629.98 22.5226L1640.65 11.8373L1654.59 25.5125L1641.9 38.5259L1636.86 33.3548ZM1656.92 42.0305H1651.24L1656.89 36.3693L1662.57 42.0305H1656.92ZM1666.97 42.0305L1656.92 31.958L1646.84 42.0305H1642.95L1656.92 27.7181L1671.6 42.0305H1666.97ZM1683.36 42.0305L1685.81 39.5797L1688.25 42.0305H1683.36ZM1692.51 42.0305L1685.74 35.2419L1678.93 42.0305H1674.53L1687.72 28.821L1695.86 20.6845L1700.98 25.586L1697.09 29.7032L1694.15 26.7868L1687.52 33.4039L1696.18 42.0795L1692.51 42.0305ZM1691.95 33.3548L1694.17 31.1492L1697.16 34.1391L1705.38 25.4144L1695.84 16.3222L1686.86 25.2919L1673.06 39.1386L1659.12 25.4634L1671.6 12.4255L1676.76 17.5966L1674.53 19.8267L1671.6 16.8368L1663.38 25.5369L1672.92 34.6537L1681.89 25.6595L1683.78 23.7969L1685.05 22.5226L1695.69 11.8373L1709.64 25.5125L1696.94 38.5259L1691.95 33.3548ZM1712.01 42.0305H1706.33L1712.01 36.3693L1717.68 42.0305H1712.01ZM1722.09 42.0305L1712.01 31.958L1701.93 42.0305H1698.04L1712.01 27.7181L1726.69 42.0305H1722.09ZM1738.48 42.0305L1740.92 39.5797L1743.37 42.0305H1738.48ZM1747.63 42.0305L1740.85 35.2419L1734.07 42.0305H1729.67L1742.86 28.821L1751 20.6845L1756.09 25.586L1752.2 29.7032L1749.17 26.6398L1742.54 33.2569L1751.2 41.9324L1747.63 42.0305ZM1741.17 8.96996L1738.84 11.2737L1736.54 8.96996H1741.17ZM1732.14 8.96996L1738.84 15.685L1745.57 8.96996H1749.44L1736.91 21.5178L1728.15 30.2914L1723.04 25.3899L1726.93 21.2727L1729.87 24.2136L1736.47 17.572L1727.86 8.96996H1732.14ZM1732.14 17.5966L1729.94 19.8267L1726.76 16.8368L1718.54 25.5369L1728.08 34.6537L1737.06 25.6595L1738.92 23.7969L1740.19 22.5226L1750.85 11.9353L1764.8 25.6105L1752.1 38.624L1746.94 33.4529L1749.17 31.2472L1752.15 34.2371L1760.37 25.5125L1750.81 16.4202L1741.85 25.3899L1728.03 39.2367L1714.09 25.5615L1726.81 12.5235L1732.14 17.5966ZM1726.03 8.96996L1712.08 23.2578L1697.4 8.96996H1702L1712.01 18.9935L1722.04 8.96996H1726.03ZM1712.08 14.5821L1706.46 8.96996H1717.68L1712.08 14.5821Z" fill="#C7A363"/>
<path d="M1711.89 0H1656.8H1601.68H1546.57H1491.48H1436.36H1381.27H1326.16H1271.04H1215.96H1160.84H1105.73H1050.64H995.522H940.433H885.318H830.204H775.114H720V3.11245H775.114H830.204H885.318H940.433H995.522H1050.64H1105.73H1160.84H1215.96H1271.04H1326.16H1381.27H1436.36H1491.48H1546.57H1601.68H1656.8H1711.89H1767V0H1711.89Z" fill="#C7A363"/>
</g>
<defs>
<clipPath id="clip0_13263_1063">
<rect width="720" height="25" fill="white"/>
</clipPath>
<clipPath id="clip1_13263_1063">
<rect width="720" height="25" fill="white" transform="translate(720)"/>
</clipPath>
</defs>
</svg>
