<svg width="213" height="27" viewBox="0 0 213 27" fill="none" xmlns="http://www.w3.org/2000/svg">
<g clip-path="url(#clip0_13621_321)">
<path d="M122.549 8.14516C122.562 8.11012 122.564 8.07427 122.556 8.03806C122.517 7.87662 122.479 7.71526 122.44 7.55394C122.427 7.4985 122.41 7.44373 122.399 7.38786C122.351 7.14342 122.282 6.90405 122.225 6.66191C122.172 6.43993 122.12 6.21799 122.067 5.99602C122.063 5.98087 122.062 5.96515 122.057 5.95039C121.968 5.67349 121.924 5.38517 121.847 5.10512C121.783 4.8701 121.723 4.63376 121.674 4.39504C121.664 4.34934 121.651 4.30438 121.643 4.2584C121.624 4.14021 121.589 4.02626 121.552 3.91278C121.528 3.83862 121.505 3.7645 121.5 3.68594C121.499 3.66539 121.494 3.64479 121.489 3.62474C121.443 3.44388 121.396 3.26313 121.35 3.08234C121.349 3.07732 121.347 3.07234 121.346 3.06731C121.295 2.85044 121.244 2.63341 121.192 2.41669C121.182 2.37153 121.167 2.3273 121.153 2.28277C121.147 2.26299 121.138 2.24392 121.134 2.22379C121.128 2.19132 121.137 2.16158 121.16 2.13795C121.174 2.1232 121.191 2.11054 121.208 2.09914C121.325 2.02155 121.442 1.944 121.559 1.86747C121.659 1.8023 121.76 1.73881 121.861 1.67403C122.013 1.57546 122.166 1.47638 122.318 1.37758C122.549 1.22797 122.778 1.07599 123.011 0.929385C123.288 0.755098 123.556 0.567302 123.834 0.395934C124.007 0.289968 124.171 0.171195 124.339 0.0581435C124.361 0.0436617 124.381 0.0262602 124.404 0.0152821C124.448 -0.00585659 124.495 -0.005078 124.539 0.0176957C124.553 0.024742 124.565 0.0345522 124.578 0.0435449C124.841 0.229589 125.112 0.402825 125.385 0.573414C125.495 0.642124 125.6 0.718426 125.709 0.788966C125.87 0.893375 126.033 0.995721 126.195 1.09888C126.212 1.11002 126.231 1.11948 126.248 1.13193C126.405 1.25098 126.578 1.34784 126.743 1.45524C127.026 1.63899 127.308 1.8248 127.59 2.00956C127.638 2.04082 127.686 2.07103 127.734 2.10237C127.801 2.14616 127.82 2.19086 127.792 2.26015C127.761 2.33793 127.741 2.41758 127.73 2.50038C127.727 2.52592 127.718 2.5506 127.712 2.57583C127.684 2.69184 127.657 2.80793 127.63 2.92394C127.623 2.95422 127.616 2.98486 127.607 3.01437C127.549 3.19208 127.514 3.37602 127.465 3.55592C127.458 3.58087 127.452 3.60629 127.448 3.63191C127.431 3.76637 127.392 3.89519 127.352 4.02401C127.336 4.07348 127.321 4.12328 127.311 4.174C127.242 4.52004 127.155 4.86146 127.066 5.20279C127.043 5.29311 127.02 5.38373 127.001 5.47502C126.972 5.61213 126.936 5.74714 126.9 5.88242C126.852 6.06259 126.812 6.24505 126.768 6.42646C126.721 6.62301 126.675 6.81984 126.625 7.01577C126.604 7.09616 126.582 7.17593 126.567 7.25757C126.543 7.3798 126.511 7.50002 126.479 7.62035C126.438 7.77042 126.408 7.92326 126.375 8.07508C126.373 8.08396 126.379 8.09455 126.382 8.10728C126.395 8.09743 126.411 8.09085 126.418 8.0789C126.452 8.02105 126.485 7.96215 126.518 7.90294C126.79 7.4018 127.063 6.90047 127.336 6.39925C127.355 6.36281 127.377 6.32715 127.395 6.29009C127.417 6.24738 127.491 6.22761 127.532 6.24937C127.812 6.39808 128.101 6.52919 128.364 6.70679C128.42 6.74447 128.478 6.77881 128.535 6.81498C128.737 6.94329 128.926 7.08838 129.104 7.24849C129.371 7.48842 129.625 7.74076 129.858 8.01319C129.98 8.1552 130.094 8.30294 130.191 8.46333C130.312 8.663 130.434 8.86204 130.534 9.07327C130.619 9.25153 130.687 9.43668 130.76 9.61957C130.797 9.78689 130.853 9.94856 130.904 10.1118C130.906 10.1168 130.908 10.1218 130.908 10.1269C130.938 10.3947 130.999 10.6579 131.015 10.9283C131.031 11.2031 131.027 11.478 131.042 11.7525C131.048 11.8862 131.03 11.9121 130.924 11.9829C130.695 12.1358 130.469 12.2927 130.242 12.4483C130.225 12.4599 130.21 12.4745 130.195 12.4884C130.192 12.4917 130.191 12.4977 130.189 12.5025C130.197 12.5059 130.206 12.5139 130.213 12.5121C130.339 12.4804 130.464 12.4483 130.59 12.4148C131.016 12.301 131.442 12.1866 131.868 12.0726C131.883 12.0687 131.898 12.0647 131.913 12.0641C131.929 12.0635 131.943 12.07 131.952 12.0847C131.967 12.1078 131.974 12.1337 131.966 12.1589C131.916 12.3238 131.908 12.4957 131.88 12.6644C131.87 12.7206 131.861 12.7771 131.848 12.8325C131.822 12.9439 131.807 13.0571 131.797 13.1707C131.783 13.3208 131.758 13.4689 131.728 13.6163C131.699 13.7587 131.675 13.9016 131.657 14.0459C131.638 14.2002 131.61 14.3535 131.583 14.5066C131.566 14.6042 131.556 14.7018 131.563 14.8007C131.58 15.0543 131.597 15.3079 131.616 15.5613C131.636 15.8303 131.66 16.0988 131.67 16.3685C131.679 16.6068 131.695 16.8448 131.731 17.0813C131.769 17.3327 131.789 17.5863 131.792 17.8408C131.792 17.8719 131.792 17.9032 131.795 17.9341C131.812 18.1253 131.818 18.3172 131.829 18.5087C131.835 18.6119 131.854 18.7145 131.869 18.817C131.882 18.899 131.898 18.9803 131.912 19.0623C131.915 19.0821 131.911 19.103 131.911 19.1235C131.911 19.1341 131.886 19.1506 131.875 19.147C131.856 19.1402 131.836 19.1344 131.817 19.1256C131.719 19.0788 131.621 19.0311 131.523 18.9842C131.509 18.9775 131.494 18.9728 131.479 18.9675C131.461 18.9609 131.434 18.9796 131.436 18.9986C131.44 19.0346 131.443 19.0709 131.45 19.1064C131.472 19.2132 131.496 19.3194 131.517 19.4261C131.565 19.6599 131.615 19.893 131.656 20.128C131.679 20.2612 131.707 20.3926 131.742 20.5229C131.765 20.6082 131.782 20.6942 131.794 20.7818C131.808 20.8792 131.828 20.9758 131.848 21.0722C131.877 21.2092 131.907 21.3459 131.938 21.4825C131.949 21.5346 131.948 21.5859 131.933 21.6362C131.913 21.7007 131.893 21.7651 131.869 21.8279C131.765 22.0941 131.641 22.3508 131.507 22.6027C131.363 22.873 131.21 23.1372 131.039 23.3918C130.906 23.5902 130.774 23.7892 130.627 23.9774C130.544 24.0837 130.458 24.1876 130.374 24.293C130.283 24.4065 130.192 24.5196 130.103 24.6344C130.01 24.7536 129.91 24.8659 129.805 24.9737C129.548 25.2378 129.288 25.4997 129.028 25.7601C128.91 25.8775 128.786 25.9886 128.667 26.1037C128.502 26.2621 128.326 26.4084 128.146 26.5493C128.011 26.6549 127.88 26.7649 127.749 26.8749C127.709 26.908 127.676 26.9486 127.638 26.9839C127.602 27.0177 127.537 26.995 127.528 26.9465C127.527 26.9414 127.525 26.9365 127.524 26.9314C127.523 26.9263 127.522 26.9211 127.523 26.916C127.532 26.7802 127.508 26.6471 127.488 26.514C127.453 26.2878 127.446 26.0596 127.435 25.8317C127.427 25.6711 127.423 25.5103 127.398 25.3509C127.395 25.3253 127.393 25.2992 127.387 25.2739C127.333 25.0297 127.32 24.7807 127.307 24.5321C127.296 24.3041 127.274 24.077 127.253 23.8498C127.249 23.8136 127.245 23.7775 127.243 23.7413C127.222 23.4776 127.203 23.2138 127.179 22.9504C127.168 22.8214 127.148 22.6931 127.131 22.5644C127.126 22.5233 127.12 22.4822 127.118 22.4408C127.104 22.2026 127.084 21.965 127.06 21.7275C127.042 21.5418 127.033 21.3552 127.019 21.1691C127 20.9156 126.982 20.6621 126.962 20.4088C126.957 20.352 126.949 20.2954 126.939 20.2393C126.899 20.0193 126.879 19.7975 126.868 19.5744C126.859 19.3879 126.845 19.2017 126.83 19.0156C126.816 18.8502 126.798 18.6852 126.782 18.52C126.778 18.4787 126.776 18.4372 126.773 18.3958C126.767 18.3079 126.769 18.2198 126.755 18.1322C126.744 18.0642 126.772 18.0106 126.834 17.9766C126.915 17.9314 126.997 17.8863 127.079 17.8414C127.298 17.7216 127.516 17.602 127.735 17.4824C127.917 17.3828 128.099 17.2835 128.281 17.1838C128.44 17.0965 128.599 17.0086 128.759 16.9212C128.968 16.8063 129.177 16.6915 129.387 16.5767C129.414 16.5618 129.441 16.5462 129.469 16.5328C129.619 16.461 129.758 16.3686 129.903 16.2886C129.921 16.2786 129.938 16.2656 129.955 16.2535C130.004 16.218 130.032 16.1702 130.036 16.1096C130.039 16.0786 130.04 16.0475 130.041 16.0164C130.051 15.8039 130.058 15.5913 130.073 15.3792C130.086 15.1878 130.109 14.9971 130.127 14.8061C130.132 14.7493 130.137 14.6924 130.14 14.6354C130.145 14.5111 130.146 14.3866 130.17 14.2637C130.177 14.2283 130.179 14.1918 130.167 14.1559C130.162 14.1406 130.136 14.119 130.12 14.1223C130.084 14.1299 130.048 14.1347 130.014 14.147C129.78 14.2319 129.54 14.2982 129.297 14.356C129.227 14.3728 129.158 14.3991 129.09 14.4248C129.032 14.447 128.973 14.4672 128.911 14.476C128.89 14.4789 128.869 14.4818 128.85 14.4889C128.63 14.5697 128.4 14.6145 128.177 14.6845C128.049 14.7248 127.921 14.7676 127.788 14.7932C127.752 14.8 127.718 14.8153 127.684 14.8274C127.586 14.862 127.488 14.8958 127.386 14.9151C127.355 14.9209 127.326 14.9317 127.296 14.941C127.261 14.9518 127.228 14.9663 127.192 14.9744C126.949 15.0302 126.713 15.1105 126.474 15.1801C126.449 15.1873 126.423 15.1925 126.398 15.1987C126.348 15.2112 126.295 15.2186 126.247 15.237C126.072 15.3039 125.89 15.3464 125.711 15.3989C125.671 15.4106 125.632 15.4257 125.591 15.4328C125.452 15.457 125.322 15.5126 125.186 15.5449C125.171 15.5484 125.157 15.5561 125.143 15.5627C125.111 15.5777 125.086 15.6168 125.092 15.6517C125.126 15.8456 125.128 16.0442 125.179 16.2354C125.228 16.4165 125.24 16.6034 125.269 16.7878C125.315 17.0901 125.351 17.394 125.411 17.6943C125.443 17.8518 125.461 18.012 125.486 18.1708C125.52 18.386 125.551 18.6015 125.577 18.8179C125.591 18.9364 125.611 19.0541 125.656 19.1658C125.658 19.1706 125.66 19.1756 125.661 19.1805C125.677 19.2286 125.671 19.273 125.636 19.3111C125.612 19.3379 125.587 19.3646 125.56 19.3896C125.455 19.4897 125.349 19.5889 125.243 19.6887C125.028 19.892 124.813 20.0954 124.598 20.2988C124.583 20.313 124.569 20.3286 124.553 20.3418C124.508 20.3795 124.425 20.3777 124.38 20.3388C124.372 20.3321 124.364 20.325 124.357 20.3176C124.076 20.0327 123.777 19.7675 123.485 19.4941C123.425 19.4373 123.367 19.3777 123.308 19.319C123.272 19.2826 123.264 19.2382 123.275 19.1896C123.278 19.1745 123.283 19.1593 123.288 19.1449C123.335 19.0279 123.354 18.904 123.366 18.7807C123.385 18.6 123.415 18.421 123.44 18.2414C123.454 18.1438 123.467 18.0461 123.483 17.949C123.506 17.8109 123.533 17.6733 123.556 17.5353C123.574 17.4279 123.591 17.3204 123.606 17.2125C123.635 16.9915 123.678 16.7724 123.697 16.5499C123.704 16.4779 123.722 16.4068 123.736 16.3356C123.755 16.239 123.776 16.1427 123.795 16.046C123.802 16.0104 123.808 15.9743 123.81 15.9381C123.815 15.8501 123.818 15.762 123.842 15.6763C123.845 15.6666 123.844 15.6557 123.844 15.6454C123.845 15.6098 123.822 15.5741 123.788 15.5594C123.774 15.5533 123.759 15.5465 123.744 15.5429C123.608 15.5105 123.478 15.4558 123.339 15.4308C123.288 15.4216 123.239 15.4014 123.19 15.3867C123.15 15.375 123.111 15.3598 123.07 15.3534C122.982 15.3395 122.9 15.3072 122.816 15.2803C122.751 15.2596 122.687 15.2394 122.622 15.2208C122.473 15.1777 122.323 15.1357 122.173 15.0932C122.068 15.0635 121.963 15.0338 121.859 15.0038C121.784 14.9823 121.709 14.9605 121.634 14.9386C121.614 14.9328 121.595 14.9236 121.575 14.92C121.446 14.8972 121.324 14.8534 121.202 14.8098C121.182 14.8028 121.163 14.7959 121.142 14.7914C120.935 14.7441 120.733 14.6749 120.529 14.6166C120.474 14.601 120.418 14.5876 120.363 14.5731C120.313 14.5598 120.262 14.5491 120.213 14.5325C120.134 14.506 120.057 14.4757 119.973 14.4661C119.947 14.4633 119.922 14.4545 119.898 14.4446C119.763 14.3889 119.623 14.3525 119.482 14.318C119.305 14.2751 119.131 14.2219 118.96 14.161C118.921 14.1472 118.881 14.1348 118.841 14.1243C118.795 14.1122 118.76 14.142 118.761 14.1921C118.762 14.223 118.767 14.2539 118.77 14.2846C118.775 14.331 118.785 14.3771 118.786 14.4236C118.797 14.7297 118.831 15.0339 118.864 15.3381C118.871 15.3999 118.871 15.4623 118.874 15.5245C118.883 15.7058 118.891 15.8871 118.9 16.0685C118.901 16.0943 118.905 16.1201 118.908 16.1457C118.913 16.1776 118.928 16.2057 118.952 16.2259C118.984 16.2525 119.017 16.2782 119.053 16.2988C119.448 16.5278 119.85 16.7453 120.252 16.9617C120.572 17.1339 120.889 17.3109 121.207 17.4856C121.421 17.6029 121.635 17.7199 121.849 17.8372C121.936 17.8846 122.023 17.9314 122.108 17.9799C122.163 18.011 122.188 18.0601 122.184 18.1228C122.171 18.2987 122.16 18.4748 122.142 18.6502C122.103 19.0321 122.072 19.4144 122.055 19.798C122.05 19.8961 122.039 19.9948 122.021 20.0914C121.966 20.383 121.952 20.6784 121.932 20.9733C121.911 21.2942 121.888 21.6149 121.855 21.9348C121.847 22.0122 121.843 22.09 121.838 22.1676C121.826 22.3436 121.815 22.5195 121.788 22.6942C121.747 22.9663 121.734 23.2412 121.71 23.515C121.694 23.6958 121.677 23.8766 121.663 24.0576C121.647 24.2696 121.632 24.4818 121.621 24.6941C121.612 24.8497 121.6 25.0048 121.571 25.1578C121.528 25.3774 121.505 25.5993 121.501 25.8224C121.494 26.1187 121.47 26.4127 121.421 26.7049C121.413 26.7556 121.416 26.8082 121.413 26.8599C121.412 26.8907 121.41 26.9219 121.405 26.9523C121.398 26.9938 121.34 27.0142 121.306 26.9887C121.302 26.9855 121.296 26.9839 121.293 26.9802C121.167 26.8403 121.009 26.7379 120.871 26.6119C120.52 26.3509 120.204 26.0507 119.893 25.7444C119.649 25.5039 119.409 25.259 119.17 25.0136C119.025 24.8649 118.887 24.7101 118.765 24.5416C118.701 24.4536 118.628 24.3715 118.559 24.2878C118.339 24.0246 118.134 23.7507 117.946 23.4641C117.806 23.2517 117.673 23.0355 117.545 22.8154C117.446 22.6446 117.363 22.4663 117.272 22.2912C117.193 22.1389 117.131 21.9796 117.067 21.8212C117.04 21.7541 117.021 21.6837 117 21.6143C116.988 21.5739 116.989 21.5328 116.998 21.4913C117.033 21.3345 117.069 21.1777 117.102 21.0204C117.117 20.9494 117.126 20.8773 117.139 20.806C117.155 20.7194 117.169 20.6321 117.19 20.5468C117.226 20.4059 117.26 20.2652 117.283 20.1215C117.299 20.0243 117.323 19.9286 117.341 19.8317C117.387 19.5766 117.444 19.3237 117.493 19.0692C117.498 19.044 117.499 19.0179 117.501 18.9922C117.502 18.9821 117.476 18.964 117.466 18.967C117.451 18.9715 117.436 18.9748 117.422 18.9814C117.319 19.0305 117.216 19.0804 117.113 19.1298C117.099 19.1365 117.085 19.1417 117.07 19.1473C117.055 19.1532 117.023 19.134 117.022 19.1189C117.021 19.1087 117.018 19.098 117.02 19.0882C117.033 19.0115 117.047 18.9349 117.061 18.8584C117.083 18.7359 117.103 18.6132 117.11 18.4885C117.118 18.3228 117.129 18.1572 117.138 17.9914C117.148 17.7998 117.155 17.6081 117.168 17.4166C117.175 17.308 117.186 17.1994 117.203 17.092C117.238 16.8763 117.254 16.6595 117.264 16.4416C117.272 16.2396 117.285 16.0376 117.299 15.8358C117.312 15.6444 117.329 15.4532 117.344 15.2619C117.356 15.1068 117.368 14.9517 117.377 14.7963C117.38 14.7397 117.38 14.6818 117.371 14.6258C117.327 14.3284 117.28 14.0313 117.232 13.7345C117.213 13.6168 117.186 13.5003 117.168 13.3826C117.153 13.2905 117.146 13.1973 117.134 13.1047C117.126 13.0431 117.119 12.9811 117.106 12.9204C117.068 12.7479 117.044 12.5732 117.02 12.3986C117.011 12.3316 117.001 12.2653 116.982 12.2002C116.974 12.1759 116.973 12.1493 116.973 12.1237C116.972 12.0827 117.006 12.0559 117.045 12.0662C117.285 12.1305 117.526 12.1957 117.767 12.2598C118.087 12.3453 118.408 12.43 118.73 12.5147C118.734 12.5158 118.743 12.5125 118.743 12.5106C118.744 12.5026 118.745 12.493 118.741 12.4865C118.736 12.4779 118.727 12.4707 118.719 12.4643C118.707 12.4547 118.694 12.4462 118.681 12.4375C118.454 12.2825 118.226 12.1276 117.999 11.9727C117.986 11.9639 117.973 11.9559 117.96 11.947C117.919 11.9184 117.897 11.8779 117.894 11.8291C117.891 11.793 117.894 11.7566 117.895 11.7203C117.9 11.5908 117.905 11.4612 117.909 11.3317C117.914 11.1969 117.919 11.0621 117.922 10.9273C117.924 10.8128 117.941 10.7001 117.958 10.5872C117.977 10.4589 117.994 10.3305 118.016 10.2028C118.027 10.1417 118.042 10.081 118.061 10.022C118.098 9.90843 118.135 9.79534 118.161 9.67859C118.165 9.65838 118.17 9.63783 118.177 9.61868C118.286 9.34383 118.388 9.06619 118.541 8.81105C118.589 8.73097 118.636 8.65011 118.682 8.56894C118.829 8.31022 119.012 8.07898 119.213 7.86043C119.395 7.66138 119.587 7.47152 119.787 7.28945C120.01 7.08585 120.25 6.90467 120.508 6.74786C120.601 6.6913 120.693 6.63271 120.786 6.57552C120.817 6.55648 120.848 6.53764 120.88 6.52086C121.05 6.43203 121.221 6.34401 121.391 6.25536C121.421 6.24018 121.45 6.23699 121.482 6.2461C121.502 6.25198 121.521 6.25895 121.533 6.27783C121.552 6.30893 121.57 6.34039 121.587 6.37223C121.847 6.8506 122.108 7.32912 122.368 7.80748C122.43 7.92127 122.493 8.03464 122.555 8.148C122.551 8.13686 122.553 8.13504 122.559 8.14235C122.556 8.14317 122.553 8.14418 122.549 8.14516Z" fill="#C7A363"/>
</g>
<path d="M17.1 8.2C17.06 7.82 17 7.66 16.86 7.66C16.72 7.66 16.64 7.8 16.56 7.98L10.68 20.54L4.56 7.96C4.46 7.74 4.38 7.66 4.26 7.66C4.14 7.66 4.06 7.82 4.04 8.04L2.6 21.06C2.5 21.92 2.42 22.6 1.8 22.72C1.5 22.78 1.36 22.78 1.2 22.78C1.1 22.78 1 22.82 1 22.88C1 23.02 1.14 23.06 1.34 23.06C1.88 23.06 2.84 23 3.02 23C3.18 23 4.14 23.06 4.88 23.06C5.12 23.06 5.24 23.02 5.24 22.88C5.24 22.82 5.16 22.78 5.08 22.78C4.96 22.78 4.66 22.76 4.32 22.68C4.02 22.62 3.8 22.36 3.8 22.06C3.8 21.62 3.82 21.06 3.86 20.52L4.62 11.76H4.7L9.72 22.18C10.02 22.8 10.18 23 10.3 23C10.46 23 10.54 22.86 10.86 22.18L15.86 11.56H15.92L16.86 21.66C16.88 21.9 16.9 22.16 16.9 22.22C16.9 22.44 16.86 22.58 16.8 22.6C16.7 22.62 16.66 22.66 16.66 22.74C16.66 22.84 16.76 22.9 17.22 22.94C17.96 23 20.12 23.06 20.56 23.06C20.8 23.06 20.98 23 20.98 22.88C20.98 22.8 20.92 22.78 20.82 22.78C20.62 22.78 20.1 22.78 19.52 22.6C18.66 22.32 18.52 21.2 18.44 20.48L17.1 8.2ZM27.8761 7.66C27.7561 7.66 27.6761 7.78 27.4361 8.44L22.8961 20.86C22.5361 21.86 22.1361 22.62 21.2161 22.74C21.0561 22.76 20.7761 22.78 20.6361 22.78C20.5361 22.78 20.4561 22.82 20.4561 22.9C20.4561 23.02 20.5761 23.06 20.8361 23.06C21.7761 23.06 22.8761 23 23.0961 23C23.3161 23 24.1761 23.06 24.6561 23.06C24.8361 23.06 24.9561 23.02 24.9561 22.9C24.9561 22.82 24.8961 22.78 24.7561 22.78H24.5561C24.2161 22.78 23.7961 22.6 23.7961 22.2C23.7961 21.84 23.8961 21.36 24.0761 20.86L25.2761 17.32C25.3161 17.22 25.3761 17.16 25.4761 17.16H29.7761C29.8761 17.16 29.9161 17.2 29.9561 17.28L31.8161 22.2C31.8561 22.28 31.8561 22.4 31.8561 22.46C31.8561 22.64 31.7361 22.74 31.6961 22.74C31.6361 22.74 31.5561 22.8 31.5561 22.88C31.5561 23 31.7761 23 32.1561 23.02C33.5361 23.06 34.9961 23.06 35.2961 23.06C35.5161 23.06 35.6961 23.02 35.6961 22.9C35.6961 22.8 35.6161 22.78 35.4961 22.78C35.2961 22.78 34.9961 22.76 34.6961 22.66C34.2761 22.54 33.6961 22.22 32.9761 20.44C31.7561 17.4 28.6161 9.14 28.3161 8.38C28.0761 7.76 27.9961 7.66 27.8761 7.66ZM25.6961 16.44C25.6361 16.44 25.5961 16.4 25.6361 16.3L27.3961 10.9C27.4361 10.76 27.4961 10.68 27.5361 10.68C27.5961 10.68 27.6361 10.74 27.6961 10.9L29.5961 16.3C29.6161 16.38 29.6161 16.44 29.5161 16.44H25.6961ZM37.48 21.06C36.82 22.08 36.42 22.52 35.82 22.68C35.52 22.76 35.22 22.78 35.06 22.78C34.96 22.78 34.9 22.84 34.9 22.92C34.9 23 34.94 23.06 35.1 23.06C35.76 23.06 36.74 23 36.92 23C37.1 23 38.36 23.06 38.84 23.06C38.98 23.06 39.08 23.02 39.08 22.92C39.08 22.84 39.02 22.78 38.92 22.78C38.82 22.78 38.66 22.76 38.54 22.74C38.36 22.7 38.22 22.56 38.22 22.36C38.22 22.16 38.3 21.8 38.48 21.48L41.6 16.18C42.8 18.2 43.96 20.18 45.04 22.14C45.22 22.46 45.04 22.66 44.94 22.7C44.86 22.72 44.82 22.78 44.82 22.86C44.82 22.96 44.92 22.98 45.44 23.02C46.46 23.04 47.42 23.06 48.64 23.06C48.82 23.06 48.92 23 48.92 22.9C48.92 22.82 48.86 22.78 48.76 22.78C48.64 22.78 48.34 22.74 48.06 22.66C47.48 22.48 47.2 22.18 46.88 21.76C46.46 21.22 43.04 15.4 42.66 14.78L45.88 9.94C46.46 9.08 46.84 8.5 47.42 8.32C47.64 8.24 47.94 8.22 48.08 8.22C48.22 8.22 48.3 8.16 48.3 8.08C48.3 8 48.2 7.94 47.98 7.94C47.3 7.94 46.48 8 46.3 8C46.12 8 45.28 7.94 44.52 7.94C44.28 7.94 44.18 8 44.18 8.08C44.18 8.18 44.24 8.22 44.36 8.22C44.48 8.22 44.76 8.22 44.96 8.28C45.16 8.34 45.3 8.5 45.3 8.64C45.3 8.88 45.24 9.06 45.1 9.36C44.9 9.78 42.76 13.2 42.16 14.06C41.12 12.34 40.3 10.86 39.46 9.28C39.34 9.06 39.26 8.82 39.26 8.62C39.26 8.48 39.32 8.34 39.5 8.28C39.66 8.22 39.92 8.22 40.04 8.22C40.16 8.22 40.22 8.18 40.22 8.08C40.22 7.98 40.16 7.94 39.88 7.94C39.2 7.94 38.18 8 38 8C37.84 8 36.22 7.94 35.66 7.94C35.4 7.94 35.32 7.98 35.32 8.08C35.32 8.16 35.38 8.22 35.5 8.22C35.62 8.22 36.02 8.26 36.34 8.36C37.02 8.6 37.44 9.18 37.9 9.96L41.1 15.34L37.48 21.06ZM54.1267 13.74C54.1267 10.62 54.1267 10.06 54.1667 9.42C54.2067 8.72 54.3667 8.38 54.9067 8.28C55.1467 8.24 55.2667 8.22 55.4067 8.22C55.4867 8.22 55.5667 8.18 55.5667 8.1C55.5667 7.98 55.4667 7.94 55.2467 7.94C54.6467 7.94 53.3867 8 53.2867 8C53.1867 8 51.6867 7.94 51.0267 7.94C50.8067 7.94 50.7067 7.98 50.7067 8.1C50.7067 8.18 50.7867 8.22 50.8667 8.22C51.0467 8.22 51.3867 8.24 51.5467 8.28C52.2067 8.42 52.3267 8.72 52.3867 9.2C52.4267 9.54 52.4467 10.38 52.4467 13.74V17.26C52.4467 19.7 52.4067 21.32 52.3067 21.84C52.1867 22.42 52.0867 22.6 51.7667 22.7C51.5867 22.76 51.3467 22.78 51.1667 22.78C51.0467 22.78 51.0067 22.84 51.0067 22.9C51.0067 23.02 51.1067 23.06 51.3267 23.06C51.6867 23.06 53.1867 23 53.2867 23C53.3867 23 54.6467 23.06 55.7467 23.06C55.9667 23.06 56.0667 23 56.0667 22.9C56.0667 22.84 56.0267 22.78 55.9067 22.78C55.7267 22.78 55.2867 22.74 55.0067 22.7C54.4067 22.62 54.2867 22.18 54.2267 21.6C54.1267 20.76 54.1267 19.18 54.1267 17.26V13.74ZM74.7953 8.2C74.7553 7.82 74.6953 7.66 74.5553 7.66C74.4153 7.66 74.3353 7.8 74.2553 7.98L68.3753 20.54L62.2553 7.96C62.1553 7.74 62.0753 7.66 61.9553 7.66C61.8353 7.66 61.7553 7.82 61.7353 8.04L60.2953 21.06C60.1953 21.92 60.1153 22.6 59.4953 22.72C59.1953 22.78 59.0553 22.78 58.8953 22.78C58.7953 22.78 58.6953 22.82 58.6953 22.88C58.6953 23.02 58.8353 23.06 59.0353 23.06C59.5753 23.06 60.5353 23 60.7153 23C60.8753 23 61.8353 23.06 62.5753 23.06C62.8153 23.06 62.9353 23.02 62.9353 22.88C62.9353 22.82 62.8553 22.78 62.7753 22.78C62.6553 22.78 62.3553 22.76 62.0153 22.68C61.7153 22.62 61.4953 22.36 61.4953 22.06C61.4953 21.62 61.5153 21.06 61.5553 20.52L62.3153 11.76H62.3953L67.4153 22.18C67.7153 22.8 67.8753 23 67.9953 23C68.1553 23 68.2353 22.86 68.5553 22.18L73.5553 11.56H73.6153L74.5553 21.66C74.5753 21.9 74.5953 22.16 74.5953 22.22C74.5953 22.44 74.5553 22.58 74.4953 22.6C74.3953 22.62 74.3553 22.66 74.3553 22.74C74.3553 22.84 74.4553 22.9 74.9153 22.94C75.6553 23 77.8153 23.06 78.2553 23.06C78.4953 23.06 78.6753 23 78.6753 22.88C78.6753 22.8 78.6153 22.78 78.5153 22.78C78.3153 22.78 77.7953 22.78 77.2153 22.6C76.3553 22.32 76.2153 21.2 76.1353 20.48L74.7953 8.2ZM81.0914 16.66C81.0914 19.58 81.8514 20.98 82.8314 21.92C84.2514 23.26 86.2714 23.34 86.9514 23.34C88.1314 23.34 89.6314 23.14 91.0714 21.86C92.6714 20.44 92.9114 18.04 92.9114 15.88V13.74C92.9114 10.62 92.9114 10.06 92.9514 9.42C92.9914 8.72 93.1514 8.38 93.6914 8.28C93.9314 8.22 94.0514 8.22 94.1914 8.22C94.2714 8.22 94.3514 8.18 94.3514 8.1C94.3514 7.98 94.2514 7.94 94.0314 7.94C93.4314 7.94 92.4914 8 92.3514 8C92.2314 8 91.1314 7.94 90.2314 7.94C90.0114 7.94 89.9114 7.98 89.9114 8.1C89.9114 8.18 89.9914 8.22 90.0714 8.22C90.2514 8.22 90.5914 8.24 90.7514 8.28C91.4114 8.42 91.5714 8.74 91.6114 9.42C91.6514 10.06 91.6514 10.62 91.6514 13.74V16.24C91.6514 18.3 91.4114 20 90.4914 21.14C89.7714 22 88.5714 22.58 87.3514 22.58C86.2114 22.58 85.3114 22.4 84.3314 21.48C83.4714 20.66 82.8314 19.42 82.8314 16.54V13.74C82.8314 10.62 82.8314 10.06 82.8714 9.42C82.9114 8.72 83.0714 8.36 83.6114 8.28C83.8514 8.24 83.9714 8.22 84.1114 8.22C84.1914 8.22 84.2714 8.18 84.2714 8.1C84.2714 7.98 84.1714 7.94 83.9514 7.94C83.3514 7.94 82.1514 8 81.9714 8C81.7914 8 80.5714 7.94 79.6714 7.94C79.4514 7.94 79.3514 7.98 79.3514 8.1C79.3514 8.18 79.4314 8.22 79.5114 8.22C79.6914 8.22 80.0314 8.24 80.1914 8.28C80.8514 8.42 81.0114 8.74 81.0514 9.42C81.0914 10.06 81.0914 10.62 81.0914 13.74V16.66ZM104.573 10.22C104.573 8.86 104.653 8.2 104.653 8.1C104.653 8 104.613 7.96 104.453 7.96C104.293 7.96 104.133 7.94 103.753 7.86C103.253 7.74 102.673 7.66 101.893 7.66C99.353 7.66 97.753 9.12 97.753 11.26C97.753 12.62 98.233 13.86 100.353 15.6L101.253 16.34C102.973 17.76 103.553 18.56 103.553 19.94C103.553 21.22 102.613 22.6 100.693 22.6C99.353 22.6 98.033 22.04 97.733 20.56C97.673 20.28 97.673 20 97.673 19.82C97.673 19.66 97.653 19.6 97.533 19.6C97.433 19.6 97.393 19.7 97.373 19.92C97.353 20.24 97.273 21.04 97.273 22.04C97.273 22.58 97.293 22.66 97.573 22.8C98.393 23.2 99.313 23.34 100.253 23.34C103.313 23.34 104.973 21.44 104.973 19.18C104.973 17.48 104.173 16.18 102.673 14.98L101.493 14.04C99.593 12.52 99.053 11.82 99.053 10.68C99.053 9.22 100.133 8.36 101.513 8.36C103.353 8.36 103.893 9.2 104.013 9.42C104.133 9.64 104.253 10.18 104.273 10.42C104.293 10.58 104.313 10.68 104.433 10.68C104.533 10.68 104.573 10.54 104.573 10.22ZM147.039 8.8L149.559 8.84C151.479 8.88 151.939 9.34 152.019 9.94L152.039 10.16C152.059 10.44 152.099 10.5 152.199 10.5C152.279 10.5 152.339 10.42 152.339 10.24C152.339 10.02 152.399 8.64 152.399 8.04C152.399 7.92 152.399 7.8 152.299 7.8C152.139 7.8 151.599 8 150.319 8H142.819C142.579 8 141.819 7.96 141.239 7.9C140.699 7.86 140.499 7.66 140.359 7.66C140.279 7.66 140.199 7.92 140.159 8.04C140.119 8.2 139.719 9.92 139.719 10.12C139.719 10.24 139.759 10.3 139.819 10.3C139.899 10.3 139.959 10.26 140.019 10.1C140.079 9.96 140.139 9.82 140.359 9.48C140.679 9 141.159 8.86 142.399 8.84L145.359 8.8V17.26C145.359 19.18 145.359 20.76 145.259 21.6C145.179 22.18 145.079 22.62 144.679 22.7C144.499 22.74 144.259 22.78 144.079 22.78C143.959 22.78 143.919 22.84 143.919 22.9C143.919 23.02 144.019 23.06 144.239 23.06C144.839 23.06 146.099 23 146.199 23C146.299 23 147.559 23.06 148.659 23.06C148.879 23.06 148.979 23 148.979 22.9C148.979 22.84 148.939 22.78 148.819 22.78C148.639 22.78 148.199 22.74 147.919 22.7C147.319 22.62 147.199 22.18 147.139 21.6C147.039 20.76 147.039 19.18 147.039 17.26V8.8ZM156.607 17.26C156.607 19.18 156.607 20.76 156.507 21.6C156.427 22.18 156.327 22.62 155.927 22.7C155.747 22.74 155.507 22.78 155.327 22.78C155.207 22.78 155.167 22.84 155.167 22.9C155.167 23.02 155.267 23.06 155.487 23.06C156.087 23.06 157.347 23 157.367 23C157.467 23 158.727 23.06 159.827 23.06C160.047 23.06 160.147 23 160.147 22.9C160.147 22.84 160.107 22.78 159.987 22.78C159.807 22.78 159.367 22.74 159.087 22.7C158.487 22.62 158.367 22.18 158.307 21.6C158.207 20.76 158.207 19.18 158.207 17.26V16.78C158.207 16.68 158.247 16.62 158.347 16.62L160.807 16.66C160.927 16.66 160.987 16.7 161.067 16.78C161.467 17.3 162.407 18.64 163.247 19.74C164.387 21.24 165.087 22.22 165.947 22.68C166.467 22.96 166.967 23.06 168.087 23.06H169.507C169.867 23.06 169.987 23.02 169.987 22.9C169.987 22.84 169.907 22.78 169.807 22.78C169.687 22.78 169.407 22.78 169.027 22.72C168.527 22.64 167.667 22.42 166.587 21.28C165.427 20.04 164.067 18.26 162.427 16.16C164.227 14.5 164.847 13.02 164.847 11.54C164.847 10.16 163.967 9.18 163.467 8.82C162.407 8.06 161.067 7.94 159.807 7.94C159.187 7.94 157.667 8 157.447 8C157.347 8 156.087 7.94 155.187 7.94C154.967 7.94 154.867 7.98 154.867 8.1C154.867 8.18 154.947 8.22 155.027 8.22C155.207 8.22 155.547 8.24 155.707 8.28C156.367 8.42 156.527 8.74 156.567 9.42C156.607 10.06 156.607 10.62 156.607 13.74V17.26ZM158.207 8.94C158.207 8.82 158.267 8.74 158.367 8.7C158.567 8.64 159.107 8.58 159.707 8.58C161.847 8.58 163.167 10.08 163.167 12.58C163.167 14.1 162.647 15.18 161.947 15.66C161.487 15.98 160.927 16.04 160.447 16.04C159.567 16.04 158.647 15.9 158.347 15.72C158.247 15.66 158.207 15.58 158.207 15.48V8.94ZM175.005 7.66C174.885 7.66 174.805 7.78 174.565 8.44L170.025 20.86C169.665 21.86 169.265 22.62 168.345 22.74C168.185 22.76 167.905 22.78 167.765 22.78C167.665 22.78 167.585 22.82 167.585 22.9C167.585 23.02 167.705 23.06 167.965 23.06C168.905 23.06 170.005 23 170.225 23C170.445 23 171.305 23.06 171.785 23.06C171.965 23.06 172.085 23.02 172.085 22.9C172.085 22.82 172.025 22.78 171.885 22.78H171.685C171.345 22.78 170.925 22.6 170.925 22.2C170.925 21.84 171.025 21.36 171.205 20.86L172.405 17.32C172.445 17.22 172.505 17.16 172.605 17.16H176.905C177.005 17.16 177.045 17.2 177.085 17.28L178.945 22.2C178.985 22.28 178.985 22.4 178.985 22.46C178.985 22.64 178.865 22.74 178.825 22.74C178.765 22.74 178.685 22.8 178.685 22.88C178.685 23 178.905 23 179.285 23.02C180.665 23.06 182.125 23.06 182.425 23.06C182.645 23.06 182.825 23.02 182.825 22.9C182.825 22.8 182.745 22.78 182.625 22.78C182.425 22.78 182.125 22.76 181.825 22.66C181.405 22.54 180.825 22.22 180.105 20.44C178.885 17.4 175.745 9.14 175.445 8.38C175.205 7.76 175.125 7.66 175.005 7.66ZM172.825 16.44C172.765 16.44 172.725 16.4 172.765 16.3L174.525 10.9C174.565 10.76 174.625 10.68 174.665 10.68C174.725 10.68 174.765 10.74 174.825 10.9L176.725 16.3C176.745 16.38 176.745 16.44 176.645 16.44H172.825ZM190.289 7.94C189.089 7.94 186.769 8 186.529 8C186.429 8 185.169 7.94 184.269 7.94C184.049 7.94 183.949 7.98 183.949 8.1C183.949 8.18 184.029 8.22 184.109 8.22C184.289 8.22 184.629 8.24 184.789 8.28C185.449 8.42 185.569 8.72 185.629 9.2C185.669 9.54 185.689 10.38 185.689 13.74V17.26C185.689 19.7 185.649 21.32 185.549 21.84C185.429 22.42 185.329 22.6 185.009 22.7C184.829 22.76 184.589 22.78 184.409 22.78C184.289 22.78 184.249 22.84 184.249 22.9C184.249 23.02 184.349 23.06 184.569 23.06C185.169 23.06 186.429 23 186.529 23C186.729 23 189.249 23.24 190.969 23.24C196.329 23.24 199.189 19.54 199.189 15.3C199.189 9.84 195.029 7.94 190.289 7.94ZM187.369 10.62C187.369 8.94 187.429 8.86 187.629 8.76C187.789 8.68 188.529 8.62 188.929 8.62C193.729 8.62 197.389 11.12 197.389 15.92C197.389 20.02 194.909 22.56 191.029 22.56C188.669 22.56 187.929 22.16 187.629 21.76C187.429 21.48 187.369 20.28 187.369 18.14V10.62ZM205.709 8.92C205.709 8.78 205.749 8.74 205.829 8.74C206.229 8.74 208.029 8.8 208.149 8.8C209.329 8.8 209.809 9.2 209.929 9.46C210.049 9.72 210.109 10.06 210.109 10.22C210.109 10.36 210.149 10.44 210.249 10.44C210.349 10.44 210.389 10.34 210.409 10.24C210.449 10 210.489 9.12 210.509 8.92C210.569 8.36 210.669 8.12 210.669 7.98C210.669 7.88 210.629 7.76 210.549 7.76C210.469 7.76 210.389 7.84 210.269 7.88C210.189 7.9 209.709 7.94 209.389 7.96C209.069 7.98 207.029 8 204.869 8C204.769 8 203.509 7.94 202.609 7.94C202.389 7.94 202.289 7.98 202.289 8.1C202.289 8.18 202.369 8.22 202.449 8.22C202.629 8.22 202.969 8.24 203.129 8.28C203.789 8.42 203.909 8.72 203.969 9.2C204.009 9.54 204.029 10.38 204.029 13.74V17.26C204.029 19.7 203.989 21.32 203.889 21.84C203.769 22.42 203.669 22.6 203.349 22.7C203.169 22.76 202.929 22.78 202.749 22.78C202.629 22.78 202.589 22.84 202.589 22.9C202.589 23.02 202.689 23.06 202.909 23.06C203.349 23.06 204.349 23 204.869 23C205.449 23 206.789 23.12 209.809 23.12C210.589 23.12 210.749 23.12 210.889 22.6C210.989 22.18 211.149 20.82 211.149 20.66C211.149 20.52 211.149 20.36 211.029 20.36C210.929 20.36 210.889 20.44 210.849 20.66C210.709 21.48 210.469 21.88 209.949 22.1C209.429 22.32 208.549 22.32 208.029 22.32C206.069 22.32 205.709 22 205.709 20.68V15.5C205.709 15.42 205.749 15.36 205.849 15.36C206.189 15.36 208.169 15.4 208.709 15.46C209.489 15.54 209.669 15.88 209.749 16.16C209.829 16.42 209.829 16.62 209.829 16.82C209.829 16.92 209.869 17 209.969 17C210.089 17 210.109 16.84 210.109 16.62C210.109 15.64 210.349 14.3 210.349 14.22C210.349 14.1 210.309 14.06 210.249 14.06C210.169 14.06 210.089 14.16 209.949 14.32C209.769 14.52 209.489 14.56 209.009 14.6C208.549 14.64 206.089 14.64 205.829 14.64C205.729 14.64 205.709 14.58 205.709 14.44V8.92Z" fill="#C7A363"/>
<defs>
<clipPath id="clip0_13621_321">
<rect width="14.9967" height="27" fill="white" transform="translate(116.975)"/>
</clipPath>
</defs>
</svg>
