<svg width="16" height="16" viewBox="0 0 16 16" fill="none" xmlns="http://www.w3.org/2000/svg">
<path d="M7.57347 7.70724C8.6323 7.70724 9.54917 7.32749 10.2983 6.57822C11.0475 5.82908 11.4272 4.91246 11.4272 3.8535C11.4272 2.79491 11.0475 1.87817 10.2982 1.12878C9.54893 0.379759 8.63218 0 7.57347 0C6.51452 0 5.59789 0.379759 4.84875 1.1289C4.09961 1.87804 3.71973 2.79479 3.71973 3.8535C3.71973 4.91246 4.09961 5.8292 4.84887 6.57834C5.59814 7.32736 6.51488 7.70724 7.57347 7.70724Z" fill="#B9B9B9"/>
<path d="M14.3165 12.3031C14.2949 11.9913 14.2512 11.6512 14.1868 11.2921C14.1219 10.9303 14.0383 10.5882 13.9382 10.2756C13.8348 9.95251 13.6942 9.63342 13.5203 9.32763C13.3399 9.01025 13.128 8.73388 12.8902 8.50647C12.6416 8.26855 12.3371 8.07727 11.9851 7.93774C11.6342 7.79895 11.2454 7.72864 10.8296 7.72864C10.6662 7.72864 10.5083 7.79565 10.2032 7.99426C10.0155 8.1167 9.79586 8.2583 9.55075 8.41491C9.34115 8.54846 9.05722 8.67358 8.70651 8.78686C8.36435 8.89758 8.01694 8.95373 7.67405 8.95373C7.33115 8.95373 6.98386 8.89758 6.64134 8.78686C6.29099 8.6737 6.00706 8.54858 5.79771 8.41504C5.55491 8.25989 5.33519 8.11828 5.14464 7.99414C4.83995 7.79553 4.68187 7.72852 4.51854 7.72852C4.10253 7.72852 3.71386 7.79895 3.36315 7.93787C3.01134 8.07715 2.70678 8.26843 2.45788 8.50659C2.22021 8.73413 2.00817 9.01037 1.828 9.32763C1.65429 9.63342 1.51367 9.95238 1.41015 10.2757C1.31018 10.5884 1.22656 10.9303 1.16162 11.2921C1.09729 11.6507 1.05359 11.991 1.03198 12.3034C1.01074 12.6096 1 12.9273 1 13.2483C1 14.0835 1.2655 14.7596 1.78906 15.2583C2.30615 15.7503 2.99035 16 3.82238 16H11.5264C12.3585 16 13.0424 15.7505 13.5596 15.2583C14.0833 14.76 14.3488 14.0837 14.3488 13.2481C14.3487 12.9258 14.3378 12.6078 14.3165 12.3031Z" fill="#B9B9B9"/>
</svg>
